<svg width="28" height="16" viewBox="0 0 28 16" fill="none" xmlns="http://www.w3.org/2000/svg">
<path d="M25.3316 5.35355C25.5268 5.15829 25.5268 4.84171 25.3316 4.64645L22.1496 1.46447C21.9543 1.2692 21.6378 1.2692 21.4425 1.46447C21.2472 1.65973 21.2472 1.97631 21.4425 2.17157L24.2709 5L21.4425 7.82843C21.2472 8.02369 21.2472 8.34027 21.4425 8.53553C21.6378 8.7308 21.9543 8.7308 22.1496 8.53553L25.3316 5.35355ZM10.008 5V5.5L24.978 5.5V5V4.5L10.008 4.5V5Z" fill="black"/>
<path d="M2.66842 9.64645C2.47316 9.84171 2.47316 10.1583 2.66842 10.3536L5.8504 13.5355C6.04566 13.7308 6.36225 13.7308 6.55751 13.5355C6.75277 13.3403 6.75277 13.0237 6.55751 12.8284L3.72908 10L6.55751 7.17157C6.75277 6.97631 6.75277 6.65973 6.55751 6.46447C6.36225 6.2692 6.04566 6.2692 5.8504 6.46447L2.66842 9.64645ZM17.992 10L17.992 9.5L3.02197 9.5L3.02197 10L3.02197 10.5L17.992 10.5L17.992 10Z" fill="black"/>
</svg>
