<svg width="28" height="24" viewBox="0 0 28 24" fill="none" xmlns="http://www.w3.org/2000/svg">
<rect width="28" height="24" fill="white"/>
<path d="M25.3536 6.35355C25.5488 6.15829 25.5488 5.84171 25.3536 5.64645L22.1716 2.46447C21.9763 2.2692 21.6597 2.2692 21.4645 2.46447C21.2692 2.65973 21.2692 2.97631 21.4645 3.17157L24.2929 6L21.4645 8.82843C21.2692 9.02369 21.2692 9.34027 21.4645 9.53553C21.6597 9.7308 21.9763 9.7308 22.1716 9.53553L25.3536 6.35355ZM2 6V6.5H25V6V5.5H2V6Z" fill="black"/>
<path d="M1.64645 17.6464C1.45118 17.8417 1.45118 18.1583 1.64645 18.3536L4.82843 21.5355C5.02369 21.7308 5.34027 21.7308 5.53553 21.5355C5.7308 21.3403 5.7308 21.0237 5.53553 20.8284L2.70711 18L5.53553 15.1716C5.7308 14.9763 5.7308 14.6597 5.53553 14.4645C5.34027 14.2692 5.02369 14.2692 4.82843 14.4645L1.64645 17.6464ZM2 18V18.5H25V18V17.5H2V18Z" fill="black"/>
</svg>
