<?xml version="1.0" encoding="UTF-8"?><svg id="Ebene_2" xmlns="http://www.w3.org/2000/svg" viewBox="0 0 445.29 27.01"><defs><style>.cls-1{fill:none;stroke:#000;stroke-miterlimit:10;stroke-width:10px;}</style></defs><g id="individual"><path class="cls-1" d="M445.29,5c-18.55,0-18.55,17.01-37.1,17.01-18.55,0-18.55-17.01-37.1-17.01s-18.55,17.01-37.11,17.01-18.55-17.01-37.11-17.01c-18.55,0-18.55,17.01-37.11,17.01-18.55,0-18.55-17.01-37.1-17.01-18.55,0-18.55,17.01-37.11,17.01s-18.55-17.01-37.11-17.01c-18.55,0-18.55,17.01-37.11,17.01S92.78,5,74.23,5c-18.56,0-18.56,17.01-37.11,17.01S18.56,5,0,5"/></g></svg>