<svg width="214" height="74" viewBox="0 0 214 74" fill="none" xmlns="http://www.w3.org/2000/svg">
<path d="M0.814688 59V52.32H3.50469C3.99135 52.32 4.38469 52.4 4.68469 52.56C4.99135 52.72 5.21469 52.9267 5.35469 53.18C5.50135 53.4267 5.57469 53.6933 5.57469 53.98C5.57469 54.2467 5.51469 54.51 5.39469 54.77C5.27469 55.03 5.10135 55.2567 4.87469 55.45C5.20802 55.6233 5.45469 55.86 5.61469 56.16C5.78135 56.4533 5.86469 56.76 5.86469 57.08C5.86469 57.4 5.78135 57.7067 5.61469 58C5.45469 58.2933 5.21135 58.5333 4.88469 58.72C4.55802 58.9067 4.15135 59 3.66469 59H0.814688ZM1.75469 55.18H3.60469C3.94469 55.18 4.19802 55.0733 4.36469 54.86C4.53802 54.6467 4.62469 54.4133 4.62469 54.16C4.62469 53.9867 4.58469 53.82 4.50469 53.66C4.43135 53.5 4.31802 53.37 4.16469 53.27C4.01802 53.1633 3.83135 53.11 3.60469 53.11H1.75469V55.18ZM1.75469 58.21H3.76469C4.01135 58.21 4.21802 58.1533 4.38469 58.04C4.55135 57.9267 4.67802 57.7833 4.76469 57.61C4.85135 57.43 4.89469 57.2433 4.89469 57.05C4.89469 56.8567 4.85135 56.6767 4.76469 56.51C4.68469 56.3367 4.55802 56.1967 4.38469 56.09C4.21802 55.9767 4.00802 55.92 3.75469 55.92H1.75469V58.21ZM8.51609 59.12C8.12943 59.12 7.81943 59.04 7.58609 58.88C7.35276 58.7133 7.18276 58.4867 7.07609 58.2C6.97609 57.9067 6.92609 57.5733 6.92609 57.2V54.03H7.76609V57C7.76609 57.3667 7.80943 57.65 7.89609 57.85C7.98276 58.05 8.10276 58.19 8.25609 58.27C8.41609 58.3433 8.59943 58.38 8.80609 58.38C9.19943 58.38 9.50609 58.2433 9.72609 57.97C9.95276 57.69 10.0661 57.2867 10.0661 56.76V54.03H10.9061V59H10.2761L10.0661 58.28C9.92609 58.52 9.73609 58.72 9.49609 58.88C9.25609 59.04 8.92943 59.12 8.51609 59.12ZM14.7574 59.12C14.3708 59.12 14.0441 59.0433 13.7774 58.89C13.5108 58.73 13.3008 58.5167 13.1474 58.25L12.9274 59H12.3074V52.32H13.1474V54.82C13.3008 54.56 13.5108 54.3533 13.7774 54.2C14.0441 54.04 14.3708 53.96 14.7574 53.96C15.1374 53.96 15.4874 54.0633 15.8074 54.27C16.1341 54.47 16.3941 54.7633 16.5874 55.15C16.7874 55.53 16.8874 55.9933 16.8874 56.54C16.8874 57.0867 16.7874 57.5533 16.5874 57.94C16.3941 58.32 16.1341 58.6133 15.8074 58.82C15.4874 59.02 15.1374 59.12 14.7574 59.12ZM14.5374 58.4C14.9641 58.4 15.3041 58.2367 15.5574 57.91C15.8174 57.5833 15.9474 57.1267 15.9474 56.54C15.9474 55.9467 15.8174 55.49 15.5574 55.17C15.3041 54.8433 14.9641 54.68 14.5374 54.68C14.1108 54.68 13.7674 54.8433 13.5074 55.17C13.2541 55.49 13.1274 55.9467 13.1274 56.54C13.1274 57.1267 13.2541 57.5833 13.5074 57.91C13.7674 58.2367 14.1108 58.4 14.5374 58.4ZM20.4215 59.12C20.0348 59.12 19.7082 59.0433 19.4415 58.89C19.1748 58.73 18.9648 58.5167 18.8115 58.25L18.5915 59H17.9715V52.32H18.8115V54.82C18.9648 54.56 19.1748 54.3533 19.4415 54.2C19.7082 54.04 20.0348 53.96 20.4215 53.96C20.8015 53.96 21.1515 54.0633 21.4715 54.27C21.7982 54.47 22.0582 54.7633 22.2515 55.15C22.4515 55.53 22.5515 55.9933 22.5515 56.54C22.5515 57.0867 22.4515 57.5533 22.2515 57.94C22.0582 58.32 21.7982 58.6133 21.4715 58.82C21.1515 59.02 20.8015 59.12 20.4215 59.12ZM20.2015 58.4C20.6282 58.4 20.9682 58.2367 21.2215 57.91C21.4815 57.5833 21.6115 57.1267 21.6115 56.54C21.6115 55.9467 21.4815 55.49 21.2215 55.17C20.9682 54.8433 20.6282 54.68 20.2015 54.68C19.7748 54.68 19.4315 54.8433 19.1715 55.17C18.9182 55.49 18.7915 55.9467 18.7915 56.54C18.7915 57.1267 18.9182 57.5833 19.1715 57.91C19.4315 58.2367 19.7748 58.4 20.2015 58.4ZM24.8055 59C24.4922 59 24.2489 58.97 24.0755 58.91C23.9089 58.8433 23.7922 58.72 23.7255 58.54C23.6655 58.36 23.6355 58.1 23.6355 57.76V52.33H24.4755V57.62C24.4755 57.8733 24.5022 58.0433 24.5555 58.13C24.6089 58.2167 24.7522 58.26 24.9855 58.26H25.1755V59H24.8055ZM28.1381 59.12C27.6181 59.12 27.1781 59.0067 26.8181 58.78C26.4581 58.5467 26.1815 58.2367 25.9881 57.85C25.8015 57.4567 25.7081 57.0167 25.7081 56.53C25.7081 56.0033 25.8148 55.55 26.0281 55.17C26.2415 54.7833 26.5281 54.4867 26.8881 54.28C27.2548 54.0667 27.6648 53.96 28.1181 53.96C28.5115 53.96 28.8581 54.04 29.1581 54.2C29.4581 54.3533 29.7048 54.5633 29.8981 54.83C30.0981 55.09 30.2415 55.3867 30.3281 55.72C30.4215 56.0533 30.4548 56.3967 30.4281 56.75H26.6081C26.6215 57.1633 26.7115 57.49 26.8781 57.73C27.0515 57.97 27.2548 58.14 27.4881 58.24C27.7215 58.3333 27.9381 58.38 28.1381 58.38C28.4181 58.38 28.6515 58.3367 28.8381 58.25C29.0315 58.1567 29.1848 58.0367 29.2981 57.89L30.1081 58.13C29.9281 58.4167 29.6715 58.6533 29.3381 58.84C29.0048 59.0267 28.6048 59.12 28.1381 59.12ZM26.6181 56.08H29.5381C29.5381 55.8467 29.4781 55.6233 29.3581 55.41C29.2448 55.1967 29.0815 55.0233 28.8681 54.89C28.6615 54.75 28.4115 54.68 28.1181 54.68C27.8715 54.68 27.6381 54.7267 27.4181 54.82C27.1981 54.9133 27.0148 55.0633 26.8681 55.27C26.7281 55.4767 26.6448 55.7467 26.6181 56.08ZM33.1088 59.12C32.8221 59.12 32.5388 59.0767 32.2588 58.99C31.9854 58.8967 31.7388 58.76 31.5188 58.58C31.3054 58.3933 31.1421 58.16 31.0288 57.88L31.8388 57.58C31.9121 57.8733 32.0721 58.0867 32.3188 58.22C32.5721 58.3467 32.8354 58.41 33.1088 58.41C33.3088 58.41 33.4954 58.38 33.6688 58.32C33.8488 58.26 33.9954 58.1733 34.1088 58.06C34.2221 57.9467 34.2788 57.8167 34.2788 57.67C34.2788 57.3967 34.1688 57.2033 33.9488 57.09C33.7354 56.9767 33.4788 56.89 33.1788 56.83L32.4888 56.69C32.2488 56.6367 32.0254 56.5633 31.8188 56.47C31.6121 56.37 31.4454 56.23 31.3188 56.05C31.1921 55.87 31.1288 55.63 31.1288 55.33C31.1288 55.03 31.2221 54.78 31.4088 54.58C31.5954 54.3733 31.8321 54.2167 32.1188 54.11C32.4121 54.0033 32.7188 53.95 33.0388 53.95C33.4321 53.95 33.8021 54.0333 34.1488 54.2C34.5021 54.36 34.7521 54.6133 34.8988 54.96L34.1088 55.25C34.0221 55.05 33.8688 54.9033 33.6488 54.81C33.4354 54.71 33.2121 54.66 32.9788 54.66C32.7254 54.66 32.4954 54.7167 32.2888 54.83C32.0821 54.9433 31.9788 55.1067 31.9788 55.32C31.9788 55.5333 32.0654 55.69 32.2388 55.79C32.4188 55.8833 32.6388 55.9567 32.8988 56.01L33.5488 56.14C33.8154 56.1933 34.0688 56.27 34.3088 56.37C34.5488 56.47 34.7454 56.62 34.8988 56.82C35.0521 57.0133 35.1288 57.2867 35.1288 57.64C35.1288 57.9533 35.0321 58.22 34.8388 58.44C34.6454 58.66 34.3954 58.83 34.0888 58.95C33.7821 59.0633 33.4554 59.12 33.1088 59.12ZM38.9285 59V54.04H39.5385L39.8085 54.96C39.9818 54.66 40.2152 54.42 40.5085 54.24C40.8085 54.0533 41.1652 53.96 41.5785 53.96V54.83C41.5318 54.83 41.4818 54.83 41.4285 54.83C41.3818 54.83 41.3352 54.8333 41.2885 54.84C40.7218 54.8867 40.3252 55.0833 40.0985 55.43C39.8785 55.7767 39.7685 56.2567 39.7685 56.87V59H38.9285ZM44.437 59.12C43.917 59.12 43.477 59.0067 43.117 58.78C42.757 58.5467 42.4803 58.2367 42.287 57.85C42.1003 57.4567 42.007 57.0167 42.007 56.53C42.007 56.0033 42.1136 55.55 42.327 55.17C42.5403 54.7833 42.827 54.4867 43.187 54.28C43.5536 54.0667 43.9636 53.96 44.417 53.96C44.8103 53.96 45.157 54.04 45.457 54.2C45.757 54.3533 46.0036 54.5633 46.197 54.83C46.397 55.09 46.5403 55.3867 46.627 55.72C46.7203 56.0533 46.7536 56.3967 46.727 56.75H42.907C42.9203 57.1633 43.0103 57.49 43.177 57.73C43.3503 57.97 43.5536 58.14 43.787 58.24C44.0203 58.3333 44.237 58.38 44.437 58.38C44.717 58.38 44.9503 58.3367 45.137 58.25C45.3303 58.1567 45.4836 58.0367 45.597 57.89L46.407 58.13C46.227 58.4167 45.9703 58.6533 45.637 58.84C45.3036 59.0267 44.9036 59.12 44.437 59.12ZM42.917 56.08H45.837C45.837 55.8467 45.777 55.6233 45.657 55.41C45.5436 55.1967 45.3803 55.0233 45.167 54.89C44.9603 54.75 44.7103 54.68 44.417 54.68C44.1703 54.68 43.937 54.7267 43.717 54.82C43.497 54.9133 43.3136 55.0633 43.167 55.27C43.027 55.4767 42.9436 55.7467 42.917 56.08ZM47.7176 60.61V54.04H48.3276L48.5576 54.82C48.7109 54.56 48.9209 54.3533 49.1876 54.2C49.4542 54.04 49.7809 53.96 50.1676 53.96C50.5476 53.96 50.8976 54.0633 51.2176 54.27C51.5442 54.47 51.8042 54.7633 51.9976 55.15C52.1976 55.53 52.2976 55.9933 52.2976 56.54C52.2976 57.08 52.1976 57.5433 51.9976 57.93C51.8042 58.3167 51.5442 58.6133 51.2176 58.82C50.8976 59.02 50.5476 59.12 50.1676 59.12C49.7809 59.12 49.4542 59.0433 49.1876 58.89C48.9209 58.73 48.7109 58.5167 48.5576 58.25V60.61H47.7176ZM49.9476 58.4C50.3742 58.4 50.7142 58.2367 50.9676 57.91C51.2276 57.5833 51.3576 57.1267 51.3576 56.54C51.3576 55.9467 51.2276 55.49 50.9676 55.17C50.7142 54.8433 50.3742 54.68 49.9476 54.68C49.5209 54.68 49.1776 54.8433 48.9176 55.17C48.6642 55.49 48.5376 55.9467 48.5376 56.54C48.5376 57.1267 48.6642 57.5833 48.9176 57.91C49.1776 58.2367 49.5209 58.4 49.9476 58.4ZM53.3816 59V54.04H53.9916L54.2616 54.96C54.435 54.66 54.6683 54.42 54.9616 54.24C55.2616 54.0533 55.6183 53.96 56.0316 53.96V54.83C55.985 54.83 55.935 54.83 55.8816 54.83C55.835 54.83 55.7883 54.8333 55.7416 54.84C55.175 54.8867 54.7783 55.0833 54.5516 55.43C54.3316 55.7767 54.2216 56.2567 54.2216 56.87V59H53.3816ZM58.8901 59.12C58.3701 59.12 57.9301 59.0067 57.5701 58.78C57.2101 58.5467 56.9334 58.2367 56.7401 57.85C56.5534 57.4567 56.4601 57.0167 56.4601 56.53C56.4601 56.0033 56.5667 55.55 56.7801 55.17C56.9934 54.7833 57.2801 54.4867 57.6401 54.28C58.0067 54.0667 58.4167 53.96 58.8701 53.96C59.2634 53.96 59.6101 54.04 59.9101 54.2C60.2101 54.3533 60.4567 54.5633 60.6501 54.83C60.8501 55.09 60.9934 55.3867 61.0801 55.72C61.1734 56.0533 61.2067 56.3967 61.1801 56.75H57.3601C57.3734 57.1633 57.4634 57.49 57.6301 57.73C57.8034 57.97 58.0067 58.14 58.2401 58.24C58.4734 58.3333 58.6901 58.38 58.8901 58.38C59.1701 58.38 59.4034 58.3367 59.5901 58.25C59.7834 58.1567 59.9367 58.0367 60.0501 57.89L60.8601 58.13C60.6801 58.4167 60.4234 58.6533 60.0901 58.84C59.7567 59.0267 59.3567 59.12 58.8901 59.12ZM57.3701 56.08H60.2901C60.2901 55.8467 60.2301 55.6233 60.1101 55.41C59.9967 55.1967 59.8334 55.0233 59.6201 54.89C59.4134 54.75 59.1634 54.68 58.8701 54.68C58.6234 54.68 58.3901 54.7267 58.1701 54.82C57.9501 54.9133 57.7667 55.0633 57.6201 55.27C57.4801 55.4767 57.3967 55.7467 57.3701 56.08ZM63.8607 59.12C63.574 59.12 63.2907 59.0767 63.0107 58.99C62.7374 58.8967 62.4907 58.76 62.2707 58.58C62.0574 58.3933 61.894 58.16 61.7807 57.88L62.5907 57.58C62.664 57.8733 62.824 58.0867 63.0707 58.22C63.324 58.3467 63.5874 58.41 63.8607 58.41C64.0607 58.41 64.2474 58.38 64.4207 58.32C64.6007 58.26 64.7474 58.1733 64.8607 58.06C64.974 57.9467 65.0307 57.8167 65.0307 57.67C65.0307 57.3967 64.9207 57.2033 64.7007 57.09C64.4874 56.9767 64.2307 56.89 63.9307 56.83L63.2407 56.69C63.0007 56.6367 62.7774 56.5633 62.5707 56.47C62.364 56.37 62.1974 56.23 62.0707 56.05C61.944 55.87 61.8807 55.63 61.8807 55.33C61.8807 55.03 61.974 54.78 62.1607 54.58C62.3474 54.3733 62.584 54.2167 62.8707 54.11C63.164 54.0033 63.4707 53.95 63.7907 53.95C64.184 53.95 64.554 54.0333 64.9007 54.2C65.254 54.36 65.504 54.6133 65.6507 54.96L64.8607 55.25C64.774 55.05 64.6207 54.9033 64.4007 54.81C64.1874 54.71 63.964 54.66 63.7307 54.66C63.4774 54.66 63.2474 54.7167 63.0407 54.83C62.834 54.9433 62.7307 55.1067 62.7307 55.32C62.7307 55.5333 62.8174 55.69 62.9907 55.79C63.1707 55.8833 63.3907 55.9567 63.6507 56.01L64.3007 56.14C64.5674 56.1933 64.8207 56.27 65.0607 56.37C65.3007 56.47 65.4974 56.62 65.6507 56.82C65.804 57.0133 65.8807 57.2867 65.8807 57.64C65.8807 57.9533 65.784 58.22 65.5907 58.44C65.3974 58.66 65.1474 58.83 64.8407 58.95C64.534 59.0633 64.2074 59.12 63.8607 59.12ZM68.9877 59.12C68.4677 59.12 68.0277 59.0067 67.6677 58.78C67.3077 58.5467 67.0311 58.2367 66.8377 57.85C66.6511 57.4567 66.5577 57.0167 66.5577 56.53C66.5577 56.0033 66.6644 55.55 66.8777 55.17C67.0911 54.7833 67.3777 54.4867 67.7377 54.28C68.1044 54.0667 68.5144 53.96 68.9677 53.96C69.3611 53.96 69.7077 54.04 70.0077 54.2C70.3077 54.3533 70.5544 54.5633 70.7477 54.83C70.9477 55.09 71.0911 55.3867 71.1777 55.72C71.2711 56.0533 71.3044 56.3967 71.2777 56.75H67.4577C67.4711 57.1633 67.5611 57.49 67.7277 57.73C67.9011 57.97 68.1044 58.14 68.3377 58.24C68.5711 58.3333 68.7877 58.38 68.9877 58.38C69.2677 58.38 69.5011 58.3367 69.6877 58.25C69.8811 58.1567 70.0344 58.0367 70.1477 57.89L70.9577 58.13C70.7777 58.4167 70.5211 58.6533 70.1877 58.84C69.8544 59.0267 69.4544 59.12 68.9877 59.12ZM67.4677 56.08H70.3877C70.3877 55.8467 70.3277 55.6233 70.2077 55.41C70.0944 55.1967 69.9311 55.0233 69.7177 54.89C69.5111 54.75 69.2611 54.68 68.9677 54.68C68.7211 54.68 68.4877 54.7267 68.2677 54.82C68.0477 54.9133 67.8644 55.0633 67.7177 55.27C67.5777 55.4767 67.4944 55.7467 67.4677 56.08ZM72.2684 59V54.04H72.8884L73.1084 54.79C73.2484 54.5567 73.445 54.36 73.6984 54.2C73.9517 54.04 74.2884 53.96 74.7084 53.96C75.3084 53.96 75.7317 54.1367 75.9784 54.49C76.225 54.8367 76.3484 55.2933 76.3484 55.86V59H75.5084V56.11C75.5084 55.8567 75.485 55.6233 75.4384 55.41C75.3917 55.19 75.2884 55.0133 75.1284 54.88C74.975 54.7467 74.7384 54.68 74.4184 54.68C74.0117 54.68 73.6917 54.82 73.4584 55.1C73.225 55.3733 73.1084 55.7767 73.1084 56.31V59H72.2684ZM79.1104 59C78.7971 59 78.5537 58.97 78.3804 58.91C78.2137 58.8433 78.0971 58.72 78.0304 58.54C77.9704 58.36 77.9404 58.1 77.9404 57.76V54.71H77.1004V54.04H77.9404V52.79H78.7804V54.04H79.7404V54.71H78.7804V57.62C78.7804 57.8733 78.8037 58.0433 78.8504 58.13C78.9037 58.2167 79.0504 58.26 79.2904 58.26H79.7404V59H79.1104ZM18.4702 65.1C18.3035 65.1 18.1568 65.04 18.0302 64.92C17.9102 64.7933 17.8502 64.6433 17.8502 64.47C17.8502 64.2967 17.9102 64.15 18.0302 64.03C18.1568 63.91 18.3035 63.85 18.4702 63.85C18.6435 63.85 18.7902 63.91 18.9102 64.03C19.0368 64.15 19.1002 64.2967 19.1002 64.47C19.1002 64.6433 19.0368 64.7933 18.9102 64.92C18.7902 65.04 18.6435 65.1 18.4702 65.1ZM18.0502 71V66.71H17.3602V66.04H18.8902V71H18.0502ZM20.3934 71V66.04H21.0134L21.2334 66.79C21.3734 66.5567 21.57 66.36 21.8234 66.2C22.0767 66.04 22.4134 65.96 22.8334 65.96C23.4334 65.96 23.8567 66.1367 24.1034 66.49C24.35 66.8367 24.4734 67.2933 24.4734 67.86V71H23.6334V68.11C23.6334 67.8567 23.61 67.6233 23.5634 67.41C23.5167 67.19 23.4134 67.0133 23.2534 66.88C23.1 66.7467 22.8634 66.68 22.5434 66.68C22.1367 66.68 21.8167 66.82 21.5834 67.1C21.35 67.3733 21.2334 67.7767 21.2334 68.31V71H20.3934ZM27.5549 71.12C27.1816 71.12 26.8316 71.02 26.5049 70.82C26.1783 70.6133 25.9149 70.32 25.7149 69.94C25.5216 69.5533 25.4249 69.0867 25.4249 68.54C25.4249 67.9933 25.5216 67.53 25.7149 67.15C25.9149 66.7633 26.1783 66.47 26.5049 66.27C26.8316 66.0633 27.1816 65.96 27.5549 65.96C27.9483 65.96 28.2783 66.04 28.5449 66.2C28.8116 66.3533 29.0183 66.56 29.1649 66.82V64.32H30.0049V69.13C30.0049 69.2967 30.0116 69.5433 30.0249 69.87C30.0383 70.19 30.0883 70.5667 30.1749 71H29.3849L29.1649 70.25C29.0183 70.5167 28.8116 70.73 28.5449 70.89C28.2783 71.0433 27.9483 71.12 27.5549 71.12ZM27.7749 70.4C28.2016 70.4 28.5416 70.2367 28.7949 69.91C29.0549 69.5833 29.1849 69.1267 29.1849 68.54C29.1849 67.9467 29.0549 67.49 28.7949 67.17C28.5416 66.8433 28.2016 66.68 27.7749 66.68C27.3483 66.68 27.0049 66.8433 26.7449 67.17C26.4916 67.49 26.3649 67.9467 26.3649 68.54C26.3649 69.1267 26.4916 69.5833 26.7449 69.91C27.0049 70.2367 27.3483 70.4 27.7749 70.4ZM32.2495 65.1C32.0828 65.1 31.9361 65.04 31.8095 64.92C31.6895 64.7933 31.6295 64.6433 31.6295 64.47C31.6295 64.2967 31.6895 64.15 31.8095 64.03C31.9361 63.91 32.0828 63.85 32.2495 63.85C32.4228 63.85 32.5695 63.91 32.6895 64.03C32.8161 64.15 32.8795 64.2967 32.8795 64.47C32.8795 64.6433 32.8161 64.7933 32.6895 64.92C32.5695 65.04 32.4228 65.1 32.2495 65.1ZM31.8295 71V66.71H31.1395V66.04H32.6695V71H31.8295ZM35.2427 71L33.4727 66.04H34.3827L35.6827 69.9L36.9727 66.04H37.8827L36.1127 71H35.2427ZM39.4467 65.1C39.2801 65.1 39.1334 65.04 39.0067 64.92C38.8867 64.7933 38.8267 64.6433 38.8267 64.47C38.8267 64.2967 38.8867 64.15 39.0067 64.03C39.1334 63.91 39.2801 63.85 39.4467 63.85C39.6201 63.85 39.7667 63.91 39.8867 64.03C40.0134 64.15 40.0767 64.2967 40.0767 64.47C40.0767 64.6433 40.0134 64.7933 39.8867 64.92C39.7667 65.04 39.6201 65.1 39.4467 65.1ZM39.0267 71V66.71H38.3367V66.04H39.8667V71H39.0267ZM43.1799 71.12C42.8066 71.12 42.4566 71.02 42.1299 70.82C41.8033 70.6133 41.5399 70.32 41.3399 69.94C41.1466 69.5533 41.0499 69.0867 41.0499 68.54C41.0499 67.9933 41.1466 67.53 41.3399 67.15C41.5399 66.7633 41.8033 66.47 42.1299 66.27C42.4566 66.0633 42.8066 65.96 43.1799 65.96C43.5733 65.96 43.9033 66.04 44.1699 66.2C44.4366 66.3533 44.6433 66.56 44.7899 66.82V64.32H45.6299V69.13C45.6299 69.2967 45.6366 69.5433 45.6499 69.87C45.6633 70.19 45.7133 70.5667 45.7999 71H45.0099L44.7899 70.25C44.6433 70.5167 44.4366 70.73 44.1699 70.89C43.9033 71.0433 43.5733 71.12 43.1799 71.12ZM43.3999 70.4C43.8266 70.4 44.1666 70.2367 44.4199 69.91C44.6799 69.5833 44.8099 69.1267 44.8099 68.54C44.8099 67.9467 44.6799 67.49 44.4199 67.17C44.1666 66.8433 43.8266 66.68 43.3999 66.68C42.9733 66.68 42.6299 66.8433 42.3699 67.17C42.1166 67.49 41.9899 67.9467 41.9899 68.54C41.9899 69.1267 42.1166 69.5833 42.3699 69.91C42.6299 70.2367 42.9733 70.4 43.3999 70.4ZM48.5845 71.12C48.1978 71.12 47.8878 71.04 47.6545 70.88C47.4211 70.7133 47.2511 70.4867 47.1445 70.2C47.0445 69.9067 46.9945 69.5733 46.9945 69.2V66.03H47.8345V69C47.8345 69.3667 47.8778 69.65 47.9645 69.85C48.0511 70.05 48.1711 70.19 48.3245 70.27C48.4845 70.3433 48.6678 70.38 48.8745 70.38C49.2678 70.38 49.5745 70.2433 49.7945 69.97C50.0211 69.69 50.1345 69.2867 50.1345 68.76V66.03H50.9745V71H50.3445L50.1345 70.28C49.9945 70.52 49.8045 70.72 49.5645 70.88C49.3245 71.04 48.9978 71.12 48.5845 71.12ZM53.7658 71.12C53.4524 71.12 53.1658 71.0633 52.9058 70.95C52.6458 70.8367 52.4391 70.6733 52.2858 70.46C52.1324 70.2467 52.0558 69.99 52.0558 69.69C52.0558 69.2967 52.1924 68.9867 52.4658 68.76C52.7458 68.5333 53.1358 68.36 53.6358 68.24C54.1424 68.1133 54.7324 68.0133 55.4058 67.94C55.4191 67.52 55.3358 67.1967 55.1558 66.97C54.9758 66.7433 54.6858 66.63 54.2858 66.63C53.9858 66.63 53.7391 66.7 53.5458 66.84C53.3591 66.9733 53.2391 67.16 53.1858 67.4L52.3758 67.16C52.5091 66.78 52.7458 66.4867 53.0858 66.28C53.4324 66.0667 53.8291 65.96 54.2758 65.96C54.9624 65.96 55.4624 66.1233 55.7758 66.45C56.0958 66.77 56.2558 67.2767 56.2558 67.97V69.13C56.2558 69.5433 56.2724 69.9 56.3058 70.2C56.3391 70.5 56.3791 70.7667 56.4258 71H55.6558L55.4558 70.32C55.3091 70.5667 55.0991 70.7633 54.8258 70.91C54.5524 71.05 54.1991 71.12 53.7658 71.12ZM53.9458 70.45C54.2058 70.45 54.4524 70.4033 54.6858 70.31C54.9191 70.2167 55.1091 70.06 55.2558 69.84C55.4024 69.6133 55.4758 69.3067 55.4758 68.92V68.61C54.9691 68.6633 54.5291 68.73 54.1558 68.81C53.7824 68.8833 53.4924 68.99 53.2858 69.13C53.0858 69.2633 52.9858 69.4433 52.9858 69.67C52.9858 69.9033 53.0691 70.0933 53.2358 70.24C53.4091 70.38 53.6458 70.45 53.9458 70.45ZM58.8095 71C58.4961 71 58.2528 70.97 58.0795 70.91C57.9128 70.8433 57.7961 70.72 57.7295 70.54C57.6695 70.36 57.6395 70.1 57.6395 69.76V64.33H58.4795V69.62C58.4795 69.8733 58.5061 70.0433 58.5595 70.13C58.6128 70.2167 58.7561 70.26 58.9895 70.26H59.1795V71H58.8095ZM61.722 71.12C61.4354 71.12 61.152 71.0767 60.872 70.99C60.5987 70.8967 60.352 70.76 60.132 70.58C59.9187 70.3933 59.7554 70.16 59.642 69.88L60.452 69.58C60.5254 69.8733 60.6854 70.0867 60.932 70.22C61.1854 70.3467 61.4487 70.41 61.722 70.41C61.922 70.41 62.1087 70.38 62.282 70.32C62.462 70.26 62.6087 70.1733 62.722 70.06C62.8354 69.9467 62.892 69.8167 62.892 69.67C62.892 69.3967 62.782 69.2033 62.562 69.09C62.3487 68.9767 62.092 68.89 61.792 68.83L61.102 68.69C60.862 68.6367 60.6387 68.5633 60.432 68.47C60.2254 68.37 60.0587 68.23 59.932 68.05C59.8054 67.87 59.742 67.63 59.742 67.33C59.742 67.03 59.8354 66.78 60.022 66.58C60.2087 66.3733 60.4454 66.2167 60.732 66.11C61.0254 66.0033 61.332 65.95 61.652 65.95C62.0454 65.95 62.4154 66.0333 62.762 66.2C63.1154 66.36 63.3654 66.6133 63.512 66.96L62.722 67.25C62.6354 67.05 62.482 66.9033 62.262 66.81C62.0487 66.71 61.8254 66.66 61.592 66.66C61.3387 66.66 61.1087 66.7167 60.902 66.83C60.6954 66.9433 60.592 67.1067 60.592 67.32C60.592 67.5333 60.6787 67.69 60.852 67.79C61.032 67.8833 61.252 67.9567 61.512 68.01L62.162 68.14C62.4287 68.1933 62.682 68.27 62.922 68.37C63.162 68.47 63.3587 68.62 63.512 68.82C63.6654 69.0133 63.742 69.2867 63.742 69.64C63.742 69.9533 63.6454 70.22 63.452 70.44C63.2587 70.66 63.0087 70.83 62.702 70.95C62.3954 71.0633 62.0687 71.12 61.722 71.12ZM65.0591 71.12C64.8857 71.12 64.7357 71.0567 64.6091 70.93C64.4824 70.8033 64.4191 70.6533 64.4191 70.48C64.4191 70.3 64.4824 70.1467 64.6091 70.02C64.7357 69.8933 64.8857 69.83 65.0591 69.83C65.2391 69.83 65.3924 69.8933 65.5191 70.02C65.6457 70.1467 65.7091 70.3 65.7091 70.48C65.7091 70.6533 65.6457 70.8033 65.5191 70.93C65.3924 71.0567 65.2391 71.12 65.0591 71.12Z" fill="black"/>
<path d="M110.898 59V52.32H112.718C113.251 52.32 113.738 52.3767 114.178 52.49C114.624 52.5967 115.011 52.7767 115.338 53.03C115.664 53.2833 115.918 53.6267 116.098 54.06C116.278 54.4867 116.368 55.0167 116.368 55.65C116.368 56.29 116.278 56.8267 116.098 57.26C115.918 57.6867 115.664 58.03 115.338 58.29C115.011 58.5433 114.624 58.7267 114.178 58.84C113.738 58.9467 113.251 59 112.718 59H110.898ZM111.838 58.21H112.698C113.044 58.21 113.378 58.1833 113.698 58.13C114.024 58.07 114.314 57.9567 114.568 57.79C114.828 57.6167 115.031 57.36 115.178 57.02C115.331 56.6733 115.408 56.2167 115.408 55.65C115.408 55.0833 115.331 54.6333 115.178 54.3C115.031 53.96 114.828 53.7067 114.568 53.54C114.314 53.3667 114.024 53.2533 113.698 53.2C113.378 53.14 113.044 53.11 112.698 53.11H111.838V58.21ZM118.426 53.1C118.26 53.1 118.113 53.04 117.986 52.92C117.866 52.7933 117.806 52.6433 117.806 52.47C117.806 52.2967 117.866 52.15 117.986 52.03C118.113 51.91 118.26 51.85 118.426 51.85C118.6 51.85 118.746 51.91 118.866 52.03C118.993 52.15 119.056 52.2967 119.056 52.47C119.056 52.6433 118.993 52.7933 118.866 52.92C118.746 53.04 118.6 53.1 118.426 53.1ZM118.006 59V54.71H117.316V54.04H118.846V59H118.006ZM121.739 59.12C121.426 59.12 121.139 59.0633 120.879 58.95C120.619 58.8367 120.413 58.6733 120.259 58.46C120.106 58.2467 120.029 57.99 120.029 57.69C120.029 57.2967 120.166 56.9867 120.439 56.76C120.719 56.5333 121.109 56.36 121.609 56.24C122.116 56.1133 122.706 56.0133 123.379 55.94C123.393 55.52 123.309 55.1967 123.129 54.97C122.949 54.7433 122.659 54.63 122.259 54.63C121.959 54.63 121.713 54.7 121.519 54.84C121.333 54.9733 121.213 55.16 121.159 55.4L120.349 55.16C120.483 54.78 120.719 54.4867 121.059 54.28C121.406 54.0667 121.803 53.96 122.249 53.96C122.936 53.96 123.436 54.1233 123.749 54.45C124.069 54.77 124.229 55.2767 124.229 55.97V57.13C124.229 57.5433 124.246 57.9 124.279 58.2C124.313 58.5 124.353 58.7667 124.399 59H123.629L123.429 58.32C123.283 58.5667 123.073 58.7633 122.799 58.91C122.526 59.05 122.173 59.12 121.739 59.12ZM121.919 58.45C122.179 58.45 122.426 58.4033 122.659 58.31C122.893 58.2167 123.083 58.06 123.229 57.84C123.376 57.6133 123.449 57.3067 123.449 56.92V56.61C122.943 56.6633 122.503 56.73 122.129 56.81C121.756 56.8833 121.466 56.99 121.259 57.13C121.059 57.2633 120.959 57.4433 120.959 57.67C120.959 57.9033 121.043 58.0933 121.209 58.24C121.383 58.38 121.619 58.45 121.919 58.45ZM125.613 59V54.04H126.233L126.453 54.79C126.593 54.5567 126.783 54.36 127.023 54.2C127.27 54.04 127.576 53.96 127.943 53.96C128.323 53.96 128.63 54.0367 128.863 54.19C129.096 54.3433 129.266 54.5567 129.373 54.83C129.573 54.5233 129.813 54.3033 130.093 54.17C130.38 54.03 130.696 53.96 131.043 53.96C131.616 53.96 132.026 54.1367 132.273 54.49C132.52 54.8367 132.643 55.2933 132.643 55.86V59H131.803V56.11C131.803 55.8567 131.776 55.6233 131.723 55.41C131.676 55.19 131.576 55.0133 131.423 54.88C131.276 54.7467 131.05 54.68 130.743 54.68C130.383 54.68 130.093 54.82 129.873 55.1C129.66 55.3733 129.553 55.7767 129.553 56.31V59H128.713V56.11C128.713 55.8567 128.686 55.6233 128.633 55.41C128.586 55.19 128.486 55.0133 128.333 54.88C128.186 54.7467 127.96 54.68 127.653 54.68C127.293 54.68 127.003 54.82 126.783 55.1C126.563 55.3733 126.453 55.7767 126.453 56.31V59H125.613ZM136.024 59.12C135.504 59.12 135.064 59.0067 134.704 58.78C134.344 58.5467 134.067 58.2367 133.874 57.85C133.687 57.4567 133.594 57.0167 133.594 56.53C133.594 56.0033 133.701 55.55 133.914 55.17C134.127 54.7833 134.414 54.4867 134.774 54.28C135.141 54.0667 135.551 53.96 136.004 53.96C136.397 53.96 136.744 54.04 137.044 54.2C137.344 54.3533 137.591 54.5633 137.784 54.83C137.984 55.09 138.127 55.3867 138.214 55.72C138.307 56.0533 138.341 56.3967 138.314 56.75H134.494C134.507 57.1633 134.597 57.49 134.764 57.73C134.937 57.97 135.141 58.14 135.374 58.24C135.607 58.3333 135.824 58.38 136.024 58.38C136.304 58.38 136.537 58.3367 136.724 58.25C136.917 58.1567 137.071 58.0367 137.184 57.89L137.994 58.13C137.814 58.4167 137.557 58.6533 137.224 58.84C136.891 59.0267 136.491 59.12 136.024 59.12ZM134.504 56.08H137.424C137.424 55.8467 137.364 55.6233 137.244 55.41C137.131 55.1967 136.967 55.0233 136.754 54.89C136.547 54.75 136.297 54.68 136.004 54.68C135.757 54.68 135.524 54.7267 135.304 54.82C135.084 54.9133 134.901 55.0633 134.754 55.27C134.614 55.4767 134.531 55.7467 134.504 56.08ZM140.814 59C140.501 59 140.258 58.97 140.084 58.91C139.918 58.8433 139.801 58.72 139.734 58.54C139.674 58.36 139.644 58.1 139.644 57.76V54.71H138.804V54.04H139.644V52.79H140.484V54.04H141.444V54.71H140.484V57.62C140.484 57.8733 140.508 58.0433 140.554 58.13C140.608 58.2167 140.754 58.26 140.994 58.26H141.444V59H140.814ZM144.657 59.12C144.137 59.12 143.697 59.0067 143.337 58.78C142.977 58.5467 142.7 58.2367 142.507 57.85C142.32 57.4567 142.227 57.0167 142.227 56.53C142.227 56.0033 142.333 55.55 142.547 55.17C142.76 54.7833 143.047 54.4867 143.407 54.28C143.773 54.0667 144.183 53.96 144.637 53.96C145.03 53.96 145.377 54.04 145.677 54.2C145.977 54.3533 146.223 54.5633 146.417 54.83C146.617 55.09 146.76 55.3867 146.847 55.72C146.94 56.0533 146.973 56.3967 146.947 56.75H143.127C143.14 57.1633 143.23 57.49 143.397 57.73C143.57 57.97 143.773 58.14 144.007 58.24C144.24 58.3333 144.457 58.38 144.657 58.38C144.937 58.38 145.17 58.3367 145.357 58.25C145.55 58.1567 145.703 58.0367 145.817 57.89L146.627 58.13C146.447 58.4167 146.19 58.6533 145.857 58.84C145.523 59.0267 145.123 59.12 144.657 59.12ZM143.137 56.08H146.057C146.057 55.8467 145.997 55.6233 145.877 55.41C145.763 55.1967 145.6 55.0233 145.387 54.89C145.18 54.75 144.93 54.68 144.637 54.68C144.39 54.68 144.157 54.7267 143.937 54.82C143.717 54.9133 143.533 55.0633 143.387 55.27C143.247 55.4767 143.163 55.7467 143.137 56.08ZM147.937 59V54.04H148.547L148.817 54.96C148.991 54.66 149.224 54.42 149.517 54.24C149.817 54.0533 150.174 53.96 150.587 53.96V54.83C150.541 54.83 150.491 54.83 150.437 54.83C150.391 54.83 150.344 54.8333 150.297 54.84C149.731 54.8867 149.334 55.0833 149.107 55.43C148.887 55.7767 148.777 56.2567 148.777 56.87V59H147.937ZM154.138 59V54.04H154.748L155.018 54.96C155.192 54.66 155.425 54.42 155.718 54.24C156.018 54.0533 156.375 53.96 156.788 53.96V54.83C156.742 54.83 156.692 54.83 156.638 54.83C156.592 54.83 156.545 54.8333 156.498 54.84C155.932 54.8867 155.535 55.0833 155.308 55.43C155.088 55.7767 154.978 56.2567 154.978 56.87V59H154.138ZM159.647 59.12C159.127 59.12 158.687 59.0067 158.327 58.78C157.967 58.5467 157.69 58.2367 157.497 57.85C157.31 57.4567 157.217 57.0167 157.217 56.53C157.217 56.0033 157.324 55.55 157.537 55.17C157.75 54.7833 158.037 54.4867 158.397 54.28C158.764 54.0667 159.174 53.96 159.627 53.96C160.02 53.96 160.367 54.04 160.667 54.2C160.967 54.3533 161.214 54.5633 161.407 54.83C161.607 55.09 161.75 55.3867 161.837 55.72C161.93 56.0533 161.964 56.3967 161.937 56.75H158.117C158.13 57.1633 158.22 57.49 158.387 57.73C158.56 57.97 158.764 58.14 158.997 58.24C159.23 58.3333 159.447 58.38 159.647 58.38C159.927 58.38 160.16 58.3367 160.347 58.25C160.54 58.1567 160.694 58.0367 160.807 57.89L161.617 58.13C161.437 58.4167 161.18 58.6533 160.847 58.84C160.514 59.0267 160.114 59.12 159.647 59.12ZM158.127 56.08H161.047C161.047 55.8467 160.987 55.6233 160.867 55.41C160.754 55.1967 160.59 55.0233 160.377 54.89C160.17 54.75 159.92 54.68 159.627 54.68C159.38 54.68 159.147 54.7267 158.927 54.82C158.707 54.9133 158.524 55.0633 158.377 55.27C158.237 55.4767 158.154 55.7467 158.127 56.08ZM162.928 60.61V54.04H163.538L163.768 54.82C163.921 54.56 164.131 54.3533 164.398 54.2C164.664 54.04 164.991 53.96 165.378 53.96C165.758 53.96 166.108 54.0633 166.428 54.27C166.754 54.47 167.014 54.7633 167.208 55.15C167.408 55.53 167.508 55.9933 167.508 56.54C167.508 57.08 167.408 57.5433 167.208 57.93C167.014 58.3167 166.754 58.6133 166.428 58.82C166.108 59.02 165.758 59.12 165.378 59.12C164.991 59.12 164.664 59.0433 164.398 58.89C164.131 58.73 163.921 58.5167 163.768 58.25V60.61H162.928ZM165.158 58.4C165.584 58.4 165.924 58.2367 166.178 57.91C166.438 57.5833 166.568 57.1267 166.568 56.54C166.568 55.9467 166.438 55.49 166.178 55.17C165.924 54.8433 165.584 54.68 165.158 54.68C164.731 54.68 164.388 54.8433 164.128 55.17C163.874 55.49 163.748 55.9467 163.748 56.54C163.748 57.1267 163.874 57.5833 164.128 57.91C164.388 58.2367 164.731 58.4 165.158 58.4ZM168.592 59V54.04H169.202L169.472 54.96C169.645 54.66 169.878 54.42 170.172 54.24C170.472 54.0533 170.828 53.96 171.242 53.96V54.83C171.195 54.83 171.145 54.83 171.092 54.83C171.045 54.83 170.998 54.8333 170.952 54.84C170.385 54.8867 169.988 55.0833 169.762 55.43C169.542 55.7767 169.432 56.2567 169.432 56.87V59H168.592ZM174.1 59.12C173.58 59.12 173.14 59.0067 172.78 58.78C172.42 58.5467 172.143 58.2367 171.95 57.85C171.763 57.4567 171.67 57.0167 171.67 56.53C171.67 56.0033 171.777 55.55 171.99 55.17C172.203 54.7833 172.49 54.4867 172.85 54.28C173.217 54.0667 173.627 53.96 174.08 53.96C174.473 53.96 174.82 54.04 175.12 54.2C175.42 54.3533 175.667 54.5633 175.86 54.83C176.06 55.09 176.203 55.3867 176.29 55.72C176.383 56.0533 176.417 56.3967 176.39 56.75H172.57C172.583 57.1633 172.673 57.49 172.84 57.73C173.013 57.97 173.217 58.14 173.45 58.24C173.683 58.3333 173.9 58.38 174.1 58.38C174.38 58.38 174.613 58.3367 174.8 58.25C174.993 58.1567 175.147 58.0367 175.26 57.89L176.07 58.13C175.89 58.4167 175.633 58.6533 175.3 58.84C174.967 59.0267 174.567 59.12 174.1 59.12ZM172.58 56.08H175.5C175.5 55.8467 175.44 55.6233 175.32 55.41C175.207 55.1967 175.043 55.0233 174.83 54.89C174.623 54.75 174.373 54.68 174.08 54.68C173.833 54.68 173.6 54.7267 173.38 54.82C173.16 54.9133 172.977 55.0633 172.83 55.27C172.69 55.4767 172.607 55.7467 172.58 56.08ZM179.071 59.12C178.784 59.12 178.501 59.0767 178.221 58.99C177.947 58.8967 177.701 58.76 177.481 58.58C177.267 58.3933 177.104 58.16 176.991 57.88L177.801 57.58C177.874 57.8733 178.034 58.0867 178.281 58.22C178.534 58.3467 178.797 58.41 179.071 58.41C179.271 58.41 179.457 58.38 179.631 58.32C179.811 58.26 179.957 58.1733 180.071 58.06C180.184 57.9467 180.241 57.8167 180.241 57.67C180.241 57.3967 180.131 57.2033 179.911 57.09C179.697 56.9767 179.441 56.89 179.141 56.83L178.451 56.69C178.211 56.6367 177.987 56.5633 177.781 56.47C177.574 56.37 177.407 56.23 177.281 56.05C177.154 55.87 177.091 55.63 177.091 55.33C177.091 55.03 177.184 54.78 177.371 54.58C177.557 54.3733 177.794 54.2167 178.081 54.11C178.374 54.0033 178.681 53.95 179.001 53.95C179.394 53.95 179.764 54.0333 180.111 54.2C180.464 54.36 180.714 54.6133 180.861 54.96L180.071 55.25C179.984 55.05 179.831 54.9033 179.611 54.81C179.397 54.71 179.174 54.66 178.941 54.66C178.687 54.66 178.457 54.7167 178.251 54.83C178.044 54.9433 177.941 55.1067 177.941 55.32C177.941 55.5333 178.027 55.69 178.201 55.79C178.381 55.8833 178.601 55.9567 178.861 56.01L179.511 56.14C179.777 56.1933 180.031 56.27 180.271 56.37C180.511 56.47 180.707 56.62 180.861 56.82C181.014 57.0133 181.091 57.2867 181.091 57.64C181.091 57.9533 180.994 58.22 180.801 58.44C180.607 58.66 180.357 58.83 180.051 58.95C179.744 59.0633 179.417 59.12 179.071 59.12ZM184.198 59.12C183.678 59.12 183.238 59.0067 182.878 58.78C182.518 58.5467 182.241 58.2367 182.048 57.85C181.861 57.4567 181.768 57.0167 181.768 56.53C181.768 56.0033 181.874 55.55 182.088 55.17C182.301 54.7833 182.588 54.4867 182.948 54.28C183.314 54.0667 183.724 53.96 184.178 53.96C184.571 53.96 184.918 54.04 185.218 54.2C185.518 54.3533 185.764 54.5633 185.958 54.83C186.158 55.09 186.301 55.3867 186.388 55.72C186.481 56.0533 186.514 56.3967 186.488 56.75H182.668C182.681 57.1633 182.771 57.49 182.938 57.73C183.111 57.97 183.314 58.14 183.548 58.24C183.781 58.3333 183.998 58.38 184.198 58.38C184.478 58.38 184.711 58.3367 184.898 58.25C185.091 58.1567 185.244 58.0367 185.358 57.89L186.168 58.13C185.988 58.4167 185.731 58.6533 185.398 58.84C185.064 59.0267 184.664 59.12 184.198 59.12ZM182.678 56.08H185.598C185.598 55.8467 185.538 55.6233 185.418 55.41C185.304 55.1967 185.141 55.0233 184.928 54.89C184.721 54.75 184.471 54.68 184.178 54.68C183.931 54.68 183.698 54.7267 183.478 54.82C183.258 54.9133 183.074 55.0633 182.928 55.27C182.788 55.4767 182.704 55.7467 182.678 56.08ZM187.478 59V54.04H188.098L188.318 54.79C188.458 54.5567 188.655 54.36 188.908 54.2C189.162 54.04 189.498 53.96 189.918 53.96C190.518 53.96 190.942 54.1367 191.188 54.49C191.435 54.8367 191.558 55.2933 191.558 55.86V59H190.718V56.11C190.718 55.8567 190.695 55.6233 190.648 55.41C190.602 55.19 190.498 55.0133 190.338 54.88C190.185 54.7467 189.948 54.68 189.628 54.68C189.222 54.68 188.902 54.82 188.668 55.1C188.435 55.3733 188.318 55.7767 188.318 56.31V59H187.478ZM194.32 59C194.007 59 193.764 58.97 193.59 58.91C193.424 58.8433 193.307 58.72 193.24 58.54C193.18 58.36 193.15 58.1 193.15 57.76V54.71H192.31V54.04H193.15V52.79H193.99V54.04H194.95V54.71H193.99V57.62C193.99 57.8733 194.014 58.0433 194.06 58.13C194.114 58.2167 194.26 58.26 194.5 58.26H194.95V59H194.32ZM197.743 59.12C197.456 59.12 197.173 59.0767 196.893 58.99C196.619 58.8967 196.373 58.76 196.153 58.58C195.939 58.3933 195.776 58.16 195.663 57.88L196.473 57.58C196.546 57.8733 196.706 58.0867 196.953 58.22C197.206 58.3467 197.469 58.41 197.743 58.41C197.943 58.41 198.129 58.38 198.303 58.32C198.483 58.26 198.629 58.1733 198.743 58.06C198.856 57.9467 198.913 57.8167 198.913 57.67C198.913 57.3967 198.803 57.2033 198.583 57.09C198.369 56.9767 198.113 56.89 197.813 56.83L197.123 56.69C196.883 56.6367 196.659 56.5633 196.453 56.47C196.246 56.37 196.079 56.23 195.953 56.05C195.826 55.87 195.763 55.63 195.763 55.33C195.763 55.03 195.856 54.78 196.043 54.58C196.229 54.3733 196.466 54.2167 196.753 54.11C197.046 54.0033 197.353 53.95 197.673 53.95C198.066 53.95 198.436 54.0333 198.783 54.2C199.136 54.36 199.386 54.6133 199.533 54.96L198.743 55.25C198.656 55.05 198.503 54.9033 198.283 54.81C198.069 54.71 197.846 54.66 197.613 54.66C197.359 54.66 197.129 54.7167 196.923 54.83C196.716 54.9433 196.613 55.1067 196.613 55.32C196.613 55.5333 196.699 55.69 196.873 55.79C197.053 55.8833 197.273 55.9567 197.533 56.01L198.183 56.14C198.449 56.1933 198.703 56.27 198.943 56.37C199.183 56.47 199.379 56.62 199.533 56.82C199.686 57.0133 199.763 57.2867 199.763 57.64C199.763 57.9533 199.666 58.22 199.473 58.44C199.279 58.66 199.029 58.83 198.723 58.95C198.416 59.0633 198.089 59.12 197.743 59.12ZM101.49 71.12C101.177 71.12 100.89 71.0633 100.63 70.95C100.37 70.8367 100.164 70.6733 100.01 70.46C99.8571 70.2467 99.7804 69.99 99.7804 69.69C99.7804 69.2967 99.9171 68.9867 100.19 68.76C100.47 68.5333 100.86 68.36 101.36 68.24C101.867 68.1133 102.457 68.0133 103.13 67.94C103.144 67.52 103.06 67.1967 102.88 66.97C102.7 66.7433 102.41 66.63 102.01 66.63C101.71 66.63 101.464 66.7 101.27 66.84C101.084 66.9733 100.964 67.16 100.91 67.4L100.1 67.16C100.234 66.78 100.47 66.4867 100.81 66.28C101.157 66.0667 101.554 65.96 102 65.96C102.687 65.96 103.187 66.1233 103.5 66.45C103.82 66.77 103.98 67.2767 103.98 67.97V69.13C103.98 69.5433 103.997 69.9 104.03 70.2C104.064 70.5 104.104 70.7667 104.15 71H103.38L103.18 70.32C103.034 70.5667 102.824 70.7633 102.55 70.91C102.277 71.05 101.924 71.12 101.49 71.12ZM101.67 70.45C101.93 70.45 102.177 70.4033 102.41 70.31C102.644 70.2167 102.834 70.06 102.98 69.84C103.127 69.6133 103.2 69.3067 103.2 68.92V68.61C102.694 68.6633 102.254 68.73 101.88 68.81C101.507 68.8833 101.217 68.99 101.01 69.13C100.81 69.2633 100.71 69.4433 100.71 69.67C100.71 69.9033 100.794 70.0933 100.96 70.24C101.134 70.38 101.37 70.45 101.67 70.45ZM105.364 71V66.04H105.984L106.204 66.79C106.344 66.5567 106.534 66.36 106.774 66.2C107.021 66.04 107.327 65.96 107.694 65.96C108.074 65.96 108.381 66.0367 108.614 66.19C108.847 66.3433 109.017 66.5567 109.124 66.83C109.324 66.5233 109.564 66.3033 109.844 66.17C110.131 66.03 110.447 65.96 110.794 65.96C111.367 65.96 111.777 66.1367 112.024 66.49C112.271 66.8367 112.394 67.2933 112.394 67.86V71H111.554V68.11C111.554 67.8567 111.527 67.6233 111.474 67.41C111.427 67.19 111.327 67.0133 111.174 66.88C111.027 66.7467 110.801 66.68 110.494 66.68C110.134 66.68 109.844 66.82 109.624 67.1C109.411 67.3733 109.304 67.7767 109.304 68.31V71H108.464V68.11C108.464 67.8567 108.437 67.6233 108.384 67.41C108.337 67.19 108.237 67.0133 108.084 66.88C107.937 66.7467 107.711 66.68 107.404 66.68C107.044 66.68 106.754 66.82 106.534 67.1C106.314 67.3733 106.204 67.7767 106.204 68.31V71H105.364ZM115.725 71.12C115.438 71.12 115.155 71.07 114.875 70.97C114.595 70.87 114.338 70.7167 114.105 70.51C113.878 70.2967 113.695 70.0267 113.555 69.7C113.415 69.3733 113.345 68.9867 113.345 68.54C113.345 68.0933 113.415 67.7067 113.555 67.38C113.695 67.0533 113.878 66.7867 114.105 66.58C114.338 66.3667 114.595 66.21 114.875 66.11C115.155 66.01 115.438 65.96 115.725 65.96C116.012 65.96 116.295 66.01 116.575 66.11C116.862 66.21 117.118 66.3667 117.345 66.58C117.578 66.7867 117.762 67.0533 117.895 67.38C118.035 67.7067 118.105 68.0933 118.105 68.54C118.105 68.9867 118.035 69.3733 117.895 69.7C117.762 70.0267 117.578 70.2967 117.345 70.51C117.118 70.7167 116.862 70.87 116.575 70.97C116.295 71.07 116.012 71.12 115.725 71.12ZM115.725 70.38C115.965 70.38 116.198 70.3167 116.425 70.19C116.652 70.0567 116.838 69.8567 116.985 69.59C117.132 69.3167 117.205 68.9667 117.205 68.54C117.205 68.1133 117.132 67.7667 116.985 67.5C116.838 67.2267 116.652 67.0267 116.425 66.9C116.198 66.7667 115.965 66.7 115.725 66.7C115.492 66.7 115.258 66.7667 115.025 66.9C114.798 67.0267 114.612 67.2267 114.465 67.5C114.318 67.7667 114.245 68.1133 114.245 68.54C114.245 68.9667 114.318 69.3167 114.465 69.59C114.612 69.8567 114.798 70.0567 115.025 70.19C115.258 70.3167 115.492 70.38 115.725 70.38ZM120.752 71.12C120.366 71.12 120.056 71.04 119.822 70.88C119.589 70.7133 119.419 70.4867 119.312 70.2C119.212 69.9067 119.162 69.5733 119.162 69.2V66.03H120.002V69C120.002 69.3667 120.046 69.65 120.132 69.85C120.219 70.05 120.339 70.19 120.492 70.27C120.652 70.3433 120.836 70.38 121.042 70.38C121.436 70.38 121.742 70.2433 121.962 69.97C122.189 69.69 122.302 69.2867 122.302 68.76V66.03H123.142V71H122.512L122.302 70.28C122.162 70.52 121.972 70.72 121.732 70.88C121.492 71.04 121.166 71.12 120.752 71.12ZM124.544 71V66.04H125.164L125.384 66.79C125.524 66.5567 125.72 66.36 125.974 66.2C126.227 66.04 126.564 65.96 126.984 65.96C127.584 65.96 128.007 66.1367 128.254 66.49C128.5 66.8367 128.624 67.2933 128.624 67.86V71H127.784V68.11C127.784 67.8567 127.76 67.6233 127.714 67.41C127.667 67.19 127.564 67.0133 127.404 66.88C127.25 66.7467 127.014 66.68 126.694 66.68C126.287 66.68 125.967 66.82 125.734 67.1C125.5 67.3733 125.384 67.7767 125.384 68.31V71H124.544ZM131.386 71C131.072 71 130.829 70.97 130.656 70.91C130.489 70.8433 130.372 70.72 130.306 70.54C130.246 70.36 130.216 70.1 130.216 69.76V66.71H129.376V66.04H130.216V64.79H131.056V66.04H132.016V66.71H131.056V69.62C131.056 69.8733 131.079 70.0433 131.126 70.13C131.179 70.2167 131.326 70.26 131.566 70.26H132.016V71H131.386ZM137.981 71.12C137.694 71.12 137.411 71.07 137.131 70.97C136.851 70.87 136.594 70.7167 136.361 70.51C136.134 70.2967 135.951 70.0267 135.811 69.7C135.671 69.3733 135.601 68.9867 135.601 68.54C135.601 68.0933 135.671 67.7067 135.811 67.38C135.951 67.0533 136.134 66.7867 136.361 66.58C136.594 66.3667 136.851 66.21 137.131 66.11C137.411 66.01 137.694 65.96 137.981 65.96C138.267 65.96 138.551 66.01 138.831 66.11C139.117 66.21 139.374 66.3667 139.601 66.58C139.834 66.7867 140.017 67.0533 140.151 67.38C140.291 67.7067 140.361 68.0933 140.361 68.54C140.361 68.9867 140.291 69.3733 140.151 69.7C140.017 70.0267 139.834 70.2967 139.601 70.51C139.374 70.7167 139.117 70.87 138.831 70.97C138.551 71.07 138.267 71.12 137.981 71.12ZM137.981 70.38C138.221 70.38 138.454 70.3167 138.681 70.19C138.907 70.0567 139.094 69.8567 139.241 69.59C139.387 69.3167 139.461 68.9667 139.461 68.54C139.461 68.1133 139.387 67.7667 139.241 67.5C139.094 67.2267 138.907 67.0267 138.681 66.9C138.454 66.7667 138.221 66.7 137.981 66.7C137.747 66.7 137.514 66.7667 137.281 66.9C137.054 67.0267 136.867 67.2267 136.721 67.5C136.574 67.7667 136.501 68.1133 136.501 68.54C136.501 68.9667 136.574 69.3167 136.721 69.59C136.867 69.8567 137.054 70.0567 137.281 70.19C137.514 70.3167 137.747 70.38 137.981 70.38ZM141.728 71V66.71H140.888V66.04H141.728V65.3C141.728 64.96 141.762 64.69 141.828 64.49C141.895 64.29 142.025 64.15 142.218 64.07C142.412 63.9833 142.692 63.94 143.058 63.94H143.598V64.65H143.078C142.865 64.65 142.725 64.6933 142.658 64.78C142.598 64.8667 142.568 65.0367 142.568 65.29V66.04H143.598V66.71H142.568V71H141.728ZM149.156 71.12C148.783 71.12 148.433 71.02 148.106 70.82C147.78 70.6133 147.516 70.32 147.316 69.94C147.123 69.5533 147.026 69.0867 147.026 68.54C147.026 67.9933 147.123 67.53 147.316 67.15C147.516 66.7633 147.78 66.47 148.106 66.27C148.433 66.0633 148.783 65.96 149.156 65.96C149.55 65.96 149.88 66.04 150.146 66.2C150.413 66.3533 150.62 66.56 150.766 66.82V64.32H151.606V69.13C151.606 69.2967 151.613 69.5433 151.626 69.87C151.64 70.19 151.69 70.5667 151.776 71H150.986L150.766 70.25C150.62 70.5167 150.413 70.73 150.146 70.89C149.88 71.0433 149.55 71.12 149.156 71.12ZM149.376 70.4C149.803 70.4 150.143 70.2367 150.396 69.91C150.656 69.5833 150.786 69.1267 150.786 68.54C150.786 67.9467 150.656 67.49 150.396 67.17C150.143 66.8433 149.803 66.68 149.376 66.68C148.95 66.68 148.606 66.8433 148.346 67.17C148.093 67.49 147.966 67.9467 147.966 68.54C147.966 69.1267 148.093 69.5833 148.346 69.91C148.606 70.2367 148.95 70.4 149.376 70.4ZM155.101 71.12C154.581 71.12 154.141 71.0067 153.781 70.78C153.421 70.5467 153.144 70.2367 152.951 69.85C152.764 69.4567 152.671 69.0167 152.671 68.53C152.671 68.0033 152.778 67.55 152.991 67.17C153.204 66.7833 153.491 66.4867 153.851 66.28C154.218 66.0667 154.628 65.96 155.081 65.96C155.474 65.96 155.821 66.04 156.121 66.2C156.421 66.3533 156.668 66.5633 156.861 66.83C157.061 67.09 157.204 67.3867 157.291 67.72C157.384 68.0533 157.418 68.3967 157.391 68.75H153.571C153.584 69.1633 153.674 69.49 153.841 69.73C154.014 69.97 154.218 70.14 154.451 70.24C154.684 70.3333 154.901 70.38 155.101 70.38C155.381 70.38 155.614 70.3367 155.801 70.25C155.994 70.1567 156.148 70.0367 156.261 69.89L157.071 70.13C156.891 70.4167 156.634 70.6533 156.301 70.84C155.968 71.0267 155.568 71.12 155.101 71.12ZM153.581 68.08H156.501C156.501 67.8467 156.441 67.6233 156.321 67.41C156.208 67.1967 156.044 67.0233 155.831 66.89C155.624 66.75 155.374 66.68 155.081 66.68C154.834 66.68 154.601 66.7267 154.381 66.82C154.161 66.9133 153.978 67.0633 153.831 67.27C153.691 67.4767 153.608 67.7467 153.581 68.08ZM159.892 71C159.578 71 159.335 70.97 159.162 70.91C158.995 70.8433 158.878 70.72 158.812 70.54C158.752 70.36 158.722 70.1 158.722 69.76V66.71H157.882V66.04H158.722V64.79H159.562V66.04H160.522V66.71H159.562V69.62C159.562 69.8733 159.585 70.0433 159.632 70.13C159.685 70.2167 159.832 70.26 160.072 70.26H160.522V71H159.892ZM163.734 71.12C163.214 71.12 162.774 71.0067 162.414 70.78C162.054 70.5467 161.777 70.2367 161.584 69.85C161.397 69.4567 161.304 69.0167 161.304 68.53C161.304 68.0033 161.41 67.55 161.624 67.17C161.837 66.7833 162.124 66.4867 162.484 66.28C162.85 66.0667 163.26 65.96 163.714 65.96C164.107 65.96 164.454 66.04 164.754 66.2C165.054 66.3533 165.3 66.5633 165.494 66.83C165.694 67.09 165.837 67.3867 165.924 67.72C166.017 68.0533 166.05 68.3967 166.024 68.75H162.204C162.217 69.1633 162.307 69.49 162.474 69.73C162.647 69.97 162.85 70.14 163.084 70.24C163.317 70.3333 163.534 70.38 163.734 70.38C164.014 70.38 164.247 70.3367 164.434 70.25C164.627 70.1567 164.78 70.0367 164.894 69.89L165.704 70.13C165.524 70.4167 165.267 70.6533 164.934 70.84C164.6 71.0267 164.2 71.12 163.734 71.12ZM162.214 68.08H165.134C165.134 67.8467 165.074 67.6233 164.954 67.41C164.84 67.1967 164.677 67.0233 164.464 66.89C164.257 66.75 164.007 66.68 163.714 66.68C163.467 66.68 163.234 66.7267 163.014 66.82C162.794 66.9133 162.61 67.0633 162.464 67.27C162.324 67.4767 162.24 67.7467 162.214 68.08ZM169.004 71.12C168.531 71.12 168.121 71.01 167.774 70.79C167.428 70.5633 167.161 70.2567 166.974 69.87C166.788 69.4833 166.694 69.04 166.694 68.54C166.694 68.0467 166.791 67.6067 166.984 67.22C167.184 66.8267 167.464 66.52 167.824 66.3C168.184 66.0733 168.608 65.96 169.094 65.96C169.541 65.96 169.924 66.07 170.244 66.29C170.564 66.51 170.804 66.7733 170.964 67.08L170.194 67.36C170.088 67.16 169.931 67 169.724 66.88C169.518 66.76 169.288 66.7 169.034 66.7C168.788 66.7 168.554 66.7667 168.334 66.9C168.114 67.0267 167.938 67.2267 167.804 67.5C167.671 67.7667 167.604 68.11 167.604 68.53C167.604 68.9433 167.671 69.29 167.804 69.57C167.944 69.8433 168.121 70.0467 168.334 70.18C168.554 70.3133 168.788 70.38 169.034 70.38C169.308 70.38 169.544 70.32 169.744 70.2C169.951 70.0733 170.108 69.9167 170.214 69.73L170.984 70.01C170.798 70.33 170.531 70.5967 170.184 70.81C169.838 71.0167 169.444 71.12 169.004 71.12ZM173.524 71C173.211 71 172.968 70.97 172.794 70.91C172.628 70.8433 172.511 70.72 172.444 70.54C172.384 70.36 172.354 70.1 172.354 69.76V66.71H171.514V66.04H172.354V64.79H173.194V66.04H174.154V66.71H173.194V69.62C173.194 69.8733 173.218 70.0433 173.264 70.13C173.318 70.2167 173.464 70.26 173.704 70.26H174.154V71H173.524ZM177.367 71.12C176.847 71.12 176.407 71.0067 176.047 70.78C175.687 70.5467 175.41 70.2367 175.217 69.85C175.03 69.4567 174.937 69.0167 174.937 68.53C174.937 68.0033 175.043 67.55 175.257 67.17C175.47 66.7833 175.757 66.4867 176.117 66.28C176.483 66.0667 176.893 65.96 177.347 65.96C177.74 65.96 178.087 66.04 178.387 66.2C178.687 66.3533 178.933 66.5633 179.127 66.83C179.327 67.09 179.47 67.3867 179.557 67.72C179.65 68.0533 179.683 68.3967 179.657 68.75H175.837C175.85 69.1633 175.94 69.49 176.107 69.73C176.28 69.97 176.483 70.14 176.717 70.24C176.95 70.3333 177.167 70.38 177.367 70.38C177.647 70.38 177.88 70.3367 178.067 70.25C178.26 70.1567 178.413 70.0367 178.527 69.89L179.337 70.13C179.157 70.4167 178.9 70.6533 178.567 70.84C178.233 71.0267 177.833 71.12 177.367 71.12ZM175.847 68.08H178.767C178.767 67.8467 178.707 67.6233 178.587 67.41C178.473 67.1967 178.31 67.0233 178.097 66.89C177.89 66.75 177.64 66.68 177.347 66.68C177.1 66.68 176.867 66.7267 176.647 66.82C176.427 66.9133 176.243 67.0633 176.097 67.27C175.957 67.4767 175.873 67.7467 175.847 68.08ZM182.457 71.12C182.084 71.12 181.734 71.02 181.407 70.82C181.081 70.6133 180.817 70.32 180.617 69.94C180.424 69.5533 180.327 69.0867 180.327 68.54C180.327 67.9933 180.424 67.53 180.617 67.15C180.817 66.7633 181.081 66.47 181.407 66.27C181.734 66.0633 182.084 65.96 182.457 65.96C182.851 65.96 183.181 66.04 183.447 66.2C183.714 66.3533 183.921 66.56 184.067 66.82V64.32H184.907V69.13C184.907 69.2967 184.914 69.5433 184.927 69.87C184.941 70.19 184.991 70.5667 185.077 71H184.287L184.067 70.25C183.921 70.5167 183.714 70.73 183.447 70.89C183.181 71.0433 182.851 71.12 182.457 71.12ZM182.677 70.4C183.104 70.4 183.444 70.2367 183.697 69.91C183.957 69.5833 184.087 69.1267 184.087 68.54C184.087 67.9467 183.957 67.49 183.697 67.17C183.444 66.8433 183.104 66.68 182.677 66.68C182.251 66.68 181.907 66.8433 181.647 67.17C181.394 67.49 181.267 67.9467 181.267 68.54C181.267 69.1267 181.394 69.5833 181.647 69.91C181.907 70.2367 182.251 70.4 182.677 70.4ZM189.385 71V66.71H188.545V66.04H189.385V65.3C189.385 64.96 189.418 64.69 189.485 64.49C189.551 64.29 189.681 64.15 189.875 64.07C190.068 63.9833 190.348 63.94 190.715 63.94H191.255V64.65H190.735C190.521 64.65 190.381 64.6933 190.315 64.78C190.255 64.8667 190.225 65.0367 190.225 65.29V66.04H191.255V66.71H190.225V71H189.385ZM193.278 71.12C192.964 71.12 192.678 71.0633 192.418 70.95C192.158 70.8367 191.951 70.6733 191.798 70.46C191.644 70.2467 191.568 69.99 191.568 69.69C191.568 69.2967 191.704 68.9867 191.978 68.76C192.258 68.5333 192.648 68.36 193.148 68.24C193.654 68.1133 194.244 68.0133 194.918 67.94C194.931 67.52 194.848 67.1967 194.668 66.97C194.488 66.7433 194.198 66.63 193.798 66.63C193.498 66.63 193.251 66.7 193.058 66.84C192.871 66.9733 192.751 67.16 192.698 67.4L191.888 67.16C192.021 66.78 192.258 66.4867 192.598 66.28C192.944 66.0667 193.341 65.96 193.788 65.96C194.474 65.96 194.974 66.1233 195.288 66.45C195.608 66.77 195.768 67.2767 195.768 67.97V69.13C195.768 69.5433 195.784 69.9 195.818 70.2C195.851 70.5 195.891 70.7667 195.938 71H195.168L194.968 70.32C194.821 70.5667 194.611 70.7633 194.338 70.91C194.064 71.05 193.711 71.12 193.278 71.12ZM193.458 70.45C193.718 70.45 193.964 70.4033 194.198 70.31C194.431 70.2167 194.621 70.06 194.768 69.84C194.914 69.6133 194.988 69.3067 194.988 68.92V68.61C194.481 68.6633 194.041 68.73 193.668 68.81C193.294 68.8833 193.004 68.99 192.798 69.13C192.598 69.2633 192.498 69.4433 192.498 69.67C192.498 69.9033 192.581 70.0933 192.748 70.24C192.921 70.38 193.158 70.45 193.458 70.45ZM199.141 71.12C198.668 71.12 198.258 71.01 197.911 70.79C197.565 70.5633 197.298 70.2567 197.111 69.87C196.925 69.4833 196.831 69.04 196.831 68.54C196.831 68.0467 196.928 67.6067 197.121 67.22C197.321 66.8267 197.601 66.52 197.961 66.3C198.321 66.0733 198.745 65.96 199.231 65.96C199.678 65.96 200.061 66.07 200.381 66.29C200.701 66.51 200.941 66.7733 201.101 67.08L200.331 67.36C200.225 67.16 200.068 67 199.861 66.88C199.655 66.76 199.425 66.7 199.171 66.7C198.925 66.7 198.691 66.7667 198.471 66.9C198.251 67.0267 198.075 67.2267 197.941 67.5C197.808 67.7667 197.741 68.11 197.741 68.53C197.741 68.9433 197.808 69.29 197.941 69.57C198.081 69.8433 198.258 70.0467 198.471 70.18C198.691 70.3133 198.925 70.38 199.171 70.38C199.445 70.38 199.681 70.32 199.881 70.2C200.088 70.0733 200.245 69.9167 200.351 69.73L201.121 70.01C200.935 70.33 200.668 70.5967 200.321 70.81C199.975 71.0167 199.581 71.12 199.141 71.12ZM204.261 71.12C203.741 71.12 203.301 71.0067 202.941 70.78C202.581 70.5467 202.305 70.2367 202.111 69.85C201.925 69.4567 201.831 69.0167 201.831 68.53C201.831 68.0033 201.938 67.55 202.151 67.17C202.365 66.7833 202.651 66.4867 203.011 66.28C203.378 66.0667 203.788 65.96 204.241 65.96C204.635 65.96 204.981 66.04 205.281 66.2C205.581 66.3533 205.828 66.5633 206.021 66.83C206.221 67.09 206.365 67.3867 206.451 67.72C206.545 68.0533 206.578 68.3967 206.551 68.75H202.731C202.745 69.1633 202.835 69.49 203.001 69.73C203.175 69.97 203.378 70.14 203.611 70.24C203.845 70.3333 204.061 70.38 204.261 70.38C204.541 70.38 204.775 70.3367 204.961 70.25C205.155 70.1567 205.308 70.0367 205.421 69.89L206.231 70.13C206.051 70.4167 205.795 70.6533 205.461 70.84C205.128 71.0267 204.728 71.12 204.261 71.12ZM202.741 68.08H205.661C205.661 67.8467 205.601 67.6233 205.481 67.41C205.368 67.1967 205.205 67.0233 204.991 66.89C204.785 66.75 204.535 66.68 204.241 66.68C203.995 66.68 203.761 66.7267 203.541 66.82C203.321 66.9133 203.138 67.0633 202.991 67.27C202.851 67.4767 202.768 67.7467 202.741 68.08ZM209.232 71.12C208.945 71.12 208.662 71.0767 208.382 70.99C208.108 70.8967 207.862 70.76 207.642 70.58C207.428 70.3933 207.265 70.16 207.152 69.88L207.962 69.58C208.035 69.8733 208.195 70.0867 208.442 70.22C208.695 70.3467 208.958 70.41 209.232 70.41C209.432 70.41 209.618 70.38 209.792 70.32C209.972 70.26 210.118 70.1733 210.232 70.06C210.345 69.9467 210.402 69.8167 210.402 69.67C210.402 69.3967 210.292 69.2033 210.072 69.09C209.858 68.9767 209.602 68.89 209.302 68.83L208.612 68.69C208.372 68.6367 208.148 68.5633 207.942 68.47C207.735 68.37 207.568 68.23 207.442 68.05C207.315 67.87 207.252 67.63 207.252 67.33C207.252 67.03 207.345 66.78 207.532 66.58C207.718 66.3733 207.955 66.2167 208.242 66.11C208.535 66.0033 208.842 65.95 209.162 65.95C209.555 65.95 209.925 66.0333 210.272 66.2C210.625 66.36 210.875 66.6133 211.022 66.96L210.232 67.25C210.145 67.05 209.992 66.9033 209.772 66.81C209.558 66.71 209.335 66.66 209.102 66.66C208.848 66.66 208.618 66.7167 208.412 66.83C208.205 66.9433 208.102 67.1067 208.102 67.32C208.102 67.5333 208.188 67.69 208.362 67.79C208.542 67.8833 208.762 67.9567 209.022 68.01L209.672 68.14C209.938 68.1933 210.192 68.27 210.432 68.37C210.672 68.47 210.868 68.62 211.022 68.82C211.175 69.0133 211.252 69.2867 211.252 69.64C211.252 69.9533 211.155 70.22 210.962 70.44C210.768 70.66 210.518 70.83 210.212 70.95C209.905 71.0633 209.578 71.12 209.232 71.12ZM212.569 71.12C212.395 71.12 212.245 71.0567 212.119 70.93C211.992 70.8033 211.929 70.6533 211.929 70.48C211.929 70.3 211.992 70.1467 212.119 70.02C212.245 69.8933 212.395 69.83 212.569 69.83C212.749 69.83 212.902 69.8933 213.029 70.02C213.155 70.1467 213.219 70.3 213.219 70.48C213.219 70.6533 213.155 70.8033 213.029 70.93C212.902 71.0567 212.749 71.12 212.569 71.12Z" fill="black"/>
<circle cx="42" cy="22" r="21.5" fill="#FCF4E9" stroke="black"/>
<circle cx="157" cy="22" r="21.5" fill="#FCF4E9" stroke="black"/>
<path d="M175.354 22.3536C175.549 22.1583 175.549 21.8417 175.354 21.6464L172.172 18.4645C171.976 18.2692 171.66 18.2692 171.464 18.4645C171.269 18.6597 171.269 18.9763 171.464 19.1716L174.293 22L171.464 24.8284C171.269 25.0237 171.269 25.3403 171.464 25.5355C171.66 25.7308 171.976 25.7308 172.172 25.5355L175.354 22.3536ZM138.646 21.6464C138.451 21.8417 138.451 22.1583 138.646 22.3536L141.828 25.5355C142.024 25.7308 142.34 25.7308 142.536 25.5355C142.731 25.3403 142.731 25.0237 142.536 24.8284L139.707 22L142.536 19.1716C142.731 18.9763 142.731 18.6597 142.536 18.4645C142.34 18.2692 142.024 18.2692 141.828 18.4645L138.646 21.6464ZM175 22L175 21.5L139 21.5L139 22L139 22.5L175 22.5L175 22Z" fill="black"/>
</svg>
