<svg width="251" height="83" viewBox="0 0 251 83" fill="none" xmlns="http://www.w3.org/2000/svg">
<path d="M0.814688 67.5V60.82H3.50469C3.99135 60.82 4.38469 60.9 4.68469 61.06C4.99135 61.22 5.21469 61.4267 5.35469 61.68C5.50135 61.9267 5.57469 62.1933 5.57469 62.48C5.57469 62.7467 5.51469 63.01 5.39469 63.27C5.27469 63.53 5.10135 63.7567 4.87469 63.95C5.20802 64.1233 5.45469 64.36 5.61469 64.66C5.78135 64.9533 5.86469 65.26 5.86469 65.58C5.86469 65.9 5.78135 66.2067 5.61469 66.5C5.45469 66.7933 5.21135 67.0333 4.88469 67.22C4.55802 67.4067 4.15135 67.5 3.66469 67.5H0.814688ZM1.75469 63.68H3.60469C3.94469 63.68 4.19802 63.5733 4.36469 63.36C4.53802 63.1467 4.62469 62.9133 4.62469 62.66C4.62469 62.4867 4.58469 62.32 4.50469 62.16C4.43135 62 4.31802 61.87 4.16469 61.77C4.01802 61.6633 3.83135 61.61 3.60469 61.61H1.75469V63.68ZM1.75469 66.71H3.76469C4.01135 66.71 4.21802 66.6533 4.38469 66.54C4.55135 66.4267 4.67802 66.2833 4.76469 66.11C4.85135 65.93 4.89469 65.7433 4.89469 65.55C4.89469 65.3567 4.85135 65.1767 4.76469 65.01C4.68469 64.8367 4.55802 64.6967 4.38469 64.59C4.21802 64.4767 4.00802 64.42 3.75469 64.42H1.75469V66.71ZM8.51609 67.62C8.12943 67.62 7.81943 67.54 7.58609 67.38C7.35276 67.2133 7.18276 66.9867 7.07609 66.7C6.97609 66.4067 6.92609 66.0733 6.92609 65.7V62.53H7.76609V65.5C7.76609 65.8667 7.80943 66.15 7.89609 66.35C7.98276 66.55 8.10276 66.69 8.25609 66.77C8.41609 66.8433 8.59943 66.88 8.80609 66.88C9.19943 66.88 9.50609 66.7433 9.72609 66.47C9.95276 66.19 10.0661 65.7867 10.0661 65.26V62.53H10.9061V67.5H10.2761L10.0661 66.78C9.92609 67.02 9.73609 67.22 9.49609 67.38C9.25609 67.54 8.92943 67.62 8.51609 67.62ZM14.7574 67.62C14.3708 67.62 14.0441 67.5433 13.7774 67.39C13.5108 67.23 13.3008 67.0167 13.1474 66.75L12.9274 67.5H12.3074V60.82H13.1474V63.32C13.3008 63.06 13.5108 62.8533 13.7774 62.7C14.0441 62.54 14.3708 62.46 14.7574 62.46C15.1374 62.46 15.4874 62.5633 15.8074 62.77C16.1341 62.97 16.3941 63.2633 16.5874 63.65C16.7874 64.03 16.8874 64.4933 16.8874 65.04C16.8874 65.5867 16.7874 66.0533 16.5874 66.44C16.3941 66.82 16.1341 67.1133 15.8074 67.32C15.4874 67.52 15.1374 67.62 14.7574 67.62ZM14.5374 66.9C14.9641 66.9 15.3041 66.7367 15.5574 66.41C15.8174 66.0833 15.9474 65.6267 15.9474 65.04C15.9474 64.4467 15.8174 63.99 15.5574 63.67C15.3041 63.3433 14.9641 63.18 14.5374 63.18C14.1108 63.18 13.7674 63.3433 13.5074 63.67C13.2541 63.99 13.1274 64.4467 13.1274 65.04C13.1274 65.6267 13.2541 66.0833 13.5074 66.41C13.7674 66.7367 14.1108 66.9 14.5374 66.9ZM20.4215 67.62C20.0348 67.62 19.7082 67.5433 19.4415 67.39C19.1748 67.23 18.9648 67.0167 18.8115 66.75L18.5915 67.5H17.9715V60.82H18.8115V63.32C18.9648 63.06 19.1748 62.8533 19.4415 62.7C19.7082 62.54 20.0348 62.46 20.4215 62.46C20.8015 62.46 21.1515 62.5633 21.4715 62.77C21.7982 62.97 22.0582 63.2633 22.2515 63.65C22.4515 64.03 22.5515 64.4933 22.5515 65.04C22.5515 65.5867 22.4515 66.0533 22.2515 66.44C22.0582 66.82 21.7982 67.1133 21.4715 67.32C21.1515 67.52 20.8015 67.62 20.4215 67.62ZM20.2015 66.9C20.6282 66.9 20.9682 66.7367 21.2215 66.41C21.4815 66.0833 21.6115 65.6267 21.6115 65.04C21.6115 64.4467 21.4815 63.99 21.2215 63.67C20.9682 63.3433 20.6282 63.18 20.2015 63.18C19.7748 63.18 19.4315 63.3433 19.1715 63.67C18.9182 63.99 18.7915 64.4467 18.7915 65.04C18.7915 65.6267 18.9182 66.0833 19.1715 66.41C19.4315 66.7367 19.7748 66.9 20.2015 66.9ZM24.8055 67.5C24.4922 67.5 24.2489 67.47 24.0755 67.41C23.9089 67.3433 23.7922 67.22 23.7255 67.04C23.6655 66.86 23.6355 66.6 23.6355 66.26V60.83H24.4755V66.12C24.4755 66.3733 24.5022 66.5433 24.5555 66.63C24.6089 66.7167 24.7522 66.76 24.9855 66.76H25.1755V67.5H24.8055ZM28.1381 67.62C27.6181 67.62 27.1781 67.5067 26.8181 67.28C26.4581 67.0467 26.1815 66.7367 25.9881 66.35C25.8015 65.9567 25.7081 65.5167 25.7081 65.03C25.7081 64.5033 25.8148 64.05 26.0281 63.67C26.2415 63.2833 26.5281 62.9867 26.8881 62.78C27.2548 62.5667 27.6648 62.46 28.1181 62.46C28.5115 62.46 28.8581 62.54 29.1581 62.7C29.4581 62.8533 29.7048 63.0633 29.8981 63.33C30.0981 63.59 30.2415 63.8867 30.3281 64.22C30.4215 64.5533 30.4548 64.8967 30.4281 65.25H26.6081C26.6215 65.6633 26.7115 65.99 26.8781 66.23C27.0515 66.47 27.2548 66.64 27.4881 66.74C27.7215 66.8333 27.9381 66.88 28.1381 66.88C28.4181 66.88 28.6515 66.8367 28.8381 66.75C29.0315 66.6567 29.1848 66.5367 29.2981 66.39L30.1081 66.63C29.9281 66.9167 29.6715 67.1533 29.3381 67.34C29.0048 67.5267 28.6048 67.62 28.1381 67.62ZM26.6181 64.58H29.5381C29.5381 64.3467 29.4781 64.1233 29.3581 63.91C29.2448 63.6967 29.0815 63.5233 28.8681 63.39C28.6615 63.25 28.4115 63.18 28.1181 63.18C27.8715 63.18 27.6381 63.2267 27.4181 63.32C27.1981 63.4133 27.0148 63.5633 26.8681 63.77C26.7281 63.9767 26.6448 64.2467 26.6181 64.58ZM33.1088 67.62C32.8221 67.62 32.5388 67.5767 32.2588 67.49C31.9854 67.3967 31.7388 67.26 31.5188 67.08C31.3054 66.8933 31.1421 66.66 31.0288 66.38L31.8388 66.08C31.9121 66.3733 32.0721 66.5867 32.3188 66.72C32.5721 66.8467 32.8354 66.91 33.1088 66.91C33.3088 66.91 33.4954 66.88 33.6688 66.82C33.8488 66.76 33.9954 66.6733 34.1088 66.56C34.2221 66.4467 34.2788 66.3167 34.2788 66.17C34.2788 65.8967 34.1688 65.7033 33.9488 65.59C33.7354 65.4767 33.4788 65.39 33.1788 65.33L32.4888 65.19C32.2488 65.1367 32.0254 65.0633 31.8188 64.97C31.6121 64.87 31.4454 64.73 31.3188 64.55C31.1921 64.37 31.1288 64.13 31.1288 63.83C31.1288 63.53 31.2221 63.28 31.4088 63.08C31.5954 62.8733 31.8321 62.7167 32.1188 62.61C32.4121 62.5033 32.7188 62.45 33.0388 62.45C33.4321 62.45 33.8021 62.5333 34.1488 62.7C34.5021 62.86 34.7521 63.1133 34.8988 63.46L34.1088 63.75C34.0221 63.55 33.8688 63.4033 33.6488 63.31C33.4354 63.21 33.2121 63.16 32.9788 63.16C32.7254 63.16 32.4954 63.2167 32.2888 63.33C32.0821 63.4433 31.9788 63.6067 31.9788 63.82C31.9788 64.0333 32.0654 64.19 32.2388 64.29C32.4188 64.3833 32.6388 64.4567 32.8988 64.51L33.5488 64.64C33.8154 64.6933 34.0688 64.77 34.3088 64.87C34.5488 64.97 34.7454 65.12 34.8988 65.32C35.0521 65.5133 35.1288 65.7867 35.1288 66.14C35.1288 66.4533 35.0321 66.72 34.8388 66.94C34.6454 67.16 34.3954 67.33 34.0888 67.45C33.7821 67.5633 33.4554 67.62 33.1088 67.62ZM38.9285 67.5V62.54H39.5385L39.8085 63.46C39.9818 63.16 40.2152 62.92 40.5085 62.74C40.8085 62.5533 41.1652 62.46 41.5785 62.46V63.33C41.5318 63.33 41.4818 63.33 41.4285 63.33C41.3818 63.33 41.3352 63.3333 41.2885 63.34C40.7218 63.3867 40.3252 63.5833 40.0985 63.93C39.8785 64.2767 39.7685 64.7567 39.7685 65.37V67.5H38.9285ZM44.437 67.62C43.917 67.62 43.477 67.5067 43.117 67.28C42.757 67.0467 42.4803 66.7367 42.287 66.35C42.1003 65.9567 42.007 65.5167 42.007 65.03C42.007 64.5033 42.1136 64.05 42.327 63.67C42.5403 63.2833 42.827 62.9867 43.187 62.78C43.5536 62.5667 43.9636 62.46 44.417 62.46C44.8103 62.46 45.157 62.54 45.457 62.7C45.757 62.8533 46.0036 63.0633 46.197 63.33C46.397 63.59 46.5403 63.8867 46.627 64.22C46.7203 64.5533 46.7536 64.8967 46.727 65.25H42.907C42.9203 65.6633 43.0103 65.99 43.177 66.23C43.3503 66.47 43.5536 66.64 43.787 66.74C44.0203 66.8333 44.237 66.88 44.437 66.88C44.717 66.88 44.9503 66.8367 45.137 66.75C45.3303 66.6567 45.4836 66.5367 45.597 66.39L46.407 66.63C46.227 66.9167 45.9703 67.1533 45.637 67.34C45.3036 67.5267 44.9036 67.62 44.437 67.62ZM42.917 64.58H45.837C45.837 64.3467 45.777 64.1233 45.657 63.91C45.5436 63.6967 45.3803 63.5233 45.167 63.39C44.9603 63.25 44.7103 63.18 44.417 63.18C44.1703 63.18 43.937 63.2267 43.717 63.32C43.497 63.4133 43.3136 63.5633 43.167 63.77C43.027 63.9767 42.9436 64.2467 42.917 64.58ZM47.7176 69.11V62.54H48.3276L48.5576 63.32C48.7109 63.06 48.9209 62.8533 49.1876 62.7C49.4542 62.54 49.7809 62.46 50.1676 62.46C50.5476 62.46 50.8976 62.5633 51.2176 62.77C51.5442 62.97 51.8042 63.2633 51.9976 63.65C52.1976 64.03 52.2976 64.4933 52.2976 65.04C52.2976 65.58 52.1976 66.0433 51.9976 66.43C51.8042 66.8167 51.5442 67.1133 51.2176 67.32C50.8976 67.52 50.5476 67.62 50.1676 67.62C49.7809 67.62 49.4542 67.5433 49.1876 67.39C48.9209 67.23 48.7109 67.0167 48.5576 66.75V69.11H47.7176ZM49.9476 66.9C50.3742 66.9 50.7142 66.7367 50.9676 66.41C51.2276 66.0833 51.3576 65.6267 51.3576 65.04C51.3576 64.4467 51.2276 63.99 50.9676 63.67C50.7142 63.3433 50.3742 63.18 49.9476 63.18C49.5209 63.18 49.1776 63.3433 48.9176 63.67C48.6642 63.99 48.5376 64.4467 48.5376 65.04C48.5376 65.6267 48.6642 66.0833 48.9176 66.41C49.1776 66.7367 49.5209 66.9 49.9476 66.9ZM53.3816 67.5V62.54H53.9916L54.2616 63.46C54.435 63.16 54.6683 62.92 54.9616 62.74C55.2616 62.5533 55.6183 62.46 56.0316 62.46V63.33C55.985 63.33 55.935 63.33 55.8816 63.33C55.835 63.33 55.7883 63.3333 55.7416 63.34C55.175 63.3867 54.7783 63.5833 54.5516 63.93C54.3316 64.2767 54.2216 64.7567 54.2216 65.37V67.5H53.3816ZM58.8901 67.62C58.3701 67.62 57.9301 67.5067 57.5701 67.28C57.2101 67.0467 56.9334 66.7367 56.7401 66.35C56.5534 65.9567 56.4601 65.5167 56.4601 65.03C56.4601 64.5033 56.5667 64.05 56.7801 63.67C56.9934 63.2833 57.2801 62.9867 57.6401 62.78C58.0067 62.5667 58.4167 62.46 58.8701 62.46C59.2634 62.46 59.6101 62.54 59.9101 62.7C60.2101 62.8533 60.4567 63.0633 60.6501 63.33C60.8501 63.59 60.9934 63.8867 61.0801 64.22C61.1734 64.5533 61.2067 64.8967 61.1801 65.25H57.3601C57.3734 65.6633 57.4634 65.99 57.6301 66.23C57.8034 66.47 58.0067 66.64 58.2401 66.74C58.4734 66.8333 58.6901 66.88 58.8901 66.88C59.1701 66.88 59.4034 66.8367 59.5901 66.75C59.7834 66.6567 59.9367 66.5367 60.0501 66.39L60.8601 66.63C60.6801 66.9167 60.4234 67.1533 60.0901 67.34C59.7567 67.5267 59.3567 67.62 58.8901 67.62ZM57.3701 64.58H60.2901C60.2901 64.3467 60.2301 64.1233 60.1101 63.91C59.9967 63.6967 59.8334 63.5233 59.6201 63.39C59.4134 63.25 59.1634 63.18 58.8701 63.18C58.6234 63.18 58.3901 63.2267 58.1701 63.32C57.9501 63.4133 57.7667 63.5633 57.6201 63.77C57.4801 63.9767 57.3967 64.2467 57.3701 64.58ZM63.8607 67.62C63.574 67.62 63.2907 67.5767 63.0107 67.49C62.7374 67.3967 62.4907 67.26 62.2707 67.08C62.0574 66.8933 61.894 66.66 61.7807 66.38L62.5907 66.08C62.664 66.3733 62.824 66.5867 63.0707 66.72C63.324 66.8467 63.5874 66.91 63.8607 66.91C64.0607 66.91 64.2474 66.88 64.4207 66.82C64.6007 66.76 64.7474 66.6733 64.8607 66.56C64.974 66.4467 65.0307 66.3167 65.0307 66.17C65.0307 65.8967 64.9207 65.7033 64.7007 65.59C64.4874 65.4767 64.2307 65.39 63.9307 65.33L63.2407 65.19C63.0007 65.1367 62.7774 65.0633 62.5707 64.97C62.364 64.87 62.1974 64.73 62.0707 64.55C61.944 64.37 61.8807 64.13 61.8807 63.83C61.8807 63.53 61.974 63.28 62.1607 63.08C62.3474 62.8733 62.584 62.7167 62.8707 62.61C63.164 62.5033 63.4707 62.45 63.7907 62.45C64.184 62.45 64.554 62.5333 64.9007 62.7C65.254 62.86 65.504 63.1133 65.6507 63.46L64.8607 63.75C64.774 63.55 64.6207 63.4033 64.4007 63.31C64.1874 63.21 63.964 63.16 63.7307 63.16C63.4774 63.16 63.2474 63.2167 63.0407 63.33C62.834 63.4433 62.7307 63.6067 62.7307 63.82C62.7307 64.0333 62.8174 64.19 62.9907 64.29C63.1707 64.3833 63.3907 64.4567 63.6507 64.51L64.3007 64.64C64.5674 64.6933 64.8207 64.77 65.0607 64.87C65.3007 64.97 65.4974 65.12 65.6507 65.32C65.804 65.5133 65.8807 65.7867 65.8807 66.14C65.8807 66.4533 65.784 66.72 65.5907 66.94C65.3974 67.16 65.1474 67.33 64.8407 67.45C64.534 67.5633 64.2074 67.62 63.8607 67.62ZM68.9877 67.62C68.4677 67.62 68.0277 67.5067 67.6677 67.28C67.3077 67.0467 67.0311 66.7367 66.8377 66.35C66.6511 65.9567 66.5577 65.5167 66.5577 65.03C66.5577 64.5033 66.6644 64.05 66.8777 63.67C67.0911 63.2833 67.3777 62.9867 67.7377 62.78C68.1044 62.5667 68.5144 62.46 68.9677 62.46C69.3611 62.46 69.7077 62.54 70.0077 62.7C70.3077 62.8533 70.5544 63.0633 70.7477 63.33C70.9477 63.59 71.0911 63.8867 71.1777 64.22C71.2711 64.5533 71.3044 64.8967 71.2777 65.25H67.4577C67.4711 65.6633 67.5611 65.99 67.7277 66.23C67.9011 66.47 68.1044 66.64 68.3377 66.74C68.5711 66.8333 68.7877 66.88 68.9877 66.88C69.2677 66.88 69.5011 66.8367 69.6877 66.75C69.8811 66.6567 70.0344 66.5367 70.1477 66.39L70.9577 66.63C70.7777 66.9167 70.5211 67.1533 70.1877 67.34C69.8544 67.5267 69.4544 67.62 68.9877 67.62ZM67.4677 64.58H70.3877C70.3877 64.3467 70.3277 64.1233 70.2077 63.91C70.0944 63.6967 69.9311 63.5233 69.7177 63.39C69.5111 63.25 69.2611 63.18 68.9677 63.18C68.7211 63.18 68.4877 63.2267 68.2677 63.32C68.0477 63.4133 67.8644 63.5633 67.7177 63.77C67.5777 63.9767 67.4944 64.2467 67.4677 64.58ZM72.2684 67.5V62.54H72.8884L73.1084 63.29C73.2484 63.0567 73.445 62.86 73.6984 62.7C73.9517 62.54 74.2884 62.46 74.7084 62.46C75.3084 62.46 75.7317 62.6367 75.9784 62.99C76.225 63.3367 76.3484 63.7933 76.3484 64.36V67.5H75.5084V64.61C75.5084 64.3567 75.485 64.1233 75.4384 63.91C75.3917 63.69 75.2884 63.5133 75.1284 63.38C74.975 63.2467 74.7384 63.18 74.4184 63.18C74.0117 63.18 73.6917 63.32 73.4584 63.6C73.225 63.8733 73.1084 64.2767 73.1084 64.81V67.5H72.2684ZM79.1104 67.5C78.7971 67.5 78.5537 67.47 78.3804 67.41C78.2137 67.3433 78.0971 67.22 78.0304 67.04C77.9704 66.86 77.9404 66.6 77.9404 66.26V63.21H77.1004V62.54H77.9404V61.29H78.7804V62.54H79.7404V63.21H78.7804V66.12C78.7804 66.3733 78.8037 66.5433 78.8504 66.63C78.9037 66.7167 79.0504 66.76 79.2904 66.76H79.7404V67.5H79.1104ZM26.1648 81.11V74.54H26.7748L27.0048 75.32C27.1582 75.06 27.3682 74.8533 27.6348 74.7C27.9015 74.54 28.2282 74.46 28.6148 74.46C28.9948 74.46 29.3448 74.5633 29.6648 74.77C29.9915 74.97 30.2515 75.2633 30.4448 75.65C30.6448 76.03 30.7448 76.4933 30.7448 77.04C30.7448 77.58 30.6448 78.0433 30.4448 78.43C30.2515 78.8167 29.9915 79.1133 29.6648 79.32C29.3448 79.52 28.9948 79.62 28.6148 79.62C28.2282 79.62 27.9015 79.5433 27.6348 79.39C27.3682 79.23 27.1582 79.0167 27.0048 78.75V81.11H26.1648ZM28.3948 78.9C28.8215 78.9 29.1615 78.7367 29.4148 78.41C29.6748 78.0833 29.8048 77.6267 29.8048 77.04C29.8048 76.4467 29.6748 75.99 29.4148 75.67C29.1615 75.3433 28.8215 75.18 28.3948 75.18C27.9682 75.18 27.6248 75.3433 27.3648 75.67C27.1115 75.99 26.9848 76.4467 26.9848 77.04C26.9848 77.6267 27.1115 78.0833 27.3648 78.41C27.6248 78.7367 27.9682 78.9 28.3948 78.9ZM33.9389 79.62C33.4189 79.62 32.9789 79.5067 32.6189 79.28C32.2589 79.0467 31.9822 78.7367 31.7889 78.35C31.6022 77.9567 31.5089 77.5167 31.5089 77.03C31.5089 76.5033 31.6156 76.05 31.8289 75.67C32.0422 75.2833 32.3289 74.9867 32.6889 74.78C33.0556 74.5667 33.4656 74.46 33.9189 74.46C34.3122 74.46 34.6589 74.54 34.9589 74.7C35.2589 74.8533 35.5056 75.0633 35.6989 75.33C35.8989 75.59 36.0422 75.8867 36.1289 76.22C36.2222 76.5533 36.2556 76.8967 36.2289 77.25H32.4089C32.4222 77.6633 32.5122 77.99 32.6789 78.23C32.8522 78.47 33.0556 78.64 33.2889 78.74C33.5222 78.8333 33.7389 78.88 33.9389 78.88C34.2189 78.88 34.4522 78.8367 34.6389 78.75C34.8322 78.6567 34.9856 78.5367 35.0989 78.39L35.9089 78.63C35.7289 78.9167 35.4722 79.1533 35.1389 79.34C34.8056 79.5267 34.4056 79.62 33.9389 79.62ZM32.4189 76.58H35.3389C35.3389 76.3467 35.2789 76.1233 35.1589 75.91C35.0456 75.6967 34.8822 75.5233 34.6689 75.39C34.4622 75.25 34.2122 75.18 33.9189 75.18C33.6722 75.18 33.4389 75.2267 33.2189 75.32C32.9989 75.4133 32.8156 75.5633 32.6689 75.77C32.5289 75.9767 32.4456 76.2467 32.4189 76.58ZM39.2795 79.62C38.9929 79.62 38.7095 79.57 38.4295 79.47C38.1495 79.37 37.8929 79.2167 37.6595 79.01C37.4329 78.7967 37.2495 78.5267 37.1095 78.2C36.9695 77.8733 36.8995 77.4867 36.8995 77.04C36.8995 76.5933 36.9695 76.2067 37.1095 75.88C37.2495 75.5533 37.4329 75.2867 37.6595 75.08C37.8929 74.8667 38.1495 74.71 38.4295 74.61C38.7095 74.51 38.9929 74.46 39.2795 74.46C39.5662 74.46 39.8495 74.51 40.1295 74.61C40.4162 74.71 40.6729 74.8667 40.8995 75.08C41.1329 75.2867 41.3162 75.5533 41.4495 75.88C41.5895 76.2067 41.6595 76.5933 41.6595 77.04C41.6595 77.4867 41.5895 77.8733 41.4495 78.2C41.3162 78.5267 41.1329 78.7967 40.8995 79.01C40.6729 79.2167 40.4162 79.37 40.1295 79.47C39.8495 79.57 39.5662 79.62 39.2795 79.62ZM39.2795 78.88C39.5195 78.88 39.7529 78.8167 39.9795 78.69C40.2062 78.5567 40.3929 78.3567 40.5395 78.09C40.6862 77.8167 40.7595 77.4667 40.7595 77.04C40.7595 76.6133 40.6862 76.2667 40.5395 76C40.3929 75.7267 40.2062 75.5267 39.9795 75.4C39.7529 75.2667 39.5195 75.2 39.2795 75.2C39.0462 75.2 38.8129 75.2667 38.5795 75.4C38.3529 75.5267 38.1662 75.7267 38.0195 76C37.8729 76.2667 37.7995 76.6133 37.7995 77.04C37.7995 77.4667 37.8729 77.8167 38.0195 78.09C38.1662 78.3567 38.3529 78.5567 38.5795 78.69C38.8129 78.8167 39.0462 78.88 39.2795 78.88ZM42.7371 81.11V74.54H43.3471L43.5771 75.32C43.7304 75.06 43.9404 74.8533 44.2071 74.7C44.4738 74.54 44.8004 74.46 45.1871 74.46C45.5671 74.46 45.9171 74.5633 46.2371 74.77C46.5638 74.97 46.8238 75.2633 47.0171 75.65C47.2171 76.03 47.3171 76.4933 47.3171 77.04C47.3171 77.58 47.2171 78.0433 47.0171 78.43C46.8238 78.8167 46.5638 79.1133 46.2371 79.32C45.9171 79.52 45.5671 79.62 45.1871 79.62C44.8004 79.62 44.4738 79.5433 44.2071 79.39C43.9404 79.23 43.7304 79.0167 43.5771 78.75V81.11H42.7371ZM44.9671 78.9C45.3938 78.9 45.7338 78.7367 45.9871 78.41C46.2471 78.0833 46.3771 77.6267 46.3771 77.04C46.3771 76.4467 46.2471 75.99 45.9871 75.67C45.7338 75.3433 45.3938 75.18 44.9671 75.18C44.5404 75.18 44.1971 75.3433 43.9371 75.67C43.6838 75.99 43.5571 76.4467 43.5571 77.04C43.5571 77.6267 43.6838 78.0833 43.9371 78.41C44.1971 78.7367 44.5404 78.9 44.9671 78.9ZM49.5712 79.5C49.2578 79.5 49.0145 79.47 48.8412 79.41C48.6745 79.3433 48.5578 79.22 48.4912 79.04C48.4312 78.86 48.4012 78.6 48.4012 78.26V72.83H49.2412V78.12C49.2412 78.3733 49.2678 78.5433 49.3212 78.63C49.3745 78.7167 49.5178 78.76 49.7512 78.76H49.9412V79.5H49.5712ZM52.9038 79.62C52.3838 79.62 51.9438 79.5067 51.5838 79.28C51.2238 79.0467 50.9471 78.7367 50.7537 78.35C50.5671 77.9567 50.4738 77.5167 50.4738 77.03C50.4738 76.5033 50.5804 76.05 50.7938 75.67C51.0071 75.2833 51.2938 74.9867 51.6538 74.78C52.0204 74.5667 52.4304 74.46 52.8838 74.46C53.2771 74.46 53.6238 74.54 53.9238 74.7C54.2238 74.8533 54.4704 75.0633 54.6638 75.33C54.8638 75.59 55.0071 75.8867 55.0938 76.22C55.1871 76.5533 55.2204 76.8967 55.1938 77.25H51.3738C51.3871 77.6633 51.4771 77.99 51.6438 78.23C51.8171 78.47 52.0204 78.64 52.2538 78.74C52.4871 78.8333 52.7038 78.88 52.9038 78.88C53.1838 78.88 53.4171 78.8367 53.6038 78.75C53.7971 78.6567 53.9504 78.5367 54.0638 78.39L54.8738 78.63C54.6938 78.9167 54.4371 79.1533 54.1038 79.34C53.7704 79.5267 53.3704 79.62 52.9038 79.62ZM51.3838 76.58H54.3038C54.3038 76.3467 54.2438 76.1233 54.1238 75.91C54.0104 75.6967 53.8471 75.5233 53.6338 75.39C53.4271 75.25 53.1771 75.18 52.8838 75.18C52.6371 75.18 52.4038 75.2267 52.1838 75.32C51.9638 75.4133 51.7804 75.5633 51.6338 75.77C51.4938 75.9767 51.4104 76.2467 51.3838 76.58ZM56.5044 79.62C56.331 79.62 56.181 79.5567 56.0544 79.43C55.9277 79.3033 55.8644 79.1533 55.8644 78.98C55.8644 78.8 55.9277 78.6467 56.0544 78.52C56.181 78.3933 56.331 78.33 56.5044 78.33C56.6844 78.33 56.8377 78.3933 56.9644 78.52C57.091 78.6467 57.1544 78.8 57.1544 78.98C57.1544 79.1533 57.091 79.3033 56.9644 79.43C56.8377 79.5567 56.6844 79.62 56.5044 79.62Z" fill="black"/>
<path d="M110.37 67.5V61.63H108.15V60.82H113.53V61.63H111.31V67.5H110.37ZM114.326 67.5V60.82H115.166V63.29C115.306 63.0567 115.503 62.86 115.756 62.7C116.009 62.54 116.346 62.46 116.766 62.46C117.366 62.46 117.789 62.6367 118.036 62.99C118.283 63.3367 118.406 63.7933 118.406 64.36V67.5H117.566V64.61C117.566 64.3567 117.543 64.1233 117.496 63.91C117.449 63.69 117.346 63.5133 117.186 63.38C117.033 63.2467 116.796 63.18 116.476 63.18C116.069 63.18 115.749 63.32 115.516 63.6C115.283 63.8733 115.166 64.2767 115.166 64.81V67.5H114.326ZM121.788 67.62C121.268 67.62 120.828 67.5067 120.468 67.28C120.108 67.0467 119.831 66.7367 119.638 66.35C119.451 65.9567 119.358 65.5167 119.358 65.03C119.358 64.5033 119.464 64.05 119.678 63.67C119.891 63.2833 120.178 62.9867 120.538 62.78C120.904 62.5667 121.314 62.46 121.768 62.46C122.161 62.46 122.508 62.54 122.808 62.7C123.108 62.8533 123.354 63.0633 123.548 63.33C123.748 63.59 123.891 63.8867 123.978 64.22C124.071 64.5533 124.104 64.8967 124.078 65.25H120.258C120.271 65.6633 120.361 65.99 120.528 66.23C120.701 66.47 120.904 66.64 121.138 66.74C121.371 66.8333 121.588 66.88 121.788 66.88C122.068 66.88 122.301 66.8367 122.488 66.75C122.681 66.6567 122.834 66.5367 122.948 66.39L123.758 66.63C123.578 66.9167 123.321 67.1533 122.988 67.34C122.654 67.5267 122.254 67.62 121.788 67.62ZM120.268 64.58H123.188C123.188 64.3467 123.128 64.1233 123.008 63.91C122.894 63.6967 122.731 63.5233 122.518 63.39C122.311 63.25 122.061 63.18 121.768 63.18C121.521 63.18 121.288 63.2267 121.068 63.32C120.848 63.4133 120.664 63.5633 120.518 63.77C120.378 63.9767 120.294 64.2467 120.268 64.58ZM129.561 67.62C129.274 67.62 128.991 67.5767 128.711 67.49C128.438 67.3967 128.191 67.26 127.971 67.08C127.758 66.8933 127.594 66.66 127.481 66.38L128.291 66.08C128.364 66.3733 128.524 66.5867 128.771 66.72C129.024 66.8467 129.288 66.91 129.561 66.91C129.761 66.91 129.948 66.88 130.121 66.82C130.301 66.76 130.448 66.6733 130.561 66.56C130.674 66.4467 130.731 66.3167 130.731 66.17C130.731 65.8967 130.621 65.7033 130.401 65.59C130.188 65.4767 129.931 65.39 129.631 65.33L128.941 65.19C128.701 65.1367 128.478 65.0633 128.271 64.97C128.064 64.87 127.898 64.73 127.771 64.55C127.644 64.37 127.581 64.13 127.581 63.83C127.581 63.53 127.674 63.28 127.861 63.08C128.048 62.8733 128.284 62.7167 128.571 62.61C128.864 62.5033 129.171 62.45 129.491 62.45C129.884 62.45 130.254 62.5333 130.601 62.7C130.954 62.86 131.204 63.1133 131.351 63.46L130.561 63.75C130.474 63.55 130.321 63.4033 130.101 63.31C129.888 63.21 129.664 63.16 129.431 63.16C129.178 63.16 128.948 63.2167 128.741 63.33C128.534 63.4433 128.431 63.6067 128.431 63.82C128.431 64.0333 128.518 64.19 128.691 64.29C128.871 64.3833 129.091 64.4567 129.351 64.51L130.001 64.64C130.268 64.6933 130.521 64.77 130.761 64.87C131.001 64.97 131.198 65.12 131.351 65.32C131.504 65.5133 131.581 65.7867 131.581 66.14C131.581 66.4533 131.484 66.72 131.291 66.94C131.098 67.16 130.848 67.33 130.541 67.45C130.234 67.5633 129.908 67.62 129.561 67.62ZM133.438 61.6C133.271 61.6 133.125 61.54 132.998 61.42C132.878 61.2933 132.818 61.1433 132.818 60.97C132.818 60.7967 132.878 60.65 132.998 60.53C133.125 60.41 133.271 60.35 133.438 60.35C133.611 60.35 133.758 60.41 133.878 60.53C134.005 60.65 134.068 60.7967 134.068 60.97C134.068 61.1433 134.005 61.2933 133.878 61.42C133.758 61.54 133.611 61.6 133.438 61.6ZM133.018 67.5V63.21H132.328V62.54H133.858V67.5H133.018ZM135.061 67.5V66.76L137.911 63.28H135.151V62.54H138.861V63.28L136.011 66.76H138.961V67.5H135.061ZM142.071 67.62C141.551 67.62 141.111 67.5067 140.751 67.28C140.391 67.0467 140.114 66.7367 139.921 66.35C139.734 65.9567 139.641 65.5167 139.641 65.03C139.641 64.5033 139.747 64.05 139.961 63.67C140.174 63.2833 140.461 62.9867 140.821 62.78C141.187 62.5667 141.597 62.46 142.051 62.46C142.444 62.46 142.791 62.54 143.091 62.7C143.391 62.8533 143.637 63.0633 143.831 63.33C144.031 63.59 144.174 63.8867 144.261 64.22C144.354 64.5533 144.387 64.8967 144.361 65.25H140.541C140.554 65.6633 140.644 65.99 140.811 66.23C140.984 66.47 141.187 66.64 141.421 66.74C141.654 66.8333 141.871 66.88 142.071 66.88C142.351 66.88 142.584 66.8367 142.771 66.75C142.964 66.6567 143.117 66.5367 143.231 66.39L144.041 66.63C143.861 66.9167 143.604 67.1533 143.271 67.34C142.937 67.5267 142.537 67.62 142.071 67.62ZM140.551 64.58H143.471C143.471 64.3467 143.411 64.1233 143.291 63.91C143.177 63.6967 143.014 63.5233 142.801 63.39C142.594 63.25 142.344 63.18 142.051 63.18C141.804 63.18 141.571 63.2267 141.351 63.32C141.131 63.4133 140.947 63.5633 140.801 63.77C140.661 63.9767 140.577 64.2467 140.551 64.58ZM149.014 61.6C148.847 61.6 148.701 61.54 148.574 61.42C148.454 61.2933 148.394 61.1433 148.394 60.97C148.394 60.7967 148.454 60.65 148.574 60.53C148.701 60.41 148.847 60.35 149.014 60.35C149.187 60.35 149.334 60.41 149.454 60.53C149.581 60.65 149.644 60.7967 149.644 60.97C149.644 61.1433 149.581 61.2933 149.454 61.42C149.334 61.54 149.187 61.6 149.014 61.6ZM148.594 67.5V63.21H147.904V62.54H149.434V67.5H148.594ZM152.627 67.62C152.341 67.62 152.057 67.5767 151.777 67.49C151.504 67.3967 151.257 67.26 151.037 67.08C150.824 66.8933 150.661 66.66 150.547 66.38L151.357 66.08C151.431 66.3733 151.591 66.5867 151.837 66.72C152.091 66.8467 152.354 66.91 152.627 66.91C152.827 66.91 153.014 66.88 153.187 66.82C153.367 66.76 153.514 66.6733 153.627 66.56C153.741 66.4467 153.797 66.3167 153.797 66.17C153.797 65.8967 153.687 65.7033 153.467 65.59C153.254 65.4767 152.997 65.39 152.697 65.33L152.007 65.19C151.767 65.1367 151.544 65.0633 151.337 64.97C151.131 64.87 150.964 64.73 150.837 64.55C150.711 64.37 150.647 64.13 150.647 63.83C150.647 63.53 150.741 63.28 150.927 63.08C151.114 62.8733 151.351 62.7167 151.637 62.61C151.931 62.5033 152.237 62.45 152.557 62.45C152.951 62.45 153.321 62.5333 153.667 62.7C154.021 62.86 154.271 63.1133 154.417 63.46L153.627 63.75C153.541 63.55 153.387 63.4033 153.167 63.31C152.954 63.21 152.731 63.16 152.497 63.16C152.244 63.16 152.014 63.2167 151.807 63.33C151.601 63.4433 151.497 63.6067 151.497 63.82C151.497 64.0333 151.584 64.19 151.757 64.29C151.937 64.3833 152.157 64.4567 152.417 64.51L153.067 64.64C153.334 64.6933 153.587 64.77 153.827 64.87C154.067 64.97 154.264 65.12 154.417 65.32C154.571 65.5133 154.647 65.7867 154.647 66.14C154.647 66.4533 154.551 66.72 154.357 66.94C154.164 67.16 153.914 67.33 153.607 67.45C153.301 67.5633 152.974 67.62 152.627 67.62ZM160.557 67.62C160.037 67.62 159.597 67.5067 159.237 67.28C158.877 67.0467 158.6 66.7367 158.407 66.35C158.22 65.9567 158.127 65.5167 158.127 65.03C158.127 64.5033 158.234 64.05 158.447 63.67C158.66 63.2833 158.947 62.9867 159.307 62.78C159.674 62.5667 160.084 62.46 160.537 62.46C160.93 62.46 161.277 62.54 161.577 62.7C161.877 62.8533 162.124 63.0633 162.317 63.33C162.517 63.59 162.66 63.8867 162.747 64.22C162.84 64.5533 162.874 64.8967 162.847 65.25H159.027C159.04 65.6633 159.13 65.99 159.297 66.23C159.47 66.47 159.674 66.64 159.907 66.74C160.14 66.8333 160.357 66.88 160.557 66.88C160.837 66.88 161.07 66.8367 161.257 66.75C161.45 66.6567 161.604 66.5367 161.717 66.39L162.527 66.63C162.347 66.9167 162.09 67.1533 161.757 67.34C161.424 67.5267 161.024 67.62 160.557 67.62ZM159.037 64.58H161.957C161.957 64.3467 161.897 64.1233 161.777 63.91C161.664 63.6967 161.5 63.5233 161.287 63.39C161.08 63.25 160.83 63.18 160.537 63.18C160.29 63.18 160.057 63.2267 159.837 63.32C159.617 63.4133 159.434 63.5633 159.287 63.77C159.147 63.9767 159.064 64.2467 159.037 64.58ZM168.568 69.23C168.341 69.23 168.128 69.1867 167.928 69.1C167.728 69.0133 167.564 68.8633 167.438 68.65C167.318 68.4433 167.258 68.15 167.258 67.77V66.75C167.111 67.0167 166.901 67.23 166.628 67.39C166.361 67.5433 166.031 67.62 165.638 67.62C165.264 67.62 164.914 67.52 164.588 67.32C164.268 67.1133 164.008 66.8167 163.808 66.43C163.614 66.0433 163.518 65.58 163.518 65.04C163.518 64.4933 163.614 64.03 163.808 63.65C164.008 63.2633 164.268 62.97 164.588 62.77C164.914 62.5633 165.264 62.46 165.638 62.46C166.031 62.46 166.361 62.54 166.628 62.7C166.901 62.8533 167.111 63.06 167.258 63.32L167.488 62.54H168.098V67.74C168.098 67.92 168.151 68.08 168.258 68.22C168.371 68.3667 168.554 68.44 168.808 68.44C168.981 68.44 169.184 68.3967 169.418 68.31V69.09C169.291 69.13 169.154 69.1633 169.008 69.19C168.861 69.2167 168.714 69.23 168.568 69.23ZM165.868 66.9C166.294 66.9 166.634 66.7367 166.888 66.41C167.148 66.0833 167.278 65.6267 167.278 65.04C167.278 64.4467 167.148 63.99 166.888 63.67C166.634 63.3433 166.294 63.18 165.868 63.18C165.441 63.18 165.098 63.3433 164.838 63.67C164.578 63.99 164.448 64.4467 164.448 65.04C164.448 65.6267 164.578 66.0833 164.838 66.41C165.098 66.7367 165.441 66.9 165.868 66.9ZM171.169 67.62C170.783 67.62 170.473 67.54 170.239 67.38C170.006 67.2133 169.836 66.9867 169.729 66.7C169.629 66.4067 169.579 66.0733 169.579 65.7V62.53H170.419V65.5C170.419 65.8667 170.463 66.15 170.549 66.35C170.636 66.55 170.756 66.69 170.909 66.77C171.069 66.8433 171.253 66.88 171.459 66.88C171.853 66.88 172.159 66.7433 172.379 66.47C172.606 66.19 172.719 65.7867 172.719 65.26V62.53H173.559V67.5H172.929L172.719 66.78C172.579 67.02 172.389 67.22 172.149 67.38C171.909 67.54 171.583 67.62 171.169 67.62ZM176.351 67.62C176.037 67.62 175.751 67.5633 175.491 67.45C175.231 67.3367 175.024 67.1733 174.871 66.96C174.717 66.7467 174.641 66.49 174.641 66.19C174.641 65.7967 174.777 65.4867 175.051 65.26C175.331 65.0333 175.721 64.86 176.221 64.74C176.727 64.6133 177.317 64.5133 177.991 64.44C178.004 64.02 177.921 63.6967 177.741 63.47C177.561 63.2433 177.271 63.13 176.871 63.13C176.571 63.13 176.324 63.2 176.131 63.34C175.944 63.4733 175.824 63.66 175.771 63.9L174.961 63.66C175.094 63.28 175.331 62.9867 175.671 62.78C176.017 62.5667 176.414 62.46 176.861 62.46C177.547 62.46 178.047 62.6233 178.361 62.95C178.681 63.27 178.841 63.7767 178.841 64.47V65.63C178.841 66.0433 178.857 66.4 178.891 66.7C178.924 67 178.964 67.2667 179.011 67.5H178.241L178.041 66.82C177.894 67.0667 177.684 67.2633 177.411 67.41C177.137 67.55 176.784 67.62 176.351 67.62ZM176.531 66.95C176.791 66.95 177.037 66.9033 177.271 66.81C177.504 66.7167 177.694 66.56 177.841 66.34C177.987 66.1133 178.061 65.8067 178.061 65.42V65.11C177.554 65.1633 177.114 65.23 176.741 65.31C176.367 65.3833 176.077 65.49 175.871 65.63C175.671 65.7633 175.571 65.9433 175.571 66.17C175.571 66.4033 175.654 66.5933 175.821 66.74C175.994 66.88 176.231 66.95 176.531 66.95ZM181.394 67.5C181.081 67.5 180.838 67.47 180.664 67.41C180.498 67.3433 180.381 67.22 180.314 67.04C180.254 66.86 180.224 66.6 180.224 66.26V60.83H181.064V66.12C181.064 66.3733 181.091 66.5433 181.144 66.63C181.198 66.7167 181.341 66.76 181.574 66.76H181.764V67.5H181.394ZM186.93 67.5C186.616 67.5 186.373 67.47 186.2 67.41C186.033 67.3433 185.916 67.22 185.85 67.04C185.79 66.86 185.76 66.6 185.76 66.26V63.21H184.92V62.54H185.76V61.29H186.6V62.54H187.56V63.21H186.6V66.12C186.6 66.3733 186.623 66.5433 186.67 66.63C186.723 66.7167 186.87 66.76 187.11 66.76H187.56V67.5H186.93ZM190.722 67.62C190.435 67.62 190.152 67.57 189.872 67.47C189.592 67.37 189.335 67.2167 189.102 67.01C188.875 66.7967 188.692 66.5267 188.552 66.2C188.412 65.8733 188.342 65.4867 188.342 65.04C188.342 64.5933 188.412 64.2067 188.552 63.88C188.692 63.5533 188.875 63.2867 189.102 63.08C189.335 62.8667 189.592 62.71 189.872 62.61C190.152 62.51 190.435 62.46 190.722 62.46C191.009 62.46 191.292 62.51 191.572 62.61C191.859 62.71 192.115 62.8667 192.342 63.08C192.575 63.2867 192.759 63.5533 192.892 63.88C193.032 64.2067 193.102 64.5933 193.102 65.04C193.102 65.4867 193.032 65.8733 192.892 66.2C192.759 66.5267 192.575 66.7967 192.342 67.01C192.115 67.2167 191.859 67.37 191.572 67.47C191.292 67.57 191.009 67.62 190.722 67.62ZM190.722 66.88C190.962 66.88 191.195 66.8167 191.422 66.69C191.649 66.5567 191.835 66.3567 191.982 66.09C192.129 65.8167 192.202 65.4667 192.202 65.04C192.202 64.6133 192.129 64.2667 191.982 64C191.835 63.7267 191.649 63.5267 191.422 63.4C191.195 63.2667 190.962 63.2 190.722 63.2C190.489 63.2 190.255 63.2667 190.022 63.4C189.795 63.5267 189.609 63.7267 189.462 64C189.315 64.2667 189.242 64.6133 189.242 65.04C189.242 65.4667 189.315 65.8167 189.462 66.09C189.609 66.3567 189.795 66.5567 190.022 66.69C190.255 66.8167 190.489 66.88 190.722 66.88ZM198.492 67.5C198.179 67.5 197.936 67.47 197.762 67.41C197.596 67.3433 197.479 67.22 197.412 67.04C197.352 66.86 197.322 66.6 197.322 66.26V63.21H196.482V62.54H197.322V61.29H198.162V62.54H199.122V63.21H198.162V66.12C198.162 66.3733 198.186 66.5433 198.232 66.63C198.286 66.7167 198.432 66.76 198.672 66.76H199.122V67.5H198.492ZM200.224 67.5V60.82H201.064V63.29C201.204 63.0567 201.401 62.86 201.654 62.7C201.908 62.54 202.244 62.46 202.664 62.46C203.264 62.46 203.688 62.6367 203.934 62.99C204.181 63.3367 204.304 63.7933 204.304 64.36V67.5H203.464V64.61C203.464 64.3567 203.441 64.1233 203.394 63.91C203.348 63.69 203.244 63.5133 203.084 63.38C202.931 63.2467 202.694 63.18 202.374 63.18C201.968 63.18 201.648 63.32 201.414 63.6C201.181 63.8733 201.064 64.2767 201.064 64.81V67.5H200.224ZM207.686 67.62C207.166 67.62 206.726 67.5067 206.366 67.28C206.006 67.0467 205.729 66.7367 205.536 66.35C205.349 65.9567 205.256 65.5167 205.256 65.03C205.256 64.5033 205.363 64.05 205.576 63.67C205.789 63.2833 206.076 62.9867 206.436 62.78C206.803 62.5667 207.213 62.46 207.666 62.46C208.059 62.46 208.406 62.54 208.706 62.7C209.006 62.8533 209.253 63.0633 209.446 63.33C209.646 63.59 209.789 63.8867 209.876 64.22C209.969 64.5533 210.003 64.8967 209.976 65.25H206.156C206.169 65.6633 206.259 65.99 206.426 66.23C206.599 66.47 206.803 66.64 207.036 66.74C207.269 66.8333 207.486 66.88 207.686 66.88C207.966 66.88 208.199 66.8367 208.386 66.75C208.579 66.6567 208.733 66.5367 208.846 66.39L209.656 66.63C209.476 66.9167 209.219 67.1533 208.886 67.34C208.553 67.5267 208.153 67.62 207.686 67.62ZM206.166 64.58H209.086C209.086 64.3467 209.026 64.1233 208.906 63.91C208.793 63.6967 208.629 63.5233 208.416 63.39C208.209 63.25 207.959 63.18 207.666 63.18C207.419 63.18 207.186 63.2267 206.966 63.32C206.746 63.4133 206.563 63.5633 206.416 63.77C206.276 63.9767 206.193 64.2467 206.166 64.58ZM213.769 67.5V62.54H214.379L214.649 63.46C214.823 63.16 215.056 62.92 215.349 62.74C215.649 62.5533 216.006 62.46 216.419 62.46V63.33C216.373 63.33 216.323 63.33 216.269 63.33C216.223 63.33 216.176 63.3333 216.129 63.34C215.563 63.3867 215.166 63.5833 214.939 63.93C214.719 64.2767 214.609 64.7567 214.609 65.37V67.5H213.769ZM219.278 67.62C218.758 67.62 218.318 67.5067 217.958 67.28C217.598 67.0467 217.321 66.7367 217.128 66.35C216.941 65.9567 216.848 65.5167 216.848 65.03C216.848 64.5033 216.954 64.05 217.168 63.67C217.381 63.2833 217.668 62.9867 218.028 62.78C218.394 62.5667 218.804 62.46 219.258 62.46C219.651 62.46 219.998 62.54 220.298 62.7C220.598 62.8533 220.844 63.0633 221.038 63.33C221.238 63.59 221.381 63.8867 221.468 64.22C221.561 64.5533 221.594 64.8967 221.568 65.25H217.748C217.761 65.6633 217.851 65.99 218.018 66.23C218.191 66.47 218.394 66.64 218.628 66.74C218.861 66.8333 219.078 66.88 219.278 66.88C219.558 66.88 219.791 66.8367 219.978 66.75C220.171 66.6567 220.324 66.5367 220.438 66.39L221.248 66.63C221.068 66.9167 220.811 67.1533 220.478 67.34C220.144 67.5267 219.744 67.62 219.278 67.62ZM217.758 64.58H220.678C220.678 64.3467 220.618 64.1233 220.498 63.91C220.384 63.6967 220.221 63.5233 220.008 63.39C219.801 63.25 219.551 63.18 219.258 63.18C219.011 63.18 218.778 63.2267 218.558 63.32C218.338 63.4133 218.154 63.5633 218.008 63.77C217.868 63.9767 217.784 64.2467 217.758 64.58ZM223.728 67.5C223.415 67.5 223.172 67.47 222.998 67.41C222.832 67.3433 222.715 67.22 222.648 67.04C222.588 66.86 222.558 66.6 222.558 66.26V60.83H223.398V66.12C223.398 66.3733 223.425 66.5433 223.478 66.63C223.532 66.7167 223.675 66.76 223.908 66.76H224.098V67.5H223.728ZM226.341 67.62C226.028 67.62 225.741 67.5633 225.481 67.45C225.221 67.3367 225.014 67.1733 224.861 66.96C224.708 66.7467 224.631 66.49 224.631 66.19C224.631 65.7967 224.768 65.4867 225.041 65.26C225.321 65.0333 225.711 64.86 226.211 64.74C226.718 64.6133 227.308 64.5133 227.981 64.44C227.994 64.02 227.911 63.6967 227.731 63.47C227.551 63.2433 227.261 63.13 226.861 63.13C226.561 63.13 226.314 63.2 226.121 63.34C225.934 63.4733 225.814 63.66 225.761 63.9L224.951 63.66C225.084 63.28 225.321 62.9867 225.661 62.78C226.008 62.5667 226.404 62.46 226.851 62.46C227.538 62.46 228.038 62.6233 228.351 62.95C228.671 63.27 228.831 63.7767 228.831 64.47V65.63C228.831 66.0433 228.848 66.4 228.881 66.7C228.914 67 228.954 67.2667 229.001 67.5H228.231L228.031 66.82C227.884 67.0667 227.674 67.2633 227.401 67.41C227.128 67.55 226.774 67.62 226.341 67.62ZM226.521 66.95C226.781 66.95 227.028 66.9033 227.261 66.81C227.494 66.7167 227.684 66.56 227.831 66.34C227.978 66.1133 228.051 65.8067 228.051 65.42V65.11C227.544 65.1633 227.104 65.23 226.731 65.31C226.358 65.3833 226.068 65.49 225.861 65.63C225.661 65.7633 225.561 65.9433 225.561 66.17C225.561 66.4033 225.644 66.5933 225.811 66.74C225.984 66.88 226.221 66.95 226.521 66.95ZM231.725 67.5C231.411 67.5 231.168 67.47 230.995 67.41C230.828 67.3433 230.711 67.22 230.645 67.04C230.585 66.86 230.555 66.6 230.555 66.26V63.21H229.715V62.54H230.555V61.29H231.395V62.54H232.355V63.21H231.395V66.12C231.395 66.3733 231.418 66.5433 231.465 66.63C231.518 66.7167 231.665 66.76 231.905 66.76H232.355V67.5H231.725ZM234.317 61.6C234.15 61.6 234.004 61.54 233.877 61.42C233.757 61.2933 233.697 61.1433 233.697 60.97C233.697 60.7967 233.757 60.65 233.877 60.53C234.004 60.41 234.15 60.35 234.317 60.35C234.49 60.35 234.637 60.41 234.757 60.53C234.884 60.65 234.947 60.7967 234.947 60.97C234.947 61.1433 234.884 61.2933 234.757 61.42C234.637 61.54 234.49 61.6 234.317 61.6ZM233.897 67.5V63.21H233.207V62.54H234.737V67.5H233.897ZM237.31 67.5L235.54 62.54H236.45L237.75 66.4L239.04 62.54H239.95L238.18 67.5H237.31ZM242.764 67.62C242.244 67.62 241.804 67.5067 241.444 67.28C241.084 67.0467 240.807 66.7367 240.614 66.35C240.427 65.9567 240.334 65.5167 240.334 65.03C240.334 64.5033 240.441 64.05 240.654 63.67C240.867 63.2833 241.154 62.9867 241.514 62.78C241.881 62.5667 242.291 62.46 242.744 62.46C243.137 62.46 243.484 62.54 243.784 62.7C244.084 62.8533 244.331 63.0633 244.524 63.33C244.724 63.59 244.867 63.8867 244.954 64.22C245.047 64.5533 245.081 64.8967 245.054 65.25H241.234C241.247 65.6633 241.337 65.99 241.504 66.23C241.677 66.47 241.881 66.64 242.114 66.74C242.347 66.8333 242.564 66.88 242.764 66.88C243.044 66.88 243.277 66.8367 243.464 66.75C243.657 66.6567 243.811 66.5367 243.924 66.39L244.734 66.63C244.554 66.9167 244.297 67.1533 243.964 67.34C243.631 67.5267 243.231 67.62 242.764 67.62ZM241.244 64.58H244.164C244.164 64.3467 244.104 64.1233 243.984 63.91C243.871 63.6967 243.707 63.5233 243.494 63.39C243.287 63.25 243.037 63.18 242.744 63.18C242.497 63.18 242.264 63.2267 242.044 63.32C241.824 63.4133 241.641 63.5633 241.494 63.77C241.354 63.9767 241.271 64.2467 241.244 64.58ZM120.796 79.62C120.51 79.62 120.226 79.5767 119.946 79.49C119.673 79.3967 119.426 79.26 119.206 79.08C118.993 78.8933 118.83 78.66 118.716 78.38L119.526 78.08C119.6 78.3733 119.76 78.5867 120.006 78.72C120.26 78.8467 120.523 78.91 120.796 78.91C120.996 78.91 121.183 78.88 121.356 78.82C121.536 78.76 121.683 78.6733 121.796 78.56C121.91 78.4467 121.966 78.3167 121.966 78.17C121.966 77.8967 121.856 77.7033 121.636 77.59C121.423 77.4767 121.166 77.39 120.866 77.33L120.176 77.19C119.936 77.1367 119.713 77.0633 119.506 76.97C119.3 76.87 119.133 76.73 119.006 76.55C118.88 76.37 118.816 76.13 118.816 75.83C118.816 75.53 118.91 75.28 119.096 75.08C119.283 74.8733 119.52 74.7167 119.806 74.61C120.1 74.5033 120.406 74.45 120.726 74.45C121.12 74.45 121.49 74.5333 121.836 74.7C122.19 74.86 122.44 75.1133 122.586 75.46L121.796 75.75C121.71 75.55 121.556 75.4033 121.336 75.31C121.123 75.21 120.9 75.16 120.666 75.16C120.413 75.16 120.183 75.2167 119.976 75.33C119.77 75.4433 119.666 75.6067 119.666 75.82C119.666 76.0333 119.753 76.19 119.926 76.29C120.106 76.3833 120.326 76.4567 120.586 76.51L121.236 76.64C121.503 76.6933 121.756 76.77 121.996 76.87C122.236 76.97 122.433 77.12 122.586 77.32C122.74 77.5133 122.816 77.7867 122.816 78.14C122.816 78.4533 122.72 78.72 122.526 78.94C122.333 79.16 122.083 79.33 121.776 79.45C121.47 79.5633 121.143 79.62 120.796 79.62ZM123.813 79.5V72.82H124.653V75.29C124.793 75.0567 124.99 74.86 125.243 74.7C125.497 74.54 125.833 74.46 126.253 74.46C126.853 74.46 127.277 74.6367 127.523 74.99C127.77 75.3367 127.893 75.7933 127.893 76.36V79.5H127.053V76.61C127.053 76.3567 127.03 76.1233 126.983 75.91C126.937 75.69 126.833 75.5133 126.673 75.38C126.52 75.2467 126.283 75.18 125.963 75.18C125.557 75.18 125.237 75.32 125.003 75.6C124.77 75.8733 124.653 76.2767 124.653 76.81V79.5H123.813ZM130.662 79.62C130.349 79.62 130.062 79.5633 129.802 79.45C129.542 79.3367 129.336 79.1733 129.182 78.96C129.029 78.7467 128.952 78.49 128.952 78.19C128.952 77.7967 129.089 77.4867 129.362 77.26C129.642 77.0333 130.032 76.86 130.532 76.74C131.039 76.6133 131.629 76.5133 132.302 76.44C132.316 76.02 132.232 75.6967 132.052 75.47C131.872 75.2433 131.582 75.13 131.182 75.13C130.882 75.13 130.636 75.2 130.442 75.34C130.256 75.4733 130.136 75.66 130.082 75.9L129.272 75.66C129.406 75.28 129.642 74.9867 129.982 74.78C130.329 74.5667 130.726 74.46 131.172 74.46C131.859 74.46 132.359 74.6233 132.672 74.95C132.992 75.27 133.152 75.7767 133.152 76.47V77.63C133.152 78.0433 133.169 78.4 133.202 78.7C133.236 79 133.276 79.2667 133.322 79.5H132.552L132.352 78.82C132.206 79.0667 131.996 79.2633 131.722 79.41C131.449 79.55 131.096 79.62 130.662 79.62ZM130.842 78.95C131.102 78.95 131.349 78.9033 131.582 78.81C131.816 78.7167 132.006 78.56 132.152 78.34C132.299 78.1133 132.372 77.8067 132.372 77.42V77.11C131.866 77.1633 131.426 77.23 131.052 77.31C130.679 77.3833 130.389 77.49 130.182 77.63C129.982 77.7633 129.882 77.9433 129.882 78.17C129.882 78.4033 129.966 78.5933 130.132 78.74C130.306 78.88 130.542 78.95 130.842 78.95ZM134.536 79.5V74.54H135.146L135.416 75.46C135.589 75.16 135.823 74.92 136.116 74.74C136.416 74.5533 136.773 74.46 137.186 74.46V75.33C137.139 75.33 137.089 75.33 137.036 75.33C136.989 75.33 136.943 75.3333 136.896 75.34C136.329 75.3867 135.933 75.5833 135.706 75.93C135.486 76.2767 135.376 76.7567 135.376 77.37V79.5H134.536ZM140.044 79.62C139.524 79.62 139.084 79.5067 138.724 79.28C138.364 79.0467 138.088 78.7367 137.894 78.35C137.708 77.9567 137.614 77.5167 137.614 77.03C137.614 76.5033 137.721 76.05 137.934 75.67C138.148 75.2833 138.434 74.9867 138.794 74.78C139.161 74.5667 139.571 74.46 140.024 74.46C140.418 74.46 140.764 74.54 141.064 74.7C141.364 74.8533 141.611 75.0633 141.804 75.33C142.004 75.59 142.148 75.8867 142.234 76.22C142.328 76.5533 142.361 76.8967 142.334 77.25H138.514C138.528 77.6633 138.618 77.99 138.784 78.23C138.958 78.47 139.161 78.64 139.394 78.74C139.628 78.8333 139.844 78.88 140.044 78.88C140.324 78.88 140.558 78.8367 140.744 78.75C140.938 78.6567 141.091 78.5367 141.204 78.39L142.014 78.63C141.834 78.9167 141.578 79.1533 141.244 79.34C140.911 79.5267 140.511 79.62 140.044 79.62ZM138.524 76.58H141.444C141.444 76.3467 141.384 76.1233 141.264 75.91C141.151 75.6967 140.988 75.5233 140.774 75.39C140.568 75.25 140.318 75.18 140.024 75.18C139.778 75.18 139.544 75.2267 139.324 75.32C139.104 75.4133 138.921 75.5633 138.774 75.77C138.634 75.9767 138.551 76.2467 138.524 76.58ZM148.188 79.62C147.901 79.62 147.618 79.57 147.338 79.47C147.058 79.37 146.801 79.2167 146.568 79.01C146.341 78.7967 146.158 78.5267 146.018 78.2C145.878 77.8733 145.808 77.4867 145.808 77.04C145.808 76.5933 145.878 76.2067 146.018 75.88C146.158 75.5533 146.341 75.2867 146.568 75.08C146.801 74.8667 147.058 74.71 147.338 74.61C147.618 74.51 147.901 74.46 148.188 74.46C148.474 74.46 148.758 74.51 149.038 74.61C149.324 74.71 149.581 74.8667 149.808 75.08C150.041 75.2867 150.224 75.5533 150.358 75.88C150.498 76.2067 150.568 76.5933 150.568 77.04C150.568 77.4867 150.498 77.8733 150.358 78.2C150.224 78.5267 150.041 78.7967 149.808 79.01C149.581 79.2167 149.324 79.37 149.038 79.47C148.758 79.57 148.474 79.62 148.188 79.62ZM148.188 78.88C148.428 78.88 148.661 78.8167 148.888 78.69C149.114 78.5567 149.301 78.3567 149.448 78.09C149.594 77.8167 149.668 77.4667 149.668 77.04C149.668 76.6133 149.594 76.2667 149.448 76C149.301 75.7267 149.114 75.5267 148.888 75.4C148.661 75.2667 148.428 75.2 148.188 75.2C147.954 75.2 147.721 75.2667 147.488 75.4C147.261 75.5267 147.074 75.7267 146.928 76C146.781 76.2667 146.708 76.6133 146.708 77.04C146.708 77.4667 146.781 77.8167 146.928 78.09C147.074 78.3567 147.261 78.5567 147.488 78.69C147.721 78.8167 147.954 78.88 148.188 78.88ZM151.935 79.5V75.21H151.095V74.54H151.935V73.8C151.935 73.46 151.969 73.19 152.035 72.99C152.102 72.79 152.232 72.65 152.425 72.57C152.619 72.4833 152.899 72.44 153.265 72.44H153.805V73.15H153.285C153.072 73.15 152.932 73.1933 152.865 73.28C152.805 73.3667 152.775 73.5367 152.775 73.79V74.54H153.805V75.21H152.775V79.5H151.935ZM159.064 79.5C158.75 79.5 158.507 79.47 158.334 79.41C158.167 79.3433 158.05 79.22 157.984 79.04C157.924 78.86 157.894 78.6 157.894 78.26V75.21H157.054V74.54H157.894V73.29H158.734V74.54H159.694V75.21H158.734V78.12C158.734 78.3733 158.757 78.5433 158.804 78.63C158.857 78.7167 159.004 78.76 159.244 78.76H159.694V79.5H159.064ZM160.796 79.5V72.82H161.636V75.29C161.776 75.0567 161.972 74.86 162.226 74.7C162.479 74.54 162.816 74.46 163.236 74.46C163.836 74.46 164.259 74.6367 164.506 74.99C164.752 75.3367 164.876 75.7933 164.876 76.36V79.5H164.036V76.61C164.036 76.3567 164.012 76.1233 163.966 75.91C163.919 75.69 163.816 75.5133 163.656 75.38C163.502 75.2467 163.266 75.18 162.946 75.18C162.539 75.18 162.219 75.32 161.986 75.6C161.752 75.8733 161.636 76.2767 161.636 76.81V79.5H160.796ZM168.257 79.62C167.737 79.62 167.297 79.5067 166.937 79.28C166.577 79.0467 166.301 78.7367 166.107 78.35C165.921 77.9567 165.827 77.5167 165.827 77.03C165.827 76.5033 165.934 76.05 166.147 75.67C166.361 75.2833 166.647 74.9867 167.007 74.78C167.374 74.5667 167.784 74.46 168.237 74.46C168.631 74.46 168.977 74.54 169.277 74.7C169.577 74.8533 169.824 75.0633 170.017 75.33C170.217 75.59 170.361 75.8867 170.447 76.22C170.541 76.5533 170.574 76.8967 170.547 77.25H166.727C166.741 77.6633 166.831 77.99 166.997 78.23C167.171 78.47 167.374 78.64 167.607 78.74C167.841 78.8333 168.057 78.88 168.257 78.88C168.537 78.88 168.771 78.8367 168.957 78.75C169.151 78.6567 169.304 78.5367 169.417 78.39L170.227 78.63C170.047 78.9167 169.791 79.1533 169.457 79.34C169.124 79.5267 168.724 79.62 168.257 79.62ZM166.737 76.58H169.657C169.657 76.3467 169.597 76.1233 169.477 75.91C169.364 75.6967 169.201 75.5233 168.987 75.39C168.781 75.25 168.531 75.18 168.237 75.18C167.991 75.18 167.757 75.2267 167.537 75.32C167.317 75.4133 167.134 75.5633 166.987 75.77C166.847 75.9767 166.764 76.2467 166.737 76.58ZM176.151 79.62C175.777 79.62 175.427 79.52 175.101 79.32C174.774 79.1133 174.511 78.82 174.311 78.44C174.117 78.0533 174.021 77.5867 174.021 77.04C174.021 76.4933 174.117 76.03 174.311 75.65C174.511 75.2633 174.774 74.97 175.101 74.77C175.427 74.5633 175.777 74.46 176.151 74.46C176.544 74.46 176.874 74.54 177.141 74.7C177.407 74.8533 177.614 75.06 177.761 75.32V72.82H178.601V77.63C178.601 77.7967 178.607 78.0433 178.621 78.37C178.634 78.69 178.684 79.0667 178.771 79.5H177.981L177.761 78.75C177.614 79.0167 177.407 79.23 177.141 79.39C176.874 79.5433 176.544 79.62 176.151 79.62ZM176.371 78.9C176.797 78.9 177.137 78.7367 177.391 78.41C177.651 78.0833 177.781 77.6267 177.781 77.04C177.781 76.4467 177.651 75.99 177.391 75.67C177.137 75.3433 176.797 75.18 176.371 75.18C175.944 75.18 175.601 75.3433 175.341 75.67C175.087 75.99 174.961 76.4467 174.961 77.04C174.961 77.6267 175.087 78.0833 175.341 78.41C175.601 78.7367 175.944 78.9 176.371 78.9ZM182.095 79.62C181.575 79.62 181.135 79.5067 180.775 79.28C180.415 79.0467 180.138 78.7367 179.945 78.35C179.758 77.9567 179.665 77.5167 179.665 77.03C179.665 76.5033 179.772 76.05 179.985 75.67C180.198 75.2833 180.485 74.9867 180.845 74.78C181.212 74.5667 181.622 74.46 182.075 74.46C182.468 74.46 182.815 74.54 183.115 74.7C183.415 74.8533 183.662 75.0633 183.855 75.33C184.055 75.59 184.198 75.8867 184.285 76.22C184.378 76.5533 184.412 76.8967 184.385 77.25H180.565C180.578 77.6633 180.668 77.99 180.835 78.23C181.008 78.47 181.212 78.64 181.445 78.74C181.678 78.8333 181.895 78.88 182.095 78.88C182.375 78.88 182.608 78.8367 182.795 78.75C182.988 78.6567 183.142 78.5367 183.255 78.39L184.065 78.63C183.885 78.9167 183.628 79.1533 183.295 79.34C182.962 79.5267 182.562 79.62 182.095 79.62ZM180.575 76.58H183.495C183.495 76.3467 183.435 76.1233 183.315 75.91C183.202 75.6967 183.038 75.5233 182.825 75.39C182.618 75.25 182.368 75.18 182.075 75.18C181.828 75.18 181.595 75.2267 181.375 75.32C181.155 75.4133 180.972 75.5633 180.825 75.77C180.685 75.9767 180.602 76.2467 180.575 76.58ZM186.886 79.5C186.572 79.5 186.329 79.47 186.156 79.41C185.989 79.3433 185.872 79.22 185.806 79.04C185.746 78.86 185.716 78.6 185.716 78.26V75.21H184.876V74.54H185.716V73.29H186.556V74.54H187.516V75.21H186.556V78.12C186.556 78.3733 186.579 78.5433 186.626 78.63C186.679 78.7167 186.826 78.76 187.066 78.76H187.516V79.5H186.886ZM190.728 79.62C190.208 79.62 189.768 79.5067 189.408 79.28C189.048 79.0467 188.771 78.7367 188.578 78.35C188.391 77.9567 188.298 77.5167 188.298 77.03C188.298 76.5033 188.405 76.05 188.618 75.67C188.831 75.2833 189.118 74.9867 189.478 74.78C189.845 74.5667 190.255 74.46 190.708 74.46C191.101 74.46 191.448 74.54 191.748 74.7C192.048 74.8533 192.295 75.0633 192.488 75.33C192.688 75.59 192.831 75.8867 192.918 76.22C193.011 76.5533 193.045 76.8967 193.018 77.25H189.198C189.211 77.6633 189.301 77.99 189.468 78.23C189.641 78.47 189.845 78.64 190.078 78.74C190.311 78.8333 190.528 78.88 190.728 78.88C191.008 78.88 191.241 78.8367 191.428 78.75C191.621 78.6567 191.775 78.5367 191.888 78.39L192.698 78.63C192.518 78.9167 192.261 79.1533 191.928 79.34C191.595 79.5267 191.195 79.62 190.728 79.62ZM189.208 76.58H192.128C192.128 76.3467 192.068 76.1233 191.948 75.91C191.835 75.6967 191.671 75.5233 191.458 75.39C191.251 75.25 191.001 75.18 190.708 75.18C190.461 75.18 190.228 75.2267 190.008 75.32C189.788 75.4133 189.605 75.5633 189.458 75.77C189.318 75.9767 189.235 76.2467 189.208 76.58ZM195.999 79.62C195.525 79.62 195.115 79.51 194.769 79.29C194.422 79.0633 194.155 78.7567 193.969 78.37C193.782 77.9833 193.689 77.54 193.689 77.04C193.689 76.5467 193.785 76.1067 193.979 75.72C194.179 75.3267 194.459 75.02 194.819 74.8C195.179 74.5733 195.602 74.46 196.089 74.46C196.535 74.46 196.919 74.57 197.239 74.79C197.559 75.01 197.799 75.2733 197.959 75.58L197.189 75.86C197.082 75.66 196.925 75.5 196.719 75.38C196.512 75.26 196.282 75.2 196.029 75.2C195.782 75.2 195.549 75.2667 195.329 75.4C195.109 75.5267 194.932 75.7267 194.799 76C194.665 76.2667 194.599 76.61 194.599 77.03C194.599 77.4433 194.665 77.79 194.799 78.07C194.939 78.3433 195.115 78.5467 195.329 78.68C195.549 78.8133 195.782 78.88 196.029 78.88C196.302 78.88 196.539 78.82 196.739 78.7C196.945 78.5733 197.102 78.4167 197.209 78.23L197.979 78.51C197.792 78.83 197.525 79.0967 197.179 79.31C196.832 79.5167 196.439 79.62 195.999 79.62ZM200.519 79.5C200.205 79.5 199.962 79.47 199.789 79.41C199.622 79.3433 199.505 79.22 199.439 79.04C199.379 78.86 199.349 78.6 199.349 78.26V75.21H198.509V74.54H199.349V73.29H200.189V74.54H201.149V75.21H200.189V78.12C200.189 78.3733 200.212 78.5433 200.259 78.63C200.312 78.7167 200.459 78.76 200.699 78.76H201.149V79.5H200.519ZM204.361 79.62C203.841 79.62 203.401 79.5067 203.041 79.28C202.681 79.0467 202.404 78.7367 202.211 78.35C202.024 77.9567 201.931 77.5167 201.931 77.03C201.931 76.5033 202.037 76.05 202.251 75.67C202.464 75.2833 202.751 74.9867 203.111 74.78C203.477 74.5667 203.887 74.46 204.341 74.46C204.734 74.46 205.081 74.54 205.381 74.7C205.681 74.8533 205.927 75.0633 206.121 75.33C206.321 75.59 206.464 75.8867 206.551 76.22C206.644 76.5533 206.677 76.8967 206.651 77.25H202.831C202.844 77.6633 202.934 77.99 203.101 78.23C203.274 78.47 203.477 78.64 203.711 78.74C203.944 78.8333 204.161 78.88 204.361 78.88C204.641 78.88 204.874 78.8367 205.061 78.75C205.254 78.6567 205.407 78.5367 205.521 78.39L206.331 78.63C206.151 78.9167 205.894 79.1533 205.561 79.34C205.227 79.5267 204.827 79.62 204.361 79.62ZM202.841 76.58H205.761C205.761 76.3467 205.701 76.1233 205.581 75.91C205.467 75.6967 205.304 75.5233 205.091 75.39C204.884 75.25 204.634 75.18 204.341 75.18C204.094 75.18 203.861 75.2267 203.641 75.32C203.421 75.4133 203.237 75.5633 203.091 75.77C202.951 75.9767 202.867 76.2467 202.841 76.58ZM209.451 79.62C209.078 79.62 208.728 79.52 208.401 79.32C208.075 79.1133 207.811 78.82 207.611 78.44C207.418 78.0533 207.321 77.5867 207.321 77.04C207.321 76.4933 207.418 76.03 207.611 75.65C207.811 75.2633 208.075 74.97 208.401 74.77C208.728 74.5633 209.078 74.46 209.451 74.46C209.845 74.46 210.175 74.54 210.441 74.7C210.708 74.8533 210.915 75.06 211.061 75.32V72.82H211.901V77.63C211.901 77.7967 211.908 78.0433 211.921 78.37C211.935 78.69 211.985 79.0667 212.071 79.5H211.281L211.061 78.75C210.915 79.0167 210.708 79.23 210.441 79.39C210.175 79.5433 209.845 79.62 209.451 79.62ZM209.671 78.9C210.098 78.9 210.438 78.7367 210.691 78.41C210.951 78.0833 211.081 77.6267 211.081 77.04C211.081 76.4467 210.951 75.99 210.691 75.67C210.438 75.3433 210.098 75.18 209.671 75.18C209.245 75.18 208.901 75.3433 208.641 75.67C208.388 75.99 208.261 76.4467 208.261 77.04C208.261 77.6267 208.388 78.0833 208.641 78.41C208.901 78.7367 209.245 78.9 209.671 78.9ZM216.379 79.5V75.21H215.539V74.54H216.379V73.8C216.379 73.46 216.412 73.19 216.479 72.99C216.545 72.79 216.675 72.65 216.869 72.57C217.062 72.4833 217.342 72.44 217.709 72.44H218.249V73.15H217.729C217.515 73.15 217.375 73.1933 217.309 73.28C217.249 73.3667 217.219 73.5367 217.219 73.79V74.54H218.249V75.21H217.219V79.5H216.379ZM220.272 79.62C219.958 79.62 219.672 79.5633 219.412 79.45C219.152 79.3367 218.945 79.1733 218.792 78.96C218.638 78.7467 218.562 78.49 218.562 78.19C218.562 77.7967 218.698 77.4867 218.972 77.26C219.252 77.0333 219.642 76.86 220.142 76.74C220.648 76.6133 221.238 76.5133 221.912 76.44C221.925 76.02 221.842 75.6967 221.662 75.47C221.482 75.2433 221.192 75.13 220.792 75.13C220.492 75.13 220.245 75.2 220.052 75.34C219.865 75.4733 219.745 75.66 219.692 75.9L218.882 75.66C219.015 75.28 219.252 74.9867 219.592 74.78C219.938 74.5667 220.335 74.46 220.782 74.46C221.468 74.46 221.968 74.6233 222.282 74.95C222.602 75.27 222.762 75.7767 222.762 76.47V77.63C222.762 78.0433 222.778 78.4 222.812 78.7C222.845 79 222.885 79.2667 222.932 79.5H222.162L221.962 78.82C221.815 79.0667 221.605 79.2633 221.332 79.41C221.058 79.55 220.705 79.62 220.272 79.62ZM220.452 78.95C220.712 78.95 220.958 78.9033 221.192 78.81C221.425 78.7167 221.615 78.56 221.762 78.34C221.908 78.1133 221.982 77.8067 221.982 77.42V77.11C221.475 77.1633 221.035 77.23 220.662 77.31C220.288 77.3833 219.998 77.49 219.792 77.63C219.592 77.7633 219.492 77.9433 219.492 78.17C219.492 78.4033 219.575 78.5933 219.742 78.74C219.915 78.88 220.152 78.95 220.452 78.95ZM226.135 79.62C225.662 79.62 225.252 79.51 224.905 79.29C224.559 79.0633 224.292 78.7567 224.105 78.37C223.919 77.9833 223.825 77.54 223.825 77.04C223.825 76.5467 223.922 76.1067 224.115 75.72C224.315 75.3267 224.595 75.02 224.955 74.8C225.315 74.5733 225.739 74.46 226.225 74.46C226.672 74.46 227.055 74.57 227.375 74.79C227.695 75.01 227.935 75.2733 228.095 75.58L227.325 75.86C227.219 75.66 227.062 75.5 226.855 75.38C226.649 75.26 226.419 75.2 226.165 75.2C225.919 75.2 225.685 75.2667 225.465 75.4C225.245 75.5267 225.069 75.7267 224.935 76C224.802 76.2667 224.735 76.61 224.735 77.03C224.735 77.4433 224.802 77.79 224.935 78.07C225.075 78.3433 225.252 78.5467 225.465 78.68C225.685 78.8133 225.919 78.88 226.165 78.88C226.439 78.88 226.675 78.82 226.875 78.7C227.082 78.5733 227.239 78.4167 227.345 78.23L228.115 78.51C227.929 78.83 227.662 79.0967 227.315 79.31C226.969 79.5167 226.575 79.62 226.135 79.62ZM231.255 79.62C230.735 79.62 230.295 79.5067 229.935 79.28C229.575 79.0467 229.299 78.7367 229.105 78.35C228.919 77.9567 228.825 77.5167 228.825 77.03C228.825 76.5033 228.932 76.05 229.145 75.67C229.359 75.2833 229.645 74.9867 230.005 74.78C230.372 74.5667 230.782 74.46 231.235 74.46C231.629 74.46 231.975 74.54 232.275 74.7C232.575 74.8533 232.822 75.0633 233.015 75.33C233.215 75.59 233.359 75.8867 233.445 76.22C233.539 76.5533 233.572 76.8967 233.545 77.25H229.725C229.739 77.6633 229.829 77.99 229.995 78.23C230.169 78.47 230.372 78.64 230.605 78.74C230.839 78.8333 231.055 78.88 231.255 78.88C231.535 78.88 231.769 78.8367 231.955 78.75C232.149 78.6567 232.302 78.5367 232.415 78.39L233.225 78.63C233.045 78.9167 232.789 79.1533 232.455 79.34C232.122 79.5267 231.722 79.62 231.255 79.62ZM229.735 76.58H232.655C232.655 76.3467 232.595 76.1233 232.475 75.91C232.362 75.6967 232.199 75.5233 231.985 75.39C231.779 75.25 231.529 75.18 231.235 75.18C230.989 75.18 230.755 75.2267 230.535 75.32C230.315 75.4133 230.132 75.5633 229.985 75.77C229.845 75.9767 229.762 76.2467 229.735 76.58ZM236.226 79.62C235.939 79.62 235.656 79.5767 235.376 79.49C235.103 79.3967 234.856 79.26 234.636 79.08C234.423 78.8933 234.259 78.66 234.146 78.38L234.956 78.08C235.029 78.3733 235.189 78.5867 235.436 78.72C235.689 78.8467 235.953 78.91 236.226 78.91C236.426 78.91 236.613 78.88 236.786 78.82C236.966 78.76 237.113 78.6733 237.226 78.56C237.339 78.4467 237.396 78.3167 237.396 78.17C237.396 77.8967 237.286 77.7033 237.066 77.59C236.853 77.4767 236.596 77.39 236.296 77.33L235.606 77.19C235.366 77.1367 235.143 77.0633 234.936 76.97C234.729 76.87 234.563 76.73 234.436 76.55C234.309 76.37 234.246 76.13 234.246 75.83C234.246 75.53 234.339 75.28 234.526 75.08C234.713 74.8733 234.949 74.7167 235.236 74.61C235.529 74.5033 235.836 74.45 236.156 74.45C236.549 74.45 236.919 74.5333 237.266 74.7C237.619 74.86 237.869 75.1133 238.016 75.46L237.226 75.75C237.139 75.55 236.986 75.4033 236.766 75.31C236.553 75.21 236.329 75.16 236.096 75.16C235.843 75.16 235.613 75.2167 235.406 75.33C235.199 75.4433 235.096 75.6067 235.096 75.82C235.096 76.0333 235.183 76.19 235.356 76.29C235.536 76.3833 235.756 76.4567 236.016 76.51L236.666 76.64C236.933 76.6933 237.186 76.77 237.426 76.87C237.666 76.97 237.863 77.12 238.016 77.32C238.169 77.5133 238.246 77.7867 238.246 78.14C238.246 78.4533 238.149 78.72 237.956 78.94C237.763 79.16 237.513 79.33 237.206 79.45C236.899 79.5633 236.573 79.62 236.226 79.62ZM239.563 79.62C239.39 79.62 239.24 79.5567 239.113 79.43C238.986 79.3033 238.923 79.1533 238.923 78.98C238.923 78.8 238.986 78.6467 239.113 78.52C239.24 78.3933 239.39 78.33 239.563 78.33C239.743 78.33 239.896 78.3933 240.023 78.52C240.15 78.6467 240.213 78.8 240.213 78.98C240.213 79.1533 240.15 79.3033 240.023 79.43C239.896 79.5567 239.743 79.62 239.563 79.62Z" fill="black"/>
<circle cx="42" cy="27.5" r="18.5" fill="#FCF4E9" stroke="black"/>
<circle cx="141.209" cy="27.7954" r="12.7095" fill="#FCF4E9" stroke="black"/>
<circle cx="184.733" cy="27.4367" r="26.4367" fill="#FCF4E9" stroke="black"/>
<path d="M218.659 53.8536C218.854 54.0488 219.171 54.0488 219.366 53.8536L222.548 50.6716C222.743 50.4763 222.743 50.1597 222.548 49.9645C222.353 49.7692 222.036 49.7692 221.841 49.9645L219.013 52.7929L216.184 49.9645C215.989 49.7692 215.672 49.7692 215.477 49.9645C215.282 50.1597 215.282 50.4763 215.477 50.6716L218.659 53.8536ZM219.366 0.146447C219.171 -0.0488155 218.854 -0.0488155 218.659 0.146447L215.477 3.32843C215.282 3.52369 215.282 3.84027 215.477 4.03553C215.672 4.2308 215.989 4.2308 216.184 4.03553L219.013 1.20711L221.841 4.03553C222.036 4.2308 222.353 4.2308 222.548 4.03553C222.743 3.84027 222.743 3.52369 222.548 3.32843L219.366 0.146447ZM219.013 53.5L219.513 53.5L219.513 0.5L219.013 0.5L218.513 0.5L218.513 53.5L219.013 53.5Z" fill="black"/>
</svg>
