<?xml version="1.0" encoding="UTF-8"?>
<svg id="Ebene_1" xmlns="http://www.w3.org/2000/svg" version="1.1" viewBox="0 0 425.2 85.04">
  <!-- Generator: Adobe Illustrator 29.6.0, SVG Export Plug-In . SVG Version: 2.1.1 Build 207)  -->
  <defs>
    <style>
      .st0 {
        fill: none;
      }

      .st1 {
        fill: #010101;
      }

      .st2 {
        fill: #1d1d1b;
      }

      .st3 {
        fill: #fff;
        stroke: #1d1d1b;
        stroke-miterlimit: 10;
      }
    </style>
  </defs>
  <g>
    <path class="st3" d="M50.08,37.96h-16.12v10.04h-9.96v-26.04h9.96v9.08h16.12v-9.08h10.04v26.04h-10.04v-10.04Z"/>
    <path class="st3" d="M73.94,47.06c-.33-.57-.77-1.32-1.32-2.24-.55-.92-1.16-1.97-1.84-3.16-.68-1.19-1.38-2.39-2.1-3.62-.72-1.23-1.42-2.43-2.1-3.62-.68-1.19-1.29-2.24-1.84-3.16-.55-.92-.99-1.67-1.32-2.24-.33-.57-.5-.87-.5-.9h10.08s.13.23.3.62c.17.39.41.87.7,1.46.29.59.62,1.26.98,2.02.36.76.73,1.53,1.1,2.3.37.77.74,1.54,1.1,2.3.36.76.69,1.43.98,2.02.29.59.53,1.07.7,1.46.17.39.27.59.3.62h.08s.13-.23.3-.62c.17-.39.39-.87.66-1.46.27-.59.57-1.26.92-2.02.35-.76.71-1.53,1.08-2.3.37-.77.73-1.54,1.08-2.3.35-.76.65-1.43.92-2.02.27-.59.49-1.07.66-1.46.17-.39.27-.59.3-.62h10.08l-10.2,17.92c-.83,1.47-1.71,2.85-2.64,4.14-.93,1.29-2.01,2.41-3.24,3.34-1.23.93-2.65,1.64-4.26,2.12-1.61.48-3.53.64-5.74.48,0-.03-.1-.2-.3-.52-.2-.32-.43-.71-.7-1.18-.27-.47-.57-.98-.9-1.54s-.63-1.07-.9-1.54c-.27-.47-.49-.86-.68-1.18-.19-.32-.29-.49-.32-.52.77.19,1.59.31,2.46.38.87.07,1.71.05,2.54-.04.83-.09,1.59-.3,2.3-.62.71-.32,1.3-.79,1.78-1.4,0-.03-.17-.33-.5-.9Z"/>
    <path class="st3" d="M97.76,55.6v-27.52h8.76v1.68c.69-.43,1.45-.77,2.26-1.02.81-.25,1.61-.45,2.4-.6.79-.15,1.51-.24,2.18-.28.67-.04,1.17-.06,1.52-.06,1.52,0,3,.21,4.44.62,1.44.41,2.72,1.04,3.84,1.88,1.12.84,2.03,1.91,2.72,3.2.69,1.29,1.04,2.82,1.04,4.58,0,1.2-.15,2.29-.46,3.28-.31.99-.73,1.86-1.26,2.62-.53.76-1.17,1.42-1.9,1.98-.73.56-1.53,1.02-2.4,1.38-.87.36-1.79.63-2.76.8-.97.17-1.97.26-2.98.26-.72,0-1.45-.03-2.18-.1-.73-.07-1.46-.17-2.18-.3-.72-.13-1.44-.33-2.16-.58-.72-.25-1.41-.55-2.08-.9v9.08h-8.8ZM112.04,41.88c.51,0,1-.03,1.48-.08.48-.05.93-.13,1.36-.24.43-.11.83-.25,1.2-.44.37-.19.69-.41.96-.68s.47-.59.62-.98c.15-.39.22-.82.22-1.3,0-.64-.14-1.19-.42-1.64-.28-.45-.68-.83-1.2-1.14-.52-.31-1.15-.53-1.88-.68-.73-.15-1.55-.22-2.46-.22-.37,0-.8.03-1.28.08-.48.05-.96.13-1.44.24-.48.11-.95.23-1.42.38-.47.15-.86.33-1.18.54v4.92c.4.16.79.31,1.18.46.39.15.79.28,1.22.4.43.12.89.21,1.4.28.51.07,1.05.1,1.64.1Z"/>
    <path class="st3" d="M137.16,47.68c-1.76-.45-3.22-1.11-4.38-1.96-1.16-.85-2.03-1.89-2.6-3.12-.57-1.23-.86-2.6-.86-4.12,0-1.15.17-2.21.5-3.2.33-.99.8-1.88,1.4-2.68.6-.8,1.33-1.51,2.18-2.12.85-.61,1.8-1.12,2.84-1.52s2.17-.71,3.38-.92c1.21-.21,2.47-.32,3.78-.32,1.97,0,3.77.24,5.4.72,1.63.48,3.03,1.17,4.2,2.08,1.17.91,2.08,2.01,2.72,3.3.64,1.29.96,2.74.96,4.34v.6h-18.36c.03.37.11.71.26,1.02.15.31.35.57.6.8.25.23.55.42.88.58.33.16.71.29,1.12.4.41.11.85.18,1.3.22.45.04.92.06,1.4.06.72,0,1.47-.05,2.24-.16.77-.11,1.52-.26,2.24-.46.72-.2,1.4-.43,2.04-.7.64-.27,1.2-.56,1.68-.88,0,.03.07.18.22.46.15.28.33.63.54,1.06.21.43.44.89.68,1.38.24.49.47.95.68,1.38.21.43.39.78.54,1.06.15.28.22.43.22.46-.75.53-1.56.99-2.44,1.36-.88.37-1.81.67-2.78.9-.97.23-2,.39-3.08.5-1.08.11-2.19.16-3.34.16-2.35,0-4.4-.23-6.16-.68ZM141.62,33.88c-.49.08-.95.2-1.38.36-.43.16-.8.37-1.12.64-.32.27-.55.6-.68,1h8.84c-.11-.27-.25-.51-.42-.74-.17-.23-.37-.41-.58-.56-.21-.15-.45-.27-.7-.38-.25-.11-.52-.19-.8-.26-.28-.07-.57-.11-.86-.14-.29-.03-.6-.04-.92-.04-.43,0-.89.04-1.38.12Z"/>
    <path class="st3" d="M168.96,31.68s.09.01.2.04c.35-.77.76-1.43,1.24-1.98.48-.55,1.01-1,1.58-1.36.57-.36,1.18-.62,1.82-.78.64-.16,1.29-.24,1.96-.24.4,0,.8.03,1.2.08.4.05.8.13,1.2.24v7.96c-.69-.21-1.38-.37-2.06-.48-.68-.11-1.34-.16-1.98-.16-.59,0-1.15.05-1.68.16-.53.11-1.02.27-1.46.48s-.81.48-1.12.8c-.31.32-.54.71-.7,1.16v10.4h-8.88v-19.88h8.68v3.56Z"/>
    <path class="st3" d="M180.92,33.16h15.52v6.24h-15.52v-6.24Z"/>
    <path class="st3" d="M221.96,28.08h10.36c-.05.11-.26.46-.62,1.06-.36.6-.81,1.36-1.34,2.28-.53.92-1.13,1.95-1.8,3.1-.67,1.15-1.35,2.32-2.06,3.52-.71,1.2-1.39,2.37-2.06,3.52-.67,1.15-1.27,2.18-1.8,3.1s-.98,1.68-1.34,2.28c-.36.6-.57.95-.62,1.06h-10.08s-.21-.33-.54-.9c-.33-.57-.77-1.33-1.32-2.26-.55-.93-1.16-1.99-1.84-3.18-.68-1.19-1.38-2.39-2.1-3.62-.72-1.23-1.43-2.43-2.12-3.62-.69-1.19-1.31-2.25-1.86-3.18-.55-.93-.99-1.69-1.32-2.26-.33-.57-.51-.87-.54-.9h10.36s.09.22.28.58c.19.36.43.84.74,1.44.31.6.65,1.28,1.02,2.04.37.76.76,1.53,1.16,2.32.4.79.79,1.56,1.16,2.32.37.76.71,1.44,1.02,2.04.31.6.55,1.08.74,1.44.19.36.27.55.24.58h.04l6.24-12.76Z"/>
    <path class="st3" d="M234.96,18.88h8.88v6.6h-8.88v-6.6ZM235,28.12h8.84v19.88h-8.84v-19.88Z"/>
    <path class="st3" d="M260.36,48.4c-1.01,0-2.06-.04-3.14-.12-1.08-.08-2.18-.22-3.3-.42-1.12-.2-2.24-.46-3.36-.78-1.12-.32-2.21-.72-3.28-1.2,0-.03.05-.17.16-.44.11-.27.24-.61.4-1.02.16-.41.33-.85.5-1.3.17-.45.34-.89.5-1.3.16-.41.29-.75.4-1.02.11-.27.16-.41.16-.44.53.27,1.21.54,2.04.82.83.28,1.75.53,2.78.76,1.03.23,2.13.41,3.32.56,1.19.15,2.39.22,3.62.22.32,0,.61-.01.86-.04.25-.03.47-.07.66-.12.19-.05.33-.12.44-.2s.16-.17.16-.28c0-.21-.21-.37-.64-.48-.43-.11-.99-.21-1.68-.32-.69-.11-1.49-.22-2.38-.34s-1.8-.28-2.72-.48-1.83-.45-2.72-.76-1.69-.7-2.38-1.18-1.25-1.07-1.68-1.78-.64-1.54-.64-2.5c0-1.09.26-2.05.78-2.86.52-.81,1.27-1.49,2.26-2.04.99-.55,2.21-.96,3.66-1.24,1.45-.28,3.11-.42,4.98-.42.83,0,1.7.03,2.62.1.92.07,1.87.18,2.84.34.97.16,1.95.36,2.92.6.97.24,1.94.53,2.9.88,0,.03-.05.18-.14.46-.09.28-.21.62-.34,1.02s-.27.84-.42,1.32-.29.92-.42,1.32c-.13.4-.25.74-.34,1.02-.09.28-.14.43-.14.46-.61-.32-1.29-.61-2.02-.88-.73-.27-1.53-.49-2.4-.66-.87-.17-1.79-.31-2.76-.42s-2.02-.16-3.14-.16c-.27,0-.52,0-.76.02-.24.01-.44.04-.6.08s-.29.09-.38.16c-.09.07-.14.14-.14.22,0,.21.21.38.64.5s.99.23,1.7.32c.71.09,1.51.19,2.42.3.91.11,1.83.26,2.76.46.93.2,1.85.45,2.76.76.91.31,1.71.71,2.42,1.2.71.49,1.27,1.11,1.7,1.84.43.73.64,1.61.64,2.62s-.24,1.9-.72,2.74c-.48.84-1.21,1.56-2.2,2.16-.99.6-2.24,1.07-3.76,1.42-1.52.35-3.32.52-5.4.52Z"/>
    <path class="st3" d="M294.36,45.6c-.69.43-1.41.81-2.16,1.16-.75.35-1.51.64-2.28.88-.77.24-1.55.42-2.32.54-.77.12-1.52.18-2.24.18-1.63,0-3.03-.19-4.22-.56-1.19-.37-2.17-.92-2.96-1.64-.79-.72-1.37-1.62-1.76-2.7-.39-1.08-.58-2.33-.58-3.74v-11.6h8.88v9.16c0,.75.09,1.39.28,1.92.19.53.46.97.82,1.32.36.35.79.59,1.28.74.49.15,1.06.22,1.7.22.51,0,1.01-.04,1.5-.12.49-.08.98-.19,1.46-.32.48-.13.95-.31,1.42-.52.47-.21.91-.45,1.34-.72v-11.68h8.88v19.88h-8.84v-2.36s-.09-.01-.2-.04Z"/>
    <path class="st3" d="M310.28,29.36c.93-.29,1.89-.55,2.86-.76.97-.21,1.96-.39,2.96-.52,1-.13,1.99-.23,2.98-.3.99-.07,1.93-.1,2.84-.1,2.21,0,4.12.19,5.72.56s2.93.95,3.98,1.72c1.05.77,1.83,1.77,2.34,3,.51,1.23.76,2.71.76,4.44v3.76c0,.24.03.43.1.58s.16.27.28.38c.12.11.27.18.44.22.17.04.37.06.58.06.29,0,.6-.03.92-.1.32-.07.65-.17,1-.3v4.96c-.32.21-.7.41-1.14.6-.44.19-.91.35-1.4.48-.49.13-1.03.24-1.6.32s-1.17.12-1.78.12-1.21-.04-1.78-.12c-.57-.08-1.11-.22-1.62-.42-.51-.2-.95-.47-1.32-.82-.37-.35-.67-.77-.88-1.28h-.04c-1.07.56-2.11,1.01-3.12,1.36s-1.99.61-2.94.8c-.95.19-1.85.31-2.7.38-.85.07-1.67.1-2.44.1-1.23,0-2.35-.11-3.38-.32-1.03-.21-1.92-.56-2.68-1.04s-1.35-1.11-1.78-1.88-.64-1.71-.64-2.8.25-2.09.76-2.92c.51-.83,1.22-1.52,2.14-2.08s2.02-.98,3.3-1.26c1.28-.28,2.69-.42,4.24-.42.35,0,.84,0,1.48.02.64.01,1.35.05,2.12.12.77.07,1.58.17,2.42.32s1.63.34,2.38.58v-.2c0-.51-.15-.92-.46-1.24-.31-.32-.73-.58-1.26-.78-.53-.2-1.15-.34-1.84-.42s-1.43-.12-2.2-.12c-.83,0-1.67.05-2.52.14-.85.09-1.66.21-2.42.34-.76.13-1.44.29-2.04.48-.6.19-1.06.36-1.38.52l-1.24-6.16ZM325.68,40.28c-.35-.05-.75-.1-1.2-.14-.45-.04-.93-.08-1.44-.12-.51-.04-1.01-.07-1.52-.08-.51-.01-.99-.02-1.44-.02-.75,0-1.38.03-1.9.1-.52.07-.94.17-1.26.32-.32.15-.55.32-.68.52-.13.2-.2.42-.2.66,0,.19.04.36.12.52s.22.3.42.42c.2.12.46.21.78.26.32.05.71.08,1.16.08.64,0,1.31-.05,2.02-.14.71-.09,1.39-.21,2.04-.36.65-.15,1.25-.31,1.8-.48.55-.17.98-.34,1.3-.5v-1.04Z"/>
    <path class="st3" d="M341.32,48v-27.24h8.84v27.24h-8.84Z"/>
  </g>
  <g>
    <path class="st0" d="M311.9,48.16c-.44-.09-.85-.22-1.24-.36l-6.87,3.35c2.17,2.36,4.72,3.15,7.68,3.15,1.58,0,3.35-.2,4.92-1.18v-4.66c-.38.01-.75.02-1.1.02-1.23,0-2.35-.11-3.38-.32Z"/>
    <path class="st0" d="M134.61,29.74c.11-.06.22-.12.34-.18-.02-.02-.05-.04-.07-.06l-.26.24Z"/>
    <path class="st0" d="M265.18,33.66c-.87-.17-1.79-.31-2.76-.42-.97-.11-2.02-.16-3.14-.16-.27,0-.52,0-.76.02-.24.01-.44.04-.6.08s-.29.09-.38.16c-.09.07-.14.14-.14.22,0,.21.21.38.64.5.43.12.99.23,1.7.32.71.09,1.51.19,2.42.3.91.11,1.83.26,2.76.46.6.13,1.19.29,1.77.46h.08s0,.02,0,.02c.3.09.61.18.91.28.37.13.72.28,1.06.44v-1.55c-.37-.16-.75-.32-1.16-.47-.73-.27-1.53-.49-2.4-.66Z"/>
    <path class="st0" d="M212.24,55.88c1.38.39,3.15.79,3.74.79l-.05-8.66h-3.8l.12,7.88Z"/>
    <path class="st0" d="M309.1,31.66c-2.29-.72-4.17-1.33-5.7-1.61v3.04c1.13-.62,2.32-1.11,3.53-1.44l.2.39c-1.29.9-2.66,1.98-3.73,3.34v1.76l7.76-3.41-.33-1.61c-.58-.15-1.16-.3-1.74-.46Z"/>
    <path class="st0" d="M217.95,56.86c2.17,0,3.15-1.57,3.15-3.15v-6.43c-.23.39-.38.64-.42.72h-4.31v8.86h1.58Z"/>
    <path class="st0" d="M138.32,38.76c.03.37.11.71.26,1.02.15.31.35.57.6.8.18.16.39.3.61.43v-2.25h-1.47Z"/>
    <path class="st0" d="M320.13,41.71l-1.34,1.09c.56-.01,1.14-.05,1.76-.13.71-.09,1.39-.21,2.04-.36.65-.15,1.25-.31,1.8-.48.55-.17.98-.34,1.3-.5v-1.04c-.35-.05-.75-.1-1.2-.14-.45-.04-.93-.08-1.44-.12-.51-.04-1.01-.07-1.52-.08-.51-.01-.99-.02-1.44-.02-.66,0-1.21.03-1.69.08l1.73,1.5v.2Z"/>
    <path class="st0" d="M139.12,34.88c-.32.27-.55.6-.68,1h1.35v-1.43c-.24.12-.47.26-.67.43Z"/>
    <path class="st0" d="M216.37,39.51l.06-.12s-.04-.03-.06-.05v.17Z"/>
    <path class="st0" d="M216.37,29.89v8.66c.08.11.19.22.3.33l4.01-8.2-2.34-2.18-1.97,1.38Z"/>
    <path class="st0" d="M68.68,38.04c-.72-1.23-1.42-2.43-2.1-3.62-.4-.7-.77-1.33-1.12-1.94-.82.37-1.73.56-2.65.56v6.1l3.15,2.56v.2l-3.15,2.56v8.07c1.04-.57,1.99-1.42,2.83-2.43-.16-.27-.26-.44-.28-.46.18.04.38.07.56.11.78-1,1.46-2.14,2.01-3.33h.39c0,1.22-.18,2.43-.52,3.59,0,0,.01,0,.02,0,.87.07,1.71.05,2.54-.04.76-.09,1.47-.28,2.13-.56l.04-4.74c-.53-.89-1.11-1.89-1.76-3.02-.68-1.19-1.38-2.39-2.1-3.62Z"/>
    <path class="st0" d="M150.62,47.46v.54l1.98-1.24s-.05.03-.08.04c-.61.26-1.25.47-1.9.66Z"/>
    <path class="st0" d="M147.28,35.88c-.11-.27-.25-.51-.42-.74-.17-.23-.37-.41-.58-.56-.21-.15-.45-.27-.7-.38-.25-.11-.52-.19-.8-.26-.28-.07-.57-.11-.86-.14-.29-.03-.6-.04-.92-.04-.43,0-.89.04-1.38.12-.44.07-.85.18-1.24.32v1.68h6.9Z"/>
    <path class="st0" d="M45.13,31.04h4.95v-1c-.91-.21-1.72-.34-2.43-.34-1.38,0-2.17.67-2.52,1.35Z"/>
    <path class="st0" d="M153.52,42.54c.24.49.47.95.68,1.38.21.43.39.78.54,1.06.08.15.13.26.17.34l.43-.27-2.74-4.36c.07.15.15.3.24.47.21.43.44.89.68,1.38Z"/>
    <polygon class="st0" points="237.44 52.14 242.36 55.49 242.36 48 237.44 48 237.44 52.14"/>
    <path class="st0" d="M261.16,42.72c.32,0,.61-.01.86-.04.25-.03.47-.07.66-.12.19-.05.33-.12.44-.2s.16-.17.16-.28c0-.21-.21-.37-.64-.48-.43-.11-.99-.21-1.68-.32-.66-.1-1.42-.21-2.26-.32v1.65c.81.07,1.63.11,2.46.11Z"/>
    <path class="st0" d="M62.22,39.15v-6.1c-.55-.07-1.28-.19-2.1-.35v8.27l2.1-1.82Z"/>
    <path class="st0" d="M302.34,48c.33.81.75,1.53,1.25,2.17l2.36-1.18.2-12.21-2.75,1.18v10.04h-1.06Z"/>
    <path class="st0" d="M321.27,47.81c-.28.07-.57.14-.85.2-.95.19-1.85.31-2.7.38-.25.02-.5.03-.74.04v3.91c1.71-.93,3.17-2.61,4.29-4.53Z"/>
    <path class="st0" d="M202.83,28.08h1.57c-.26-.11-.54-.16-.83-.16s-.53.06-.75.16Z"/>
    <path class="st0" d="M317.24,35.76c.35,0,.84,0,1.48.02.64.01,1.35.05,2.12.12.77.07,1.58.17,2.42.32s1.63.34,2.38.58v-.2c0-.51-.15-.92-.46-1.24-.31-.32-.73-.58-1.26-.78-.53-.2-1.15-.34-1.84-.42s-1.43-.12-2.2-.12c-.83,0-1.67.05-2.52.14-.06,0-.12.02-.19.02v1.56s.04,0,.07,0Z"/>
    <path class="st0" d="M316.39,35.81v-1.5c-.5.07-.98.14-1.44.22-.76.13-1.44.29-2.04.48-.43.13-.76.26-1.04.38v1.11c.37-.12.74-.22,1.14-.31,1.03-.23,2.18-.34,3.38-.38Z"/>
    <polygon class="st0" points="376.43 38.16 376.04 38.36 376.04 48.01 380.76 45.05 376.43 38.16"/>
    <path class="st0" d="M50.08,37.96h-1.25l-1.38.59c-.39,1.18-.39,2.76-.39,4.13,0,3.35.79,5.71,2.17,7.48l2.36-1.18v-.98h-1.51v-10.04Z"/>
    <path class="st0" d="M117.46,36.52c-.28-.45-.68-.83-1.2-1.14-.52-.31-1.15-.53-1.88-.68s-1.55-.22-2.46-.22c-.37,0-.8.03-1.28.08-.48.05-.96.13-1.44.24-.48.11-.95.23-1.42.38-.47.15-.86.33-1.18.54v4.63l.26.39c.31.12.62.24.92.36.39.15.79.28,1.22.4s.89.21,1.4.28c.51.07,1.05.1,1.64.1.51,0,1-.03,1.48-.08.48-.05.93-.13,1.36-.24.43-.11.83-.25,1.2-.44.37-.19.69-.41.96-.68.06-.06.11-.14.17-.21.13-.37.3-.71.52-1.02.09-.32.15-.67.15-1.05,0-.64-.14-1.19-.42-1.64Z"/>
    <polygon class="st0" points="180.15 40.52 180.15 52.73 184.88 55.68 184.88 40.92 183.36 39.4 181.58 39.4 181.73 39.54 180.15 40.52"/>
    <path class="st0" d="M78.57,39.68c.11.23.21.44.29.62.17.39.27.59.3.62h.08s.13-.23.3-.62c.12-.27.28-.62.45-.99l-.44-.36-.98.73Z"/>
    <path class="st0" d="M398.48,41.11c-2.17,0-4.33-1.57-5.12-3.54v6.89l2.17,1.77c1.77-1.18,4.72-3.54,6.1-5.91-.98.59-1.77.79-3.15.79Z"/>
    <path class="st0" d="M395.72,47.02c-3.35,1.97-5.91,4.72-6.89,6.3,1.57-.98,3.15-.98,3.74-.98,2.36,0,4.72,1.57,5.71,3.74l-.2-7.09-2.36-1.97Z"/>
    <path class="st0" d="M120.3,28.71s-.06,0-.08.01c.61.22,1.18.49,1.72.8-.49-.47-1.06-.81-1.63-.81Z"/>
    <path class="st0" d="M150.62,40.42c.51-.22.96-.46,1.36-.72l-.59-.94h-.77v1.66Z"/>
    <path class="st0" d="M55.68,48l-6.05,2.95c2.17,2.36,4.72,3.15,7.68,3.15,1.57,0,3.35-.2,4.92-1.18v-8.47l-2.1-1.82v5.36h-4.45Z"/>
    <path class="st0" d="M174.12,35c-.59,0-1.15.05-1.68.16-.53.11-1.02.27-1.46.48-.44.21-.81.48-1.12.8-.31.32-.54.71-.7,1.16v.39c.46.64.75,1.48.75,2.73v11.81l4.13,2.95.59-.39v-14.17l-1.77-1.77,4.18-3.8c-.31-.07-.63-.13-.94-.18-.68-.11-1.34-.16-1.98-.16Z"/>
    <path class="st0" d="M148.54,38.76h-8.16v2.53c.25.1.51.19.8.27.41.11.85.18,1.3.22.45.04.92.06,1.4.06.34,0,.68-.01,1.03-.04v-1.09l3.63-1.96Z"/>
    <path class="st1" d="M224.44,41.56c-.67,1.15-1.27,2.18-1.8,3.1-.53.92-.98,1.68-1.34,2.28-.08.13-.14.23-.2.34v6.43c0,1.57-.98,3.15-3.15,3.15h-1.58v-8.86h-.45l.05,8.66c-.59,0-2.36-.39-3.74-.79l-.12-7.88h-1.52s-.21-.33-.54-.9c-.33-.57-.77-1.33-1.32-2.26-.55-.93-1.16-1.99-1.84-3.18-.5-.87-1.02-1.77-1.55-2.67-3.3.32-5.32,2.22-5.32,4.68,0,1.57.79,3.94,3.15,3.94v-.39c-.79-.39-.98-.98-.98-1.38,0-1.18.98-1.57,2.56-1.57h.79v12.21c-2.95.98-4.13,3.15-4.13,5.51,0,3.35,2.56,5.71,6.5,5.71,2.76,0,5.12-.39,7.48-.98,1.97-.39,4.53-.98,5.71-.98,1.57,0,2.17.79,2.17,1.77,0,1.38-.59,1.97-1.38,2.17v.39c3.15-.59,5.12-2.56,5.12-5.51s-2.95-4.72-6.1-4.72c-1.57,0-4.92.59-7.28.98-2.76.59-5.51.98-6.3.98-1.38,0-2.95-.59-2.95-2.56,0-1.57,1.38-2.95,4.72-2.95,1.77,0,3.94.2,6.1.79,2.36.59,4.53,1.18,6.5,1.18,2.95,0,5.51-.98,5.51-5.12v-16.28c-.24.4-.46.79-.7,1.2-.71,1.2-1.39,2.37-2.06,3.52Z"/>
    <polygon class="st1" points="108.69 52.14 108.49 51.35 106.56 52.81 106.56 53.84 108.69 52.14"/>
    <path class="st1" d="M184.88,40.92v14.77l-4.72-2.95v-12.21l1.58-.98-.14-.13h-.66v-.63l-3.47-3.32c-.14-.04-.27-.07-.41-.1l-4.18,3.8,1.77,1.77v14.17l-.59.39-4.13-2.95v-11.81c0-1.25-.29-2.08-.75-2.73v10.01h-4.37v6.69l-2.17,1.58.39.39,1.97-1.57,4.53,3.94,4.92-3.35,5.51,3.35,10.43-6.1v-13.19l.43-.33h-7.46l1.51,1.51Z"/>
    <polygon class="st1" points="229.56 26.94 229.17 26.55 227.46 28.08 228.19 28.08 229.56 26.94"/>
    <path class="st1" d="M266.77,35.6h-.08s.05.02.08.02c0,0,0-.02,0-.02h0Z"/>
    <path class="st1" d="M139.79,38.76v2.25c.09.05.18.11.27.15.1.05.21.09.32.13v-2.53h-.59Z"/>
    <path class="st1" d="M89.19,38.75l-4.15,7.29c-.68,1.2-1.4,2.33-2.15,3.41v4.25c0,7.48-1.58,8.66-4.92,9.84v.59c5.51.2,10.63-1.58,10.63-11.22v-12.99l1.77-1.38-.39-.39-.79.59Z"/>
    <path class="st1" d="M140.38,34.2s-.09.03-.14.04c-.16.06-.31.14-.45.21v1.43h.59v-1.68Z"/>
    <path class="st1" d="M247.44,45.44c.11-.27.24-.61.4-1.02.07-.19.15-.4.23-.6v-4.09l-4.23-3.04v11.31h-1.48v7.48l-4.92-3.35v-4.13h-2.44v-8.93l-2.88,1.64v12.8l-1.97,1.57.2.39,1.57-1.18,6.3,4.72,9.84-5.91v-6.92c-.26-.11-.53-.2-.79-.32,0-.03.05-.17.16-.44Z"/>
    <path class="st1" d="M216.37,39.34s.04.03.06.05l.25-.5c-.11-.11-.23-.22-.3-.33v-8.66l1.97-1.38,2.34,2.18,1.27-2.61h4.98l-4.07-3.7-6.5,4.72v-4.33h-.59l.1,15.75.49-1.01v-.17Z"/>
    <path class="st1" d="M122.66,46.39v4.57c-4.13,0-7.48,2.36-7.48,6.3s3.15,5.51,6.69,5.32v-.39c-2.17-.2-3.15-1.18-3.15-2.56,0-1.77,1.18-2.56,2.76-2.56s2.95.98,3.94,2.17l5.71-6.3-.39-.39-1.38,1.57c-2.17-1.97-3.35-2.56-5.91-2.95v-5.32c-.05.04-.09.09-.15.13-.2.16-.43.29-.64.43Z"/>
    <path class="st1" d="M134.61,29.74l.26-.24s.05.04.07.06c.42-.22.85-.42,1.3-.59,1.04-.4,2.17-.71,3.38-.92,1.21-.21,2.47-.32,3.78-.32.77,0,1.5.05,2.22.12.3-.69.47-1.46.47-2.28,0-.59-.2-1.18-.39-1.77h-.39c-.59,1.57-1.38,2.36-3.35,2.36-1.77,0-2.95-.98-3.74-1.77l-5.71,6.5.19.19c.23-.2.45-.4.7-.59.38-.27.79-.52,1.2-.75Z"/>
    <path class="st1" d="M155.54,55.09l-4.92-3.94v-2.36l9.25-6.3v-.2l-3.23-4.84c.01.23.04.47.04.71v.6h-5.29l.59.94s.07-.04.1-.06c0,.03.07.18.22.46.09.17.19.37.3.59l2.74,4.36-.43.27c.03.06.05.11.05.12-.72.52-1.51.96-2.36,1.32l-1.98,1.24v-.54c-.29.08-.58.17-.88.24-.97.23-2,.39-3.08.5-.57.06-1.16.1-1.75.12v5.39l-1.97,1.57.39.39,1.77-1.38,6.69,4.92,8.86-7.09-.2-.79-4.92,3.74Z"/>
    <path class="st1" d="M117.66,39.46c.03-.08.04-.17.07-.25-.22.31-.39.65-.52,1.02.18-.23.34-.47.45-.77Z"/>
    <polygon class="st1" points="97.76 38.12 92.94 40.72 92.94 53.71 90.97 55.29 91.36 55.68 93.13 54.3 99.83 59.23 104.35 55.6 97.76 55.6 97.76 38.12"/>
    <path class="st1" d="M203.58,27.92c.29,0,.57.05.83.16h4.91s.09.22.28.58c.19.36.43.84.74,1.44.31.6.65,1.28,1.02,2.04.17.36.36.72.54,1.09l-.06-3.93c0-1.97-1.38-4.72-4.92-4.72-2.67,0-4.66,1.56-5.49,3.51h1.4c.22-.1.46-.16.75-.16Z"/>
    <path class="st1" d="M148.54,38.76l-3.63,1.96v1.09c.4-.03.8-.07,1.21-.12.77-.11,1.52-.26,2.24-.46.72-.2,1.4-.43,2.04-.7.08-.03.14-.07.22-.1v-1.66h-2.08Z"/>
    <path class="st1" d="M106.6,40.64c.09.04.17.07.26.1l-.26-.39v.29Z"/>
    <path class="st1" d="M132.78,45.72c-1.16-.85-2.03-1.89-2.6-3.12-.57-1.23-.86-2.6-.86-4.12,0-1.15.17-2.21.5-3.2.3-.89.72-1.69,1.24-2.42l-2.88-4.94c-.98-1.58-2.36-3.74-5.12-3.74-2.29,0-4.36,1.46-5.18,3.91.48.09.97.2,1.44.33.31.09.6.19.89.3.03,0,.05-.01.08-.01.57,0,1.14.34,1.63.81.43.24.84.5,1.23.79,1.12.84,2.03,1.91,2.72,3.2.61,1.14.94,2.48,1.01,3.99l12.31,21.54h1.18v-10.81c-1.16-.11-2.24-.29-3.22-.54-1.76-.45-3.22-1.11-4.38-1.96Z"/>
    <path class="st1" d="M331.62,29.96c.2.15.38.31.56.47l1.33-1.13v-.2l-3.54-3.74h-.2l-3.15,2.68c.35.06.7.12,1.02.2,1.6.37,2.93.95,3.98,1.72Z"/>
    <path class="st1" d="M67.93,46.43c-.55,1.19-1.23,2.32-2.01,3.33.6.12,1.22.22,1.88.27.34-1.16.52-2.37.52-3.59h-.39Z"/>
    <path class="st1" d="M316.39,35.81c.27,0,.51-.04.79-.04v-1.56c-.27.03-.53.06-.79.1v1.5Z"/>
    <path class="st1" d="M47.66,29.7c.71,0,1.52.13,2.43.34v-6.42c-.22-.02-.44-.03-.66-.03-3.94,0-6.69,2.95-6.69,6.3,0,.43.06.8.14,1.15h2.27c.36-.67,1.14-1.35,2.52-1.35Z"/>
    <path class="st1" d="M303.4,30.06c1.53.28,3.41.89,5.7,1.61.58.16,1.16.32,1.74.46l-.56-2.76c.93-.29,1.89-.55,2.86-.76.97-.21,1.96-.39,2.96-.52,1-.13,1.99-.23,2.98-.3.99-.07,1.93-.1,2.84-.1.39,0,.77.01,1.14.02,0-.13.02-.25.02-.38,0-3.94-3.74-4.92-6.69-4.92v.59c1.77,0,3.15.59,3.15,1.97,0,.79-.59,1.97-2.36,1.97-1.38,0-4.33-.79-6.5-1.58-2.56-.79-4.92-1.57-6.89-1.57-3.14,0-5.52,1.88-6.36,4.34h5.98v1.93Z"/>
    <path class="st1" d="M307.13,32.06l-.2-.39c-1.22.32-2.41.82-3.53,1.44v2.29c1.07-1.35,2.44-2.43,3.73-3.34Z"/>
    <path class="st1" d="M341.32,45.78v-10.43l-.13-.15-5.71,3.94.2.59,1.38-.98,1.97,2.17v12.8l-1.57,1.57,4.53,3.74,4.33-3.94-1.77-1.77v-5.32h-3.22v-2.22Z"/>
    <path class="st1" d="M316.92,40.34c-.32.15-.55.32-.68.52-.13.2-.2.42-.2.66,0,.19.04.36.12.52s.22.3.42.42.46.21.78.26c.32.05.71.08,1.16.08.09,0,.18,0,.26,0l1.34-1.09v-.2l-1.73-1.5c-.07,0-.15.01-.21.02-.52.07-.94.17-1.26.32Z"/>
    <path class="st1" d="M79.55,38.95l.44.36c.07-.15.14-.3.21-.47.24-.52.51-1.12.81-1.78l-2.72,2.04c.1.2.2.4.28.58l.98-.73Z"/>
    <path class="st1" d="M73.3,28.74c.17.39.41.87.7,1.46.29.59.62,1.26.98,2.02.36.76.73,1.53,1.1,2.3.37.77.74,1.54,1.1,2.3.29.61.55,1.14.79,1.63v-15.26h-.39l-6.89,4.72v.2h2.31s.13.23.3.62Z"/>
    <path class="st1" d="M316.98,52.34v-3.91c-.2.01-.4.02-.59.03v4.66c-1.58.98-3.35,1.18-4.92,1.18-2.95,0-5.51-.79-7.68-3.15l6.87-3.35c-.52-.19-1.01-.4-1.44-.68-.76-.48-1.35-1.11-1.78-1.88-.43-.77-.64-1.71-.64-2.8s.25-2.09.76-2.92c.51-.83,1.22-1.52,2.14-2.08.63-.38,1.35-.7,2.16-.95v-1.11c-.12.05-.24.1-.34.14l-.36-1.78-7.76,3.41v.8l2.75-1.18-.2,12.21-2.36,1.18c-.5-.64-.91-1.36-1.25-2.17h-6.35c1.31,6.46,7.1,11.03,13.5,11.03,7.36,0,12.32-5.51,12.93-11.54-.39.12-.77.22-1.15.31-1.12,1.92-2.58,3.6-4.29,4.53Z"/>
    <path class="st1" d="M278.18,46.16c-.79-.72-1.37-1.62-1.76-2.7-.07-.21-.14-.43-.2-.65l-1.58,2.44,9.06,13.78,6.69-4.53v-.2l-1.97,1.18-4.88-7.22c-.88-.09-1.69-.24-2.41-.46-1.19-.37-2.17-.92-2.96-1.64Z"/>
    <path class="st1" d="M332.12,48.48c-.61,0-1.21-.04-1.78-.12s-1.11-.22-1.62-.42c-.51-.2-.95-.47-1.32-.82-.23-.21-.41-.46-.58-.73v7.32l-2.56,1.97.2.39,1.38-.98,4.33,3.94,5.91-3.94-.2-.59-1.57.98-1.97-1.97v-5.04c-.07,0-.14,0-.21,0Z"/>
    <path class="st1" d="M285,39.2c.18.51.44.93.78,1.27,1.26-1.05,2.34-2.86,2.46-5.26h-.39c-.59.79-1.58,1.57-2.95,1.57-.06,0-.11,0-.17-.01v.51c0,.75.09,1.39.28,1.92Z"/>
    <path class="st1" d="M72.66,49.36c.71-.32,1.3-.79,1.78-1.4,0-.03-.17-.33-.5-.9-.33-.57-.77-1.32-1.32-2.24-.03-.04-.06-.1-.08-.14l-.04,4.74c.05-.02.11-.04.17-.06Z"/>
    <path class="st1" d="M257.54,42.5c.38.05.77.07,1.16.11v-1.65s-.08-.01-.12-.02c-.89-.12-1.8-.28-2.72-.48s-1.83-.45-2.72-.76c-.68-.23-1.28-.53-1.84-.86l1.89,2.07v.77c.34.09.67.17,1.03.25,1.03.23,2.13.41,3.32.56Z"/>
    <path class="st1" d="M72.76,56.06l3.05,2.77,5.91-3.94-.2-.39-1.57.98-1.48-1.48c-1.06.69-2.24,1.25-3.56,1.64-.66.2-1.39.33-2.15.41Z"/>
    <path class="st1" d="M253.92,47.86c-.24-.04-.49-.1-.73-.15v5.61l-2.56,1.97.39.39,1.18-.98,4.72,3.94,6.1-4.13-.2-.39-1.77.98-2.36-1.97v-4.76c-.49-.02-.98-.05-1.48-.08-1.08-.08-2.18-.22-3.3-.42Z"/>
    <path class="st1" d="M367.37,55.29l-2.17-1.97v-13.39l1.97-1.58-.39-.39-1.58,1.38-4.53-4.13-5.91,4.13-4.53-4.13-.09.07v12.73h-.9v5.32l-1.57,1.57,4.53,3.74,4.33-3.94-1.77-1.77v-12.99l1.57-.98,3.15,2.76v11.81l-1.38,1.38,4.53,4.13,6.1-4.13v-.59h0l-1.38.98Z"/>
    <path class="st1" d="M276.03,55.49l-1.97-1.97v-30.32h-.2l-7.09,4.72v.39s.07.03.1.05c.54.11,1.09.23,1.63.36.97.24,1.94.53,2.9.88,0,.03-.05.18-.14.46-.09.28-.21.62-.34,1.02-.13.4-.27.84-.42,1.32-.15.48-.29.92-.42,1.32-.13.4-.25.74-.34,1.02-.09.28-.14.43-.14.46-.27-.14-.56-.28-.86-.41v1.55c.48.23.94.47,1.36.76.71.49,1.27,1.11,1.7,1.84.43.73.64,1.61.64,2.62s-.24,1.9-.72,2.74c-.48.84-1.21,1.56-2.2,2.16-.24.15-.5.29-.78.42v6.63l-2.56,1.97.39.39,1.18-.98,4.33,3.94,5.91-3.94-.39-.39-1.57.98Z"/>
    <path class="st1" d="M380.96,55.09l-4.92-3.94v-2.36l9.25-6.3v-.2l-4.72-7.09-10.24,5.51v13.39l6.89,4.92,8.86-7.09-.2-.59-4.92,3.74ZM376.04,38.36l.39-.2,4.33,6.89-4.72,2.95v-9.65Z"/>
    <path class="st1" d="M65.68,50.16s-.02-.04-.03-.06c-.84,1.01-1.79,1.86-2.83,2.43v-8.07l3.15-2.56v-.2l-3.15-2.56v-6.1c.91,0,1.82-.19,2.65-.56-.25-.42-.49-.84-.72-1.22-.55-.92-.99-1.67-1.32-2.24-.33-.57-.5-.87-.5-.9h5.75c.03-.26.05-.52.05-.79,0-3.94-3.74-4.92-6.69-4.92v.59c1.77,0,3.15.59,3.15,1.97,0,.79-.59,1.97-2.36,1.97-.64,0-1.61-.17-2.69-.43v6.19c.82.16,1.55.28,2.1.35v6.1l-2.1,1.82v1.67l2.1,1.82v8.47c-1.58.98-3.35,1.18-4.92,1.18-2.95,0-5.51-.79-7.68-3.15l6.05-2.95h-4.09v.98l-2.36,1.18c-1.38-1.77-2.17-4.13-2.17-7.48,0-1.38,0-2.95.39-4.13l1.38-.59h-4.89c-1.48,2.17-2.39,4.72-2.39,7.48,0,7.87,6.5,13.78,13.78,13.78,5.42,0,9.53-2.98,11.57-6.95-.19-.33-.37-.64-.54-.93-.27-.47-.49-.86-.68-1.18Z"/>
    <path class="st1" d="M250.72,38.49l-1.27.85.2.39,1.54-.96c-.14-.09-.29-.16-.42-.25-.01,0-.02-.02-.04-.03Z"/>
    <path class="st1" d="M403.8,46.23l-3.74-2.95c2.56-2.17,3.54-5.12,3.54-7.09v-1.18h-.39c-.39.98-1.18,1.97-2.76,1.97s-2.56-.79-3.54-1.97l-8.86,4.92v7.09l3.35,2.56c-3.35,2.95-3.94,4.92-3.94,6.5,0,1.97.98,3.35,2.56,3.94l.2-.39c-.39-.39-.79-.59-.79-1.57,0-.59.79-1.58,2.36-1.58,1.97,0,3.15,1.38,3.74,1.97l8.47-5.12v-7.09h-.2ZM392.57,52.34c-.59,0-2.17,0-3.74.98.98-1.58,3.54-4.33,6.89-6.3l2.36,1.97.2,7.09c-.98-2.17-3.35-3.74-5.71-3.74ZM395.53,46.23l-2.17-1.77v-6.89c.79,1.97,2.95,3.54,5.12,3.54,1.38,0,2.17-.2,3.15-.79-1.38,2.36-4.33,4.72-6.1,5.91Z"/>
    <path class="st3" d="M134.61,29.74c-.42.23-.82.48-1.2.75-.25.18-.47.39-.7.59l.2.2,1.71-1.54Z"/>
    <rect class="st3" x="234.96" y="18.88" width="8.88" height="6.6"/>
    <path d="M301.42,42.69c0-1.38.2-2.95.59-4.13l1.39-.59v-.8l-1.39.61c.34-.88.82-1.66,1.39-2.37v-2.29c-4.33,2.4-7.69,6.83-7.69,12.14,0,.95.1,1.87.28,2.76h6.35c-.59-1.44-.92-3.17-.92-5.32Z"/>
    <path class="st2" d="M322.09,46.23c-.25.54-.53,1.06-.83,1.57.38-.09.76-.2,1.15-.31.04-.42.07-.84.07-1.26h-.39Z"/>
    <path d="M319.08,27.78c-.99.07-1.98.17-2.98.3-1,.13-1.99.31-2.96.52-.97.21-1.93.47-2.86.76l.56,2.76c2.19.55,4.3.96,5.55,1.11v1.07c.26-.03.52-.07.79-.1v-1.17c2.85,0,5.69-1.84,5.89-5.33-.37-.01-.75-.02-1.14-.02-.91,0-1.85.03-2.84.1Z"/>
    <path class="st2" d="M328.72,47.94c.51.2,1.05.34,1.62.42s1.17.12,1.78.12c.07,0,.14,0,.21,0v-8.54l1.97-1.38-.39-.39-1.38,1.18-3.54-4.13-5.71,3.94.39.59,1.38-.98,1.77,2.17v5.48c.17.27.35.52.58.73.37.35.81.62,1.32.82Z"/>
    <path class="st2" d="M311.16,33.74l.36,1.78c.09-.05.22-.1.34-.14v-1.94l-.7.31Z"/>
    <path class="st1" d="M311.86,36.49c-.8.25-1.52.57-2.16.95-.92.56-1.63,1.25-2.14,2.08-.51.83-.76,1.8-.76,2.92s.21,2.03.64,2.8c.43.77,1.02,1.4,1.78,1.88.43.27.92.49,1.44.68l1.2-.58v-10.72Z"/>
    <path class="st2" d="M350.16,45.76v-10.49l-5.42,4.07-3.41-3.98v12.65h3.22v-8.07l1.77-1.18,2.95,2.76v6.5h.9v-2.24Z"/>
  </g>
  <g>
    <path class="st0" d="M309.1,31.66c-2.29-.72-4.17-1.33-5.7-1.61v3.04c1.13-.62,2.32-1.11,3.53-1.44l.2.39c-1.29.9-2.66,1.98-3.73,3.34v1.76l7.76-3.41-.33-1.61c-.58-.15-1.16-.3-1.74-.46Z"/>
    <path class="st0" d="M55.68,48l-6.05,2.95c2.17,2.36,4.72,3.15,7.68,3.15,1.57,0,3.35-.2,4.92-1.18v-8.47l-2.1-1.82v5.36h-4.45Z"/>
    <path class="st0" d="M50.08,37.96h-1.25l-1.38.59c-.39,1.18-.39,2.76-.39,4.13,0,3.35.79,5.71,2.17,7.48l2.36-1.18v-.98h-1.51v-10.04Z"/>
    <path class="st0" d="M62.22,39.15v-6.1c-.55-.07-1.28-.19-2.1-.35v8.27l2.1-1.82Z"/>
    <path class="st0" d="M320.13,41.71l-1.34,1.09c.56-.01,1.14-.05,1.76-.13.71-.09,1.39-.21,2.04-.36.65-.15,1.25-.31,1.8-.48.55-.17.98-.34,1.3-.5v-1.04c-.35-.05-.75-.1-1.2-.14-.45-.04-.93-.08-1.44-.12-.51-.04-1.01-.07-1.52-.08-.51-.01-.99-.02-1.44-.02-.66,0-1.21.03-1.69.08l1.73,1.5v.2Z"/>
    <path class="st0" d="M107.78,41.1c.39.15.79.28,1.22.4s.89.21,1.4.28c.51.07,1.05.1,1.64.1.51,0,1-.03,1.48-.08.48-.05.93-.13,1.36-.24.43-.11.83-.25,1.2-.44.37-.19.69-.41.96-.68.27-.27.47-.59.62-.98.15-.39.22-.82.22-1.3,0-.64-.14-1.19-.42-1.64-.28-.45-.68-.83-1.2-1.14-.52-.31-1.15-.53-1.88-.68s-1.55-.22-2.46-.22c-.37,0-.8.03-1.28.08-.48.05-.96.13-1.44.24-.48.11-.95.23-1.42.38-.47.15-.86.33-1.18.54v4.63l.26.39c.31.12.62.24.92.36Z"/>
    <path class="st0" d="M146.28,34.58c-.21-.15-.45-.27-.7-.38-.25-.11-.52-.19-.8-.26-.28-.07-.57-.11-.86-.14-.29-.03-.6-.04-.92-.04-.43,0-.89.04-1.38.12s-.95.2-1.38.36c-.43.16-.8.37-1.12.64-.32.27-.55.6-.68,1h8.84c-.11-.27-.25-.51-.42-.74-.17-.23-.37-.41-.58-.56Z"/>
    <path class="st0" d="M317.24,35.76c.35,0,.84,0,1.48.02.64.01,1.35.05,2.12.12.77.07,1.58.17,2.42.32s1.63.34,2.38.58v-.2c0-.51-.15-.92-.46-1.24-.31-.32-.73-.58-1.26-.78-.53-.2-1.15-.34-1.84-.42s-1.43-.12-2.2-.12c-.83,0-1.67.05-2.52.14-.06,0-.12.02-.19.02v1.56s.04,0,.07,0Z"/>
    <path class="st0" d="M45.13,31.04h4.95v-1c-.91-.21-1.72-.34-2.43-.34-1.38,0-2.17.67-2.52,1.35Z"/>
    <path class="st0" d="M311.9,48.16c-.44-.09-.85-.22-1.24-.36l-6.87,3.35c2.17,2.36,4.72,3.15,7.68,3.15,1.58,0,3.35-.2,4.92-1.18v-4.66c-.38.01-.75.02-1.1.02-1.23,0-2.35-.11-3.38-.32Z"/>
    <path class="st0" d="M302.34,48c.33.81.75,1.53,1.25,2.17l2.36-1.18.2-12.21-2.75,1.18v10.04h-1.06Z"/>
    <path class="st0" d="M398.48,41.11c-2.17,0-4.33-1.57-5.12-3.54v6.89l2.17,1.77c1.77-1.18,4.72-3.54,6.1-5.91-.98.59-1.77.79-3.15.79Z"/>
    <path class="st0" d="M395.72,47.02c-3.35,1.97-5.91,4.72-6.89,6.3,1.57-.98,3.15-.98,3.74-.98,2.36,0,4.72,1.57,5.71,3.74l-.2-7.09-2.36-1.97Z"/>
    <path class="st0" d="M321.27,47.81c-.28.07-.57.14-.85.2-.95.19-1.85.31-2.7.38-.25.02-.5.03-.74.04v3.91c1.71-.93,3.17-2.61,4.29-4.53Z"/>
    <path class="st0" d="M78.57,39.68c.11.23.21.44.29.62.17.39.27.59.3.62h.08s.13-.23.3-.62c.12-.27.28-.62.45-.99l-.44-.36-.98.73Z"/>
    <path class="st0" d="M68.68,38.04c-.72-1.23-1.42-2.43-2.1-3.62-.4-.7-.77-1.33-1.12-1.94-.82.37-1.73.56-2.65.56v6.1l3.15,2.56v.2l-3.15,2.56v8.07c1.04-.57,1.99-1.42,2.83-2.43-.16-.27-.26-.44-.28-.46.18.04.38.07.56.11.78-1,1.46-2.14,2.01-3.33h.39c0,1.22-.18,2.43-.52,3.59,0,0,.01,0,.02,0,.87.07,1.71.05,2.54-.04.76-.09,1.47-.28,2.13-.56l.04-4.74c-.53-.89-1.11-1.89-1.76-3.02-.68-1.19-1.38-2.39-2.1-3.62Z"/>
    <path class="st0" d="M316.39,35.81v-1.5c-.5.07-.98.14-1.44.22-.76.13-1.44.29-2.04.48-.43.13-.76.26-1.04.38v1.11c.37-.12.74-.22,1.14-.31,1.03-.23,2.18-.34,3.38-.38Z"/>
    <polygon class="st0" points="376.43 38.16 376.04 38.36 376.04 48.01 380.76 45.05 376.43 38.16"/>
    <polygon class="st3" points="48.84 37.96 50.08 37.96 50.08 48 51.59 48 51.59 36.78 48.84 37.96"/>
    <path class="st3" d="M60.12,26.51v-4.54h-10.04v1.66c1.83.15,3.95.86,6.23,1.74,1.16.42,2.55.84,3.81,1.14Z"/>
    <path class="st3" d="M65.46,32.48c.35.61.72,1.24,1.12,1.94.68,1.19,1.38,2.39,2.1,3.62.72,1.23,1.42,2.43,2.1,3.62.65,1.13,1.23,2.13,1.76,3.02l.12-13.41c0-2.17-1.18-2.56-1.97-2.95v-.19h-2.02c-.26,2.15-1.56,3.62-3.21,4.36Z"/>
    <path class="st3" d="M78.29,39.1c-.04-.09-.08-.17-.13-.26-.06-.12-.13-.26-.19-.39v.88l.32-.24Z"/>
    <polygon class="st3" points="99.04 38.16 98.65 38.36 98.65 48.01 103.37 45.05 99.04 38.16"/>
    <polygon class="st3" points="106.56 55.6 106.56 53.84 104.35 55.6 106.56 55.6"/>
    <path class="st3" d="M123.16,30.3c-1.12-.84-2.4-1.47-3.84-1.88-1.44-.41-2.92-.62-4.44-.62-.35,0-.85.02-1.52.06-.67.04-1.39.13-2.18.28-.79.15-1.59.35-2.4.6-.81.25-1.57.59-2.26,1.02v-1.68h-8.76v10.04l5.41-2.91,3.43,5.15v-4.63c.32-.21.71-.39,1.18-.54.47-.15.94-.27,1.42-.38.48-.11.96-.19,1.44-.24.48-.05.91-.08,1.28-.08.91,0,1.73.07,2.46.22s1.36.37,1.88.68c.52.31.92.69,1.2,1.14.28.45.42,1,.42,1.64,0,.48-.07.91-.22,1.3-.15.39-.35.71-.62.98-.27.27-.59.49-.96.68-.37.19-.77.33-1.2.44-.43.11-.88.19-1.36.24-.48.05-.97.08-1.48.08-.59,0-1.13-.03-1.64-.1-.51-.07-.97-.16-1.4-.28s-.83-.25-1.22-.4c-.3-.11-.61-.24-.92-.36l1.03,1.55v.2l-9.25,6.3v2.36l4.92,3.94,3-2.28v-6.29c.67.35,1.36.65,2.08.9.72.25,1.44.45,2.16.58.72.13,1.45.23,2.18.3.73.07,1.46.1,2.18.1,1.01,0,2.01-.09,2.98-.26.97-.17,1.89-.44,2.76-.8.87-.36,1.67-.82,2.4-1.38s1.37-1.22,1.9-1.98c.53-.76.95-1.63,1.26-2.62.31-.99.46-2.08.46-3.28,0-1.76-.35-3.29-1.04-4.58-.69-1.29-1.6-2.36-2.72-3.2Z"/>
    <path class="st3" d="M153,30.52c-1.17-.91-2.57-1.6-4.2-2.08-1.63-.48-3.43-.72-5.4-.72-1.31,0-2.57.11-3.78.32-1.21.21-2.34.52-3.38.92s-1.99.91-2.84,1.52c-.85.61-1.58,1.32-2.18,2.12-.6.8-1.07,1.69-1.4,2.68-.33.99-.5,2.05-.5,3.2,0,1.52.29,2.89.86,4.12.57,1.23,1.44,2.27,2.6,3.12s2.62,1.51,4.38,1.96,3.81.68,6.16.68c1.15,0,2.26-.05,3.34-.16,1.08-.11,2.11-.27,3.08-.5s1.9-.53,2.78-.9c.88-.37,1.69-.83,2.44-1.36,0-.03-.07-.18-.22-.46s-.33-.63-.54-1.06c-.21-.43-.44-.89-.68-1.38-.24-.49-.47-.95-.68-1.38-.21-.43-.39-.78-.54-1.06-.15-.28-.22-.43-.22-.46-.48.32-1.04.61-1.68.88-.64.27-1.32.5-2.04.7-.72.2-1.47.35-2.24.46-.77.11-1.52.16-2.24.16-.48,0-.95-.02-1.4-.06-.45-.04-.89-.11-1.3-.22-.41-.11-.79-.24-1.12-.4-.33-.16-.63-.35-.88-.58-.25-.23-.45-.49-.6-.8-.15-.31-.23-.65-.26-1.02h18.36v-.6c0-1.6-.32-3.05-.96-4.34-.64-1.29-1.55-2.39-2.72-3.3ZM138.44,35.88c.13-.4.36-.73.68-1,.32-.27.69-.48,1.12-.64.43-.16.89-.28,1.38-.36s.95-.12,1.38-.12c.32,0,.63.01.92.04.29.03.58.07.86.14.28.07.55.15.8.26.25.11.49.23.7.38.21.15.41.33.58.56.17.23.31.47.42.74h-8.84Z"/>
    <path class="st3" d="M175.76,27.36c-.67,0-1.32.08-1.96.24-.64.16-1.25.42-1.82.78-.57.36-1.1.81-1.58,1.36-.48.55-.89,1.21-1.24,1.98-.11-.03-.17-.04-.2-.04v-3.56h-8.68v19.88h8.88v-10.4c.16-.45.39-.84.7-1.16.31-.32.68-.59,1.12-.8.44-.21.93-.37,1.46-.48.53-.11,1.09-.16,1.68-.16.64,0,1.3.05,1.98.16.68.11,1.37.27,2.06.48v-7.96c-.4-.11-.8-.19-1.2-.24-.4-.05-.8-.08-1.2-.08Z"/>
    <rect class="st3" x="180.92" y="33.16" width="15.52" height="6.24"/>
    <path class="st3" d="M215.72,40.84h-.04s-.05-.22-.24-.58c-.19-.36-.43-.84-.74-1.44-.31-.6-.65-1.28-1.02-2.04-.37-.76-.76-1.53-1.16-2.32-.4-.79-.79-1.56-1.16-2.32-.37-.76-.71-1.44-1.02-2.04-.31-.6-.55-1.08-.74-1.44-.19-.36-.28-.55-.28-.58h-10.36s.21.33.54.9c.33.57.77,1.33,1.32,2.26s1.17,1.99,1.86,3.18c.69,1.19,1.4,2.39,2.12,3.62.72,1.23,1.42,2.43,2.1,3.62s1.29,2.25,1.84,3.18c.55.93.99,1.69,1.32,2.26.33.57.51.87.54.9h10.08c.05-.11.26-.46.62-1.06.36-.6.81-1.36,1.34-2.28.53-.92,1.13-1.95,1.8-3.1.67-1.15,1.35-2.32,2.06-3.52.71-1.2,1.39-2.37,2.06-3.52.67-1.15,1.27-2.18,1.8-3.1s.98-1.68,1.34-2.28c.36-.6.57-.95.62-1.06h-10.36l-6.24,12.76Z"/>
    <rect class="st3" x="235" y="28.12" width="8.84" height="19.88"/>
    <rect class="st3" x="234.96" y="18.88" width="8.88" height="6.6"/>
    <path class="st3" d="M270.1,37.1c-.71-.49-1.51-.89-2.42-1.2-.91-.31-1.83-.56-2.76-.76-.93-.2-1.85-.35-2.76-.46-.91-.11-1.71-.21-2.42-.3-.71-.09-1.27-.2-1.7-.32-.43-.12-.64-.29-.64-.5,0-.08.05-.15.14-.22.09-.07.22-.12.38-.16s.36-.07.6-.08c.24-.01.49-.02.76-.02,1.12,0,2.17.05,3.14.16.97.11,1.89.25,2.76.42.87.17,1.67.39,2.4.66.73.27,1.41.56,2.02.88,0-.03.05-.18.14-.46.09-.28.21-.62.34-1.02.13-.4.27-.84.42-1.32.15-.48.29-.92.42-1.32.13-.4.25-.74.34-1.02.09-.28.14-.43.14-.46-.96-.35-1.93-.64-2.9-.88-.97-.24-1.95-.44-2.92-.6-.97-.16-1.92-.27-2.84-.34-.92-.07-1.79-.1-2.62-.1-1.87,0-3.53.14-4.98.42-1.45.28-2.67.69-3.66,1.24-.99.55-1.74,1.23-2.26,2.04-.52.81-.78,1.77-.78,2.86,0,.96.21,1.79.64,2.5.43.71.99,1.3,1.68,1.78.69.48,1.49.87,2.38,1.18s1.8.56,2.72.76,1.83.36,2.72.48c.89.12,1.69.23,2.38.34.69.11,1.25.21,1.68.32.43.11.64.27.64.48,0,.11-.05.2-.16.28s-.25.15-.44.2c-.19.05-.41.09-.66.12-.25.03-.54.04-.86.04-1.23,0-2.43-.07-3.62-.22-1.19-.15-2.29-.33-3.32-.56-1.03-.23-1.95-.48-2.78-.76-.83-.28-1.51-.55-2.04-.82,0,.03-.05.17-.16.44-.11.27-.24.61-.4,1.02-.16.41-.33.85-.5,1.3-.17.45-.34.89-.5,1.3-.16.41-.29.75-.4,1.02-.11.27-.16.41-.16.44,1.07.48,2.16.88,3.28,1.2,1.12.32,2.24.58,3.36.78,1.12.2,2.22.34,3.3.42,1.08.08,2.13.12,3.14.12,2.08,0,3.88-.17,5.4-.52,1.52-.35,2.77-.82,3.76-1.42s1.72-1.32,2.2-2.16c.48-.84.72-1.75.72-2.74s-.21-1.89-.64-2.62c-.43-.73-.99-1.35-1.7-1.84Z"/>
    <path class="st3" d="M302.01,37.77l1.39-.61v-1.76c-.56.71-1.05,1.49-1.39,2.37Z"/>
    <path class="st3" d="M301.42,42.69c0,2.14.33,3.88.92,5.32h1.06v-10.04l-1.39.59c-.39,1.18-.59,2.76-.59,4.13Z"/>
    <path class="st3" d="M314.94,34.52c.46-.08.95-.15,1.44-.22v-1.07c-1.25-.16-3.36-.56-5.55-1.11l.33,1.61.7-.31v1.94c.29-.12.62-.24,1.04-.38.6-.19,1.28-.35,2.04-.48Z"/>
    <path class="st3" d="M350.16,35.27v-14.51h-8.84v14.59l3.41,3.98,5.42-4.07Z"/>
    <polygon class="st3" points="346.31 38.75 344.54 39.93 344.54 48 349.26 48 349.26 41.51 346.31 38.75"/>
    <path class="st1" d="M341.32,45.78v-10.43l-.13-.15-5.71,3.94.2.59,1.38-.98,1.97,2.17v12.8l-1.57,1.57,4.53,3.74,4.33-3.94-1.77-1.77v-5.32h-3.22v-2.22Z"/>
    <path class="st1" d="M332.12,48.48c-.61,0-1.21-.04-1.78-.12s-1.11-.22-1.62-.42c-.51-.2-.95-.47-1.32-.82-.23-.21-.41-.46-.58-.73v7.32l-2.56,1.97.2.39,1.38-.98,4.33,3.94,5.91-3.94-.2-.59-1.57.98-1.97-1.97v-5.04c-.07,0-.14,0-.21,0Z"/>
    <path class="st1" d="M65.68,50.16s-.02-.04-.03-.06c-.84,1.01-1.79,1.86-2.83,2.43v-8.07l3.15-2.56v-.2l-3.15-2.56v-6.1c.91,0,1.82-.19,2.65-.56-.25-.42-.49-.84-.72-1.22-.55-.92-.99-1.67-1.32-2.24-.33-.57-.5-.87-.5-.9h5.75c.03-.26.05-.52.05-.79,0-3.94-3.74-4.92-6.69-4.92v.59c1.77,0,3.15.59,3.15,1.97,0,.79-.59,1.97-2.36,1.97-.64,0-1.61-.17-2.69-.43v6.19c.82.16,1.55.28,2.1.35v6.1l-2.1,1.82v1.67l2.1,1.82v8.47c-1.58.98-3.35,1.18-4.92,1.18-2.95,0-5.51-.79-7.68-3.15l6.05-2.95h-4.09v.98l-2.36,1.18c-1.38-1.77-2.17-4.13-2.17-7.48,0-1.38,0-2.95.39-4.13l1.38-.59h-4.89c-1.48,2.17-2.39,4.72-2.39,7.48,0,7.87,6.5,13.78,13.78,13.78,5.42,0,9.53-2.98,11.57-6.95-.19-.33-.37-.64-.54-.93-.27-.47-.49-.86-.68-1.18Z"/>
    <path class="st1" d="M72.76,56.06l3.05,2.77,5.91-3.94-.2-.39-1.57.98-1.48-1.48c-1.06.69-2.24,1.25-3.56,1.64-.66.2-1.39.33-2.15.41Z"/>
    <path class="st1" d="M331.62,29.96c.2.15.38.31.56.47l1.33-1.13v-.2l-3.54-3.74h-.2l-3.15,2.68c.35.06.7.12,1.02.2,1.6.37,2.93.95,3.98,1.72Z"/>
    <path class="st1" d="M47.66,29.7c.71,0,1.52.13,2.43.34v-6.42c-.22-.02-.44-.03-.66-.03-3.94,0-6.69,2.95-6.69,6.3,0,.43.06.8.14,1.15h2.27c.36-.67,1.14-1.35,2.52-1.35Z"/>
    <path class="st1" d="M316.98,52.34v-3.91c-.2.01-.4.02-.59.03v4.66c-1.58.98-3.35,1.18-4.92,1.18-2.95,0-5.51-.79-7.68-3.15l6.87-3.35c-.52-.19-1.01-.4-1.44-.68-.76-.48-1.35-1.11-1.78-1.88-.43-.77-.64-1.71-.64-2.8s.25-2.09.76-2.92c.51-.83,1.22-1.52,2.14-2.08.63-.38,1.35-.7,2.16-.95v-1.11c-.12.05-.24.1-.34.14l-.36-1.78-7.76,3.41v.8l2.75-1.18-.2,12.21-2.36,1.18c-.5-.64-.91-1.36-1.25-2.17h-6.35c1.31,6.46,7.1,11.03,13.5,11.03,7.36,0,12.32-5.51,12.93-11.54-.39.12-.77.22-1.15.31-1.12,1.92-2.58,3.6-4.29,4.53Z"/>
    <path class="st1" d="M380.96,55.09l-4.92-3.94v-2.36l9.25-6.3v-.2l-4.72-7.09-10.24,5.51v13.39l6.89,4.92,8.86-7.09-.2-.59-4.92,3.74ZM376.04,38.36l.39-.2,4.33,6.89-4.72,2.95v-9.65Z"/>
    <path class="st1" d="M67.93,46.43c-.55,1.19-1.23,2.32-2.01,3.33.6.12,1.22.22,1.88.27.34-1.16.52-2.37.52-3.59h-.39Z"/>
    <path class="st1" d="M403.8,46.23l-3.74-2.95c2.56-2.17,3.54-5.12,3.54-7.09v-1.18h-.39c-.39.98-1.18,1.97-2.76,1.97s-2.56-.79-3.54-1.97l-8.86,4.92v7.09l3.35,2.56c-3.35,2.95-3.94,4.92-3.94,6.5,0,1.97.98,3.35,2.56,3.94l.2-.39c-.39-.39-.79-.59-.79-1.57,0-.59.79-1.58,2.36-1.58,1.97,0,3.15,1.38,3.74,1.97l8.47-5.12v-7.09h-.2ZM392.57,52.34c-.59,0-2.17,0-3.74.98.98-1.58,3.54-4.33,6.89-6.3l2.36,1.97.2,7.09c-.98-2.17-3.35-3.74-5.71-3.74ZM395.53,46.23l-2.17-1.77v-6.89c.79,1.97,2.95,3.54,5.12,3.54,1.38,0,2.17-.2,3.15-.79-1.38,2.36-4.33,4.72-6.1,5.91Z"/>
    <path class="st1" d="M79.55,38.95l.44.36c.07-.15.14-.3.21-.47.24-.52.51-1.12.81-1.78l-2.72,2.04c.1.2.2.4.28.58l.98-.73Z"/>
    <path class="st1" d="M72.66,49.36c.71-.32,1.3-.79,1.78-1.4,0-.03-.17-.33-.5-.9-.33-.57-.77-1.32-1.32-2.24-.03-.04-.06-.1-.08-.14l-.04,4.74c.05-.02.11-.04.17-.06Z"/>
    <path class="st1" d="M367.37,55.29l-2.17-1.97v-13.39l1.97-1.58-.39-.39-1.58,1.38-4.53-4.13-5.91,4.13-4.53-4.13-.09.07v12.73h-.9v5.32l-1.57,1.57,4.53,3.74,4.33-3.94-1.77-1.77v-12.99l1.57-.98,3.15,2.76v11.81l-1.38,1.38,4.53,4.13,6.1-4.13v-.59h0l-1.38.98Z"/>
    <path class="st1" d="M73.3,28.74c.17.39.41.87.7,1.46.29.59.62,1.26.98,2.02.36.76.73,1.53,1.1,2.3.37.77.74,1.54,1.1,2.3.29.61.55,1.14.79,1.63v-15.26h-.39l-6.89,4.72v.2h2.31s.13.23.3.62Z"/>
    <path class="st1" d="M89.19,38.75l-4.15,7.29c-.68,1.2-1.4,2.33-2.15,3.41v4.25c0,7.48-1.58,8.66-4.92,9.84v.59c5.51.2,10.63-1.58,10.63-11.22v-12.99l1.77-1.38-.39-.39-.79.59Z"/>
    <path class="st1" d="M106.87,40.75l-.26-.39v.29c.09.04.17.07.26.1Z"/>
    <path class="st1" d="M303.4,30.06c1.53.28,3.41.89,5.7,1.61.58.16,1.16.32,1.74.46l-.56-2.76c.93-.29,1.89-.55,2.86-.76.97-.21,1.96-.39,2.96-.52,1-.13,1.99-.23,2.98-.3.99-.07,1.93-.1,2.84-.1.39,0,.77.01,1.14.02,0-.13.02-.25.02-.38,0-3.94-3.74-4.92-6.69-4.92v.59c1.77,0,3.15.59,3.15,1.97,0,.79-.59,1.97-2.36,1.97-1.38,0-4.33-.79-6.5-1.58-2.56-.79-4.92-1.57-6.89-1.57-3.14,0-5.52,1.88-6.36,4.34h5.98v1.93Z"/>
    <polygon class="st1" points="108.69 52.14 108.49 51.35 106.56 52.81 106.56 53.84 108.69 52.14"/>
    <path class="st1" d="M316.39,35.81c.27,0,.51-.04.79-.04v-1.56c-.27.03-.53.06-.79.1v1.5Z"/>
    <path class="st1" d="M316.92,40.34c-.32.15-.55.32-.68.52-.13.2-.2.42-.2.66,0,.19.04.36.12.52s.22.3.42.42.46.21.78.26c.32.05.71.08,1.16.08.09,0,.18,0,.26,0l1.34-1.09v-.2l-1.73-1.5c-.07,0-.15.01-.21.02-.52.07-.94.17-1.26.32Z"/>
    <path class="st1" d="M307.13,32.06l-.2-.39c-1.22.32-2.41.82-3.53,1.44v2.29c1.07-1.35,2.44-2.43,3.73-3.34Z"/>
    <polygon class="st1" points="97.76 38.12 92.94 40.72 92.94 53.71 90.97 55.29 91.36 55.68 93.13 54.3 99.83 59.23 104.35 55.6 97.76 55.6 97.76 38.12"/>
    <path class="st1" d="M51.59,36.78v11.22h4.09l2.02-.98v-13.58l-9.84,4.33c.79-2.56,2.95-4.33,5.12-5.51l-.2-.59c-3.47.93-6.73,3.22-8.83,6.3h4.89l2.76-1.18Z"/>
    <path class="st1" d="M54.94,31.47c1.79.51,3.66.94,5.18,1.23v-6.19c-1.25-.3-2.64-.72-3.81-1.14-2.28-.88-4.41-1.59-6.23-1.74v6.42c1.37.32,2.97.84,4.86,1.43Z"/>
    <path class="st1" d="M77.97,40.13l.6-.45c-.08-.17-.18-.38-.28-.58l-.32.24v-.88c-.24-.49-.5-1.03-.79-1.63-.36-.76-.73-1.53-1.1-2.3-.37-.77-.74-1.54-1.1-2.3-.36-.76-.69-1.43-.98-2.02-.29-.59-.53-1.07-.7-1.46s-.27-.59-.3-.62h-2.31v.19c.79.39,1.97.79,1.97,2.95l-.12,13.41s.06.1.08.14c.55.92.99,1.67,1.32,2.24.33.57.5.87.5.9-.48.61-1.07,1.08-1.78,1.4-.05.02-.11.04-.17.06l-.04,4.09-2.56,1.97.39.39,1.18-.98,1.28,1.16c.76-.09,1.49-.22,2.15-.41,1.32-.39,2.5-.94,3.56-1.64l-.49-.49v-13.39Z"/>
    <path class="st1" d="M63.42,29.02c.33.57.77,1.32,1.32,2.24.23.38.47.8.72,1.22,1.65-.74,2.95-2.21,3.21-4.36h-5.75s.17.33.5.9Z"/>
    <path class="st1" d="M98.65,51.15v-2.36l9.25-6.3v-.2l-1.03-1.55c-.09-.03-.17-.07-.26-.1v-.29l-3.43-5.15-5.41,2.91v17.48h6.59l2.21-1.77v-1.02l-3,2.28-4.92-3.94ZM98.65,38.36l.39-.2,4.33,6.89-4.72,2.95v-9.65Z"/>
    <path class="st1" d="M301.42,42.69c0-1.38.2-2.95.59-4.13l1.39-.59v-.8l-1.39.61c.34-.88.82-1.66,1.39-2.37v-2.29c-4.33,2.4-7.69,6.83-7.69,12.14,0,.95.1,1.87.28,2.76h6.35c-.59-1.44-.92-3.17-.92-5.32Z"/>
    <path class="st1" d="M311.86,36.49c-.8.25-1.52.57-2.16.95-.92.56-1.63,1.25-2.14,2.08-.51.83-.76,1.8-.76,2.92s.21,2.03.64,2.8c.43.77,1.02,1.4,1.78,1.88.43.27.92.49,1.44.68l1.2-.58v-10.72Z"/>
    <path class="st1" d="M328.72,47.94c.51.2,1.05.34,1.62.42s1.17.12,1.78.12c.07,0,.14,0,.21,0v-8.54l1.97-1.38-.39-.39-1.38,1.18-3.54-4.13-5.71,3.94.39.59,1.38-.98,1.77,2.17v5.48c.17.27.35.52.58.73.37.35.81.62,1.32.82Z"/>
    <path class="st1" d="M311.16,33.74l.36,1.78c.09-.05.22-.1.34-.14v-1.94l-.7.31Z"/>
    <path class="st1" d="M322.09,46.23c-.25.54-.53,1.06-.83,1.57.38-.09.76-.2,1.15-.31.04-.42.07-.84.07-1.26h-.39Z"/>
    <path class="st1" d="M319.08,27.78c-.99.07-1.98.17-2.98.3-1,.13-1.99.31-2.96.52-.97.21-1.93.47-2.86.76l.56,2.76c2.19.55,4.3.96,5.55,1.11v1.07c.26-.03.52-.07.79-.1v-1.17c2.85,0,5.69-1.84,5.89-5.33-.37-.01-.75-.02-1.14-.02-.91,0-1.85.03-2.84.1Z"/>
    <path class="st1" d="M350.16,45.76v-10.49l-5.42,4.07-3.41-3.98v12.65h3.22v-8.07l1.77-1.18,2.95,2.76v6.5h.9v-2.24Z"/>
  </g>
</svg>