<svg width="280" height="89" viewBox="0 0 280 89" fill="none" xmlns="http://www.w3.org/2000/svg">
<g clip-path="url(#clip0_6125_41760)">
<path d="M12.0004 65L14.5104 58.31H15.5604L18.0604 65H17.0604L16.5504 63.54H13.5104L13.0004 65H12.0004ZM13.8004 62.73H16.2604L15.0304 59.26L13.8004 62.73ZM24.1129 65.12C23.7262 65.12 23.3996 65.0433 23.1329 64.89C22.8662 64.73 22.6562 64.5167 22.5029 64.25L22.2829 65H21.6629V58.32H22.5029V60.82C22.6562 60.56 22.8662 60.3533 23.1329 60.2C23.3996 60.04 23.7262 59.96 24.1129 59.96C24.4929 59.96 24.8429 60.0633 25.1629 60.27C25.4896 60.47 25.7496 60.7633 25.9429 61.15C26.1429 61.53 26.2429 61.9933 26.2429 62.54C26.2429 63.0867 26.1429 63.5533 25.9429 63.94C25.7496 64.32 25.4896 64.6133 25.1629 64.82C24.8429 65.02 24.4929 65.12 24.1129 65.12ZM23.8929 64.4C24.3196 64.4 24.6596 64.2367 24.9129 63.91C25.1729 63.5833 25.3029 63.1267 25.3029 62.54C25.3029 61.9467 25.1729 61.49 24.9129 61.17C24.6596 60.8433 24.3196 60.68 23.8929 60.68C23.4662 60.68 23.1229 60.8433 22.8629 61.17C22.6096 61.49 22.4829 61.9467 22.4829 62.54C22.4829 63.1267 22.6096 63.5833 22.8629 63.91C23.1229 64.2367 23.4662 64.4 23.8929 64.4ZM28.897 65.12C28.5103 65.12 28.2003 65.04 27.967 64.88C27.7336 64.7133 27.5636 64.4867 27.457 64.2C27.357 63.9067 27.307 63.5733 27.307 63.2V60.03H28.147V63C28.147 63.3667 28.1903 63.65 28.277 63.85C28.3636 64.05 28.4836 64.19 28.637 64.27C28.797 64.3433 28.9803 64.38 29.187 64.38C29.5803 64.38 29.887 64.2433 30.107 63.97C30.3336 63.69 30.447 63.2867 30.447 62.76V60.03H31.287V65H30.657L30.447 64.28C30.307 64.52 30.117 64.72 29.877 64.88C29.637 65.04 29.3103 65.12 28.897 65.12ZM35.1383 65.12C34.7516 65.12 34.4249 65.0433 34.1583 64.89C33.8916 64.73 33.6816 64.5167 33.5283 64.25L33.3083 65H32.6883V58.32H33.5283V60.82C33.6816 60.56 33.8916 60.3533 34.1583 60.2C34.4249 60.04 34.7516 59.96 35.1383 59.96C35.5183 59.96 35.8683 60.0633 36.1883 60.27C36.5149 60.47 36.7749 60.7633 36.9683 61.15C37.1683 61.53 37.2683 61.9933 37.2683 62.54C37.2683 63.0867 37.1683 63.5533 36.9683 63.94C36.7749 64.32 36.5149 64.6133 36.1883 64.82C35.8683 65.02 35.5183 65.12 35.1383 65.12ZM34.9183 64.4C35.3449 64.4 35.6849 64.2367 35.9383 63.91C36.1983 63.5833 36.3283 63.1267 36.3283 62.54C36.3283 61.9467 36.1983 61.49 35.9383 61.17C35.6849 60.8433 35.3449 60.68 34.9183 60.68C34.4916 60.68 34.1483 60.8433 33.8883 61.17C33.6349 61.49 33.5083 61.9467 33.5083 62.54C33.5083 63.1267 33.6349 63.5833 33.8883 63.91C34.1483 64.2367 34.4916 64.4 34.9183 64.4ZM40.8023 65.12C40.4157 65.12 40.089 65.0433 39.8223 64.89C39.5557 64.73 39.3457 64.5167 39.1923 64.25L38.9723 65H38.3523V58.32H39.1923V60.82C39.3457 60.56 39.5557 60.3533 39.8223 60.2C40.089 60.04 40.4157 59.96 40.8023 59.96C41.1823 59.96 41.5323 60.0633 41.8523 60.27C42.179 60.47 42.439 60.7633 42.6323 61.15C42.8323 61.53 42.9323 61.9933 42.9323 62.54C42.9323 63.0867 42.8323 63.5533 42.6323 63.94C42.439 64.32 42.179 64.6133 41.8523 64.82C41.5323 65.02 41.1823 65.12 40.8023 65.12ZM40.5823 64.4C41.009 64.4 41.349 64.2367 41.6023 63.91C41.8623 63.5833 41.9923 63.1267 41.9923 62.54C41.9923 61.9467 41.8623 61.49 41.6023 61.17C41.349 60.8433 41.009 60.68 40.5823 60.68C40.1557 60.68 39.8123 60.8433 39.5523 61.17C39.299 61.49 39.1723 61.9467 39.1723 62.54C39.1723 63.1267 39.299 63.5833 39.5523 63.91C39.8123 64.2367 40.1557 64.4 40.5823 64.4ZM45.1864 65C44.8731 65 44.6297 64.97 44.4564 64.91C44.2897 64.8433 44.1731 64.72 44.1064 64.54C44.0464 64.36 44.0164 64.1 44.0164 63.76V58.33H44.8564V63.62C44.8564 63.8733 44.8831 64.0433 44.9364 64.13C44.9897 64.2167 45.1331 64.26 45.3664 64.26H45.5564V65H45.1864ZM48.519 65.12C47.999 65.12 47.559 65.0067 47.199 64.78C46.839 64.5467 46.5623 64.2367 46.369 63.85C46.1823 63.4567 46.089 63.0167 46.089 62.53C46.089 62.0033 46.1957 61.55 46.409 61.17C46.6223 60.7833 46.909 60.4867 47.269 60.28C47.6357 60.0667 48.0457 59.96 48.499 59.96C48.8923 59.96 49.239 60.04 49.539 60.2C49.839 60.3533 50.0857 60.5633 50.279 60.83C50.479 61.09 50.6223 61.3867 50.709 61.72C50.8023 62.0533 50.8357 62.3967 50.809 62.75H46.989C47.0023 63.1633 47.0923 63.49 47.259 63.73C47.4323 63.97 47.6357 64.14 47.869 64.24C48.1023 64.3333 48.319 64.38 48.519 64.38C48.799 64.38 49.0323 64.3367 49.219 64.25C49.4123 64.1567 49.5657 64.0367 49.679 63.89L50.489 64.13C50.309 64.4167 50.0523 64.6533 49.719 64.84C49.3857 65.0267 48.9857 65.12 48.519 65.12ZM46.999 62.08H49.919C49.919 61.8467 49.859 61.6233 49.739 61.41C49.6257 61.1967 49.4623 61.0233 49.249 60.89C49.0423 60.75 48.7923 60.68 48.499 60.68C48.2523 60.68 48.019 60.7267 47.799 60.82C47.579 60.9133 47.3957 61.0633 47.249 61.27C47.109 61.4767 47.0257 61.7467 46.999 62.08ZM0.725391 77V72.04H1.33539L1.60539 72.96C1.77872 72.66 2.01206 72.42 2.30539 72.24C2.60539 72.0533 2.96206 71.96 3.37539 71.96V72.83C3.32872 72.83 3.27872 72.83 3.22539 72.83C3.17872 72.83 3.13206 72.8333 3.08539 72.84C2.51872 72.8867 2.12206 73.0833 1.89539 73.43C1.67539 73.7767 1.56539 74.2567 1.56539 74.87V77H0.725391ZM6.23383 77.12C5.71383 77.12 5.27383 77.0067 4.91383 76.78C4.55383 76.5467 4.27716 76.2367 4.08383 75.85C3.89716 75.4567 3.80383 75.0167 3.80383 74.53C3.80383 74.0033 3.91049 73.55 4.12383 73.17C4.33716 72.7833 4.62383 72.4867 4.98383 72.28C5.35049 72.0667 5.76049 71.96 6.21383 71.96C6.60716 71.96 6.95383 72.04 7.25383 72.2C7.55383 72.3533 7.8005 72.5633 7.99383 72.83C8.19383 73.09 8.33716 73.3867 8.42383 73.72C8.51716 74.0533 8.55049 74.3967 8.52383 74.75H4.70383C4.71716 75.1633 4.80716 75.49 4.97383 75.73C5.14716 75.97 5.35049 76.14 5.58383 76.24C5.81716 76.3333 6.03383 76.38 6.23383 76.38C6.51383 76.38 6.74716 76.3367 6.93383 76.25C7.12716 76.1567 7.2805 76.0367 7.39383 75.89L8.20383 76.13C8.02383 76.4167 7.76716 76.6533 7.43383 76.84C7.10049 77.0267 6.70049 77.12 6.23383 77.12ZM4.71383 74.08H7.63383C7.63383 73.8467 7.57383 73.6233 7.45383 73.41C7.34049 73.1967 7.17716 73.0233 6.96383 72.89C6.75716 72.75 6.50716 72.68 6.21383 72.68C5.96716 72.68 5.73383 72.7267 5.51383 72.82C5.29383 72.9133 5.11049 73.0633 4.96383 73.27C4.82383 73.4767 4.74049 73.7467 4.71383 74.08ZM9.51445 78.61V72.04H10.1245L10.3545 72.82C10.5078 72.56 10.7178 72.3533 10.9845 72.2C11.2511 72.04 11.5778 71.96 11.9645 71.96C12.3445 71.96 12.6945 72.0633 13.0145 72.27C13.3411 72.47 13.6011 72.7633 13.7945 73.15C13.9945 73.53 14.0945 73.9933 14.0945 74.54C14.0945 75.08 13.9945 75.5433 13.7945 75.93C13.6011 76.3167 13.3411 76.6133 13.0145 76.82C12.6945 77.02 12.3445 77.12 11.9645 77.12C11.5778 77.12 11.2511 77.0433 10.9845 76.89C10.7178 76.73 10.5078 76.5167 10.3545 76.25V78.61H9.51445ZM11.7445 76.4C12.1711 76.4 12.5111 76.2367 12.7645 75.91C13.0245 75.5833 13.1545 75.1267 13.1545 74.54C13.1545 73.9467 13.0245 73.49 12.7645 73.17C12.5111 72.8433 12.1711 72.68 11.7445 72.68C11.3178 72.68 10.9745 72.8433 10.7145 73.17C10.4611 73.49 10.3345 73.9467 10.3345 74.54C10.3345 75.1267 10.4611 75.5833 10.7145 75.91C10.9745 76.2367 11.3178 76.4 11.7445 76.4ZM15.1785 77V72.04H15.7885L16.0585 72.96C16.2318 72.66 16.4652 72.42 16.7585 72.24C17.0585 72.0533 17.4152 71.96 17.8285 71.96V72.83C17.7818 72.83 17.7318 72.83 17.6785 72.83C17.6318 72.83 17.5852 72.8333 17.5385 72.84C16.9718 72.8867 16.5752 73.0833 16.3485 73.43C16.1285 73.7767 16.0185 74.2567 16.0185 74.87V77H15.1785ZM20.687 77.12C20.167 77.12 19.727 77.0067 19.367 76.78C19.007 76.5467 18.7303 76.2367 18.537 75.85C18.3503 75.4567 18.257 75.0167 18.257 74.53C18.257 74.0033 18.3636 73.55 18.577 73.17C18.7903 72.7833 19.077 72.4867 19.437 72.28C19.8036 72.0667 20.2136 71.96 20.667 71.96C21.0603 71.96 21.407 72.04 21.707 72.2C22.007 72.3533 22.2536 72.5633 22.447 72.83C22.647 73.09 22.7903 73.3867 22.877 73.72C22.9703 74.0533 23.0036 74.3967 22.977 74.75H19.157C19.1703 75.1633 19.2603 75.49 19.427 75.73C19.6003 75.97 19.8036 76.14 20.037 76.24C20.2703 76.3333 20.487 76.38 20.687 76.38C20.967 76.38 21.2003 76.3367 21.387 76.25C21.5803 76.1567 21.7336 76.0367 21.847 75.89L22.657 76.13C22.477 76.4167 22.2203 76.6533 21.887 76.84C21.5536 77.0267 21.1536 77.12 20.687 77.12ZM19.167 74.08H22.087C22.087 73.8467 22.027 73.6233 21.907 73.41C21.7936 73.1967 21.6303 73.0233 21.417 72.89C21.2103 72.75 20.9603 72.68 20.667 72.68C20.4203 72.68 20.187 72.7267 19.967 72.82C19.747 72.9133 19.5636 73.0633 19.417 73.27C19.277 73.4767 19.1936 73.7467 19.167 74.08ZM25.6576 77.12C25.3709 77.12 25.0876 77.0767 24.8076 76.99C24.5342 76.8967 24.2876 76.76 24.0676 76.58C23.8542 76.3933 23.6909 76.16 23.5776 75.88L24.3876 75.58C24.4609 75.8733 24.6209 76.0867 24.8676 76.22C25.1209 76.3467 25.3842 76.41 25.6576 76.41C25.8576 76.41 26.0442 76.38 26.2176 76.32C26.3976 76.26 26.5442 76.1733 26.6576 76.06C26.7709 75.9467 26.8276 75.8167 26.8276 75.67C26.8276 75.3967 26.7176 75.2033 26.4976 75.09C26.2842 74.9767 26.0276 74.89 25.7276 74.83L25.0376 74.69C24.7976 74.6367 24.5742 74.5633 24.3676 74.47C24.1609 74.37 23.9942 74.23 23.8676 74.05C23.7409 73.87 23.6776 73.63 23.6776 73.33C23.6776 73.03 23.7709 72.78 23.9576 72.58C24.1442 72.3733 24.3809 72.2167 24.6676 72.11C24.9609 72.0033 25.2676 71.95 25.5876 71.95C25.9809 71.95 26.3509 72.0333 26.6976 72.2C27.0509 72.36 27.3009 72.6133 27.4476 72.96L26.6576 73.25C26.5709 73.05 26.4176 72.9033 26.1976 72.81C25.9842 72.71 25.7609 72.66 25.5276 72.66C25.2742 72.66 25.0442 72.7167 24.8376 72.83C24.6309 72.9433 24.5276 73.1067 24.5276 73.32C24.5276 73.5333 24.6142 73.69 24.7876 73.79C24.9676 73.8833 25.1876 73.9567 25.4476 74.01L26.0976 74.14C26.3642 74.1933 26.6176 74.27 26.8576 74.37C27.0976 74.47 27.2942 74.62 27.4476 74.82C27.6009 75.0133 27.6776 75.2867 27.6776 75.64C27.6776 75.9533 27.5809 76.22 27.3876 76.44C27.1942 76.66 26.9442 76.83 26.6376 76.95C26.3309 77.0633 26.0042 77.12 25.6576 77.12ZM30.7846 77.12C30.2646 77.12 29.8246 77.0067 29.4646 76.78C29.1046 76.5467 28.8279 76.2367 28.6346 75.85C28.4479 75.4567 28.3546 75.0167 28.3546 74.53C28.3546 74.0033 28.4613 73.55 28.6746 73.17C28.8879 72.7833 29.1746 72.4867 29.5346 72.28C29.9013 72.0667 30.3113 71.96 30.7646 71.96C31.1579 71.96 31.5046 72.04 31.8046 72.2C32.1046 72.3533 32.3513 72.5633 32.5446 72.83C32.7446 73.09 32.8879 73.3867 32.9746 73.72C33.0679 74.0533 33.1013 74.3967 33.0746 74.75H29.2546C29.2679 75.1633 29.3579 75.49 29.5246 75.73C29.6979 75.97 29.9013 76.14 30.1346 76.24C30.3679 76.3333 30.5846 76.38 30.7846 76.38C31.0646 76.38 31.2979 76.3367 31.4846 76.25C31.6779 76.1567 31.8313 76.0367 31.9446 75.89L32.7546 76.13C32.5746 76.4167 32.3179 76.6533 31.9846 76.84C31.6513 77.0267 31.2513 77.12 30.7846 77.12ZM29.2646 74.08H32.1846C32.1846 73.8467 32.1246 73.6233 32.0046 73.41C31.8913 73.1967 31.7279 73.0233 31.5146 72.89C31.3079 72.75 31.0579 72.68 30.7646 72.68C30.5179 72.68 30.2846 72.7267 30.0646 72.82C29.8446 72.9133 29.6613 73.0633 29.5146 73.27C29.3746 73.4767 29.2913 73.7467 29.2646 74.08ZM34.0652 77V72.04H34.6852L34.9052 72.79C35.0452 72.5567 35.2419 72.36 35.4952 72.2C35.7486 72.04 36.0852 71.96 36.5052 71.96C37.1052 71.96 37.5286 72.1367 37.7752 72.49C38.0219 72.8367 38.1452 73.2933 38.1452 73.86V77H37.3052V74.11C37.3052 73.8567 37.2819 73.6233 37.2352 73.41C37.1886 73.19 37.0852 73.0133 36.9252 72.88C36.7719 72.7467 36.5352 72.68 36.2152 72.68C35.8086 72.68 35.4886 72.82 35.2552 73.1C35.0219 73.3733 34.9052 73.7767 34.9052 74.31V77H34.0652ZM40.9073 77C40.5939 77 40.3506 76.97 40.1773 76.91C40.0106 76.8433 39.8939 76.72 39.8273 76.54C39.7673 76.36 39.7373 76.1 39.7373 75.76V72.71H38.8973V72.04H39.7373V70.79H40.5773V72.04H41.5373V72.71H40.5773V75.62C40.5773 75.8733 40.6006 76.0433 40.6473 76.13C40.7006 76.2167 40.8473 76.26 41.0873 76.26H41.5373V77H40.9073ZM44.3295 77.12C44.0428 77.12 43.7595 77.0767 43.4795 76.99C43.2061 76.8967 42.9595 76.76 42.7395 76.58C42.5261 76.3933 42.3628 76.16 42.2495 75.88L43.0595 75.58C43.1328 75.8733 43.2928 76.0867 43.5395 76.22C43.7928 76.3467 44.0561 76.41 44.3295 76.41C44.5295 76.41 44.7161 76.38 44.8895 76.32C45.0695 76.26 45.2161 76.1733 45.3295 76.06C45.4428 75.9467 45.4995 75.8167 45.4995 75.67C45.4995 75.3967 45.3895 75.2033 45.1695 75.09C44.9561 74.9767 44.6995 74.89 44.3995 74.83L43.7095 74.69C43.4695 74.6367 43.2461 74.5633 43.0395 74.47C42.8328 74.37 42.6661 74.23 42.5395 74.05C42.4128 73.87 42.3495 73.63 42.3495 73.33C42.3495 73.03 42.4428 72.78 42.6295 72.58C42.8161 72.3733 43.0528 72.2167 43.3395 72.11C43.6328 72.0033 43.9395 71.95 44.2595 71.95C44.6528 71.95 45.0228 72.0333 45.3695 72.2C45.7228 72.36 45.9728 72.6133 46.1195 72.96L45.3295 73.25C45.2428 73.05 45.0895 72.9033 44.8695 72.81C44.6561 72.71 44.4328 72.66 44.1995 72.66C43.9461 72.66 43.7161 72.7167 43.5095 72.83C43.3028 72.9433 43.1995 73.1067 43.1995 73.32C43.1995 73.5333 43.2861 73.69 43.4595 73.79C43.6395 73.8833 43.8595 73.9567 44.1195 74.01L44.7695 74.14C45.0361 74.1933 45.2895 74.27 45.5295 74.37C45.7695 74.47 45.9661 74.62 46.1195 74.82C46.2728 75.0133 46.3495 75.2867 46.3495 75.64C46.3495 75.9533 46.2528 76.22 46.0595 76.44C45.8661 76.66 45.6161 76.83 45.3095 76.95C45.0028 77.0633 44.6761 77.12 44.3295 77.12ZM51.5392 77.12C51.2259 77.12 50.9392 77.0633 50.6792 76.95C50.4192 76.8367 50.2126 76.6733 50.0592 76.46C49.9059 76.2467 49.8292 75.99 49.8292 75.69C49.8292 75.2967 49.9659 74.9867 50.2392 74.76C50.5192 74.5333 50.9092 74.36 51.4092 74.24C51.9159 74.1133 52.5059 74.0133 53.1792 73.94C53.1926 73.52 53.1092 73.1967 52.9292 72.97C52.7492 72.7433 52.4592 72.63 52.0592 72.63C51.7592 72.63 51.5126 72.7 51.3192 72.84C51.1326 72.9733 51.0126 73.16 50.9592 73.4L50.1492 73.16C50.2826 72.78 50.5192 72.4867 50.8592 72.28C51.2059 72.0667 51.6026 71.96 52.0492 71.96C52.7359 71.96 53.2359 72.1233 53.5492 72.45C53.8692 72.77 54.0292 73.2767 54.0292 73.97V75.13C54.0292 75.5433 54.0459 75.9 54.0792 76.2C54.1126 76.5 54.1526 76.7667 54.1992 77H53.4292L53.2292 76.32C53.0826 76.5667 52.8726 76.7633 52.5992 76.91C52.3259 77.05 51.9726 77.12 51.5392 77.12ZM51.7192 76.45C51.9792 76.45 52.2259 76.4033 52.4592 76.31C52.6926 76.2167 52.8826 76.06 53.0292 75.84C53.1759 75.6133 53.2492 75.3067 53.2492 74.92V74.61C52.7426 74.6633 52.3026 74.73 51.9292 74.81C51.5559 74.8833 51.2659 74.99 51.0592 75.13C50.8592 75.2633 50.7592 75.4433 50.7592 75.67C50.7592 75.9033 50.8426 76.0933 51.0092 76.24C51.1826 76.38 51.4192 76.45 51.7192 76.45ZM55.4129 77V72.04H56.0329L56.2529 72.79C56.3929 72.5567 56.5896 72.36 56.8429 72.2C57.0962 72.04 57.4329 71.96 57.8529 71.96C58.4529 71.96 58.8762 72.1367 59.1229 72.49C59.3696 72.8367 59.4929 73.2933 59.4929 73.86V77H58.6529V74.11C58.6529 73.8567 58.6296 73.6233 58.5829 73.41C58.5362 73.19 58.4329 73.0133 58.2729 72.88C58.1196 72.7467 57.8829 72.68 57.5629 72.68C57.1562 72.68 56.8362 72.82 56.6029 73.1C56.3696 73.3733 56.2529 73.7767 56.2529 74.31V77H55.4129ZM8.47016 83.1C8.30349 83.1 8.15682 83.04 8.03016 82.92C7.91016 82.7933 7.85016 82.6433 7.85016 82.47C7.85016 82.2967 7.91016 82.15 8.03016 82.03C8.15682 81.91 8.30349 81.85 8.47016 81.85C8.64349 81.85 8.79016 81.91 8.91016 82.03C9.03682 82.15 9.10016 82.2967 9.10016 82.47C9.10016 82.6433 9.03682 82.7933 8.91016 82.92C8.79016 83.04 8.64349 83.1 8.47016 83.1ZM8.05016 89V84.71H7.36016V84.04H8.89016V89H8.05016ZM10.3934 89V84.04H11.0134L11.2334 84.79C11.3734 84.5567 11.57 84.36 11.8234 84.2C12.0767 84.04 12.4134 83.96 12.8334 83.96C13.4334 83.96 13.8567 84.1367 14.1034 84.49C14.35 84.8367 14.4734 85.2933 14.4734 85.86V89H13.6334V86.11C13.6334 85.8567 13.61 85.6233 13.5634 85.41C13.5167 85.19 13.4134 85.0133 13.2534 84.88C13.1 84.7467 12.8634 84.68 12.5434 84.68C12.1367 84.68 11.8167 84.82 11.5834 85.1C11.35 85.3733 11.2334 85.7767 11.2334 86.31V89H10.3934ZM17.5549 89.12C17.1816 89.12 16.8316 89.02 16.5049 88.82C16.1783 88.6133 15.9149 88.32 15.7149 87.94C15.5216 87.5533 15.4249 87.0867 15.4249 86.54C15.4249 85.9933 15.5216 85.53 15.7149 85.15C15.9149 84.7633 16.1783 84.47 16.5049 84.27C16.8316 84.0633 17.1816 83.96 17.5549 83.96C17.9483 83.96 18.2783 84.04 18.5449 84.2C18.8116 84.3533 19.0183 84.56 19.1649 84.82V82.32H20.0049V87.13C20.0049 87.2967 20.0116 87.5433 20.0249 87.87C20.0383 88.19 20.0883 88.5667 20.1749 89H19.3849L19.1649 88.25C19.0183 88.5167 18.8116 88.73 18.5449 88.89C18.2783 89.0433 17.9483 89.12 17.5549 89.12ZM17.7749 88.4C18.2016 88.4 18.5416 88.2367 18.7949 87.91C19.0549 87.5833 19.1849 87.1267 19.1849 86.54C19.1849 85.9467 19.0549 85.49 18.7949 85.17C18.5416 84.8433 18.2016 84.68 17.7749 84.68C17.3483 84.68 17.0049 84.8433 16.7449 85.17C16.4916 85.49 16.3649 85.9467 16.3649 86.54C16.3649 87.1267 16.4916 87.5833 16.7449 87.91C17.0049 88.2367 17.3483 88.4 17.7749 88.4ZM22.2495 83.1C22.0828 83.1 21.9361 83.04 21.8095 82.92C21.6895 82.7933 21.6295 82.6433 21.6295 82.47C21.6295 82.2967 21.6895 82.15 21.8095 82.03C21.9361 81.91 22.0828 81.85 22.2495 81.85C22.4228 81.85 22.5695 81.91 22.6895 82.03C22.8161 82.15 22.8795 82.2967 22.8795 82.47C22.8795 82.6433 22.8161 82.7933 22.6895 82.92C22.5695 83.04 22.4228 83.1 22.2495 83.1ZM21.8295 89V84.71H21.1395V84.04H22.6695V89H21.8295ZM25.2427 89L23.4727 84.04H24.3827L25.6827 87.9L26.9727 84.04H27.8827L26.1127 89H25.2427ZM29.4467 83.1C29.2801 83.1 29.1334 83.04 29.0067 82.92C28.8867 82.7933 28.8267 82.6433 28.8267 82.47C28.8267 82.2967 28.8867 82.15 29.0067 82.03C29.1334 81.91 29.2801 81.85 29.4467 81.85C29.6201 81.85 29.7667 81.91 29.8867 82.03C30.0134 82.15 30.0767 82.2967 30.0767 82.47C30.0767 82.6433 30.0134 82.7933 29.8867 82.92C29.7667 83.04 29.6201 83.1 29.4467 83.1ZM29.0267 89V84.71H28.3367V84.04H29.8667V89H29.0267ZM33.1799 89.12C32.8066 89.12 32.4566 89.02 32.1299 88.82C31.8033 88.6133 31.5399 88.32 31.3399 87.94C31.1466 87.5533 31.0499 87.0867 31.0499 86.54C31.0499 85.9933 31.1466 85.53 31.3399 85.15C31.5399 84.7633 31.8033 84.47 32.1299 84.27C32.4566 84.0633 32.8066 83.96 33.1799 83.96C33.5733 83.96 33.9033 84.04 34.1699 84.2C34.4366 84.3533 34.6433 84.56 34.7899 84.82V82.32H35.6299V87.13C35.6299 87.2967 35.6366 87.5433 35.6499 87.87C35.6633 88.19 35.7133 88.5667 35.7999 89H35.0099L34.7899 88.25C34.6433 88.5167 34.4366 88.73 34.1699 88.89C33.9033 89.0433 33.5733 89.12 33.1799 89.12ZM33.3999 88.4C33.8266 88.4 34.1666 88.2367 34.4199 87.91C34.6799 87.5833 34.8099 87.1267 34.8099 86.54C34.8099 85.9467 34.6799 85.49 34.4199 85.17C34.1666 84.8433 33.8266 84.68 33.3999 84.68C32.9733 84.68 32.6299 84.8433 32.3699 85.17C32.1166 85.49 31.9899 85.9467 31.9899 86.54C31.9899 87.1267 32.1166 87.5833 32.3699 87.91C32.6299 88.2367 32.9733 88.4 33.3999 88.4ZM38.5845 89.12C38.1978 89.12 37.8878 89.04 37.6545 88.88C37.4211 88.7133 37.2511 88.4867 37.1445 88.2C37.0445 87.9067 36.9945 87.5733 36.9945 87.2V84.03H37.8345V87C37.8345 87.3667 37.8778 87.65 37.9645 87.85C38.0511 88.05 38.1711 88.19 38.3245 88.27C38.4845 88.3433 38.6678 88.38 38.8745 88.38C39.2678 88.38 39.5745 88.2433 39.7945 87.97C40.0211 87.69 40.1345 87.2867 40.1345 86.76V84.03H40.9745V89H40.3445L40.1345 88.28C39.9945 88.52 39.8045 88.72 39.5645 88.88C39.3245 89.04 38.9978 89.12 38.5845 89.12ZM43.7658 89.12C43.4524 89.12 43.1658 89.0633 42.9058 88.95C42.6458 88.8367 42.4391 88.6733 42.2858 88.46C42.1324 88.2467 42.0558 87.99 42.0558 87.69C42.0558 87.2967 42.1924 86.9867 42.4658 86.76C42.7458 86.5333 43.1358 86.36 43.6358 86.24C44.1424 86.1133 44.7324 86.0133 45.4058 85.94C45.4191 85.52 45.3358 85.1967 45.1558 84.97C44.9758 84.7433 44.6858 84.63 44.2858 84.63C43.9858 84.63 43.7391 84.7 43.5458 84.84C43.3591 84.9733 43.2391 85.16 43.1858 85.4L42.3758 85.16C42.5091 84.78 42.7458 84.4867 43.0858 84.28C43.4324 84.0667 43.8291 83.96 44.2758 83.96C44.9624 83.96 45.4624 84.1233 45.7758 84.45C46.0958 84.77 46.2558 85.2767 46.2558 85.97V87.13C46.2558 87.5433 46.2724 87.9 46.3058 88.2C46.3391 88.5 46.3791 88.7667 46.4258 89H45.6558L45.4558 88.32C45.3091 88.5667 45.0991 88.7633 44.8258 88.91C44.5524 89.05 44.1991 89.12 43.7658 89.12ZM43.9458 88.45C44.2058 88.45 44.4524 88.4033 44.6858 88.31C44.9191 88.2167 45.1091 88.06 45.2558 87.84C45.4024 87.6133 45.4758 87.3067 45.4758 86.92V86.61C44.9691 86.6633 44.5291 86.73 44.1558 86.81C43.7824 86.8833 43.4924 86.99 43.2858 87.13C43.0858 87.2633 42.9858 87.4433 42.9858 87.67C42.9858 87.9033 43.0691 88.0933 43.2358 88.24C43.4091 88.38 43.6458 88.45 43.9458 88.45ZM48.8095 89C48.4961 89 48.2528 88.97 48.0795 88.91C47.9128 88.8433 47.7961 88.72 47.7295 88.54C47.6695 88.36 47.6395 88.1 47.6395 87.76V82.33H48.4795V87.62C48.4795 87.8733 48.5061 88.0433 48.5595 88.13C48.6128 88.2167 48.7561 88.26 48.9895 88.26H49.1795V89H48.8095ZM51.722 89.12C51.4354 89.12 51.152 89.0767 50.872 88.99C50.5987 88.8967 50.352 88.76 50.132 88.58C49.9187 88.3933 49.7554 88.16 49.642 87.88L50.452 87.58C50.5254 87.8733 50.6854 88.0867 50.932 88.22C51.1854 88.3467 51.4487 88.41 51.722 88.41C51.922 88.41 52.1087 88.38 52.282 88.32C52.462 88.26 52.6087 88.1733 52.722 88.06C52.8354 87.9467 52.892 87.8167 52.892 87.67C52.892 87.3967 52.782 87.2033 52.562 87.09C52.3487 86.9767 52.092 86.89 51.792 86.83L51.102 86.69C50.862 86.6367 50.6387 86.5633 50.432 86.47C50.2254 86.37 50.0587 86.23 49.932 86.05C49.8054 85.87 49.742 85.63 49.742 85.33C49.742 85.03 49.8354 84.78 50.022 84.58C50.2087 84.3733 50.4454 84.2167 50.732 84.11C51.0254 84.0033 51.332 83.95 51.652 83.95C52.0454 83.95 52.4154 84.0333 52.762 84.2C53.1154 84.36 53.3654 84.6133 53.512 84.96L52.722 85.25C52.6354 85.05 52.482 84.9033 52.262 84.81C52.0487 84.71 51.8254 84.66 51.592 84.66C51.3387 84.66 51.1087 84.7167 50.902 84.83C50.6954 84.9433 50.592 85.1067 50.592 85.32C50.592 85.5333 50.6787 85.69 50.852 85.79C51.032 85.8833 51.252 85.9567 51.512 86.01L52.162 86.14C52.4287 86.1933 52.682 86.27 52.922 86.37C53.162 86.47 53.3587 86.62 53.512 86.82C53.6654 87.0133 53.742 87.2867 53.742 87.64C53.742 87.9533 53.6454 88.22 53.452 88.44C53.2587 88.66 53.0087 88.83 52.702 88.95C52.3954 89.0633 52.0687 89.12 51.722 89.12ZM55.0591 89.12C54.8857 89.12 54.7357 89.0567 54.6091 88.93C54.4824 88.8033 54.4191 88.6533 54.4191 88.48C54.4191 88.3 54.4824 88.1467 54.6091 88.02C54.7357 87.8933 54.8857 87.83 55.0591 87.83C55.2391 87.83 55.3924 87.8933 55.5191 88.02C55.6457 88.1467 55.7091 88.3 55.7091 88.48C55.7091 88.6533 55.6457 88.8033 55.5191 88.93C55.3924 89.0567 55.2391 89.12 55.0591 89.12Z" fill="black"/>
<circle cx="31.5" cy="32.5" r="17" fill="#FCF4E9" stroke="black"/>
<path d="M83.8142 65.12C83.1808 65.12 82.6375 64.9733 82.1842 64.68C81.7308 64.38 81.3842 63.97 81.1442 63.45C80.9042 62.93 80.7842 62.33 80.7842 61.65C80.7842 60.9567 80.9108 60.3533 81.1642 59.84C81.4242 59.32 81.7875 58.9167 82.2542 58.63C82.7208 58.3433 83.2675 58.2 83.8942 58.2C84.4542 58.2 84.9575 58.33 85.4042 58.59C85.8575 58.85 86.1975 59.2233 86.4242 59.71L85.6042 60.01C85.4575 59.71 85.2342 59.4667 84.9342 59.28C84.6408 59.0867 84.2775 58.99 83.8442 58.99C83.4508 58.99 83.0942 59.09 82.7742 59.29C82.4608 59.49 82.2108 59.79 82.0242 60.19C81.8375 60.5833 81.7442 61.07 81.7442 61.65C81.7442 62.21 81.8342 62.69 82.0142 63.09C82.1942 63.49 82.4442 63.7967 82.7642 64.01C83.0908 64.2233 83.4608 64.33 83.8742 64.33C84.3075 64.33 84.6708 64.2367 84.9642 64.05C85.2642 63.8633 85.4908 63.6167 85.6442 63.31L86.4642 63.61C86.2242 64.1033 85.8708 64.48 85.4042 64.74C84.9375 64.9933 84.4075 65.12 83.8142 65.12ZM89.6067 65.12C89.32 65.12 89.0367 65.07 88.7567 64.97C88.4767 64.87 88.22 64.7167 87.9867 64.51C87.76 64.2967 87.5767 64.0267 87.4367 63.7C87.2967 63.3733 87.2267 62.9867 87.2267 62.54C87.2267 62.0933 87.2967 61.7067 87.4367 61.38C87.5767 61.0533 87.76 60.7867 87.9867 60.58C88.22 60.3667 88.4767 60.21 88.7567 60.11C89.0367 60.01 89.32 59.96 89.6067 59.96C89.8933 59.96 90.1767 60.01 90.4567 60.11C90.7433 60.21 91 60.3667 91.2267 60.58C91.46 60.7867 91.6433 61.0533 91.7767 61.38C91.9167 61.7067 91.9867 62.0933 91.9867 62.54C91.9867 62.9867 91.9167 63.3733 91.7767 63.7C91.6433 64.0267 91.46 64.2967 91.2267 64.51C91 64.7167 90.7433 64.87 90.4567 64.97C90.1767 65.07 89.8933 65.12 89.6067 65.12ZM89.6067 64.38C89.8467 64.38 90.08 64.3167 90.3067 64.19C90.5333 64.0567 90.72 63.8567 90.8667 63.59C91.0133 63.3167 91.0867 62.9667 91.0867 62.54C91.0867 62.1133 91.0133 61.7667 90.8667 61.5C90.72 61.2267 90.5333 61.0267 90.3067 60.9C90.08 60.7667 89.8467 60.7 89.6067 60.7C89.3733 60.7 89.14 60.7667 88.9067 60.9C88.68 61.0267 88.4933 61.2267 88.3467 61.5C88.2 61.7667 88.1267 62.1133 88.1267 62.54C88.1267 62.9667 88.2 63.3167 88.3467 63.59C88.4933 63.8567 88.68 64.0567 88.9067 64.19C89.14 64.3167 89.3733 64.38 89.6067 64.38ZM93.0643 65V60.04H93.6843L93.9043 60.79C94.0443 60.5567 94.2409 60.36 94.4943 60.2C94.7476 60.04 95.0843 59.96 95.5043 59.96C96.1043 59.96 96.5276 60.1367 96.7743 60.49C97.0209 60.8367 97.1443 61.2933 97.1443 61.86V65H96.3043V62.11C96.3043 61.8567 96.2809 61.6233 96.2343 61.41C96.1876 61.19 96.0843 61.0133 95.9243 60.88C95.7709 60.7467 95.5343 60.68 95.2143 60.68C94.8076 60.68 94.4876 60.82 94.2543 61.1C94.0209 61.3733 93.9043 61.7767 93.9043 62.31V65H93.0643ZM98.5232 65V60.04H99.1432L99.3632 60.79C99.5032 60.5567 99.6999 60.36 99.9532 60.2C100.207 60.04 100.543 59.96 100.963 59.96C101.563 59.96 101.987 60.1367 102.233 60.49C102.48 60.8367 102.603 61.2933 102.603 61.86V65H101.763V62.11C101.763 61.8567 101.74 61.6233 101.693 61.41C101.647 61.19 101.543 61.0133 101.383 60.88C101.23 60.7467 100.993 60.68 100.673 60.68C100.267 60.68 99.9466 60.82 99.7132 61.1C99.4799 61.3733 99.3632 61.7767 99.3632 62.31V65H98.5232ZM105.985 65.12C105.465 65.12 105.025 65.0067 104.665 64.78C104.305 64.5467 104.028 64.2367 103.835 63.85C103.648 63.4567 103.555 63.0167 103.555 62.53C103.555 62.0033 103.661 61.55 103.875 61.17C104.088 60.7833 104.375 60.4867 104.735 60.28C105.101 60.0667 105.511 59.96 105.965 59.96C106.358 59.96 106.705 60.04 107.005 60.2C107.305 60.3533 107.551 60.5633 107.745 60.83C107.945 61.09 108.088 61.3867 108.175 61.72C108.268 62.0533 108.301 62.3967 108.275 62.75H104.455C104.468 63.1633 104.558 63.49 104.725 63.73C104.898 63.97 105.101 64.14 105.335 64.24C105.568 64.3333 105.785 64.38 105.985 64.38C106.265 64.38 106.498 64.3367 106.685 64.25C106.878 64.1567 107.031 64.0367 107.145 63.89L107.955 64.13C107.775 64.4167 107.518 64.6533 107.185 64.84C106.851 65.0267 106.451 65.12 105.985 65.12ZM104.465 62.08H107.385C107.385 61.8467 107.325 61.6233 107.205 61.41C107.091 61.1967 106.928 61.0233 106.715 60.89C106.508 60.75 106.258 60.68 105.965 60.68C105.718 60.68 105.485 60.7267 105.265 60.82C105.045 60.9133 104.861 61.0633 104.715 61.27C104.575 61.4767 104.491 61.7467 104.465 62.08ZM111.255 65.12C110.782 65.12 110.372 65.01 110.025 64.79C109.679 64.5633 109.412 64.2567 109.225 63.87C109.039 63.4833 108.945 63.04 108.945 62.54C108.945 62.0467 109.042 61.6067 109.235 61.22C109.435 60.8267 109.715 60.52 110.075 60.3C110.435 60.0733 110.859 59.96 111.345 59.96C111.792 59.96 112.175 60.07 112.495 60.29C112.815 60.51 113.055 60.7733 113.215 61.08L112.445 61.36C112.339 61.16 112.182 61 111.975 60.88C111.769 60.76 111.539 60.7 111.285 60.7C111.039 60.7 110.805 60.7667 110.585 60.9C110.365 61.0267 110.189 61.2267 110.055 61.5C109.922 61.7667 109.855 62.11 109.855 62.53C109.855 62.9433 109.922 63.29 110.055 63.57C110.195 63.8433 110.372 64.0467 110.585 64.18C110.805 64.3133 111.039 64.38 111.285 64.38C111.559 64.38 111.795 64.32 111.995 64.2C112.202 64.0733 112.359 63.9167 112.465 63.73L113.235 64.01C113.049 64.33 112.782 64.5967 112.435 64.81C112.089 65.0167 111.695 65.12 111.255 65.12ZM115.775 65C115.462 65 115.219 64.97 115.045 64.91C114.879 64.8433 114.762 64.72 114.695 64.54C114.635 64.36 114.605 64.1 114.605 63.76V60.71H113.765V60.04H114.605V58.79H115.445V60.04H116.405V60.71H115.445V63.62C115.445 63.8733 115.469 64.0433 115.515 64.13C115.569 64.2167 115.715 64.26 115.955 64.26H116.405V65H115.775ZM118.368 59.1C118.201 59.1 118.054 59.04 117.928 58.92C117.808 58.7933 117.748 58.6433 117.748 58.47C117.748 58.2967 117.808 58.15 117.928 58.03C118.054 57.91 118.201 57.85 118.368 57.85C118.541 57.85 118.688 57.91 118.808 58.03C118.934 58.15 118.998 58.2967 118.998 58.47C118.998 58.6433 118.934 58.7933 118.808 58.92C118.688 59.04 118.541 59.1 118.368 59.1ZM117.948 65V60.71H117.258V60.04H118.788V65H117.948ZM122.351 65.12C122.064 65.12 121.781 65.07 121.501 64.97C121.221 64.87 120.964 64.7167 120.731 64.51C120.504 64.2967 120.321 64.0267 120.181 63.7C120.041 63.3733 119.971 62.9867 119.971 62.54C119.971 62.0933 120.041 61.7067 120.181 61.38C120.321 61.0533 120.504 60.7867 120.731 60.58C120.964 60.3667 121.221 60.21 121.501 60.11C121.781 60.01 122.064 59.96 122.351 59.96C122.637 59.96 122.921 60.01 123.201 60.11C123.487 60.21 123.744 60.3667 123.971 60.58C124.204 60.7867 124.387 61.0533 124.521 61.38C124.661 61.7067 124.731 62.0933 124.731 62.54C124.731 62.9867 124.661 63.3733 124.521 63.7C124.387 64.0267 124.204 64.2967 123.971 64.51C123.744 64.7167 123.487 64.87 123.201 64.97C122.921 65.07 122.637 65.12 122.351 65.12ZM122.351 64.38C122.591 64.38 122.824 64.3167 123.051 64.19C123.277 64.0567 123.464 63.8567 123.611 63.59C123.757 63.3167 123.831 62.9667 123.831 62.54C123.831 62.1133 123.757 61.7667 123.611 61.5C123.464 61.2267 123.277 61.0267 123.051 60.9C122.824 60.7667 122.591 60.7 122.351 60.7C122.117 60.7 121.884 60.7667 121.651 60.9C121.424 61.0267 121.237 61.2267 121.091 61.5C120.944 61.7667 120.871 62.1133 120.871 62.54C120.871 62.9667 120.944 63.3167 121.091 63.59C121.237 63.8567 121.424 64.0567 121.651 64.19C121.884 64.3167 122.117 64.38 122.351 64.38ZM125.808 65V60.04H126.428L126.648 60.79C126.788 60.5567 126.985 60.36 127.238 60.2C127.492 60.04 127.828 59.96 128.248 59.96C128.848 59.96 129.272 60.1367 129.518 60.49C129.765 60.8367 129.888 61.2933 129.888 61.86V65H129.048V62.11C129.048 61.8567 129.025 61.6233 128.978 61.41C128.932 61.19 128.828 61.0133 128.668 60.88C128.515 60.7467 128.278 60.68 127.958 60.68C127.552 60.68 127.232 60.82 126.998 61.1C126.765 61.3733 126.648 61.7767 126.648 62.31V65H125.808ZM135.58 65C135.267 65 135.023 64.97 134.85 64.91C134.683 64.8433 134.567 64.72 134.5 64.54C134.44 64.36 134.41 64.1 134.41 63.76V60.71H133.57V60.04H134.41V58.79H135.25V60.04H136.21V60.71H135.25V63.62C135.25 63.8733 135.273 64.0433 135.32 64.13C135.373 64.2167 135.52 64.26 135.76 64.26H136.21V65H135.58ZM137.312 65V58.32H138.152V60.79C138.292 60.5567 138.489 60.36 138.742 60.2C138.996 60.04 139.332 59.96 139.752 59.96C140.352 59.96 140.776 60.1367 141.022 60.49C141.269 60.8367 141.392 61.2933 141.392 61.86V65H140.552V62.11C140.552 61.8567 140.529 61.6233 140.482 61.41C140.436 61.19 140.332 61.0133 140.172 60.88C140.019 60.7467 139.782 60.68 139.462 60.68C139.056 60.68 138.736 60.82 138.502 61.1C138.269 61.3733 138.152 61.7767 138.152 62.31V65H137.312ZM143.631 59.1C143.465 59.1 143.318 59.04 143.191 58.92C143.071 58.7933 143.011 58.6433 143.011 58.47C143.011 58.2967 143.071 58.15 143.191 58.03C143.318 57.91 143.465 57.85 143.631 57.85C143.805 57.85 143.951 57.91 144.071 58.03C144.198 58.15 144.261 58.2967 144.261 58.47C144.261 58.6433 144.198 58.7933 144.071 58.92C143.951 59.04 143.805 59.1 143.631 59.1ZM143.211 65V60.71H142.521V60.04H144.051V65H143.211ZM147.544 65.12C147.071 65.12 146.661 65.01 146.314 64.79C145.968 64.5633 145.701 64.2567 145.514 63.87C145.328 63.4833 145.234 63.04 145.234 62.54C145.234 62.0467 145.331 61.6067 145.524 61.22C145.724 60.8267 146.004 60.52 146.364 60.3C146.724 60.0733 147.148 59.96 147.634 59.96C148.081 59.96 148.464 60.07 148.784 60.29C149.104 60.51 149.344 60.7733 149.504 61.08L148.734 61.36C148.628 61.16 148.471 61 148.264 60.88C148.058 60.76 147.828 60.7 147.574 60.7C147.328 60.7 147.094 60.7667 146.874 60.9C146.654 61.0267 146.478 61.2267 146.344 61.5C146.211 61.7667 146.144 62.11 146.144 62.53C146.144 62.9433 146.211 63.29 146.344 63.57C146.484 63.8433 146.661 64.0467 146.874 64.18C147.094 64.3133 147.328 64.38 147.574 64.38C147.848 64.38 148.084 64.32 148.284 64.2C148.491 64.0733 148.648 63.9167 148.754 63.73L149.524 64.01C149.338 64.33 149.071 64.5967 148.724 64.81C148.378 65.0167 147.984 65.12 147.544 65.12ZM150.554 65V58.32H151.394V62.27L153.394 60.04H154.404L152.534 62.09L154.654 65H153.624L151.974 62.71L151.394 63.34V65H150.554ZM155.457 65V60.04H156.077L156.297 60.79C156.437 60.5567 156.634 60.36 156.887 60.2C157.14 60.04 157.477 59.96 157.897 59.96C158.497 59.96 158.92 60.1367 159.167 60.49C159.414 60.8367 159.537 61.2933 159.537 61.86V65H158.697V62.11C158.697 61.8567 158.674 61.6233 158.627 61.41C158.58 61.19 158.477 61.0133 158.317 60.88C158.164 60.7467 157.927 60.68 157.607 60.68C157.2 60.68 156.88 60.82 156.647 61.1C156.414 61.3733 156.297 61.7767 156.297 62.31V65H155.457ZM162.918 65.12C162.398 65.12 161.958 65.0067 161.598 64.78C161.238 64.5467 160.962 64.2367 160.768 63.85C160.582 63.4567 160.488 63.0167 160.488 62.53C160.488 62.0033 160.595 61.55 160.808 61.17C161.022 60.7833 161.308 60.4867 161.668 60.28C162.035 60.0667 162.445 59.96 162.898 59.96C163.292 59.96 163.638 60.04 163.938 60.2C164.238 60.3533 164.485 60.5633 164.678 60.83C164.878 61.09 165.022 61.3867 165.108 61.72C165.202 62.0533 165.235 62.3967 165.208 62.75H161.388C161.402 63.1633 161.492 63.49 161.658 63.73C161.832 63.97 162.035 64.14 162.268 64.24C162.502 64.3333 162.718 64.38 162.918 64.38C163.198 64.38 163.432 64.3367 163.618 64.25C163.812 64.1567 163.965 64.0367 164.078 63.89L164.888 64.13C164.708 64.4167 164.452 64.6533 164.118 64.84C163.785 65.0267 163.385 65.12 162.918 65.12ZM161.398 62.08H164.318C164.318 61.8467 164.258 61.6233 164.138 61.41C164.025 61.1967 163.862 61.0233 163.648 60.89C163.442 60.75 163.192 60.68 162.898 60.68C162.652 60.68 162.418 60.7267 162.198 60.82C161.978 60.9133 161.795 61.0633 161.648 61.27C161.508 61.4767 161.425 61.7467 161.398 62.08ZM167.889 65.12C167.602 65.12 167.319 65.0767 167.039 64.99C166.766 64.8967 166.519 64.76 166.299 64.58C166.086 64.3933 165.922 64.16 165.809 63.88L166.619 63.58C166.692 63.8733 166.852 64.0867 167.099 64.22C167.352 64.3467 167.616 64.41 167.889 64.41C168.089 64.41 168.276 64.38 168.449 64.32C168.629 64.26 168.776 64.1733 168.889 64.06C169.002 63.9467 169.059 63.8167 169.059 63.67C169.059 63.3967 168.949 63.2033 168.729 63.09C168.516 62.9767 168.259 62.89 167.959 62.83L167.269 62.69C167.029 62.6367 166.806 62.5633 166.599 62.47C166.392 62.37 166.226 62.23 166.099 62.05C165.972 61.87 165.909 61.63 165.909 61.33C165.909 61.03 166.002 60.78 166.189 60.58C166.376 60.3733 166.612 60.2167 166.899 60.11C167.192 60.0033 167.499 59.95 167.819 59.95C168.212 59.95 168.582 60.0333 168.929 60.2C169.282 60.36 169.532 60.6133 169.679 60.96L168.889 61.25C168.802 61.05 168.649 60.9033 168.429 60.81C168.216 60.71 167.992 60.66 167.759 60.66C167.506 60.66 167.276 60.7167 167.069 60.83C166.862 60.9433 166.759 61.1067 166.759 61.32C166.759 61.5333 166.846 61.69 167.019 61.79C167.199 61.8833 167.419 61.9567 167.679 62.01L168.329 62.14C168.596 62.1933 168.849 62.27 169.089 62.37C169.329 62.47 169.526 62.62 169.679 62.82C169.832 63.0133 169.909 63.2867 169.909 63.64C169.909 63.9533 169.812 64.22 169.619 64.44C169.426 64.66 169.176 64.83 168.869 64.95C168.562 65.0633 168.236 65.12 167.889 65.12ZM172.596 65.12C172.309 65.12 172.026 65.0767 171.746 64.99C171.473 64.8967 171.226 64.76 171.006 64.58C170.793 64.3933 170.629 64.16 170.516 63.88L171.326 63.58C171.399 63.8733 171.559 64.0867 171.806 64.22C172.059 64.3467 172.323 64.41 172.596 64.41C172.796 64.41 172.983 64.38 173.156 64.32C173.336 64.26 173.483 64.1733 173.596 64.06C173.709 63.9467 173.766 63.8167 173.766 63.67C173.766 63.3967 173.656 63.2033 173.436 63.09C173.223 62.9767 172.966 62.89 172.666 62.83L171.976 62.69C171.736 62.6367 171.513 62.5633 171.306 62.47C171.099 62.37 170.933 62.23 170.806 62.05C170.679 61.87 170.616 61.63 170.616 61.33C170.616 61.03 170.709 60.78 170.896 60.58C171.083 60.3733 171.319 60.2167 171.606 60.11C171.899 60.0033 172.206 59.95 172.526 59.95C172.919 59.95 173.289 60.0333 173.636 60.2C173.989 60.36 174.239 60.6133 174.386 60.96L173.596 61.25C173.509 61.05 173.356 60.9033 173.136 60.81C172.923 60.71 172.699 60.66 172.466 60.66C172.213 60.66 171.983 60.7167 171.776 60.83C171.569 60.9433 171.466 61.1067 171.466 61.32C171.466 61.5333 171.553 61.69 171.726 61.79C171.906 61.8833 172.126 61.9567 172.386 62.01L173.036 62.14C173.303 62.1933 173.556 62.27 173.796 62.37C174.036 62.47 174.233 62.62 174.386 62.82C174.539 63.0133 174.616 63.2867 174.616 63.64C174.616 63.9533 174.519 64.22 174.326 64.44C174.133 64.66 173.883 64.83 173.576 64.95C173.269 65.0633 172.943 65.12 172.596 65.12ZM85.4526 71.1C85.2859 71.1 85.1392 71.04 85.0126 70.92C84.8926 70.7933 84.8326 70.6433 84.8326 70.47C84.8326 70.2967 84.8926 70.15 85.0126 70.03C85.1392 69.91 85.2859 69.85 85.4526 69.85C85.6259 69.85 85.7726 69.91 85.8926 70.03C86.0192 70.15 86.0826 70.2967 86.0826 70.47C86.0826 70.6433 86.0192 70.7933 85.8926 70.92C85.7726 71.04 85.6259 71.1 85.4526 71.1ZM85.0326 77V72.71H84.3426V72.04H85.8726V77H85.0326ZM87.3758 77V72.04H87.9958L88.2158 72.79C88.3558 72.5567 88.5524 72.36 88.8058 72.2C89.0591 72.04 89.3958 71.96 89.8158 71.96C90.4158 71.96 90.8391 72.1367 91.0858 72.49C91.3324 72.8367 91.4558 73.2933 91.4558 73.86V77H90.6158V74.11C90.6158 73.8567 90.5924 73.6233 90.5458 73.41C90.4991 73.19 90.3958 73.0133 90.2358 72.88C90.0824 72.7467 89.8458 72.68 89.5258 72.68C89.1191 72.68 88.7991 72.82 88.5658 73.1C88.3324 73.3733 88.2158 73.7767 88.2158 74.31V77H87.3758ZM94.5373 77.12C94.164 77.12 93.814 77.02 93.4873 76.82C93.1607 76.6133 92.8973 76.32 92.6973 75.94C92.504 75.5533 92.4073 75.0867 92.4073 74.54C92.4073 73.9933 92.504 73.53 92.6973 73.15C92.8973 72.7633 93.1607 72.47 93.4873 72.27C93.814 72.0633 94.164 71.96 94.5373 71.96C94.9307 71.96 95.2607 72.04 95.5273 72.2C95.794 72.3533 96.0007 72.56 96.1473 72.82V70.32H96.9873V75.13C96.9873 75.2967 96.994 75.5433 97.0073 75.87C97.0207 76.19 97.0707 76.5667 97.1573 77H96.3673L96.1473 76.25C96.0007 76.5167 95.794 76.73 95.5273 76.89C95.2607 77.0433 94.9307 77.12 94.5373 77.12ZM94.7573 76.4C95.184 76.4 95.524 76.2367 95.7773 75.91C96.0373 75.5833 96.1673 75.1267 96.1673 74.54C96.1673 73.9467 96.0373 73.49 95.7773 73.17C95.524 72.8433 95.184 72.68 94.7573 72.68C94.3307 72.68 93.9873 72.8433 93.7273 73.17C93.474 73.49 93.3473 73.9467 93.3473 74.54C93.3473 75.1267 93.474 75.5833 93.7273 75.91C93.9873 76.2367 94.3307 76.4 94.7573 76.4ZM99.2319 71.1C99.0652 71.1 98.9185 71.04 98.7919 70.92C98.6719 70.7933 98.6119 70.6433 98.6119 70.47C98.6119 70.2967 98.6719 70.15 98.7919 70.03C98.9185 69.91 99.0652 69.85 99.2319 69.85C99.4052 69.85 99.5519 69.91 99.6719 70.03C99.7985 70.15 99.8619 70.2967 99.8619 70.47C99.8619 70.6433 99.7985 70.7933 99.6719 70.92C99.5519 71.04 99.4052 71.1 99.2319 71.1ZM98.8119 77V72.71H98.1219V72.04H99.6519V77H98.8119ZM103.145 77.12C102.672 77.12 102.262 77.01 101.915 76.79C101.568 76.5633 101.302 76.2567 101.115 75.87C100.928 75.4833 100.835 75.04 100.835 74.54C100.835 74.0467 100.932 73.6067 101.125 73.22C101.325 72.8267 101.605 72.52 101.965 72.3C102.325 72.0733 102.748 71.96 103.235 71.96C103.682 71.96 104.065 72.07 104.385 72.29C104.705 72.51 104.945 72.7733 105.105 73.08L104.335 73.36C104.228 73.16 104.072 73 103.865 72.88C103.658 72.76 103.428 72.7 103.175 72.7C102.928 72.7 102.695 72.7667 102.475 72.9C102.255 73.0267 102.078 73.2267 101.945 73.5C101.812 73.7667 101.745 74.11 101.745 74.53C101.745 74.9433 101.812 75.29 101.945 75.57C102.085 75.8433 102.262 76.0467 102.475 76.18C102.695 76.3133 102.928 76.38 103.175 76.38C103.448 76.38 103.685 76.32 103.885 76.2C104.092 76.0733 104.248 75.9167 104.355 75.73L105.125 76.01C104.938 76.33 104.672 76.5967 104.325 76.81C103.978 77.0167 103.585 77.12 103.145 77.12ZM107.545 77.12C107.232 77.12 106.945 77.0633 106.685 76.95C106.425 76.8367 106.218 76.6733 106.065 76.46C105.912 76.2467 105.835 75.99 105.835 75.69C105.835 75.2967 105.972 74.9867 106.245 74.76C106.525 74.5333 106.915 74.36 107.415 74.24C107.922 74.1133 108.512 74.0133 109.185 73.94C109.198 73.52 109.115 73.1967 108.935 72.97C108.755 72.7433 108.465 72.63 108.065 72.63C107.765 72.63 107.518 72.7 107.325 72.84C107.138 72.9733 107.018 73.16 106.965 73.4L106.155 73.16C106.288 72.78 106.525 72.4867 106.865 72.28C107.212 72.0667 107.608 71.96 108.055 71.96C108.742 71.96 109.242 72.1233 109.555 72.45C109.875 72.77 110.035 73.2767 110.035 73.97V75.13C110.035 75.5433 110.052 75.9 110.085 76.2C110.118 76.5 110.158 76.7667 110.205 77H109.435L109.235 76.32C109.088 76.5667 108.878 76.7633 108.605 76.91C108.332 77.05 107.978 77.12 107.545 77.12ZM107.725 76.45C107.985 76.45 108.232 76.4033 108.465 76.31C108.698 76.2167 108.888 76.06 109.035 75.84C109.182 75.6133 109.255 75.3067 109.255 74.92V74.61C108.748 74.6633 108.308 74.73 107.935 74.81C107.562 74.8833 107.272 74.99 107.065 75.13C106.865 75.2633 106.765 75.4433 106.765 75.67C106.765 75.9033 106.848 76.0933 107.015 76.24C107.188 76.38 107.425 76.45 107.725 76.45ZM112.929 77C112.615 77 112.372 76.97 112.199 76.91C112.032 76.8433 111.915 76.72 111.849 76.54C111.789 76.36 111.759 76.1 111.759 75.76V72.71H110.919V72.04H111.759V70.79H112.599V72.04H113.559V72.71H112.599V75.62C112.599 75.8733 112.622 76.0433 112.669 76.13C112.722 76.2167 112.869 76.26 113.109 76.26H113.559V77H112.929ZM116.771 77.12C116.251 77.12 115.811 77.0067 115.451 76.78C115.091 76.5467 114.814 76.2367 114.621 75.85C114.434 75.4567 114.341 75.0167 114.341 74.53C114.341 74.0033 114.448 73.55 114.661 73.17C114.874 72.7833 115.161 72.4867 115.521 72.28C115.888 72.0667 116.298 71.96 116.751 71.96C117.144 71.96 117.491 72.04 117.791 72.2C118.091 72.3533 118.338 72.5633 118.531 72.83C118.731 73.09 118.874 73.3867 118.961 73.72C119.054 74.0533 119.088 74.3967 119.061 74.75H115.241C115.254 75.1633 115.344 75.49 115.511 75.73C115.684 75.97 115.888 76.14 116.121 76.24C116.354 76.3333 116.571 76.38 116.771 76.38C117.051 76.38 117.284 76.3367 117.471 76.25C117.664 76.1567 117.818 76.0367 117.931 75.89L118.741 76.13C118.561 76.4167 118.304 76.6533 117.971 76.84C117.638 77.0267 117.238 77.12 116.771 77.12ZM115.251 74.08H118.171C118.171 73.8467 118.111 73.6233 117.991 73.41C117.878 73.1967 117.714 73.0233 117.501 72.89C117.294 72.75 117.044 72.68 116.751 72.68C116.504 72.68 116.271 72.7267 116.051 72.82C115.831 72.9133 115.648 73.0633 115.501 73.27C115.361 73.4767 115.278 73.7467 115.251 74.08ZM121.742 77.12C121.455 77.12 121.172 77.0767 120.892 76.99C120.618 76.8967 120.372 76.76 120.152 76.58C119.938 76.3933 119.775 76.16 119.662 75.88L120.472 75.58C120.545 75.8733 120.705 76.0867 120.952 76.22C121.205 76.3467 121.468 76.41 121.742 76.41C121.942 76.41 122.128 76.38 122.302 76.32C122.482 76.26 122.628 76.1733 122.742 76.06C122.855 75.9467 122.912 75.8167 122.912 75.67C122.912 75.3967 122.802 75.2033 122.582 75.09C122.368 74.9767 122.112 74.89 121.812 74.83L121.122 74.69C120.882 74.6367 120.658 74.5633 120.452 74.47C120.245 74.37 120.078 74.23 119.952 74.05C119.825 73.87 119.762 73.63 119.762 73.33C119.762 73.03 119.855 72.78 120.042 72.58C120.228 72.3733 120.465 72.2167 120.752 72.11C121.045 72.0033 121.352 71.95 121.672 71.95C122.065 71.95 122.435 72.0333 122.782 72.2C123.135 72.36 123.385 72.6133 123.532 72.96L122.742 73.25C122.655 73.05 122.502 72.9033 122.282 72.81C122.068 72.71 121.845 72.66 121.612 72.66C121.358 72.66 121.128 72.7167 120.922 72.83C120.715 72.9433 120.612 73.1067 120.612 73.32C120.612 73.5333 120.698 73.69 120.872 73.79C121.052 73.8833 121.272 73.9567 121.532 74.01L122.182 74.14C122.448 74.1933 122.702 74.27 122.942 74.37C123.182 74.47 123.378 74.62 123.532 74.82C123.685 75.0133 123.762 75.2867 123.762 75.64C123.762 75.9533 123.665 76.22 123.472 76.44C123.278 76.66 123.028 76.83 122.722 76.95C122.415 77.0633 122.088 77.12 121.742 77.12ZM128.951 77.12C128.638 77.12 128.351 77.0633 128.091 76.95C127.831 76.8367 127.625 76.6733 127.471 76.46C127.318 76.2467 127.241 75.99 127.241 75.69C127.241 75.2967 127.378 74.9867 127.651 74.76C127.931 74.5333 128.321 74.36 128.821 74.24C129.328 74.1133 129.918 74.0133 130.591 73.94C130.605 73.52 130.521 73.1967 130.341 72.97C130.161 72.7433 129.871 72.63 129.471 72.63C129.171 72.63 128.925 72.7 128.731 72.84C128.545 72.9733 128.425 73.16 128.371 73.4L127.561 73.16C127.695 72.78 127.931 72.4867 128.271 72.28C128.618 72.0667 129.015 71.96 129.461 71.96C130.148 71.96 130.648 72.1233 130.961 72.45C131.281 72.77 131.441 73.2767 131.441 73.97V75.13C131.441 75.5433 131.458 75.9 131.491 76.2C131.525 76.5 131.565 76.7667 131.611 77H130.841L130.641 76.32C130.495 76.5667 130.285 76.7633 130.011 76.91C129.738 77.05 129.385 77.12 128.951 77.12ZM129.131 76.45C129.391 76.45 129.638 76.4033 129.871 76.31C130.105 76.2167 130.295 76.06 130.441 75.84C130.588 75.6133 130.661 75.3067 130.661 74.92V74.61C130.155 74.6633 129.715 74.73 129.341 74.81C128.968 74.8833 128.678 74.99 128.471 75.13C128.271 75.2633 128.171 75.4433 128.171 75.67C128.171 75.9033 128.255 76.0933 128.421 76.24C128.595 76.38 128.831 76.45 129.131 76.45ZM132.825 77V72.04H133.445L133.665 72.79C133.805 72.5567 133.995 72.36 134.235 72.2C134.482 72.04 134.788 71.96 135.155 71.96C135.535 71.96 135.842 72.0367 136.075 72.19C136.308 72.3433 136.478 72.5567 136.585 72.83C136.785 72.5233 137.025 72.3033 137.305 72.17C137.592 72.03 137.908 71.96 138.255 71.96C138.828 71.96 139.238 72.1367 139.485 72.49C139.732 72.8367 139.855 73.2933 139.855 73.86V77H139.015V74.11C139.015 73.8567 138.988 73.6233 138.935 73.41C138.888 73.19 138.788 73.0133 138.635 72.88C138.488 72.7467 138.262 72.68 137.955 72.68C137.595 72.68 137.305 72.82 137.085 73.1C136.872 73.3733 136.765 73.7767 136.765 74.31V77H135.925V74.11C135.925 73.8567 135.898 73.6233 135.845 73.41C135.798 73.19 135.698 73.0133 135.545 72.88C135.398 72.7467 135.172 72.68 134.865 72.68C134.505 72.68 134.215 72.82 133.995 73.1C133.775 73.3733 133.665 73.7767 133.665 74.31V77H132.825ZM143.186 77.12C142.899 77.12 142.616 77.07 142.336 76.97C142.056 76.87 141.799 76.7167 141.566 76.51C141.339 76.2967 141.156 76.0267 141.016 75.7C140.876 75.3733 140.806 74.9867 140.806 74.54C140.806 74.0933 140.876 73.7067 141.016 73.38C141.156 73.0533 141.339 72.7867 141.566 72.58C141.799 72.3667 142.056 72.21 142.336 72.11C142.616 72.01 142.899 71.96 143.186 71.96C143.472 71.96 143.756 72.01 144.036 72.11C144.322 72.21 144.579 72.3667 144.806 72.58C145.039 72.7867 145.222 73.0533 145.356 73.38C145.496 73.7067 145.566 74.0933 145.566 74.54C145.566 74.9867 145.496 75.3733 145.356 75.7C145.222 76.0267 145.039 76.2967 144.806 76.51C144.579 76.7167 144.322 76.87 144.036 76.97C143.756 77.07 143.472 77.12 143.186 77.12ZM143.186 76.38C143.426 76.38 143.659 76.3167 143.886 76.19C144.112 76.0567 144.299 75.8567 144.446 75.59C144.592 75.3167 144.666 74.9667 144.666 74.54C144.666 74.1133 144.592 73.7667 144.446 73.5C144.299 73.2267 144.112 73.0267 143.886 72.9C143.659 72.7667 143.426 72.7 143.186 72.7C142.952 72.7 142.719 72.7667 142.486 72.9C142.259 73.0267 142.072 73.2267 141.926 73.5C141.779 73.7667 141.706 74.1133 141.706 74.54C141.706 74.9667 141.779 75.3167 141.926 75.59C142.072 75.8567 142.259 76.0567 142.486 76.19C142.719 76.3167 142.952 76.38 143.186 76.38ZM148.213 77.12C147.827 77.12 147.517 77.04 147.283 76.88C147.05 76.7133 146.88 76.4867 146.773 76.2C146.673 75.9067 146.623 75.5733 146.623 75.2V72.03H147.463V75C147.463 75.3667 147.507 75.65 147.593 75.85C147.68 76.05 147.8 76.19 147.953 76.27C148.113 76.3433 148.297 76.38 148.503 76.38C148.897 76.38 149.203 76.2433 149.423 75.97C149.65 75.69 149.763 75.2867 149.763 74.76V72.03H150.603V77H149.973L149.763 76.28C149.623 76.52 149.433 76.72 149.193 76.88C148.953 77.04 148.627 77.12 148.213 77.12ZM152.005 77V72.04H152.625L152.845 72.79C152.985 72.5567 153.181 72.36 153.435 72.2C153.688 72.04 154.025 71.96 154.445 71.96C155.045 71.96 155.468 72.1367 155.715 72.49C155.961 72.8367 156.085 73.2933 156.085 73.86V77H155.245V74.11C155.245 73.8567 155.221 73.6233 155.175 73.41C155.128 73.19 155.025 73.0133 154.865 72.88C154.711 72.7467 154.475 72.68 154.155 72.68C153.748 72.68 153.428 72.82 153.195 73.1C152.961 73.3733 152.845 73.7767 152.845 74.31V77H152.005ZM158.847 77C158.533 77 158.29 76.97 158.117 76.91C157.95 76.8433 157.833 76.72 157.767 76.54C157.707 76.36 157.677 76.1 157.677 75.76V72.71H156.837V72.04H157.677V70.79H158.517V72.04H159.477V72.71H158.517V75.62C158.517 75.8733 158.54 76.0433 158.587 76.13C158.64 76.2167 158.787 76.26 159.027 76.26H159.477V77H158.847ZM165.442 77.12C165.155 77.12 164.872 77.07 164.592 76.97C164.312 76.87 164.055 76.7167 163.822 76.51C163.595 76.2967 163.412 76.0267 163.272 75.7C163.132 75.3733 163.062 74.9867 163.062 74.54C163.062 74.0933 163.132 73.7067 163.272 73.38C163.412 73.0533 163.595 72.7867 163.822 72.58C164.055 72.3667 164.312 72.21 164.592 72.11C164.872 72.01 165.155 71.96 165.442 71.96C165.728 71.96 166.012 72.01 166.292 72.11C166.578 72.21 166.835 72.3667 167.062 72.58C167.295 72.7867 167.478 73.0533 167.612 73.38C167.752 73.7067 167.822 74.0933 167.822 74.54C167.822 74.9867 167.752 75.3733 167.612 75.7C167.478 76.0267 167.295 76.2967 167.062 76.51C166.835 76.7167 166.578 76.87 166.292 76.97C166.012 77.07 165.728 77.12 165.442 77.12ZM165.442 76.38C165.682 76.38 165.915 76.3167 166.142 76.19C166.368 76.0567 166.555 75.8567 166.702 75.59C166.848 75.3167 166.922 74.9667 166.922 74.54C166.922 74.1133 166.848 73.7667 166.702 73.5C166.555 73.2267 166.368 73.0267 166.142 72.9C165.915 72.7667 165.682 72.7 165.442 72.7C165.208 72.7 164.975 72.7667 164.742 72.9C164.515 73.0267 164.328 73.2267 164.182 73.5C164.035 73.7667 163.962 74.1133 163.962 74.54C163.962 74.9667 164.035 75.3167 164.182 75.59C164.328 75.8567 164.515 76.0567 164.742 76.19C164.975 76.3167 165.208 76.38 165.442 76.38ZM169.189 77V72.71H168.349V72.04H169.189V71.3C169.189 70.96 169.223 70.69 169.289 70.49C169.356 70.29 169.486 70.15 169.679 70.07C169.873 69.9833 170.153 69.94 170.519 69.94H171.059V70.65H170.539C170.326 70.65 170.186 70.6933 170.119 70.78C170.059 70.8667 170.029 71.0367 170.029 71.29V72.04H171.059V72.71H170.029V77H169.189ZM97.8646 89.12C97.5779 89.12 97.2946 89.0767 97.0146 88.99C96.7413 88.8967 96.4946 88.76 96.2746 88.58C96.0613 88.3933 95.8979 88.16 95.7846 87.88L96.5946 87.58C96.6679 87.8733 96.8279 88.0867 97.0746 88.22C97.3279 88.3467 97.5913 88.41 97.8646 88.41C98.0646 88.41 98.2513 88.38 98.4246 88.32C98.6046 88.26 98.7513 88.1733 98.8646 88.06C98.9779 87.9467 99.0346 87.8167 99.0346 87.67C99.0346 87.3967 98.9246 87.2033 98.7046 87.09C98.4913 86.9767 98.2346 86.89 97.9346 86.83L97.2446 86.69C97.0046 86.6367 96.7813 86.5633 96.5746 86.47C96.3679 86.37 96.2013 86.23 96.0746 86.05C95.9479 85.87 95.8846 85.63 95.8846 85.33C95.8846 85.03 95.9779 84.78 96.1646 84.58C96.3513 84.3733 96.5879 84.2167 96.8746 84.11C97.1679 84.0033 97.4746 83.95 97.7946 83.95C98.1879 83.95 98.5579 84.0333 98.9046 84.2C99.2579 84.36 99.5079 84.6133 99.6546 84.96L98.8646 85.25C98.7779 85.05 98.6246 84.9033 98.4046 84.81C98.1913 84.71 97.9679 84.66 97.7346 84.66C97.4813 84.66 97.2513 84.7167 97.0446 84.83C96.8379 84.9433 96.7346 85.1067 96.7346 85.32C96.7346 85.5333 96.8213 85.69 96.9946 85.79C97.1746 85.8833 97.3946 85.9567 97.6546 86.01L98.3046 86.14C98.5713 86.1933 98.8246 86.27 99.0646 86.37C99.3046 86.47 99.5013 86.62 99.6546 86.82C99.8079 87.0133 99.8846 87.2867 99.8846 87.64C99.8846 87.9533 99.7879 88.22 99.5946 88.44C99.4013 88.66 99.1513 88.83 98.8446 88.95C98.5379 89.0633 98.2113 89.12 97.8646 89.12ZM100.882 89V82.32H101.722V84.79C101.862 84.5567 102.058 84.36 102.312 84.2C102.565 84.04 102.902 83.96 103.322 83.96C103.922 83.96 104.345 84.1367 104.592 84.49C104.838 84.8367 104.962 85.2933 104.962 85.86V89H104.122V86.11C104.122 85.8567 104.098 85.6233 104.052 85.41C104.005 85.19 103.902 85.0133 103.742 84.88C103.588 84.7467 103.352 84.68 103.032 84.68C102.625 84.68 102.305 84.82 102.072 85.1C101.838 85.3733 101.722 85.7767 101.722 86.31V89H100.882ZM107.731 89.12C107.417 89.12 107.131 89.0633 106.871 88.95C106.611 88.8367 106.404 88.6733 106.251 88.46C106.097 88.2467 106.021 87.99 106.021 87.69C106.021 87.2967 106.157 86.9867 106.431 86.76C106.711 86.5333 107.101 86.36 107.601 86.24C108.107 86.1133 108.697 86.0133 109.371 85.94C109.384 85.52 109.301 85.1967 109.121 84.97C108.941 84.7433 108.651 84.63 108.251 84.63C107.951 84.63 107.704 84.7 107.511 84.84C107.324 84.9733 107.204 85.16 107.151 85.4L106.341 85.16C106.474 84.78 106.711 84.4867 107.051 84.28C107.397 84.0667 107.794 83.96 108.241 83.96C108.927 83.96 109.427 84.1233 109.741 84.45C110.061 84.77 110.221 85.2767 110.221 85.97V87.13C110.221 87.5433 110.237 87.9 110.271 88.2C110.304 88.5 110.344 88.7667 110.391 89H109.621L109.421 88.32C109.274 88.5667 109.064 88.7633 108.791 88.91C108.517 89.05 108.164 89.12 107.731 89.12ZM107.911 88.45C108.171 88.45 108.417 88.4033 108.651 88.31C108.884 88.2167 109.074 88.06 109.221 87.84C109.367 87.6133 109.441 87.3067 109.441 86.92V86.61C108.934 86.6633 108.494 86.73 108.121 86.81C107.747 86.8833 107.457 86.99 107.251 87.13C107.051 87.2633 106.951 87.4433 106.951 87.67C106.951 87.9033 107.034 88.0933 107.201 88.24C107.374 88.38 107.611 88.45 107.911 88.45ZM111.604 89V84.04H112.214L112.484 84.96C112.658 84.66 112.891 84.42 113.184 84.24C113.484 84.0533 113.841 83.96 114.254 83.96V84.83C114.208 84.83 114.158 84.83 114.104 84.83C114.058 84.83 114.011 84.8333 113.964 84.84C113.398 84.8867 113.001 85.0833 112.774 85.43C112.554 85.7767 112.444 86.2567 112.444 86.87V89H111.604ZM117.113 89.12C116.593 89.12 116.153 89.0067 115.793 88.78C115.433 88.5467 115.156 88.2367 114.963 87.85C114.776 87.4567 114.683 87.0167 114.683 86.53C114.683 86.0033 114.789 85.55 115.003 85.17C115.216 84.7833 115.503 84.4867 115.863 84.28C116.229 84.0667 116.639 83.96 117.093 83.96C117.486 83.96 117.833 84.04 118.133 84.2C118.433 84.3533 118.679 84.5633 118.873 84.83C119.073 85.09 119.216 85.3867 119.303 85.72C119.396 86.0533 119.429 86.3967 119.403 86.75H115.583C115.596 87.1633 115.686 87.49 115.853 87.73C116.026 87.97 116.229 88.14 116.463 88.24C116.696 88.3333 116.913 88.38 117.113 88.38C117.393 88.38 117.626 88.3367 117.813 88.25C118.006 88.1567 118.159 88.0367 118.273 87.89L119.083 88.13C118.903 88.4167 118.646 88.6533 118.313 88.84C117.979 89.0267 117.579 89.12 117.113 89.12ZM115.593 86.08H118.513C118.513 85.8467 118.453 85.6233 118.333 85.41C118.219 85.1967 118.056 85.0233 117.843 84.89C117.636 84.75 117.386 84.68 117.093 84.68C116.846 84.68 116.613 84.7267 116.393 84.82C116.173 84.9133 115.989 85.0633 115.843 85.27C115.703 85.4767 115.619 85.7467 115.593 86.08ZM122.203 89.12C121.83 89.12 121.48 89.02 121.153 88.82C120.827 88.6133 120.563 88.32 120.363 87.94C120.17 87.5533 120.073 87.0867 120.073 86.54C120.073 85.9933 120.17 85.53 120.363 85.15C120.563 84.7633 120.827 84.47 121.153 84.27C121.48 84.0633 121.83 83.96 122.203 83.96C122.597 83.96 122.927 84.04 123.193 84.2C123.46 84.3533 123.667 84.56 123.813 84.82V82.32H124.653V87.13C124.653 87.2967 124.66 87.5433 124.673 87.87C124.687 88.19 124.737 88.5667 124.823 89H124.033L123.813 88.25C123.667 88.5167 123.46 88.73 123.193 88.89C122.927 89.0433 122.597 89.12 122.203 89.12ZM122.423 88.4C122.85 88.4 123.19 88.2367 123.443 87.91C123.703 87.5833 123.833 87.1267 123.833 86.54C123.833 85.9467 123.703 85.49 123.443 85.17C123.19 84.8433 122.85 84.68 122.423 84.68C121.997 84.68 121.653 84.8433 121.393 85.17C121.14 85.49 121.013 85.9467 121.013 86.54C121.013 87.1267 121.14 87.5833 121.393 87.91C121.653 88.2367 121.997 88.4 122.423 88.4ZM130.231 89.12C129.917 89.12 129.631 89.0633 129.371 88.95C129.111 88.8367 128.904 88.6733 128.751 88.46C128.597 88.2467 128.521 87.99 128.521 87.69C128.521 87.2967 128.657 86.9867 128.931 86.76C129.211 86.5333 129.601 86.36 130.101 86.24C130.607 86.1133 131.197 86.0133 131.871 85.94C131.884 85.52 131.801 85.1967 131.621 84.97C131.441 84.7433 131.151 84.63 130.751 84.63C130.451 84.63 130.204 84.7 130.011 84.84C129.824 84.9733 129.704 85.16 129.651 85.4L128.841 85.16C128.974 84.78 129.211 84.4867 129.551 84.28C129.897 84.0667 130.294 83.96 130.741 83.96C131.427 83.96 131.927 84.1233 132.241 84.45C132.561 84.77 132.721 85.2767 132.721 85.97V87.13C132.721 87.5433 132.737 87.9 132.771 88.2C132.804 88.5 132.844 88.7667 132.891 89H132.121L131.921 88.32C131.774 88.5667 131.564 88.7633 131.291 88.91C131.017 89.05 130.664 89.12 130.231 89.12ZM130.411 88.45C130.671 88.45 130.917 88.4033 131.151 88.31C131.384 88.2167 131.574 88.06 131.721 87.84C131.867 87.6133 131.941 87.3067 131.941 86.92V86.61C131.434 86.6633 130.994 86.73 130.621 86.81C130.247 86.8833 129.957 86.99 129.751 87.13C129.551 87.2633 129.451 87.4433 129.451 87.67C129.451 87.9033 129.534 88.0933 129.701 88.24C129.874 88.38 130.111 88.45 130.411 88.45ZM134.104 89V84.04H134.714L134.984 84.96C135.158 84.66 135.391 84.42 135.684 84.24C135.984 84.0533 136.341 83.96 136.754 83.96V84.83C136.708 84.83 136.658 84.83 136.604 84.83C136.558 84.83 136.511 84.8333 136.464 84.84C135.898 84.8867 135.501 85.0833 135.274 85.43C135.054 85.7767 134.944 86.2567 134.944 86.87V89H134.104ZM139.169 89C138.856 89 138.612 88.97 138.439 88.91C138.272 88.8433 138.156 88.72 138.089 88.54C138.029 88.36 137.999 88.1 137.999 87.76V84.71H137.159V84.04H137.999V82.79H138.839V84.04H139.799V84.71H138.839V87.62C138.839 87.8733 138.862 88.0433 138.909 88.13C138.962 88.2167 139.109 88.26 139.349 88.26H139.799V89H139.169ZM141.761 83.1C141.595 83.1 141.448 83.04 141.321 82.92C141.201 82.7933 141.141 82.6433 141.141 82.47C141.141 82.2967 141.201 82.15 141.321 82.03C141.448 81.91 141.595 81.85 141.761 81.85C141.935 81.85 142.081 81.91 142.201 82.03C142.328 82.15 142.391 82.2967 142.391 82.47C142.391 82.6433 142.328 82.7933 142.201 82.92C142.081 83.04 141.935 83.1 141.761 83.1ZM141.341 89V84.71H140.651V84.04H142.181V89H141.341ZM145.674 89.12C145.201 89.12 144.791 89.01 144.444 88.79C144.098 88.5633 143.831 88.2567 143.644 87.87C143.458 87.4833 143.364 87.04 143.364 86.54C143.364 86.0467 143.461 85.6067 143.654 85.22C143.854 84.8267 144.134 84.52 144.494 84.3C144.854 84.0733 145.278 83.96 145.764 83.96C146.211 83.96 146.594 84.07 146.914 84.29C147.234 84.51 147.474 84.7733 147.634 85.08L146.864 85.36C146.758 85.16 146.601 85 146.394 84.88C146.188 84.76 145.958 84.7 145.704 84.7C145.458 84.7 145.224 84.7667 145.004 84.9C144.784 85.0267 144.608 85.2267 144.474 85.5C144.341 85.7667 144.274 86.11 144.274 86.53C144.274 86.9433 144.341 87.29 144.474 87.57C144.614 87.8433 144.791 88.0467 145.004 88.18C145.224 88.3133 145.458 88.38 145.704 88.38C145.978 88.38 146.214 88.32 146.414 88.2C146.621 88.0733 146.778 87.9167 146.884 87.73L147.654 88.01C147.468 88.33 147.201 88.5967 146.854 88.81C146.508 89.0167 146.114 89.12 145.674 89.12ZM149.854 89C149.541 89 149.298 88.97 149.124 88.91C148.958 88.8433 148.841 88.72 148.774 88.54C148.714 88.36 148.684 88.1 148.684 87.76V82.33H149.524V87.62C149.524 87.8733 149.551 88.0433 149.604 88.13C149.658 88.2167 149.801 88.26 150.034 88.26H150.224V89H149.854ZM153.187 89.12C152.667 89.12 152.227 89.0067 151.867 88.78C151.507 88.5467 151.23 88.2367 151.037 87.85C150.85 87.4567 150.757 87.0167 150.757 86.53C150.757 86.0033 150.864 85.55 151.077 85.17C151.29 84.7833 151.577 84.4867 151.937 84.28C152.304 84.0667 152.714 83.96 153.167 83.96C153.56 83.96 153.907 84.04 154.207 84.2C154.507 84.3533 154.754 84.5633 154.947 84.83C155.147 85.09 155.29 85.3867 155.377 85.72C155.47 86.0533 155.504 86.3967 155.477 86.75H151.657C151.67 87.1633 151.76 87.49 151.927 87.73C152.1 87.97 152.304 88.14 152.537 88.24C152.77 88.3333 152.987 88.38 153.187 88.38C153.467 88.38 153.7 88.3367 153.887 88.25C154.08 88.1567 154.234 88.0367 154.347 87.89L155.157 88.13C154.977 88.4167 154.72 88.6533 154.387 88.84C154.054 89.0267 153.654 89.12 153.187 89.12ZM151.667 86.08H154.587C154.587 85.8467 154.527 85.6233 154.407 85.41C154.294 85.1967 154.13 85.0233 153.917 84.89C153.71 84.75 153.46 84.68 153.167 84.68C152.92 84.68 152.687 84.7267 152.467 84.82C152.247 84.9133 152.064 85.0633 151.917 85.27C151.777 85.4767 151.694 85.7467 151.667 86.08ZM158.158 89.12C157.871 89.12 157.588 89.0767 157.308 88.99C157.034 88.8967 156.788 88.76 156.568 88.58C156.354 88.3933 156.191 88.16 156.078 87.88L156.888 87.58C156.961 87.8733 157.121 88.0867 157.368 88.22C157.621 88.3467 157.884 88.41 158.158 88.41C158.358 88.41 158.544 88.38 158.718 88.32C158.898 88.26 159.044 88.1733 159.158 88.06C159.271 87.9467 159.328 87.8167 159.328 87.67C159.328 87.3967 159.218 87.2033 158.998 87.09C158.784 86.9767 158.528 86.89 158.228 86.83L157.538 86.69C157.298 86.6367 157.074 86.5633 156.868 86.47C156.661 86.37 156.494 86.23 156.368 86.05C156.241 85.87 156.178 85.63 156.178 85.33C156.178 85.03 156.271 84.78 156.458 84.58C156.644 84.3733 156.881 84.2167 157.168 84.11C157.461 84.0033 157.768 83.95 158.088 83.95C158.481 83.95 158.851 84.0333 159.198 84.2C159.551 84.36 159.801 84.6133 159.948 84.96L159.158 85.25C159.071 85.05 158.918 84.9033 158.698 84.81C158.484 84.71 158.261 84.66 158.028 84.66C157.774 84.66 157.544 84.7167 157.338 84.83C157.131 84.9433 157.028 85.1067 157.028 85.32C157.028 85.5333 157.114 85.69 157.288 85.79C157.468 85.8833 157.688 85.9567 157.948 86.01L158.598 86.14C158.864 86.1933 159.118 86.27 159.358 86.37C159.598 86.47 159.794 86.62 159.948 86.82C160.101 87.0133 160.178 87.2867 160.178 87.64C160.178 87.9533 160.081 88.22 159.888 88.44C159.694 88.66 159.444 88.83 159.138 88.95C158.831 89.0633 158.504 89.12 158.158 89.12ZM161.495 89.12C161.321 89.12 161.171 89.0567 161.045 88.93C160.918 88.8033 160.855 88.6533 160.855 88.48C160.855 88.3 160.918 88.1467 161.045 88.02C161.171 87.8933 161.321 87.83 161.495 87.83C161.675 87.83 161.828 87.8933 161.955 88.02C162.081 88.1467 162.145 88.3 162.145 88.48C162.145 88.6533 162.081 88.8033 161.955 88.93C161.828 89.0567 161.675 89.12 161.495 89.12Z" fill="black"/>
<path d="M154 32L94 32" stroke="black" stroke-width="5"/>
<path d="M144 32L98 32" stroke="black" stroke-opacity="0.5" stroke-width="10"/>
<path d="M144 32L108 32" stroke="black" stroke-opacity="0.5" stroke-width="15"/>
<circle cx="92.5" cy="31.5" r="17" fill="#FCF4E9" stroke="black"/>
<circle cx="157.5" cy="31.5" r="17" fill="#FCF4E9" stroke="black"/>
<path d="M194.496 65.12C194.129 65.12 193.773 65.0633 193.426 64.95C193.079 64.8367 192.773 64.6633 192.506 64.43C192.246 64.1967 192.056 63.9 191.936 63.54L192.806 63.28C192.886 63.52 193.016 63.72 193.196 63.88C193.376 64.0333 193.583 64.1467 193.816 64.22C194.056 64.2933 194.296 64.33 194.536 64.33C194.803 64.33 195.056 64.2867 195.296 64.2C195.536 64.1133 195.729 63.9833 195.876 63.81C196.029 63.63 196.106 63.4067 196.106 63.14C196.106 62.8667 196.006 62.65 195.806 62.49C195.606 62.33 195.259 62.1867 194.766 62.06L193.916 61.87C193.609 61.79 193.306 61.6833 193.006 61.55C192.713 61.4167 192.469 61.2267 192.276 60.98C192.089 60.7333 191.996 60.4033 191.996 59.99C191.996 59.61 192.113 59.2867 192.346 59.02C192.586 58.7533 192.893 58.55 193.266 58.41C193.646 58.27 194.039 58.2 194.446 58.2C194.759 58.2 195.066 58.2467 195.366 58.34C195.673 58.4267 195.946 58.5633 196.186 58.75C196.433 58.93 196.626 59.1633 196.766 59.45L195.906 59.7C195.779 59.4667 195.573 59.29 195.286 59.17C195.006 59.05 194.713 58.99 194.406 58.99C194.166 58.99 193.936 59.03 193.716 59.11C193.496 59.1833 193.316 59.2967 193.176 59.45C193.036 59.6033 192.966 59.7967 192.966 60.03C192.966 60.25 193.029 60.4267 193.156 60.56C193.289 60.6933 193.463 60.8 193.676 60.88C193.896 60.9533 194.136 61.02 194.396 61.08L195.126 61.24C195.466 61.32 195.786 61.43 196.086 61.57C196.386 61.71 196.629 61.9067 196.816 62.16C197.003 62.4133 197.096 62.7533 197.096 63.18C197.096 63.4867 197.023 63.7633 196.876 64.01C196.729 64.25 196.533 64.4533 196.286 64.62C196.039 64.78 195.759 64.9033 195.446 64.99C195.139 65.0767 194.823 65.12 194.496 65.12ZM200.303 65.12C199.783 65.12 199.343 65.0067 198.983 64.78C198.623 64.5467 198.346 64.2367 198.153 63.85C197.966 63.4567 197.873 63.0167 197.873 62.53C197.873 62.0033 197.98 61.55 198.193 61.17C198.406 60.7833 198.693 60.4867 199.053 60.28C199.42 60.0667 199.83 59.96 200.283 59.96C200.676 59.96 201.023 60.04 201.323 60.2C201.623 60.3533 201.87 60.5633 202.063 60.83C202.263 61.09 202.406 61.3867 202.493 61.72C202.586 62.0533 202.62 62.3967 202.593 62.75H198.773C198.786 63.1633 198.876 63.49 199.043 63.73C199.216 63.97 199.42 64.14 199.653 64.24C199.886 64.3333 200.103 64.38 200.303 64.38C200.583 64.38 200.816 64.3367 201.003 64.25C201.196 64.1567 201.35 64.0367 201.463 63.89L202.273 64.13C202.093 64.4167 201.836 64.6533 201.503 64.84C201.17 65.0267 200.77 65.12 200.303 65.12ZM198.783 62.08H201.703C201.703 61.8467 201.643 61.6233 201.523 61.41C201.41 61.1967 201.246 61.0233 201.033 60.89C200.826 60.75 200.576 60.68 200.283 60.68C200.036 60.68 199.803 60.7267 199.583 60.82C199.363 60.9133 199.18 61.0633 199.033 61.27C198.893 61.4767 198.81 61.7467 198.783 62.08ZM204.754 65C204.44 65 204.197 64.97 204.024 64.91C203.857 64.8433 203.74 64.72 203.674 64.54C203.614 64.36 203.584 64.1 203.584 63.76V58.33H204.424V63.62C204.424 63.8733 204.45 64.0433 204.504 64.13C204.557 64.2167 204.7 64.26 204.934 64.26H205.124V65H204.754ZM208.086 65.12C207.566 65.12 207.126 65.0067 206.766 64.78C206.406 64.5467 206.13 64.2367 205.936 63.85C205.75 63.4567 205.656 63.0167 205.656 62.53C205.656 62.0033 205.763 61.55 205.976 61.17C206.19 60.7833 206.476 60.4867 206.836 60.28C207.203 60.0667 207.613 59.96 208.066 59.96C208.46 59.96 208.806 60.04 209.106 60.2C209.406 60.3533 209.653 60.5633 209.846 60.83C210.046 61.09 210.19 61.3867 210.276 61.72C210.37 62.0533 210.403 62.3967 210.376 62.75H206.556C206.57 63.1633 206.66 63.49 206.826 63.73C207 63.97 207.203 64.14 207.436 64.24C207.67 64.3333 207.886 64.38 208.086 64.38C208.366 64.38 208.6 64.3367 208.786 64.25C208.98 64.1567 209.133 64.0367 209.246 63.89L210.056 64.13C209.876 64.4167 209.62 64.6533 209.286 64.84C208.953 65.0267 208.553 65.12 208.086 65.12ZM206.566 62.08H209.486C209.486 61.8467 209.426 61.6233 209.306 61.41C209.193 61.1967 209.03 61.0233 208.816 60.89C208.61 60.75 208.36 60.68 208.066 60.68C207.82 60.68 207.586 60.7267 207.366 60.82C207.146 60.9133 206.963 61.0633 206.816 61.27C206.676 61.4767 206.593 61.7467 206.566 62.08ZM213.357 65.12C212.884 65.12 212.474 65.01 212.127 64.79C211.78 64.5633 211.514 64.2567 211.327 63.87C211.14 63.4833 211.047 63.04 211.047 62.54C211.047 62.0467 211.144 61.6067 211.337 61.22C211.537 60.8267 211.817 60.52 212.177 60.3C212.537 60.0733 212.96 59.96 213.447 59.96C213.894 59.96 214.277 60.07 214.597 60.29C214.917 60.51 215.157 60.7733 215.317 61.08L214.547 61.36C214.44 61.16 214.284 61 214.077 60.88C213.87 60.76 213.64 60.7 213.387 60.7C213.14 60.7 212.907 60.7667 212.687 60.9C212.467 61.0267 212.29 61.2267 212.157 61.5C212.024 61.7667 211.957 62.11 211.957 62.53C211.957 62.9433 212.024 63.29 212.157 63.57C212.297 63.8433 212.474 64.0467 212.687 64.18C212.907 64.3133 213.14 64.38 213.387 64.38C213.66 64.38 213.897 64.32 214.097 64.2C214.304 64.0733 214.46 63.9167 214.567 63.73L215.337 64.01C215.15 64.33 214.884 64.5967 214.537 64.81C214.19 65.0167 213.797 65.12 213.357 65.12ZM217.877 65C217.564 65 217.32 64.97 217.147 64.91C216.98 64.8433 216.864 64.72 216.797 64.54C216.737 64.36 216.707 64.1 216.707 63.76V60.71H215.867V60.04H216.707V58.79H217.547V60.04H218.507V60.71H217.547V63.62C217.547 63.8733 217.57 64.0433 217.617 64.13C217.67 64.2167 217.817 64.26 218.057 64.26H218.507V65H217.877ZM223.922 65C223.609 65 223.365 64.97 223.192 64.91C223.025 64.8433 222.909 64.72 222.842 64.54C222.782 64.36 222.752 64.1 222.752 63.76V60.71H221.912V60.04H222.752V58.79H223.592V60.04H224.552V60.71H223.592V63.62C223.592 63.8733 223.615 64.0433 223.662 64.13C223.715 64.2167 223.862 64.26 224.102 64.26H224.552V65H223.922ZM226.384 65L224.954 60.04H225.854L226.804 63.71L227.794 60.04H228.664L229.644 63.71L230.594 60.04H231.494L230.074 65H229.304L228.224 61.01L227.144 65H226.384ZM234.257 65.12C233.97 65.12 233.687 65.07 233.407 64.97C233.127 64.87 232.87 64.7167 232.637 64.51C232.41 64.2967 232.227 64.0267 232.087 63.7C231.947 63.3733 231.877 62.9867 231.877 62.54C231.877 62.0933 231.947 61.7067 232.087 61.38C232.227 61.0533 232.41 60.7867 232.637 60.58C232.87 60.3667 233.127 60.21 233.407 60.11C233.687 60.01 233.97 59.96 234.257 59.96C234.544 59.96 234.827 60.01 235.107 60.11C235.394 60.21 235.65 60.3667 235.877 60.58C236.11 60.7867 236.294 61.0533 236.427 61.38C236.567 61.7067 236.637 62.0933 236.637 62.54C236.637 62.9867 236.567 63.3733 236.427 63.7C236.294 64.0267 236.11 64.2967 235.877 64.51C235.65 64.7167 235.394 64.87 235.107 64.97C234.827 65.07 234.544 65.12 234.257 65.12ZM234.257 64.38C234.497 64.38 234.73 64.3167 234.957 64.19C235.184 64.0567 235.37 63.8567 235.517 63.59C235.664 63.3167 235.737 62.9667 235.737 62.54C235.737 62.1133 235.664 61.7667 235.517 61.5C235.37 61.2267 235.184 61.0267 234.957 60.9C234.73 60.7667 234.497 60.7 234.257 60.7C234.024 60.7 233.79 60.7667 233.557 60.9C233.33 61.0267 233.144 61.2267 232.997 61.5C232.85 61.7667 232.777 62.1133 232.777 62.54C232.777 62.9667 232.85 63.3167 232.997 63.59C233.144 63.8567 233.33 64.0567 233.557 64.19C233.79 64.3167 234.024 64.38 234.257 64.38ZM242.967 65.12C242.581 65.12 242.254 65.0433 241.987 64.89C241.721 64.73 241.511 64.5167 241.357 64.25L241.137 65H240.517V58.32H241.357V60.82C241.511 60.56 241.721 60.3533 241.987 60.2C242.254 60.04 242.581 59.96 242.967 59.96C243.347 59.96 243.697 60.0633 244.017 60.27C244.344 60.47 244.604 60.7633 244.797 61.15C244.997 61.53 245.097 61.9933 245.097 62.54C245.097 63.0867 244.997 63.5533 244.797 63.94C244.604 64.32 244.344 64.6133 244.017 64.82C243.697 65.02 243.347 65.12 242.967 65.12ZM242.747 64.4C243.174 64.4 243.514 64.2367 243.767 63.91C244.027 63.5833 244.157 63.1267 244.157 62.54C244.157 61.9467 244.027 61.49 243.767 61.17C243.514 60.8433 243.174 60.68 242.747 60.68C242.321 60.68 241.977 60.8433 241.717 61.17C241.464 61.49 241.337 61.9467 241.337 62.54C241.337 63.1267 241.464 63.5833 241.717 63.91C241.977 64.2367 242.321 64.4 242.747 64.4ZM247.751 65.12C247.365 65.12 247.055 65.04 246.821 64.88C246.588 64.7133 246.418 64.4867 246.311 64.2C246.211 63.9067 246.161 63.5733 246.161 63.2V60.03H247.001V63C247.001 63.3667 247.045 63.65 247.131 63.85C247.218 64.05 247.338 64.19 247.491 64.27C247.651 64.3433 247.835 64.38 248.041 64.38C248.435 64.38 248.741 64.2433 248.961 63.97C249.188 63.69 249.301 63.2867 249.301 62.76V60.03H250.141V65H249.511L249.301 64.28C249.161 64.52 248.971 64.72 248.731 64.88C248.491 65.04 248.165 65.12 247.751 65.12ZM253.993 65.12C253.606 65.12 253.279 65.0433 253.013 64.89C252.746 64.73 252.536 64.5167 252.383 64.25L252.163 65H251.543V58.32H252.383V60.82C252.536 60.56 252.746 60.3533 253.013 60.2C253.279 60.04 253.606 59.96 253.993 59.96C254.373 59.96 254.723 60.0633 255.043 60.27C255.369 60.47 255.629 60.7633 255.823 61.15C256.023 61.53 256.123 61.9933 256.123 62.54C256.123 63.0867 256.023 63.5533 255.823 63.94C255.629 64.32 255.369 64.6133 255.043 64.82C254.723 65.02 254.373 65.12 253.993 65.12ZM253.773 64.4C254.199 64.4 254.539 64.2367 254.793 63.91C255.053 63.5833 255.183 63.1267 255.183 62.54C255.183 61.9467 255.053 61.49 254.793 61.17C254.539 60.8433 254.199 60.68 253.773 60.68C253.346 60.68 253.003 60.8433 252.743 61.17C252.489 61.49 252.363 61.9467 252.363 62.54C252.363 63.1267 252.489 63.5833 252.743 63.91C253.003 64.2367 253.346 64.4 253.773 64.4ZM259.657 65.12C259.27 65.12 258.944 65.0433 258.677 64.89C258.41 64.73 258.2 64.5167 258.047 64.25L257.827 65H257.207V58.32H258.047V60.82C258.2 60.56 258.41 60.3533 258.677 60.2C258.944 60.04 259.27 59.96 259.657 59.96C260.037 59.96 260.387 60.0633 260.707 60.27C261.034 60.47 261.294 60.7633 261.487 61.15C261.687 61.53 261.787 61.9933 261.787 62.54C261.787 63.0867 261.687 63.5533 261.487 63.94C261.294 64.32 261.034 64.6133 260.707 64.82C260.387 65.02 260.037 65.12 259.657 65.12ZM259.437 64.4C259.864 64.4 260.204 64.2367 260.457 63.91C260.717 63.5833 260.847 63.1267 260.847 62.54C260.847 61.9467 260.717 61.49 260.457 61.17C260.204 60.8433 259.864 60.68 259.437 60.68C259.01 60.68 258.667 60.8433 258.407 61.17C258.154 61.49 258.027 61.9467 258.027 62.54C258.027 63.1267 258.154 63.5833 258.407 63.91C258.667 64.2367 259.01 64.4 259.437 64.4ZM264.041 65C263.728 65 263.484 64.97 263.311 64.91C263.144 64.8433 263.028 64.72 262.961 64.54C262.901 64.36 262.871 64.1 262.871 63.76V58.33H263.711V63.62C263.711 63.8733 263.738 64.0433 263.791 64.13C263.844 64.2167 263.988 64.26 264.221 64.26H264.411V65H264.041ZM267.373 65.12C266.853 65.12 266.413 65.0067 266.053 64.78C265.693 64.5467 265.417 64.2367 265.223 63.85C265.037 63.4567 264.943 63.0167 264.943 62.53C264.943 62.0033 265.05 61.55 265.263 61.17C265.477 60.7833 265.763 60.4867 266.123 60.28C266.49 60.0667 266.9 59.96 267.353 59.96C267.747 59.96 268.093 60.04 268.393 60.2C268.693 60.3533 268.94 60.5633 269.133 60.83C269.333 61.09 269.477 61.3867 269.563 61.72C269.657 62.0533 269.69 62.3967 269.663 62.75H265.843C265.857 63.1633 265.947 63.49 266.113 63.73C266.287 63.97 266.49 64.14 266.723 64.24C266.957 64.3333 267.173 64.38 267.373 64.38C267.653 64.38 267.887 64.3367 268.073 64.25C268.267 64.1567 268.42 64.0367 268.533 63.89L269.343 64.13C269.163 64.4167 268.907 64.6533 268.573 64.84C268.24 65.0267 267.84 65.12 267.373 65.12ZM265.853 62.08H268.773C268.773 61.8467 268.713 61.6233 268.593 61.41C268.48 61.1967 268.317 61.0233 268.103 60.89C267.897 60.75 267.647 60.68 267.353 60.68C267.107 60.68 266.873 60.7267 266.653 60.82C266.433 60.9133 266.25 61.0633 266.103 61.27C265.963 61.4767 265.88 61.7467 265.853 62.08ZM272.344 65.12C272.057 65.12 271.774 65.0767 271.494 64.99C271.221 64.8967 270.974 64.76 270.754 64.58C270.541 64.3933 270.377 64.16 270.264 63.88L271.074 63.58C271.147 63.8733 271.307 64.0867 271.554 64.22C271.807 64.3467 272.071 64.41 272.344 64.41C272.544 64.41 272.731 64.38 272.904 64.32C273.084 64.26 273.231 64.1733 273.344 64.06C273.457 63.9467 273.514 63.8167 273.514 63.67C273.514 63.3967 273.404 63.2033 273.184 63.09C272.971 62.9767 272.714 62.89 272.414 62.83L271.724 62.69C271.484 62.6367 271.261 62.5633 271.054 62.47C270.847 62.37 270.681 62.23 270.554 62.05C270.427 61.87 270.364 61.63 270.364 61.33C270.364 61.03 270.457 60.78 270.644 60.58C270.831 60.3733 271.067 60.2167 271.354 60.11C271.647 60.0033 271.954 59.95 272.274 59.95C272.667 59.95 273.037 60.0333 273.384 60.2C273.737 60.36 273.987 60.6133 274.134 60.96L273.344 61.25C273.257 61.05 273.104 60.9033 272.884 60.81C272.671 60.71 272.447 60.66 272.214 60.66C271.961 60.66 271.731 60.7167 271.524 60.83C271.317 60.9433 271.214 61.1067 271.214 61.32C271.214 61.5333 271.301 61.69 271.474 61.79C271.654 61.8833 271.874 61.9567 272.134 62.01L272.784 62.14C273.051 62.1933 273.304 62.27 273.544 62.37C273.784 62.47 273.981 62.62 274.134 62.82C274.287 63.0133 274.364 63.2867 274.364 63.64C274.364 63.9533 274.267 64.22 274.074 64.44C273.881 64.66 273.631 64.83 273.324 64.95C273.017 65.0633 272.691 65.12 272.344 65.12ZM214.747 77C214.434 77 214.19 76.97 214.017 76.91C213.85 76.8433 213.734 76.72 213.667 76.54C213.607 76.36 213.577 76.1 213.577 75.76V72.71H212.737V72.04H213.577V70.79H214.417V72.04H215.377V72.71H214.417V75.62C214.417 75.8733 214.44 76.0433 214.487 76.13C214.54 76.2167 214.687 76.26 214.927 76.26H215.377V77H214.747ZM218.539 77.12C218.253 77.12 217.969 77.07 217.689 76.97C217.409 76.87 217.153 76.7167 216.919 76.51C216.693 76.2967 216.509 76.0267 216.369 75.7C216.229 75.3733 216.159 74.9867 216.159 74.54C216.159 74.0933 216.229 73.7067 216.369 73.38C216.509 73.0533 216.693 72.7867 216.919 72.58C217.153 72.3667 217.409 72.21 217.689 72.11C217.969 72.01 218.253 71.96 218.539 71.96C218.826 71.96 219.109 72.01 219.389 72.11C219.676 72.21 219.933 72.3667 220.159 72.58C220.393 72.7867 220.576 73.0533 220.709 73.38C220.849 73.7067 220.919 74.0933 220.919 74.54C220.919 74.9867 220.849 75.3733 220.709 75.7C220.576 76.0267 220.393 76.2967 220.159 76.51C219.933 76.7167 219.676 76.87 219.389 76.97C219.109 77.07 218.826 77.12 218.539 77.12ZM218.539 76.38C218.779 76.38 219.013 76.3167 219.239 76.19C219.466 76.0567 219.653 75.8567 219.799 75.59C219.946 75.3167 220.019 74.9667 220.019 74.54C220.019 74.1133 219.946 73.7667 219.799 73.5C219.653 73.2267 219.466 73.0267 219.239 72.9C219.013 72.7667 218.779 72.7 218.539 72.7C218.306 72.7 218.073 72.7667 217.839 72.9C217.613 73.0267 217.426 73.2267 217.279 73.5C217.133 73.7667 217.059 74.1133 217.059 74.54C217.059 74.9667 217.133 75.3167 217.279 75.59C217.426 75.8567 217.613 76.0567 217.839 76.19C218.073 76.3167 218.306 76.38 218.539 76.38ZM226.91 77.12C226.39 77.12 225.95 77.0067 225.59 76.78C225.23 76.5467 224.953 76.2367 224.76 75.85C224.573 75.4567 224.48 75.0167 224.48 74.53C224.48 74.0033 224.586 73.55 224.8 73.17C225.013 72.7833 225.3 72.4867 225.66 72.28C226.026 72.0667 226.436 71.96 226.89 71.96C227.283 71.96 227.63 72.04 227.93 72.2C228.23 72.3533 228.476 72.5633 228.67 72.83C228.87 73.09 229.013 73.3867 229.1 73.72C229.193 74.0533 229.226 74.3967 229.2 74.75H225.38C225.393 75.1633 225.483 75.49 225.65 75.73C225.823 75.97 226.026 76.14 226.26 76.24C226.493 76.3333 226.71 76.38 226.91 76.38C227.19 76.38 227.423 76.3367 227.61 76.25C227.803 76.1567 227.956 76.0367 228.07 75.89L228.88 76.13C228.7 76.4167 228.443 76.6533 228.11 76.84C227.776 77.0267 227.376 77.12 226.91 77.12ZM225.39 74.08H228.31C228.31 73.8467 228.25 73.6233 228.13 73.41C228.016 73.1967 227.853 73.0233 227.64 72.89C227.433 72.75 227.183 72.68 226.89 72.68C226.643 72.68 226.41 72.7267 226.19 72.82C225.97 72.9133 225.786 73.0633 225.64 73.27C225.5 73.4767 225.416 73.7467 225.39 74.08ZM229.49 77L231.3 74.45L229.58 72.04H230.57L231.79 73.76L233.02 72.04H234.01L232.29 74.45L234.1 77H233.11L231.79 75.15L230.48 77H229.49ZM234.8 78.61V72.04H235.41L235.64 72.82C235.793 72.56 236.003 72.3533 236.27 72.2C236.536 72.04 236.863 71.96 237.25 71.96C237.63 71.96 237.98 72.0633 238.3 72.27C238.626 72.47 238.886 72.7633 239.08 73.15C239.28 73.53 239.38 73.9933 239.38 74.54C239.38 75.08 239.28 75.5433 239.08 75.93C238.886 76.3167 238.626 76.6133 238.3 76.82C237.98 77.02 237.63 77.12 237.25 77.12C236.863 77.12 236.536 77.0433 236.27 76.89C236.003 76.73 235.793 76.5167 235.64 76.25V78.61H234.8ZM237.03 76.4C237.456 76.4 237.796 76.2367 238.05 75.91C238.31 75.5833 238.44 75.1267 238.44 74.54C238.44 73.9467 238.31 73.49 238.05 73.17C237.796 72.8433 237.456 72.68 237.03 72.68C236.603 72.68 236.26 72.8433 236 73.17C235.746 73.49 235.62 73.9467 235.62 74.54C235.62 75.1267 235.746 75.5833 236 75.91C236.26 76.2367 236.603 76.4 237.03 76.4ZM241.634 77C241.32 77 241.077 76.97 240.904 76.91C240.737 76.8433 240.62 76.72 240.554 76.54C240.494 76.36 240.464 76.1 240.464 75.76V70.33H241.304V75.62C241.304 75.8733 241.33 76.0433 241.384 76.13C241.437 76.2167 241.58 76.26 241.814 76.26H242.004V77H241.634ZM244.916 77.12C244.63 77.12 244.346 77.07 244.066 76.97C243.786 76.87 243.53 76.7167 243.296 76.51C243.07 76.2967 242.886 76.0267 242.746 75.7C242.606 75.3733 242.536 74.9867 242.536 74.54C242.536 74.0933 242.606 73.7067 242.746 73.38C242.886 73.0533 243.07 72.7867 243.296 72.58C243.53 72.3667 243.786 72.21 244.066 72.11C244.346 72.01 244.63 71.96 244.916 71.96C245.203 71.96 245.486 72.01 245.766 72.11C246.053 72.21 246.31 72.3667 246.536 72.58C246.77 72.7867 246.953 73.0533 247.086 73.38C247.226 73.7067 247.296 74.0933 247.296 74.54C247.296 74.9867 247.226 75.3733 247.086 75.7C246.953 76.0267 246.77 76.2967 246.536 76.51C246.31 76.7167 246.053 76.87 245.766 76.97C245.486 77.07 245.203 77.12 244.916 77.12ZM244.916 76.38C245.156 76.38 245.39 76.3167 245.616 76.19C245.843 76.0567 246.03 75.8567 246.176 75.59C246.323 75.3167 246.396 74.9667 246.396 74.54C246.396 74.1133 246.323 73.7667 246.176 73.5C246.03 73.2267 245.843 73.0267 245.616 72.9C245.39 72.7667 245.156 72.7 244.916 72.7C244.683 72.7 244.45 72.7667 244.216 72.9C243.99 73.0267 243.803 73.2267 243.656 73.5C243.51 73.7667 243.436 74.1133 243.436 74.54C243.436 74.9667 243.51 75.3167 243.656 75.59C243.803 75.8567 243.99 76.0567 244.216 76.19C244.45 76.3167 244.683 76.38 244.916 76.38ZM248.374 77V72.04H248.984L249.254 72.96C249.427 72.66 249.66 72.42 249.954 72.24C250.254 72.0533 250.61 71.96 251.024 71.96V72.83C250.977 72.83 250.927 72.83 250.874 72.83C250.827 72.83 250.78 72.8333 250.734 72.84C250.167 72.8867 249.77 73.0833 249.544 73.43C249.324 73.7767 249.214 74.2567 249.214 74.87V77H248.374ZM253.882 77.12C253.362 77.12 252.922 77.0067 252.562 76.78C252.202 76.5467 251.926 76.2367 251.732 75.85C251.546 75.4567 251.452 75.0167 251.452 74.53C251.452 74.0033 251.559 73.55 251.772 73.17C251.986 72.7833 252.272 72.4867 252.632 72.28C252.999 72.0667 253.409 71.96 253.862 71.96C254.256 71.96 254.602 72.04 254.902 72.2C255.202 72.3533 255.449 72.5633 255.642 72.83C255.842 73.09 255.986 73.3867 256.072 73.72C256.166 74.0533 256.199 74.3967 256.172 74.75H252.352C252.366 75.1633 252.456 75.49 252.622 75.73C252.796 75.97 252.999 76.14 253.232 76.24C253.466 76.3333 253.682 76.38 253.882 76.38C254.162 76.38 254.396 76.3367 254.582 76.25C254.776 76.1567 254.929 76.0367 255.042 75.89L255.852 76.13C255.672 76.4167 255.416 76.6533 255.082 76.84C254.749 77.0267 254.349 77.12 253.882 77.12ZM252.362 74.08H255.282C255.282 73.8467 255.222 73.6233 255.102 73.41C254.989 73.1967 254.826 73.0233 254.612 72.89C254.406 72.75 254.156 72.68 253.862 72.68C253.616 72.68 253.382 72.7267 253.162 72.82C252.942 72.9133 252.759 73.0633 252.612 73.27C252.472 73.4767 252.389 73.7467 252.362 74.08ZM191.7 89C191.387 89 191.144 88.97 190.97 88.91C190.804 88.8433 190.687 88.72 190.62 88.54C190.56 88.36 190.53 88.1 190.53 87.76V84.71H189.69V84.04H190.53V82.79H191.37V84.04H192.33V84.71H191.37V87.62C191.37 87.8733 191.394 88.0433 191.44 88.13C191.494 88.2167 191.64 88.26 191.88 88.26H192.33V89H191.7ZM193.432 89V82.32H194.272V84.79C194.412 84.5567 194.609 84.36 194.862 84.2C195.116 84.04 195.452 83.96 195.872 83.96C196.472 83.96 196.896 84.1367 197.142 84.49C197.389 84.8367 197.512 85.2933 197.512 85.86V89H196.672V86.11C196.672 85.8567 196.649 85.6233 196.602 85.41C196.556 85.19 196.452 85.0133 196.292 84.88C196.139 84.7467 195.902 84.68 195.582 84.68C195.176 84.68 194.856 84.82 194.622 85.1C194.389 85.3733 194.272 85.7767 194.272 86.31V89H193.432ZM200.894 89.12C200.374 89.12 199.934 89.0067 199.574 88.78C199.214 88.5467 198.937 88.2367 198.744 87.85C198.557 87.4567 198.464 87.0167 198.464 86.53C198.464 86.0033 198.571 85.55 198.784 85.17C198.997 84.7833 199.284 84.4867 199.644 84.28C200.011 84.0667 200.421 83.96 200.874 83.96C201.267 83.96 201.614 84.04 201.914 84.2C202.214 84.3533 202.461 84.5633 202.654 84.83C202.854 85.09 202.997 85.3867 203.084 85.72C203.177 86.0533 203.211 86.3967 203.184 86.75H199.364C199.377 87.1633 199.467 87.49 199.634 87.73C199.807 87.97 200.011 88.14 200.244 88.24C200.477 88.3333 200.694 88.38 200.894 88.38C201.174 88.38 201.407 88.3367 201.594 88.25C201.787 88.1567 201.941 88.0367 202.054 87.89L202.864 88.13C202.684 88.4167 202.427 88.6533 202.094 88.84C201.761 89.0267 201.361 89.12 200.894 89.12ZM199.374 86.08H202.294C202.294 85.8467 202.234 85.6233 202.114 85.41C202.001 85.1967 201.837 85.0233 201.624 84.89C201.417 84.75 201.167 84.68 200.874 84.68C200.627 84.68 200.394 84.7267 200.174 84.82C199.954 84.9133 199.771 85.0633 199.624 85.27C199.484 85.4767 199.401 85.7467 199.374 86.08ZM205.035 83.1C204.868 83.1 204.721 83.04 204.595 82.92C204.475 82.7933 204.415 82.6433 204.415 82.47C204.415 82.2967 204.475 82.15 204.595 82.03C204.721 81.91 204.868 81.85 205.035 81.85C205.208 81.85 205.355 81.91 205.475 82.03C205.601 82.15 205.665 82.2967 205.665 82.47C205.665 82.6433 205.601 82.7933 205.475 82.92C205.355 83.04 205.208 83.1 205.035 83.1ZM204.615 89V84.71H203.925V84.04H205.455V89H204.615ZM206.958 89V84.04H207.568L207.838 84.96C208.011 84.66 208.244 84.42 208.538 84.24C208.838 84.0533 209.194 83.96 209.608 83.96V84.83C209.561 84.83 209.511 84.83 209.458 84.83C209.411 84.83 209.364 84.8333 209.318 84.84C208.751 84.8867 208.354 85.0833 208.128 85.43C207.908 85.7767 207.798 86.2567 207.798 86.87V89H206.958ZM214.849 89.12C214.562 89.12 214.279 89.0767 213.999 88.99C213.726 88.8967 213.479 88.76 213.259 88.58C213.046 88.3933 212.882 88.16 212.769 87.88L213.579 87.58C213.652 87.8733 213.812 88.0867 214.059 88.22C214.312 88.3467 214.576 88.41 214.849 88.41C215.049 88.41 215.236 88.38 215.409 88.32C215.589 88.26 215.736 88.1733 215.849 88.06C215.962 87.9467 216.019 87.8167 216.019 87.67C216.019 87.3967 215.909 87.2033 215.689 87.09C215.476 86.9767 215.219 86.89 214.919 86.83L214.229 86.69C213.989 86.6367 213.766 86.5633 213.559 86.47C213.352 86.37 213.186 86.23 213.059 86.05C212.932 85.87 212.869 85.63 212.869 85.33C212.869 85.03 212.962 84.78 213.149 84.58C213.336 84.3733 213.572 84.2167 213.859 84.11C214.152 84.0033 214.459 83.95 214.779 83.95C215.172 83.95 215.542 84.0333 215.889 84.2C216.242 84.36 216.492 84.6133 216.639 84.96L215.849 85.25C215.762 85.05 215.609 84.9033 215.389 84.81C215.176 84.71 214.952 84.66 214.719 84.66C214.466 84.66 214.236 84.7167 214.029 84.83C213.822 84.9433 213.719 85.1067 213.719 85.32C213.719 85.5333 213.806 85.69 213.979 85.79C214.159 85.8833 214.379 85.9567 214.639 86.01L215.289 86.14C215.556 86.1933 215.809 86.27 216.049 86.37C216.289 86.47 216.486 86.62 216.639 86.82C216.792 87.0133 216.869 87.2867 216.869 87.64C216.869 87.9533 216.772 88.22 216.579 88.44C216.386 88.66 216.136 88.83 215.829 88.95C215.522 89.0633 215.196 89.12 214.849 89.12ZM217.866 89V82.32H218.706V84.79C218.846 84.5567 219.043 84.36 219.296 84.2C219.549 84.04 219.886 83.96 220.306 83.96C220.906 83.96 221.329 84.1367 221.576 84.49C221.823 84.8367 221.946 85.2933 221.946 85.86V89H221.106V86.11C221.106 85.8567 221.083 85.6233 221.036 85.41C220.989 85.19 220.886 85.0133 220.726 84.88C220.573 84.7467 220.336 84.68 220.016 84.68C219.609 84.68 219.289 84.82 219.056 85.1C218.823 85.3733 218.706 85.7767 218.706 86.31V89H217.866ZM224.715 89.12C224.402 89.12 224.115 89.0633 223.855 88.95C223.595 88.8367 223.388 88.6733 223.235 88.46C223.082 88.2467 223.005 87.99 223.005 87.69C223.005 87.2967 223.142 86.9867 223.415 86.76C223.695 86.5333 224.085 86.36 224.585 86.24C225.092 86.1133 225.682 86.0133 226.355 85.94C226.368 85.52 226.285 85.1967 226.105 84.97C225.925 84.7433 225.635 84.63 225.235 84.63C224.935 84.63 224.688 84.7 224.495 84.84C224.308 84.9733 224.188 85.16 224.135 85.4L223.325 85.16C223.458 84.78 223.695 84.4867 224.035 84.28C224.382 84.0667 224.778 83.96 225.225 83.96C225.912 83.96 226.412 84.1233 226.725 84.45C227.045 84.77 227.205 85.2767 227.205 85.97V87.13C227.205 87.5433 227.222 87.9 227.255 88.2C227.288 88.5 227.328 88.7667 227.375 89H226.605L226.405 88.32C226.258 88.5667 226.048 88.7633 225.775 88.91C225.502 89.05 225.148 89.12 224.715 89.12ZM224.895 88.45C225.155 88.45 225.402 88.4033 225.635 88.31C225.868 88.2167 226.058 88.06 226.205 87.84C226.352 87.6133 226.425 87.3067 226.425 86.92V86.61C225.918 86.6633 225.478 86.73 225.105 86.81C224.732 86.8833 224.442 86.99 224.235 87.13C224.035 87.2633 223.935 87.4433 223.935 87.67C223.935 87.9033 224.018 88.0933 224.185 88.24C224.358 88.38 224.595 88.45 224.895 88.45ZM228.589 89V84.04H229.199L229.469 84.96C229.642 84.66 229.875 84.42 230.169 84.24C230.469 84.0533 230.825 83.96 231.239 83.96V84.83C231.192 84.83 231.142 84.83 231.089 84.83C231.042 84.83 230.995 84.8333 230.949 84.84C230.382 84.8867 229.985 85.0833 229.759 85.43C229.539 85.7767 229.429 86.2567 229.429 86.87V89H228.589ZM234.097 89.12C233.577 89.12 233.137 89.0067 232.777 88.78C232.417 88.5467 232.14 88.2367 231.947 87.85C231.76 87.4567 231.667 87.0167 231.667 86.53C231.667 86.0033 231.774 85.55 231.987 85.17C232.2 84.7833 232.487 84.4867 232.847 84.28C233.214 84.0667 233.624 83.96 234.077 83.96C234.47 83.96 234.817 84.04 235.117 84.2C235.417 84.3533 235.664 84.5633 235.857 84.83C236.057 85.09 236.2 85.3867 236.287 85.72C236.38 86.0533 236.414 86.3967 236.387 86.75H232.567C232.58 87.1633 232.67 87.49 232.837 87.73C233.01 87.97 233.214 88.14 233.447 88.24C233.68 88.3333 233.897 88.38 234.097 88.38C234.377 88.38 234.61 88.3367 234.797 88.25C234.99 88.1567 235.144 88.0367 235.257 87.89L236.067 88.13C235.887 88.4167 235.63 88.6533 235.297 88.84C234.964 89.0267 234.564 89.12 234.097 89.12ZM232.577 86.08H235.497C235.497 85.8467 235.437 85.6233 235.317 85.41C235.204 85.1967 235.04 85.0233 234.827 84.89C234.62 84.75 234.37 84.68 234.077 84.68C233.83 84.68 233.597 84.7267 233.377 84.82C233.157 84.9133 232.974 85.0633 232.827 85.27C232.687 85.4767 232.604 85.7467 232.577 86.08ZM239.188 89.12C238.814 89.12 238.464 89.02 238.138 88.82C237.811 88.6133 237.548 88.32 237.348 87.94C237.154 87.5533 237.058 87.0867 237.058 86.54C237.058 85.9933 237.154 85.53 237.348 85.15C237.548 84.7633 237.811 84.47 238.138 84.27C238.464 84.0633 238.814 83.96 239.188 83.96C239.581 83.96 239.911 84.04 240.178 84.2C240.444 84.3533 240.651 84.56 240.798 84.82V82.32H241.638V87.13C241.638 87.2967 241.644 87.5433 241.658 87.87C241.671 88.19 241.721 88.5667 241.808 89H241.018L240.798 88.25C240.651 88.5167 240.444 88.73 240.178 88.89C239.911 89.0433 239.581 89.12 239.188 89.12ZM239.408 88.4C239.834 88.4 240.174 88.2367 240.428 87.91C240.688 87.5833 240.818 87.1267 240.818 86.54C240.818 85.9467 240.688 85.49 240.428 85.17C240.174 84.8433 239.834 84.68 239.408 84.68C238.981 84.68 238.638 84.8433 238.378 85.17C238.124 85.49 237.998 85.9467 237.998 86.54C237.998 87.1267 238.124 87.5833 238.378 87.91C238.638 88.2367 238.981 88.4 239.408 88.4ZM247.215 89.12C246.902 89.12 246.615 89.0633 246.355 88.95C246.095 88.8367 245.888 88.6733 245.735 88.46C245.582 88.2467 245.505 87.99 245.505 87.69C245.505 87.2967 245.642 86.9867 245.915 86.76C246.195 86.5333 246.585 86.36 247.085 86.24C247.592 86.1133 248.182 86.0133 248.855 85.94C248.868 85.52 248.785 85.1967 248.605 84.97C248.425 84.7433 248.135 84.63 247.735 84.63C247.435 84.63 247.188 84.7 246.995 84.84C246.808 84.9733 246.688 85.16 246.635 85.4L245.825 85.16C245.958 84.78 246.195 84.4867 246.535 84.28C246.882 84.0667 247.278 83.96 247.725 83.96C248.412 83.96 248.912 84.1233 249.225 84.45C249.545 84.77 249.705 85.2767 249.705 85.97V87.13C249.705 87.5433 249.722 87.9 249.755 88.2C249.788 88.5 249.828 88.7667 249.875 89H249.105L248.905 88.32C248.758 88.5667 248.548 88.7633 248.275 88.91C248.002 89.05 247.648 89.12 247.215 89.12ZM247.395 88.45C247.655 88.45 247.902 88.4033 248.135 88.31C248.368 88.2167 248.558 88.06 248.705 87.84C248.852 87.6133 248.925 87.3067 248.925 86.92V86.61C248.418 86.6633 247.978 86.73 247.605 86.81C247.232 86.8833 246.942 86.99 246.735 87.13C246.535 87.2633 246.435 87.4433 246.435 87.67C246.435 87.9033 246.518 88.0933 246.685 88.24C246.858 88.38 247.095 88.45 247.395 88.45ZM251.089 89V84.04H251.699L251.969 84.96C252.142 84.66 252.375 84.42 252.669 84.24C252.969 84.0533 253.325 83.96 253.739 83.96V84.83C253.692 84.83 253.642 84.83 253.589 84.83C253.542 84.83 253.495 84.8333 253.449 84.84C252.882 84.8867 252.485 85.0833 252.259 85.43C252.039 85.7767 251.929 86.2567 251.929 86.87V89H251.089ZM256.153 89C255.84 89 255.597 88.97 255.423 88.91C255.257 88.8433 255.14 88.72 255.073 88.54C255.013 88.36 254.983 88.1 254.983 87.76V84.71H254.143V84.04H254.983V82.79H255.823V84.04H256.783V84.71H255.823V87.62C255.823 87.8733 255.847 88.0433 255.893 88.13C255.947 88.2167 256.093 88.26 256.333 88.26H256.783V89H256.153ZM258.746 83.1C258.579 83.1 258.432 83.04 258.306 82.92C258.186 82.7933 258.126 82.6433 258.126 82.47C258.126 82.2967 258.186 82.15 258.306 82.03C258.432 81.91 258.579 81.85 258.746 81.85C258.919 81.85 259.066 81.91 259.186 82.03C259.312 82.15 259.376 82.2967 259.376 82.47C259.376 82.6433 259.312 82.7933 259.186 82.92C259.066 83.04 258.919 83.1 258.746 83.1ZM258.326 89V84.71H257.636V84.04H259.166V89H258.326ZM262.659 89.12C262.185 89.12 261.775 89.01 261.429 88.79C261.082 88.5633 260.815 88.2567 260.629 87.87C260.442 87.4833 260.349 87.04 260.349 86.54C260.349 86.0467 260.445 85.6067 260.639 85.22C260.839 84.8267 261.119 84.52 261.479 84.3C261.839 84.0733 262.262 83.96 262.749 83.96C263.195 83.96 263.579 84.07 263.899 84.29C264.219 84.51 264.459 84.7733 264.619 85.08L263.849 85.36C263.742 85.16 263.585 85 263.379 84.88C263.172 84.76 262.942 84.7 262.689 84.7C262.442 84.7 262.209 84.7667 261.989 84.9C261.769 85.0267 261.592 85.2267 261.459 85.5C261.325 85.7667 261.259 86.11 261.259 86.53C261.259 86.9433 261.325 87.29 261.459 87.57C261.599 87.8433 261.775 88.0467 261.989 88.18C262.209 88.3133 262.442 88.38 262.689 88.38C262.962 88.38 263.199 88.32 263.399 88.2C263.605 88.0733 263.762 87.9167 263.869 87.73L264.639 88.01C264.452 88.33 264.185 88.5967 263.839 88.81C263.492 89.0167 263.099 89.12 262.659 89.12ZM266.839 89C266.525 89 266.282 88.97 266.109 88.91C265.942 88.8433 265.825 88.72 265.759 88.54C265.699 88.36 265.669 88.1 265.669 87.76V82.33H266.509V87.62C266.509 87.8733 266.535 88.0433 266.589 88.13C266.642 88.2167 266.785 88.26 267.019 88.26H267.209V89H266.839ZM270.171 89.12C269.651 89.12 269.211 89.0067 268.851 88.78C268.491 88.5467 268.215 88.2367 268.021 87.85C267.835 87.4567 267.741 87.0167 267.741 86.53C267.741 86.0033 267.848 85.55 268.061 85.17C268.275 84.7833 268.561 84.4867 268.921 84.28C269.288 84.0667 269.698 83.96 270.151 83.96C270.545 83.96 270.891 84.04 271.191 84.2C271.491 84.3533 271.738 84.5633 271.931 84.83C272.131 85.09 272.275 85.3867 272.361 85.72C272.455 86.0533 272.488 86.3967 272.461 86.75H268.641C268.655 87.1633 268.745 87.49 268.911 87.73C269.085 87.97 269.288 88.14 269.521 88.24C269.755 88.3333 269.971 88.38 270.171 88.38C270.451 88.38 270.685 88.3367 270.871 88.25C271.065 88.1567 271.218 88.0367 271.331 87.89L272.141 88.13C271.961 88.4167 271.705 88.6533 271.371 88.84C271.038 89.0267 270.638 89.12 270.171 89.12ZM268.651 86.08H271.571C271.571 85.8467 271.511 85.6233 271.391 85.41C271.278 85.1967 271.115 85.0233 270.901 84.89C270.695 84.75 270.445 84.68 270.151 84.68C269.905 84.68 269.671 84.7267 269.451 84.82C269.231 84.9133 269.048 85.0633 268.901 85.27C268.761 85.4767 268.678 85.7467 268.651 86.08ZM275.142 89.12C274.855 89.12 274.572 89.0767 274.292 88.99C274.019 88.8967 273.772 88.76 273.552 88.58C273.339 88.3933 273.175 88.16 273.062 87.88L273.872 87.58C273.945 87.8733 274.105 88.0867 274.352 88.22C274.605 88.3467 274.869 88.41 275.142 88.41C275.342 88.41 275.529 88.38 275.702 88.32C275.882 88.26 276.029 88.1733 276.142 88.06C276.255 87.9467 276.312 87.8167 276.312 87.67C276.312 87.3967 276.202 87.2033 275.982 87.09C275.769 86.9767 275.512 86.89 275.212 86.83L274.522 86.69C274.282 86.6367 274.059 86.5633 273.852 86.47C273.645 86.37 273.479 86.23 273.352 86.05C273.225 85.87 273.162 85.63 273.162 85.33C273.162 85.03 273.255 84.78 273.442 84.58C273.629 84.3733 273.865 84.2167 274.152 84.11C274.445 84.0033 274.752 83.95 275.072 83.95C275.465 83.95 275.835 84.0333 276.182 84.2C276.535 84.36 276.785 84.6133 276.932 84.96L276.142 85.25C276.055 85.05 275.902 84.9033 275.682 84.81C275.469 84.71 275.245 84.66 275.012 84.66C274.759 84.66 274.529 84.7167 274.322 84.83C274.115 84.9433 274.012 85.1067 274.012 85.32C274.012 85.5333 274.099 85.69 274.272 85.79C274.452 85.8833 274.672 85.9567 274.932 86.01L275.582 86.14C275.849 86.1933 276.102 86.27 276.342 86.37C276.582 86.47 276.779 86.62 276.932 86.82C277.085 87.0133 277.162 87.2867 277.162 87.64C277.162 87.9533 277.065 88.22 276.872 88.44C276.679 88.66 276.429 88.83 276.122 88.95C275.815 89.0633 275.489 89.12 275.142 89.12ZM278.479 89.12C278.306 89.12 278.156 89.0567 278.029 88.93C277.902 88.8033 277.839 88.6533 277.839 88.48C277.839 88.3 277.902 88.1467 278.029 88.02C278.156 87.8933 278.306 87.83 278.479 87.83C278.659 87.83 278.812 87.8933 278.939 88.02C279.066 88.1467 279.129 88.3 279.129 88.48C279.129 88.6533 279.066 88.8033 278.939 88.93C278.812 89.0567 278.659 89.12 278.479 89.12Z" fill="black"/>
<path d="M252 42L232 15" stroke="black" stroke-width="5"/>
<path d="M252 42L199 42" stroke="black" stroke-width="2"/>
<path d="M232 15L205 10" stroke="black"/>
<circle cx="201" cy="42" r="9.5" fill="#FCF4E9" stroke="black"/>
<circle cx="232" cy="15" r="9.5" fill="#FFBC36" stroke="black"/>
<circle cx="206" cy="10" r="9.5" fill="#FCF4E9" stroke="black"/>
<circle cx="252" cy="42" r="9.5" fill="#FFBC36" stroke="black"/>
<circle cx="252" cy="42" r="2" fill="black"/>
<circle cx="252" cy="42" r="5" stroke="black" stroke-linecap="round" stroke-linejoin="round" stroke-dasharray="1 2"/>
<circle cx="232" cy="15" r="2" fill="black"/>
<circle cx="232" cy="15" r="5" stroke="black" stroke-linecap="round" stroke-linejoin="round" stroke-dasharray="1 2"/>
</g>
<defs>
<clipPath id="clip0_6125_41760">
<rect width="280" height="89" fill="white"/>
</clipPath>
</defs>
</svg>
