<svg width="300" height="100" viewBox="0 0 300 100" fill="none" xmlns="http://www.w3.org/2000/svg">
<path d="M103.328 67V61.13H101.108V60.32H106.488V61.13H104.268V67H103.328ZM107.284 67V60.32H108.124V62.79C108.264 62.5567 108.461 62.36 108.714 62.2C108.967 62.04 109.304 61.96 109.724 61.96C110.324 61.96 110.747 62.1367 110.994 62.49C111.241 62.8367 111.364 63.2933 111.364 63.86V67H110.524V64.11C110.524 63.8567 110.501 63.6233 110.454 63.41C110.407 63.19 110.304 63.0133 110.144 62.88C109.991 62.7467 109.754 62.68 109.434 62.68C109.027 62.68 108.707 62.82 108.474 63.1C108.241 63.3733 108.124 63.7767 108.124 64.31V67H107.284ZM114.746 67.12C114.226 67.12 113.786 67.0067 113.426 66.78C113.066 66.5467 112.789 66.2367 112.596 65.85C112.409 65.4567 112.316 65.0167 112.316 64.53C112.316 64.0033 112.422 63.55 112.636 63.17C112.849 62.7833 113.136 62.4867 113.496 62.28C113.862 62.0667 114.272 61.96 114.726 61.96C115.119 61.96 115.466 62.04 115.766 62.2C116.066 62.3533 116.312 62.5633 116.506 62.83C116.706 63.09 116.849 63.3867 116.936 63.72C117.029 64.0533 117.062 64.3967 117.036 64.75H113.216C113.229 65.1633 113.319 65.49 113.486 65.73C113.659 65.97 113.862 66.14 114.096 66.24C114.329 66.3333 114.546 66.38 114.746 66.38C115.026 66.38 115.259 66.3367 115.446 66.25C115.639 66.1567 115.792 66.0367 115.906 65.89L116.716 66.13C116.536 66.4167 116.279 66.6533 115.946 66.84C115.612 67.0267 115.212 67.12 114.746 67.12ZM113.226 64.08H116.146C116.146 63.8467 116.086 63.6233 115.966 63.41C115.852 63.1967 115.689 63.0233 115.476 62.89C115.269 62.75 115.019 62.68 114.726 62.68C114.479 62.68 114.246 62.7267 114.026 62.82C113.806 62.9133 113.622 63.0633 113.476 63.27C113.336 63.4767 113.252 63.7467 113.226 64.08ZM123.279 67.12C122.892 67.12 122.566 67.0433 122.299 66.89C122.032 66.73 121.822 66.5167 121.669 66.25L121.449 67H120.829V60.32H121.669V62.82C121.822 62.56 122.032 62.3533 122.299 62.2C122.566 62.04 122.892 61.96 123.279 61.96C123.659 61.96 124.009 62.0633 124.329 62.27C124.656 62.47 124.916 62.7633 125.109 63.15C125.309 63.53 125.409 63.9933 125.409 64.54C125.409 65.0867 125.309 65.5533 125.109 65.94C124.916 66.32 124.656 66.6133 124.329 66.82C124.009 67.02 123.659 67.12 123.279 67.12ZM123.059 66.4C123.486 66.4 123.826 66.2367 124.079 65.91C124.339 65.5833 124.469 65.1267 124.469 64.54C124.469 63.9467 124.339 63.49 124.079 63.17C123.826 62.8433 123.486 62.68 123.059 62.68C122.632 62.68 122.289 62.8433 122.029 63.17C121.776 63.49 121.649 63.9467 121.649 64.54C121.649 65.1267 121.776 65.5833 122.029 65.91C122.289 66.2367 122.632 66.4 123.059 66.4ZM128.063 67.12C127.676 67.12 127.366 67.04 127.133 66.88C126.9 66.7133 126.73 66.4867 126.623 66.2C126.523 65.9067 126.473 65.5733 126.473 65.2V62.03H127.313V65C127.313 65.3667 127.356 65.65 127.443 65.85C127.53 66.05 127.65 66.19 127.803 66.27C127.963 66.3433 128.146 66.38 128.353 66.38C128.746 66.38 129.053 66.2433 129.273 65.97C129.5 65.69 129.613 65.2867 129.613 64.76V62.03H130.453V67H129.823L129.613 66.28C129.473 66.52 129.283 66.72 129.043 66.88C128.803 67.04 128.476 67.12 128.063 67.12ZM134.304 67.12C133.918 67.12 133.591 67.0433 133.324 66.89C133.058 66.73 132.848 66.5167 132.694 66.25L132.474 67H131.854V60.32H132.694V62.82C132.848 62.56 133.058 62.3533 133.324 62.2C133.591 62.04 133.918 61.96 134.304 61.96C134.684 61.96 135.034 62.0633 135.354 62.27C135.681 62.47 135.941 62.7633 136.134 63.15C136.334 63.53 136.434 63.9933 136.434 64.54C136.434 65.0867 136.334 65.5533 136.134 65.94C135.941 66.32 135.681 66.6133 135.354 66.82C135.034 67.02 134.684 67.12 134.304 67.12ZM134.084 66.4C134.511 66.4 134.851 66.2367 135.104 65.91C135.364 65.5833 135.494 65.1267 135.494 64.54C135.494 63.9467 135.364 63.49 135.104 63.17C134.851 62.8433 134.511 62.68 134.084 62.68C133.658 62.68 133.314 62.8433 133.054 63.17C132.801 63.49 132.674 63.9467 132.674 64.54C132.674 65.1267 132.801 65.5833 133.054 65.91C133.314 66.2367 133.658 66.4 134.084 66.4ZM139.968 67.12C139.582 67.12 139.255 67.0433 138.988 66.89C138.722 66.73 138.512 66.5167 138.358 66.25L138.138 67H137.518V60.32H138.358V62.82C138.512 62.56 138.722 62.3533 138.988 62.2C139.255 62.04 139.582 61.96 139.968 61.96C140.348 61.96 140.698 62.0633 141.018 62.27C141.345 62.47 141.605 62.7633 141.798 63.15C141.998 63.53 142.098 63.9933 142.098 64.54C142.098 65.0867 141.998 65.5533 141.798 65.94C141.605 66.32 141.345 66.6133 141.018 66.82C140.698 67.02 140.348 67.12 139.968 67.12ZM139.748 66.4C140.175 66.4 140.515 66.2367 140.768 65.91C141.028 65.5833 141.158 65.1267 141.158 64.54C141.158 63.9467 141.028 63.49 140.768 63.17C140.515 62.8433 140.175 62.68 139.748 62.68C139.322 62.68 138.978 62.8433 138.718 63.17C138.465 63.49 138.338 63.9467 138.338 64.54C138.338 65.1267 138.465 65.5833 138.718 65.91C138.978 66.2367 139.322 66.4 139.748 66.4ZM144.352 67C144.039 67 143.796 66.97 143.622 66.91C143.456 66.8433 143.339 66.72 143.272 66.54C143.212 66.36 143.182 66.1 143.182 65.76V60.33H144.022V65.62C144.022 65.8733 144.049 66.0433 144.102 66.13C144.156 66.2167 144.299 66.26 144.532 66.26H144.722V67H144.352ZM147.685 67.12C147.165 67.12 146.725 67.0067 146.365 66.78C146.005 66.5467 145.728 66.2367 145.535 65.85C145.348 65.4567 145.255 65.0167 145.255 64.53C145.255 64.0033 145.362 63.55 145.575 63.17C145.788 62.7833 146.075 62.4867 146.435 62.28C146.802 62.0667 147.212 61.96 147.665 61.96C148.058 61.96 148.405 62.04 148.705 62.2C149.005 62.3533 149.252 62.5633 149.445 62.83C149.645 63.09 149.788 63.3867 149.875 63.72C149.968 64.0533 150.002 64.3967 149.975 64.75H146.155C146.168 65.1633 146.258 65.49 146.425 65.73C146.598 65.97 146.802 66.14 147.035 66.24C147.268 66.3333 147.485 66.38 147.685 66.38C147.965 66.38 148.198 66.3367 148.385 66.25C148.578 66.1567 148.732 66.0367 148.845 65.89L149.655 66.13C149.475 66.4167 149.218 66.6533 148.885 66.84C148.552 67.0267 148.152 67.12 147.685 67.12ZM146.165 64.08H149.085C149.085 63.8467 149.025 63.6233 148.905 63.41C148.792 63.1967 148.628 63.0233 148.415 62.89C148.208 62.75 147.958 62.68 147.665 62.68C147.418 62.68 147.185 62.7267 146.965 62.82C146.745 62.9133 146.562 63.0633 146.415 63.27C146.275 63.4767 146.192 63.7467 146.165 64.08ZM152.656 67.12C152.369 67.12 152.086 67.0767 151.806 66.99C151.532 66.8967 151.286 66.76 151.066 66.58C150.852 66.3933 150.689 66.16 150.576 65.88L151.386 65.58C151.459 65.8733 151.619 66.0867 151.866 66.22C152.119 66.3467 152.382 66.41 152.656 66.41C152.856 66.41 153.042 66.38 153.216 66.32C153.396 66.26 153.542 66.1733 153.656 66.06C153.769 65.9467 153.826 65.8167 153.826 65.67C153.826 65.3967 153.716 65.2033 153.496 65.09C153.282 64.9767 153.026 64.89 152.726 64.83L152.036 64.69C151.796 64.6367 151.572 64.5633 151.366 64.47C151.159 64.37 150.992 64.23 150.866 64.05C150.739 63.87 150.676 63.63 150.676 63.33C150.676 63.03 150.769 62.78 150.956 62.58C151.142 62.3733 151.379 62.2167 151.666 62.11C151.959 62.0033 152.266 61.95 152.586 61.95C152.979 61.95 153.349 62.0333 153.696 62.2C154.049 62.36 154.299 62.6133 154.446 62.96L153.656 63.25C153.569 63.05 153.416 62.9033 153.196 62.81C152.982 62.71 152.759 62.66 152.526 62.66C152.272 62.66 152.042 62.7167 151.836 62.83C151.629 62.9433 151.526 63.1067 151.526 63.32C151.526 63.5333 151.612 63.69 151.786 63.79C151.966 63.8833 152.186 63.9567 152.446 64.01L153.096 64.14C153.362 64.1933 153.616 64.27 153.856 64.37C154.096 64.47 154.292 64.62 154.446 64.82C154.599 65.0133 154.676 65.2867 154.676 65.64C154.676 65.9533 154.579 66.22 154.386 66.44C154.192 66.66 153.942 66.83 153.636 66.95C153.329 67.0633 153.002 67.12 152.656 67.12ZM160.285 67.12C159.912 67.12 159.562 67.02 159.235 66.82C158.909 66.6133 158.645 66.32 158.445 65.94C158.252 65.5533 158.155 65.0867 158.155 64.54C158.155 63.9933 158.252 63.53 158.445 63.15C158.645 62.7633 158.909 62.47 159.235 62.27C159.562 62.0633 159.912 61.96 160.285 61.96C160.679 61.96 161.009 62.04 161.275 62.2C161.542 62.3533 161.749 62.56 161.895 62.82V60.32H162.735V65.13C162.735 65.2967 162.742 65.5433 162.755 65.87C162.769 66.19 162.819 66.5667 162.905 67H162.115L161.895 66.25C161.749 66.5167 161.542 66.73 161.275 66.89C161.009 67.0433 160.679 67.12 160.285 67.12ZM160.505 66.4C160.932 66.4 161.272 66.2367 161.525 65.91C161.785 65.5833 161.915 65.1267 161.915 64.54C161.915 63.9467 161.785 63.49 161.525 63.17C161.272 62.8433 160.932 62.68 160.505 62.68C160.079 62.68 159.735 62.8433 159.475 63.17C159.222 63.49 159.095 63.9467 159.095 64.54C159.095 65.1267 159.222 65.5833 159.475 65.91C159.735 66.2367 160.079 66.4 160.505 66.4ZM164.98 61.1C164.813 61.1 164.667 61.04 164.54 60.92C164.42 60.7933 164.36 60.6433 164.36 60.47C164.36 60.2967 164.42 60.15 164.54 60.03C164.667 59.91 164.813 59.85 164.98 59.85C165.153 59.85 165.3 59.91 165.42 60.03C165.547 60.15 165.61 60.2967 165.61 60.47C165.61 60.6433 165.547 60.7933 165.42 60.92C165.3 61.04 165.153 61.1 164.98 61.1ZM164.56 67V62.71H163.87V62.04H165.4V67H164.56ZM168.293 67.12C167.98 67.12 167.693 67.0633 167.433 66.95C167.173 66.8367 166.966 66.6733 166.813 66.46C166.66 66.2467 166.583 65.99 166.583 65.69C166.583 65.2967 166.72 64.9867 166.993 64.76C167.273 64.5333 167.663 64.36 168.163 64.24C168.67 64.1133 169.26 64.0133 169.933 63.94C169.946 63.52 169.863 63.1967 169.683 62.97C169.503 62.7433 169.213 62.63 168.813 62.63C168.513 62.63 168.266 62.7 168.073 62.84C167.886 62.9733 167.766 63.16 167.713 63.4L166.903 63.16C167.036 62.78 167.273 62.4867 167.613 62.28C167.96 62.0667 168.356 61.96 168.803 61.96C169.49 61.96 169.99 62.1233 170.303 62.45C170.623 62.77 170.783 63.2767 170.783 63.97V65.13C170.783 65.5433 170.8 65.9 170.833 66.2C170.866 66.5 170.906 66.7667 170.953 67H170.183L169.983 66.32C169.836 66.5667 169.626 66.7633 169.353 66.91C169.08 67.05 168.726 67.12 168.293 67.12ZM168.473 66.45C168.733 66.45 168.98 66.4033 169.213 66.31C169.446 66.2167 169.636 66.06 169.783 65.84C169.93 65.6133 170.003 65.3067 170.003 64.92V64.61C169.496 64.6633 169.056 64.73 168.683 64.81C168.31 64.8833 168.02 64.99 167.813 65.13C167.613 65.2633 167.513 65.4433 167.513 65.67C167.513 65.9033 167.596 66.0933 167.763 66.24C167.936 66.38 168.173 66.45 168.473 66.45ZM172.167 67V62.04H172.787L173.007 62.79C173.147 62.5567 173.337 62.36 173.577 62.2C173.823 62.04 174.13 61.96 174.497 61.96C174.877 61.96 175.183 62.0367 175.417 62.19C175.65 62.3433 175.82 62.5567 175.927 62.83C176.127 62.5233 176.367 62.3033 176.647 62.17C176.933 62.03 177.25 61.96 177.597 61.96C178.17 61.96 178.58 62.1367 178.827 62.49C179.073 62.8367 179.197 63.2933 179.197 63.86V67H178.357V64.11C178.357 63.8567 178.33 63.6233 178.277 63.41C178.23 63.19 178.13 63.0133 177.977 62.88C177.83 62.7467 177.603 62.68 177.297 62.68C176.937 62.68 176.647 62.82 176.427 63.1C176.213 63.3733 176.107 63.7767 176.107 64.31V67H175.267V64.11C175.267 63.8567 175.24 63.6233 175.187 63.41C175.14 63.19 175.04 63.0133 174.887 62.88C174.74 62.7467 174.513 62.68 174.207 62.68C173.847 62.68 173.557 62.82 173.337 63.1C173.117 63.3733 173.007 63.7767 173.007 64.31V67H172.167ZM182.578 67.12C182.058 67.12 181.618 67.0067 181.258 66.78C180.898 66.5467 180.621 66.2367 180.428 65.85C180.241 65.4567 180.148 65.0167 180.148 64.53C180.148 64.0033 180.254 63.55 180.468 63.17C180.681 62.7833 180.968 62.4867 181.328 62.28C181.694 62.0667 182.104 61.96 182.558 61.96C182.951 61.96 183.298 62.04 183.598 62.2C183.898 62.3533 184.144 62.5633 184.338 62.83C184.538 63.09 184.681 63.3867 184.768 63.72C184.861 64.0533 184.894 64.3967 184.868 64.75H181.048C181.061 65.1633 181.151 65.49 181.318 65.73C181.491 65.97 181.694 66.14 181.928 66.24C182.161 66.3333 182.378 66.38 182.578 66.38C182.858 66.38 183.091 66.3367 183.278 66.25C183.471 66.1567 183.624 66.0367 183.738 65.89L184.548 66.13C184.368 66.4167 184.111 66.6533 183.778 66.84C183.444 67.0267 183.044 67.12 182.578 67.12ZM181.058 64.08H183.978C183.978 63.8467 183.918 63.6233 183.798 63.41C183.684 63.1967 183.521 63.0233 183.308 62.89C183.101 62.75 182.851 62.68 182.558 62.68C182.311 62.68 182.078 62.7267 181.858 62.82C181.638 62.9133 181.454 63.0633 181.308 63.27C181.168 63.4767 181.084 63.7467 181.058 64.08ZM187.368 67C187.055 67 186.812 66.97 186.638 66.91C186.472 66.8433 186.355 66.72 186.288 66.54C186.228 66.36 186.198 66.1 186.198 65.76V62.71H185.358V62.04H186.198V60.79H187.038V62.04H187.998V62.71H187.038V65.62C187.038 65.8733 187.062 66.0433 187.108 66.13C187.162 66.2167 187.308 66.26 187.548 66.26H187.998V67H187.368ZM191.21 67.12C190.69 67.12 190.25 67.0067 189.89 66.78C189.53 66.5467 189.254 66.2367 189.06 65.85C188.874 65.4567 188.78 65.0167 188.78 64.53C188.78 64.0033 188.887 63.55 189.1 63.17C189.314 62.7833 189.6 62.4867 189.96 62.28C190.327 62.0667 190.737 61.96 191.19 61.96C191.584 61.96 191.93 62.04 192.23 62.2C192.53 62.3533 192.777 62.5633 192.97 62.83C193.17 63.09 193.314 63.3867 193.4 63.72C193.494 64.0533 193.527 64.3967 193.5 64.75H189.68C189.694 65.1633 189.784 65.49 189.95 65.73C190.124 65.97 190.327 66.14 190.56 66.24C190.794 66.3333 191.01 66.38 191.21 66.38C191.49 66.38 191.724 66.3367 191.91 66.25C192.104 66.1567 192.257 66.0367 192.37 65.89L193.18 66.13C193 66.4167 192.744 66.6533 192.41 66.84C192.077 67.0267 191.677 67.12 191.21 67.12ZM189.69 64.08H192.61C192.61 63.8467 192.55 63.6233 192.43 63.41C192.317 63.1967 192.154 63.0233 191.94 62.89C191.734 62.75 191.484 62.68 191.19 62.68C190.944 62.68 190.71 62.7267 190.49 62.82C190.27 62.9133 190.087 63.0633 189.94 63.27C189.8 63.4767 189.717 63.7467 189.69 64.08ZM194.491 67V62.04H195.101L195.371 62.96C195.544 62.66 195.778 62.42 196.071 62.24C196.371 62.0533 196.728 61.96 197.141 61.96V62.83C197.094 62.83 197.044 62.83 196.991 62.83C196.944 62.83 196.898 62.8333 196.851 62.84C196.284 62.8867 195.888 63.0833 195.661 63.43C195.441 63.7767 195.331 64.2567 195.331 64.87V67H194.491ZM100.184 79V74.04H100.794L101.064 74.96C101.238 74.66 101.471 74.42 101.764 74.24C102.064 74.0533 102.421 73.96 102.834 73.96V74.83C102.788 74.83 102.738 74.83 102.684 74.83C102.638 74.83 102.591 74.8333 102.544 74.84C101.978 74.8867 101.581 75.0833 101.354 75.43C101.134 75.7767 101.024 76.2567 101.024 76.87V79H100.184ZM105.693 79.12C105.173 79.12 104.733 79.0067 104.373 78.78C104.013 78.5467 103.736 78.2367 103.543 77.85C103.356 77.4567 103.263 77.0167 103.263 76.53C103.263 76.0033 103.369 75.55 103.583 75.17C103.796 74.7833 104.083 74.4867 104.443 74.28C104.809 74.0667 105.219 73.96 105.673 73.96C106.066 73.96 106.413 74.04 106.713 74.2C107.013 74.3533 107.259 74.5633 107.453 74.83C107.653 75.09 107.796 75.3867 107.883 75.72C107.976 76.0533 108.009 76.3967 107.983 76.75H104.163C104.176 77.1633 104.266 77.49 104.433 77.73C104.606 77.97 104.809 78.14 105.043 78.24C105.276 78.3333 105.493 78.38 105.693 78.38C105.973 78.38 106.206 78.3367 106.393 78.25C106.586 78.1567 106.739 78.0367 106.853 77.89L107.663 78.13C107.483 78.4167 107.226 78.6533 106.893 78.84C106.559 79.0267 106.159 79.12 105.693 79.12ZM104.173 76.08H107.093C107.093 75.8467 107.033 75.6233 106.913 75.41C106.799 75.1967 106.636 75.0233 106.423 74.89C106.216 74.75 105.966 74.68 105.673 74.68C105.426 74.68 105.193 74.7267 104.973 74.82C104.753 74.9133 104.569 75.0633 104.423 75.27C104.283 75.4767 104.199 75.7467 104.173 76.08ZM108.973 80.61V74.04H109.583L109.813 74.82C109.967 74.56 110.177 74.3533 110.443 74.2C110.71 74.04 111.037 73.96 111.423 73.96C111.803 73.96 112.153 74.0633 112.473 74.27C112.8 74.47 113.06 74.7633 113.253 75.15C113.453 75.53 113.553 75.9933 113.553 76.54C113.553 77.08 113.453 77.5433 113.253 77.93C113.06 78.3167 112.8 78.6133 112.473 78.82C112.153 79.02 111.803 79.12 111.423 79.12C111.037 79.12 110.71 79.0433 110.443 78.89C110.177 78.73 109.967 78.5167 109.813 78.25V80.61H108.973ZM111.203 78.4C111.63 78.4 111.97 78.2367 112.223 77.91C112.483 77.5833 112.613 77.1267 112.613 76.54C112.613 75.9467 112.483 75.49 112.223 75.17C111.97 74.8433 111.63 74.68 111.203 74.68C110.777 74.68 110.433 74.8433 110.173 75.17C109.92 75.49 109.793 75.9467 109.793 76.54C109.793 77.1267 109.92 77.5833 110.173 77.91C110.433 78.2367 110.777 78.4 111.203 78.4ZM114.638 79V74.04H115.248L115.518 74.96C115.691 74.66 115.924 74.42 116.218 74.24C116.518 74.0533 116.874 73.96 117.288 73.96V74.83C117.241 74.83 117.191 74.83 117.138 74.83C117.091 74.83 117.044 74.8333 116.998 74.84C116.431 74.8867 116.034 75.0833 115.808 75.43C115.588 75.7767 115.478 76.2567 115.478 76.87V79H114.638ZM120.146 79.12C119.626 79.12 119.186 79.0067 118.826 78.78C118.466 78.5467 118.189 78.2367 117.996 77.85C117.809 77.4567 117.716 77.0167 117.716 76.53C117.716 76.0033 117.823 75.55 118.036 75.17C118.249 74.7833 118.536 74.4867 118.896 74.28C119.263 74.0667 119.673 73.96 120.126 73.96C120.519 73.96 120.866 74.04 121.166 74.2C121.466 74.3533 121.713 74.5633 121.906 74.83C122.106 75.09 122.249 75.3867 122.336 75.72C122.429 76.0533 122.463 76.3967 122.436 76.75H118.616C118.629 77.1633 118.719 77.49 118.886 77.73C119.059 77.97 119.263 78.14 119.496 78.24C119.729 78.3333 119.946 78.38 120.146 78.38C120.426 78.38 120.659 78.3367 120.846 78.25C121.039 78.1567 121.193 78.0367 121.306 77.89L122.116 78.13C121.936 78.4167 121.679 78.6533 121.346 78.84C121.013 79.0267 120.613 79.12 120.146 79.12ZM118.626 76.08H121.546C121.546 75.8467 121.486 75.6233 121.366 75.41C121.253 75.1967 121.089 75.0233 120.876 74.89C120.669 74.75 120.419 74.68 120.126 74.68C119.879 74.68 119.646 74.7267 119.426 74.82C119.206 74.9133 119.023 75.0633 118.876 75.27C118.736 75.4767 118.653 75.7467 118.626 76.08ZM125.117 79.12C124.83 79.12 124.547 79.0767 124.267 78.99C123.993 78.8967 123.747 78.76 123.527 78.58C123.313 78.3933 123.15 78.16 123.037 77.88L123.847 77.58C123.92 77.8733 124.08 78.0867 124.327 78.22C124.58 78.3467 124.843 78.41 125.117 78.41C125.317 78.41 125.503 78.38 125.677 78.32C125.857 78.26 126.003 78.1733 126.117 78.06C126.23 77.9467 126.287 77.8167 126.287 77.67C126.287 77.3967 126.177 77.2033 125.957 77.09C125.743 76.9767 125.487 76.89 125.187 76.83L124.497 76.69C124.257 76.6367 124.033 76.5633 123.827 76.47C123.62 76.37 123.453 76.23 123.327 76.05C123.2 75.87 123.137 75.63 123.137 75.33C123.137 75.03 123.23 74.78 123.417 74.58C123.603 74.3733 123.84 74.2167 124.127 74.11C124.42 74.0033 124.727 73.95 125.047 73.95C125.44 73.95 125.81 74.0333 126.157 74.2C126.51 74.36 126.76 74.6133 126.907 74.96L126.117 75.25C126.03 75.05 125.877 74.9033 125.657 74.81C125.443 74.71 125.22 74.66 124.987 74.66C124.733 74.66 124.503 74.7167 124.297 74.83C124.09 74.9433 123.987 75.1067 123.987 75.32C123.987 75.5333 124.073 75.69 124.247 75.79C124.427 75.8833 124.647 75.9567 124.907 76.01L125.557 76.14C125.823 76.1933 126.077 76.27 126.317 76.37C126.557 76.47 126.753 76.62 126.907 76.82C127.06 77.0133 127.137 77.2867 127.137 77.64C127.137 77.9533 127.04 78.22 126.847 78.44C126.653 78.66 126.403 78.83 126.097 78.95C125.79 79.0633 125.463 79.12 125.117 79.12ZM130.244 79.12C129.724 79.12 129.284 79.0067 128.924 78.78C128.564 78.5467 128.287 78.2367 128.094 77.85C127.907 77.4567 127.814 77.0167 127.814 76.53C127.814 76.0033 127.92 75.55 128.134 75.17C128.347 74.7833 128.634 74.4867 128.994 74.28C129.36 74.0667 129.77 73.96 130.224 73.96C130.617 73.96 130.964 74.04 131.264 74.2C131.564 74.3533 131.81 74.5633 132.004 74.83C132.204 75.09 132.347 75.3867 132.434 75.72C132.527 76.0533 132.56 76.3967 132.534 76.75H128.714C128.727 77.1633 128.817 77.49 128.984 77.73C129.157 77.97 129.36 78.14 129.594 78.24C129.827 78.3333 130.044 78.38 130.244 78.38C130.524 78.38 130.757 78.3367 130.944 78.25C131.137 78.1567 131.29 78.0367 131.404 77.89L132.214 78.13C132.034 78.4167 131.777 78.6533 131.444 78.84C131.11 79.0267 130.71 79.12 130.244 79.12ZM128.724 76.08H131.644C131.644 75.8467 131.584 75.6233 131.464 75.41C131.35 75.1967 131.187 75.0233 130.974 74.89C130.767 74.75 130.517 74.68 130.224 74.68C129.977 74.68 129.744 74.7267 129.524 74.82C129.304 74.9133 129.12 75.0633 128.974 75.27C128.834 75.4767 128.75 75.7467 128.724 76.08ZM133.524 79V74.04H134.144L134.364 74.79C134.504 74.5567 134.701 74.36 134.954 74.2C135.208 74.04 135.544 73.96 135.964 73.96C136.564 73.96 136.988 74.1367 137.234 74.49C137.481 74.8367 137.604 75.2933 137.604 75.86V79H136.764V76.11C136.764 75.8567 136.741 75.6233 136.694 75.41C136.648 75.19 136.544 75.0133 136.384 74.88C136.231 74.7467 135.994 74.68 135.674 74.68C135.268 74.68 134.948 74.82 134.714 75.1C134.481 75.3733 134.364 75.7767 134.364 76.31V79H133.524ZM140.366 79C140.053 79 139.81 78.97 139.636 78.91C139.47 78.8433 139.353 78.72 139.286 78.54C139.226 78.36 139.196 78.1 139.196 77.76V74.71H138.356V74.04H139.196V72.79H140.036V74.04H140.996V74.71H140.036V77.62C140.036 77.8733 140.06 78.0433 140.106 78.13C140.16 78.2167 140.306 78.26 140.546 78.26H140.996V79H140.366ZM143.788 79.12C143.502 79.12 143.218 79.0767 142.938 78.99C142.665 78.8967 142.418 78.76 142.198 78.58C141.985 78.3933 141.822 78.16 141.708 77.88L142.518 77.58C142.592 77.8733 142.752 78.0867 142.998 78.22C143.252 78.3467 143.515 78.41 143.788 78.41C143.988 78.41 144.175 78.38 144.348 78.32C144.528 78.26 144.675 78.1733 144.788 78.06C144.902 77.9467 144.958 77.8167 144.958 77.67C144.958 77.3967 144.848 77.2033 144.628 77.09C144.415 76.9767 144.158 76.89 143.858 76.83L143.168 76.69C142.928 76.6367 142.705 76.5633 142.498 76.47C142.292 76.37 142.125 76.23 141.998 76.05C141.872 75.87 141.808 75.63 141.808 75.33C141.808 75.03 141.902 74.78 142.088 74.58C142.275 74.3733 142.512 74.2167 142.798 74.11C143.092 74.0033 143.398 73.95 143.718 73.95C144.112 73.95 144.482 74.0333 144.828 74.2C145.182 74.36 145.432 74.6133 145.578 74.96L144.788 75.25C144.702 75.05 144.548 74.9033 144.328 74.81C144.115 74.71 143.892 74.66 143.658 74.66C143.405 74.66 143.175 74.7167 142.968 74.83C142.762 74.9433 142.658 75.1067 142.658 75.32C142.658 75.5333 142.745 75.69 142.918 75.79C143.098 75.8833 143.318 75.9567 143.578 76.01L144.228 76.14C144.495 76.1933 144.748 76.27 144.988 76.37C145.228 76.47 145.425 76.62 145.578 76.82C145.732 77.0133 145.808 77.2867 145.808 77.64C145.808 77.9533 145.712 78.22 145.518 78.44C145.325 78.66 145.075 78.83 144.768 78.95C144.462 79.0633 144.135 79.12 143.788 79.12ZM151.118 79C150.805 79 150.562 78.97 150.388 78.91C150.222 78.8433 150.105 78.72 150.038 78.54C149.978 78.36 149.948 78.1 149.948 77.76V74.71H149.108V74.04H149.948V72.79H150.788V74.04H151.748V74.71H150.788V77.62C150.788 77.8733 150.812 78.0433 150.858 78.13C150.912 78.2167 151.058 78.26 151.298 78.26H151.748V79H151.118ZM152.85 79V72.32H153.69V74.79C153.83 74.5567 154.027 74.36 154.28 74.2C154.534 74.04 154.87 73.96 155.29 73.96C155.89 73.96 156.314 74.1367 156.56 74.49C156.807 74.8367 156.93 75.2933 156.93 75.86V79H156.09V76.11C156.09 75.8567 156.067 75.6233 156.02 75.41C155.974 75.19 155.87 75.0133 155.71 74.88C155.557 74.7467 155.32 74.68 155 74.68C154.594 74.68 154.274 74.82 154.04 75.1C153.807 75.3733 153.69 75.7767 153.69 76.31V79H152.85ZM160.312 79.12C159.792 79.12 159.352 79.0067 158.992 78.78C158.632 78.5467 158.355 78.2367 158.162 77.85C157.975 77.4567 157.882 77.0167 157.882 76.53C157.882 76.0033 157.989 75.55 158.202 75.17C158.415 74.7833 158.702 74.4867 159.062 74.28C159.429 74.0667 159.839 73.96 160.292 73.96C160.685 73.96 161.032 74.04 161.332 74.2C161.632 74.3533 161.879 74.5633 162.072 74.83C162.272 75.09 162.415 75.3867 162.502 75.72C162.595 76.0533 162.629 76.3967 162.602 76.75H158.782C158.795 77.1633 158.885 77.49 159.052 77.73C159.225 77.97 159.429 78.14 159.662 78.24C159.895 78.3333 160.112 78.38 160.312 78.38C160.592 78.38 160.825 78.3367 161.012 78.25C161.205 78.1567 161.359 78.0367 161.472 77.89L162.282 78.13C162.102 78.4167 161.845 78.6533 161.512 78.84C161.179 79.0267 160.779 79.12 160.312 79.12ZM158.792 76.08H161.712C161.712 75.8467 161.652 75.6233 161.532 75.41C161.419 75.1967 161.255 75.0233 161.042 74.89C160.835 74.75 160.585 74.68 160.292 74.68C160.045 74.68 159.812 74.7267 159.592 74.82C159.372 74.9133 159.189 75.0633 159.042 75.27C158.902 75.4767 158.819 75.7467 158.792 76.08ZM167.785 79.12C167.472 79.12 167.185 79.0633 166.925 78.95C166.665 78.8367 166.459 78.6733 166.305 78.46C166.152 78.2467 166.075 77.99 166.075 77.69C166.075 77.2967 166.212 76.9867 166.485 76.76C166.765 76.5333 167.155 76.36 167.655 76.24C168.162 76.1133 168.752 76.0133 169.425 75.94C169.439 75.52 169.355 75.1967 169.175 74.97C168.995 74.7433 168.705 74.63 168.305 74.63C168.005 74.63 167.759 74.7 167.565 74.84C167.379 74.9733 167.259 75.16 167.205 75.4L166.395 75.16C166.529 74.78 166.765 74.4867 167.105 74.28C167.452 74.0667 167.849 73.96 168.295 73.96C168.982 73.96 169.482 74.1233 169.795 74.45C170.115 74.77 170.275 75.2767 170.275 75.97V77.13C170.275 77.5433 170.292 77.9 170.325 78.2C170.359 78.5 170.399 78.7667 170.445 79H169.675L169.475 78.32C169.329 78.5667 169.119 78.7633 168.845 78.91C168.572 79.05 168.219 79.12 167.785 79.12ZM167.965 78.45C168.225 78.45 168.472 78.4033 168.705 78.31C168.939 78.2167 169.129 78.06 169.275 77.84C169.422 77.6133 169.495 77.3067 169.495 76.92V76.61C168.989 76.6633 168.549 76.73 168.175 76.81C167.802 76.8833 167.512 76.99 167.305 77.13C167.105 77.2633 167.005 77.4433 167.005 77.67C167.005 77.9033 167.089 78.0933 167.255 78.24C167.429 78.38 167.665 78.45 167.965 78.45ZM171.659 79V74.04H172.279L172.499 74.79C172.639 74.5567 172.829 74.36 173.069 74.2C173.316 74.04 173.622 73.96 173.989 73.96C174.369 73.96 174.676 74.0367 174.909 74.19C175.142 74.3433 175.312 74.5567 175.419 74.83C175.619 74.5233 175.859 74.3033 176.139 74.17C176.426 74.03 176.742 73.96 177.089 73.96C177.662 73.96 178.072 74.1367 178.319 74.49C178.566 74.8367 178.689 75.2933 178.689 75.86V79H177.849V76.11C177.849 75.8567 177.822 75.6233 177.769 75.41C177.722 75.19 177.622 75.0133 177.469 74.88C177.322 74.7467 177.096 74.68 176.789 74.68C176.429 74.68 176.139 74.82 175.919 75.1C175.706 75.3733 175.599 75.7767 175.599 76.31V79H174.759V76.11C174.759 75.8567 174.732 75.6233 174.679 75.41C174.632 75.19 174.532 75.0133 174.379 74.88C174.232 74.7467 174.006 74.68 173.699 74.68C173.339 74.68 173.049 74.82 172.829 75.1C172.609 75.3733 172.499 75.7767 172.499 76.31V79H171.659ZM182.02 79.12C181.733 79.12 181.45 79.07 181.17 78.97C180.89 78.87 180.633 78.7167 180.4 78.51C180.173 78.2967 179.99 78.0267 179.85 77.7C179.71 77.3733 179.64 76.9867 179.64 76.54C179.64 76.0933 179.71 75.7067 179.85 75.38C179.99 75.0533 180.173 74.7867 180.4 74.58C180.633 74.3667 180.89 74.21 181.17 74.11C181.45 74.01 181.733 73.96 182.02 73.96C182.306 73.96 182.59 74.01 182.87 74.11C183.156 74.21 183.413 74.3667 183.64 74.58C183.873 74.7867 184.056 75.0533 184.19 75.38C184.33 75.7067 184.4 76.0933 184.4 76.54C184.4 76.9867 184.33 77.3733 184.19 77.7C184.056 78.0267 183.873 78.2967 183.64 78.51C183.413 78.7167 183.156 78.87 182.87 78.97C182.59 79.07 182.306 79.12 182.02 79.12ZM182.02 78.38C182.26 78.38 182.493 78.3167 182.72 78.19C182.946 78.0567 183.133 77.8567 183.28 77.59C183.426 77.3167 183.5 76.9667 183.5 76.54C183.5 76.1133 183.426 75.7667 183.28 75.5C183.133 75.2267 182.946 75.0267 182.72 74.9C182.493 74.7667 182.26 74.7 182.02 74.7C181.786 74.7 181.553 74.7667 181.32 74.9C181.093 75.0267 180.906 75.2267 180.76 75.5C180.613 75.7667 180.54 76.1133 180.54 76.54C180.54 76.9667 180.613 77.3167 180.76 77.59C180.906 77.8567 181.093 78.0567 181.32 78.19C181.553 78.3167 181.786 78.38 182.02 78.38ZM187.047 79.12C186.661 79.12 186.351 79.04 186.117 78.88C185.884 78.7133 185.714 78.4867 185.607 78.2C185.507 77.9067 185.457 77.5733 185.457 77.2V74.03H186.297V77C186.297 77.3667 186.341 77.65 186.427 77.85C186.514 78.05 186.634 78.19 186.787 78.27C186.947 78.3433 187.131 78.38 187.337 78.38C187.731 78.38 188.037 78.2433 188.257 77.97C188.484 77.69 188.597 77.2867 188.597 76.76V74.03H189.437V79H188.807L188.597 78.28C188.457 78.52 188.267 78.72 188.027 78.88C187.787 79.04 187.461 79.12 187.047 79.12ZM190.839 79V74.04H191.459L191.679 74.79C191.819 74.5567 192.015 74.36 192.269 74.2C192.522 74.04 192.859 73.96 193.279 73.96C193.879 73.96 194.302 74.1367 194.549 74.49C194.795 74.8367 194.919 75.2933 194.919 75.86V79H194.079V76.11C194.079 75.8567 194.055 75.6233 194.009 75.41C193.962 75.19 193.859 75.0133 193.699 74.88C193.545 74.7467 193.309 74.68 192.989 74.68C192.582 74.68 192.262 74.82 192.029 75.1C191.795 75.3733 191.679 75.7767 191.679 76.31V79H190.839ZM197.681 79C197.367 79 197.124 78.97 196.951 78.91C196.784 78.8433 196.667 78.72 196.601 78.54C196.541 78.36 196.511 78.1 196.511 77.76V74.71H195.671V74.04H196.511V72.79H197.351V74.04H198.311V74.71H197.351V77.62C197.351 77.8733 197.374 78.0433 197.421 78.13C197.474 78.2167 197.621 78.26 197.861 78.26H198.311V79H197.681ZM105.194 91.12C104.907 91.12 104.624 91.07 104.344 90.97C104.064 90.87 103.807 90.7167 103.574 90.51C103.347 90.2967 103.164 90.0267 103.024 89.7C102.884 89.3733 102.814 88.9867 102.814 88.54C102.814 88.0933 102.884 87.7067 103.024 87.38C103.164 87.0533 103.347 86.7867 103.574 86.58C103.807 86.3667 104.064 86.21 104.344 86.11C104.624 86.01 104.907 85.96 105.194 85.96C105.48 85.96 105.764 86.01 106.044 86.11C106.33 86.21 106.587 86.3667 106.814 86.58C107.047 86.7867 107.23 87.0533 107.364 87.38C107.504 87.7067 107.574 88.0933 107.574 88.54C107.574 88.9867 107.504 89.3733 107.364 89.7C107.23 90.0267 107.047 90.2967 106.814 90.51C106.587 90.7167 106.33 90.87 106.044 90.97C105.764 91.07 105.48 91.12 105.194 91.12ZM105.194 90.38C105.434 90.38 105.667 90.3167 105.894 90.19C106.12 90.0567 106.307 89.8567 106.454 89.59C106.6 89.3167 106.674 88.9667 106.674 88.54C106.674 88.1133 106.6 87.7667 106.454 87.5C106.307 87.2267 106.12 87.0267 105.894 86.9C105.667 86.7667 105.434 86.7 105.194 86.7C104.96 86.7 104.727 86.7667 104.494 86.9C104.267 87.0267 104.08 87.2267 103.934 87.5C103.787 87.7667 103.714 88.1133 103.714 88.54C103.714 88.9667 103.787 89.3167 103.934 89.59C104.08 89.8567 104.267 90.0567 104.494 90.19C104.727 90.3167 104.96 90.38 105.194 90.38ZM108.941 91V86.71H108.101V86.04H108.941V85.3C108.941 84.96 108.975 84.69 109.041 84.49C109.108 84.29 109.238 84.15 109.431 84.07C109.625 83.9833 109.905 83.94 110.271 83.94H110.811V84.65H110.291C110.078 84.65 109.938 84.6933 109.871 84.78C109.811 84.8667 109.781 85.0367 109.781 85.29V86.04H110.811V86.71H109.781V91H108.941ZM115.949 91.12C115.636 91.12 115.349 91.0633 115.089 90.95C114.829 90.8367 114.623 90.6733 114.469 90.46C114.316 90.2467 114.239 89.99 114.239 89.69C114.239 89.2967 114.376 88.9867 114.649 88.76C114.929 88.5333 115.319 88.36 115.819 88.24C116.326 88.1133 116.916 88.0133 117.589 87.94C117.603 87.52 117.519 87.1967 117.339 86.97C117.159 86.7433 116.869 86.63 116.469 86.63C116.169 86.63 115.923 86.7 115.729 86.84C115.543 86.9733 115.423 87.16 115.369 87.4L114.559 87.16C114.693 86.78 114.929 86.4867 115.269 86.28C115.616 86.0667 116.013 85.96 116.459 85.96C117.146 85.96 117.646 86.1233 117.959 86.45C118.279 86.77 118.439 87.2767 118.439 87.97V89.13C118.439 89.5433 118.456 89.9 118.489 90.2C118.523 90.5 118.563 90.7667 118.609 91H117.839L117.639 90.32C117.493 90.5667 117.283 90.7633 117.009 90.91C116.736 91.05 116.383 91.12 115.949 91.12ZM116.129 90.45C116.389 90.45 116.636 90.4033 116.869 90.31C117.103 90.2167 117.293 90.06 117.439 89.84C117.586 89.6133 117.659 89.3067 117.659 88.92V88.61C117.153 88.6633 116.713 88.73 116.339 88.81C115.966 88.8833 115.676 88.99 115.469 89.13C115.269 89.2633 115.169 89.4433 115.169 89.67C115.169 89.9033 115.253 90.0933 115.419 90.24C115.593 90.38 115.829 90.45 116.129 90.45ZM121.513 91.12C121.226 91.12 120.943 91.0767 120.663 90.99C120.39 90.8967 120.143 90.76 119.923 90.58C119.71 90.3933 119.546 90.16 119.433 89.88L120.243 89.58C120.316 89.8733 120.476 90.0867 120.723 90.22C120.976 90.3467 121.24 90.41 121.513 90.41C121.713 90.41 121.9 90.38 122.073 90.32C122.253 90.26 122.4 90.1733 122.513 90.06C122.626 89.9467 122.683 89.8167 122.683 89.67C122.683 89.3967 122.573 89.2033 122.353 89.09C122.14 88.9767 121.883 88.89 121.583 88.83L120.893 88.69C120.653 88.6367 120.43 88.5633 120.223 88.47C120.016 88.37 119.85 88.23 119.723 88.05C119.596 87.87 119.533 87.63 119.533 87.33C119.533 87.03 119.626 86.78 119.813 86.58C120 86.3733 120.236 86.2167 120.523 86.11C120.816 86.0033 121.123 85.95 121.443 85.95C121.836 85.95 122.206 86.0333 122.553 86.2C122.906 86.36 123.156 86.6133 123.303 86.96L122.513 87.25C122.426 87.05 122.273 86.9033 122.053 86.81C121.84 86.71 121.616 86.66 121.383 86.66C121.13 86.66 120.9 86.7167 120.693 86.83C120.486 86.9433 120.383 87.1067 120.383 87.32C120.383 87.5333 120.47 87.69 120.643 87.79C120.823 87.8833 121.043 87.9567 121.303 88.01L121.953 88.14C122.22 88.1933 122.473 88.27 122.713 88.37C122.953 88.47 123.15 88.62 123.303 88.82C123.456 89.0133 123.533 89.2867 123.533 89.64C123.533 89.9533 123.436 90.22 123.243 90.44C123.05 90.66 122.8 90.83 122.493 90.95C122.186 91.0633 121.86 91.12 121.513 91.12ZM126.22 91.12C125.933 91.12 125.65 91.0767 125.37 90.99C125.097 90.8967 124.85 90.76 124.63 90.58C124.417 90.3933 124.253 90.16 124.14 89.88L124.95 89.58C125.023 89.8733 125.183 90.0867 125.43 90.22C125.683 90.3467 125.947 90.41 126.22 90.41C126.42 90.41 126.607 90.38 126.78 90.32C126.96 90.26 127.107 90.1733 127.22 90.06C127.333 89.9467 127.39 89.8167 127.39 89.67C127.39 89.3967 127.28 89.2033 127.06 89.09C126.847 88.9767 126.59 88.89 126.29 88.83L125.6 88.69C125.36 88.6367 125.137 88.5633 124.93 88.47C124.723 88.37 124.557 88.23 124.43 88.05C124.303 87.87 124.24 87.63 124.24 87.33C124.24 87.03 124.333 86.78 124.52 86.58C124.707 86.3733 124.943 86.2167 125.23 86.11C125.523 86.0033 125.83 85.95 126.15 85.95C126.543 85.95 126.913 86.0333 127.26 86.2C127.613 86.36 127.863 86.6133 128.01 86.96L127.22 87.25C127.133 87.05 126.98 86.9033 126.76 86.81C126.547 86.71 126.323 86.66 126.09 86.66C125.837 86.66 125.607 86.7167 125.4 86.83C125.193 86.9433 125.09 87.1067 125.09 87.32C125.09 87.5333 125.177 87.69 125.35 87.79C125.53 87.8833 125.75 87.9567 126.01 88.01L126.66 88.14C126.927 88.1933 127.18 88.27 127.42 88.37C127.66 88.47 127.857 88.62 128.01 88.82C128.163 89.0133 128.24 89.2867 128.24 89.64C128.24 89.9533 128.143 90.22 127.95 90.44C127.757 90.66 127.507 90.83 127.2 90.95C126.893 91.0633 126.567 91.12 126.22 91.12ZM131.297 91.12C131.01 91.12 130.727 91.07 130.447 90.97C130.167 90.87 129.91 90.7167 129.677 90.51C129.45 90.2967 129.267 90.0267 129.127 89.7C128.987 89.3733 128.917 88.9867 128.917 88.54C128.917 88.0933 128.987 87.7067 129.127 87.38C129.267 87.0533 129.45 86.7867 129.677 86.58C129.91 86.3667 130.167 86.21 130.447 86.11C130.727 86.01 131.01 85.96 131.297 85.96C131.584 85.96 131.867 86.01 132.147 86.11C132.434 86.21 132.69 86.3667 132.917 86.58C133.15 86.7867 133.334 87.0533 133.467 87.38C133.607 87.7067 133.677 88.0933 133.677 88.54C133.677 88.9867 133.607 89.3733 133.467 89.7C133.334 90.0267 133.15 90.2967 132.917 90.51C132.69 90.7167 132.434 90.87 132.147 90.97C131.867 91.07 131.584 91.12 131.297 91.12ZM131.297 90.38C131.537 90.38 131.77 90.3167 131.997 90.19C132.224 90.0567 132.41 89.8567 132.557 89.59C132.704 89.3167 132.777 88.9667 132.777 88.54C132.777 88.1133 132.704 87.7667 132.557 87.5C132.41 87.2267 132.224 87.0267 131.997 86.9C131.77 86.7667 131.537 86.7 131.297 86.7C131.064 86.7 130.83 86.7667 130.597 86.9C130.37 87.0267 130.184 87.2267 130.037 87.5C129.89 87.7667 129.817 88.1133 129.817 88.54C129.817 88.9667 129.89 89.3167 130.037 89.59C130.184 89.8567 130.37 90.0567 130.597 90.19C130.83 90.3167 131.064 90.38 131.297 90.38ZM136.745 91.12C136.271 91.12 135.861 91.01 135.515 90.79C135.168 90.5633 134.901 90.2567 134.715 89.87C134.528 89.4833 134.435 89.04 134.435 88.54C134.435 88.0467 134.531 87.6067 134.725 87.22C134.925 86.8267 135.205 86.52 135.565 86.3C135.925 86.0733 136.348 85.96 136.835 85.96C137.281 85.96 137.665 86.07 137.985 86.29C138.305 86.51 138.545 86.7733 138.705 87.08L137.935 87.36C137.828 87.16 137.671 87 137.465 86.88C137.258 86.76 137.028 86.7 136.775 86.7C136.528 86.7 136.295 86.7667 136.075 86.9C135.855 87.0267 135.678 87.2267 135.545 87.5C135.411 87.7667 135.345 88.11 135.345 88.53C135.345 88.9433 135.411 89.29 135.545 89.57C135.685 89.8433 135.861 90.0467 136.075 90.18C136.295 90.3133 136.528 90.38 136.775 90.38C137.048 90.38 137.285 90.32 137.485 90.2C137.691 90.0733 137.848 89.9167 137.955 89.73L138.725 90.01C138.538 90.33 138.271 90.5967 137.925 90.81C137.578 91.0167 137.185 91.12 136.745 91.12ZM140.615 85.1C140.448 85.1 140.301 85.04 140.175 84.92C140.055 84.7933 139.995 84.6433 139.995 84.47C139.995 84.2967 140.055 84.15 140.175 84.03C140.301 83.91 140.448 83.85 140.615 83.85C140.788 83.85 140.935 83.91 141.055 84.03C141.181 84.15 141.245 84.2967 141.245 84.47C141.245 84.6433 141.181 84.7933 141.055 84.92C140.935 85.04 140.788 85.1 140.615 85.1ZM140.195 91V86.71H139.505V86.04H141.035V91H140.195ZM143.928 91.12C143.615 91.12 143.328 91.0633 143.068 90.95C142.808 90.8367 142.601 90.6733 142.448 90.46C142.295 90.2467 142.218 89.99 142.218 89.69C142.218 89.2967 142.355 88.9867 142.628 88.76C142.908 88.5333 143.298 88.36 143.798 88.24C144.305 88.1133 144.895 88.0133 145.568 87.94C145.581 87.52 145.498 87.1967 145.318 86.97C145.138 86.7433 144.848 86.63 144.448 86.63C144.148 86.63 143.901 86.7 143.708 86.84C143.521 86.9733 143.401 87.16 143.348 87.4L142.538 87.16C142.671 86.78 142.908 86.4867 143.248 86.28C143.595 86.0667 143.991 85.96 144.438 85.96C145.125 85.96 145.625 86.1233 145.938 86.45C146.258 86.77 146.418 87.2767 146.418 87.97V89.13C146.418 89.5433 146.435 89.9 146.468 90.2C146.501 90.5 146.541 90.7667 146.588 91H145.818L145.618 90.32C145.471 90.5667 145.261 90.7633 144.988 90.91C144.715 91.05 144.361 91.12 143.928 91.12ZM144.108 90.45C144.368 90.45 144.615 90.4033 144.848 90.31C145.081 90.2167 145.271 90.06 145.418 89.84C145.565 89.6133 145.638 89.3067 145.638 88.92V88.61C145.131 88.6633 144.691 88.73 144.318 88.81C143.945 88.8833 143.655 88.99 143.448 89.13C143.248 89.2633 143.148 89.4433 143.148 89.67C143.148 89.9033 143.231 90.0933 143.398 90.24C143.571 90.38 143.808 90.45 144.108 90.45ZM149.312 91C148.998 91 148.755 90.97 148.582 90.91C148.415 90.8433 148.298 90.72 148.232 90.54C148.172 90.36 148.142 90.1 148.142 89.76V86.71H147.302V86.04H148.142V84.79H148.982V86.04H149.942V86.71H148.982V89.62C148.982 89.8733 149.005 90.0433 149.052 90.13C149.105 90.2167 149.252 90.26 149.492 90.26H149.942V91H149.312ZM153.154 91.12C152.634 91.12 152.194 91.0067 151.834 90.78C151.474 90.5467 151.197 90.2367 151.004 89.85C150.817 89.4567 150.724 89.0167 150.724 88.53C150.724 88.0033 150.83 87.55 151.044 87.17C151.257 86.7833 151.544 86.4867 151.904 86.28C152.27 86.0667 152.68 85.96 153.134 85.96C153.527 85.96 153.874 86.04 154.174 86.2C154.474 86.3533 154.72 86.5633 154.914 86.83C155.114 87.09 155.257 87.3867 155.344 87.72C155.437 88.0533 155.47 88.3967 155.444 88.75H151.624C151.637 89.1633 151.727 89.49 151.894 89.73C152.067 89.97 152.27 90.14 152.504 90.24C152.737 90.3333 152.954 90.38 153.154 90.38C153.434 90.38 153.667 90.3367 153.854 90.25C154.047 90.1567 154.2 90.0367 154.314 89.89L155.124 90.13C154.944 90.4167 154.687 90.6533 154.354 90.84C154.02 91.0267 153.62 91.12 153.154 91.12ZM151.634 88.08H154.554C154.554 87.8467 154.494 87.6233 154.374 87.41C154.26 87.1967 154.097 87.0233 153.884 86.89C153.677 86.75 153.427 86.68 153.134 86.68C152.887 86.68 152.654 86.7267 152.434 86.82C152.214 86.9133 152.03 87.0633 151.884 87.27C151.744 87.4767 151.66 87.7467 151.634 88.08ZM158.244 91.12C157.871 91.12 157.521 91.02 157.194 90.82C156.868 90.6133 156.604 90.32 156.404 89.94C156.211 89.5533 156.114 89.0867 156.114 88.54C156.114 87.9933 156.211 87.53 156.404 87.15C156.604 86.7633 156.868 86.47 157.194 86.27C157.521 86.0633 157.871 85.96 158.244 85.96C158.638 85.96 158.968 86.04 159.234 86.2C159.501 86.3533 159.708 86.56 159.854 86.82V84.32H160.694V89.13C160.694 89.2967 160.701 89.5433 160.714 89.87C160.728 90.19 160.778 90.5667 160.864 91H160.074L159.854 90.25C159.708 90.5167 159.501 90.73 159.234 90.89C158.968 91.0433 158.638 91.12 158.244 91.12ZM158.464 90.4C158.891 90.4 159.231 90.2367 159.484 89.91C159.744 89.5833 159.874 89.1267 159.874 88.54C159.874 87.9467 159.744 87.49 159.484 87.17C159.231 86.8433 158.891 86.68 158.464 86.68C158.038 86.68 157.694 86.8433 157.434 87.17C157.181 87.49 157.054 87.9467 157.054 88.54C157.054 89.1267 157.181 89.5833 157.434 89.91C157.694 90.2367 158.038 90.4 158.464 90.4ZM166.272 91.12C165.958 91.12 165.672 91.0633 165.412 90.95C165.152 90.8367 164.945 90.6733 164.792 90.46C164.638 90.2467 164.562 89.99 164.562 89.69C164.562 89.2967 164.698 88.9867 164.972 88.76C165.252 88.5333 165.642 88.36 166.142 88.24C166.648 88.1133 167.238 88.0133 167.912 87.94C167.925 87.52 167.842 87.1967 167.662 86.97C167.482 86.7433 167.192 86.63 166.792 86.63C166.492 86.63 166.245 86.7 166.052 86.84C165.865 86.9733 165.745 87.16 165.692 87.4L164.882 87.16C165.015 86.78 165.252 86.4867 165.592 86.28C165.938 86.0667 166.335 85.96 166.782 85.96C167.468 85.96 167.968 86.1233 168.282 86.45C168.602 86.77 168.762 87.2767 168.762 87.97V89.13C168.762 89.5433 168.778 89.9 168.812 90.2C168.845 90.5 168.885 90.7667 168.932 91H168.162L167.962 90.32C167.815 90.5667 167.605 90.7633 167.332 90.91C167.058 91.05 166.705 91.12 166.272 91.12ZM166.452 90.45C166.712 90.45 166.958 90.4033 167.192 90.31C167.425 90.2167 167.615 90.06 167.762 89.84C167.908 89.6133 167.982 89.3067 167.982 88.92V88.61C167.475 88.6633 167.035 88.73 166.662 88.81C166.288 88.8833 165.998 88.99 165.792 89.13C165.592 89.2633 165.492 89.4433 165.492 89.67C165.492 89.9033 165.575 90.0933 165.742 90.24C165.915 90.38 166.152 90.45 166.452 90.45ZM170.145 91V86.04H170.755L171.025 86.96C171.199 86.66 171.432 86.42 171.725 86.24C172.025 86.0533 172.382 85.96 172.795 85.96V86.83C172.749 86.83 172.699 86.83 172.645 86.83C172.599 86.83 172.552 86.8333 172.505 86.84C171.939 86.8867 171.542 87.0833 171.315 87.43C171.095 87.7767 170.985 88.2567 170.985 88.87V91H170.145ZM175.21 91C174.897 91 174.653 90.97 174.48 90.91C174.313 90.8433 174.197 90.72 174.13 90.54C174.07 90.36 174.04 90.1 174.04 89.76V86.71H173.2V86.04H174.04V84.79H174.88V86.04H175.84V86.71H174.88V89.62C174.88 89.8733 174.903 90.0433 174.95 90.13C175.003 90.2167 175.15 90.26 175.39 90.26H175.84V91H175.21ZM177.802 85.1C177.636 85.1 177.489 85.04 177.362 84.92C177.242 84.7933 177.182 84.6433 177.182 84.47C177.182 84.2967 177.242 84.15 177.362 84.03C177.489 83.91 177.636 83.85 177.802 83.85C177.976 83.85 178.122 83.91 178.242 84.03C178.369 84.15 178.432 84.2967 178.432 84.47C178.432 84.6433 178.369 84.7933 178.242 84.92C178.122 85.04 177.976 85.1 177.802 85.1ZM177.382 91V86.71H176.692V86.04H178.222V91H177.382ZM181.715 91.12C181.242 91.12 180.832 91.01 180.485 90.79C180.139 90.5633 179.872 90.2567 179.685 89.87C179.499 89.4833 179.405 89.04 179.405 88.54C179.405 88.0467 179.502 87.6067 179.695 87.22C179.895 86.8267 180.175 86.52 180.535 86.3C180.895 86.0733 181.319 85.96 181.805 85.96C182.252 85.96 182.635 86.07 182.955 86.29C183.275 86.51 183.515 86.7733 183.675 87.08L182.905 87.36C182.799 87.16 182.642 87 182.435 86.88C182.229 86.76 181.999 86.7 181.745 86.7C181.499 86.7 181.265 86.7667 181.045 86.9C180.825 87.0267 180.649 87.2267 180.515 87.5C180.382 87.7667 180.315 88.11 180.315 88.53C180.315 88.9433 180.382 89.29 180.515 89.57C180.655 89.8433 180.832 90.0467 181.045 90.18C181.265 90.3133 181.499 90.38 181.745 90.38C182.019 90.38 182.255 90.32 182.455 90.2C182.662 90.0733 182.819 89.9167 182.925 89.73L183.695 90.01C183.509 90.33 183.242 90.5967 182.895 90.81C182.549 91.0167 182.155 91.12 181.715 91.12ZM185.895 91C185.582 91 185.339 90.97 185.165 90.91C184.999 90.8433 184.882 90.72 184.815 90.54C184.755 90.36 184.725 90.1 184.725 89.76V84.33H185.565V89.62C185.565 89.8733 185.592 90.0433 185.645 90.13C185.699 90.2167 185.842 90.26 186.075 90.26H186.265V91H185.895ZM189.228 91.12C188.708 91.12 188.268 91.0067 187.908 90.78C187.548 90.5467 187.271 90.2367 187.078 89.85C186.891 89.4567 186.798 89.0167 186.798 88.53C186.798 88.0033 186.905 87.55 187.118 87.17C187.331 86.7833 187.618 86.4867 187.978 86.28C188.345 86.0667 188.755 85.96 189.208 85.96C189.601 85.96 189.948 86.04 190.248 86.2C190.548 86.3533 190.795 86.5633 190.988 86.83C191.188 87.09 191.331 87.3867 191.418 87.72C191.511 88.0533 191.545 88.3967 191.518 88.75H187.698C187.711 89.1633 187.801 89.49 187.968 89.73C188.141 89.97 188.345 90.14 188.578 90.24C188.811 90.3333 189.028 90.38 189.228 90.38C189.508 90.38 189.741 90.3367 189.928 90.25C190.121 90.1567 190.275 90.0367 190.388 89.89L191.198 90.13C191.018 90.4167 190.761 90.6533 190.428 90.84C190.095 91.0267 189.695 91.12 189.228 91.12ZM187.708 88.08H190.628C190.628 87.8467 190.568 87.6233 190.448 87.41C190.335 87.1967 190.171 87.0233 189.958 86.89C189.751 86.75 189.501 86.68 189.208 86.68C188.961 86.68 188.728 86.7267 188.508 86.82C188.288 86.9133 188.105 87.0633 187.958 87.27C187.818 87.4767 187.735 87.7467 187.708 88.08ZM194.199 91.12C193.912 91.12 193.629 91.0767 193.349 90.99C193.075 90.8967 192.829 90.76 192.609 90.58C192.395 90.3933 192.232 90.16 192.119 89.88L192.929 89.58C193.002 89.8733 193.162 90.0867 193.409 90.22C193.662 90.3467 193.925 90.41 194.199 90.41C194.399 90.41 194.585 90.38 194.759 90.32C194.939 90.26 195.085 90.1733 195.199 90.06C195.312 89.9467 195.369 89.8167 195.369 89.67C195.369 89.3967 195.259 89.2033 195.039 89.09C194.825 88.9767 194.569 88.89 194.269 88.83L193.579 88.69C193.339 88.6367 193.115 88.5633 192.909 88.47C192.702 88.37 192.535 88.23 192.409 88.05C192.282 87.87 192.219 87.63 192.219 87.33C192.219 87.03 192.312 86.78 192.499 86.58C192.685 86.3733 192.922 86.2167 193.209 86.11C193.502 86.0033 193.809 85.95 194.129 85.95C194.522 85.95 194.892 86.0333 195.239 86.2C195.592 86.36 195.842 86.6133 195.989 86.96L195.199 87.25C195.112 87.05 194.959 86.9033 194.739 86.81C194.525 86.71 194.302 86.66 194.069 86.66C193.815 86.66 193.585 86.7167 193.379 86.83C193.172 86.9433 193.069 87.1067 193.069 87.32C193.069 87.5333 193.155 87.69 193.329 87.79C193.509 87.8833 193.729 87.9567 193.989 88.01L194.639 88.14C194.905 88.1933 195.159 88.27 195.399 88.37C195.639 88.47 195.835 88.62 195.989 88.82C196.142 89.0133 196.219 89.2867 196.219 89.64C196.219 89.9533 196.122 90.22 195.929 90.44C195.735 90.66 195.485 90.83 195.179 90.95C194.872 91.0633 194.545 91.12 194.199 91.12ZM197.536 91.12C197.362 91.12 197.212 91.0567 197.086 90.93C196.959 90.8033 196.896 90.6533 196.896 90.48C196.896 90.3 196.959 90.1467 197.086 90.02C197.212 89.8933 197.362 89.83 197.536 89.83C197.716 89.83 197.869 89.8933 197.996 90.02C198.122 90.1467 198.186 90.3 198.186 90.48C198.186 90.6533 198.122 90.8033 197.996 90.93C197.869 91.0567 197.716 91.12 197.536 91.12Z" fill="black"/>
<circle cx="48.5" cy="31.5" r="17" fill="#FCF4E9" stroke="black"/>
<path d="M29.0004 67L31.5104 60.31H32.5604L35.0604 67H34.0604L33.5504 65.54H30.5104L30.0004 67H29.0004ZM30.8004 64.73H33.2604L32.0304 61.26L30.8004 64.73ZM41.1129 67.12C40.7262 67.12 40.3996 67.0433 40.1329 66.89C39.8662 66.73 39.6562 66.5167 39.5029 66.25L39.2829 67H38.6629V60.32H39.5029V62.82C39.6562 62.56 39.8662 62.3533 40.1329 62.2C40.3996 62.04 40.7262 61.96 41.1129 61.96C41.4929 61.96 41.8429 62.0633 42.1629 62.27C42.4896 62.47 42.7496 62.7633 42.9429 63.15C43.1429 63.53 43.2429 63.9933 43.2429 64.54C43.2429 65.0867 43.1429 65.5533 42.9429 65.94C42.7496 66.32 42.4896 66.6133 42.1629 66.82C41.8429 67.02 41.4929 67.12 41.1129 67.12ZM40.8929 66.4C41.3196 66.4 41.6596 66.2367 41.9129 65.91C42.1729 65.5833 42.3029 65.1267 42.3029 64.54C42.3029 63.9467 42.1729 63.49 41.9129 63.17C41.6596 62.8433 41.3196 62.68 40.8929 62.68C40.4662 62.68 40.1229 62.8433 39.8629 63.17C39.6096 63.49 39.4829 63.9467 39.4829 64.54C39.4829 65.1267 39.6096 65.5833 39.8629 65.91C40.1229 66.2367 40.4662 66.4 40.8929 66.4ZM45.897 67.12C45.5103 67.12 45.2003 67.04 44.967 66.88C44.7336 66.7133 44.5636 66.4867 44.457 66.2C44.357 65.9067 44.307 65.5733 44.307 65.2V62.03H45.147V65C45.147 65.3667 45.1903 65.65 45.277 65.85C45.3636 66.05 45.4836 66.19 45.637 66.27C45.797 66.3433 45.9803 66.38 46.187 66.38C46.5803 66.38 46.887 66.2433 47.107 65.97C47.3336 65.69 47.447 65.2867 47.447 64.76V62.03H48.287V67H47.657L47.447 66.28C47.307 66.52 47.117 66.72 46.877 66.88C46.637 67.04 46.3103 67.12 45.897 67.12ZM52.1383 67.12C51.7516 67.12 51.4249 67.0433 51.1583 66.89C50.8916 66.73 50.6816 66.5167 50.5283 66.25L50.3083 67H49.6883V60.32H50.5283V62.82C50.6816 62.56 50.8916 62.3533 51.1583 62.2C51.4249 62.04 51.7516 61.96 52.1383 61.96C52.5183 61.96 52.8683 62.0633 53.1883 62.27C53.5149 62.47 53.7749 62.7633 53.9683 63.15C54.1683 63.53 54.2683 63.9933 54.2683 64.54C54.2683 65.0867 54.1683 65.5533 53.9683 65.94C53.7749 66.32 53.5149 66.6133 53.1883 66.82C52.8683 67.02 52.5183 67.12 52.1383 67.12ZM51.9183 66.4C52.3449 66.4 52.6849 66.2367 52.9383 65.91C53.1983 65.5833 53.3283 65.1267 53.3283 64.54C53.3283 63.9467 53.1983 63.49 52.9383 63.17C52.6849 62.8433 52.3449 62.68 51.9183 62.68C51.4916 62.68 51.1483 62.8433 50.8883 63.17C50.6349 63.49 50.5083 63.9467 50.5083 64.54C50.5083 65.1267 50.6349 65.5833 50.8883 65.91C51.1483 66.2367 51.4916 66.4 51.9183 66.4ZM57.8023 67.12C57.4157 67.12 57.089 67.0433 56.8223 66.89C56.5557 66.73 56.3457 66.5167 56.1923 66.25L55.9723 67H55.3523V60.32H56.1923V62.82C56.3457 62.56 56.5557 62.3533 56.8223 62.2C57.089 62.04 57.4157 61.96 57.8023 61.96C58.1823 61.96 58.5323 62.0633 58.8523 62.27C59.179 62.47 59.439 62.7633 59.6323 63.15C59.8323 63.53 59.9323 63.9933 59.9323 64.54C59.9323 65.0867 59.8323 65.5533 59.6323 65.94C59.439 66.32 59.179 66.6133 58.8523 66.82C58.5323 67.02 58.1823 67.12 57.8023 67.12ZM57.5823 66.4C58.009 66.4 58.349 66.2367 58.6023 65.91C58.8623 65.5833 58.9923 65.1267 58.9923 64.54C58.9923 63.9467 58.8623 63.49 58.6023 63.17C58.349 62.8433 58.009 62.68 57.5823 62.68C57.1557 62.68 56.8123 62.8433 56.5523 63.17C56.299 63.49 56.1723 63.9467 56.1723 64.54C56.1723 65.1267 56.299 65.5833 56.5523 65.91C56.8123 66.2367 57.1557 66.4 57.5823 66.4ZM62.1864 67C61.8731 67 61.6297 66.97 61.4564 66.91C61.2897 66.8433 61.1731 66.72 61.1064 66.54C61.0464 66.36 61.0164 66.1 61.0164 65.76V60.33H61.8564V65.62C61.8564 65.8733 61.8831 66.0433 61.9364 66.13C61.9897 66.2167 62.1331 66.26 62.3664 66.26H62.5564V67H62.1864ZM65.519 67.12C64.999 67.12 64.559 67.0067 64.199 66.78C63.839 66.5467 63.5623 66.2367 63.369 65.85C63.1823 65.4567 63.089 65.0167 63.089 64.53C63.089 64.0033 63.1957 63.55 63.409 63.17C63.6223 62.7833 63.909 62.4867 64.269 62.28C64.6357 62.0667 65.0457 61.96 65.499 61.96C65.8923 61.96 66.239 62.04 66.539 62.2C66.839 62.3533 67.0857 62.5633 67.279 62.83C67.479 63.09 67.6223 63.3867 67.709 63.72C67.8023 64.0533 67.8357 64.3967 67.809 64.75H63.989C64.0023 65.1633 64.0923 65.49 64.259 65.73C64.4323 65.97 64.6357 66.14 64.869 66.24C65.1023 66.3333 65.319 66.38 65.519 66.38C65.799 66.38 66.0323 66.3367 66.219 66.25C66.4123 66.1567 66.5657 66.0367 66.679 65.89L67.489 66.13C67.309 66.4167 67.0523 66.6533 66.719 66.84C66.3857 67.0267 65.9857 67.12 65.519 67.12ZM63.999 64.08H66.919C66.919 63.8467 66.859 63.6233 66.739 63.41C66.6257 63.1967 66.4623 63.0233 66.249 62.89C66.0423 62.75 65.7923 62.68 65.499 62.68C65.2523 62.68 65.019 62.7267 64.799 62.82C64.579 62.9133 64.3957 63.0633 64.249 63.27C64.109 63.4767 64.0257 63.7467 63.999 64.08ZM17.7254 79V74.04H18.3354L18.6054 74.96C18.7787 74.66 19.0121 74.42 19.3054 74.24C19.6054 74.0533 19.9621 73.96 20.3754 73.96V74.83C20.3287 74.83 20.2787 74.83 20.2254 74.83C20.1787 74.83 20.1321 74.8333 20.0854 74.84C19.5187 74.8867 19.1221 75.0833 18.8954 75.43C18.6754 75.7767 18.5654 76.2567 18.5654 76.87V79H17.7254ZM23.2338 79.12C22.7138 79.12 22.2738 79.0067 21.9138 78.78C21.5538 78.5467 21.2772 78.2367 21.0838 77.85C20.8972 77.4567 20.8038 77.0167 20.8038 76.53C20.8038 76.0033 20.9105 75.55 21.1238 75.17C21.3372 74.7833 21.6238 74.4867 21.9838 74.28C22.3505 74.0667 22.7605 73.96 23.2138 73.96C23.6072 73.96 23.9538 74.04 24.2538 74.2C24.5538 74.3533 24.8005 74.5633 24.9938 74.83C25.1938 75.09 25.3372 75.3867 25.4238 75.72C25.5172 76.0533 25.5505 76.3967 25.5238 76.75H21.7038C21.7172 77.1633 21.8072 77.49 21.9738 77.73C22.1472 77.97 22.3505 78.14 22.5838 78.24C22.8172 78.3333 23.0338 78.38 23.2338 78.38C23.5138 78.38 23.7472 78.3367 23.9338 78.25C24.1272 78.1567 24.2805 78.0367 24.3938 77.89L25.2038 78.13C25.0238 78.4167 24.7672 78.6533 24.4338 78.84C24.1005 79.0267 23.7005 79.12 23.2338 79.12ZM21.7138 76.08H24.6338C24.6338 75.8467 24.5738 75.6233 24.4538 75.41C24.3405 75.1967 24.1772 75.0233 23.9638 74.89C23.7572 74.75 23.5072 74.68 23.2138 74.68C22.9672 74.68 22.7338 74.7267 22.5138 74.82C22.2938 74.9133 22.1105 75.0633 21.9638 75.27C21.8238 75.4767 21.7405 75.7467 21.7138 76.08ZM26.5145 80.61V74.04H27.1245L27.3545 74.82C27.5078 74.56 27.7178 74.3533 27.9845 74.2C28.2511 74.04 28.5778 73.96 28.9645 73.96C29.3445 73.96 29.6945 74.0633 30.0145 74.27C30.3411 74.47 30.6011 74.7633 30.7945 75.15C30.9945 75.53 31.0945 75.9933 31.0945 76.54C31.0945 77.08 30.9945 77.5433 30.7945 77.93C30.6011 78.3167 30.3411 78.6133 30.0145 78.82C29.6945 79.02 29.3445 79.12 28.9645 79.12C28.5778 79.12 28.2511 79.0433 27.9845 78.89C27.7178 78.73 27.5078 78.5167 27.3545 78.25V80.61H26.5145ZM28.7445 78.4C29.1711 78.4 29.5111 78.2367 29.7645 77.91C30.0245 77.5833 30.1545 77.1267 30.1545 76.54C30.1545 75.9467 30.0245 75.49 29.7645 75.17C29.5111 74.8433 29.1711 74.68 28.7445 74.68C28.3178 74.68 27.9745 74.8433 27.7145 75.17C27.4611 75.49 27.3345 75.9467 27.3345 76.54C27.3345 77.1267 27.4611 77.5833 27.7145 77.91C27.9745 78.2367 28.3178 78.4 28.7445 78.4ZM32.1785 79V74.04H32.7885L33.0585 74.96C33.2318 74.66 33.4652 74.42 33.7585 74.24C34.0585 74.0533 34.4152 73.96 34.8285 73.96V74.83C34.7818 74.83 34.7318 74.83 34.6785 74.83C34.6318 74.83 34.5852 74.8333 34.5385 74.84C33.9718 74.8867 33.5752 75.0833 33.3485 75.43C33.1285 75.7767 33.0185 76.2567 33.0185 76.87V79H32.1785ZM37.687 79.12C37.167 79.12 36.727 79.0067 36.367 78.78C36.007 78.5467 35.7303 78.2367 35.537 77.85C35.3503 77.4567 35.257 77.0167 35.257 76.53C35.257 76.0033 35.3636 75.55 35.577 75.17C35.7903 74.7833 36.077 74.4867 36.437 74.28C36.8036 74.0667 37.2136 73.96 37.667 73.96C38.0603 73.96 38.407 74.04 38.707 74.2C39.007 74.3533 39.2536 74.5633 39.447 74.83C39.647 75.09 39.7903 75.3867 39.877 75.72C39.9703 76.0533 40.0036 76.3967 39.977 76.75H36.157C36.1703 77.1633 36.2603 77.49 36.427 77.73C36.6003 77.97 36.8036 78.14 37.037 78.24C37.2703 78.3333 37.487 78.38 37.687 78.38C37.967 78.38 38.2003 78.3367 38.387 78.25C38.5803 78.1567 38.7336 78.0367 38.847 77.89L39.657 78.13C39.477 78.4167 39.2203 78.6533 38.887 78.84C38.5536 79.0267 38.1536 79.12 37.687 79.12ZM36.167 76.08H39.087C39.087 75.8467 39.027 75.6233 38.907 75.41C38.7936 75.1967 38.6303 75.0233 38.417 74.89C38.2103 74.75 37.9603 74.68 37.667 74.68C37.4203 74.68 37.187 74.7267 36.967 74.82C36.747 74.9133 36.5636 75.0633 36.417 75.27C36.277 75.4767 36.1936 75.7467 36.167 76.08ZM42.6576 79.12C42.3709 79.12 42.0876 79.0767 41.8076 78.99C41.5342 78.8967 41.2876 78.76 41.0676 78.58C40.8542 78.3933 40.6909 78.16 40.5776 77.88L41.3876 77.58C41.4609 77.8733 41.6209 78.0867 41.8676 78.22C42.1209 78.3467 42.3842 78.41 42.6576 78.41C42.8576 78.41 43.0442 78.38 43.2176 78.32C43.3976 78.26 43.5442 78.1733 43.6576 78.06C43.7709 77.9467 43.8276 77.8167 43.8276 77.67C43.8276 77.3967 43.7176 77.2033 43.4976 77.09C43.2842 76.9767 43.0276 76.89 42.7276 76.83L42.0376 76.69C41.7976 76.6367 41.5742 76.5633 41.3676 76.47C41.1609 76.37 40.9942 76.23 40.8676 76.05C40.7409 75.87 40.6776 75.63 40.6776 75.33C40.6776 75.03 40.7709 74.78 40.9576 74.58C41.1442 74.3733 41.3809 74.2167 41.6676 74.11C41.9609 74.0033 42.2676 73.95 42.5876 73.95C42.9809 73.95 43.3509 74.0333 43.6976 74.2C44.0509 74.36 44.3009 74.6133 44.4476 74.96L43.6576 75.25C43.5709 75.05 43.4176 74.9033 43.1976 74.81C42.9842 74.71 42.7609 74.66 42.5276 74.66C42.2742 74.66 42.0442 74.7167 41.8376 74.83C41.6309 74.9433 41.5276 75.1067 41.5276 75.32C41.5276 75.5333 41.6142 75.69 41.7876 75.79C41.9676 75.8833 42.1876 75.9567 42.4476 76.01L43.0976 76.14C43.3642 76.1933 43.6176 76.27 43.8576 76.37C44.0976 76.47 44.2942 76.62 44.4476 76.82C44.6009 77.0133 44.6776 77.2867 44.6776 77.64C44.6776 77.9533 44.5809 78.22 44.3876 78.44C44.1942 78.66 43.9442 78.83 43.6376 78.95C43.3309 79.0633 43.0042 79.12 42.6576 79.12ZM47.7846 79.12C47.2646 79.12 46.8246 79.0067 46.4646 78.78C46.1046 78.5467 45.8279 78.2367 45.6346 77.85C45.4479 77.4567 45.3546 77.0167 45.3546 76.53C45.3546 76.0033 45.4613 75.55 45.6746 75.17C45.8879 74.7833 46.1746 74.4867 46.5346 74.28C46.9013 74.0667 47.3113 73.96 47.7646 73.96C48.1579 73.96 48.5046 74.04 48.8046 74.2C49.1046 74.3533 49.3513 74.5633 49.5446 74.83C49.7446 75.09 49.8879 75.3867 49.9746 75.72C50.0679 76.0533 50.1013 76.3967 50.0746 76.75H46.2546C46.2679 77.1633 46.3579 77.49 46.5246 77.73C46.6979 77.97 46.9013 78.14 47.1346 78.24C47.3679 78.3333 47.5846 78.38 47.7846 78.38C48.0646 78.38 48.2979 78.3367 48.4846 78.25C48.6779 78.1567 48.8313 78.0367 48.9446 77.89L49.7546 78.13C49.5746 78.4167 49.3179 78.6533 48.9846 78.84C48.6513 79.0267 48.2513 79.12 47.7846 79.12ZM46.2646 76.08H49.1846C49.1846 75.8467 49.1246 75.6233 49.0046 75.41C48.8913 75.1967 48.7279 75.0233 48.5146 74.89C48.3079 74.75 48.0579 74.68 47.7646 74.68C47.5179 74.68 47.2846 74.7267 47.0646 74.82C46.8446 74.9133 46.6613 75.0633 46.5146 75.27C46.3746 75.4767 46.2913 75.7467 46.2646 76.08ZM51.0652 79V74.04H51.6852L51.9052 74.79C52.0452 74.5567 52.2419 74.36 52.4952 74.2C52.7486 74.04 53.0852 73.96 53.5052 73.96C54.1052 73.96 54.5286 74.1367 54.7752 74.49C55.0219 74.8367 55.1452 75.2933 55.1452 75.86V79H54.3052V76.11C54.3052 75.8567 54.2819 75.6233 54.2352 75.41C54.1886 75.19 54.0852 75.0133 53.9252 74.88C53.7719 74.7467 53.5352 74.68 53.2152 74.68C52.8086 74.68 52.4886 74.82 52.2552 75.1C52.0219 75.3733 51.9052 75.7767 51.9052 76.31V79H51.0652ZM57.9073 79C57.5939 79 57.3506 78.97 57.1773 78.91C57.0106 78.8433 56.8939 78.72 56.8273 78.54C56.7673 78.36 56.7373 78.1 56.7373 77.76V74.71H55.8973V74.04H56.7373V72.79H57.5773V74.04H58.5373V74.71H57.5773V77.62C57.5773 77.8733 57.6006 78.0433 57.6473 78.13C57.7006 78.2167 57.8473 78.26 58.0873 78.26H58.5373V79H57.9073ZM61.3295 79.12C61.0428 79.12 60.7595 79.0767 60.4795 78.99C60.2061 78.8967 59.9595 78.76 59.7395 78.58C59.5261 78.3933 59.3628 78.16 59.2495 77.88L60.0595 77.58C60.1328 77.8733 60.2928 78.0867 60.5395 78.22C60.7928 78.3467 61.0561 78.41 61.3295 78.41C61.5295 78.41 61.7161 78.38 61.8895 78.32C62.0695 78.26 62.2161 78.1733 62.3295 78.06C62.4428 77.9467 62.4995 77.8167 62.4995 77.67C62.4995 77.3967 62.3895 77.2033 62.1695 77.09C61.9561 76.9767 61.6995 76.89 61.3995 76.83L60.7095 76.69C60.4695 76.6367 60.2461 76.5633 60.0395 76.47C59.8328 76.37 59.6661 76.23 59.5395 76.05C59.4128 75.87 59.3495 75.63 59.3495 75.33C59.3495 75.03 59.4428 74.78 59.6295 74.58C59.8161 74.3733 60.0528 74.2167 60.3395 74.11C60.6328 74.0033 60.9395 73.95 61.2595 73.95C61.6528 73.95 62.0228 74.0333 62.3695 74.2C62.7228 74.36 62.9728 74.6133 63.1195 74.96L62.3295 75.25C62.2428 75.05 62.0895 74.9033 61.8695 74.81C61.6561 74.71 61.4328 74.66 61.1995 74.66C60.9461 74.66 60.7161 74.7167 60.5095 74.83C60.3028 74.9433 60.1995 75.1067 60.1995 75.32C60.1995 75.5333 60.2861 75.69 60.4595 75.79C60.6395 75.8833 60.8595 75.9567 61.1195 76.01L61.7695 76.14C62.0361 76.1933 62.2895 76.27 62.5295 76.37C62.7695 76.47 62.9661 76.62 63.1195 76.82C63.2728 77.0133 63.3495 77.2867 63.3495 77.64C63.3495 77.9533 63.2528 78.22 63.0595 78.44C62.8661 78.66 62.6161 78.83 62.3095 78.95C62.0028 79.0633 61.6761 79.12 61.3295 79.12ZM68.5392 79.12C68.2259 79.12 67.9392 79.0633 67.6792 78.95C67.4192 78.8367 67.2126 78.6733 67.0592 78.46C66.9059 78.2467 66.8292 77.99 66.8292 77.69C66.8292 77.2967 66.9659 76.9867 67.2392 76.76C67.5192 76.5333 67.9092 76.36 68.4092 76.24C68.9159 76.1133 69.5059 76.0133 70.1792 75.94C70.1926 75.52 70.1092 75.1967 69.9292 74.97C69.7492 74.7433 69.4592 74.63 69.0592 74.63C68.7592 74.63 68.5126 74.7 68.3192 74.84C68.1326 74.9733 68.0126 75.16 67.9592 75.4L67.1492 75.16C67.2826 74.78 67.5192 74.4867 67.8592 74.28C68.2059 74.0667 68.6026 73.96 69.0492 73.96C69.7359 73.96 70.2359 74.1233 70.5492 74.45C70.8692 74.77 71.0292 75.2767 71.0292 75.97V77.13C71.0292 77.5433 71.0459 77.9 71.0792 78.2C71.1126 78.5 71.1526 78.7667 71.1992 79H70.4292L70.2292 78.32C70.0826 78.5667 69.8726 78.7633 69.5992 78.91C69.3259 79.05 68.9726 79.12 68.5392 79.12ZM68.7192 78.45C68.9792 78.45 69.2259 78.4033 69.4592 78.31C69.6926 78.2167 69.8826 78.06 70.0292 77.84C70.1759 77.6133 70.2492 77.3067 70.2492 76.92V76.61C69.7426 76.6633 69.3026 76.73 68.9292 76.81C68.5559 76.8833 68.2659 76.99 68.0592 77.13C67.8592 77.2633 67.7592 77.4433 67.7592 77.67C67.7592 77.9033 67.8426 78.0933 68.0092 78.24C68.1826 78.38 68.4192 78.45 68.7192 78.45ZM72.4129 79V74.04H73.0329L73.2529 74.79C73.3929 74.5567 73.5896 74.36 73.8429 74.2C74.0962 74.04 74.4329 73.96 74.8529 73.96C75.4529 73.96 75.8762 74.1367 76.1229 74.49C76.3696 74.8367 76.4929 75.2933 76.4929 75.86V79H75.6529V76.11C75.6529 75.8567 75.6296 75.6233 75.5829 75.41C75.5362 75.19 75.4329 75.0133 75.2729 74.88C75.1196 74.7467 74.8829 74.68 74.5629 74.68C74.1562 74.68 73.8362 74.82 73.6029 75.1C73.3696 75.3733 73.2529 75.7767 73.2529 76.31V79H72.4129ZM25.4702 85.1C25.3035 85.1 25.1568 85.04 25.0302 84.92C24.9102 84.7933 24.8502 84.6433 24.8502 84.47C24.8502 84.2967 24.9102 84.15 25.0302 84.03C25.1568 83.91 25.3035 83.85 25.4702 83.85C25.6435 83.85 25.7902 83.91 25.9102 84.03C26.0368 84.15 26.1002 84.2967 26.1002 84.47C26.1002 84.6433 26.0368 84.7933 25.9102 84.92C25.7902 85.04 25.6435 85.1 25.4702 85.1ZM25.0502 91V86.71H24.3602V86.04H25.8902V91H25.0502ZM27.3934 91V86.04H28.0134L28.2334 86.79C28.3734 86.5567 28.57 86.36 28.8234 86.2C29.0767 86.04 29.4134 85.96 29.8334 85.96C30.4334 85.96 30.8567 86.1367 31.1034 86.49C31.35 86.8367 31.4734 87.2933 31.4734 87.86V91H30.6334V88.11C30.6334 87.8567 30.61 87.6233 30.5634 87.41C30.5167 87.19 30.4134 87.0133 30.2534 86.88C30.1 86.7467 29.8634 86.68 29.5434 86.68C29.1367 86.68 28.8167 86.82 28.5834 87.1C28.35 87.3733 28.2334 87.7767 28.2334 88.31V91H27.3934ZM34.5549 91.12C34.1816 91.12 33.8316 91.02 33.5049 90.82C33.1783 90.6133 32.9149 90.32 32.7149 89.94C32.5216 89.5533 32.4249 89.0867 32.4249 88.54C32.4249 87.9933 32.5216 87.53 32.7149 87.15C32.9149 86.7633 33.1783 86.47 33.5049 86.27C33.8316 86.0633 34.1816 85.96 34.5549 85.96C34.9483 85.96 35.2783 86.04 35.5449 86.2C35.8116 86.3533 36.0183 86.56 36.1649 86.82V84.32H37.0049V89.13C37.0049 89.2967 37.0116 89.5433 37.0249 89.87C37.0383 90.19 37.0883 90.5667 37.1749 91H36.3849L36.1649 90.25C36.0183 90.5167 35.8116 90.73 35.5449 90.89C35.2783 91.0433 34.9483 91.12 34.5549 91.12ZM34.7749 90.4C35.2016 90.4 35.5416 90.2367 35.7949 89.91C36.0549 89.5833 36.1849 89.1267 36.1849 88.54C36.1849 87.9467 36.0549 87.49 35.7949 87.17C35.5416 86.8433 35.2016 86.68 34.7749 86.68C34.3483 86.68 34.0049 86.8433 33.7449 87.17C33.4916 87.49 33.3649 87.9467 33.3649 88.54C33.3649 89.1267 33.4916 89.5833 33.7449 89.91C34.0049 90.2367 34.3483 90.4 34.7749 90.4ZM39.2495 85.1C39.0828 85.1 38.9361 85.04 38.8095 84.92C38.6895 84.7933 38.6295 84.6433 38.6295 84.47C38.6295 84.2967 38.6895 84.15 38.8095 84.03C38.9361 83.91 39.0828 83.85 39.2495 83.85C39.4228 83.85 39.5695 83.91 39.6895 84.03C39.8161 84.15 39.8795 84.2967 39.8795 84.47C39.8795 84.6433 39.8161 84.7933 39.6895 84.92C39.5695 85.04 39.4228 85.1 39.2495 85.1ZM38.8295 91V86.71H38.1395V86.04H39.6695V91H38.8295ZM42.2427 91L40.4727 86.04H41.3827L42.6827 89.9L43.9727 86.04H44.8827L43.1127 91H42.2427ZM46.4467 85.1C46.2801 85.1 46.1334 85.04 46.0067 84.92C45.8867 84.7933 45.8267 84.6433 45.8267 84.47C45.8267 84.2967 45.8867 84.15 46.0067 84.03C46.1334 83.91 46.2801 83.85 46.4467 83.85C46.6201 83.85 46.7667 83.91 46.8867 84.03C47.0134 84.15 47.0767 84.2967 47.0767 84.47C47.0767 84.6433 47.0134 84.7933 46.8867 84.92C46.7667 85.04 46.6201 85.1 46.4467 85.1ZM46.0267 91V86.71H45.3367V86.04H46.8667V91H46.0267ZM50.1799 91.12C49.8066 91.12 49.4566 91.02 49.1299 90.82C48.8033 90.6133 48.5399 90.32 48.3399 89.94C48.1466 89.5533 48.0499 89.0867 48.0499 88.54C48.0499 87.9933 48.1466 87.53 48.3399 87.15C48.5399 86.7633 48.8033 86.47 49.1299 86.27C49.4566 86.0633 49.8066 85.96 50.1799 85.96C50.5733 85.96 50.9033 86.04 51.1699 86.2C51.4366 86.3533 51.6433 86.56 51.7899 86.82V84.32H52.6299V89.13C52.6299 89.2967 52.6366 89.5433 52.6499 89.87C52.6633 90.19 52.7133 90.5667 52.7999 91H52.0099L51.7899 90.25C51.6433 90.5167 51.4366 90.73 51.1699 90.89C50.9033 91.0433 50.5733 91.12 50.1799 91.12ZM50.3999 90.4C50.8266 90.4 51.1666 90.2367 51.4199 89.91C51.6799 89.5833 51.8099 89.1267 51.8099 88.54C51.8099 87.9467 51.6799 87.49 51.4199 87.17C51.1666 86.8433 50.8266 86.68 50.3999 86.68C49.9733 86.68 49.6299 86.8433 49.3699 87.17C49.1166 87.49 48.9899 87.9467 48.9899 88.54C48.9899 89.1267 49.1166 89.5833 49.3699 89.91C49.6299 90.2367 49.9733 90.4 50.3999 90.4ZM55.5845 91.12C55.1978 91.12 54.8878 91.04 54.6545 90.88C54.4211 90.7133 54.2511 90.4867 54.1445 90.2C54.0445 89.9067 53.9945 89.5733 53.9945 89.2V86.03H54.8345V89C54.8345 89.3667 54.8778 89.65 54.9645 89.85C55.0511 90.05 55.1711 90.19 55.3245 90.27C55.4845 90.3433 55.6678 90.38 55.8745 90.38C56.2678 90.38 56.5745 90.2433 56.7945 89.97C57.0211 89.69 57.1345 89.2867 57.1345 88.76V86.03H57.9745V91H57.3445L57.1345 90.28C56.9945 90.52 56.8045 90.72 56.5645 90.88C56.3245 91.04 55.9978 91.12 55.5845 91.12ZM60.7658 91.12C60.4524 91.12 60.1658 91.0633 59.9058 90.95C59.6458 90.8367 59.4391 90.6733 59.2858 90.46C59.1324 90.2467 59.0558 89.99 59.0558 89.69C59.0558 89.2967 59.1924 88.9867 59.4658 88.76C59.7458 88.5333 60.1358 88.36 60.6358 88.24C61.1424 88.1133 61.7324 88.0133 62.4058 87.94C62.4191 87.52 62.3358 87.1967 62.1558 86.97C61.9758 86.7433 61.6858 86.63 61.2858 86.63C60.9858 86.63 60.7391 86.7 60.5458 86.84C60.3591 86.9733 60.2391 87.16 60.1858 87.4L59.3758 87.16C59.5091 86.78 59.7458 86.4867 60.0858 86.28C60.4324 86.0667 60.8291 85.96 61.2758 85.96C61.9624 85.96 62.4624 86.1233 62.7758 86.45C63.0958 86.77 63.2558 87.2767 63.2558 87.97V89.13C63.2558 89.5433 63.2724 89.9 63.3058 90.2C63.3391 90.5 63.3791 90.7667 63.4258 91H62.6558L62.4558 90.32C62.3091 90.5667 62.0991 90.7633 61.8258 90.91C61.5524 91.05 61.1991 91.12 60.7658 91.12ZM60.9458 90.45C61.2058 90.45 61.4524 90.4033 61.6858 90.31C61.9191 90.2167 62.1091 90.06 62.2558 89.84C62.4024 89.6133 62.4758 89.3067 62.4758 88.92V88.61C61.9691 88.6633 61.5291 88.73 61.1558 88.81C60.7824 88.8833 60.4924 88.99 60.2858 89.13C60.0858 89.2633 59.9858 89.4433 59.9858 89.67C59.9858 89.9033 60.0691 90.0933 60.2358 90.24C60.4091 90.38 60.6458 90.45 60.9458 90.45ZM65.8095 91C65.4961 91 65.2528 90.97 65.0795 90.91C64.9128 90.8433 64.7961 90.72 64.7295 90.54C64.6695 90.36 64.6395 90.1 64.6395 89.76V84.33H65.4795V89.62C65.4795 89.8733 65.5061 90.0433 65.5595 90.13C65.6128 90.2167 65.7561 90.26 65.9895 90.26H66.1795V91H65.8095ZM68.722 91.12C68.4354 91.12 68.152 91.0767 67.872 90.99C67.5987 90.8967 67.352 90.76 67.132 90.58C66.9187 90.3933 66.7554 90.16 66.642 89.88L67.452 89.58C67.5254 89.8733 67.6854 90.0867 67.932 90.22C68.1854 90.3467 68.4487 90.41 68.722 90.41C68.922 90.41 69.1087 90.38 69.282 90.32C69.462 90.26 69.6087 90.1733 69.722 90.06C69.8354 89.9467 69.892 89.8167 69.892 89.67C69.892 89.3967 69.782 89.2033 69.562 89.09C69.3487 88.9767 69.092 88.89 68.792 88.83L68.102 88.69C67.862 88.6367 67.6387 88.5633 67.432 88.47C67.2254 88.37 67.0587 88.23 66.932 88.05C66.8054 87.87 66.742 87.63 66.742 87.33C66.742 87.03 66.8354 86.78 67.022 86.58C67.2087 86.3733 67.4454 86.2167 67.732 86.11C68.0254 86.0033 68.332 85.95 68.652 85.95C69.0454 85.95 69.4154 86.0333 69.762 86.2C70.1154 86.36 70.3654 86.6133 70.512 86.96L69.722 87.25C69.6354 87.05 69.482 86.9033 69.262 86.81C69.0487 86.71 68.8254 86.66 68.592 86.66C68.3387 86.66 68.1087 86.7167 67.902 86.83C67.6954 86.9433 67.592 87.1067 67.592 87.32C67.592 87.5333 67.6787 87.69 67.852 87.79C68.032 87.8833 68.252 87.9567 68.512 88.01L69.162 88.14C69.4287 88.1933 69.682 88.27 69.922 88.37C70.162 88.47 70.3587 88.62 70.512 88.82C70.6654 89.0133 70.742 89.2867 70.742 89.64C70.742 89.9533 70.6454 90.22 70.452 90.44C70.2587 90.66 70.0087 90.83 69.702 90.95C69.3954 91.0633 69.0687 91.12 68.722 91.12ZM72.0591 91.12C71.8857 91.12 71.7357 91.0567 71.6091 90.93C71.4824 90.8033 71.4191 90.6533 71.4191 90.48C71.4191 90.3 71.4824 90.1467 71.6091 90.02C71.7357 89.8933 71.8857 89.83 72.0591 89.83C72.2391 89.83 72.3924 89.8933 72.5191 90.02C72.6457 90.1467 72.7091 90.3 72.7091 90.48C72.7091 90.6533 72.6457 90.8033 72.5191 90.93C72.3924 91.0567 72.2391 91.12 72.0591 91.12Z" fill="black"/>
<circle cx="149.5" cy="31.5" r="17" fill="#FCF4E9" stroke="black"/>
<path d="M134.646 31.6464C134.451 31.8417 134.451 32.1583 134.646 32.3536L137.828 35.5355C138.024 35.7308 138.34 35.7308 138.536 35.5355C138.731 35.3403 138.731 35.0237 138.536 34.8284L135.707 32L138.536 29.1716C138.731 28.9763 138.731 28.6597 138.536 28.4645C138.34 28.2692 138.024 28.2692 137.828 28.4645L134.646 31.6464ZM164.354 32.3536C164.549 32.1583 164.549 31.8417 164.354 31.6464L161.172 28.4645C160.976 28.2692 160.66 28.2692 160.464 28.4645C160.269 28.6597 160.269 28.9763 160.464 29.1716L163.293 32L160.464 34.8284C160.269 35.0237 160.269 35.3403 160.464 35.5355C160.66 35.7308 160.976 35.7308 161.172 35.5355L164.354 32.3536ZM135 32L135 32.5L164 32.5L164 32L164 31.5L135 31.5L135 32Z" fill="black"/>
<path d="M210.864 67V66.26H211.804V61.06H210.864V60.32H213.684V61.06H212.744V66.26H213.684V67H210.864ZM215.045 67V62.04H215.665L215.885 62.79C216.025 62.5567 216.221 62.36 216.475 62.2C216.728 62.04 217.065 61.96 217.485 61.96C218.085 61.96 218.508 62.1367 218.755 62.49C219.001 62.8367 219.125 63.2933 219.125 63.86V67H218.285V64.11C218.285 63.8567 218.261 63.6233 218.215 63.41C218.168 63.19 218.065 63.0133 217.905 62.88C217.751 62.7467 217.515 62.68 217.195 62.68C216.788 62.68 216.468 62.82 216.235 63.1C216.001 63.3733 215.885 63.7767 215.885 64.31V67H215.045ZM221.887 67C221.573 67 221.33 66.97 221.157 66.91C220.99 66.8433 220.873 66.72 220.807 66.54C220.747 66.36 220.717 66.1 220.717 65.76V62.71H219.877V62.04H220.717V60.79H221.557V62.04H222.517V62.71H221.557V65.62C221.557 65.8733 221.58 66.0433 221.627 66.13C221.68 66.2167 221.827 66.26 222.067 66.26H222.517V67H221.887ZM225.729 67.12C225.209 67.12 224.769 67.0067 224.409 66.78C224.049 66.5467 223.772 66.2367 223.579 65.85C223.392 65.4567 223.299 65.0167 223.299 64.53C223.299 64.0033 223.406 63.55 223.619 63.17C223.832 62.7833 224.119 62.4867 224.479 62.28C224.846 62.0667 225.256 61.96 225.709 61.96C226.102 61.96 226.449 62.04 226.749 62.2C227.049 62.3533 227.296 62.5633 227.489 62.83C227.689 63.09 227.832 63.3867 227.919 63.72C228.012 64.0533 228.046 64.3967 228.019 64.75H224.199C224.212 65.1633 224.302 65.49 224.469 65.73C224.642 65.97 224.846 66.14 225.079 66.24C225.312 66.3333 225.529 66.38 225.729 66.38C226.009 66.38 226.242 66.3367 226.429 66.25C226.622 66.1567 226.776 66.0367 226.889 65.89L227.699 66.13C227.519 66.4167 227.262 66.6533 226.929 66.84C226.596 67.0267 226.196 67.12 225.729 67.12ZM224.209 64.08H227.129C227.129 63.8467 227.069 63.6233 226.949 63.41C226.836 63.1967 226.672 63.0233 226.459 62.89C226.252 62.75 226.002 62.68 225.709 62.68C225.462 62.68 225.229 62.7267 225.009 62.82C224.789 62.9133 224.606 63.0633 224.459 63.27C224.319 63.4767 224.236 63.7467 224.209 64.08ZM229.01 67V62.04H229.62L229.89 62.96C230.063 62.66 230.296 62.42 230.59 62.24C230.89 62.0533 231.246 61.96 231.66 61.96V62.83C231.613 62.83 231.563 62.83 231.51 62.83C231.463 62.83 231.416 62.8333 231.37 62.84C230.803 62.8867 230.406 63.0833 230.18 63.43C229.96 63.7767 229.85 64.2567 229.85 64.87V67H229.01ZM233.652 67.12C233.338 67.12 233.052 67.0633 232.792 66.95C232.532 66.8367 232.325 66.6733 232.172 66.46C232.018 66.2467 231.942 65.99 231.942 65.69C231.942 65.2967 232.078 64.9867 232.352 64.76C232.632 64.5333 233.022 64.36 233.522 64.24C234.028 64.1133 234.618 64.0133 235.292 63.94C235.305 63.52 235.222 63.1967 235.042 62.97C234.862 62.7433 234.572 62.63 234.172 62.63C233.872 62.63 233.625 62.7 233.432 62.84C233.245 62.9733 233.125 63.16 233.072 63.4L232.262 63.16C232.395 62.78 232.632 62.4867 232.972 62.28C233.318 62.0667 233.715 61.96 234.162 61.96C234.848 61.96 235.348 62.1233 235.662 62.45C235.982 62.77 236.142 63.2767 236.142 63.97V65.13C236.142 65.5433 236.158 65.9 236.192 66.2C236.225 66.5 236.265 66.7667 236.312 67H235.542L235.342 66.32C235.195 66.5667 234.985 66.7633 234.712 66.91C234.438 67.05 234.085 67.12 233.652 67.12ZM233.832 66.45C234.092 66.45 234.338 66.4033 234.572 66.31C234.805 66.2167 234.995 66.06 235.142 65.84C235.288 65.6133 235.362 65.3067 235.362 64.92V64.61C234.855 64.6633 234.415 64.73 234.042 64.81C233.668 64.8833 233.378 64.99 233.172 65.13C232.972 65.2633 232.872 65.4433 232.872 65.67C232.872 65.9033 232.955 66.0933 233.122 66.24C233.295 66.38 233.532 66.45 233.832 66.45ZM239.515 67.12C239.042 67.12 238.632 67.01 238.285 66.79C237.939 66.5633 237.672 66.2567 237.485 65.87C237.299 65.4833 237.205 65.04 237.205 64.54C237.205 64.0467 237.302 63.6067 237.495 63.22C237.695 62.8267 237.975 62.52 238.335 62.3C238.695 62.0733 239.119 61.96 239.605 61.96C240.052 61.96 240.435 62.07 240.755 62.29C241.075 62.51 241.315 62.7733 241.475 63.08L240.705 63.36C240.599 63.16 240.442 63 240.235 62.88C240.029 62.76 239.799 62.7 239.545 62.7C239.299 62.7 239.065 62.7667 238.845 62.9C238.625 63.0267 238.449 63.2267 238.315 63.5C238.182 63.7667 238.115 64.11 238.115 64.53C238.115 64.9433 238.182 65.29 238.315 65.57C238.455 65.8433 238.632 66.0467 238.845 66.18C239.065 66.3133 239.299 66.38 239.545 66.38C239.819 66.38 240.055 66.32 240.255 66.2C240.462 66.0733 240.619 65.9167 240.725 65.73L241.495 66.01C241.309 66.33 241.042 66.5967 240.695 66.81C240.349 67.0167 239.955 67.12 239.515 67.12ZM244.035 67C243.722 67 243.479 66.97 243.305 66.91C243.139 66.8433 243.022 66.72 242.955 66.54C242.895 66.36 242.865 66.1 242.865 65.76V62.71H242.025V62.04H242.865V60.79H243.705V62.04H244.665V62.71H243.705V65.62C243.705 65.8733 243.729 66.0433 243.775 66.13C243.829 66.2167 243.975 66.26 244.215 66.26H244.665V67H244.035ZM250.08 67C249.767 67 249.523 66.97 249.35 66.91C249.183 66.8433 249.067 66.72 249 66.54C248.94 66.36 248.91 66.1 248.91 65.76V62.71H248.07V62.04H248.91V60.79H249.75V62.04H250.71V62.71H249.75V65.62C249.75 65.8733 249.773 66.0433 249.82 66.13C249.873 66.2167 250.02 66.26 250.26 66.26H250.71V67H250.08ZM253.872 67.12C253.586 67.12 253.302 67.07 253.022 66.97C252.742 66.87 252.486 66.7167 252.252 66.51C252.026 66.2967 251.842 66.0267 251.702 65.7C251.562 65.3733 251.492 64.9867 251.492 64.54C251.492 64.0933 251.562 63.7067 251.702 63.38C251.842 63.0533 252.026 62.7867 252.252 62.58C252.486 62.3667 252.742 62.21 253.022 62.11C253.302 62.01 253.586 61.96 253.872 61.96C254.159 61.96 254.442 62.01 254.722 62.11C255.009 62.21 255.266 62.3667 255.492 62.58C255.726 62.7867 255.909 63.0533 256.042 63.38C256.182 63.7067 256.252 64.0933 256.252 64.54C256.252 64.9867 256.182 65.3733 256.042 65.7C255.909 66.0267 255.726 66.2967 255.492 66.51C255.266 66.7167 255.009 66.87 254.722 66.97C254.442 67.07 254.159 67.12 253.872 67.12ZM253.872 66.38C254.112 66.38 254.346 66.3167 254.572 66.19C254.799 66.0567 254.986 65.8567 255.132 65.59C255.279 65.3167 255.352 64.9667 255.352 64.54C255.352 64.1133 255.279 63.7667 255.132 63.5C254.986 63.2267 254.799 63.0267 254.572 62.9C254.346 62.7667 254.112 62.7 253.872 62.7C253.639 62.7 253.406 62.7667 253.172 62.9C252.946 63.0267 252.759 63.2267 252.612 63.5C252.466 63.7667 252.392 64.1133 252.392 64.54C252.392 64.9667 252.466 65.3167 252.612 65.59C252.759 65.8567 252.946 66.0567 253.172 66.19C253.406 66.3167 253.639 66.38 253.872 66.38ZM262.243 67.12C261.723 67.12 261.283 67.0067 260.923 66.78C260.563 66.5467 260.286 66.2367 260.093 65.85C259.906 65.4567 259.813 65.0167 259.813 64.53C259.813 64.0033 259.919 63.55 260.133 63.17C260.346 62.7833 260.633 62.4867 260.993 62.28C261.359 62.0667 261.769 61.96 262.223 61.96C262.616 61.96 262.963 62.04 263.263 62.2C263.563 62.3533 263.809 62.5633 264.003 62.83C264.203 63.09 264.346 63.3867 264.433 63.72C264.526 64.0533 264.559 64.3967 264.533 64.75H260.713C260.726 65.1633 260.816 65.49 260.983 65.73C261.156 65.97 261.359 66.14 261.593 66.24C261.826 66.3333 262.043 66.38 262.243 66.38C262.523 66.38 262.756 66.3367 262.943 66.25C263.136 66.1567 263.289 66.0367 263.403 65.89L264.213 66.13C264.033 66.4167 263.776 66.6533 263.443 66.84C263.109 67.0267 262.709 67.12 262.243 67.12ZM260.723 64.08H263.643C263.643 63.8467 263.583 63.6233 263.463 63.41C263.349 63.1967 263.186 63.0233 262.973 62.89C262.766 62.75 262.516 62.68 262.223 62.68C261.976 62.68 261.743 62.7267 261.523 62.82C261.303 62.9133 261.119 63.0633 260.973 63.27C260.833 63.4767 260.749 63.7467 260.723 64.08ZM264.823 67L266.633 64.45L264.913 62.04H265.903L267.123 63.76L268.353 62.04H269.343L267.623 64.45L269.433 67H268.443L267.123 65.15L265.813 67H264.823ZM270.133 68.61V62.04H270.743L270.973 62.82C271.126 62.56 271.336 62.3533 271.603 62.2C271.869 62.04 272.196 61.96 272.583 61.96C272.963 61.96 273.313 62.0633 273.633 62.27C273.959 62.47 274.219 62.7633 274.413 63.15C274.613 63.53 274.713 63.9933 274.713 64.54C274.713 65.08 274.613 65.5433 274.413 65.93C274.219 66.3167 273.959 66.6133 273.633 66.82C273.313 67.02 272.963 67.12 272.583 67.12C272.196 67.12 271.869 67.0433 271.603 66.89C271.336 66.73 271.126 66.5167 270.973 66.25V68.61H270.133ZM272.363 66.4C272.789 66.4 273.129 66.2367 273.383 65.91C273.643 65.5833 273.773 65.1267 273.773 64.54C273.773 63.9467 273.643 63.49 273.383 63.17C273.129 62.8433 272.789 62.68 272.363 62.68C271.936 62.68 271.593 62.8433 271.333 63.17C271.079 63.49 270.953 63.9467 270.953 64.54C270.953 65.1267 271.079 65.5833 271.333 65.91C271.593 66.2367 271.936 66.4 272.363 66.4ZM276.967 67C276.653 67 276.41 66.97 276.237 66.91C276.07 66.8433 275.953 66.72 275.887 66.54C275.827 66.36 275.797 66.1 275.797 65.76V60.33H276.637V65.62C276.637 65.8733 276.663 66.0433 276.717 66.13C276.77 66.2167 276.913 66.26 277.147 66.26H277.337V67H276.967ZM280.249 67.12C279.963 67.12 279.679 67.07 279.399 66.97C279.119 66.87 278.863 66.7167 278.629 66.51C278.403 66.2967 278.219 66.0267 278.079 65.7C277.939 65.3733 277.869 64.9867 277.869 64.54C277.869 64.0933 277.939 63.7067 278.079 63.38C278.219 63.0533 278.403 62.7867 278.629 62.58C278.863 62.3667 279.119 62.21 279.399 62.11C279.679 62.01 279.963 61.96 280.249 61.96C280.536 61.96 280.819 62.01 281.099 62.11C281.386 62.21 281.643 62.3667 281.869 62.58C282.103 62.7867 282.286 63.0533 282.419 63.38C282.559 63.7067 282.629 64.0933 282.629 64.54C282.629 64.9867 282.559 65.3733 282.419 65.7C282.286 66.0267 282.103 66.2967 281.869 66.51C281.643 66.7167 281.386 66.87 281.099 66.97C280.819 67.07 280.536 67.12 280.249 67.12ZM280.249 66.38C280.489 66.38 280.723 66.3167 280.949 66.19C281.176 66.0567 281.363 65.8567 281.509 65.59C281.656 65.3167 281.729 64.9667 281.729 64.54C281.729 64.1133 281.656 63.7667 281.509 63.5C281.363 63.2267 281.176 63.0267 280.949 62.9C280.723 62.7667 280.489 62.7 280.249 62.7C280.016 62.7 279.783 62.7667 279.549 62.9C279.323 63.0267 279.136 63.2267 278.989 63.5C278.843 63.7667 278.769 64.1133 278.769 64.54C278.769 64.9667 278.843 65.3167 278.989 65.59C279.136 65.8567 279.323 66.0567 279.549 66.19C279.783 66.3167 280.016 66.38 280.249 66.38ZM283.707 67V62.04H284.317L284.587 62.96C284.76 62.66 284.994 62.42 285.287 62.24C285.587 62.0533 285.944 61.96 286.357 61.96V62.83C286.31 62.83 286.26 62.83 286.207 62.83C286.16 62.83 286.114 62.8333 286.067 62.84C285.5 62.8867 285.104 63.0833 284.877 63.43C284.657 63.7767 284.547 64.2567 284.547 64.87V67H283.707ZM289.215 67.12C288.695 67.12 288.255 67.0067 287.895 66.78C287.535 66.5467 287.259 66.2367 287.065 65.85C286.879 65.4567 286.785 65.0167 286.785 64.53C286.785 64.0033 286.892 63.55 287.105 63.17C287.319 62.7833 287.605 62.4867 287.965 62.28C288.332 62.0667 288.742 61.96 289.195 61.96C289.589 61.96 289.935 62.04 290.235 62.2C290.535 62.3533 290.782 62.5633 290.975 62.83C291.175 63.09 291.319 63.3867 291.405 63.72C291.499 64.0533 291.532 64.3967 291.505 64.75H287.685C287.699 65.1633 287.789 65.49 287.955 65.73C288.129 65.97 288.332 66.14 288.565 66.24C288.799 66.3333 289.015 66.38 289.215 66.38C289.495 66.38 289.729 66.3367 289.915 66.25C290.109 66.1567 290.262 66.0367 290.375 65.89L291.185 66.13C291.005 66.4167 290.749 66.6533 290.415 66.84C290.082 67.0267 289.682 67.12 289.215 67.12ZM287.695 64.08H290.615C290.615 63.8467 290.555 63.6233 290.435 63.41C290.322 63.1967 290.159 63.0233 289.945 62.89C289.739 62.75 289.489 62.68 289.195 62.68C288.949 62.68 288.715 62.7267 288.495 62.82C288.275 62.9133 288.092 63.0633 287.945 63.27C287.805 63.4767 287.722 63.7467 287.695 64.08ZM219.655 79C219.342 79 219.099 78.97 218.925 78.91C218.759 78.8433 218.642 78.72 218.575 78.54C218.515 78.36 218.485 78.1 218.485 77.76V74.71H217.645V74.04H218.485V72.79H219.325V74.04H220.285V74.71H219.325V77.62C219.325 77.8733 219.349 78.0433 219.395 78.13C219.449 78.2167 219.595 78.26 219.835 78.26H220.285V79H219.655ZM221.388 79V72.32H222.228V74.79C222.368 74.5567 222.564 74.36 222.818 74.2C223.071 74.04 223.408 73.96 223.828 73.96C224.428 73.96 224.851 74.1367 225.098 74.49C225.344 74.8367 225.468 75.2933 225.468 75.86V79H224.628V76.11C224.628 75.8567 224.604 75.6233 224.558 75.41C224.511 75.19 224.408 75.0133 224.248 74.88C224.094 74.7467 223.858 74.68 223.538 74.68C223.131 74.68 222.811 74.82 222.578 75.1C222.344 75.3733 222.228 75.7767 222.228 76.31V79H221.388ZM228.849 79.12C228.329 79.12 227.889 79.0067 227.529 78.78C227.169 78.5467 226.892 78.2367 226.699 77.85C226.512 77.4567 226.419 77.0167 226.419 76.53C226.419 76.0033 226.526 75.55 226.739 75.17C226.952 74.7833 227.239 74.4867 227.599 74.28C227.966 74.0667 228.376 73.96 228.829 73.96C229.222 73.96 229.569 74.04 229.869 74.2C230.169 74.3533 230.416 74.5633 230.609 74.83C230.809 75.09 230.952 75.3867 231.039 75.72C231.132 76.0533 231.166 76.3967 231.139 76.75H227.319C227.332 77.1633 227.422 77.49 227.589 77.73C227.762 77.97 227.966 78.14 228.199 78.24C228.432 78.3333 228.649 78.38 228.849 78.38C229.129 78.38 229.362 78.3367 229.549 78.25C229.742 78.1567 229.896 78.0367 230.009 77.89L230.819 78.13C230.639 78.4167 230.382 78.6533 230.049 78.84C229.716 79.0267 229.316 79.12 228.849 79.12ZM227.329 76.08H230.249C230.249 75.8467 230.189 75.6233 230.069 75.41C229.956 75.1967 229.792 75.0233 229.579 74.89C229.372 74.75 229.122 74.68 228.829 74.68C228.582 74.68 228.349 74.7267 228.129 74.82C227.909 74.9133 227.726 75.0633 227.579 75.27C227.439 75.4767 227.356 75.7467 227.329 76.08ZM236.322 79.12C236.009 79.12 235.722 79.0633 235.462 78.95C235.202 78.8367 234.996 78.6733 234.842 78.46C234.689 78.2467 234.612 77.99 234.612 77.69C234.612 77.2967 234.749 76.9867 235.022 76.76C235.302 76.5333 235.692 76.36 236.192 76.24C236.699 76.1133 237.289 76.0133 237.962 75.94C237.976 75.52 237.892 75.1967 237.712 74.97C237.532 74.7433 237.242 74.63 236.842 74.63C236.542 74.63 236.296 74.7 236.102 74.84C235.916 74.9733 235.796 75.16 235.742 75.4L234.932 75.16C235.066 74.78 235.302 74.4867 235.642 74.28C235.989 74.0667 236.386 73.96 236.832 73.96C237.519 73.96 238.019 74.1233 238.332 74.45C238.652 74.77 238.812 75.2767 238.812 75.97V77.13C238.812 77.5433 238.829 77.9 238.862 78.2C238.896 78.5 238.936 78.7667 238.982 79H238.212L238.012 78.32C237.866 78.5667 237.656 78.7633 237.382 78.91C237.109 79.05 236.756 79.12 236.322 79.12ZM236.502 78.45C236.762 78.45 237.009 78.4033 237.242 78.31C237.476 78.2167 237.666 78.06 237.812 77.84C237.959 77.6133 238.032 77.3067 238.032 76.92V76.61C237.526 76.6633 237.086 76.73 236.712 76.81C236.339 76.8833 236.049 76.99 235.842 77.13C235.642 77.2633 235.542 77.4433 235.542 77.67C235.542 77.9033 235.626 78.0933 235.792 78.24C235.966 78.38 236.202 78.45 236.502 78.45ZM241.886 79.12C241.599 79.12 241.316 79.0767 241.036 78.99C240.763 78.8967 240.516 78.76 240.296 78.58C240.083 78.3933 239.919 78.16 239.806 77.88L240.616 77.58C240.689 77.8733 240.849 78.0867 241.096 78.22C241.349 78.3467 241.613 78.41 241.886 78.41C242.086 78.41 242.273 78.38 242.446 78.32C242.626 78.26 242.773 78.1733 242.886 78.06C242.999 77.9467 243.056 77.8167 243.056 77.67C243.056 77.3967 242.946 77.2033 242.726 77.09C242.513 76.9767 242.256 76.89 241.956 76.83L241.266 76.69C241.026 76.6367 240.803 76.5633 240.596 76.47C240.389 76.37 240.223 76.23 240.096 76.05C239.969 75.87 239.906 75.63 239.906 75.33C239.906 75.03 239.999 74.78 240.186 74.58C240.373 74.3733 240.609 74.2167 240.896 74.11C241.189 74.0033 241.496 73.95 241.816 73.95C242.209 73.95 242.579 74.0333 242.926 74.2C243.279 74.36 243.529 74.6133 243.676 74.96L242.886 75.25C242.799 75.05 242.646 74.9033 242.426 74.81C242.213 74.71 241.989 74.66 241.756 74.66C241.503 74.66 241.273 74.7167 241.066 74.83C240.859 74.9433 240.756 75.1067 240.756 75.32C240.756 75.5333 240.843 75.69 241.016 75.79C241.196 75.8833 241.416 75.9567 241.676 76.01L242.326 76.14C242.593 76.1933 242.846 76.27 243.086 76.37C243.326 76.47 243.523 76.62 243.676 76.82C243.829 77.0133 243.906 77.2867 243.906 77.64C243.906 77.9533 243.809 78.22 243.616 78.44C243.423 78.66 243.173 78.83 242.866 78.95C242.559 79.0633 242.233 79.12 241.886 79.12ZM246.593 79.12C246.306 79.12 246.023 79.0767 245.743 78.99C245.47 78.8967 245.223 78.76 245.003 78.58C244.79 78.3933 244.626 78.16 244.513 77.88L245.323 77.58C245.396 77.8733 245.556 78.0867 245.803 78.22C246.056 78.3467 246.32 78.41 246.593 78.41C246.793 78.41 246.98 78.38 247.153 78.32C247.333 78.26 247.48 78.1733 247.593 78.06C247.706 77.9467 247.763 77.8167 247.763 77.67C247.763 77.3967 247.653 77.2033 247.433 77.09C247.22 76.9767 246.963 76.89 246.663 76.83L245.973 76.69C245.733 76.6367 245.51 76.5633 245.303 76.47C245.096 76.37 244.93 76.23 244.803 76.05C244.676 75.87 244.613 75.63 244.613 75.33C244.613 75.03 244.706 74.78 244.893 74.58C245.08 74.3733 245.316 74.2167 245.603 74.11C245.896 74.0033 246.203 73.95 246.523 73.95C246.916 73.95 247.286 74.0333 247.633 74.2C247.986 74.36 248.236 74.6133 248.383 74.96L247.593 75.25C247.506 75.05 247.353 74.9033 247.133 74.81C246.92 74.71 246.696 74.66 246.463 74.66C246.21 74.66 245.98 74.7167 245.773 74.83C245.566 74.9433 245.463 75.1067 245.463 75.32C245.463 75.5333 245.55 75.69 245.723 75.79C245.903 75.8833 246.123 75.9567 246.383 76.01L247.033 76.14C247.3 76.1933 247.553 76.27 247.793 76.37C248.033 76.47 248.23 76.62 248.383 76.82C248.536 77.0133 248.613 77.2867 248.613 77.64C248.613 77.9533 248.516 78.22 248.323 78.44C248.13 78.66 247.88 78.83 247.573 78.95C247.266 79.0633 246.94 79.12 246.593 79.12ZM251.67 79.12C251.383 79.12 251.1 79.07 250.82 78.97C250.54 78.87 250.283 78.7167 250.05 78.51C249.823 78.2967 249.64 78.0267 249.5 77.7C249.36 77.3733 249.29 76.9867 249.29 76.54C249.29 76.0933 249.36 75.7067 249.5 75.38C249.64 75.0533 249.823 74.7867 250.05 74.58C250.283 74.3667 250.54 74.21 250.82 74.11C251.1 74.01 251.383 73.96 251.67 73.96C251.957 73.96 252.24 74.01 252.52 74.11C252.807 74.21 253.063 74.3667 253.29 74.58C253.523 74.7867 253.707 75.0533 253.84 75.38C253.98 75.7067 254.05 76.0933 254.05 76.54C254.05 76.9867 253.98 77.3733 253.84 77.7C253.707 78.0267 253.523 78.2967 253.29 78.51C253.063 78.7167 252.807 78.87 252.52 78.97C252.24 79.07 251.957 79.12 251.67 79.12ZM251.67 78.38C251.91 78.38 252.143 78.3167 252.37 78.19C252.597 78.0567 252.783 77.8567 252.93 77.59C253.077 77.3167 253.15 76.9667 253.15 76.54C253.15 76.1133 253.077 75.7667 252.93 75.5C252.783 75.2267 252.597 75.0267 252.37 74.9C252.143 74.7667 251.91 74.7 251.67 74.7C251.437 74.7 251.203 74.7667 250.97 74.9C250.743 75.0267 250.557 75.2267 250.41 75.5C250.263 75.7667 250.19 76.1133 250.19 76.54C250.19 76.9667 250.263 77.3167 250.41 77.59C250.557 77.8567 250.743 78.0567 250.97 78.19C251.203 78.3167 251.437 78.38 251.67 78.38ZM257.118 79.12C256.644 79.12 256.234 79.01 255.888 78.79C255.541 78.5633 255.274 78.2567 255.088 77.87C254.901 77.4833 254.808 77.04 254.808 76.54C254.808 76.0467 254.904 75.6067 255.098 75.22C255.298 74.8267 255.578 74.52 255.938 74.3C256.298 74.0733 256.721 73.96 257.208 73.96C257.654 73.96 258.038 74.07 258.358 74.29C258.678 74.51 258.918 74.7733 259.078 75.08L258.308 75.36C258.201 75.16 258.044 75 257.838 74.88C257.631 74.76 257.401 74.7 257.148 74.7C256.901 74.7 256.668 74.7667 256.448 74.9C256.228 75.0267 256.051 75.2267 255.918 75.5C255.784 75.7667 255.718 76.11 255.718 76.53C255.718 76.9433 255.784 77.29 255.918 77.57C256.058 77.8433 256.234 78.0467 256.448 78.18C256.668 78.3133 256.901 78.38 257.148 78.38C257.421 78.38 257.658 78.32 257.858 78.2C258.064 78.0733 258.221 77.9167 258.328 77.73L259.098 78.01C258.911 78.33 258.644 78.5967 258.298 78.81C257.951 79.0167 257.558 79.12 257.118 79.12ZM260.988 73.1C260.821 73.1 260.674 73.04 260.548 72.92C260.428 72.7933 260.368 72.6433 260.368 72.47C260.368 72.2967 260.428 72.15 260.548 72.03C260.674 71.91 260.821 71.85 260.988 71.85C261.161 71.85 261.308 71.91 261.428 72.03C261.554 72.15 261.618 72.2967 261.618 72.47C261.618 72.6433 261.554 72.7933 261.428 72.92C261.308 73.04 261.161 73.1 260.988 73.1ZM260.568 79V74.71H259.878V74.04H261.408V79H260.568ZM264.301 79.12C263.988 79.12 263.701 79.0633 263.441 78.95C263.181 78.8367 262.974 78.6733 262.821 78.46C262.668 78.2467 262.591 77.99 262.591 77.69C262.591 77.2967 262.728 76.9867 263.001 76.76C263.281 76.5333 263.671 76.36 264.171 76.24C264.678 76.1133 265.268 76.0133 265.941 75.94C265.954 75.52 265.871 75.1967 265.691 74.97C265.511 74.7433 265.221 74.63 264.821 74.63C264.521 74.63 264.274 74.7 264.081 74.84C263.894 74.9733 263.774 75.16 263.721 75.4L262.911 75.16C263.044 74.78 263.281 74.4867 263.621 74.28C263.968 74.0667 264.364 73.96 264.811 73.96C265.498 73.96 265.998 74.1233 266.311 74.45C266.631 74.77 266.791 75.2767 266.791 75.97V77.13C266.791 77.5433 266.808 77.9 266.841 78.2C266.874 78.5 266.914 78.7667 266.961 79H266.191L265.991 78.32C265.844 78.5667 265.634 78.7633 265.361 78.91C265.088 79.05 264.734 79.12 264.301 79.12ZM264.481 78.45C264.741 78.45 264.988 78.4033 265.221 78.31C265.454 78.2167 265.644 78.06 265.791 77.84C265.938 77.6133 266.011 77.3067 266.011 76.92V76.61C265.504 76.6633 265.064 76.73 264.691 76.81C264.318 76.8833 264.028 76.99 263.821 77.13C263.621 77.2633 263.521 77.4433 263.521 77.67C263.521 77.9033 263.604 78.0933 263.771 78.24C263.944 78.38 264.181 78.45 264.481 78.45ZM269.685 79C269.371 79 269.128 78.97 268.955 78.91C268.788 78.8433 268.671 78.72 268.605 78.54C268.545 78.36 268.515 78.1 268.515 77.76V74.71H267.675V74.04H268.515V72.79H269.355V74.04H270.315V74.71H269.355V77.62C269.355 77.8733 269.378 78.0433 269.425 78.13C269.478 78.2167 269.625 78.26 269.865 78.26H270.315V79H269.685ZM273.527 79.12C273.007 79.12 272.567 79.0067 272.207 78.78C271.847 78.5467 271.57 78.2367 271.377 77.85C271.19 77.4567 271.097 77.0167 271.097 76.53C271.097 76.0033 271.203 75.55 271.417 75.17C271.63 74.7833 271.917 74.4867 272.277 74.28C272.643 74.0667 273.053 73.96 273.507 73.96C273.9 73.96 274.247 74.04 274.547 74.2C274.847 74.3533 275.093 74.5633 275.287 74.83C275.487 75.09 275.63 75.3867 275.717 75.72C275.81 76.0533 275.843 76.3967 275.817 76.75H271.997C272.01 77.1633 272.1 77.49 272.267 77.73C272.44 77.97 272.643 78.14 272.877 78.24C273.11 78.3333 273.327 78.38 273.527 78.38C273.807 78.38 274.04 78.3367 274.227 78.25C274.42 78.1567 274.573 78.0367 274.687 77.89L275.497 78.13C275.317 78.4167 275.06 78.6533 274.727 78.84C274.393 79.0267 273.993 79.12 273.527 79.12ZM272.007 76.08H274.927C274.927 75.8467 274.867 75.6233 274.747 75.41C274.633 75.1967 274.47 75.0233 274.257 74.89C274.05 74.75 273.8 74.68 273.507 74.68C273.26 74.68 273.027 74.7267 272.807 74.82C272.587 74.9133 272.403 75.0633 272.257 75.27C272.117 75.4767 272.033 75.7467 272.007 76.08ZM278.617 79.12C278.244 79.12 277.894 79.02 277.567 78.82C277.241 78.6133 276.977 78.32 276.777 77.94C276.584 77.5533 276.487 77.0867 276.487 76.54C276.487 75.9933 276.584 75.53 276.777 75.15C276.977 74.7633 277.241 74.47 277.567 74.27C277.894 74.0633 278.244 73.96 278.617 73.96C279.011 73.96 279.341 74.04 279.607 74.2C279.874 74.3533 280.081 74.56 280.227 74.82V72.32H281.067V77.13C281.067 77.2967 281.074 77.5433 281.087 77.87C281.101 78.19 281.151 78.5667 281.237 79H280.447L280.227 78.25C280.081 78.5167 279.874 78.73 279.607 78.89C279.341 79.0433 279.011 79.12 278.617 79.12ZM278.837 78.4C279.264 78.4 279.604 78.2367 279.857 77.91C280.117 77.5833 280.247 77.1267 280.247 76.54C280.247 75.9467 280.117 75.49 279.857 75.17C279.604 74.8433 279.264 74.68 278.837 74.68C278.411 74.68 278.067 74.8433 277.807 75.17C277.554 75.49 277.427 75.9467 277.427 76.54C277.427 77.1267 277.554 77.5833 277.807 77.91C278.067 78.2367 278.411 78.4 278.837 78.4ZM235.898 91.12C235.584 91.12 235.298 91.0633 235.038 90.95C234.778 90.8367 234.571 90.6733 234.418 90.46C234.264 90.2467 234.188 89.99 234.188 89.69C234.188 89.2967 234.324 88.9867 234.598 88.76C234.878 88.5333 235.268 88.36 235.768 88.24C236.274 88.1133 236.864 88.0133 237.538 87.94C237.551 87.52 237.468 87.1967 237.288 86.97C237.108 86.7433 236.818 86.63 236.418 86.63C236.118 86.63 235.871 86.7 235.678 86.84C235.491 86.9733 235.371 87.16 235.318 87.4L234.508 87.16C234.641 86.78 234.878 86.4867 235.218 86.28C235.564 86.0667 235.961 85.96 236.408 85.96C237.094 85.96 237.594 86.1233 237.908 86.45C238.228 86.77 238.388 87.2767 238.388 87.97V89.13C238.388 89.5433 238.404 89.9 238.438 90.2C238.471 90.5 238.511 90.7667 238.558 91H237.788L237.588 90.32C237.441 90.5667 237.231 90.7633 236.958 90.91C236.684 91.05 236.331 91.12 235.898 91.12ZM236.078 90.45C236.338 90.45 236.584 90.4033 236.818 90.31C237.051 90.2167 237.241 90.06 237.388 89.84C237.534 89.6133 237.608 89.3067 237.608 88.92V88.61C237.101 88.6633 236.661 88.73 236.288 88.81C235.914 88.8833 235.624 88.99 235.418 89.13C235.218 89.2633 235.118 89.4433 235.118 89.67C235.118 89.9033 235.201 90.0933 235.368 90.24C235.541 90.38 235.778 90.45 236.078 90.45ZM239.771 91V86.04H240.381L240.651 86.96C240.825 86.66 241.058 86.42 241.351 86.24C241.651 86.0533 242.008 85.96 242.421 85.96V86.83C242.375 86.83 242.325 86.83 242.271 86.83C242.225 86.83 242.178 86.8333 242.131 86.84C241.565 86.8867 241.168 87.0833 240.941 87.43C240.721 87.7767 240.611 88.2567 240.611 88.87V91H239.771ZM244.836 91C244.523 91 244.279 90.97 244.106 90.91C243.939 90.8433 243.823 90.72 243.756 90.54C243.696 90.36 243.666 90.1 243.666 89.76V86.71H242.826V86.04H243.666V84.79H244.506V86.04H245.466V86.71H244.506V89.62C244.506 89.8733 244.529 90.0433 244.576 90.13C244.629 90.2167 244.776 90.26 245.016 90.26H245.466V91H244.836ZM247.428 85.1C247.261 85.1 247.115 85.04 246.988 84.92C246.868 84.7933 246.808 84.6433 246.808 84.47C246.808 84.2967 246.868 84.15 246.988 84.03C247.115 83.91 247.261 83.85 247.428 83.85C247.601 83.85 247.748 83.91 247.868 84.03C247.995 84.15 248.058 84.2967 248.058 84.47C248.058 84.6433 247.995 84.7933 247.868 84.92C247.748 85.04 247.601 85.1 247.428 85.1ZM247.008 91V86.71H246.318V86.04H247.848V91H247.008ZM251.341 91.12C250.868 91.12 250.458 91.01 250.111 90.79C249.765 90.5633 249.498 90.2567 249.311 89.87C249.125 89.4833 249.031 89.04 249.031 88.54C249.031 88.0467 249.128 87.6067 249.321 87.22C249.521 86.8267 249.801 86.52 250.161 86.3C250.521 86.0733 250.945 85.96 251.431 85.96C251.878 85.96 252.261 86.07 252.581 86.29C252.901 86.51 253.141 86.7733 253.301 87.08L252.531 87.36C252.425 87.16 252.268 87 252.061 86.88C251.855 86.76 251.625 86.7 251.371 86.7C251.125 86.7 250.891 86.7667 250.671 86.9C250.451 87.0267 250.275 87.2267 250.141 87.5C250.008 87.7667 249.941 88.11 249.941 88.53C249.941 88.9433 250.008 89.29 250.141 89.57C250.281 89.8433 250.458 90.0467 250.671 90.18C250.891 90.3133 251.125 90.38 251.371 90.38C251.645 90.38 251.881 90.32 252.081 90.2C252.288 90.0733 252.445 89.9167 252.551 89.73L253.321 90.01C253.135 90.33 252.868 90.5967 252.521 90.81C252.175 91.0167 251.781 91.12 251.341 91.12ZM255.521 91C255.208 91 254.965 90.97 254.791 90.91C254.625 90.8433 254.508 90.72 254.441 90.54C254.381 90.36 254.351 90.1 254.351 89.76V84.33H255.191V89.62C255.191 89.8733 255.218 90.0433 255.271 90.13C255.325 90.2167 255.468 90.26 255.701 90.26H255.891V91H255.521ZM258.854 91.12C258.334 91.12 257.894 91.0067 257.534 90.78C257.174 90.5467 256.897 90.2367 256.704 89.85C256.517 89.4567 256.424 89.0167 256.424 88.53C256.424 88.0033 256.531 87.55 256.744 87.17C256.957 86.7833 257.244 86.4867 257.604 86.28C257.971 86.0667 258.381 85.96 258.834 85.96C259.227 85.96 259.574 86.04 259.874 86.2C260.174 86.3533 260.421 86.5633 260.614 86.83C260.814 87.09 260.957 87.3867 261.044 87.72C261.137 88.0533 261.171 88.3967 261.144 88.75H257.324C257.337 89.1633 257.427 89.49 257.594 89.73C257.767 89.97 257.971 90.14 258.204 90.24C258.437 90.3333 258.654 90.38 258.854 90.38C259.134 90.38 259.367 90.3367 259.554 90.25C259.747 90.1567 259.901 90.0367 260.014 89.89L260.824 90.13C260.644 90.4167 260.387 90.6533 260.054 90.84C259.721 91.0267 259.321 91.12 258.854 91.12ZM257.334 88.08H260.254C260.254 87.8467 260.194 87.6233 260.074 87.41C259.961 87.1967 259.797 87.0233 259.584 86.89C259.377 86.75 259.127 86.68 258.834 86.68C258.587 86.68 258.354 86.7267 258.134 86.82C257.914 86.9133 257.731 87.0633 257.584 87.27C257.444 87.4767 257.361 87.7467 257.334 88.08ZM263.825 91.12C263.538 91.12 263.255 91.0767 262.975 90.99C262.701 90.8967 262.455 90.76 262.235 90.58C262.021 90.3933 261.858 90.16 261.745 89.88L262.555 89.58C262.628 89.8733 262.788 90.0867 263.035 90.22C263.288 90.3467 263.551 90.41 263.825 90.41C264.025 90.41 264.211 90.38 264.385 90.32C264.565 90.26 264.711 90.1733 264.825 90.06C264.938 89.9467 264.995 89.8167 264.995 89.67C264.995 89.3967 264.885 89.2033 264.665 89.09C264.451 88.9767 264.195 88.89 263.895 88.83L263.205 88.69C262.965 88.6367 262.741 88.5633 262.535 88.47C262.328 88.37 262.161 88.23 262.035 88.05C261.908 87.87 261.845 87.63 261.845 87.33C261.845 87.03 261.938 86.78 262.125 86.58C262.311 86.3733 262.548 86.2167 262.835 86.11C263.128 86.0033 263.435 85.95 263.755 85.95C264.148 85.95 264.518 86.0333 264.865 86.2C265.218 86.36 265.468 86.6133 265.615 86.96L264.825 87.25C264.738 87.05 264.585 86.9033 264.365 86.81C264.151 86.71 263.928 86.66 263.695 86.66C263.441 86.66 263.211 86.7167 263.005 86.83C262.798 86.9433 262.695 87.1067 262.695 87.32C262.695 87.5333 262.781 87.69 262.955 87.79C263.135 87.8833 263.355 87.9567 263.615 88.01L264.265 88.14C264.531 88.1933 264.785 88.27 265.025 88.37C265.265 88.47 265.461 88.62 265.615 88.82C265.768 89.0133 265.845 89.2867 265.845 89.64C265.845 89.9533 265.748 90.22 265.555 90.44C265.361 90.66 265.111 90.83 264.805 90.95C264.498 91.0633 264.171 91.12 263.825 91.12ZM267.162 91.12C266.988 91.12 266.838 91.0567 266.712 90.93C266.585 90.8033 266.522 90.6533 266.522 90.48C266.522 90.3 266.585 90.1467 266.712 90.02C266.838 89.8933 266.988 89.83 267.162 89.83C267.342 89.83 267.495 89.8933 267.622 90.02C267.748 90.1467 267.812 90.3 267.812 90.48C267.812 90.6533 267.748 90.8033 267.622 90.93C267.495 91.0567 267.342 91.12 267.162 91.12Z" fill="black"/>
<circle cx="237.677" cy="45.6768" r="6.17676" fill="#FCF4E9" stroke="black"/>
<circle cx="259" cy="44" r="10.5" fill="#FFBC36" stroke="black"/>
<circle cx="258.353" cy="20.3529" r="9.85294" fill="#FCF4E9" stroke="black"/>
<circle cx="227" cy="20" r="16.5" fill="#FCF4E9" stroke="black"/>
<circle cx="259" cy="44" r="2" fill="black"/>
<circle cx="259" cy="44" r="5" stroke="black" stroke-linecap="round" stroke-linejoin="round" stroke-dasharray="1 2"/>
</svg>
