<svg width="270" height="88" viewBox="0 0 270 88" fill="none" xmlns="http://www.w3.org/2000/svg">
<g clip-path="url(#clip0_6125_41724)">
<path d="M86.3278 64V58.13H84.1078V57.32H89.4878V58.13H87.2678V64H86.3278ZM90.284 64V57.32H91.124V59.79C91.264 59.5567 91.4607 59.36 91.714 59.2C91.9673 59.04 92.304 58.96 92.724 58.96C93.324 58.96 93.7473 59.1367 93.994 59.49C94.2407 59.8367 94.364 60.2933 94.364 60.86V64H93.524V61.11C93.524 60.8567 93.5007 60.6233 93.454 60.41C93.4073 60.19 93.304 60.0133 93.144 59.88C92.9907 59.7467 92.754 59.68 92.434 59.68C92.0273 59.68 91.7073 59.82 91.474 60.1C91.2407 60.3733 91.124 60.7767 91.124 61.31V64H90.284ZM97.7455 64.12C97.2255 64.12 96.7855 64.0067 96.4255 63.78C96.0655 63.5467 95.7889 63.2367 95.5955 62.85C95.4089 62.4567 95.3155 62.0167 95.3155 61.53C95.3155 61.0033 95.4222 60.55 95.6355 60.17C95.8489 59.7833 96.1355 59.4867 96.4955 59.28C96.8622 59.0667 97.2722 58.96 97.7255 58.96C98.1189 58.96 98.4655 59.04 98.7655 59.2C99.0655 59.3533 99.3122 59.5633 99.5055 59.83C99.7055 60.09 99.8489 60.3867 99.9355 60.72C100.029 61.0533 100.062 61.3967 100.036 61.75H96.2155C96.2289 62.1633 96.3189 62.49 96.4855 62.73C96.6589 62.97 96.8622 63.14 97.0955 63.24C97.3289 63.3333 97.5455 63.38 97.7455 63.38C98.0255 63.38 98.2589 63.3367 98.4455 63.25C98.6389 63.1567 98.7922 63.0367 98.9055 62.89L99.7155 63.13C99.5355 63.4167 99.2789 63.6533 98.9455 63.84C98.6122 64.0267 98.2122 64.12 97.7455 64.12ZM96.2255 61.08H99.1455C99.1455 60.8467 99.0855 60.6233 98.9655 60.41C98.8522 60.1967 98.6889 60.0233 98.4755 59.89C98.2689 59.75 98.0189 59.68 97.7255 59.68C97.4789 59.68 97.2455 59.7267 97.0255 59.82C96.8055 59.9133 96.6222 60.0633 96.4755 60.27C96.3355 60.4767 96.2522 60.7467 96.2255 61.08ZM106.279 64.12C105.892 64.12 105.566 64.0433 105.299 63.89C105.032 63.73 104.822 63.5167 104.669 63.25L104.449 64H103.829V57.32H104.669V59.82C104.822 59.56 105.032 59.3533 105.299 59.2C105.566 59.04 105.892 58.96 106.279 58.96C106.659 58.96 107.009 59.0633 107.329 59.27C107.656 59.47 107.916 59.7633 108.109 60.15C108.309 60.53 108.409 60.9933 108.409 61.54C108.409 62.0867 108.309 62.5533 108.109 62.94C107.916 63.32 107.656 63.6133 107.329 63.82C107.009 64.02 106.659 64.12 106.279 64.12ZM106.059 63.4C106.486 63.4 106.826 63.2367 107.079 62.91C107.339 62.5833 107.469 62.1267 107.469 61.54C107.469 60.9467 107.339 60.49 107.079 60.17C106.826 59.8433 106.486 59.68 106.059 59.68C105.632 59.68 105.289 59.8433 105.029 60.17C104.776 60.49 104.649 60.9467 104.649 61.54C104.649 62.1267 104.776 62.5833 105.029 62.91C105.289 63.2367 105.632 63.4 106.059 63.4ZM111.063 64.12C110.676 64.12 110.366 64.04 110.133 63.88C109.9 63.7133 109.73 63.4867 109.623 63.2C109.523 62.9067 109.473 62.5733 109.473 62.2V59.03H110.313V62C110.313 62.3667 110.356 62.65 110.443 62.85C110.53 63.05 110.65 63.19 110.803 63.27C110.963 63.3433 111.146 63.38 111.353 63.38C111.746 63.38 112.053 63.2433 112.273 62.97C112.5 62.69 112.613 62.2867 112.613 61.76V59.03H113.453V64H112.823L112.613 63.28C112.473 63.52 112.283 63.72 112.043 63.88C111.803 64.04 111.476 64.12 111.063 64.12ZM117.304 64.12C116.918 64.12 116.591 64.0433 116.324 63.89C116.058 63.73 115.848 63.5167 115.694 63.25L115.474 64H114.854V57.32H115.694V59.82C115.848 59.56 116.058 59.3533 116.324 59.2C116.591 59.04 116.918 58.96 117.304 58.96C117.684 58.96 118.034 59.0633 118.354 59.27C118.681 59.47 118.941 59.7633 119.134 60.15C119.334 60.53 119.434 60.9933 119.434 61.54C119.434 62.0867 119.334 62.5533 119.134 62.94C118.941 63.32 118.681 63.6133 118.354 63.82C118.034 64.02 117.684 64.12 117.304 64.12ZM117.084 63.4C117.511 63.4 117.851 63.2367 118.104 62.91C118.364 62.5833 118.494 62.1267 118.494 61.54C118.494 60.9467 118.364 60.49 118.104 60.17C117.851 59.8433 117.511 59.68 117.084 59.68C116.658 59.68 116.314 59.8433 116.054 60.17C115.801 60.49 115.674 60.9467 115.674 61.54C115.674 62.1267 115.801 62.5833 116.054 62.91C116.314 63.2367 116.658 63.4 117.084 63.4ZM122.968 64.12C122.582 64.12 122.255 64.0433 121.988 63.89C121.722 63.73 121.512 63.5167 121.358 63.25L121.138 64H120.518V57.32H121.358V59.82C121.512 59.56 121.722 59.3533 121.988 59.2C122.255 59.04 122.582 58.96 122.968 58.96C123.348 58.96 123.698 59.0633 124.018 59.27C124.345 59.47 124.605 59.7633 124.798 60.15C124.998 60.53 125.098 60.9933 125.098 61.54C125.098 62.0867 124.998 62.5533 124.798 62.94C124.605 63.32 124.345 63.6133 124.018 63.82C123.698 64.02 123.348 64.12 122.968 64.12ZM122.748 63.4C123.175 63.4 123.515 63.2367 123.768 62.91C124.028 62.5833 124.158 62.1267 124.158 61.54C124.158 60.9467 124.028 60.49 123.768 60.17C123.515 59.8433 123.175 59.68 122.748 59.68C122.322 59.68 121.978 59.8433 121.718 60.17C121.465 60.49 121.338 60.9467 121.338 61.54C121.338 62.1267 121.465 62.5833 121.718 62.91C121.978 63.2367 122.322 63.4 122.748 63.4ZM127.352 64C127.039 64 126.796 63.97 126.622 63.91C126.456 63.8433 126.339 63.72 126.272 63.54C126.212 63.36 126.182 63.1 126.182 62.76V57.33H127.022V62.62C127.022 62.8733 127.049 63.0433 127.102 63.13C127.156 63.2167 127.299 63.26 127.532 63.26H127.722V64H127.352ZM130.685 64.12C130.165 64.12 129.725 64.0067 129.365 63.78C129.005 63.5467 128.728 63.2367 128.535 62.85C128.348 62.4567 128.255 62.0167 128.255 61.53C128.255 61.0033 128.362 60.55 128.575 60.17C128.788 59.7833 129.075 59.4867 129.435 59.28C129.802 59.0667 130.212 58.96 130.665 58.96C131.058 58.96 131.405 59.04 131.705 59.2C132.005 59.3533 132.252 59.5633 132.445 59.83C132.645 60.09 132.788 60.3867 132.875 60.72C132.968 61.0533 133.002 61.3967 132.975 61.75H129.155C129.168 62.1633 129.258 62.49 129.425 62.73C129.598 62.97 129.802 63.14 130.035 63.24C130.268 63.3333 130.485 63.38 130.685 63.38C130.965 63.38 131.198 63.3367 131.385 63.25C131.578 63.1567 131.732 63.0367 131.845 62.89L132.655 63.13C132.475 63.4167 132.218 63.6533 131.885 63.84C131.552 64.0267 131.152 64.12 130.685 64.12ZM129.165 61.08H132.085C132.085 60.8467 132.025 60.6233 131.905 60.41C131.792 60.1967 131.628 60.0233 131.415 59.89C131.208 59.75 130.958 59.68 130.665 59.68C130.418 59.68 130.185 59.7267 129.965 59.82C129.745 59.9133 129.562 60.0633 129.415 60.27C129.275 60.4767 129.192 60.7467 129.165 61.08ZM135.656 64.12C135.369 64.12 135.086 64.0767 134.806 63.99C134.532 63.8967 134.286 63.76 134.066 63.58C133.852 63.3933 133.689 63.16 133.576 62.88L134.386 62.58C134.459 62.8733 134.619 63.0867 134.866 63.22C135.119 63.3467 135.382 63.41 135.656 63.41C135.856 63.41 136.042 63.38 136.216 63.32C136.396 63.26 136.542 63.1733 136.656 63.06C136.769 62.9467 136.826 62.8167 136.826 62.67C136.826 62.3967 136.716 62.2033 136.496 62.09C136.282 61.9767 136.026 61.89 135.726 61.83L135.036 61.69C134.796 61.6367 134.572 61.5633 134.366 61.47C134.159 61.37 133.992 61.23 133.866 61.05C133.739 60.87 133.676 60.63 133.676 60.33C133.676 60.03 133.769 59.78 133.956 59.58C134.142 59.3733 134.379 59.2167 134.666 59.11C134.959 59.0033 135.266 58.95 135.586 58.95C135.979 58.95 136.349 59.0333 136.696 59.2C137.049 59.36 137.299 59.6133 137.446 59.96L136.656 60.25C136.569 60.05 136.416 59.9033 136.196 59.81C135.982 59.71 135.759 59.66 135.526 59.66C135.272 59.66 135.042 59.7167 134.836 59.83C134.629 59.9433 134.526 60.1067 134.526 60.32C134.526 60.5333 134.612 60.69 134.786 60.79C134.966 60.8833 135.186 60.9567 135.446 61.01L136.096 61.14C136.362 61.1933 136.616 61.27 136.856 61.37C137.096 61.47 137.292 61.62 137.446 61.82C137.599 62.0133 137.676 62.2867 137.676 62.64C137.676 62.9533 137.579 63.22 137.386 63.44C137.192 63.66 136.942 63.83 136.636 63.95C136.329 64.0633 136.002 64.12 135.656 64.12ZM143.285 64.12C142.912 64.12 142.562 64.02 142.235 63.82C141.909 63.6133 141.645 63.32 141.445 62.94C141.252 62.5533 141.155 62.0867 141.155 61.54C141.155 60.9933 141.252 60.53 141.445 60.15C141.645 59.7633 141.909 59.47 142.235 59.27C142.562 59.0633 142.912 58.96 143.285 58.96C143.679 58.96 144.009 59.04 144.275 59.2C144.542 59.3533 144.749 59.56 144.895 59.82V57.32H145.735V62.13C145.735 62.2967 145.742 62.5433 145.755 62.87C145.769 63.19 145.819 63.5667 145.905 64H145.115L144.895 63.25C144.749 63.5167 144.542 63.73 144.275 63.89C144.009 64.0433 143.679 64.12 143.285 64.12ZM143.505 63.4C143.932 63.4 144.272 63.2367 144.525 62.91C144.785 62.5833 144.915 62.1267 144.915 61.54C144.915 60.9467 144.785 60.49 144.525 60.17C144.272 59.8433 143.932 59.68 143.505 59.68C143.079 59.68 142.735 59.8433 142.475 60.17C142.222 60.49 142.095 60.9467 142.095 61.54C142.095 62.1267 142.222 62.5833 142.475 62.91C142.735 63.2367 143.079 63.4 143.505 63.4ZM147.98 58.1C147.813 58.1 147.667 58.04 147.54 57.92C147.42 57.7933 147.36 57.6433 147.36 57.47C147.36 57.2967 147.42 57.15 147.54 57.03C147.667 56.91 147.813 56.85 147.98 56.85C148.153 56.85 148.3 56.91 148.42 57.03C148.547 57.15 148.61 57.2967 148.61 57.47C148.61 57.6433 148.547 57.7933 148.42 57.92C148.3 58.04 148.153 58.1 147.98 58.1ZM147.56 64V59.71H146.87V59.04H148.4V64H147.56ZM151.293 64.12C150.98 64.12 150.693 64.0633 150.433 63.95C150.173 63.8367 149.966 63.6733 149.813 63.46C149.66 63.2467 149.583 62.99 149.583 62.69C149.583 62.2967 149.72 61.9867 149.993 61.76C150.273 61.5333 150.663 61.36 151.163 61.24C151.67 61.1133 152.26 61.0133 152.933 60.94C152.946 60.52 152.863 60.1967 152.683 59.97C152.503 59.7433 152.213 59.63 151.813 59.63C151.513 59.63 151.266 59.7 151.073 59.84C150.886 59.9733 150.766 60.16 150.713 60.4L149.903 60.16C150.036 59.78 150.273 59.4867 150.613 59.28C150.96 59.0667 151.356 58.96 151.803 58.96C152.49 58.96 152.99 59.1233 153.303 59.45C153.623 59.77 153.783 60.2767 153.783 60.97V62.13C153.783 62.5433 153.8 62.9 153.833 63.2C153.866 63.5 153.906 63.7667 153.953 64H153.183L152.983 63.32C152.836 63.5667 152.626 63.7633 152.353 63.91C152.08 64.05 151.726 64.12 151.293 64.12ZM151.473 63.45C151.733 63.45 151.98 63.4033 152.213 63.31C152.446 63.2167 152.636 63.06 152.783 62.84C152.93 62.6133 153.003 62.3067 153.003 61.92V61.61C152.496 61.6633 152.056 61.73 151.683 61.81C151.31 61.8833 151.02 61.99 150.813 62.13C150.613 62.2633 150.513 62.4433 150.513 62.67C150.513 62.9033 150.596 63.0933 150.763 63.24C150.936 63.38 151.173 63.45 151.473 63.45ZM155.167 64V59.04H155.787L156.007 59.79C156.147 59.5567 156.337 59.36 156.577 59.2C156.823 59.04 157.13 58.96 157.497 58.96C157.877 58.96 158.183 59.0367 158.417 59.19C158.65 59.3433 158.82 59.5567 158.927 59.83C159.127 59.5233 159.367 59.3033 159.647 59.17C159.933 59.03 160.25 58.96 160.597 58.96C161.17 58.96 161.58 59.1367 161.827 59.49C162.073 59.8367 162.197 60.2933 162.197 60.86V64H161.357V61.11C161.357 60.8567 161.33 60.6233 161.277 60.41C161.23 60.19 161.13 60.0133 160.977 59.88C160.83 59.7467 160.603 59.68 160.297 59.68C159.937 59.68 159.647 59.82 159.427 60.1C159.213 60.3733 159.107 60.7767 159.107 61.31V64H158.267V61.11C158.267 60.8567 158.24 60.6233 158.187 60.41C158.14 60.19 158.04 60.0133 157.887 59.88C157.74 59.7467 157.513 59.68 157.207 59.68C156.847 59.68 156.557 59.82 156.337 60.1C156.117 60.3733 156.007 60.7767 156.007 61.31V64H155.167ZM165.578 64.12C165.058 64.12 164.618 64.0067 164.258 63.78C163.898 63.5467 163.621 63.2367 163.428 62.85C163.241 62.4567 163.148 62.0167 163.148 61.53C163.148 61.0033 163.254 60.55 163.468 60.17C163.681 59.7833 163.968 59.4867 164.328 59.28C164.694 59.0667 165.104 58.96 165.558 58.96C165.951 58.96 166.298 59.04 166.598 59.2C166.898 59.3533 167.144 59.5633 167.338 59.83C167.538 60.09 167.681 60.3867 167.768 60.72C167.861 61.0533 167.894 61.3967 167.868 61.75H164.048C164.061 62.1633 164.151 62.49 164.318 62.73C164.491 62.97 164.694 63.14 164.928 63.24C165.161 63.3333 165.378 63.38 165.578 63.38C165.858 63.38 166.091 63.3367 166.278 63.25C166.471 63.1567 166.624 63.0367 166.738 62.89L167.548 63.13C167.368 63.4167 167.111 63.6533 166.778 63.84C166.444 64.0267 166.044 64.12 165.578 64.12ZM164.058 61.08H166.978C166.978 60.8467 166.918 60.6233 166.798 60.41C166.684 60.1967 166.521 60.0233 166.308 59.89C166.101 59.75 165.851 59.68 165.558 59.68C165.311 59.68 165.078 59.7267 164.858 59.82C164.638 59.9133 164.454 60.0633 164.308 60.27C164.168 60.4767 164.084 60.7467 164.058 61.08ZM170.368 64C170.055 64 169.812 63.97 169.638 63.91C169.472 63.8433 169.355 63.72 169.288 63.54C169.228 63.36 169.198 63.1 169.198 62.76V59.71H168.358V59.04H169.198V57.79H170.038V59.04H170.998V59.71H170.038V62.62C170.038 62.8733 170.062 63.0433 170.108 63.13C170.162 63.2167 170.308 63.26 170.548 63.26H170.998V64H170.368ZM174.21 64.12C173.69 64.12 173.25 64.0067 172.89 63.78C172.53 63.5467 172.254 63.2367 172.06 62.85C171.874 62.4567 171.78 62.0167 171.78 61.53C171.78 61.0033 171.887 60.55 172.1 60.17C172.314 59.7833 172.6 59.4867 172.96 59.28C173.327 59.0667 173.737 58.96 174.19 58.96C174.584 58.96 174.93 59.04 175.23 59.2C175.53 59.3533 175.777 59.5633 175.97 59.83C176.17 60.09 176.314 60.3867 176.4 60.72C176.494 61.0533 176.527 61.3967 176.5 61.75H172.68C172.694 62.1633 172.784 62.49 172.95 62.73C173.124 62.97 173.327 63.14 173.56 63.24C173.794 63.3333 174.01 63.38 174.21 63.38C174.49 63.38 174.724 63.3367 174.91 63.25C175.104 63.1567 175.257 63.0367 175.37 62.89L176.18 63.13C176 63.4167 175.744 63.6533 175.41 63.84C175.077 64.0267 174.677 64.12 174.21 64.12ZM172.69 61.08H175.61C175.61 60.8467 175.55 60.6233 175.43 60.41C175.317 60.1967 175.154 60.0233 174.94 59.89C174.734 59.75 174.484 59.68 174.19 59.68C173.944 59.68 173.71 59.7267 173.49 59.82C173.27 59.9133 173.087 60.0633 172.94 60.27C172.8 60.4767 172.717 60.7467 172.69 61.08ZM177.491 64V59.04H178.101L178.371 59.96C178.544 59.66 178.778 59.42 179.071 59.24C179.371 59.0533 179.728 58.96 180.141 58.96V59.83C180.094 59.83 180.044 59.83 179.991 59.83C179.944 59.83 179.898 59.8333 179.851 59.84C179.284 59.8867 178.888 60.0833 178.661 60.43C178.441 60.7767 178.331 61.2567 178.331 61.87V64H177.491ZM83.1844 76V71.04H83.7944L84.0644 71.96C84.2377 71.66 84.471 71.42 84.7644 71.24C85.0644 71.0533 85.421 70.96 85.8344 70.96V71.83C85.7877 71.83 85.7377 71.83 85.6844 71.83C85.6377 71.83 85.591 71.8333 85.5444 71.84C84.9777 71.8867 84.581 72.0833 84.3544 72.43C84.1344 72.7767 84.0244 73.2567 84.0244 73.87V76H83.1844ZM88.6928 76.12C88.1728 76.12 87.7328 76.0067 87.3728 75.78C87.0128 75.5467 86.7361 75.2367 86.5428 74.85C86.3561 74.4567 86.2628 74.0167 86.2628 73.53C86.2628 73.0033 86.3695 72.55 86.5828 72.17C86.7961 71.7833 87.0828 71.4867 87.4428 71.28C87.8095 71.0667 88.2195 70.96 88.6728 70.96C89.0661 70.96 89.4128 71.04 89.7128 71.2C90.0128 71.3533 90.2595 71.5633 90.4528 71.83C90.6528 72.09 90.7961 72.3867 90.8828 72.72C90.9761 73.0533 91.0095 73.3967 90.9828 73.75H87.1628C87.1761 74.1633 87.2661 74.49 87.4328 74.73C87.6061 74.97 87.8095 75.14 88.0428 75.24C88.2761 75.3333 88.4928 75.38 88.6928 75.38C88.9728 75.38 89.2061 75.3367 89.3928 75.25C89.5861 75.1567 89.7395 75.0367 89.8528 74.89L90.6628 75.13C90.4828 75.4167 90.2261 75.6533 89.8928 75.84C89.5595 76.0267 89.1595 76.12 88.6928 76.12ZM87.1728 73.08H90.0928C90.0928 72.8467 90.0328 72.6233 89.9128 72.41C89.7995 72.1967 89.6361 72.0233 89.4228 71.89C89.2161 71.75 88.9661 71.68 88.6728 71.68C88.4261 71.68 88.1928 71.7267 87.9728 71.82C87.7528 71.9133 87.5695 72.0633 87.4228 72.27C87.2828 72.4767 87.1995 72.7467 87.1728 73.08ZM91.9734 77.61V71.04H92.5834L92.8134 71.82C92.9668 71.56 93.1768 71.3533 93.4434 71.2C93.7101 71.04 94.0368 70.96 94.4234 70.96C94.8034 70.96 95.1534 71.0633 95.4734 71.27C95.8001 71.47 96.0601 71.7633 96.2534 72.15C96.4534 72.53 96.5534 72.9933 96.5534 73.54C96.5534 74.08 96.4534 74.5433 96.2534 74.93C96.0601 75.3167 95.8001 75.6133 95.4734 75.82C95.1534 76.02 94.8034 76.12 94.4234 76.12C94.0368 76.12 93.7101 76.0433 93.4434 75.89C93.1768 75.73 92.9668 75.5167 92.8134 75.25V77.61H91.9734ZM94.2034 75.4C94.6301 75.4 94.9701 75.2367 95.2234 74.91C95.4834 74.5833 95.6134 74.1267 95.6134 73.54C95.6134 72.9467 95.4834 72.49 95.2234 72.17C94.9701 71.8433 94.6301 71.68 94.2034 71.68C93.7768 71.68 93.4334 71.8433 93.1734 72.17C92.9201 72.49 92.7934 72.9467 92.7934 73.54C92.7934 74.1267 92.9201 74.5833 93.1734 74.91C93.4334 75.2367 93.7768 75.4 94.2034 75.4ZM97.6375 76V71.04H98.2475L98.5175 71.96C98.6908 71.66 98.9242 71.42 99.2175 71.24C99.5175 71.0533 99.8742 70.96 100.288 70.96V71.83C100.241 71.83 100.191 71.83 100.138 71.83C100.091 71.83 100.044 71.8333 99.9975 71.84C99.4308 71.8867 99.0342 72.0833 98.8075 72.43C98.5875 72.7767 98.4775 73.2567 98.4775 73.87V76H97.6375ZM103.146 76.12C102.626 76.12 102.186 76.0067 101.826 75.78C101.466 75.5467 101.189 75.2367 100.996 74.85C100.809 74.4567 100.716 74.0167 100.716 73.53C100.716 73.0033 100.823 72.55 101.036 72.17C101.249 71.7833 101.536 71.4867 101.896 71.28C102.263 71.0667 102.673 70.96 103.126 70.96C103.519 70.96 103.866 71.04 104.166 71.2C104.466 71.3533 104.713 71.5633 104.906 71.83C105.106 72.09 105.249 72.3867 105.336 72.72C105.429 73.0533 105.463 73.3967 105.436 73.75H101.616C101.629 74.1633 101.719 74.49 101.886 74.73C102.059 74.97 102.263 75.14 102.496 75.24C102.729 75.3333 102.946 75.38 103.146 75.38C103.426 75.38 103.659 75.3367 103.846 75.25C104.039 75.1567 104.193 75.0367 104.306 74.89L105.116 75.13C104.936 75.4167 104.679 75.6533 104.346 75.84C104.013 76.0267 103.613 76.12 103.146 76.12ZM101.626 73.08H104.546C104.546 72.8467 104.486 72.6233 104.366 72.41C104.253 72.1967 104.089 72.0233 103.876 71.89C103.669 71.75 103.419 71.68 103.126 71.68C102.879 71.68 102.646 71.7267 102.426 71.82C102.206 71.9133 102.023 72.0633 101.876 72.27C101.736 72.4767 101.653 72.7467 101.626 73.08ZM108.117 76.12C107.83 76.12 107.547 76.0767 107.267 75.99C106.993 75.8967 106.747 75.76 106.527 75.58C106.313 75.3933 106.15 75.16 106.037 74.88L106.847 74.58C106.92 74.8733 107.08 75.0867 107.327 75.22C107.58 75.3467 107.843 75.41 108.117 75.41C108.317 75.41 108.503 75.38 108.677 75.32C108.857 75.26 109.003 75.1733 109.117 75.06C109.23 74.9467 109.287 74.8167 109.287 74.67C109.287 74.3967 109.177 74.2033 108.957 74.09C108.743 73.9767 108.487 73.89 108.187 73.83L107.497 73.69C107.257 73.6367 107.033 73.5633 106.827 73.47C106.62 73.37 106.453 73.23 106.327 73.05C106.2 72.87 106.137 72.63 106.137 72.33C106.137 72.03 106.23 71.78 106.417 71.58C106.603 71.3733 106.84 71.2167 107.127 71.11C107.42 71.0033 107.727 70.95 108.047 70.95C108.44 70.95 108.81 71.0333 109.157 71.2C109.51 71.36 109.76 71.6133 109.907 71.96L109.117 72.25C109.03 72.05 108.877 71.9033 108.657 71.81C108.443 71.71 108.22 71.66 107.987 71.66C107.733 71.66 107.503 71.7167 107.297 71.83C107.09 71.9433 106.987 72.1067 106.987 72.32C106.987 72.5333 107.073 72.69 107.247 72.79C107.427 72.8833 107.647 72.9567 107.907 73.01L108.557 73.14C108.823 73.1933 109.077 73.27 109.317 73.37C109.557 73.47 109.753 73.62 109.907 73.82C110.06 74.0133 110.137 74.2867 110.137 74.64C110.137 74.9533 110.04 75.22 109.847 75.44C109.653 75.66 109.403 75.83 109.097 75.95C108.79 76.0633 108.463 76.12 108.117 76.12ZM113.244 76.12C112.724 76.12 112.284 76.0067 111.924 75.78C111.564 75.5467 111.287 75.2367 111.094 74.85C110.907 74.4567 110.814 74.0167 110.814 73.53C110.814 73.0033 110.92 72.55 111.134 72.17C111.347 71.7833 111.634 71.4867 111.994 71.28C112.36 71.0667 112.77 70.96 113.224 70.96C113.617 70.96 113.964 71.04 114.264 71.2C114.564 71.3533 114.81 71.5633 115.004 71.83C115.204 72.09 115.347 72.3867 115.434 72.72C115.527 73.0533 115.56 73.3967 115.534 73.75H111.714C111.727 74.1633 111.817 74.49 111.984 74.73C112.157 74.97 112.36 75.14 112.594 75.24C112.827 75.3333 113.044 75.38 113.244 75.38C113.524 75.38 113.757 75.3367 113.944 75.25C114.137 75.1567 114.29 75.0367 114.404 74.89L115.214 75.13C115.034 75.4167 114.777 75.6533 114.444 75.84C114.11 76.0267 113.71 76.12 113.244 76.12ZM111.724 73.08H114.644C114.644 72.8467 114.584 72.6233 114.464 72.41C114.35 72.1967 114.187 72.0233 113.974 71.89C113.767 71.75 113.517 71.68 113.224 71.68C112.977 71.68 112.744 71.7267 112.524 71.82C112.304 71.9133 112.12 72.0633 111.974 72.27C111.834 72.4767 111.75 72.7467 111.724 73.08ZM116.524 76V71.04H117.144L117.364 71.79C117.504 71.5567 117.701 71.36 117.954 71.2C118.208 71.04 118.544 70.96 118.964 70.96C119.564 70.96 119.988 71.1367 120.234 71.49C120.481 71.8367 120.604 72.2933 120.604 72.86V76H119.764V73.11C119.764 72.8567 119.741 72.6233 119.694 72.41C119.648 72.19 119.544 72.0133 119.384 71.88C119.231 71.7467 118.994 71.68 118.674 71.68C118.268 71.68 117.948 71.82 117.714 72.1C117.481 72.3733 117.364 72.7767 117.364 73.31V76H116.524ZM123.366 76C123.053 76 122.81 75.97 122.636 75.91C122.47 75.8433 122.353 75.72 122.286 75.54C122.226 75.36 122.196 75.1 122.196 74.76V71.71H121.356V71.04H122.196V69.79H123.036V71.04H123.996V71.71H123.036V74.62C123.036 74.8733 123.06 75.0433 123.106 75.13C123.16 75.2167 123.306 75.26 123.546 75.26H123.996V76H123.366ZM126.788 76.12C126.502 76.12 126.218 76.0767 125.938 75.99C125.665 75.8967 125.418 75.76 125.198 75.58C124.985 75.3933 124.822 75.16 124.708 74.88L125.518 74.58C125.592 74.8733 125.752 75.0867 125.998 75.22C126.252 75.3467 126.515 75.41 126.788 75.41C126.988 75.41 127.175 75.38 127.348 75.32C127.528 75.26 127.675 75.1733 127.788 75.06C127.902 74.9467 127.958 74.8167 127.958 74.67C127.958 74.3967 127.848 74.2033 127.628 74.09C127.415 73.9767 127.158 73.89 126.858 73.83L126.168 73.69C125.928 73.6367 125.705 73.5633 125.498 73.47C125.292 73.37 125.125 73.23 124.998 73.05C124.872 72.87 124.808 72.63 124.808 72.33C124.808 72.03 124.902 71.78 125.088 71.58C125.275 71.3733 125.512 71.2167 125.798 71.11C126.092 71.0033 126.398 70.95 126.718 70.95C127.112 70.95 127.482 71.0333 127.828 71.2C128.182 71.36 128.432 71.6133 128.578 71.96L127.788 72.25C127.702 72.05 127.548 71.9033 127.328 71.81C127.115 71.71 126.892 71.66 126.658 71.66C126.405 71.66 126.175 71.7167 125.968 71.83C125.762 71.9433 125.658 72.1067 125.658 72.32C125.658 72.5333 125.745 72.69 125.918 72.79C126.098 72.8833 126.318 72.9567 126.578 73.01L127.228 73.14C127.495 73.1933 127.748 73.27 127.988 73.37C128.228 73.47 128.425 73.62 128.578 73.82C128.732 74.0133 128.808 74.2867 128.808 74.64C128.808 74.9533 128.712 75.22 128.518 75.44C128.325 75.66 128.075 75.83 127.768 75.95C127.462 76.0633 127.135 76.12 126.788 76.12ZM134.118 76C133.805 76 133.562 75.97 133.388 75.91C133.222 75.8433 133.105 75.72 133.038 75.54C132.978 75.36 132.948 75.1 132.948 74.76V71.71H132.108V71.04H132.948V69.79H133.788V71.04H134.748V71.71H133.788V74.62C133.788 74.8733 133.812 75.0433 133.858 75.13C133.912 75.2167 134.058 75.26 134.298 75.26H134.748V76H134.118ZM135.85 76V69.32H136.69V71.79C136.83 71.5567 137.027 71.36 137.28 71.2C137.534 71.04 137.87 70.96 138.29 70.96C138.89 70.96 139.314 71.1367 139.56 71.49C139.807 71.8367 139.93 72.2933 139.93 72.86V76H139.09V73.11C139.09 72.8567 139.067 72.6233 139.02 72.41C138.974 72.19 138.87 72.0133 138.71 71.88C138.557 71.7467 138.32 71.68 138 71.68C137.594 71.68 137.274 71.82 137.04 72.1C136.807 72.3733 136.69 72.7767 136.69 73.31V76H135.85ZM143.312 76.12C142.792 76.12 142.352 76.0067 141.992 75.78C141.632 75.5467 141.355 75.2367 141.162 74.85C140.975 74.4567 140.882 74.0167 140.882 73.53C140.882 73.0033 140.989 72.55 141.202 72.17C141.415 71.7833 141.702 71.4867 142.062 71.28C142.429 71.0667 142.839 70.96 143.292 70.96C143.685 70.96 144.032 71.04 144.332 71.2C144.632 71.3533 144.879 71.5633 145.072 71.83C145.272 72.09 145.415 72.3867 145.502 72.72C145.595 73.0533 145.629 73.3967 145.602 73.75H141.782C141.795 74.1633 141.885 74.49 142.052 74.73C142.225 74.97 142.429 75.14 142.662 75.24C142.895 75.3333 143.112 75.38 143.312 75.38C143.592 75.38 143.825 75.3367 144.012 75.25C144.205 75.1567 144.359 75.0367 144.472 74.89L145.282 75.13C145.102 75.4167 144.845 75.6533 144.512 75.84C144.179 76.0267 143.779 76.12 143.312 76.12ZM141.792 73.08H144.712C144.712 72.8467 144.652 72.6233 144.532 72.41C144.419 72.1967 144.255 72.0233 144.042 71.89C143.835 71.75 143.585 71.68 143.292 71.68C143.045 71.68 142.812 71.7267 142.592 71.82C142.372 71.9133 142.189 72.0633 142.042 72.27C141.902 72.4767 141.819 72.7467 141.792 73.08ZM150.785 76.12C150.472 76.12 150.185 76.0633 149.925 75.95C149.665 75.8367 149.459 75.6733 149.305 75.46C149.152 75.2467 149.075 74.99 149.075 74.69C149.075 74.2967 149.212 73.9867 149.485 73.76C149.765 73.5333 150.155 73.36 150.655 73.24C151.162 73.1133 151.752 73.0133 152.425 72.94C152.439 72.52 152.355 72.1967 152.175 71.97C151.995 71.7433 151.705 71.63 151.305 71.63C151.005 71.63 150.759 71.7 150.565 71.84C150.379 71.9733 150.259 72.16 150.205 72.4L149.395 72.16C149.529 71.78 149.765 71.4867 150.105 71.28C150.452 71.0667 150.849 70.96 151.295 70.96C151.982 70.96 152.482 71.1233 152.795 71.45C153.115 71.77 153.275 72.2767 153.275 72.97V74.13C153.275 74.5433 153.292 74.9 153.325 75.2C153.359 75.5 153.399 75.7667 153.445 76H152.675L152.475 75.32C152.329 75.5667 152.119 75.7633 151.845 75.91C151.572 76.05 151.219 76.12 150.785 76.12ZM150.965 75.45C151.225 75.45 151.472 75.4033 151.705 75.31C151.939 75.2167 152.129 75.06 152.275 74.84C152.422 74.6133 152.495 74.3067 152.495 73.92V73.61C151.989 73.6633 151.549 73.73 151.175 73.81C150.802 73.8833 150.512 73.99 150.305 74.13C150.105 74.2633 150.005 74.4433 150.005 74.67C150.005 74.9033 150.089 75.0933 150.255 75.24C150.429 75.38 150.665 75.45 150.965 75.45ZM154.659 76V71.04H155.279L155.499 71.79C155.639 71.5567 155.829 71.36 156.069 71.2C156.316 71.04 156.622 70.96 156.989 70.96C157.369 70.96 157.676 71.0367 157.909 71.19C158.142 71.3433 158.312 71.5567 158.419 71.83C158.619 71.5233 158.859 71.3033 159.139 71.17C159.426 71.03 159.742 70.96 160.089 70.96C160.662 70.96 161.072 71.1367 161.319 71.49C161.566 71.8367 161.689 72.2933 161.689 72.86V76H160.849V73.11C160.849 72.8567 160.822 72.6233 160.769 72.41C160.722 72.19 160.622 72.0133 160.469 71.88C160.322 71.7467 160.096 71.68 159.789 71.68C159.429 71.68 159.139 71.82 158.919 72.1C158.706 72.3733 158.599 72.7767 158.599 73.31V76H157.759V73.11C157.759 72.8567 157.732 72.6233 157.679 72.41C157.632 72.19 157.532 72.0133 157.379 71.88C157.232 71.7467 157.006 71.68 156.699 71.68C156.339 71.68 156.049 71.82 155.829 72.1C155.609 72.3733 155.499 72.7767 155.499 73.31V76H154.659ZM165.02 76.12C164.733 76.12 164.45 76.07 164.17 75.97C163.89 75.87 163.633 75.7167 163.4 75.51C163.173 75.2967 162.99 75.0267 162.85 74.7C162.71 74.3733 162.64 73.9867 162.64 73.54C162.64 73.0933 162.71 72.7067 162.85 72.38C162.99 72.0533 163.173 71.7867 163.4 71.58C163.633 71.3667 163.89 71.21 164.17 71.11C164.45 71.01 164.733 70.96 165.02 70.96C165.306 70.96 165.59 71.01 165.87 71.11C166.156 71.21 166.413 71.3667 166.64 71.58C166.873 71.7867 167.056 72.0533 167.19 72.38C167.33 72.7067 167.4 73.0933 167.4 73.54C167.4 73.9867 167.33 74.3733 167.19 74.7C167.056 75.0267 166.873 75.2967 166.64 75.51C166.413 75.7167 166.156 75.87 165.87 75.97C165.59 76.07 165.306 76.12 165.02 76.12ZM165.02 75.38C165.26 75.38 165.493 75.3167 165.72 75.19C165.946 75.0567 166.133 74.8567 166.28 74.59C166.426 74.3167 166.5 73.9667 166.5 73.54C166.5 73.1133 166.426 72.7667 166.28 72.5C166.133 72.2267 165.946 72.0267 165.72 71.9C165.493 71.7667 165.26 71.7 165.02 71.7C164.786 71.7 164.553 71.7667 164.32 71.9C164.093 72.0267 163.906 72.2267 163.76 72.5C163.613 72.7667 163.54 73.1133 163.54 73.54C163.54 73.9667 163.613 74.3167 163.76 74.59C163.906 74.8567 164.093 75.0567 164.32 75.19C164.553 75.3167 164.786 75.38 165.02 75.38ZM170.047 76.12C169.661 76.12 169.351 76.04 169.117 75.88C168.884 75.7133 168.714 75.4867 168.607 75.2C168.507 74.9067 168.457 74.5733 168.457 74.2V71.03H169.297V74C169.297 74.3667 169.341 74.65 169.427 74.85C169.514 75.05 169.634 75.19 169.787 75.27C169.947 75.3433 170.131 75.38 170.337 75.38C170.731 75.38 171.037 75.2433 171.257 74.97C171.484 74.69 171.597 74.2867 171.597 73.76V71.03H172.437V76H171.807L171.597 75.28C171.457 75.52 171.267 75.72 171.027 75.88C170.787 76.04 170.461 76.12 170.047 76.12ZM173.839 76V71.04H174.459L174.679 71.79C174.819 71.5567 175.015 71.36 175.269 71.2C175.522 71.04 175.859 70.96 176.279 70.96C176.879 70.96 177.302 71.1367 177.549 71.49C177.795 71.8367 177.919 72.2933 177.919 72.86V76H177.079V73.11C177.079 72.8567 177.055 72.6233 177.009 72.41C176.962 72.19 176.859 72.0133 176.699 71.88C176.545 71.7467 176.309 71.68 175.989 71.68C175.582 71.68 175.262 71.82 175.029 72.1C174.795 72.3733 174.679 72.7767 174.679 73.31V76H173.839ZM180.681 76C180.367 76 180.124 75.97 179.951 75.91C179.784 75.8433 179.667 75.72 179.601 75.54C179.541 75.36 179.511 75.1 179.511 74.76V71.71H178.671V71.04H179.511V69.79H180.351V71.04H181.311V71.71H180.351V74.62C180.351 74.8733 180.374 75.0433 180.421 75.13C180.474 75.2167 180.621 75.26 180.861 75.26H181.311V76H180.681ZM88.1936 88.12C87.9069 88.12 87.6236 88.07 87.3436 87.97C87.0636 87.87 86.8069 87.7167 86.5736 87.51C86.3469 87.2967 86.1636 87.0267 86.0236 86.7C85.8836 86.3733 85.8136 85.9867 85.8136 85.54C85.8136 85.0933 85.8836 84.7067 86.0236 84.38C86.1636 84.0533 86.3469 83.7867 86.5736 83.58C86.8069 83.3667 87.0636 83.21 87.3436 83.11C87.6236 83.01 87.9069 82.96 88.1936 82.96C88.4803 82.96 88.7636 83.01 89.0436 83.11C89.3303 83.21 89.5869 83.3667 89.8136 83.58C90.0469 83.7867 90.2303 84.0533 90.3636 84.38C90.5036 84.7067 90.5736 85.0933 90.5736 85.54C90.5736 85.9867 90.5036 86.3733 90.3636 86.7C90.2303 87.0267 90.0469 87.2967 89.8136 87.51C89.5869 87.7167 89.3303 87.87 89.0436 87.97C88.7636 88.07 88.4803 88.12 88.1936 88.12ZM88.1936 87.38C88.4336 87.38 88.6669 87.3167 88.8936 87.19C89.1203 87.0567 89.3069 86.8567 89.4536 86.59C89.6003 86.3167 89.6736 85.9667 89.6736 85.54C89.6736 85.1133 89.6003 84.7667 89.4536 84.5C89.3069 84.2267 89.1203 84.0267 88.8936 83.9C88.6669 83.7667 88.4336 83.7 88.1936 83.7C87.9603 83.7 87.7269 83.7667 87.4936 83.9C87.2669 84.0267 87.0803 84.2267 86.9336 84.5C86.7869 84.7667 86.7136 85.1133 86.7136 85.54C86.7136 85.9667 86.7869 86.3167 86.9336 86.59C87.0803 86.8567 87.2669 87.0567 87.4936 87.19C87.7269 87.3167 87.9603 87.38 88.1936 87.38ZM91.9412 88V83.71H91.1012V83.04H91.9412V82.3C91.9412 81.96 91.9745 81.69 92.0412 81.49C92.1078 81.29 92.2378 81.15 92.4312 81.07C92.6245 80.9833 92.9045 80.94 93.2712 80.94H93.8112V81.65H93.2912C93.0778 81.65 92.9378 81.6933 92.8712 81.78C92.8112 81.8667 92.7812 82.0367 92.7812 82.29V83.04H93.8112V83.71H92.7812V88H91.9412ZM98.9494 88.12C98.636 88.12 98.3494 88.0633 98.0894 87.95C97.8294 87.8367 97.6227 87.6733 97.4694 87.46C97.316 87.2467 97.2394 86.99 97.2394 86.69C97.2394 86.2967 97.376 85.9867 97.6494 85.76C97.9294 85.5333 98.3194 85.36 98.8194 85.24C99.326 85.1133 99.916 85.0133 100.589 84.94C100.603 84.52 100.519 84.1967 100.339 83.97C100.159 83.7433 99.8694 83.63 99.4694 83.63C99.1694 83.63 98.9227 83.7 98.7294 83.84C98.5427 83.9733 98.4227 84.16 98.3694 84.4L97.5594 84.16C97.6927 83.78 97.9294 83.4867 98.2694 83.28C98.616 83.0667 99.0127 82.96 99.4594 82.96C100.146 82.96 100.646 83.1233 100.959 83.45C101.279 83.77 101.439 84.2767 101.439 84.97V86.13C101.439 86.5433 101.456 86.9 101.489 87.2C101.523 87.5 101.563 87.7667 101.609 88H100.839L100.639 87.32C100.493 87.5667 100.283 87.7633 100.009 87.91C99.736 88.05 99.3827 88.12 98.9494 88.12ZM99.1294 87.45C99.3894 87.45 99.636 87.4033 99.8694 87.31C100.103 87.2167 100.293 87.06 100.439 86.84C100.586 86.6133 100.659 86.3067 100.659 85.92V85.61C100.153 85.6633 99.7127 85.73 99.3394 85.81C98.966 85.8833 98.676 85.99 98.4694 86.13C98.2694 86.2633 98.1694 86.4433 98.1694 86.67C98.1694 86.9033 98.2527 87.0933 98.4194 87.24C98.5927 87.38 98.8294 87.45 99.1294 87.45ZM104.513 88.12C104.226 88.12 103.943 88.0767 103.663 87.99C103.39 87.8967 103.143 87.76 102.923 87.58C102.71 87.3933 102.546 87.16 102.433 86.88L103.243 86.58C103.316 86.8733 103.476 87.0867 103.723 87.22C103.976 87.3467 104.24 87.41 104.513 87.41C104.713 87.41 104.9 87.38 105.073 87.32C105.253 87.26 105.4 87.1733 105.513 87.06C105.626 86.9467 105.683 86.8167 105.683 86.67C105.683 86.3967 105.573 86.2033 105.353 86.09C105.14 85.9767 104.883 85.89 104.583 85.83L103.893 85.69C103.653 85.6367 103.43 85.5633 103.223 85.47C103.016 85.37 102.85 85.23 102.723 85.05C102.596 84.87 102.533 84.63 102.533 84.33C102.533 84.03 102.626 83.78 102.813 83.58C103 83.3733 103.236 83.2167 103.523 83.11C103.816 83.0033 104.123 82.95 104.443 82.95C104.836 82.95 105.206 83.0333 105.553 83.2C105.906 83.36 106.156 83.6133 106.303 83.96L105.513 84.25C105.426 84.05 105.273 83.9033 105.053 83.81C104.84 83.71 104.616 83.66 104.383 83.66C104.13 83.66 103.9 83.7167 103.693 83.83C103.486 83.9433 103.383 84.1067 103.383 84.32C103.383 84.5333 103.47 84.69 103.643 84.79C103.823 84.8833 104.043 84.9567 104.303 85.01L104.953 85.14C105.22 85.1933 105.473 85.27 105.713 85.37C105.953 85.47 106.15 85.62 106.303 85.82C106.456 86.0133 106.533 86.2867 106.533 86.64C106.533 86.9533 106.436 87.22 106.243 87.44C106.05 87.66 105.8 87.83 105.493 87.95C105.186 88.0633 104.86 88.12 104.513 88.12ZM109.22 88.12C108.933 88.12 108.65 88.0767 108.37 87.99C108.097 87.8967 107.85 87.76 107.63 87.58C107.417 87.3933 107.253 87.16 107.14 86.88L107.95 86.58C108.023 86.8733 108.183 87.0867 108.43 87.22C108.683 87.3467 108.947 87.41 109.22 87.41C109.42 87.41 109.607 87.38 109.78 87.32C109.96 87.26 110.107 87.1733 110.22 87.06C110.333 86.9467 110.39 86.8167 110.39 86.67C110.39 86.3967 110.28 86.2033 110.06 86.09C109.847 85.9767 109.59 85.89 109.29 85.83L108.6 85.69C108.36 85.6367 108.137 85.5633 107.93 85.47C107.723 85.37 107.557 85.23 107.43 85.05C107.303 84.87 107.24 84.63 107.24 84.33C107.24 84.03 107.333 83.78 107.52 83.58C107.707 83.3733 107.943 83.2167 108.23 83.11C108.523 83.0033 108.83 82.95 109.15 82.95C109.543 82.95 109.913 83.0333 110.26 83.2C110.613 83.36 110.863 83.6133 111.01 83.96L110.22 84.25C110.133 84.05 109.98 83.9033 109.76 83.81C109.547 83.71 109.323 83.66 109.09 83.66C108.837 83.66 108.607 83.7167 108.4 83.83C108.193 83.9433 108.09 84.1067 108.09 84.32C108.09 84.5333 108.177 84.69 108.35 84.79C108.53 84.8833 108.75 84.9567 109.01 85.01L109.66 85.14C109.927 85.1933 110.18 85.27 110.42 85.37C110.66 85.47 110.857 85.62 111.01 85.82C111.163 86.0133 111.24 86.2867 111.24 86.64C111.24 86.9533 111.143 87.22 110.95 87.44C110.757 87.66 110.507 87.83 110.2 87.95C109.893 88.0633 109.567 88.12 109.22 88.12ZM114.297 88.12C114.01 88.12 113.727 88.07 113.447 87.97C113.167 87.87 112.91 87.7167 112.677 87.51C112.45 87.2967 112.267 87.0267 112.127 86.7C111.987 86.3733 111.917 85.9867 111.917 85.54C111.917 85.0933 111.987 84.7067 112.127 84.38C112.267 84.0533 112.45 83.7867 112.677 83.58C112.91 83.3667 113.167 83.21 113.447 83.11C113.727 83.01 114.01 82.96 114.297 82.96C114.584 82.96 114.867 83.01 115.147 83.11C115.434 83.21 115.69 83.3667 115.917 83.58C116.15 83.7867 116.334 84.0533 116.467 84.38C116.607 84.7067 116.677 85.0933 116.677 85.54C116.677 85.9867 116.607 86.3733 116.467 86.7C116.334 87.0267 116.15 87.2967 115.917 87.51C115.69 87.7167 115.434 87.87 115.147 87.97C114.867 88.07 114.584 88.12 114.297 88.12ZM114.297 87.38C114.537 87.38 114.77 87.3167 114.997 87.19C115.224 87.0567 115.41 86.8567 115.557 86.59C115.704 86.3167 115.777 85.9667 115.777 85.54C115.777 85.1133 115.704 84.7667 115.557 84.5C115.41 84.2267 115.224 84.0267 114.997 83.9C114.77 83.7667 114.537 83.7 114.297 83.7C114.064 83.7 113.83 83.7667 113.597 83.9C113.37 84.0267 113.184 84.2267 113.037 84.5C112.89 84.7667 112.817 85.1133 112.817 85.54C112.817 85.9667 112.89 86.3167 113.037 86.59C113.184 86.8567 113.37 87.0567 113.597 87.19C113.83 87.3167 114.064 87.38 114.297 87.38ZM119.745 88.12C119.271 88.12 118.861 88.01 118.515 87.79C118.168 87.5633 117.901 87.2567 117.715 86.87C117.528 86.4833 117.435 86.04 117.435 85.54C117.435 85.0467 117.531 84.6067 117.725 84.22C117.925 83.8267 118.205 83.52 118.565 83.3C118.925 83.0733 119.348 82.96 119.835 82.96C120.281 82.96 120.665 83.07 120.985 83.29C121.305 83.51 121.545 83.7733 121.705 84.08L120.935 84.36C120.828 84.16 120.671 84 120.465 83.88C120.258 83.76 120.028 83.7 119.775 83.7C119.528 83.7 119.295 83.7667 119.075 83.9C118.855 84.0267 118.678 84.2267 118.545 84.5C118.411 84.7667 118.345 85.11 118.345 85.53C118.345 85.9433 118.411 86.29 118.545 86.57C118.685 86.8433 118.861 87.0467 119.075 87.18C119.295 87.3133 119.528 87.38 119.775 87.38C120.048 87.38 120.285 87.32 120.485 87.2C120.691 87.0733 120.848 86.9167 120.955 86.73L121.725 87.01C121.538 87.33 121.271 87.5967 120.925 87.81C120.578 88.0167 120.185 88.12 119.745 88.12ZM123.615 82.1C123.448 82.1 123.301 82.04 123.175 81.92C123.055 81.7933 122.995 81.6433 122.995 81.47C122.995 81.2967 123.055 81.15 123.175 81.03C123.301 80.91 123.448 80.85 123.615 80.85C123.788 80.85 123.935 80.91 124.055 81.03C124.181 81.15 124.245 81.2967 124.245 81.47C124.245 81.6433 124.181 81.7933 124.055 81.92C123.935 82.04 123.788 82.1 123.615 82.1ZM123.195 88V83.71H122.505V83.04H124.035V88H123.195ZM126.928 88.12C126.615 88.12 126.328 88.0633 126.068 87.95C125.808 87.8367 125.601 87.6733 125.448 87.46C125.295 87.2467 125.218 86.99 125.218 86.69C125.218 86.2967 125.355 85.9867 125.628 85.76C125.908 85.5333 126.298 85.36 126.798 85.24C127.305 85.1133 127.895 85.0133 128.568 84.94C128.581 84.52 128.498 84.1967 128.318 83.97C128.138 83.7433 127.848 83.63 127.448 83.63C127.148 83.63 126.901 83.7 126.708 83.84C126.521 83.9733 126.401 84.16 126.348 84.4L125.538 84.16C125.671 83.78 125.908 83.4867 126.248 83.28C126.595 83.0667 126.991 82.96 127.438 82.96C128.125 82.96 128.625 83.1233 128.938 83.45C129.258 83.77 129.418 84.2767 129.418 84.97V86.13C129.418 86.5433 129.435 86.9 129.468 87.2C129.501 87.5 129.541 87.7667 129.588 88H128.818L128.618 87.32C128.471 87.5667 128.261 87.7633 127.988 87.91C127.715 88.05 127.361 88.12 126.928 88.12ZM127.108 87.45C127.368 87.45 127.615 87.4033 127.848 87.31C128.081 87.2167 128.271 87.06 128.418 86.84C128.565 86.6133 128.638 86.3067 128.638 85.92V85.61C128.131 85.6633 127.691 85.73 127.318 85.81C126.945 85.8833 126.655 85.99 126.448 86.13C126.248 86.2633 126.148 86.4433 126.148 86.67C126.148 86.9033 126.231 87.0933 126.398 87.24C126.571 87.38 126.808 87.45 127.108 87.45ZM132.312 88C131.998 88 131.755 87.97 131.582 87.91C131.415 87.8433 131.298 87.72 131.232 87.54C131.172 87.36 131.142 87.1 131.142 86.76V83.71H130.302V83.04H131.142V81.79H131.982V83.04H132.942V83.71H131.982V86.62C131.982 86.8733 132.005 87.0433 132.052 87.13C132.105 87.2167 132.252 87.26 132.492 87.26H132.942V88H132.312ZM136.154 88.12C135.634 88.12 135.194 88.0067 134.834 87.78C134.474 87.5467 134.197 87.2367 134.004 86.85C133.817 86.4567 133.724 86.0167 133.724 85.53C133.724 85.0033 133.83 84.55 134.044 84.17C134.257 83.7833 134.544 83.4867 134.904 83.28C135.27 83.0667 135.68 82.96 136.134 82.96C136.527 82.96 136.874 83.04 137.174 83.2C137.474 83.3533 137.72 83.5633 137.914 83.83C138.114 84.09 138.257 84.3867 138.344 84.72C138.437 85.0533 138.47 85.3967 138.444 85.75H134.624C134.637 86.1633 134.727 86.49 134.894 86.73C135.067 86.97 135.27 87.14 135.504 87.24C135.737 87.3333 135.954 87.38 136.154 87.38C136.434 87.38 136.667 87.3367 136.854 87.25C137.047 87.1567 137.2 87.0367 137.314 86.89L138.124 87.13C137.944 87.4167 137.687 87.6533 137.354 87.84C137.02 88.0267 136.62 88.12 136.154 88.12ZM134.634 85.08H137.554C137.554 84.8467 137.494 84.6233 137.374 84.41C137.26 84.1967 137.097 84.0233 136.884 83.89C136.677 83.75 136.427 83.68 136.134 83.68C135.887 83.68 135.654 83.7267 135.434 83.82C135.214 83.9133 135.03 84.0633 134.884 84.27C134.744 84.4767 134.66 84.7467 134.634 85.08ZM141.244 88.12C140.871 88.12 140.521 88.02 140.194 87.82C139.868 87.6133 139.604 87.32 139.404 86.94C139.211 86.5533 139.114 86.0867 139.114 85.54C139.114 84.9933 139.211 84.53 139.404 84.15C139.604 83.7633 139.868 83.47 140.194 83.27C140.521 83.0633 140.871 82.96 141.244 82.96C141.638 82.96 141.968 83.04 142.234 83.2C142.501 83.3533 142.708 83.56 142.854 83.82V81.32H143.694V86.13C143.694 86.2967 143.701 86.5433 143.714 86.87C143.728 87.19 143.778 87.5667 143.864 88H143.074L142.854 87.25C142.708 87.5167 142.501 87.73 142.234 87.89C141.968 88.0433 141.638 88.12 141.244 88.12ZM141.464 87.4C141.891 87.4 142.231 87.2367 142.484 86.91C142.744 86.5833 142.874 86.1267 142.874 85.54C142.874 84.9467 142.744 84.49 142.484 84.17C142.231 83.8433 141.891 83.68 141.464 83.68C141.038 83.68 140.694 83.8433 140.434 84.17C140.181 84.49 140.054 84.9467 140.054 85.54C140.054 86.1267 140.181 86.5833 140.434 86.91C140.694 87.2367 141.038 87.4 141.464 87.4ZM149.272 88.12C148.958 88.12 148.672 88.0633 148.412 87.95C148.152 87.8367 147.945 87.6733 147.792 87.46C147.638 87.2467 147.562 86.99 147.562 86.69C147.562 86.2967 147.698 85.9867 147.972 85.76C148.252 85.5333 148.642 85.36 149.142 85.24C149.648 85.1133 150.238 85.0133 150.912 84.94C150.925 84.52 150.842 84.1967 150.662 83.97C150.482 83.7433 150.192 83.63 149.792 83.63C149.492 83.63 149.245 83.7 149.052 83.84C148.865 83.9733 148.745 84.16 148.692 84.4L147.882 84.16C148.015 83.78 148.252 83.4867 148.592 83.28C148.938 83.0667 149.335 82.96 149.782 82.96C150.468 82.96 150.968 83.1233 151.282 83.45C151.602 83.77 151.762 84.2767 151.762 84.97V86.13C151.762 86.5433 151.778 86.9 151.812 87.2C151.845 87.5 151.885 87.7667 151.932 88H151.162L150.962 87.32C150.815 87.5667 150.605 87.7633 150.332 87.91C150.058 88.05 149.705 88.12 149.272 88.12ZM149.452 87.45C149.712 87.45 149.958 87.4033 150.192 87.31C150.425 87.2167 150.615 87.06 150.762 86.84C150.908 86.6133 150.982 86.3067 150.982 85.92V85.61C150.475 85.6633 150.035 85.73 149.662 85.81C149.288 85.8833 148.998 85.99 148.792 86.13C148.592 86.2633 148.492 86.4433 148.492 86.67C148.492 86.9033 148.575 87.0933 148.742 87.24C148.915 87.38 149.152 87.45 149.452 87.45ZM153.145 88V83.04H153.755L154.025 83.96C154.199 83.66 154.432 83.42 154.725 83.24C155.025 83.0533 155.382 82.96 155.795 82.96V83.83C155.749 83.83 155.699 83.83 155.645 83.83C155.599 83.83 155.552 83.8333 155.505 83.84C154.939 83.8867 154.542 84.0833 154.315 84.43C154.095 84.7767 153.985 85.2567 153.985 85.87V88H153.145ZM158.21 88C157.897 88 157.653 87.97 157.48 87.91C157.313 87.8433 157.197 87.72 157.13 87.54C157.07 87.36 157.04 87.1 157.04 86.76V83.71H156.2V83.04H157.04V81.79H157.88V83.04H158.84V83.71H157.88V86.62C157.88 86.8733 157.903 87.0433 157.95 87.13C158.003 87.2167 158.15 87.26 158.39 87.26H158.84V88H158.21ZM160.802 82.1C160.636 82.1 160.489 82.04 160.362 81.92C160.242 81.7933 160.182 81.6433 160.182 81.47C160.182 81.2967 160.242 81.15 160.362 81.03C160.489 80.91 160.636 80.85 160.802 80.85C160.976 80.85 161.122 80.91 161.242 81.03C161.369 81.15 161.432 81.2967 161.432 81.47C161.432 81.6433 161.369 81.7933 161.242 81.92C161.122 82.04 160.976 82.1 160.802 82.1ZM160.382 88V83.71H159.692V83.04H161.222V88H160.382ZM164.715 88.12C164.242 88.12 163.832 88.01 163.485 87.79C163.139 87.5633 162.872 87.2567 162.685 86.87C162.499 86.4833 162.405 86.04 162.405 85.54C162.405 85.0467 162.502 84.6067 162.695 84.22C162.895 83.8267 163.175 83.52 163.535 83.3C163.895 83.0733 164.319 82.96 164.805 82.96C165.252 82.96 165.635 83.07 165.955 83.29C166.275 83.51 166.515 83.7733 166.675 84.08L165.905 84.36C165.799 84.16 165.642 84 165.435 83.88C165.229 83.76 164.999 83.7 164.745 83.7C164.499 83.7 164.265 83.7667 164.045 83.9C163.825 84.0267 163.649 84.2267 163.515 84.5C163.382 84.7667 163.315 85.11 163.315 85.53C163.315 85.9433 163.382 86.29 163.515 86.57C163.655 86.8433 163.832 87.0467 164.045 87.18C164.265 87.3133 164.499 87.38 164.745 87.38C165.019 87.38 165.255 87.32 165.455 87.2C165.662 87.0733 165.819 86.9167 165.925 86.73L166.695 87.01C166.509 87.33 166.242 87.5967 165.895 87.81C165.549 88.0167 165.155 88.12 164.715 88.12ZM168.895 88C168.582 88 168.339 87.97 168.165 87.91C167.999 87.8433 167.882 87.72 167.815 87.54C167.755 87.36 167.725 87.1 167.725 86.76V81.33H168.565V86.62C168.565 86.8733 168.592 87.0433 168.645 87.13C168.699 87.2167 168.842 87.26 169.075 87.26H169.265V88H168.895ZM172.228 88.12C171.708 88.12 171.268 88.0067 170.908 87.78C170.548 87.5467 170.271 87.2367 170.078 86.85C169.891 86.4567 169.798 86.0167 169.798 85.53C169.798 85.0033 169.905 84.55 170.118 84.17C170.331 83.7833 170.618 83.4867 170.978 83.28C171.345 83.0667 171.755 82.96 172.208 82.96C172.601 82.96 172.948 83.04 173.248 83.2C173.548 83.3533 173.795 83.5633 173.988 83.83C174.188 84.09 174.331 84.3867 174.418 84.72C174.511 85.0533 174.545 85.3967 174.518 85.75H170.698C170.711 86.1633 170.801 86.49 170.968 86.73C171.141 86.97 171.345 87.14 171.578 87.24C171.811 87.3333 172.028 87.38 172.228 87.38C172.508 87.38 172.741 87.3367 172.928 87.25C173.121 87.1567 173.275 87.0367 173.388 86.89L174.198 87.13C174.018 87.4167 173.761 87.6533 173.428 87.84C173.095 88.0267 172.695 88.12 172.228 88.12ZM170.708 85.08H173.628C173.628 84.8467 173.568 84.6233 173.448 84.41C173.335 84.1967 173.171 84.0233 172.958 83.89C172.751 83.75 172.501 83.68 172.208 83.68C171.961 83.68 171.728 83.7267 171.508 83.82C171.288 83.9133 171.105 84.0633 170.958 84.27C170.818 84.4767 170.735 84.7467 170.708 85.08ZM177.199 88.12C176.912 88.12 176.629 88.0767 176.349 87.99C176.075 87.8967 175.829 87.76 175.609 87.58C175.395 87.3933 175.232 87.16 175.119 86.88L175.929 86.58C176.002 86.8733 176.162 87.0867 176.409 87.22C176.662 87.3467 176.925 87.41 177.199 87.41C177.399 87.41 177.585 87.38 177.759 87.32C177.939 87.26 178.085 87.1733 178.199 87.06C178.312 86.9467 178.369 86.8167 178.369 86.67C178.369 86.3967 178.259 86.2033 178.039 86.09C177.825 85.9767 177.569 85.89 177.269 85.83L176.579 85.69C176.339 85.6367 176.115 85.5633 175.909 85.47C175.702 85.37 175.535 85.23 175.409 85.05C175.282 84.87 175.219 84.63 175.219 84.33C175.219 84.03 175.312 83.78 175.499 83.58C175.685 83.3733 175.922 83.2167 176.209 83.11C176.502 83.0033 176.809 82.95 177.129 82.95C177.522 82.95 177.892 83.0333 178.239 83.2C178.592 83.36 178.842 83.6133 178.989 83.96L178.199 84.25C178.112 84.05 177.959 83.9033 177.739 83.81C177.525 83.71 177.302 83.66 177.069 83.66C176.815 83.66 176.585 83.7167 176.379 83.83C176.172 83.9433 176.069 84.1067 176.069 84.32C176.069 84.5333 176.155 84.69 176.329 84.79C176.509 84.8833 176.729 84.9567 176.989 85.01L177.639 85.14C177.905 85.1933 178.159 85.27 178.399 85.37C178.639 85.47 178.835 85.62 178.989 85.82C179.142 86.0133 179.219 86.2867 179.219 86.64C179.219 86.9533 179.122 87.22 178.929 87.44C178.735 87.66 178.485 87.83 178.179 87.95C177.872 88.0633 177.545 88.12 177.199 88.12ZM180.536 88.12C180.362 88.12 180.212 88.0567 180.086 87.93C179.959 87.8033 179.896 87.6533 179.896 87.48C179.896 87.3 179.959 87.1467 180.086 87.02C180.212 86.8933 180.362 86.83 180.536 86.83C180.716 86.83 180.869 86.8933 180.996 87.02C181.122 87.1467 181.186 87.3 181.186 87.48C181.186 87.6533 181.122 87.8033 180.996 87.93C180.869 88.0567 180.716 88.12 180.536 88.12Z" fill="black"/>
<circle cx="31.5" cy="28.5" r="17" fill="#FCF4E9" stroke="black"/>
<path d="M12.0004 64L14.5104 57.31H15.5604L18.0604 64H17.0604L16.5504 62.54H13.5104L13.0004 64H12.0004ZM13.8004 61.73H16.2604L15.0304 58.26L13.8004 61.73ZM24.1129 64.12C23.7262 64.12 23.3996 64.0433 23.1329 63.89C22.8662 63.73 22.6562 63.5167 22.5029 63.25L22.2829 64H21.6629V57.32H22.5029V59.82C22.6562 59.56 22.8662 59.3533 23.1329 59.2C23.3996 59.04 23.7262 58.96 24.1129 58.96C24.4929 58.96 24.8429 59.0633 25.1629 59.27C25.4896 59.47 25.7496 59.7633 25.9429 60.15C26.1429 60.53 26.2429 60.9933 26.2429 61.54C26.2429 62.0867 26.1429 62.5533 25.9429 62.94C25.7496 63.32 25.4896 63.6133 25.1629 63.82C24.8429 64.02 24.4929 64.12 24.1129 64.12ZM23.8929 63.4C24.3196 63.4 24.6596 63.2367 24.9129 62.91C25.1729 62.5833 25.3029 62.1267 25.3029 61.54C25.3029 60.9467 25.1729 60.49 24.9129 60.17C24.6596 59.8433 24.3196 59.68 23.8929 59.68C23.4662 59.68 23.1229 59.8433 22.8629 60.17C22.6096 60.49 22.4829 60.9467 22.4829 61.54C22.4829 62.1267 22.6096 62.5833 22.8629 62.91C23.1229 63.2367 23.4662 63.4 23.8929 63.4ZM28.897 64.12C28.5103 64.12 28.2003 64.04 27.967 63.88C27.7336 63.7133 27.5636 63.4867 27.457 63.2C27.357 62.9067 27.307 62.5733 27.307 62.2V59.03H28.147V62C28.147 62.3667 28.1903 62.65 28.277 62.85C28.3636 63.05 28.4836 63.19 28.637 63.27C28.797 63.3433 28.9803 63.38 29.187 63.38C29.5803 63.38 29.887 63.2433 30.107 62.97C30.3336 62.69 30.447 62.2867 30.447 61.76V59.03H31.287V64H30.657L30.447 63.28C30.307 63.52 30.117 63.72 29.877 63.88C29.637 64.04 29.3103 64.12 28.897 64.12ZM35.1383 64.12C34.7516 64.12 34.4249 64.0433 34.1583 63.89C33.8916 63.73 33.6816 63.5167 33.5283 63.25L33.3083 64H32.6883V57.32H33.5283V59.82C33.6816 59.56 33.8916 59.3533 34.1583 59.2C34.4249 59.04 34.7516 58.96 35.1383 58.96C35.5183 58.96 35.8683 59.0633 36.1883 59.27C36.5149 59.47 36.7749 59.7633 36.9683 60.15C37.1683 60.53 37.2683 60.9933 37.2683 61.54C37.2683 62.0867 37.1683 62.5533 36.9683 62.94C36.7749 63.32 36.5149 63.6133 36.1883 63.82C35.8683 64.02 35.5183 64.12 35.1383 64.12ZM34.9183 63.4C35.3449 63.4 35.6849 63.2367 35.9383 62.91C36.1983 62.5833 36.3283 62.1267 36.3283 61.54C36.3283 60.9467 36.1983 60.49 35.9383 60.17C35.6849 59.8433 35.3449 59.68 34.9183 59.68C34.4916 59.68 34.1483 59.8433 33.8883 60.17C33.6349 60.49 33.5083 60.9467 33.5083 61.54C33.5083 62.1267 33.6349 62.5833 33.8883 62.91C34.1483 63.2367 34.4916 63.4 34.9183 63.4ZM40.8023 64.12C40.4157 64.12 40.089 64.0433 39.8223 63.89C39.5557 63.73 39.3457 63.5167 39.1923 63.25L38.9723 64H38.3523V57.32H39.1923V59.82C39.3457 59.56 39.5557 59.3533 39.8223 59.2C40.089 59.04 40.4157 58.96 40.8023 58.96C41.1823 58.96 41.5323 59.0633 41.8523 59.27C42.179 59.47 42.439 59.7633 42.6323 60.15C42.8323 60.53 42.9323 60.9933 42.9323 61.54C42.9323 62.0867 42.8323 62.5533 42.6323 62.94C42.439 63.32 42.179 63.6133 41.8523 63.82C41.5323 64.02 41.1823 64.12 40.8023 64.12ZM40.5823 63.4C41.009 63.4 41.349 63.2367 41.6023 62.91C41.8623 62.5833 41.9923 62.1267 41.9923 61.54C41.9923 60.9467 41.8623 60.49 41.6023 60.17C41.349 59.8433 41.009 59.68 40.5823 59.68C40.1557 59.68 39.8123 59.8433 39.5523 60.17C39.299 60.49 39.1723 60.9467 39.1723 61.54C39.1723 62.1267 39.299 62.5833 39.5523 62.91C39.8123 63.2367 40.1557 63.4 40.5823 63.4ZM45.1864 64C44.8731 64 44.6297 63.97 44.4564 63.91C44.2897 63.8433 44.1731 63.72 44.1064 63.54C44.0464 63.36 44.0164 63.1 44.0164 62.76V57.33H44.8564V62.62C44.8564 62.8733 44.8831 63.0433 44.9364 63.13C44.9897 63.2167 45.1331 63.26 45.3664 63.26H45.5564V64H45.1864ZM48.519 64.12C47.999 64.12 47.559 64.0067 47.199 63.78C46.839 63.5467 46.5623 63.2367 46.369 62.85C46.1823 62.4567 46.089 62.0167 46.089 61.53C46.089 61.0033 46.1957 60.55 46.409 60.17C46.6223 59.7833 46.909 59.4867 47.269 59.28C47.6357 59.0667 48.0457 58.96 48.499 58.96C48.8923 58.96 49.239 59.04 49.539 59.2C49.839 59.3533 50.0857 59.5633 50.279 59.83C50.479 60.09 50.6223 60.3867 50.709 60.72C50.8023 61.0533 50.8357 61.3967 50.809 61.75H46.989C47.0023 62.1633 47.0923 62.49 47.259 62.73C47.4323 62.97 47.6357 63.14 47.869 63.24C48.1023 63.3333 48.319 63.38 48.519 63.38C48.799 63.38 49.0323 63.3367 49.219 63.25C49.4123 63.1567 49.5657 63.0367 49.679 62.89L50.489 63.13C50.309 63.4167 50.0523 63.6533 49.719 63.84C49.3857 64.0267 48.9857 64.12 48.519 64.12ZM46.999 61.08H49.919C49.919 60.8467 49.859 60.6233 49.739 60.41C49.6257 60.1967 49.4623 60.0233 49.249 59.89C49.0423 59.75 48.7923 59.68 48.499 59.68C48.2523 59.68 48.019 59.7267 47.799 59.82C47.579 59.9133 47.3957 60.0633 47.249 60.27C47.109 60.4767 47.0257 60.7467 46.999 61.08ZM0.725391 76V71.04H1.33539L1.60539 71.96C1.77872 71.66 2.01206 71.42 2.30539 71.24C2.60539 71.0533 2.96206 70.96 3.37539 70.96V71.83C3.32872 71.83 3.27872 71.83 3.22539 71.83C3.17872 71.83 3.13206 71.8333 3.08539 71.84C2.51872 71.8867 2.12206 72.0833 1.89539 72.43C1.67539 72.7767 1.56539 73.2567 1.56539 73.87V76H0.725391ZM6.23383 76.12C5.71383 76.12 5.27383 76.0067 4.91383 75.78C4.55383 75.5467 4.27716 75.2367 4.08383 74.85C3.89716 74.4567 3.80383 74.0167 3.80383 73.53C3.80383 73.0033 3.91049 72.55 4.12383 72.17C4.33716 71.7833 4.62383 71.4867 4.98383 71.28C5.35049 71.0667 5.76049 70.96 6.21383 70.96C6.60716 70.96 6.95383 71.04 7.25383 71.2C7.55383 71.3533 7.8005 71.5633 7.99383 71.83C8.19383 72.09 8.33716 72.3867 8.42383 72.72C8.51716 73.0533 8.55049 73.3967 8.52383 73.75H4.70383C4.71716 74.1633 4.80716 74.49 4.97383 74.73C5.14716 74.97 5.35049 75.14 5.58383 75.24C5.81716 75.3333 6.03383 75.38 6.23383 75.38C6.51383 75.38 6.74716 75.3367 6.93383 75.25C7.12716 75.1567 7.2805 75.0367 7.39383 74.89L8.20383 75.13C8.02383 75.4167 7.76716 75.6533 7.43383 75.84C7.10049 76.0267 6.70049 76.12 6.23383 76.12ZM4.71383 73.08H7.63383C7.63383 72.8467 7.57383 72.6233 7.45383 72.41C7.34049 72.1967 7.17716 72.0233 6.96383 71.89C6.75716 71.75 6.50716 71.68 6.21383 71.68C5.96716 71.68 5.73383 71.7267 5.51383 71.82C5.29383 71.9133 5.11049 72.0633 4.96383 72.27C4.82383 72.4767 4.74049 72.7467 4.71383 73.08ZM9.51445 77.61V71.04H10.1245L10.3545 71.82C10.5078 71.56 10.7178 71.3533 10.9845 71.2C11.2511 71.04 11.5778 70.96 11.9645 70.96C12.3445 70.96 12.6945 71.0633 13.0145 71.27C13.3411 71.47 13.6011 71.7633 13.7945 72.15C13.9945 72.53 14.0945 72.9933 14.0945 73.54C14.0945 74.08 13.9945 74.5433 13.7945 74.93C13.6011 75.3167 13.3411 75.6133 13.0145 75.82C12.6945 76.02 12.3445 76.12 11.9645 76.12C11.5778 76.12 11.2511 76.0433 10.9845 75.89C10.7178 75.73 10.5078 75.5167 10.3545 75.25V77.61H9.51445ZM11.7445 75.4C12.1711 75.4 12.5111 75.2367 12.7645 74.91C13.0245 74.5833 13.1545 74.1267 13.1545 73.54C13.1545 72.9467 13.0245 72.49 12.7645 72.17C12.5111 71.8433 12.1711 71.68 11.7445 71.68C11.3178 71.68 10.9745 71.8433 10.7145 72.17C10.4611 72.49 10.3345 72.9467 10.3345 73.54C10.3345 74.1267 10.4611 74.5833 10.7145 74.91C10.9745 75.2367 11.3178 75.4 11.7445 75.4ZM15.1785 76V71.04H15.7885L16.0585 71.96C16.2318 71.66 16.4652 71.42 16.7585 71.24C17.0585 71.0533 17.4152 70.96 17.8285 70.96V71.83C17.7818 71.83 17.7318 71.83 17.6785 71.83C17.6318 71.83 17.5852 71.8333 17.5385 71.84C16.9718 71.8867 16.5752 72.0833 16.3485 72.43C16.1285 72.7767 16.0185 73.2567 16.0185 73.87V76H15.1785ZM20.687 76.12C20.167 76.12 19.727 76.0067 19.367 75.78C19.007 75.5467 18.7303 75.2367 18.537 74.85C18.3503 74.4567 18.257 74.0167 18.257 73.53C18.257 73.0033 18.3636 72.55 18.577 72.17C18.7903 71.7833 19.077 71.4867 19.437 71.28C19.8036 71.0667 20.2136 70.96 20.667 70.96C21.0603 70.96 21.407 71.04 21.707 71.2C22.007 71.3533 22.2536 71.5633 22.447 71.83C22.647 72.09 22.7903 72.3867 22.877 72.72C22.9703 73.0533 23.0036 73.3967 22.977 73.75H19.157C19.1703 74.1633 19.2603 74.49 19.427 74.73C19.6003 74.97 19.8036 75.14 20.037 75.24C20.2703 75.3333 20.487 75.38 20.687 75.38C20.967 75.38 21.2003 75.3367 21.387 75.25C21.5803 75.1567 21.7336 75.0367 21.847 74.89L22.657 75.13C22.477 75.4167 22.2203 75.6533 21.887 75.84C21.5536 76.0267 21.1536 76.12 20.687 76.12ZM19.167 73.08H22.087C22.087 72.8467 22.027 72.6233 21.907 72.41C21.7936 72.1967 21.6303 72.0233 21.417 71.89C21.2103 71.75 20.9603 71.68 20.667 71.68C20.4203 71.68 20.187 71.7267 19.967 71.82C19.747 71.9133 19.5636 72.0633 19.417 72.27C19.277 72.4767 19.1936 72.7467 19.167 73.08ZM25.6576 76.12C25.3709 76.12 25.0876 76.0767 24.8076 75.99C24.5342 75.8967 24.2876 75.76 24.0676 75.58C23.8542 75.3933 23.6909 75.16 23.5776 74.88L24.3876 74.58C24.4609 74.8733 24.6209 75.0867 24.8676 75.22C25.1209 75.3467 25.3842 75.41 25.6576 75.41C25.8576 75.41 26.0442 75.38 26.2176 75.32C26.3976 75.26 26.5442 75.1733 26.6576 75.06C26.7709 74.9467 26.8276 74.8167 26.8276 74.67C26.8276 74.3967 26.7176 74.2033 26.4976 74.09C26.2842 73.9767 26.0276 73.89 25.7276 73.83L25.0376 73.69C24.7976 73.6367 24.5742 73.5633 24.3676 73.47C24.1609 73.37 23.9942 73.23 23.8676 73.05C23.7409 72.87 23.6776 72.63 23.6776 72.33C23.6776 72.03 23.7709 71.78 23.9576 71.58C24.1442 71.3733 24.3809 71.2167 24.6676 71.11C24.9609 71.0033 25.2676 70.95 25.5876 70.95C25.9809 70.95 26.3509 71.0333 26.6976 71.2C27.0509 71.36 27.3009 71.6133 27.4476 71.96L26.6576 72.25C26.5709 72.05 26.4176 71.9033 26.1976 71.81C25.9842 71.71 25.7609 71.66 25.5276 71.66C25.2742 71.66 25.0442 71.7167 24.8376 71.83C24.6309 71.9433 24.5276 72.1067 24.5276 72.32C24.5276 72.5333 24.6142 72.69 24.7876 72.79C24.9676 72.8833 25.1876 72.9567 25.4476 73.01L26.0976 73.14C26.3642 73.1933 26.6176 73.27 26.8576 73.37C27.0976 73.47 27.2942 73.62 27.4476 73.82C27.6009 74.0133 27.6776 74.2867 27.6776 74.64C27.6776 74.9533 27.5809 75.22 27.3876 75.44C27.1942 75.66 26.9442 75.83 26.6376 75.95C26.3309 76.0633 26.0042 76.12 25.6576 76.12ZM30.7846 76.12C30.2646 76.12 29.8246 76.0067 29.4646 75.78C29.1046 75.5467 28.8279 75.2367 28.6346 74.85C28.4479 74.4567 28.3546 74.0167 28.3546 73.53C28.3546 73.0033 28.4613 72.55 28.6746 72.17C28.8879 71.7833 29.1746 71.4867 29.5346 71.28C29.9013 71.0667 30.3113 70.96 30.7646 70.96C31.1579 70.96 31.5046 71.04 31.8046 71.2C32.1046 71.3533 32.3513 71.5633 32.5446 71.83C32.7446 72.09 32.8879 72.3867 32.9746 72.72C33.0679 73.0533 33.1013 73.3967 33.0746 73.75H29.2546C29.2679 74.1633 29.3579 74.49 29.5246 74.73C29.6979 74.97 29.9013 75.14 30.1346 75.24C30.3679 75.3333 30.5846 75.38 30.7846 75.38C31.0646 75.38 31.2979 75.3367 31.4846 75.25C31.6779 75.1567 31.8313 75.0367 31.9446 74.89L32.7546 75.13C32.5746 75.4167 32.3179 75.6533 31.9846 75.84C31.6513 76.0267 31.2513 76.12 30.7846 76.12ZM29.2646 73.08H32.1846C32.1846 72.8467 32.1246 72.6233 32.0046 72.41C31.8913 72.1967 31.7279 72.0233 31.5146 71.89C31.3079 71.75 31.0579 71.68 30.7646 71.68C30.5179 71.68 30.2846 71.7267 30.0646 71.82C29.8446 71.9133 29.6613 72.0633 29.5146 72.27C29.3746 72.4767 29.2913 72.7467 29.2646 73.08ZM34.0652 76V71.04H34.6852L34.9052 71.79C35.0452 71.5567 35.2419 71.36 35.4952 71.2C35.7486 71.04 36.0852 70.96 36.5052 70.96C37.1052 70.96 37.5286 71.1367 37.7752 71.49C38.0219 71.8367 38.1452 72.2933 38.1452 72.86V76H37.3052V73.11C37.3052 72.8567 37.2819 72.6233 37.2352 72.41C37.1886 72.19 37.0852 72.0133 36.9252 71.88C36.7719 71.7467 36.5352 71.68 36.2152 71.68C35.8086 71.68 35.4886 71.82 35.2552 72.1C35.0219 72.3733 34.9052 72.7767 34.9052 73.31V76H34.0652ZM40.9073 76C40.5939 76 40.3506 75.97 40.1773 75.91C40.0106 75.8433 39.8939 75.72 39.8273 75.54C39.7673 75.36 39.7373 75.1 39.7373 74.76V71.71H38.8973V71.04H39.7373V69.79H40.5773V71.04H41.5373V71.71H40.5773V74.62C40.5773 74.8733 40.6006 75.0433 40.6473 75.13C40.7006 75.2167 40.8473 75.26 41.0873 75.26H41.5373V76H40.9073ZM44.3295 76.12C44.0428 76.12 43.7595 76.0767 43.4795 75.99C43.2061 75.8967 42.9595 75.76 42.7395 75.58C42.5261 75.3933 42.3628 75.16 42.2495 74.88L43.0595 74.58C43.1328 74.8733 43.2928 75.0867 43.5395 75.22C43.7928 75.3467 44.0561 75.41 44.3295 75.41C44.5295 75.41 44.7161 75.38 44.8895 75.32C45.0695 75.26 45.2161 75.1733 45.3295 75.06C45.4428 74.9467 45.4995 74.8167 45.4995 74.67C45.4995 74.3967 45.3895 74.2033 45.1695 74.09C44.9561 73.9767 44.6995 73.89 44.3995 73.83L43.7095 73.69C43.4695 73.6367 43.2461 73.5633 43.0395 73.47C42.8328 73.37 42.6661 73.23 42.5395 73.05C42.4128 72.87 42.3495 72.63 42.3495 72.33C42.3495 72.03 42.4428 71.78 42.6295 71.58C42.8161 71.3733 43.0528 71.2167 43.3395 71.11C43.6328 71.0033 43.9395 70.95 44.2595 70.95C44.6528 70.95 45.0228 71.0333 45.3695 71.2C45.7228 71.36 45.9728 71.6133 46.1195 71.96L45.3295 72.25C45.2428 72.05 45.0895 71.9033 44.8695 71.81C44.6561 71.71 44.4328 71.66 44.1995 71.66C43.9461 71.66 43.7161 71.7167 43.5095 71.83C43.3028 71.9433 43.1995 72.1067 43.1995 72.32C43.1995 72.5333 43.2861 72.69 43.4595 72.79C43.6395 72.8833 43.8595 72.9567 44.1195 73.01L44.7695 73.14C45.0361 73.1933 45.2895 73.27 45.5295 73.37C45.7695 73.47 45.9661 73.62 46.1195 73.82C46.2728 74.0133 46.3495 74.2867 46.3495 74.64C46.3495 74.9533 46.2528 75.22 46.0595 75.44C45.8661 75.66 45.6161 75.83 45.3095 75.95C45.0028 76.0633 44.6761 76.12 44.3295 76.12ZM51.5392 76.12C51.2259 76.12 50.9392 76.0633 50.6792 75.95C50.4192 75.8367 50.2126 75.6733 50.0592 75.46C49.9059 75.2467 49.8292 74.99 49.8292 74.69C49.8292 74.2967 49.9659 73.9867 50.2392 73.76C50.5192 73.5333 50.9092 73.36 51.4092 73.24C51.9159 73.1133 52.5059 73.0133 53.1792 72.94C53.1926 72.52 53.1092 72.1967 52.9292 71.97C52.7492 71.7433 52.4592 71.63 52.0592 71.63C51.7592 71.63 51.5126 71.7 51.3192 71.84C51.1326 71.9733 51.0126 72.16 50.9592 72.4L50.1492 72.16C50.2826 71.78 50.5192 71.4867 50.8592 71.28C51.2059 71.0667 51.6026 70.96 52.0492 70.96C52.7359 70.96 53.2359 71.1233 53.5492 71.45C53.8692 71.77 54.0292 72.2767 54.0292 72.97V74.13C54.0292 74.5433 54.0459 74.9 54.0792 75.2C54.1126 75.5 54.1526 75.7667 54.1992 76H53.4292L53.2292 75.32C53.0826 75.5667 52.8726 75.7633 52.5992 75.91C52.3259 76.05 51.9726 76.12 51.5392 76.12ZM51.7192 75.45C51.9792 75.45 52.2259 75.4033 52.4592 75.31C52.6926 75.2167 52.8826 75.06 53.0292 74.84C53.1759 74.6133 53.2492 74.3067 53.2492 73.92V73.61C52.7426 73.6633 52.3026 73.73 51.9292 73.81C51.5559 73.8833 51.2659 73.99 51.0592 74.13C50.8592 74.2633 50.7592 74.4433 50.7592 74.67C50.7592 74.9033 50.8426 75.0933 51.0092 75.24C51.1826 75.38 51.4192 75.45 51.7192 75.45ZM55.4129 76V71.04H56.0329L56.2529 71.79C56.3929 71.5567 56.5896 71.36 56.8429 71.2C57.0962 71.04 57.4329 70.96 57.8529 70.96C58.4529 70.96 58.8762 71.1367 59.1229 71.49C59.3696 71.8367 59.4929 72.2933 59.4929 72.86V76H58.6529V73.11C58.6529 72.8567 58.6296 72.6233 58.5829 72.41C58.5362 72.19 58.4329 72.0133 58.2729 71.88C58.1196 71.7467 57.8829 71.68 57.5629 71.68C57.1562 71.68 56.8362 71.82 56.6029 72.1C56.3696 72.3733 56.2529 72.7767 56.2529 73.31V76H55.4129ZM8.47016 82.1C8.30349 82.1 8.15682 82.04 8.03016 81.92C7.91016 81.7933 7.85016 81.6433 7.85016 81.47C7.85016 81.2967 7.91016 81.15 8.03016 81.03C8.15682 80.91 8.30349 80.85 8.47016 80.85C8.64349 80.85 8.79016 80.91 8.91016 81.03C9.03682 81.15 9.10016 81.2967 9.10016 81.47C9.10016 81.6433 9.03682 81.7933 8.91016 81.92C8.79016 82.04 8.64349 82.1 8.47016 82.1ZM8.05016 88V83.71H7.36016V83.04H8.89016V88H8.05016ZM10.3934 88V83.04H11.0134L11.2334 83.79C11.3734 83.5567 11.57 83.36 11.8234 83.2C12.0767 83.04 12.4134 82.96 12.8334 82.96C13.4334 82.96 13.8567 83.1367 14.1034 83.49C14.35 83.8367 14.4734 84.2933 14.4734 84.86V88H13.6334V85.11C13.6334 84.8567 13.61 84.6233 13.5634 84.41C13.5167 84.19 13.4134 84.0133 13.2534 83.88C13.1 83.7467 12.8634 83.68 12.5434 83.68C12.1367 83.68 11.8167 83.82 11.5834 84.1C11.35 84.3733 11.2334 84.7767 11.2334 85.31V88H10.3934ZM17.5549 88.12C17.1816 88.12 16.8316 88.02 16.5049 87.82C16.1783 87.6133 15.9149 87.32 15.7149 86.94C15.5216 86.5533 15.4249 86.0867 15.4249 85.54C15.4249 84.9933 15.5216 84.53 15.7149 84.15C15.9149 83.7633 16.1783 83.47 16.5049 83.27C16.8316 83.0633 17.1816 82.96 17.5549 82.96C17.9483 82.96 18.2783 83.04 18.5449 83.2C18.8116 83.3533 19.0183 83.56 19.1649 83.82V81.32H20.0049V86.13C20.0049 86.2967 20.0116 86.5433 20.0249 86.87C20.0383 87.19 20.0883 87.5667 20.1749 88H19.3849L19.1649 87.25C19.0183 87.5167 18.8116 87.73 18.5449 87.89C18.2783 88.0433 17.9483 88.12 17.5549 88.12ZM17.7749 87.4C18.2016 87.4 18.5416 87.2367 18.7949 86.91C19.0549 86.5833 19.1849 86.1267 19.1849 85.54C19.1849 84.9467 19.0549 84.49 18.7949 84.17C18.5416 83.8433 18.2016 83.68 17.7749 83.68C17.3483 83.68 17.0049 83.8433 16.7449 84.17C16.4916 84.49 16.3649 84.9467 16.3649 85.54C16.3649 86.1267 16.4916 86.5833 16.7449 86.91C17.0049 87.2367 17.3483 87.4 17.7749 87.4ZM22.2495 82.1C22.0828 82.1 21.9361 82.04 21.8095 81.92C21.6895 81.7933 21.6295 81.6433 21.6295 81.47C21.6295 81.2967 21.6895 81.15 21.8095 81.03C21.9361 80.91 22.0828 80.85 22.2495 80.85C22.4228 80.85 22.5695 80.91 22.6895 81.03C22.8161 81.15 22.8795 81.2967 22.8795 81.47C22.8795 81.6433 22.8161 81.7933 22.6895 81.92C22.5695 82.04 22.4228 82.1 22.2495 82.1ZM21.8295 88V83.71H21.1395V83.04H22.6695V88H21.8295ZM25.2427 88L23.4727 83.04H24.3827L25.6827 86.9L26.9727 83.04H27.8827L26.1127 88H25.2427ZM29.4467 82.1C29.2801 82.1 29.1334 82.04 29.0067 81.92C28.8867 81.7933 28.8267 81.6433 28.8267 81.47C28.8267 81.2967 28.8867 81.15 29.0067 81.03C29.1334 80.91 29.2801 80.85 29.4467 80.85C29.6201 80.85 29.7667 80.91 29.8867 81.03C30.0134 81.15 30.0767 81.2967 30.0767 81.47C30.0767 81.6433 30.0134 81.7933 29.8867 81.92C29.7667 82.04 29.6201 82.1 29.4467 82.1ZM29.0267 88V83.71H28.3367V83.04H29.8667V88H29.0267ZM33.1799 88.12C32.8066 88.12 32.4566 88.02 32.1299 87.82C31.8033 87.6133 31.5399 87.32 31.3399 86.94C31.1466 86.5533 31.0499 86.0867 31.0499 85.54C31.0499 84.9933 31.1466 84.53 31.3399 84.15C31.5399 83.7633 31.8033 83.47 32.1299 83.27C32.4566 83.0633 32.8066 82.96 33.1799 82.96C33.5733 82.96 33.9033 83.04 34.1699 83.2C34.4366 83.3533 34.6433 83.56 34.7899 83.82V81.32H35.6299V86.13C35.6299 86.2967 35.6366 86.5433 35.6499 86.87C35.6633 87.19 35.7133 87.5667 35.7999 88H35.0099L34.7899 87.25C34.6433 87.5167 34.4366 87.73 34.1699 87.89C33.9033 88.0433 33.5733 88.12 33.1799 88.12ZM33.3999 87.4C33.8266 87.4 34.1666 87.2367 34.4199 86.91C34.6799 86.5833 34.8099 86.1267 34.8099 85.54C34.8099 84.9467 34.6799 84.49 34.4199 84.17C34.1666 83.8433 33.8266 83.68 33.3999 83.68C32.9733 83.68 32.6299 83.8433 32.3699 84.17C32.1166 84.49 31.9899 84.9467 31.9899 85.54C31.9899 86.1267 32.1166 86.5833 32.3699 86.91C32.6299 87.2367 32.9733 87.4 33.3999 87.4ZM38.5845 88.12C38.1978 88.12 37.8878 88.04 37.6545 87.88C37.4211 87.7133 37.2511 87.4867 37.1445 87.2C37.0445 86.9067 36.9945 86.5733 36.9945 86.2V83.03H37.8345V86C37.8345 86.3667 37.8778 86.65 37.9645 86.85C38.0511 87.05 38.1711 87.19 38.3245 87.27C38.4845 87.3433 38.6678 87.38 38.8745 87.38C39.2678 87.38 39.5745 87.2433 39.7945 86.97C40.0211 86.69 40.1345 86.2867 40.1345 85.76V83.03H40.9745V88H40.3445L40.1345 87.28C39.9945 87.52 39.8045 87.72 39.5645 87.88C39.3245 88.04 38.9978 88.12 38.5845 88.12ZM43.7658 88.12C43.4524 88.12 43.1658 88.0633 42.9058 87.95C42.6458 87.8367 42.4391 87.6733 42.2858 87.46C42.1324 87.2467 42.0558 86.99 42.0558 86.69C42.0558 86.2967 42.1924 85.9867 42.4658 85.76C42.7458 85.5333 43.1358 85.36 43.6358 85.24C44.1424 85.1133 44.7324 85.0133 45.4058 84.94C45.4191 84.52 45.3358 84.1967 45.1558 83.97C44.9758 83.7433 44.6858 83.63 44.2858 83.63C43.9858 83.63 43.7391 83.7 43.5458 83.84C43.3591 83.9733 43.2391 84.16 43.1858 84.4L42.3758 84.16C42.5091 83.78 42.7458 83.4867 43.0858 83.28C43.4324 83.0667 43.8291 82.96 44.2758 82.96C44.9624 82.96 45.4624 83.1233 45.7758 83.45C46.0958 83.77 46.2558 84.2767 46.2558 84.97V86.13C46.2558 86.5433 46.2724 86.9 46.3058 87.2C46.3391 87.5 46.3791 87.7667 46.4258 88H45.6558L45.4558 87.32C45.3091 87.5667 45.0991 87.7633 44.8258 87.91C44.5524 88.05 44.1991 88.12 43.7658 88.12ZM43.9458 87.45C44.2058 87.45 44.4524 87.4033 44.6858 87.31C44.9191 87.2167 45.1091 87.06 45.2558 86.84C45.4024 86.6133 45.4758 86.3067 45.4758 85.92V85.61C44.9691 85.6633 44.5291 85.73 44.1558 85.81C43.7824 85.8833 43.4924 85.99 43.2858 86.13C43.0858 86.2633 42.9858 86.4433 42.9858 86.67C42.9858 86.9033 43.0691 87.0933 43.2358 87.24C43.4091 87.38 43.6458 87.45 43.9458 87.45ZM48.8095 88C48.4961 88 48.2528 87.97 48.0795 87.91C47.9128 87.8433 47.7961 87.72 47.7295 87.54C47.6695 87.36 47.6395 87.1 47.6395 86.76V81.33H48.4795V86.62C48.4795 86.8733 48.5061 87.0433 48.5595 87.13C48.6128 87.2167 48.7561 87.26 48.9895 87.26H49.1795V88H48.8095ZM51.722 88.12C51.4354 88.12 51.152 88.0767 50.872 87.99C50.5987 87.8967 50.352 87.76 50.132 87.58C49.9187 87.3933 49.7554 87.16 49.642 86.88L50.452 86.58C50.5254 86.8733 50.6854 87.0867 50.932 87.22C51.1854 87.3467 51.4487 87.41 51.722 87.41C51.922 87.41 52.1087 87.38 52.282 87.32C52.462 87.26 52.6087 87.1733 52.722 87.06C52.8354 86.9467 52.892 86.8167 52.892 86.67C52.892 86.3967 52.782 86.2033 52.562 86.09C52.3487 85.9767 52.092 85.89 51.792 85.83L51.102 85.69C50.862 85.6367 50.6387 85.5633 50.432 85.47C50.2254 85.37 50.0587 85.23 49.932 85.05C49.8054 84.87 49.742 84.63 49.742 84.33C49.742 84.03 49.8354 83.78 50.022 83.58C50.2087 83.3733 50.4454 83.2167 50.732 83.11C51.0254 83.0033 51.332 82.95 51.652 82.95C52.0454 82.95 52.4154 83.0333 52.762 83.2C53.1154 83.36 53.3654 83.6133 53.512 83.96L52.722 84.25C52.6354 84.05 52.482 83.9033 52.262 83.81C52.0487 83.71 51.8254 83.66 51.592 83.66C51.3387 83.66 51.1087 83.7167 50.902 83.83C50.6954 83.9433 50.592 84.1067 50.592 84.32C50.592 84.5333 50.6787 84.69 50.852 84.79C51.032 84.8833 51.252 84.9567 51.512 85.01L52.162 85.14C52.4287 85.1933 52.682 85.27 52.922 85.37C53.162 85.47 53.3587 85.62 53.512 85.82C53.6654 86.0133 53.742 86.2867 53.742 86.64C53.742 86.9533 53.6454 87.22 53.452 87.44C53.2587 87.66 53.0087 87.83 52.702 87.95C52.3954 88.0633 52.0687 88.12 51.722 88.12ZM55.0591 88.12C54.8857 88.12 54.7357 88.0567 54.6091 87.93C54.4824 87.8033 54.4191 87.6533 54.4191 87.48C54.4191 87.3 54.4824 87.1467 54.6091 87.02C54.7357 86.8933 54.8857 86.83 55.0591 86.83C55.2391 86.83 55.3924 86.8933 55.5191 87.02C55.6457 87.1467 55.7091 87.3 55.7091 87.48C55.7091 87.6533 55.6457 87.8033 55.5191 87.93C55.3924 88.0567 55.2391 88.12 55.0591 88.12Z" fill="black"/>
<circle cx="132.5" cy="28.5" r="17" fill="#FCF4E9" stroke="black"/>
<path d="M117.646 28.6464C117.451 28.8417 117.451 29.1583 117.646 29.3536L120.828 32.5355C121.024 32.7308 121.34 32.7308 121.536 32.5355C121.731 32.3403 121.731 32.0237 121.536 31.8284L118.707 29L121.536 26.1716C121.731 25.9763 121.731 25.6597 121.536 25.4645C121.34 25.2692 121.024 25.2692 120.828 25.4645L117.646 28.6464ZM147.354 29.3536C147.549 29.1583 147.549 28.8417 147.354 28.6464L144.172 25.4645C143.976 25.2692 143.66 25.2692 143.464 25.4645C143.269 25.6597 143.269 25.9763 143.464 26.1716L146.293 29L143.464 31.8284C143.269 32.0237 143.269 32.3403 143.464 32.5355C143.66 32.7308 143.976 32.7308 144.172 32.5355L147.354 29.3536ZM118 29L118 29.5L147 29.5L147 29L147 28.5L118 28.5L118 29Z" fill="black"/>
<path d="M201.369 64.12C201.003 64.12 200.646 64.0633 200.299 63.95C199.953 63.8367 199.646 63.6633 199.379 63.43C199.119 63.1967 198.929 62.9 198.809 62.54L199.679 62.28C199.759 62.52 199.889 62.72 200.069 62.88C200.249 63.0333 200.456 63.1467 200.689 63.22C200.929 63.2933 201.169 63.33 201.409 63.33C201.676 63.33 201.929 63.2867 202.169 63.2C202.409 63.1133 202.603 62.9833 202.749 62.81C202.903 62.63 202.979 62.4067 202.979 62.14C202.979 61.8667 202.879 61.65 202.679 61.49C202.479 61.33 202.133 61.1867 201.639 61.06L200.789 60.87C200.483 60.79 200.179 60.6833 199.879 60.55C199.586 60.4167 199.343 60.2267 199.149 59.98C198.963 59.7333 198.869 59.4033 198.869 58.99C198.869 58.61 198.986 58.2867 199.219 58.02C199.459 57.7533 199.766 57.55 200.139 57.41C200.519 57.27 200.913 57.2 201.319 57.2C201.633 57.2 201.939 57.2467 202.239 57.34C202.546 57.4267 202.819 57.5633 203.059 57.75C203.306 57.93 203.499 58.1633 203.639 58.45L202.779 58.7C202.653 58.4667 202.446 58.29 202.159 58.17C201.879 58.05 201.586 57.99 201.279 57.99C201.039 57.99 200.809 58.03 200.589 58.11C200.369 58.1833 200.189 58.2967 200.049 58.45C199.909 58.6033 199.839 58.7967 199.839 59.03C199.839 59.25 199.903 59.4267 200.029 59.56C200.163 59.6933 200.336 59.8 200.549 59.88C200.769 59.9533 201.009 60.02 201.269 60.08L201.999 60.24C202.339 60.32 202.659 60.43 202.959 60.57C203.259 60.71 203.503 60.9067 203.689 61.16C203.876 61.4133 203.969 61.7533 203.969 62.18C203.969 62.4867 203.896 62.7633 203.749 63.01C203.603 63.25 203.406 63.4533 203.159 63.62C202.913 63.78 202.633 63.9033 202.319 63.99C202.013 64.0767 201.696 64.12 201.369 64.12ZM207.176 64.12C206.656 64.12 206.216 64.0067 205.856 63.78C205.496 63.5467 205.22 63.2367 205.026 62.85C204.84 62.4567 204.746 62.0167 204.746 61.53C204.746 61.0033 204.853 60.55 205.066 60.17C205.28 59.7833 205.566 59.4867 205.926 59.28C206.293 59.0667 206.703 58.96 207.156 58.96C207.55 58.96 207.896 59.04 208.196 59.2C208.496 59.3533 208.743 59.5633 208.936 59.83C209.136 60.09 209.28 60.3867 209.366 60.72C209.46 61.0533 209.493 61.3967 209.466 61.75H205.646C205.66 62.1633 205.75 62.49 205.916 62.73C206.09 62.97 206.293 63.14 206.526 63.24C206.76 63.3333 206.976 63.38 207.176 63.38C207.456 63.38 207.69 63.3367 207.876 63.25C208.07 63.1567 208.223 63.0367 208.336 62.89L209.146 63.13C208.966 63.4167 208.71 63.6533 208.376 63.84C208.043 64.0267 207.643 64.12 207.176 64.12ZM205.656 61.08H208.576C208.576 60.8467 208.516 60.6233 208.396 60.41C208.283 60.1967 208.12 60.0233 207.906 59.89C207.7 59.75 207.45 59.68 207.156 59.68C206.91 59.68 206.676 59.7267 206.456 59.82C206.236 59.9133 206.053 60.0633 205.906 60.27C205.766 60.4767 205.683 60.7467 205.656 61.08ZM211.627 64C211.314 64 211.07 63.97 210.897 63.91C210.73 63.8433 210.614 63.72 210.547 63.54C210.487 63.36 210.457 63.1 210.457 62.76V57.33H211.297V62.62C211.297 62.8733 211.324 63.0433 211.377 63.13C211.43 63.2167 211.574 63.26 211.807 63.26H211.997V64H211.627ZM214.959 64.12C214.439 64.12 213.999 64.0067 213.639 63.78C213.279 63.5467 213.003 63.2367 212.809 62.85C212.623 62.4567 212.529 62.0167 212.529 61.53C212.529 61.0033 212.636 60.55 212.849 60.17C213.063 59.7833 213.349 59.4867 213.709 59.28C214.076 59.0667 214.486 58.96 214.939 58.96C215.333 58.96 215.679 59.04 215.979 59.2C216.279 59.3533 216.526 59.5633 216.719 59.83C216.919 60.09 217.063 60.3867 217.149 60.72C217.243 61.0533 217.276 61.3967 217.249 61.75H213.429C213.443 62.1633 213.533 62.49 213.699 62.73C213.873 62.97 214.076 63.14 214.309 63.24C214.543 63.3333 214.759 63.38 214.959 63.38C215.239 63.38 215.473 63.3367 215.659 63.25C215.853 63.1567 216.006 63.0367 216.119 62.89L216.929 63.13C216.749 63.4167 216.493 63.6533 216.159 63.84C215.826 64.0267 215.426 64.12 214.959 64.12ZM213.439 61.08H216.359C216.359 60.8467 216.299 60.6233 216.179 60.41C216.066 60.1967 215.903 60.0233 215.689 59.89C215.483 59.75 215.233 59.68 214.939 59.68C214.693 59.68 214.459 59.7267 214.239 59.82C214.019 59.9133 213.836 60.0633 213.689 60.27C213.549 60.4767 213.466 60.7467 213.439 61.08ZM220.23 64.12C219.757 64.12 219.347 64.01 219 63.79C218.653 63.5633 218.387 63.2567 218.2 62.87C218.013 62.4833 217.92 62.04 217.92 61.54C217.92 61.0467 218.017 60.6067 218.21 60.22C218.41 59.8267 218.69 59.52 219.05 59.3C219.41 59.0733 219.833 58.96 220.32 58.96C220.767 58.96 221.15 59.07 221.47 59.29C221.79 59.51 222.03 59.7733 222.19 60.08L221.42 60.36C221.313 60.16 221.157 60 220.95 59.88C220.743 59.76 220.513 59.7 220.26 59.7C220.013 59.7 219.78 59.7667 219.56 59.9C219.34 60.0267 219.163 60.2267 219.03 60.5C218.897 60.7667 218.83 61.11 218.83 61.53C218.83 61.9433 218.897 62.29 219.03 62.57C219.17 62.8433 219.347 63.0467 219.56 63.18C219.78 63.3133 220.013 63.38 220.26 63.38C220.533 63.38 220.77 63.32 220.97 63.2C221.177 63.0733 221.333 62.9167 221.44 62.73L222.21 63.01C222.023 63.33 221.757 63.5967 221.41 63.81C221.063 64.0167 220.67 64.12 220.23 64.12ZM224.75 64C224.437 64 224.193 63.97 224.02 63.91C223.853 63.8433 223.737 63.72 223.67 63.54C223.61 63.36 223.58 63.1 223.58 62.76V59.71H222.74V59.04H223.58V57.79H224.42V59.04H225.38V59.71H224.42V62.62C224.42 62.8733 224.443 63.0433 224.49 63.13C224.543 63.2167 224.69 63.26 224.93 63.26H225.38V64H224.75ZM230.675 64.12C230.362 64.12 230.075 64.0633 229.815 63.95C229.555 63.8367 229.348 63.6733 229.195 63.46C229.042 63.2467 228.965 62.99 228.965 62.69C228.965 62.2967 229.102 61.9867 229.375 61.76C229.655 61.5333 230.045 61.36 230.545 61.24C231.052 61.1133 231.642 61.0133 232.315 60.94C232.328 60.52 232.245 60.1967 232.065 59.97C231.885 59.7433 231.595 59.63 231.195 59.63C230.895 59.63 230.648 59.7 230.455 59.84C230.268 59.9733 230.148 60.16 230.095 60.4L229.285 60.16C229.418 59.78 229.655 59.4867 229.995 59.28C230.342 59.0667 230.738 58.96 231.185 58.96C231.872 58.96 232.372 59.1233 232.685 59.45C233.005 59.77 233.165 60.2767 233.165 60.97V62.13C233.165 62.5433 233.182 62.9 233.215 63.2C233.248 63.5 233.288 63.7667 233.335 64H232.565L232.365 63.32C232.218 63.5667 232.008 63.7633 231.735 63.91C231.462 64.05 231.108 64.12 230.675 64.12ZM230.855 63.45C231.115 63.45 231.362 63.4033 231.595 63.31C231.828 63.2167 232.018 63.06 232.165 62.84C232.312 62.6133 232.385 62.3067 232.385 61.92V61.61C231.878 61.6633 231.438 61.73 231.065 61.81C230.692 61.8833 230.402 61.99 230.195 62.13C229.995 62.2633 229.895 62.4433 229.895 62.67C229.895 62.9033 229.978 63.0933 230.145 63.24C230.318 63.38 230.555 63.45 230.855 63.45ZM239.801 64.12C239.415 64.12 239.088 64.0433 238.821 63.89C238.555 63.73 238.345 63.5167 238.191 63.25L237.971 64H237.351V57.32H238.191V59.82C238.345 59.56 238.555 59.3533 238.821 59.2C239.088 59.04 239.415 58.96 239.801 58.96C240.181 58.96 240.531 59.0633 240.851 59.27C241.178 59.47 241.438 59.7633 241.631 60.15C241.831 60.53 241.931 60.9933 241.931 61.54C241.931 62.0867 241.831 62.5533 241.631 62.94C241.438 63.32 241.178 63.6133 240.851 63.82C240.531 64.02 240.181 64.12 239.801 64.12ZM239.581 63.4C240.008 63.4 240.348 63.2367 240.601 62.91C240.861 62.5833 240.991 62.1267 240.991 61.54C240.991 60.9467 240.861 60.49 240.601 60.17C240.348 59.8433 240.008 59.68 239.581 59.68C239.155 59.68 238.811 59.8433 238.551 60.17C238.298 60.49 238.171 60.9467 238.171 61.54C238.171 62.1267 238.298 62.5833 238.551 62.91C238.811 63.2367 239.155 63.4 239.581 63.4ZM244.585 64.12C244.199 64.12 243.889 64.04 243.655 63.88C243.422 63.7133 243.252 63.4867 243.145 63.2C243.045 62.9067 242.995 62.5733 242.995 62.2V59.03H243.835V62C243.835 62.3667 243.879 62.65 243.965 62.85C244.052 63.05 244.172 63.19 244.325 63.27C244.485 63.3433 244.669 63.38 244.875 63.38C245.269 63.38 245.575 63.2433 245.795 62.97C246.022 62.69 246.135 62.2867 246.135 61.76V59.03H246.975V64H246.345L246.135 63.28C245.995 63.52 245.805 63.72 245.565 63.88C245.325 64.04 244.999 64.12 244.585 64.12ZM250.827 64.12C250.44 64.12 250.113 64.0433 249.847 63.89C249.58 63.73 249.37 63.5167 249.217 63.25L248.997 64H248.377V57.32H249.217V59.82C249.37 59.56 249.58 59.3533 249.847 59.2C250.113 59.04 250.44 58.96 250.827 58.96C251.207 58.96 251.557 59.0633 251.877 59.27C252.203 59.47 252.463 59.7633 252.657 60.15C252.857 60.53 252.957 60.9933 252.957 61.54C252.957 62.0867 252.857 62.5533 252.657 62.94C252.463 63.32 252.203 63.6133 251.877 63.82C251.557 64.02 251.207 64.12 250.827 64.12ZM250.607 63.4C251.033 63.4 251.373 63.2367 251.627 62.91C251.887 62.5833 252.017 62.1267 252.017 61.54C252.017 60.9467 251.887 60.49 251.627 60.17C251.373 59.8433 251.033 59.68 250.607 59.68C250.18 59.68 249.837 59.8433 249.577 60.17C249.323 60.49 249.197 60.9467 249.197 61.54C249.197 62.1267 249.323 62.5833 249.577 62.91C249.837 63.2367 250.18 63.4 250.607 63.4ZM256.491 64.12C256.104 64.12 255.777 64.0433 255.511 63.89C255.244 63.73 255.034 63.5167 254.881 63.25L254.661 64H254.041V57.32H254.881V59.82C255.034 59.56 255.244 59.3533 255.511 59.2C255.777 59.04 256.104 58.96 256.491 58.96C256.871 58.96 257.221 59.0633 257.541 59.27C257.867 59.47 258.127 59.7633 258.321 60.15C258.521 60.53 258.621 60.9933 258.621 61.54C258.621 62.0867 258.521 62.5533 258.321 62.94C258.127 63.32 257.867 63.6133 257.541 63.82C257.221 64.02 256.871 64.12 256.491 64.12ZM256.271 63.4C256.697 63.4 257.037 63.2367 257.291 62.91C257.551 62.5833 257.681 62.1267 257.681 61.54C257.681 60.9467 257.551 60.49 257.291 60.17C257.037 59.8433 256.697 59.68 256.271 59.68C255.844 59.68 255.501 59.8433 255.241 60.17C254.987 60.49 254.861 60.9467 254.861 61.54C254.861 62.1267 254.987 62.5833 255.241 62.91C255.501 63.2367 255.844 63.4 256.271 63.4ZM260.875 64C260.562 64 260.318 63.97 260.145 63.91C259.978 63.8433 259.862 63.72 259.795 63.54C259.735 63.36 259.705 63.1 259.705 62.76V57.33H260.545V62.62C260.545 62.8733 260.572 63.0433 260.625 63.13C260.678 63.2167 260.822 63.26 261.055 63.26H261.245V64H260.875ZM264.207 64.12C263.687 64.12 263.247 64.0067 262.887 63.78C262.527 63.5467 262.251 63.2367 262.057 62.85C261.871 62.4567 261.777 62.0167 261.777 61.53C261.777 61.0033 261.884 60.55 262.097 60.17C262.311 59.7833 262.597 59.4867 262.957 59.28C263.324 59.0667 263.734 58.96 264.187 58.96C264.581 58.96 264.927 59.04 265.227 59.2C265.527 59.3533 265.774 59.5633 265.967 59.83C266.167 60.09 266.311 60.3867 266.397 60.72C266.491 61.0533 266.524 61.3967 266.497 61.75H262.677C262.691 62.1633 262.781 62.49 262.947 62.73C263.121 62.97 263.324 63.14 263.557 63.24C263.791 63.3333 264.007 63.38 264.207 63.38C264.487 63.38 264.721 63.3367 264.907 63.25C265.101 63.1567 265.254 63.0367 265.367 62.89L266.177 63.13C265.997 63.4167 265.741 63.6533 265.407 63.84C265.074 64.0267 264.674 64.12 264.207 64.12ZM262.687 61.08H265.607C265.607 60.8467 265.547 60.6233 265.427 60.41C265.314 60.1967 265.151 60.0233 264.937 59.89C264.731 59.75 264.481 59.68 264.187 59.68C263.941 59.68 263.707 59.7267 263.487 59.82C263.267 59.9133 263.084 60.0633 262.937 60.27C262.797 60.4767 262.714 60.7467 262.687 61.08ZM214.247 76C213.934 76 213.69 75.97 213.517 75.91C213.35 75.8433 213.234 75.72 213.167 75.54C213.107 75.36 213.077 75.1 213.077 74.76V71.71H212.237V71.04H213.077V69.79H213.917V71.04H214.877V71.71H213.917V74.62C213.917 74.8733 213.94 75.0433 213.987 75.13C214.04 75.2167 214.187 75.26 214.427 75.26H214.877V76H214.247ZM218.039 76.12C217.753 76.12 217.469 76.07 217.189 75.97C216.909 75.87 216.653 75.7167 216.419 75.51C216.193 75.2967 216.009 75.0267 215.869 74.7C215.729 74.3733 215.659 73.9867 215.659 73.54C215.659 73.0933 215.729 72.7067 215.869 72.38C216.009 72.0533 216.193 71.7867 216.419 71.58C216.653 71.3667 216.909 71.21 217.189 71.11C217.469 71.01 217.753 70.96 218.039 70.96C218.326 70.96 218.609 71.01 218.889 71.11C219.176 71.21 219.433 71.3667 219.659 71.58C219.893 71.7867 220.076 72.0533 220.209 72.38C220.349 72.7067 220.419 73.0933 220.419 73.54C220.419 73.9867 220.349 74.3733 220.209 74.7C220.076 75.0267 219.893 75.2967 219.659 75.51C219.433 75.7167 219.176 75.87 218.889 75.97C218.609 76.07 218.326 76.12 218.039 76.12ZM218.039 75.38C218.279 75.38 218.513 75.3167 218.739 75.19C218.966 75.0567 219.153 74.8567 219.299 74.59C219.446 74.3167 219.519 73.9667 219.519 73.54C219.519 73.1133 219.446 72.7667 219.299 72.5C219.153 72.2267 218.966 72.0267 218.739 71.9C218.513 71.7667 218.279 71.7 218.039 71.7C217.806 71.7 217.573 71.7667 217.339 71.9C217.113 72.0267 216.926 72.2267 216.779 72.5C216.633 72.7667 216.559 73.1133 216.559 73.54C216.559 73.9667 216.633 74.3167 216.779 74.59C216.926 74.8567 217.113 75.0567 217.339 75.19C217.573 75.3167 217.806 75.38 218.039 75.38ZM226.41 76.12C225.89 76.12 225.45 76.0067 225.09 75.78C224.73 75.5467 224.453 75.2367 224.26 74.85C224.073 74.4567 223.98 74.0167 223.98 73.53C223.98 73.0033 224.086 72.55 224.3 72.17C224.513 71.7833 224.8 71.4867 225.16 71.28C225.526 71.0667 225.936 70.96 226.39 70.96C226.783 70.96 227.13 71.04 227.43 71.2C227.73 71.3533 227.976 71.5633 228.17 71.83C228.37 72.09 228.513 72.3867 228.6 72.72C228.693 73.0533 228.726 73.3967 228.7 73.75H224.88C224.893 74.1633 224.983 74.49 225.15 74.73C225.323 74.97 225.526 75.14 225.76 75.24C225.993 75.3333 226.21 75.38 226.41 75.38C226.69 75.38 226.923 75.3367 227.11 75.25C227.303 75.1567 227.456 75.0367 227.57 74.89L228.38 75.13C228.2 75.4167 227.943 75.6533 227.61 75.84C227.276 76.0267 226.876 76.12 226.41 76.12ZM224.89 73.08H227.81C227.81 72.8467 227.75 72.6233 227.63 72.41C227.516 72.1967 227.353 72.0233 227.14 71.89C226.933 71.75 226.683 71.68 226.39 71.68C226.143 71.68 225.91 71.7267 225.69 71.82C225.47 71.9133 225.286 72.0633 225.14 72.27C225 72.4767 224.916 72.7467 224.89 73.08ZM228.99 76L230.8 73.45L229.08 71.04H230.07L231.29 72.76L232.52 71.04H233.51L231.79 73.45L233.6 76H232.61L231.29 74.15L229.98 76H228.99ZM234.3 77.61V71.04H234.91L235.14 71.82C235.293 71.56 235.503 71.3533 235.77 71.2C236.036 71.04 236.363 70.96 236.75 70.96C237.13 70.96 237.48 71.0633 237.8 71.27C238.126 71.47 238.386 71.7633 238.58 72.15C238.78 72.53 238.88 72.9933 238.88 73.54C238.88 74.08 238.78 74.5433 238.58 74.93C238.386 75.3167 238.126 75.6133 237.8 75.82C237.48 76.02 237.13 76.12 236.75 76.12C236.363 76.12 236.036 76.0433 235.77 75.89C235.503 75.73 235.293 75.5167 235.14 75.25V77.61H234.3ZM236.53 75.4C236.956 75.4 237.296 75.2367 237.55 74.91C237.81 74.5833 237.94 74.1267 237.94 73.54C237.94 72.9467 237.81 72.49 237.55 72.17C237.296 71.8433 236.956 71.68 236.53 71.68C236.103 71.68 235.76 71.8433 235.5 72.17C235.246 72.49 235.12 72.9467 235.12 73.54C235.12 74.1267 235.246 74.5833 235.5 74.91C235.76 75.2367 236.103 75.4 236.53 75.4ZM241.134 76C240.82 76 240.577 75.97 240.404 75.91C240.237 75.8433 240.12 75.72 240.054 75.54C239.994 75.36 239.964 75.1 239.964 74.76V69.33H240.804V74.62C240.804 74.8733 240.83 75.0433 240.884 75.13C240.937 75.2167 241.08 75.26 241.314 75.26H241.504V76H241.134ZM244.416 76.12C244.13 76.12 243.846 76.07 243.566 75.97C243.286 75.87 243.03 75.7167 242.796 75.51C242.57 75.2967 242.386 75.0267 242.246 74.7C242.106 74.3733 242.036 73.9867 242.036 73.54C242.036 73.0933 242.106 72.7067 242.246 72.38C242.386 72.0533 242.57 71.7867 242.796 71.58C243.03 71.3667 243.286 71.21 243.566 71.11C243.846 71.01 244.13 70.96 244.416 70.96C244.703 70.96 244.986 71.01 245.266 71.11C245.553 71.21 245.81 71.3667 246.036 71.58C246.27 71.7867 246.453 72.0533 246.586 72.38C246.726 72.7067 246.796 73.0933 246.796 73.54C246.796 73.9867 246.726 74.3733 246.586 74.7C246.453 75.0267 246.27 75.2967 246.036 75.51C245.81 75.7167 245.553 75.87 245.266 75.97C244.986 76.07 244.703 76.12 244.416 76.12ZM244.416 75.38C244.656 75.38 244.89 75.3167 245.116 75.19C245.343 75.0567 245.53 74.8567 245.676 74.59C245.823 74.3167 245.896 73.9667 245.896 73.54C245.896 73.1133 245.823 72.7667 245.676 72.5C245.53 72.2267 245.343 72.0267 245.116 71.9C244.89 71.7667 244.656 71.7 244.416 71.7C244.183 71.7 243.95 71.7667 243.716 71.9C243.49 72.0267 243.303 72.2267 243.156 72.5C243.01 72.7667 242.936 73.1133 242.936 73.54C242.936 73.9667 243.01 74.3167 243.156 74.59C243.303 74.8567 243.49 75.0567 243.716 75.19C243.95 75.3167 244.183 75.38 244.416 75.38ZM247.874 76V71.04H248.484L248.754 71.96C248.927 71.66 249.16 71.42 249.454 71.24C249.754 71.0533 250.11 70.96 250.524 70.96V71.83C250.477 71.83 250.427 71.83 250.374 71.83C250.327 71.83 250.28 71.8333 250.234 71.84C249.667 71.8867 249.27 72.0833 249.044 72.43C248.824 72.7767 248.714 73.2567 248.714 73.87V76H247.874ZM253.382 76.12C252.862 76.12 252.422 76.0067 252.062 75.78C251.702 75.5467 251.426 75.2367 251.232 74.85C251.046 74.4567 250.952 74.0167 250.952 73.53C250.952 73.0033 251.059 72.55 251.272 72.17C251.486 71.7833 251.772 71.4867 252.132 71.28C252.499 71.0667 252.909 70.96 253.362 70.96C253.756 70.96 254.102 71.04 254.402 71.2C254.702 71.3533 254.949 71.5633 255.142 71.83C255.342 72.09 255.486 72.3867 255.572 72.72C255.666 73.0533 255.699 73.3967 255.672 73.75H251.852C251.866 74.1633 251.956 74.49 252.122 74.73C252.296 74.97 252.499 75.14 252.732 75.24C252.966 75.3333 253.182 75.38 253.382 75.38C253.662 75.38 253.896 75.3367 254.082 75.25C254.276 75.1567 254.429 75.0367 254.542 74.89L255.352 75.13C255.172 75.4167 254.916 75.6533 254.582 75.84C254.249 76.0267 253.849 76.12 253.382 76.12ZM251.862 73.08H254.782C254.782 72.8467 254.722 72.6233 254.602 72.41C254.489 72.1967 254.326 72.0233 254.112 71.89C253.906 71.75 253.656 71.68 253.362 71.68C253.116 71.68 252.882 71.7267 252.662 71.82C252.442 71.9133 252.259 72.0633 252.112 72.27C251.972 72.4767 251.889 72.7467 251.862 73.08ZM211.6 82.1C211.433 82.1 211.287 82.04 211.16 81.92C211.04 81.7933 210.98 81.6433 210.98 81.47C210.98 81.2967 211.04 81.15 211.16 81.03C211.287 80.91 211.433 80.85 211.6 80.85C211.773 80.85 211.92 80.91 212.04 81.03C212.167 81.15 212.23 81.2967 212.23 81.47C212.23 81.6433 212.167 81.7933 212.04 81.92C211.92 82.04 211.773 82.1 211.6 82.1ZM211.18 88V83.71H210.49V83.04H212.02V88H211.18ZM215.033 88C214.72 88 214.477 87.97 214.303 87.91C214.137 87.8433 214.02 87.72 213.953 87.54C213.893 87.36 213.863 87.1 213.863 86.76V83.71H213.023V83.04H213.863V81.79H214.703V83.04H215.663V83.71H214.703V86.62C214.703 86.8733 214.727 87.0433 214.773 87.13C214.827 87.2167 214.973 87.26 215.213 87.26H215.663V88H215.033ZM218.455 88.12C218.169 88.12 217.885 88.0767 217.605 87.99C217.332 87.8967 217.085 87.76 216.865 87.58C216.652 87.3933 216.489 87.16 216.375 86.88L217.185 86.58C217.259 86.8733 217.419 87.0867 217.665 87.22C217.919 87.3467 218.182 87.41 218.455 87.41C218.655 87.41 218.842 87.38 219.015 87.32C219.195 87.26 219.342 87.1733 219.455 87.06C219.569 86.9467 219.625 86.8167 219.625 86.67C219.625 86.3967 219.515 86.2033 219.295 86.09C219.082 85.9767 218.825 85.89 218.525 85.83L217.835 85.69C217.595 85.6367 217.372 85.5633 217.165 85.47C216.959 85.37 216.792 85.23 216.665 85.05C216.539 84.87 216.475 84.63 216.475 84.33C216.475 84.03 216.569 83.78 216.755 83.58C216.942 83.3733 217.179 83.2167 217.465 83.11C217.759 83.0033 218.065 82.95 218.385 82.95C218.779 82.95 219.149 83.0333 219.495 83.2C219.849 83.36 220.099 83.6133 220.245 83.96L219.455 84.25C219.369 84.05 219.215 83.9033 218.995 83.81C218.782 83.71 218.559 83.66 218.325 83.66C218.072 83.66 217.842 83.7167 217.635 83.83C217.429 83.9433 217.325 84.1067 217.325 84.32C217.325 84.5333 217.412 84.69 217.585 84.79C217.765 84.8833 217.985 84.9567 218.245 85.01L218.895 85.14C219.162 85.1933 219.415 85.27 219.655 85.37C219.895 85.47 220.092 85.62 220.245 85.82C220.399 86.0133 220.475 86.2867 220.475 86.64C220.475 86.9533 220.379 87.22 220.185 87.44C219.992 87.66 219.742 87.83 219.435 87.95C219.129 88.0633 218.802 88.12 218.455 88.12ZM225.665 88.12C225.352 88.12 225.065 88.0633 224.805 87.95C224.545 87.8367 224.339 87.6733 224.185 87.46C224.032 87.2467 223.955 86.99 223.955 86.69C223.955 86.2967 224.092 85.9867 224.365 85.76C224.645 85.5333 225.035 85.36 225.535 85.24C226.042 85.1133 226.632 85.0133 227.305 84.94C227.319 84.52 227.235 84.1967 227.055 83.97C226.875 83.7433 226.585 83.63 226.185 83.63C225.885 83.63 225.639 83.7 225.445 83.84C225.259 83.9733 225.139 84.16 225.085 84.4L224.275 84.16C224.409 83.78 224.645 83.4867 224.985 83.28C225.332 83.0667 225.729 82.96 226.175 82.96C226.862 82.96 227.362 83.1233 227.675 83.45C227.995 83.77 228.155 84.2767 228.155 84.97V86.13C228.155 86.5433 228.172 86.9 228.205 87.2C228.239 87.5 228.279 87.7667 228.325 88H227.555L227.355 87.32C227.209 87.5667 226.999 87.7633 226.725 87.91C226.452 88.05 226.099 88.12 225.665 88.12ZM225.845 87.45C226.105 87.45 226.352 87.4033 226.585 87.31C226.819 87.2167 227.009 87.06 227.155 86.84C227.302 86.6133 227.375 86.3067 227.375 85.92V85.61C226.869 85.6633 226.429 85.73 226.055 85.81C225.682 85.8833 225.392 85.99 225.185 86.13C224.985 86.2633 224.885 86.4433 224.885 86.67C224.885 86.9033 224.969 87.0933 225.135 87.24C225.309 87.38 225.545 87.45 225.845 87.45ZM229.539 88V83.04H230.149L230.419 83.96C230.592 83.66 230.826 83.42 231.119 83.24C231.419 83.0533 231.776 82.96 232.189 82.96V83.83C232.142 83.83 232.092 83.83 232.039 83.83C231.992 83.83 231.946 83.8333 231.899 83.84C231.332 83.8867 230.936 84.0833 230.709 84.43C230.489 84.7767 230.379 85.2567 230.379 85.87V88H229.539ZM234.604 88C234.29 88 234.047 87.97 233.874 87.91C233.707 87.8433 233.59 87.72 233.524 87.54C233.464 87.36 233.434 87.1 233.434 86.76V83.71H232.594V83.04H233.434V81.79H234.274V83.04H235.234V83.71H234.274V86.62C234.274 86.8733 234.297 87.0433 234.344 87.13C234.397 87.2167 234.544 87.26 234.784 87.26H235.234V88H234.604ZM237.196 82.1C237.029 82.1 236.882 82.04 236.756 81.92C236.636 81.7933 236.576 81.6433 236.576 81.47C236.576 81.2967 236.636 81.15 236.756 81.03C236.882 80.91 237.029 80.85 237.196 80.85C237.369 80.85 237.516 80.91 237.636 81.03C237.762 81.15 237.826 81.2967 237.826 81.47C237.826 81.6433 237.762 81.7933 237.636 81.92C237.516 82.04 237.369 82.1 237.196 82.1ZM236.776 88V83.71H236.086V83.04H237.616V88H236.776ZM241.109 88.12C240.636 88.12 240.226 88.01 239.879 87.79C239.532 87.5633 239.266 87.2567 239.079 86.87C238.892 86.4833 238.799 86.04 238.799 85.54C238.799 85.0467 238.896 84.6067 239.089 84.22C239.289 83.8267 239.569 83.52 239.929 83.3C240.289 83.0733 240.712 82.96 241.199 82.96C241.646 82.96 242.029 83.07 242.349 83.29C242.669 83.51 242.909 83.7733 243.069 84.08L242.299 84.36C242.192 84.16 242.036 84 241.829 83.88C241.622 83.76 241.392 83.7 241.139 83.7C240.892 83.7 240.659 83.7667 240.439 83.9C240.219 84.0267 240.042 84.2267 239.909 84.5C239.776 84.7667 239.709 85.11 239.709 85.53C239.709 85.9433 239.776 86.29 239.909 86.57C240.049 86.8433 240.226 87.0467 240.439 87.18C240.659 87.3133 240.892 87.38 241.139 87.38C241.412 87.38 241.649 87.32 241.849 87.2C242.056 87.0733 242.212 86.9167 242.319 86.73L243.089 87.01C242.902 87.33 242.636 87.5967 242.289 87.81C241.942 88.0167 241.549 88.12 241.109 88.12ZM245.289 88C244.976 88 244.732 87.97 244.559 87.91C244.392 87.8433 244.276 87.72 244.209 87.54C244.149 87.36 244.119 87.1 244.119 86.76V81.33H244.959V86.62C244.959 86.8733 244.986 87.0433 245.039 87.13C245.092 87.2167 245.236 87.26 245.469 87.26H245.659V88H245.289ZM248.622 88.12C248.102 88.12 247.662 88.0067 247.302 87.78C246.942 87.5467 246.665 87.2367 246.472 86.85C246.285 86.4567 246.192 86.0167 246.192 85.53C246.192 85.0033 246.298 84.55 246.512 84.17C246.725 83.7833 247.012 83.4867 247.372 83.28C247.738 83.0667 248.148 82.96 248.602 82.96C248.995 82.96 249.342 83.04 249.642 83.2C249.942 83.3533 250.188 83.5633 250.382 83.83C250.582 84.09 250.725 84.3867 250.812 84.72C250.905 85.0533 250.938 85.3967 250.912 85.75H247.092C247.105 86.1633 247.195 86.49 247.362 86.73C247.535 86.97 247.738 87.14 247.972 87.24C248.205 87.3333 248.422 87.38 248.622 87.38C248.902 87.38 249.135 87.3367 249.322 87.25C249.515 87.1567 249.668 87.0367 249.782 86.89L250.592 87.13C250.412 87.4167 250.155 87.6533 249.822 87.84C249.488 88.0267 249.088 88.12 248.622 88.12ZM247.102 85.08H250.022C250.022 84.8467 249.962 84.6233 249.842 84.41C249.728 84.1967 249.565 84.0233 249.352 83.89C249.145 83.75 248.895 83.68 248.602 83.68C248.355 83.68 248.122 83.7267 247.902 83.82C247.682 83.9133 247.498 84.0633 247.352 84.27C247.212 84.4767 247.128 84.7467 247.102 85.08ZM253.592 88.12C253.305 88.12 253.022 88.0767 252.742 87.99C252.469 87.8967 252.222 87.76 252.002 87.58C251.789 87.3933 251.625 87.16 251.512 86.88L252.322 86.58C252.395 86.8733 252.555 87.0867 252.802 87.22C253.055 87.3467 253.319 87.41 253.592 87.41C253.792 87.41 253.979 87.38 254.152 87.32C254.332 87.26 254.479 87.1733 254.592 87.06C254.705 86.9467 254.762 86.8167 254.762 86.67C254.762 86.3967 254.652 86.2033 254.432 86.09C254.219 85.9767 253.962 85.89 253.662 85.83L252.972 85.69C252.732 85.6367 252.509 85.5633 252.302 85.47C252.095 85.37 251.929 85.23 251.802 85.05C251.675 84.87 251.612 84.63 251.612 84.33C251.612 84.03 251.705 83.78 251.892 83.58C252.079 83.3733 252.315 83.2167 252.602 83.11C252.895 83.0033 253.202 82.95 253.522 82.95C253.915 82.95 254.285 83.0333 254.632 83.2C254.985 83.36 255.235 83.6133 255.382 83.96L254.592 84.25C254.505 84.05 254.352 83.9033 254.132 83.81C253.919 83.71 253.695 83.66 253.462 83.66C253.209 83.66 252.979 83.7167 252.772 83.83C252.565 83.9433 252.462 84.1067 252.462 84.32C252.462 84.5333 252.549 84.69 252.722 84.79C252.902 84.8833 253.122 84.9567 253.382 85.01L254.032 85.14C254.299 85.1933 254.552 85.27 254.792 85.37C255.032 85.47 255.229 85.62 255.382 85.82C255.535 86.0133 255.612 86.2867 255.612 86.64C255.612 86.9533 255.515 87.22 255.322 87.44C255.129 87.66 254.879 87.83 254.572 87.95C254.265 88.0633 253.939 88.12 253.592 88.12ZM256.929 88.12C256.756 88.12 256.606 88.0567 256.479 87.93C256.353 87.8033 256.289 87.6533 256.289 87.48C256.289 87.3 256.353 87.1467 256.479 87.02C256.606 86.8933 256.756 86.83 256.929 86.83C257.109 86.83 257.263 86.8933 257.389 87.02C257.516 87.1467 257.579 87.3 257.579 87.48C257.579 87.6533 257.516 87.8033 257.389 87.93C257.263 88.0567 257.109 88.12 256.929 88.12Z" fill="black"/>
<circle cx="220.677" cy="42.6768" r="6.17676" fill="#FCF4E9" stroke="black"/>
<circle cx="242" cy="41" r="10.5" fill="#FFBC36" stroke="black"/>
<circle cx="241.353" cy="17.3529" r="9.85294" fill="#FCF4E9" stroke="black"/>
<circle cx="210" cy="17" r="16.5" fill="#FCF4E9" stroke="black"/>
<circle cx="242" cy="41" r="2" fill="black"/>
<circle cx="242" cy="41" r="5" stroke="black" stroke-linecap="round" stroke-linejoin="round" stroke-dasharray="1 2"/>
</g>
<defs>
<clipPath id="clip0_6125_41724">
<rect width="270" height="88" fill="white"/>
</clipPath>
</defs>
</svg>
