<svg width="270" height="85" viewBox="0 0 270 85" fill="none" xmlns="http://www.w3.org/2000/svg">
<g clip-path="url(#clip0_6125_41697)">
<path d="M83.8132 61V55.13H81.5932V54.32H86.9732V55.13H84.7532V61H83.8132ZM87.7693 61V54.32H88.6093V56.79C88.7493 56.5567 88.946 56.36 89.1993 56.2C89.4527 56.04 89.7893 55.96 90.2093 55.96C90.8093 55.96 91.2327 56.1367 91.4793 56.49C91.726 56.8367 91.8493 57.2933 91.8493 57.86V61H91.0093V58.11C91.0093 57.8567 90.986 57.6233 90.9393 57.41C90.8927 57.19 90.7893 57.0133 90.6293 56.88C90.476 56.7467 90.2393 56.68 89.9193 56.68C89.5127 56.68 89.1927 56.82 88.9593 57.1C88.726 57.3733 88.6093 57.7767 88.6093 58.31V61H87.7693ZM95.2309 61.12C94.7109 61.12 94.2709 61.0067 93.9109 60.78C93.5509 60.5467 93.2742 60.2367 93.0809 59.85C92.8942 59.4567 92.8009 59.0167 92.8009 58.53C92.8009 58.0033 92.9076 57.55 93.1209 57.17C93.3342 56.7833 93.6209 56.4867 93.9809 56.28C94.3476 56.0667 94.7576 55.96 95.2109 55.96C95.6042 55.96 95.9509 56.04 96.2509 56.2C96.5509 56.3533 96.7976 56.5633 96.9909 56.83C97.1909 57.09 97.3342 57.3867 97.4209 57.72C97.5142 58.0533 97.5476 58.3967 97.5209 58.75H93.7009C93.7142 59.1633 93.8042 59.49 93.9709 59.73C94.1442 59.97 94.3476 60.14 94.5809 60.24C94.8142 60.3333 95.0309 60.38 95.2309 60.38C95.5109 60.38 95.7442 60.3367 95.9309 60.25C96.1242 60.1567 96.2776 60.0367 96.3909 59.89L97.2009 60.13C97.0209 60.4167 96.7642 60.6533 96.4309 60.84C96.0976 61.0267 95.6976 61.12 95.2309 61.12ZM93.7109 58.08H96.6309C96.6309 57.8467 96.5709 57.6233 96.4509 57.41C96.3376 57.1967 96.1742 57.0233 95.9609 56.89C95.7542 56.75 95.5042 56.68 95.2109 56.68C94.9642 56.68 94.7309 56.7267 94.5109 56.82C94.2909 56.9133 94.1076 57.0633 93.9609 57.27C93.8209 57.4767 93.7376 57.7467 93.7109 58.08ZM102.704 61.12C102.391 61.12 102.104 61.0633 101.844 60.95C101.584 60.8367 101.378 60.6733 101.224 60.46C101.071 60.2467 100.994 59.99 100.994 59.69C100.994 59.2967 101.131 58.9867 101.404 58.76C101.684 58.5333 102.074 58.36 102.574 58.24C103.081 58.1133 103.671 58.0133 104.344 57.94C104.358 57.52 104.274 57.1967 104.094 56.97C103.914 56.7433 103.624 56.63 103.224 56.63C102.924 56.63 102.678 56.7 102.484 56.84C102.298 56.9733 102.178 57.16 102.124 57.4L101.314 57.16C101.448 56.78 101.684 56.4867 102.024 56.28C102.371 56.0667 102.768 55.96 103.214 55.96C103.901 55.96 104.401 56.1233 104.714 56.45C105.034 56.77 105.194 57.2767 105.194 57.97V59.13C105.194 59.5433 105.211 59.9 105.244 60.2C105.278 60.5 105.318 60.7667 105.364 61H104.594L104.394 60.32C104.248 60.5667 104.038 60.7633 103.764 60.91C103.491 61.05 103.138 61.12 102.704 61.12ZM102.884 60.45C103.144 60.45 103.391 60.4033 103.624 60.31C103.858 60.2167 104.048 60.06 104.194 59.84C104.341 59.6133 104.414 59.3067 104.414 58.92V58.61C103.908 58.6633 103.468 58.73 103.094 58.81C102.721 58.8833 102.431 58.99 102.224 59.13C102.024 59.2633 101.924 59.4433 101.924 59.67C101.924 59.9033 102.008 60.0933 102.174 60.24C102.348 60.38 102.584 60.45 102.884 60.45ZM106.578 61V56.04H107.198L107.418 56.79C107.558 56.5567 107.748 56.36 107.988 56.2C108.235 56.04 108.541 55.96 108.908 55.96C109.288 55.96 109.595 56.0367 109.828 56.19C110.061 56.3433 110.231 56.5567 110.338 56.83C110.538 56.5233 110.778 56.3033 111.058 56.17C111.345 56.03 111.661 55.96 112.008 55.96C112.581 55.96 112.991 56.1367 113.238 56.49C113.485 56.8367 113.608 57.2933 113.608 57.86V61H112.768V58.11C112.768 57.8567 112.741 57.6233 112.688 57.41C112.641 57.19 112.541 57.0133 112.388 56.88C112.241 56.7467 112.015 56.68 111.708 56.68C111.348 56.68 111.058 56.82 110.838 57.1C110.625 57.3733 110.518 57.7767 110.518 58.31V61H109.678V58.11C109.678 57.8567 109.651 57.6233 109.598 57.41C109.551 57.19 109.451 57.0133 109.298 56.88C109.151 56.7467 108.925 56.68 108.618 56.68C108.258 56.68 107.968 56.82 107.748 57.1C107.528 57.3733 107.418 57.7767 107.418 58.31V61H106.578ZM116.939 61.12C116.652 61.12 116.369 61.07 116.089 60.97C115.809 60.87 115.552 60.7167 115.319 60.51C115.092 60.2967 114.909 60.0267 114.769 59.7C114.629 59.3733 114.559 58.9867 114.559 58.54C114.559 58.0933 114.629 57.7067 114.769 57.38C114.909 57.0533 115.092 56.7867 115.319 56.58C115.552 56.3667 115.809 56.21 116.089 56.11C116.369 56.01 116.652 55.96 116.939 55.96C117.225 55.96 117.509 56.01 117.789 56.11C118.075 56.21 118.332 56.3667 118.559 56.58C118.792 56.7867 118.975 57.0533 119.109 57.38C119.249 57.7067 119.319 58.0933 119.319 58.54C119.319 58.9867 119.249 59.3733 119.109 59.7C118.975 60.0267 118.792 60.2967 118.559 60.51C118.332 60.7167 118.075 60.87 117.789 60.97C117.509 61.07 117.225 61.12 116.939 61.12ZM116.939 60.38C117.179 60.38 117.412 60.3167 117.639 60.19C117.865 60.0567 118.052 59.8567 118.199 59.59C118.345 59.3167 118.419 58.9667 118.419 58.54C118.419 58.1133 118.345 57.7667 118.199 57.5C118.052 57.2267 117.865 57.0267 117.639 56.9C117.412 56.7667 117.179 56.7 116.939 56.7C116.705 56.7 116.472 56.7667 116.239 56.9C116.012 57.0267 115.825 57.2267 115.679 57.5C115.532 57.7667 115.459 58.1133 115.459 58.54C115.459 58.9667 115.532 59.3167 115.679 59.59C115.825 59.8567 116.012 60.0567 116.239 60.19C116.472 60.3167 116.705 60.38 116.939 60.38ZM121.966 61.12C121.58 61.12 121.27 61.04 121.036 60.88C120.803 60.7133 120.633 60.4867 120.526 60.2C120.426 59.9067 120.376 59.5733 120.376 59.2V56.03H121.216V59C121.216 59.3667 121.26 59.65 121.346 59.85C121.433 60.05 121.553 60.19 121.706 60.27C121.866 60.3433 122.05 60.38 122.256 60.38C122.65 60.38 122.956 60.2433 123.176 59.97C123.403 59.69 123.516 59.2867 123.516 58.76V56.03H124.356V61H123.726L123.516 60.28C123.376 60.52 123.186 60.72 122.946 60.88C122.706 61.04 122.38 61.12 121.966 61.12ZM125.758 61V56.04H126.378L126.598 56.79C126.738 56.5567 126.934 56.36 127.188 56.2C127.441 56.04 127.778 55.96 128.198 55.96C128.798 55.96 129.221 56.1367 129.468 56.49C129.714 56.8367 129.838 57.2933 129.838 57.86V61H128.998V58.11C128.998 57.8567 128.974 57.6233 128.928 57.41C128.881 57.19 128.778 57.0133 128.618 56.88C128.464 56.7467 128.228 56.68 127.908 56.68C127.501 56.68 127.181 56.82 126.948 57.1C126.714 57.3733 126.598 57.7767 126.598 58.31V61H125.758ZM132.6 61C132.286 61 132.043 60.97 131.87 60.91C131.703 60.8433 131.586 60.72 131.52 60.54C131.46 60.36 131.43 60.1 131.43 59.76V56.71H130.59V56.04H131.43V54.79H132.27V56.04H133.23V56.71H132.27V59.62C132.27 59.8733 132.293 60.0433 132.34 60.13C132.393 60.2167 132.54 60.26 132.78 60.26H133.23V61H132.6ZM139.195 61.12C138.908 61.12 138.625 61.07 138.345 60.97C138.065 60.87 137.808 60.7167 137.575 60.51C137.348 60.2967 137.165 60.0267 137.025 59.7C136.885 59.3733 136.815 58.9867 136.815 58.54C136.815 58.0933 136.885 57.7067 137.025 57.38C137.165 57.0533 137.348 56.7867 137.575 56.58C137.808 56.3667 138.065 56.21 138.345 56.11C138.625 56.01 138.908 55.96 139.195 55.96C139.481 55.96 139.765 56.01 140.045 56.11C140.331 56.21 140.588 56.3667 140.815 56.58C141.048 56.7867 141.231 57.0533 141.365 57.38C141.505 57.7067 141.575 58.0933 141.575 58.54C141.575 58.9867 141.505 59.3733 141.365 59.7C141.231 60.0267 141.048 60.2967 140.815 60.51C140.588 60.7167 140.331 60.87 140.045 60.97C139.765 61.07 139.481 61.12 139.195 61.12ZM139.195 60.38C139.435 60.38 139.668 60.3167 139.895 60.19C140.121 60.0567 140.308 59.8567 140.455 59.59C140.601 59.3167 140.675 58.9667 140.675 58.54C140.675 58.1133 140.601 57.7667 140.455 57.5C140.308 57.2267 140.121 57.0267 139.895 56.9C139.668 56.7667 139.435 56.7 139.195 56.7C138.961 56.7 138.728 56.7667 138.495 56.9C138.268 57.0267 138.081 57.2267 137.935 57.5C137.788 57.7667 137.715 58.1133 137.715 58.54C137.715 58.9667 137.788 59.3167 137.935 59.59C138.081 59.8567 138.268 60.0567 138.495 60.19C138.728 60.3167 138.961 60.38 139.195 60.38ZM142.942 61V56.71H142.102V56.04H142.942V55.3C142.942 54.96 142.975 54.69 143.042 54.49C143.109 54.29 143.239 54.15 143.432 54.07C143.625 53.9833 143.905 53.94 144.272 53.94H144.812V54.65H144.292C144.079 54.65 143.939 54.6933 143.872 54.78C143.812 54.8667 143.782 55.0367 143.782 55.29V56.04H144.812V56.71H143.782V61H142.942ZM151.01 61.12C150.624 61.12 150.297 61.0433 150.03 60.89C149.764 60.73 149.554 60.5167 149.4 60.25L149.18 61H148.56V54.32H149.4V56.82C149.554 56.56 149.764 56.3533 150.03 56.2C150.297 56.04 150.624 55.96 151.01 55.96C151.39 55.96 151.74 56.0633 152.06 56.27C152.387 56.47 152.647 56.7633 152.84 57.15C153.04 57.53 153.14 57.9933 153.14 58.54C153.14 59.0867 153.04 59.5533 152.84 59.94C152.647 60.32 152.387 60.6133 152.06 60.82C151.74 61.02 151.39 61.12 151.01 61.12ZM150.79 60.4C151.217 60.4 151.557 60.2367 151.81 59.91C152.07 59.5833 152.2 59.1267 152.2 58.54C152.2 57.9467 152.07 57.49 151.81 57.17C151.557 56.8433 151.217 56.68 150.79 56.68C150.364 56.68 150.02 56.8433 149.76 57.17C149.507 57.49 149.38 57.9467 149.38 58.54C149.38 59.1267 149.507 59.5833 149.76 59.91C150.02 60.2367 150.364 60.4 150.79 60.4ZM155.794 61.12C155.408 61.12 155.098 61.04 154.864 60.88C154.631 60.7133 154.461 60.4867 154.354 60.2C154.254 59.9067 154.204 59.5733 154.204 59.2V56.03H155.044V59C155.044 59.3667 155.088 59.65 155.174 59.85C155.261 60.05 155.381 60.19 155.534 60.27C155.694 60.3433 155.878 60.38 156.084 60.38C156.478 60.38 156.784 60.2433 157.004 59.97C157.231 59.69 157.344 59.2867 157.344 58.76V56.03H158.184V61H157.554L157.344 60.28C157.204 60.52 157.014 60.72 156.774 60.88C156.534 61.04 156.208 61.12 155.794 61.12ZM162.036 61.12C161.649 61.12 161.322 61.0433 161.056 60.89C160.789 60.73 160.579 60.5167 160.426 60.25L160.206 61H159.586V54.32H160.426V56.82C160.579 56.56 160.789 56.3533 161.056 56.2C161.322 56.04 161.649 55.96 162.036 55.96C162.416 55.96 162.766 56.0633 163.086 56.27C163.412 56.47 163.672 56.7633 163.866 57.15C164.066 57.53 164.166 57.9933 164.166 58.54C164.166 59.0867 164.066 59.5533 163.866 59.94C163.672 60.32 163.412 60.6133 163.086 60.82C162.766 61.02 162.416 61.12 162.036 61.12ZM161.816 60.4C162.242 60.4 162.582 60.2367 162.836 59.91C163.096 59.5833 163.226 59.1267 163.226 58.54C163.226 57.9467 163.096 57.49 162.836 57.17C162.582 56.8433 162.242 56.68 161.816 56.68C161.389 56.68 161.046 56.8433 160.786 57.17C160.532 57.49 160.406 57.9467 160.406 58.54C160.406 59.1267 160.532 59.5833 160.786 59.91C161.046 60.2367 161.389 60.4 161.816 60.4ZM167.7 61.12C167.313 61.12 166.986 61.0433 166.72 60.89C166.453 60.73 166.243 60.5167 166.09 60.25L165.87 61H165.25V54.32H166.09V56.82C166.243 56.56 166.453 56.3533 166.72 56.2C166.986 56.04 167.313 55.96 167.7 55.96C168.08 55.96 168.43 56.0633 168.75 56.27C169.076 56.47 169.336 56.7633 169.53 57.15C169.73 57.53 169.83 57.9933 169.83 58.54C169.83 59.0867 169.73 59.5533 169.53 59.94C169.336 60.32 169.076 60.6133 168.75 60.82C168.43 61.02 168.08 61.12 167.7 61.12ZM167.48 60.4C167.906 60.4 168.246 60.2367 168.5 59.91C168.76 59.5833 168.89 59.1267 168.89 58.54C168.89 57.9467 168.76 57.49 168.5 57.17C168.246 56.8433 167.906 56.68 167.48 56.68C167.053 56.68 166.71 56.8433 166.45 57.17C166.196 57.49 166.07 57.9467 166.07 58.54C166.07 59.1267 166.196 59.5833 166.45 59.91C166.71 60.2367 167.053 60.4 167.48 60.4ZM172.084 61C171.771 61 171.527 60.97 171.354 60.91C171.187 60.8433 171.071 60.72 171.004 60.54C170.944 60.36 170.914 60.1 170.914 59.76V54.33H171.754V59.62C171.754 59.8733 171.781 60.0433 171.834 60.13C171.887 60.2167 172.031 60.26 172.264 60.26H172.454V61H172.084ZM175.416 61.12C174.896 61.12 174.456 61.0067 174.096 60.78C173.736 60.5467 173.46 60.2367 173.266 59.85C173.08 59.4567 172.986 59.0167 172.986 58.53C172.986 58.0033 173.093 57.55 173.306 57.17C173.52 56.7833 173.806 56.4867 174.166 56.28C174.533 56.0667 174.943 55.96 175.396 55.96C175.79 55.96 176.136 56.04 176.436 56.2C176.736 56.3533 176.983 56.5633 177.176 56.83C177.376 57.09 177.52 57.3867 177.606 57.72C177.7 58.0533 177.733 58.3967 177.706 58.75H173.886C173.9 59.1633 173.99 59.49 174.156 59.73C174.33 59.97 174.533 60.14 174.766 60.24C175 60.3333 175.216 60.38 175.416 60.38C175.696 60.38 175.93 60.3367 176.116 60.25C176.31 60.1567 176.463 60.0367 176.576 59.89L177.386 60.13C177.206 60.4167 176.95 60.6533 176.616 60.84C176.283 61.0267 175.883 61.12 175.416 61.12ZM173.896 58.08H176.816C176.816 57.8467 176.756 57.6233 176.636 57.41C176.523 57.1967 176.36 57.0233 176.146 56.89C175.94 56.75 175.69 56.68 175.396 56.68C175.15 56.68 174.916 56.7267 174.696 56.82C174.476 56.9133 174.293 57.0633 174.146 57.27C174.006 57.4767 173.923 57.7467 173.896 58.08ZM180.387 61.12C180.1 61.12 179.817 61.0767 179.537 60.99C179.264 60.8967 179.017 60.76 178.797 60.58C178.584 60.3933 178.42 60.16 178.307 59.88L179.117 59.58C179.19 59.8733 179.35 60.0867 179.597 60.22C179.85 60.3467 180.114 60.41 180.387 60.41C180.587 60.41 180.774 60.38 180.947 60.32C181.127 60.26 181.274 60.1733 181.387 60.06C181.5 59.9467 181.557 59.8167 181.557 59.67C181.557 59.3967 181.447 59.2033 181.227 59.09C181.014 58.9767 180.757 58.89 180.457 58.83L179.767 58.69C179.527 58.6367 179.304 58.5633 179.097 58.47C178.89 58.37 178.724 58.23 178.597 58.05C178.47 57.87 178.407 57.63 178.407 57.33C178.407 57.03 178.5 56.78 178.687 56.58C178.874 56.3733 179.11 56.2167 179.397 56.11C179.69 56.0033 179.997 55.95 180.317 55.95C180.71 55.95 181.08 56.0333 181.427 56.2C181.78 56.36 182.03 56.6133 182.177 56.96L181.387 57.25C181.3 57.05 181.147 56.9033 180.927 56.81C180.714 56.71 180.49 56.66 180.257 56.66C180.004 56.66 179.774 56.7167 179.567 56.83C179.36 56.9433 179.257 57.1067 179.257 57.32C179.257 57.5333 179.344 57.69 179.517 57.79C179.697 57.8833 179.917 57.9567 180.177 58.01L180.827 58.14C181.094 58.1933 181.347 58.27 181.587 58.37C181.827 58.47 182.024 58.62 182.177 58.82C182.33 59.0133 182.407 59.2867 182.407 59.64C182.407 59.9533 182.31 60.22 182.117 60.44C181.924 60.66 181.674 60.83 181.367 60.95C181.06 61.0633 180.734 61.12 180.387 61.12ZM92.2176 73V68.04H92.8276L93.0976 68.96C93.2709 68.66 93.5042 68.42 93.7976 68.24C94.0976 68.0533 94.4542 67.96 94.8676 67.96V68.83C94.8209 68.83 94.7709 68.83 94.7176 68.83C94.6709 68.83 94.6242 68.8333 94.5776 68.84C94.0109 68.8867 93.6142 69.0833 93.3876 69.43C93.1676 69.7767 93.0576 70.2567 93.0576 70.87V73H92.2176ZM97.726 73.12C97.206 73.12 96.766 73.0067 96.406 72.78C96.046 72.5467 95.7693 72.2367 95.576 71.85C95.3893 71.4567 95.296 71.0167 95.296 70.53C95.296 70.0033 95.4027 69.55 95.616 69.17C95.8293 68.7833 96.116 68.4867 96.476 68.28C96.8427 68.0667 97.2527 67.96 97.706 67.96C98.0993 67.96 98.446 68.04 98.746 68.2C99.046 68.3533 99.2927 68.5633 99.486 68.83C99.686 69.09 99.8293 69.3867 99.916 69.72C100.009 70.0533 100.043 70.3967 100.016 70.75H96.196C96.2093 71.1633 96.2993 71.49 96.466 71.73C96.6393 71.97 96.8427 72.14 97.076 72.24C97.3093 72.3333 97.526 72.38 97.726 72.38C98.006 72.38 98.2393 72.3367 98.426 72.25C98.6193 72.1567 98.7727 72.0367 98.886 71.89L99.696 72.13C99.516 72.4167 99.2593 72.6533 98.926 72.84C98.5927 73.0267 98.1927 73.12 97.726 73.12ZM96.206 70.08H99.126C99.126 69.8467 99.066 69.6233 98.946 69.41C98.8327 69.1967 98.6693 69.0233 98.456 68.89C98.2493 68.75 97.9993 68.68 97.706 68.68C97.4593 68.68 97.226 68.7267 97.006 68.82C96.786 68.9133 96.6027 69.0633 96.456 69.27C96.316 69.4767 96.2327 69.7467 96.206 70.08ZM101.007 74.61V68.04H101.617L101.847 68.82C102 68.56 102.21 68.3533 102.477 68.2C102.743 68.04 103.07 67.96 103.457 67.96C103.837 67.96 104.187 68.0633 104.507 68.27C104.833 68.47 105.093 68.7633 105.287 69.15C105.487 69.53 105.587 69.9933 105.587 70.54C105.587 71.08 105.487 71.5433 105.287 71.93C105.093 72.3167 104.833 72.6133 104.507 72.82C104.187 73.02 103.837 73.12 103.457 73.12C103.07 73.12 102.743 73.0433 102.477 72.89C102.21 72.73 102 72.5167 101.847 72.25V74.61H101.007ZM103.237 72.4C103.663 72.4 104.003 72.2367 104.257 71.91C104.517 71.5833 104.647 71.1267 104.647 70.54C104.647 69.9467 104.517 69.49 104.257 69.17C104.003 68.8433 103.663 68.68 103.237 68.68C102.81 68.68 102.467 68.8433 102.207 69.17C101.953 69.49 101.827 69.9467 101.827 70.54C101.827 71.1267 101.953 71.5833 102.207 71.91C102.467 72.2367 102.81 72.4 103.237 72.4ZM106.671 73V68.04H107.281L107.551 68.96C107.724 68.66 107.957 68.42 108.251 68.24C108.551 68.0533 108.907 67.96 109.321 67.96V68.83C109.274 68.83 109.224 68.83 109.171 68.83C109.124 68.83 109.077 68.8333 109.031 68.84C108.464 68.8867 108.067 69.0833 107.841 69.43C107.621 69.7767 107.511 70.2567 107.511 70.87V73H106.671ZM112.179 73.12C111.659 73.12 111.219 73.0067 110.859 72.78C110.499 72.5467 110.222 72.2367 110.029 71.85C109.842 71.4567 109.749 71.0167 109.749 70.53C109.749 70.0033 109.856 69.55 110.069 69.17C110.282 68.7833 110.569 68.4867 110.929 68.28C111.296 68.0667 111.706 67.96 112.159 67.96C112.552 67.96 112.899 68.04 113.199 68.2C113.499 68.3533 113.746 68.5633 113.939 68.83C114.139 69.09 114.282 69.3867 114.369 69.72C114.462 70.0533 114.496 70.3967 114.469 70.75H110.649C110.662 71.1633 110.752 71.49 110.919 71.73C111.092 71.97 111.296 72.14 111.529 72.24C111.762 72.3333 111.979 72.38 112.179 72.38C112.459 72.38 112.692 72.3367 112.879 72.25C113.072 72.1567 113.226 72.0367 113.339 71.89L114.149 72.13C113.969 72.4167 113.712 72.6533 113.379 72.84C113.046 73.0267 112.646 73.12 112.179 73.12ZM110.659 70.08H113.579C113.579 69.8467 113.519 69.6233 113.399 69.41C113.286 69.1967 113.122 69.0233 112.909 68.89C112.702 68.75 112.452 68.68 112.159 68.68C111.912 68.68 111.679 68.7267 111.459 68.82C111.239 68.9133 111.056 69.0633 110.909 69.27C110.769 69.4767 110.686 69.7467 110.659 70.08ZM117.15 73.12C116.863 73.12 116.58 73.0767 116.3 72.99C116.026 72.8967 115.78 72.76 115.56 72.58C115.346 72.3933 115.183 72.16 115.07 71.88L115.88 71.58C115.953 71.8733 116.113 72.0867 116.36 72.22C116.613 72.3467 116.876 72.41 117.15 72.41C117.35 72.41 117.536 72.38 117.71 72.32C117.89 72.26 118.036 72.1733 118.15 72.06C118.263 71.9467 118.32 71.8167 118.32 71.67C118.32 71.3967 118.21 71.2033 117.99 71.09C117.776 70.9767 117.52 70.89 117.22 70.83L116.53 70.69C116.29 70.6367 116.066 70.5633 115.86 70.47C115.653 70.37 115.486 70.23 115.36 70.05C115.233 69.87 115.17 69.63 115.17 69.33C115.17 69.03 115.263 68.78 115.45 68.58C115.636 68.3733 115.873 68.2167 116.16 68.11C116.453 68.0033 116.76 67.95 117.08 67.95C117.473 67.95 117.843 68.0333 118.19 68.2C118.543 68.36 118.793 68.6133 118.94 68.96L118.15 69.25C118.063 69.05 117.91 68.9033 117.69 68.81C117.476 68.71 117.253 68.66 117.02 68.66C116.766 68.66 116.536 68.7167 116.33 68.83C116.123 68.9433 116.02 69.1067 116.02 69.32C116.02 69.5333 116.106 69.69 116.28 69.79C116.46 69.8833 116.68 69.9567 116.94 70.01L117.59 70.14C117.856 70.1933 118.11 70.27 118.35 70.37C118.59 70.47 118.786 70.62 118.94 70.82C119.093 71.0133 119.17 71.2867 119.17 71.64C119.17 71.9533 119.073 72.22 118.88 72.44C118.686 72.66 118.436 72.83 118.13 72.95C117.823 73.0633 117.496 73.12 117.15 73.12ZM122.277 73.12C121.757 73.12 121.317 73.0067 120.957 72.78C120.597 72.5467 120.32 72.2367 120.127 71.85C119.94 71.4567 119.847 71.0167 119.847 70.53C119.847 70.0033 119.953 69.55 120.167 69.17C120.38 68.7833 120.667 68.4867 121.027 68.28C121.393 68.0667 121.803 67.96 122.257 67.96C122.65 67.96 122.997 68.04 123.297 68.2C123.597 68.3533 123.843 68.5633 124.037 68.83C124.237 69.09 124.38 69.3867 124.467 69.72C124.56 70.0533 124.593 70.3967 124.567 70.75H120.747C120.76 71.1633 120.85 71.49 121.017 71.73C121.19 71.97 121.393 72.14 121.627 72.24C121.86 72.3333 122.077 72.38 122.277 72.38C122.557 72.38 122.79 72.3367 122.977 72.25C123.17 72.1567 123.323 72.0367 123.437 71.89L124.247 72.13C124.067 72.4167 123.81 72.6533 123.477 72.84C123.143 73.0267 122.743 73.12 122.277 73.12ZM120.757 70.08H123.677C123.677 69.8467 123.617 69.6233 123.497 69.41C123.383 69.1967 123.22 69.0233 123.007 68.89C122.8 68.75 122.55 68.68 122.257 68.68C122.01 68.68 121.777 68.7267 121.557 68.82C121.337 68.9133 121.153 69.0633 121.007 69.27C120.867 69.4767 120.783 69.7467 120.757 70.08ZM125.557 73V68.04H126.177L126.397 68.79C126.537 68.5567 126.734 68.36 126.987 68.2C127.241 68.04 127.577 67.96 127.997 67.96C128.597 67.96 129.021 68.1367 129.267 68.49C129.514 68.8367 129.637 69.2933 129.637 69.86V73H128.797V70.11C128.797 69.8567 128.774 69.6233 128.727 69.41C128.681 69.19 128.577 69.0133 128.417 68.88C128.264 68.7467 128.027 68.68 127.707 68.68C127.301 68.68 126.981 68.82 126.747 69.1C126.514 69.3733 126.397 69.7767 126.397 70.31V73H125.557ZM132.399 73C132.086 73 131.843 72.97 131.669 72.91C131.503 72.8433 131.386 72.72 131.319 72.54C131.259 72.36 131.229 72.1 131.229 71.76V68.71H130.389V68.04H131.229V66.79H132.069V68.04H133.029V68.71H132.069V71.62C132.069 71.8733 132.093 72.0433 132.139 72.13C132.193 72.2167 132.339 72.26 132.579 72.26H133.029V73H132.399ZM138.444 73C138.131 73 137.888 72.97 137.714 72.91C137.548 72.8433 137.431 72.72 137.364 72.54C137.304 72.36 137.274 72.1 137.274 71.76V68.71H136.434V68.04H137.274V66.79H138.114V68.04H139.074V68.71H138.114V71.62C138.114 71.8733 138.138 72.0433 138.184 72.13C138.238 72.2167 138.384 72.26 138.624 72.26H139.074V73H138.444ZM140.177 73V66.32H141.017V68.79C141.157 68.5567 141.353 68.36 141.607 68.2C141.86 68.04 142.197 67.96 142.617 67.96C143.217 67.96 143.64 68.1367 143.887 68.49C144.133 68.8367 144.257 69.2933 144.257 69.86V73H143.417V70.11C143.417 69.8567 143.393 69.6233 143.347 69.41C143.3 69.19 143.197 69.0133 143.037 68.88C142.883 68.7467 142.647 68.68 142.327 68.68C141.92 68.68 141.6 68.82 141.367 69.1C141.133 69.3733 141.017 69.7767 141.017 70.31V73H140.177ZM147.638 73.12C147.118 73.12 146.678 73.0067 146.318 72.78C145.958 72.5467 145.681 72.2367 145.488 71.85C145.301 71.4567 145.208 71.0167 145.208 70.53C145.208 70.0033 145.315 69.55 145.528 69.17C145.741 68.7833 146.028 68.4867 146.388 68.28C146.755 68.0667 147.165 67.96 147.618 67.96C148.011 67.96 148.358 68.04 148.658 68.2C148.958 68.3533 149.205 68.5633 149.398 68.83C149.598 69.09 149.741 69.3867 149.828 69.72C149.921 70.0533 149.955 70.3967 149.928 70.75H146.108C146.121 71.1633 146.211 71.49 146.378 71.73C146.551 71.97 146.755 72.14 146.988 72.24C147.221 72.3333 147.438 72.38 147.638 72.38C147.918 72.38 148.151 72.3367 148.338 72.25C148.531 72.1567 148.685 72.0367 148.798 71.89L149.608 72.13C149.428 72.4167 149.171 72.6533 148.838 72.84C148.505 73.0267 148.105 73.12 147.638 73.12ZM146.118 70.08H149.038C149.038 69.8467 148.978 69.6233 148.858 69.41C148.745 69.1967 148.581 69.0233 148.368 68.89C148.161 68.75 147.911 68.68 147.618 68.68C147.371 68.68 147.138 68.7267 146.918 68.82C146.698 68.9133 146.515 69.0633 146.368 69.27C146.228 69.4767 146.145 69.7467 146.118 70.08ZM155.231 73C154.918 73 154.675 72.97 154.501 72.91C154.335 72.8433 154.218 72.72 154.151 72.54C154.091 72.36 154.061 72.1 154.061 71.76V68.71H153.221V68.04H154.061V66.79H154.901V68.04H155.861V68.71H154.901V71.62C154.901 71.8733 154.925 72.0433 154.971 72.13C155.025 72.2167 155.171 72.26 155.411 72.26H155.861V73H155.231ZM159.024 73.12C158.737 73.12 158.454 73.07 158.174 72.97C157.894 72.87 157.637 72.7167 157.404 72.51C157.177 72.2967 156.994 72.0267 156.854 71.7C156.714 71.3733 156.644 70.9867 156.644 70.54C156.644 70.0933 156.714 69.7067 156.854 69.38C156.994 69.0533 157.177 68.7867 157.404 68.58C157.637 68.3667 157.894 68.21 158.174 68.11C158.454 68.01 158.737 67.96 159.024 67.96C159.31 67.96 159.594 68.01 159.874 68.11C160.16 68.21 160.417 68.3667 160.644 68.58C160.877 68.7867 161.06 69.0533 161.194 69.38C161.334 69.7067 161.404 70.0933 161.404 70.54C161.404 70.9867 161.334 71.3733 161.194 71.7C161.06 72.0267 160.877 72.2967 160.644 72.51C160.417 72.7167 160.16 72.87 159.874 72.97C159.594 73.07 159.31 73.12 159.024 73.12ZM159.024 72.38C159.264 72.38 159.497 72.3167 159.724 72.19C159.95 72.0567 160.137 71.8567 160.284 71.59C160.43 71.3167 160.504 70.9667 160.504 70.54C160.504 70.1133 160.43 69.7667 160.284 69.5C160.137 69.2267 159.95 69.0267 159.724 68.9C159.497 68.7667 159.264 68.7 159.024 68.7C158.79 68.7 158.557 68.7667 158.324 68.9C158.097 69.0267 157.91 69.2267 157.764 69.5C157.617 69.7667 157.544 70.1133 157.544 70.54C157.544 70.9667 157.617 71.3167 157.764 71.59C157.91 71.8567 158.097 72.0567 158.324 72.19C158.557 72.3167 158.79 72.38 159.024 72.38ZM163.991 73C163.678 73 163.435 72.97 163.261 72.91C163.095 72.8433 162.978 72.72 162.911 72.54C162.851 72.36 162.821 72.1 162.821 71.76V68.71H161.981V68.04H162.821V66.79H163.661V68.04H164.621V68.71H163.661V71.62C163.661 71.8733 163.685 72.0433 163.731 72.13C163.785 72.2167 163.931 72.26 164.171 72.26H164.621V73H163.991ZM167.113 73.12C166.8 73.12 166.513 73.0633 166.253 72.95C165.993 72.8367 165.787 72.6733 165.633 72.46C165.48 72.2467 165.403 71.99 165.403 71.69C165.403 71.2967 165.54 70.9867 165.813 70.76C166.093 70.5333 166.483 70.36 166.983 70.24C167.49 70.1133 168.08 70.0133 168.753 69.94C168.767 69.52 168.683 69.1967 168.503 68.97C168.323 68.7433 168.033 68.63 167.633 68.63C167.333 68.63 167.087 68.7 166.893 68.84C166.707 68.9733 166.587 69.16 166.533 69.4L165.723 69.16C165.857 68.78 166.093 68.4867 166.433 68.28C166.78 68.0667 167.177 67.96 167.623 67.96C168.31 67.96 168.81 68.1233 169.123 68.45C169.443 68.77 169.603 69.2767 169.603 69.97V71.13C169.603 71.5433 169.62 71.9 169.653 72.2C169.687 72.5 169.727 72.7667 169.773 73H169.003L168.803 72.32C168.657 72.5667 168.447 72.7633 168.173 72.91C167.9 73.05 167.547 73.12 167.113 73.12ZM167.293 72.45C167.553 72.45 167.8 72.4033 168.033 72.31C168.267 72.2167 168.457 72.06 168.603 71.84C168.75 71.6133 168.823 71.3067 168.823 70.92V70.61C168.317 70.6633 167.877 70.73 167.503 70.81C167.13 70.8833 166.84 70.99 166.633 71.13C166.433 71.2633 166.333 71.4433 166.333 71.67C166.333 71.9033 166.417 72.0933 166.583 72.24C166.757 72.38 166.993 72.45 167.293 72.45ZM172.157 73C171.844 73 171.6 72.97 171.427 72.91C171.26 72.8433 171.144 72.72 171.077 72.54C171.017 72.36 170.987 72.1 170.987 71.76V66.33H171.827V71.62C171.827 71.8733 171.854 72.0433 171.907 72.13C171.96 72.2167 172.104 72.26 172.337 72.26H172.527V73H172.157ZM92.2768 85L90.5068 80.04H91.4168L92.7168 83.9L94.0068 80.04H94.9168L93.1468 85H92.2768ZM96.4809 79.1C96.3142 79.1 96.1676 79.04 96.0409 78.92C95.9209 78.7933 95.8609 78.6433 95.8609 78.47C95.8609 78.2967 95.9209 78.15 96.0409 78.03C96.1676 77.91 96.3142 77.85 96.4809 77.85C96.6542 77.85 96.8009 77.91 96.9209 78.03C97.0476 78.15 97.1109 78.2967 97.1109 78.47C97.1109 78.6433 97.0476 78.7933 96.9209 78.92C96.8009 79.04 96.6542 79.1 96.4809 79.1ZM96.0609 85V80.71H95.3709V80.04H96.9009V85H96.0609ZM100.094 85.12C99.8074 85.12 99.5241 85.0767 99.2441 84.99C98.9708 84.8967 98.7241 84.76 98.5041 84.58C98.2908 84.3933 98.1274 84.16 98.0141 83.88L98.8241 83.58C98.8974 83.8733 99.0574 84.0867 99.3041 84.22C99.5574 84.3467 99.8208 84.41 100.094 84.41C100.294 84.41 100.481 84.38 100.654 84.32C100.834 84.26 100.981 84.1733 101.094 84.06C101.207 83.9467 101.264 83.8167 101.264 83.67C101.264 83.3967 101.154 83.2033 100.934 83.09C100.721 82.9767 100.464 82.89 100.164 82.83L99.4741 82.69C99.2341 82.6367 99.0108 82.5633 98.8041 82.47C98.5974 82.37 98.4308 82.23 98.3041 82.05C98.1774 81.87 98.1141 81.63 98.1141 81.33C98.1141 81.03 98.2074 80.78 98.3941 80.58C98.5808 80.3733 98.8174 80.2167 99.1041 80.11C99.3974 80.0033 99.7041 79.95 100.024 79.95C100.417 79.95 100.787 80.0333 101.134 80.2C101.487 80.36 101.737 80.6133 101.884 80.96L101.094 81.25C101.007 81.05 100.854 80.9033 100.634 80.81C100.421 80.71 100.197 80.66 99.9641 80.66C99.7108 80.66 99.4808 80.7167 99.2741 80.83C99.0674 80.9433 98.9641 81.1067 98.9641 81.32C98.9641 81.5333 99.0508 81.69 99.2241 81.79C99.4041 81.8833 99.6241 81.9567 99.8841 82.01L100.534 82.14C100.801 82.1933 101.054 82.27 101.294 82.37C101.534 82.47 101.731 82.62 101.884 82.82C102.037 83.0133 102.114 83.2867 102.114 83.64C102.114 83.9533 102.017 84.22 101.824 84.44C101.631 84.66 101.381 84.83 101.074 84.95C100.767 85.0633 100.441 85.12 100.094 85.12ZM104.681 85.12C104.294 85.12 103.984 85.04 103.751 84.88C103.518 84.7133 103.348 84.4867 103.241 84.2C103.141 83.9067 103.091 83.5733 103.091 83.2V80.03H103.931V83C103.931 83.3667 103.974 83.65 104.061 83.85C104.148 84.05 104.268 84.19 104.421 84.27C104.581 84.3433 104.764 84.38 104.971 84.38C105.364 84.38 105.671 84.2433 105.891 83.97C106.118 83.69 106.231 83.2867 106.231 82.76V80.03H107.071V85H106.441L106.231 84.28C106.091 84.52 105.901 84.72 105.661 84.88C105.421 85.04 105.094 85.12 104.681 85.12ZM109.862 85.12C109.549 85.12 109.262 85.0633 109.002 84.95C108.742 84.8367 108.536 84.6733 108.382 84.46C108.229 84.2467 108.152 83.99 108.152 83.69C108.152 83.2967 108.289 82.9867 108.562 82.76C108.842 82.5333 109.232 82.36 109.732 82.24C110.239 82.1133 110.829 82.0133 111.502 81.94C111.516 81.52 111.432 81.1967 111.252 80.97C111.072 80.7433 110.782 80.63 110.382 80.63C110.082 80.63 109.836 80.7 109.642 80.84C109.456 80.9733 109.336 81.16 109.282 81.4L108.472 81.16C108.606 80.78 108.842 80.4867 109.182 80.28C109.529 80.0667 109.926 79.96 110.372 79.96C111.059 79.96 111.559 80.1233 111.872 80.45C112.192 80.77 112.352 81.2767 112.352 81.97V83.13C112.352 83.5433 112.369 83.9 112.402 84.2C112.436 84.5 112.476 84.7667 112.522 85H111.752L111.552 84.32C111.406 84.5667 111.196 84.7633 110.922 84.91C110.649 85.05 110.296 85.12 109.862 85.12ZM110.042 84.45C110.302 84.45 110.549 84.4033 110.782 84.31C111.016 84.2167 111.206 84.06 111.352 83.84C111.499 83.6133 111.572 83.3067 111.572 82.92V82.61C111.066 82.6633 110.626 82.73 110.252 82.81C109.879 82.8833 109.589 82.99 109.382 83.13C109.182 83.2633 109.082 83.4433 109.082 83.67C109.082 83.9033 109.166 84.0933 109.332 84.24C109.506 84.38 109.742 84.45 110.042 84.45ZM114.906 85C114.593 85 114.349 84.97 114.176 84.91C114.009 84.8433 113.893 84.72 113.826 84.54C113.766 84.36 113.736 84.1 113.736 83.76V78.33H114.576V83.62C114.576 83.8733 114.603 84.0433 114.656 84.13C114.709 84.2167 114.853 84.26 115.086 84.26H115.276V85H114.906ZM120.321 85.12C120.008 85.12 119.721 85.0633 119.461 84.95C119.201 84.8367 118.995 84.6733 118.841 84.46C118.688 84.2467 118.611 83.99 118.611 83.69C118.611 83.2967 118.748 82.9867 119.021 82.76C119.301 82.5333 119.691 82.36 120.191 82.24C120.698 82.1133 121.288 82.0133 121.961 81.94C121.975 81.52 121.891 81.1967 121.711 80.97C121.531 80.7433 121.241 80.63 120.841 80.63C120.541 80.63 120.295 80.7 120.101 80.84C119.915 80.9733 119.795 81.16 119.741 81.4L118.931 81.16C119.065 80.78 119.301 80.4867 119.641 80.28C119.988 80.0667 120.385 79.96 120.831 79.96C121.518 79.96 122.018 80.1233 122.331 80.45C122.651 80.77 122.811 81.2767 122.811 81.97V83.13C122.811 83.5433 122.828 83.9 122.861 84.2C122.895 84.5 122.935 84.7667 122.981 85H122.211L122.011 84.32C121.865 84.5667 121.655 84.7633 121.381 84.91C121.108 85.05 120.755 85.12 120.321 85.12ZM120.501 84.45C120.761 84.45 121.008 84.4033 121.241 84.31C121.475 84.2167 121.665 84.06 121.811 83.84C121.958 83.6133 122.031 83.3067 122.031 82.92V82.61C121.525 82.6633 121.085 82.73 120.711 82.81C120.338 82.8833 120.048 82.99 119.841 83.13C119.641 83.2633 119.541 83.4433 119.541 83.67C119.541 83.9033 119.625 84.0933 119.791 84.24C119.965 84.38 120.201 84.45 120.501 84.45ZM124.195 86.61V80.04H124.805L125.035 80.82C125.188 80.56 125.398 80.3533 125.665 80.2C125.932 80.04 126.258 79.96 126.645 79.96C127.025 79.96 127.375 80.0633 127.695 80.27C128.022 80.47 128.282 80.7633 128.475 81.15C128.675 81.53 128.775 81.9933 128.775 82.54C128.775 83.08 128.675 83.5433 128.475 83.93C128.282 84.3167 128.022 84.6133 127.695 84.82C127.375 85.02 127.025 85.12 126.645 85.12C126.258 85.12 125.932 85.0433 125.665 84.89C125.398 84.73 125.188 84.5167 125.035 84.25V86.61H124.195ZM126.425 84.4C126.852 84.4 127.192 84.2367 127.445 83.91C127.705 83.5833 127.835 83.1267 127.835 82.54C127.835 81.9467 127.705 81.49 127.445 81.17C127.192 80.8433 126.852 80.68 126.425 80.68C125.998 80.68 125.655 80.8433 125.395 81.17C125.142 81.49 125.015 81.9467 125.015 82.54C125.015 83.1267 125.142 83.5833 125.395 83.91C125.655 84.2367 125.998 84.4 126.425 84.4ZM129.859 86.61V80.04H130.469L130.699 80.82C130.853 80.56 131.063 80.3533 131.329 80.2C131.596 80.04 131.923 79.96 132.309 79.96C132.689 79.96 133.039 80.0633 133.359 80.27C133.686 80.47 133.946 80.7633 134.139 81.15C134.339 81.53 134.439 81.9933 134.439 82.54C134.439 83.08 134.339 83.5433 134.139 83.93C133.946 84.3167 133.686 84.6133 133.359 84.82C133.039 85.02 132.689 85.12 132.309 85.12C131.923 85.12 131.596 85.0433 131.329 84.89C131.063 84.73 130.853 84.5167 130.699 84.25V86.61H129.859ZM132.089 84.4C132.516 84.4 132.856 84.2367 133.109 83.91C133.369 83.5833 133.499 83.1267 133.499 82.54C133.499 81.9467 133.369 81.49 133.109 81.17C132.856 80.8433 132.516 80.68 132.089 80.68C131.663 80.68 131.319 80.8433 131.059 81.17C130.806 81.49 130.679 81.9467 130.679 82.54C130.679 83.1267 130.806 83.5833 131.059 83.91C131.319 84.2367 131.663 84.4 132.089 84.4ZM137.633 85.12C137.113 85.12 136.673 85.0067 136.313 84.78C135.953 84.5467 135.677 84.2367 135.483 83.85C135.297 83.4567 135.203 83.0167 135.203 82.53C135.203 82.0033 135.31 81.55 135.523 81.17C135.737 80.7833 136.023 80.4867 136.383 80.28C136.75 80.0667 137.16 79.96 137.613 79.96C138.007 79.96 138.353 80.04 138.653 80.2C138.953 80.3533 139.2 80.5633 139.393 80.83C139.593 81.09 139.737 81.3867 139.823 81.72C139.917 82.0533 139.95 82.3967 139.923 82.75H136.103C136.117 83.1633 136.207 83.49 136.373 83.73C136.547 83.97 136.75 84.14 136.983 84.24C137.217 84.3333 137.433 84.38 137.633 84.38C137.913 84.38 138.147 84.3367 138.333 84.25C138.527 84.1567 138.68 84.0367 138.793 83.89L139.603 84.13C139.423 84.4167 139.167 84.6533 138.833 84.84C138.5 85.0267 138.1 85.12 137.633 85.12ZM136.113 82.08H139.033C139.033 81.8467 138.973 81.6233 138.853 81.41C138.74 81.1967 138.577 81.0233 138.363 80.89C138.157 80.75 137.907 80.68 137.613 80.68C137.367 80.68 137.133 80.7267 136.913 80.82C136.693 80.9133 136.51 81.0633 136.363 81.27C136.223 81.4767 136.14 81.7467 136.113 82.08ZM142.304 85.12C141.991 85.12 141.704 85.0633 141.444 84.95C141.184 84.8367 140.977 84.6733 140.824 84.46C140.671 84.2467 140.594 83.99 140.594 83.69C140.594 83.2967 140.731 82.9867 141.004 82.76C141.284 82.5333 141.674 82.36 142.174 82.24C142.681 82.1133 143.271 82.0133 143.944 81.94C143.957 81.52 143.874 81.1967 143.694 80.97C143.514 80.7433 143.224 80.63 142.824 80.63C142.524 80.63 142.277 80.7 142.084 80.84C141.897 80.9733 141.777 81.16 141.724 81.4L140.914 81.16C141.047 80.78 141.284 80.4867 141.624 80.28C141.971 80.0667 142.367 79.96 142.814 79.96C143.501 79.96 144.001 80.1233 144.314 80.45C144.634 80.77 144.794 81.2767 144.794 81.97V83.13C144.794 83.5433 144.811 83.9 144.844 84.2C144.877 84.5 144.917 84.7667 144.964 85H144.194L143.994 84.32C143.847 84.5667 143.637 84.7633 143.364 84.91C143.091 85.05 142.737 85.12 142.304 85.12ZM142.484 84.45C142.744 84.45 142.991 84.4033 143.224 84.31C143.457 84.2167 143.647 84.06 143.794 83.84C143.941 83.6133 144.014 83.3067 144.014 82.92V82.61C143.507 82.6633 143.067 82.73 142.694 82.81C142.321 82.8833 142.031 82.99 141.824 83.13C141.624 83.2633 141.524 83.4433 141.524 83.67C141.524 83.9033 141.607 84.0933 141.774 84.24C141.947 84.38 142.184 84.45 142.484 84.45ZM146.178 85V80.04H146.788L147.058 80.96C147.231 80.66 147.464 80.42 147.758 80.24C148.058 80.0533 148.414 79.96 148.828 79.96V80.83C148.781 80.83 148.731 80.83 148.678 80.83C148.631 80.83 148.584 80.8333 148.538 80.84C147.971 80.8867 147.574 81.0833 147.348 81.43C147.128 81.7767 147.018 82.2567 147.018 82.87V85H146.178ZM150.819 85.12C150.506 85.12 150.219 85.0633 149.959 84.95C149.699 84.8367 149.493 84.6733 149.339 84.46C149.186 84.2467 149.109 83.99 149.109 83.69C149.109 83.2967 149.246 82.9867 149.519 82.76C149.799 82.5333 150.189 82.36 150.689 82.24C151.196 82.1133 151.786 82.0133 152.459 81.94C152.473 81.52 152.389 81.1967 152.209 80.97C152.029 80.7433 151.739 80.63 151.339 80.63C151.039 80.63 150.793 80.7 150.599 80.84C150.413 80.9733 150.293 81.16 150.239 81.4L149.429 81.16C149.563 80.78 149.799 80.4867 150.139 80.28C150.486 80.0667 150.883 79.96 151.329 79.96C152.016 79.96 152.516 80.1233 152.829 80.45C153.149 80.77 153.309 81.2767 153.309 81.97V83.13C153.309 83.5433 153.326 83.9 153.359 84.2C153.393 84.5 153.433 84.7667 153.479 85H152.709L152.509 84.32C152.363 84.5667 152.153 84.7633 151.879 84.91C151.606 85.05 151.253 85.12 150.819 85.12ZM150.999 84.45C151.259 84.45 151.506 84.4033 151.739 84.31C151.973 84.2167 152.163 84.06 152.309 83.84C152.456 83.6133 152.529 83.3067 152.529 82.92V82.61C152.023 82.6633 151.583 82.73 151.209 82.81C150.836 82.8833 150.546 82.99 150.339 83.13C150.139 83.2633 150.039 83.4433 150.039 83.67C150.039 83.9033 150.123 84.0933 150.289 84.24C150.463 84.38 150.699 84.45 150.999 84.45ZM154.693 85V80.04H155.313L155.533 80.79C155.673 80.5567 155.87 80.36 156.123 80.2C156.376 80.04 156.713 79.96 157.133 79.96C157.733 79.96 158.156 80.1367 158.403 80.49C158.65 80.8367 158.773 81.2933 158.773 81.86V85H157.933V82.11C157.933 81.8567 157.91 81.6233 157.863 81.41C157.816 81.19 157.713 81.0133 157.553 80.88C157.4 80.7467 157.163 80.68 156.843 80.68C156.436 80.68 156.116 80.82 155.883 81.1C155.65 81.3733 155.533 81.7767 155.533 82.31V85H154.693ZM162.035 85.12C161.561 85.12 161.151 85.01 160.805 84.79C160.458 84.5633 160.191 84.2567 160.005 83.87C159.818 83.4833 159.725 83.04 159.725 82.54C159.725 82.0467 159.821 81.6067 160.015 81.22C160.215 80.8267 160.495 80.52 160.855 80.3C161.215 80.0733 161.638 79.96 162.125 79.96C162.571 79.96 162.955 80.07 163.275 80.29C163.595 80.51 163.835 80.7733 163.995 81.08L163.225 81.36C163.118 81.16 162.961 81 162.755 80.88C162.548 80.76 162.318 80.7 162.065 80.7C161.818 80.7 161.585 80.7667 161.365 80.9C161.145 81.0267 160.968 81.2267 160.835 81.5C160.701 81.7667 160.635 82.11 160.635 82.53C160.635 82.9433 160.701 83.29 160.835 83.57C160.975 83.8433 161.151 84.0467 161.365 84.18C161.585 84.3133 161.818 84.38 162.065 84.38C162.338 84.38 162.575 84.32 162.775 84.2C162.981 84.0733 163.138 83.9167 163.245 83.73L164.015 84.01C163.828 84.33 163.561 84.5967 163.215 84.81C162.868 85.0167 162.475 85.12 162.035 85.12ZM167.155 85.12C166.635 85.12 166.195 85.0067 165.835 84.78C165.475 84.5467 165.198 84.2367 165.005 83.85C164.818 83.4567 164.725 83.0167 164.725 82.53C164.725 82.0033 164.831 81.55 165.045 81.17C165.258 80.7833 165.545 80.4867 165.905 80.28C166.271 80.0667 166.681 79.96 167.135 79.96C167.528 79.96 167.875 80.04 168.175 80.2C168.475 80.3533 168.721 80.5633 168.915 80.83C169.115 81.09 169.258 81.3867 169.345 81.72C169.438 82.0533 169.471 82.3967 169.445 82.75H165.625C165.638 83.1633 165.728 83.49 165.895 83.73C166.068 83.97 166.271 84.14 166.505 84.24C166.738 84.3333 166.955 84.38 167.155 84.38C167.435 84.38 167.668 84.3367 167.855 84.25C168.048 84.1567 168.201 84.0367 168.315 83.89L169.125 84.13C168.945 84.4167 168.688 84.6533 168.355 84.84C168.021 85.0267 167.621 85.12 167.155 85.12ZM165.635 82.08H168.555C168.555 81.8467 168.495 81.6233 168.375 81.41C168.261 81.1967 168.098 81.0233 167.885 80.89C167.678 80.75 167.428 80.68 167.135 80.68C166.888 80.68 166.655 80.7267 166.435 80.82C166.215 80.9133 166.031 81.0633 165.885 81.27C165.745 81.4767 165.661 81.7467 165.635 82.08ZM172.125 85.12C171.839 85.12 171.555 85.0767 171.275 84.99C171.002 84.8967 170.755 84.76 170.535 84.58C170.322 84.3933 170.159 84.16 170.045 83.88L170.855 83.58C170.929 83.8733 171.089 84.0867 171.335 84.22C171.589 84.3467 171.852 84.41 172.125 84.41C172.325 84.41 172.512 84.38 172.685 84.32C172.865 84.26 173.012 84.1733 173.125 84.06C173.239 83.9467 173.295 83.8167 173.295 83.67C173.295 83.3967 173.185 83.2033 172.965 83.09C172.752 82.9767 172.495 82.89 172.195 82.83L171.505 82.69C171.265 82.6367 171.042 82.5633 170.835 82.47C170.629 82.37 170.462 82.23 170.335 82.05C170.209 81.87 170.145 81.63 170.145 81.33C170.145 81.03 170.239 80.78 170.425 80.58C170.612 80.3733 170.849 80.2167 171.135 80.11C171.429 80.0033 171.735 79.95 172.055 79.95C172.449 79.95 172.819 80.0333 173.165 80.2C173.519 80.36 173.769 80.6133 173.915 80.96L173.125 81.25C173.039 81.05 172.885 80.9033 172.665 80.81C172.452 80.71 172.229 80.66 171.995 80.66C171.742 80.66 171.512 80.7167 171.305 80.83C171.099 80.9433 170.995 81.1067 170.995 81.32C170.995 81.5333 171.082 81.69 171.255 81.79C171.435 81.8833 171.655 81.9567 171.915 82.01L172.565 82.14C172.832 82.1933 173.085 82.27 173.325 82.37C173.565 82.47 173.762 82.62 173.915 82.82C174.069 83.0133 174.145 83.2867 174.145 83.64C174.145 83.9533 174.049 84.22 173.855 84.44C173.662 84.66 173.412 84.83 173.105 84.95C172.799 85.0633 172.472 85.12 172.125 85.12ZM175.462 85.12C175.289 85.12 175.139 85.0567 175.012 84.93C174.886 84.8033 174.822 84.6533 174.822 84.48C174.822 84.3 174.886 84.1467 175.012 84.02C175.139 83.8933 175.289 83.83 175.462 83.83C175.642 83.83 175.796 83.8933 175.922 84.02C176.049 84.1467 176.112 84.3 176.112 84.48C176.112 84.6533 176.049 84.8033 175.922 84.93C175.796 85.0567 175.642 85.12 175.462 85.12Z" fill="black"/>
<circle cx="120.999" cy="36.7045" r="9.85294" fill="#FCF4E9" stroke="black"/>
<circle cx="148.293" cy="36.7045" r="9.85294" fill="#FCF4E9" stroke="black"/>
<circle cx="134.177" cy="15.9994" r="9.85294" fill="#FCF4E9" stroke="black"/>
<circle cx="158.647" cy="11.7631" r="9.85294" fill="#FCF4E9" stroke="black"/>
<circle cx="107.353" cy="10.3529" r="9.85294" fill="#FCF4E9" stroke="black"/>
<path d="M12.0004 61L14.5104 54.31H15.5604L18.0604 61H17.0604L16.5504 59.54H13.5104L13.0004 61H12.0004ZM13.8004 58.73H16.2604L15.0304 55.26L13.8004 58.73ZM24.1129 61.12C23.7262 61.12 23.3996 61.0433 23.1329 60.89C22.8662 60.73 22.6562 60.5167 22.5029 60.25L22.2829 61H21.6629V54.32H22.5029V56.82C22.6562 56.56 22.8662 56.3533 23.1329 56.2C23.3996 56.04 23.7262 55.96 24.1129 55.96C24.4929 55.96 24.8429 56.0633 25.1629 56.27C25.4896 56.47 25.7496 56.7633 25.9429 57.15C26.1429 57.53 26.2429 57.9933 26.2429 58.54C26.2429 59.0867 26.1429 59.5533 25.9429 59.94C25.7496 60.32 25.4896 60.6133 25.1629 60.82C24.8429 61.02 24.4929 61.12 24.1129 61.12ZM23.8929 60.4C24.3196 60.4 24.6596 60.2367 24.9129 59.91C25.1729 59.5833 25.3029 59.1267 25.3029 58.54C25.3029 57.9467 25.1729 57.49 24.9129 57.17C24.6596 56.8433 24.3196 56.68 23.8929 56.68C23.4662 56.68 23.1229 56.8433 22.8629 57.17C22.6096 57.49 22.4829 57.9467 22.4829 58.54C22.4829 59.1267 22.6096 59.5833 22.8629 59.91C23.1229 60.2367 23.4662 60.4 23.8929 60.4ZM28.897 61.12C28.5103 61.12 28.2003 61.04 27.967 60.88C27.7336 60.7133 27.5636 60.4867 27.457 60.2C27.357 59.9067 27.307 59.5733 27.307 59.2V56.03H28.147V59C28.147 59.3667 28.1903 59.65 28.277 59.85C28.3636 60.05 28.4836 60.19 28.637 60.27C28.797 60.3433 28.9803 60.38 29.187 60.38C29.5803 60.38 29.887 60.2433 30.107 59.97C30.3336 59.69 30.447 59.2867 30.447 58.76V56.03H31.287V61H30.657L30.447 60.28C30.307 60.52 30.117 60.72 29.877 60.88C29.637 61.04 29.3103 61.12 28.897 61.12ZM35.1383 61.12C34.7516 61.12 34.4249 61.0433 34.1583 60.89C33.8916 60.73 33.6816 60.5167 33.5283 60.25L33.3083 61H32.6883V54.32H33.5283V56.82C33.6816 56.56 33.8916 56.3533 34.1583 56.2C34.4249 56.04 34.7516 55.96 35.1383 55.96C35.5183 55.96 35.8683 56.0633 36.1883 56.27C36.5149 56.47 36.7749 56.7633 36.9683 57.15C37.1683 57.53 37.2683 57.9933 37.2683 58.54C37.2683 59.0867 37.1683 59.5533 36.9683 59.94C36.7749 60.32 36.5149 60.6133 36.1883 60.82C35.8683 61.02 35.5183 61.12 35.1383 61.12ZM34.9183 60.4C35.3449 60.4 35.6849 60.2367 35.9383 59.91C36.1983 59.5833 36.3283 59.1267 36.3283 58.54C36.3283 57.9467 36.1983 57.49 35.9383 57.17C35.6849 56.8433 35.3449 56.68 34.9183 56.68C34.4916 56.68 34.1483 56.8433 33.8883 57.17C33.6349 57.49 33.5083 57.9467 33.5083 58.54C33.5083 59.1267 33.6349 59.5833 33.8883 59.91C34.1483 60.2367 34.4916 60.4 34.9183 60.4ZM40.8023 61.12C40.4157 61.12 40.089 61.0433 39.8223 60.89C39.5557 60.73 39.3457 60.5167 39.1923 60.25L38.9723 61H38.3523V54.32H39.1923V56.82C39.3457 56.56 39.5557 56.3533 39.8223 56.2C40.089 56.04 40.4157 55.96 40.8023 55.96C41.1823 55.96 41.5323 56.0633 41.8523 56.27C42.179 56.47 42.439 56.7633 42.6323 57.15C42.8323 57.53 42.9323 57.9933 42.9323 58.54C42.9323 59.0867 42.8323 59.5533 42.6323 59.94C42.439 60.32 42.179 60.6133 41.8523 60.82C41.5323 61.02 41.1823 61.12 40.8023 61.12ZM40.5823 60.4C41.009 60.4 41.349 60.2367 41.6023 59.91C41.8623 59.5833 41.9923 59.1267 41.9923 58.54C41.9923 57.9467 41.8623 57.49 41.6023 57.17C41.349 56.8433 41.009 56.68 40.5823 56.68C40.1557 56.68 39.8123 56.8433 39.5523 57.17C39.299 57.49 39.1723 57.9467 39.1723 58.54C39.1723 59.1267 39.299 59.5833 39.5523 59.91C39.8123 60.2367 40.1557 60.4 40.5823 60.4ZM45.1864 61C44.8731 61 44.6297 60.97 44.4564 60.91C44.2897 60.8433 44.1731 60.72 44.1064 60.54C44.0464 60.36 44.0164 60.1 44.0164 59.76V54.33H44.8564V59.62C44.8564 59.8733 44.8831 60.0433 44.9364 60.13C44.9897 60.2167 45.1331 60.26 45.3664 60.26H45.5564V61H45.1864ZM48.519 61.12C47.999 61.12 47.559 61.0067 47.199 60.78C46.839 60.5467 46.5623 60.2367 46.369 59.85C46.1823 59.4567 46.089 59.0167 46.089 58.53C46.089 58.0033 46.1957 57.55 46.409 57.17C46.6223 56.7833 46.909 56.4867 47.269 56.28C47.6357 56.0667 48.0457 55.96 48.499 55.96C48.8923 55.96 49.239 56.04 49.539 56.2C49.839 56.3533 50.0857 56.5633 50.279 56.83C50.479 57.09 50.6223 57.3867 50.709 57.72C50.8023 58.0533 50.8357 58.3967 50.809 58.75H46.989C47.0023 59.1633 47.0923 59.49 47.259 59.73C47.4323 59.97 47.6357 60.14 47.869 60.24C48.1023 60.3333 48.319 60.38 48.519 60.38C48.799 60.38 49.0323 60.3367 49.219 60.25C49.4123 60.1567 49.5657 60.0367 49.679 59.89L50.489 60.13C50.309 60.4167 50.0523 60.6533 49.719 60.84C49.3857 61.0267 48.9857 61.12 48.519 61.12ZM46.999 58.08H49.919C49.919 57.8467 49.859 57.6233 49.739 57.41C49.6257 57.1967 49.4623 57.0233 49.249 56.89C49.0423 56.75 48.7923 56.68 48.499 56.68C48.2523 56.68 48.019 56.7267 47.799 56.82C47.579 56.9133 47.3957 57.0633 47.249 57.27C47.109 57.4767 47.0257 57.7467 46.999 58.08ZM0.725391 73V68.04H1.33539L1.60539 68.96C1.77872 68.66 2.01206 68.42 2.30539 68.24C2.60539 68.0533 2.96206 67.96 3.37539 67.96V68.83C3.32872 68.83 3.27872 68.83 3.22539 68.83C3.17872 68.83 3.13206 68.8333 3.08539 68.84C2.51872 68.8867 2.12206 69.0833 1.89539 69.43C1.67539 69.7767 1.56539 70.2567 1.56539 70.87V73H0.725391ZM6.23383 73.12C5.71383 73.12 5.27383 73.0067 4.91383 72.78C4.55383 72.5467 4.27716 72.2367 4.08383 71.85C3.89716 71.4567 3.80383 71.0167 3.80383 70.53C3.80383 70.0033 3.91049 69.55 4.12383 69.17C4.33716 68.7833 4.62383 68.4867 4.98383 68.28C5.35049 68.0667 5.76049 67.96 6.21383 67.96C6.60716 67.96 6.95383 68.04 7.25383 68.2C7.55383 68.3533 7.8005 68.5633 7.99383 68.83C8.19383 69.09 8.33716 69.3867 8.42383 69.72C8.51716 70.0533 8.55049 70.3967 8.52383 70.75H4.70383C4.71716 71.1633 4.80716 71.49 4.97383 71.73C5.14716 71.97 5.35049 72.14 5.58383 72.24C5.81716 72.3333 6.03383 72.38 6.23383 72.38C6.51383 72.38 6.74716 72.3367 6.93383 72.25C7.12716 72.1567 7.2805 72.0367 7.39383 71.89L8.20383 72.13C8.02383 72.4167 7.76716 72.6533 7.43383 72.84C7.10049 73.0267 6.70049 73.12 6.23383 73.12ZM4.71383 70.08H7.63383C7.63383 69.8467 7.57383 69.6233 7.45383 69.41C7.34049 69.1967 7.17716 69.0233 6.96383 68.89C6.75716 68.75 6.50716 68.68 6.21383 68.68C5.96716 68.68 5.73383 68.7267 5.51383 68.82C5.29383 68.9133 5.11049 69.0633 4.96383 69.27C4.82383 69.4767 4.74049 69.7467 4.71383 70.08ZM9.51445 74.61V68.04H10.1245L10.3545 68.82C10.5078 68.56 10.7178 68.3533 10.9845 68.2C11.2511 68.04 11.5778 67.96 11.9645 67.96C12.3445 67.96 12.6945 68.0633 13.0145 68.27C13.3411 68.47 13.6011 68.7633 13.7945 69.15C13.9945 69.53 14.0945 69.9933 14.0945 70.54C14.0945 71.08 13.9945 71.5433 13.7945 71.93C13.6011 72.3167 13.3411 72.6133 13.0145 72.82C12.6945 73.02 12.3445 73.12 11.9645 73.12C11.5778 73.12 11.2511 73.0433 10.9845 72.89C10.7178 72.73 10.5078 72.5167 10.3545 72.25V74.61H9.51445ZM11.7445 72.4C12.1711 72.4 12.5111 72.2367 12.7645 71.91C13.0245 71.5833 13.1545 71.1267 13.1545 70.54C13.1545 69.9467 13.0245 69.49 12.7645 69.17C12.5111 68.8433 12.1711 68.68 11.7445 68.68C11.3178 68.68 10.9745 68.8433 10.7145 69.17C10.4611 69.49 10.3345 69.9467 10.3345 70.54C10.3345 71.1267 10.4611 71.5833 10.7145 71.91C10.9745 72.2367 11.3178 72.4 11.7445 72.4ZM15.1785 73V68.04H15.7885L16.0585 68.96C16.2318 68.66 16.4652 68.42 16.7585 68.24C17.0585 68.0533 17.4152 67.96 17.8285 67.96V68.83C17.7818 68.83 17.7318 68.83 17.6785 68.83C17.6318 68.83 17.5852 68.8333 17.5385 68.84C16.9718 68.8867 16.5752 69.0833 16.3485 69.43C16.1285 69.7767 16.0185 70.2567 16.0185 70.87V73H15.1785ZM20.687 73.12C20.167 73.12 19.727 73.0067 19.367 72.78C19.007 72.5467 18.7303 72.2367 18.537 71.85C18.3503 71.4567 18.257 71.0167 18.257 70.53C18.257 70.0033 18.3636 69.55 18.577 69.17C18.7903 68.7833 19.077 68.4867 19.437 68.28C19.8036 68.0667 20.2136 67.96 20.667 67.96C21.0603 67.96 21.407 68.04 21.707 68.2C22.007 68.3533 22.2536 68.5633 22.447 68.83C22.647 69.09 22.7903 69.3867 22.877 69.72C22.9703 70.0533 23.0036 70.3967 22.977 70.75H19.157C19.1703 71.1633 19.2603 71.49 19.427 71.73C19.6003 71.97 19.8036 72.14 20.037 72.24C20.2703 72.3333 20.487 72.38 20.687 72.38C20.967 72.38 21.2003 72.3367 21.387 72.25C21.5803 72.1567 21.7336 72.0367 21.847 71.89L22.657 72.13C22.477 72.4167 22.2203 72.6533 21.887 72.84C21.5536 73.0267 21.1536 73.12 20.687 73.12ZM19.167 70.08H22.087C22.087 69.8467 22.027 69.6233 21.907 69.41C21.7936 69.1967 21.6303 69.0233 21.417 68.89C21.2103 68.75 20.9603 68.68 20.667 68.68C20.4203 68.68 20.187 68.7267 19.967 68.82C19.747 68.9133 19.5636 69.0633 19.417 69.27C19.277 69.4767 19.1936 69.7467 19.167 70.08ZM25.6576 73.12C25.3709 73.12 25.0876 73.0767 24.8076 72.99C24.5342 72.8967 24.2876 72.76 24.0676 72.58C23.8542 72.3933 23.6909 72.16 23.5776 71.88L24.3876 71.58C24.4609 71.8733 24.6209 72.0867 24.8676 72.22C25.1209 72.3467 25.3842 72.41 25.6576 72.41C25.8576 72.41 26.0442 72.38 26.2176 72.32C26.3976 72.26 26.5442 72.1733 26.6576 72.06C26.7709 71.9467 26.8276 71.8167 26.8276 71.67C26.8276 71.3967 26.7176 71.2033 26.4976 71.09C26.2842 70.9767 26.0276 70.89 25.7276 70.83L25.0376 70.69C24.7976 70.6367 24.5742 70.5633 24.3676 70.47C24.1609 70.37 23.9942 70.23 23.8676 70.05C23.7409 69.87 23.6776 69.63 23.6776 69.33C23.6776 69.03 23.7709 68.78 23.9576 68.58C24.1442 68.3733 24.3809 68.2167 24.6676 68.11C24.9609 68.0033 25.2676 67.95 25.5876 67.95C25.9809 67.95 26.3509 68.0333 26.6976 68.2C27.0509 68.36 27.3009 68.6133 27.4476 68.96L26.6576 69.25C26.5709 69.05 26.4176 68.9033 26.1976 68.81C25.9842 68.71 25.7609 68.66 25.5276 68.66C25.2742 68.66 25.0442 68.7167 24.8376 68.83C24.6309 68.9433 24.5276 69.1067 24.5276 69.32C24.5276 69.5333 24.6142 69.69 24.7876 69.79C24.9676 69.8833 25.1876 69.9567 25.4476 70.01L26.0976 70.14C26.3642 70.1933 26.6176 70.27 26.8576 70.37C27.0976 70.47 27.2942 70.62 27.4476 70.82C27.6009 71.0133 27.6776 71.2867 27.6776 71.64C27.6776 71.9533 27.5809 72.22 27.3876 72.44C27.1942 72.66 26.9442 72.83 26.6376 72.95C26.3309 73.0633 26.0042 73.12 25.6576 73.12ZM30.7846 73.12C30.2646 73.12 29.8246 73.0067 29.4646 72.78C29.1046 72.5467 28.8279 72.2367 28.6346 71.85C28.4479 71.4567 28.3546 71.0167 28.3546 70.53C28.3546 70.0033 28.4613 69.55 28.6746 69.17C28.8879 68.7833 29.1746 68.4867 29.5346 68.28C29.9013 68.0667 30.3113 67.96 30.7646 67.96C31.1579 67.96 31.5046 68.04 31.8046 68.2C32.1046 68.3533 32.3513 68.5633 32.5446 68.83C32.7446 69.09 32.8879 69.3867 32.9746 69.72C33.0679 70.0533 33.1013 70.3967 33.0746 70.75H29.2546C29.2679 71.1633 29.3579 71.49 29.5246 71.73C29.6979 71.97 29.9013 72.14 30.1346 72.24C30.3679 72.3333 30.5846 72.38 30.7846 72.38C31.0646 72.38 31.2979 72.3367 31.4846 72.25C31.6779 72.1567 31.8313 72.0367 31.9446 71.89L32.7546 72.13C32.5746 72.4167 32.3179 72.6533 31.9846 72.84C31.6513 73.0267 31.2513 73.12 30.7846 73.12ZM29.2646 70.08H32.1846C32.1846 69.8467 32.1246 69.6233 32.0046 69.41C31.8913 69.1967 31.7279 69.0233 31.5146 68.89C31.3079 68.75 31.0579 68.68 30.7646 68.68C30.5179 68.68 30.2846 68.7267 30.0646 68.82C29.8446 68.9133 29.6613 69.0633 29.5146 69.27C29.3746 69.4767 29.2913 69.7467 29.2646 70.08ZM34.0652 73V68.04H34.6852L34.9052 68.79C35.0452 68.5567 35.2419 68.36 35.4952 68.2C35.7486 68.04 36.0852 67.96 36.5052 67.96C37.1052 67.96 37.5286 68.1367 37.7752 68.49C38.0219 68.8367 38.1452 69.2933 38.1452 69.86V73H37.3052V70.11C37.3052 69.8567 37.2819 69.6233 37.2352 69.41C37.1886 69.19 37.0852 69.0133 36.9252 68.88C36.7719 68.7467 36.5352 68.68 36.2152 68.68C35.8086 68.68 35.4886 68.82 35.2552 69.1C35.0219 69.3733 34.9052 69.7767 34.9052 70.31V73H34.0652ZM40.9073 73C40.5939 73 40.3506 72.97 40.1773 72.91C40.0106 72.8433 39.8939 72.72 39.8273 72.54C39.7673 72.36 39.7373 72.1 39.7373 71.76V68.71H38.8973V68.04H39.7373V66.79H40.5773V68.04H41.5373V68.71H40.5773V71.62C40.5773 71.8733 40.6006 72.0433 40.6473 72.13C40.7006 72.2167 40.8473 72.26 41.0873 72.26H41.5373V73H40.9073ZM44.3295 73.12C44.0428 73.12 43.7595 73.0767 43.4795 72.99C43.2061 72.8967 42.9595 72.76 42.7395 72.58C42.5261 72.3933 42.3628 72.16 42.2495 71.88L43.0595 71.58C43.1328 71.8733 43.2928 72.0867 43.5395 72.22C43.7928 72.3467 44.0561 72.41 44.3295 72.41C44.5295 72.41 44.7161 72.38 44.8895 72.32C45.0695 72.26 45.2161 72.1733 45.3295 72.06C45.4428 71.9467 45.4995 71.8167 45.4995 71.67C45.4995 71.3967 45.3895 71.2033 45.1695 71.09C44.9561 70.9767 44.6995 70.89 44.3995 70.83L43.7095 70.69C43.4695 70.6367 43.2461 70.5633 43.0395 70.47C42.8328 70.37 42.6661 70.23 42.5395 70.05C42.4128 69.87 42.3495 69.63 42.3495 69.33C42.3495 69.03 42.4428 68.78 42.6295 68.58C42.8161 68.3733 43.0528 68.2167 43.3395 68.11C43.6328 68.0033 43.9395 67.95 44.2595 67.95C44.6528 67.95 45.0228 68.0333 45.3695 68.2C45.7228 68.36 45.9728 68.6133 46.1195 68.96L45.3295 69.25C45.2428 69.05 45.0895 68.9033 44.8695 68.81C44.6561 68.71 44.4328 68.66 44.1995 68.66C43.9461 68.66 43.7161 68.7167 43.5095 68.83C43.3028 68.9433 43.1995 69.1067 43.1995 69.32C43.1995 69.5333 43.2861 69.69 43.4595 69.79C43.6395 69.8833 43.8595 69.9567 44.1195 70.01L44.7695 70.14C45.0361 70.1933 45.2895 70.27 45.5295 70.37C45.7695 70.47 45.9661 70.62 46.1195 70.82C46.2728 71.0133 46.3495 71.2867 46.3495 71.64C46.3495 71.9533 46.2528 72.22 46.0595 72.44C45.8661 72.66 45.6161 72.83 45.3095 72.95C45.0028 73.0633 44.6761 73.12 44.3295 73.12ZM51.5392 73.12C51.2259 73.12 50.9392 73.0633 50.6792 72.95C50.4192 72.8367 50.2126 72.6733 50.0592 72.46C49.9059 72.2467 49.8292 71.99 49.8292 71.69C49.8292 71.2967 49.9659 70.9867 50.2392 70.76C50.5192 70.5333 50.9092 70.36 51.4092 70.24C51.9159 70.1133 52.5059 70.0133 53.1792 69.94C53.1926 69.52 53.1092 69.1967 52.9292 68.97C52.7492 68.7433 52.4592 68.63 52.0592 68.63C51.7592 68.63 51.5126 68.7 51.3192 68.84C51.1326 68.9733 51.0126 69.16 50.9592 69.4L50.1492 69.16C50.2826 68.78 50.5192 68.4867 50.8592 68.28C51.2059 68.0667 51.6026 67.96 52.0492 67.96C52.7359 67.96 53.2359 68.1233 53.5492 68.45C53.8692 68.77 54.0292 69.2767 54.0292 69.97V71.13C54.0292 71.5433 54.0459 71.9 54.0792 72.2C54.1126 72.5 54.1526 72.7667 54.1992 73H53.4292L53.2292 72.32C53.0826 72.5667 52.8726 72.7633 52.5992 72.91C52.3259 73.05 51.9726 73.12 51.5392 73.12ZM51.7192 72.45C51.9792 72.45 52.2259 72.4033 52.4592 72.31C52.6926 72.2167 52.8826 72.06 53.0292 71.84C53.1759 71.6133 53.2492 71.3067 53.2492 70.92V70.61C52.7426 70.6633 52.3026 70.73 51.9292 70.81C51.5559 70.8833 51.2659 70.99 51.0592 71.13C50.8592 71.2633 50.7592 71.4433 50.7592 71.67C50.7592 71.9033 50.8426 72.0933 51.0092 72.24C51.1826 72.38 51.4192 72.45 51.7192 72.45ZM55.4129 73V68.04H56.0329L56.2529 68.79C56.3929 68.5567 56.5896 68.36 56.8429 68.2C57.0962 68.04 57.4329 67.96 57.8529 67.96C58.4529 67.96 58.8762 68.1367 59.1229 68.49C59.3696 68.8367 59.4929 69.2933 59.4929 69.86V73H58.6529V70.11C58.6529 69.8567 58.6296 69.6233 58.5829 69.41C58.5362 69.19 58.4329 69.0133 58.2729 68.88C58.1196 68.7467 57.8829 68.68 57.5629 68.68C57.1562 68.68 56.8362 68.82 56.6029 69.1C56.3696 69.3733 56.2529 69.7767 56.2529 70.31V73H55.4129ZM8.47016 79.1C8.30349 79.1 8.15682 79.04 8.03016 78.92C7.91016 78.7933 7.85016 78.6433 7.85016 78.47C7.85016 78.2967 7.91016 78.15 8.03016 78.03C8.15682 77.91 8.30349 77.85 8.47016 77.85C8.64349 77.85 8.79016 77.91 8.91016 78.03C9.03682 78.15 9.10016 78.2967 9.10016 78.47C9.10016 78.6433 9.03682 78.7933 8.91016 78.92C8.79016 79.04 8.64349 79.1 8.47016 79.1ZM8.05016 85V80.71H7.36016V80.04H8.89016V85H8.05016ZM10.3934 85V80.04H11.0134L11.2334 80.79C11.3734 80.5567 11.57 80.36 11.8234 80.2C12.0767 80.04 12.4134 79.96 12.8334 79.96C13.4334 79.96 13.8567 80.1367 14.1034 80.49C14.35 80.8367 14.4734 81.2933 14.4734 81.86V85H13.6334V82.11C13.6334 81.8567 13.61 81.6233 13.5634 81.41C13.5167 81.19 13.4134 81.0133 13.2534 80.88C13.1 80.7467 12.8634 80.68 12.5434 80.68C12.1367 80.68 11.8167 80.82 11.5834 81.1C11.35 81.3733 11.2334 81.7767 11.2334 82.31V85H10.3934ZM17.5549 85.12C17.1816 85.12 16.8316 85.02 16.5049 84.82C16.1783 84.6133 15.9149 84.32 15.7149 83.94C15.5216 83.5533 15.4249 83.0867 15.4249 82.54C15.4249 81.9933 15.5216 81.53 15.7149 81.15C15.9149 80.7633 16.1783 80.47 16.5049 80.27C16.8316 80.0633 17.1816 79.96 17.5549 79.96C17.9483 79.96 18.2783 80.04 18.5449 80.2C18.8116 80.3533 19.0183 80.56 19.1649 80.82V78.32H20.0049V83.13C20.0049 83.2967 20.0116 83.5433 20.0249 83.87C20.0383 84.19 20.0883 84.5667 20.1749 85H19.3849L19.1649 84.25C19.0183 84.5167 18.8116 84.73 18.5449 84.89C18.2783 85.0433 17.9483 85.12 17.5549 85.12ZM17.7749 84.4C18.2016 84.4 18.5416 84.2367 18.7949 83.91C19.0549 83.5833 19.1849 83.1267 19.1849 82.54C19.1849 81.9467 19.0549 81.49 18.7949 81.17C18.5416 80.8433 18.2016 80.68 17.7749 80.68C17.3483 80.68 17.0049 80.8433 16.7449 81.17C16.4916 81.49 16.3649 81.9467 16.3649 82.54C16.3649 83.1267 16.4916 83.5833 16.7449 83.91C17.0049 84.2367 17.3483 84.4 17.7749 84.4ZM22.2495 79.1C22.0828 79.1 21.9361 79.04 21.8095 78.92C21.6895 78.7933 21.6295 78.6433 21.6295 78.47C21.6295 78.2967 21.6895 78.15 21.8095 78.03C21.9361 77.91 22.0828 77.85 22.2495 77.85C22.4228 77.85 22.5695 77.91 22.6895 78.03C22.8161 78.15 22.8795 78.2967 22.8795 78.47C22.8795 78.6433 22.8161 78.7933 22.6895 78.92C22.5695 79.04 22.4228 79.1 22.2495 79.1ZM21.8295 85V80.71H21.1395V80.04H22.6695V85H21.8295ZM25.2427 85L23.4727 80.04H24.3827L25.6827 83.9L26.9727 80.04H27.8827L26.1127 85H25.2427ZM29.4467 79.1C29.2801 79.1 29.1334 79.04 29.0067 78.92C28.8867 78.7933 28.8267 78.6433 28.8267 78.47C28.8267 78.2967 28.8867 78.15 29.0067 78.03C29.1334 77.91 29.2801 77.85 29.4467 77.85C29.6201 77.85 29.7667 77.91 29.8867 78.03C30.0134 78.15 30.0767 78.2967 30.0767 78.47C30.0767 78.6433 30.0134 78.7933 29.8867 78.92C29.7667 79.04 29.6201 79.1 29.4467 79.1ZM29.0267 85V80.71H28.3367V80.04H29.8667V85H29.0267ZM33.1799 85.12C32.8066 85.12 32.4566 85.02 32.1299 84.82C31.8033 84.6133 31.5399 84.32 31.3399 83.94C31.1466 83.5533 31.0499 83.0867 31.0499 82.54C31.0499 81.9933 31.1466 81.53 31.3399 81.15C31.5399 80.7633 31.8033 80.47 32.1299 80.27C32.4566 80.0633 32.8066 79.96 33.1799 79.96C33.5733 79.96 33.9033 80.04 34.1699 80.2C34.4366 80.3533 34.6433 80.56 34.7899 80.82V78.32H35.6299V83.13C35.6299 83.2967 35.6366 83.5433 35.6499 83.87C35.6633 84.19 35.7133 84.5667 35.7999 85H35.0099L34.7899 84.25C34.6433 84.5167 34.4366 84.73 34.1699 84.89C33.9033 85.0433 33.5733 85.12 33.1799 85.12ZM33.3999 84.4C33.8266 84.4 34.1666 84.2367 34.4199 83.91C34.6799 83.5833 34.8099 83.1267 34.8099 82.54C34.8099 81.9467 34.6799 81.49 34.4199 81.17C34.1666 80.8433 33.8266 80.68 33.3999 80.68C32.9733 80.68 32.6299 80.8433 32.3699 81.17C32.1166 81.49 31.9899 81.9467 31.9899 82.54C31.9899 83.1267 32.1166 83.5833 32.3699 83.91C32.6299 84.2367 32.9733 84.4 33.3999 84.4ZM38.5845 85.12C38.1978 85.12 37.8878 85.04 37.6545 84.88C37.4211 84.7133 37.2511 84.4867 37.1445 84.2C37.0445 83.9067 36.9945 83.5733 36.9945 83.2V80.03H37.8345V83C37.8345 83.3667 37.8778 83.65 37.9645 83.85C38.0511 84.05 38.1711 84.19 38.3245 84.27C38.4845 84.3433 38.6678 84.38 38.8745 84.38C39.2678 84.38 39.5745 84.2433 39.7945 83.97C40.0211 83.69 40.1345 83.2867 40.1345 82.76V80.03H40.9745V85H40.3445L40.1345 84.28C39.9945 84.52 39.8045 84.72 39.5645 84.88C39.3245 85.04 38.9978 85.12 38.5845 85.12ZM43.7658 85.12C43.4524 85.12 43.1658 85.0633 42.9058 84.95C42.6458 84.8367 42.4391 84.6733 42.2858 84.46C42.1324 84.2467 42.0558 83.99 42.0558 83.69C42.0558 83.2967 42.1924 82.9867 42.4658 82.76C42.7458 82.5333 43.1358 82.36 43.6358 82.24C44.1424 82.1133 44.7324 82.0133 45.4058 81.94C45.4191 81.52 45.3358 81.1967 45.1558 80.97C44.9758 80.7433 44.6858 80.63 44.2858 80.63C43.9858 80.63 43.7391 80.7 43.5458 80.84C43.3591 80.9733 43.2391 81.16 43.1858 81.4L42.3758 81.16C42.5091 80.78 42.7458 80.4867 43.0858 80.28C43.4324 80.0667 43.8291 79.96 44.2758 79.96C44.9624 79.96 45.4624 80.1233 45.7758 80.45C46.0958 80.77 46.2558 81.2767 46.2558 81.97V83.13C46.2558 83.5433 46.2724 83.9 46.3058 84.2C46.3391 84.5 46.3791 84.7667 46.4258 85H45.6558L45.4558 84.32C45.3091 84.5667 45.0991 84.7633 44.8258 84.91C44.5524 85.05 44.1991 85.12 43.7658 85.12ZM43.9458 84.45C44.2058 84.45 44.4524 84.4033 44.6858 84.31C44.9191 84.2167 45.1091 84.06 45.2558 83.84C45.4024 83.6133 45.4758 83.3067 45.4758 82.92V82.61C44.9691 82.6633 44.5291 82.73 44.1558 82.81C43.7824 82.8833 43.4924 82.99 43.2858 83.13C43.0858 83.2633 42.9858 83.4433 42.9858 83.67C42.9858 83.9033 43.0691 84.0933 43.2358 84.24C43.4091 84.38 43.6458 84.45 43.9458 84.45ZM48.8095 85C48.4961 85 48.2528 84.97 48.0795 84.91C47.9128 84.8433 47.7961 84.72 47.7295 84.54C47.6695 84.36 47.6395 84.1 47.6395 83.76V78.33H48.4795V83.62C48.4795 83.8733 48.5061 84.0433 48.5595 84.13C48.6128 84.2167 48.7561 84.26 48.9895 84.26H49.1795V85H48.8095ZM51.722 85.12C51.4354 85.12 51.152 85.0767 50.872 84.99C50.5987 84.8967 50.352 84.76 50.132 84.58C49.9187 84.3933 49.7554 84.16 49.642 83.88L50.452 83.58C50.5254 83.8733 50.6854 84.0867 50.932 84.22C51.1854 84.3467 51.4487 84.41 51.722 84.41C51.922 84.41 52.1087 84.38 52.282 84.32C52.462 84.26 52.6087 84.1733 52.722 84.06C52.8354 83.9467 52.892 83.8167 52.892 83.67C52.892 83.3967 52.782 83.2033 52.562 83.09C52.3487 82.9767 52.092 82.89 51.792 82.83L51.102 82.69C50.862 82.6367 50.6387 82.5633 50.432 82.47C50.2254 82.37 50.0587 82.23 49.932 82.05C49.8054 81.87 49.742 81.63 49.742 81.33C49.742 81.03 49.8354 80.78 50.022 80.58C50.2087 80.3733 50.4454 80.2167 50.732 80.11C51.0254 80.0033 51.332 79.95 51.652 79.95C52.0454 79.95 52.4154 80.0333 52.762 80.2C53.1154 80.36 53.3654 80.6133 53.512 80.96L52.722 81.25C52.6354 81.05 52.482 80.9033 52.262 80.81C52.0487 80.71 51.8254 80.66 51.592 80.66C51.3387 80.66 51.1087 80.7167 50.902 80.83C50.6954 80.9433 50.592 81.1067 50.592 81.32C50.592 81.5333 50.6787 81.69 50.852 81.79C51.032 81.8833 51.252 81.9567 51.512 82.01L52.162 82.14C52.4287 82.1933 52.682 82.27 52.922 82.37C53.162 82.47 53.3587 82.62 53.512 82.82C53.6654 83.0133 53.742 83.2867 53.742 83.64C53.742 83.9533 53.6454 84.22 53.452 84.44C53.2587 84.66 53.0087 84.83 52.702 84.95C52.3954 85.0633 52.0687 85.12 51.722 85.12ZM55.0591 85.12C54.8857 85.12 54.7357 85.0567 54.6091 84.93C54.4824 84.8033 54.4191 84.6533 54.4191 84.48C54.4191 84.3 54.4824 84.1467 54.6091 84.02C54.7357 83.8933 54.8857 83.83 55.0591 83.83C55.2391 83.83 55.3924 83.8933 55.5191 84.02C55.6457 84.1467 55.7091 84.3 55.7091 84.48C55.7091 84.6533 55.6457 84.8033 55.5191 84.93C55.3924 85.0567 55.2391 85.12 55.0591 85.12Z" fill="black"/>
<circle cx="31.5" cy="27.5" r="17" fill="#FCF4E9" stroke="black"/>
<path d="M201.369 61.12C201.003 61.12 200.646 61.0633 200.299 60.95C199.953 60.8367 199.646 60.6633 199.379 60.43C199.119 60.1967 198.929 59.9 198.809 59.54L199.679 59.28C199.759 59.52 199.889 59.72 200.069 59.88C200.249 60.0333 200.456 60.1467 200.689 60.22C200.929 60.2933 201.169 60.33 201.409 60.33C201.676 60.33 201.929 60.2867 202.169 60.2C202.409 60.1133 202.603 59.9833 202.749 59.81C202.903 59.63 202.979 59.4067 202.979 59.14C202.979 58.8667 202.879 58.65 202.679 58.49C202.479 58.33 202.133 58.1867 201.639 58.06L200.789 57.87C200.483 57.79 200.179 57.6833 199.879 57.55C199.586 57.4167 199.343 57.2267 199.149 56.98C198.963 56.7333 198.869 56.4033 198.869 55.99C198.869 55.61 198.986 55.2867 199.219 55.02C199.459 54.7533 199.766 54.55 200.139 54.41C200.519 54.27 200.913 54.2 201.319 54.2C201.633 54.2 201.939 54.2467 202.239 54.34C202.546 54.4267 202.819 54.5633 203.059 54.75C203.306 54.93 203.499 55.1633 203.639 55.45L202.779 55.7C202.653 55.4667 202.446 55.29 202.159 55.17C201.879 55.05 201.586 54.99 201.279 54.99C201.039 54.99 200.809 55.03 200.589 55.11C200.369 55.1833 200.189 55.2967 200.049 55.45C199.909 55.6033 199.839 55.7967 199.839 56.03C199.839 56.25 199.903 56.4267 200.029 56.56C200.163 56.6933 200.336 56.8 200.549 56.88C200.769 56.9533 201.009 57.02 201.269 57.08L201.999 57.24C202.339 57.32 202.659 57.43 202.959 57.57C203.259 57.71 203.503 57.9067 203.689 58.16C203.876 58.4133 203.969 58.7533 203.969 59.18C203.969 59.4867 203.896 59.7633 203.749 60.01C203.603 60.25 203.406 60.4533 203.159 60.62C202.913 60.78 202.633 60.9033 202.319 60.99C202.013 61.0767 201.696 61.12 201.369 61.12ZM207.176 61.12C206.656 61.12 206.216 61.0067 205.856 60.78C205.496 60.5467 205.22 60.2367 205.026 59.85C204.84 59.4567 204.746 59.0167 204.746 58.53C204.746 58.0033 204.853 57.55 205.066 57.17C205.28 56.7833 205.566 56.4867 205.926 56.28C206.293 56.0667 206.703 55.96 207.156 55.96C207.55 55.96 207.896 56.04 208.196 56.2C208.496 56.3533 208.743 56.5633 208.936 56.83C209.136 57.09 209.28 57.3867 209.366 57.72C209.46 58.0533 209.493 58.3967 209.466 58.75H205.646C205.66 59.1633 205.75 59.49 205.916 59.73C206.09 59.97 206.293 60.14 206.526 60.24C206.76 60.3333 206.976 60.38 207.176 60.38C207.456 60.38 207.69 60.3367 207.876 60.25C208.07 60.1567 208.223 60.0367 208.336 59.89L209.146 60.13C208.966 60.4167 208.71 60.6533 208.376 60.84C208.043 61.0267 207.643 61.12 207.176 61.12ZM205.656 58.08H208.576C208.576 57.8467 208.516 57.6233 208.396 57.41C208.283 57.1967 208.12 57.0233 207.906 56.89C207.7 56.75 207.45 56.68 207.156 56.68C206.91 56.68 206.676 56.7267 206.456 56.82C206.236 56.9133 206.053 57.0633 205.906 57.27C205.766 57.4767 205.683 57.7467 205.656 58.08ZM211.627 61C211.314 61 211.07 60.97 210.897 60.91C210.73 60.8433 210.614 60.72 210.547 60.54C210.487 60.36 210.457 60.1 210.457 59.76V54.33H211.297V59.62C211.297 59.8733 211.324 60.0433 211.377 60.13C211.43 60.2167 211.574 60.26 211.807 60.26H211.997V61H211.627ZM214.959 61.12C214.439 61.12 213.999 61.0067 213.639 60.78C213.279 60.5467 213.003 60.2367 212.809 59.85C212.623 59.4567 212.529 59.0167 212.529 58.53C212.529 58.0033 212.636 57.55 212.849 57.17C213.063 56.7833 213.349 56.4867 213.709 56.28C214.076 56.0667 214.486 55.96 214.939 55.96C215.333 55.96 215.679 56.04 215.979 56.2C216.279 56.3533 216.526 56.5633 216.719 56.83C216.919 57.09 217.063 57.3867 217.149 57.72C217.243 58.0533 217.276 58.3967 217.249 58.75H213.429C213.443 59.1633 213.533 59.49 213.699 59.73C213.873 59.97 214.076 60.14 214.309 60.24C214.543 60.3333 214.759 60.38 214.959 60.38C215.239 60.38 215.473 60.3367 215.659 60.25C215.853 60.1567 216.006 60.0367 216.119 59.89L216.929 60.13C216.749 60.4167 216.493 60.6533 216.159 60.84C215.826 61.0267 215.426 61.12 214.959 61.12ZM213.439 58.08H216.359C216.359 57.8467 216.299 57.6233 216.179 57.41C216.066 57.1967 215.903 57.0233 215.689 56.89C215.483 56.75 215.233 56.68 214.939 56.68C214.693 56.68 214.459 56.7267 214.239 56.82C214.019 56.9133 213.836 57.0633 213.689 57.27C213.549 57.4767 213.466 57.7467 213.439 58.08ZM220.23 61.12C219.757 61.12 219.347 61.01 219 60.79C218.653 60.5633 218.387 60.2567 218.2 59.87C218.013 59.4833 217.92 59.04 217.92 58.54C217.92 58.0467 218.017 57.6067 218.21 57.22C218.41 56.8267 218.69 56.52 219.05 56.3C219.41 56.0733 219.833 55.96 220.32 55.96C220.767 55.96 221.15 56.07 221.47 56.29C221.79 56.51 222.03 56.7733 222.19 57.08L221.42 57.36C221.313 57.16 221.157 57 220.95 56.88C220.743 56.76 220.513 56.7 220.26 56.7C220.013 56.7 219.78 56.7667 219.56 56.9C219.34 57.0267 219.163 57.2267 219.03 57.5C218.897 57.7667 218.83 58.11 218.83 58.53C218.83 58.9433 218.897 59.29 219.03 59.57C219.17 59.8433 219.347 60.0467 219.56 60.18C219.78 60.3133 220.013 60.38 220.26 60.38C220.533 60.38 220.77 60.32 220.97 60.2C221.177 60.0733 221.333 59.9167 221.44 59.73L222.21 60.01C222.023 60.33 221.757 60.5967 221.41 60.81C221.063 61.0167 220.67 61.12 220.23 61.12ZM224.75 61C224.437 61 224.193 60.97 224.02 60.91C223.853 60.8433 223.737 60.72 223.67 60.54C223.61 60.36 223.58 60.1 223.58 59.76V56.71H222.74V56.04H223.58V54.79H224.42V56.04H225.38V56.71H224.42V59.62C224.42 59.8733 224.443 60.0433 224.49 60.13C224.543 60.2167 224.69 60.26 224.93 60.26H225.38V61H224.75ZM230.675 61.12C230.362 61.12 230.075 61.0633 229.815 60.95C229.555 60.8367 229.348 60.6733 229.195 60.46C229.042 60.2467 228.965 59.99 228.965 59.69C228.965 59.2967 229.102 58.9867 229.375 58.76C229.655 58.5333 230.045 58.36 230.545 58.24C231.052 58.1133 231.642 58.0133 232.315 57.94C232.328 57.52 232.245 57.1967 232.065 56.97C231.885 56.7433 231.595 56.63 231.195 56.63C230.895 56.63 230.648 56.7 230.455 56.84C230.268 56.9733 230.148 57.16 230.095 57.4L229.285 57.16C229.418 56.78 229.655 56.4867 229.995 56.28C230.342 56.0667 230.738 55.96 231.185 55.96C231.872 55.96 232.372 56.1233 232.685 56.45C233.005 56.77 233.165 57.2767 233.165 57.97V59.13C233.165 59.5433 233.182 59.9 233.215 60.2C233.248 60.5 233.288 60.7667 233.335 61H232.565L232.365 60.32C232.218 60.5667 232.008 60.7633 231.735 60.91C231.462 61.05 231.108 61.12 230.675 61.12ZM230.855 60.45C231.115 60.45 231.362 60.4033 231.595 60.31C231.828 60.2167 232.018 60.06 232.165 59.84C232.312 59.6133 232.385 59.3067 232.385 58.92V58.61C231.878 58.6633 231.438 58.73 231.065 58.81C230.692 58.8833 230.402 58.99 230.195 59.13C229.995 59.2633 229.895 59.4433 229.895 59.67C229.895 59.9033 229.978 60.0933 230.145 60.24C230.318 60.38 230.555 60.45 230.855 60.45ZM239.801 61.12C239.415 61.12 239.088 61.0433 238.821 60.89C238.555 60.73 238.345 60.5167 238.191 60.25L237.971 61H237.351V54.32H238.191V56.82C238.345 56.56 238.555 56.3533 238.821 56.2C239.088 56.04 239.415 55.96 239.801 55.96C240.181 55.96 240.531 56.0633 240.851 56.27C241.178 56.47 241.438 56.7633 241.631 57.15C241.831 57.53 241.931 57.9933 241.931 58.54C241.931 59.0867 241.831 59.5533 241.631 59.94C241.438 60.32 241.178 60.6133 240.851 60.82C240.531 61.02 240.181 61.12 239.801 61.12ZM239.581 60.4C240.008 60.4 240.348 60.2367 240.601 59.91C240.861 59.5833 240.991 59.1267 240.991 58.54C240.991 57.9467 240.861 57.49 240.601 57.17C240.348 56.8433 240.008 56.68 239.581 56.68C239.155 56.68 238.811 56.8433 238.551 57.17C238.298 57.49 238.171 57.9467 238.171 58.54C238.171 59.1267 238.298 59.5833 238.551 59.91C238.811 60.2367 239.155 60.4 239.581 60.4ZM244.585 61.12C244.199 61.12 243.889 61.04 243.655 60.88C243.422 60.7133 243.252 60.4867 243.145 60.2C243.045 59.9067 242.995 59.5733 242.995 59.2V56.03H243.835V59C243.835 59.3667 243.879 59.65 243.965 59.85C244.052 60.05 244.172 60.19 244.325 60.27C244.485 60.3433 244.669 60.38 244.875 60.38C245.269 60.38 245.575 60.2433 245.795 59.97C246.022 59.69 246.135 59.2867 246.135 58.76V56.03H246.975V61H246.345L246.135 60.28C245.995 60.52 245.805 60.72 245.565 60.88C245.325 61.04 244.999 61.12 244.585 61.12ZM250.827 61.12C250.44 61.12 250.113 61.0433 249.847 60.89C249.58 60.73 249.37 60.5167 249.217 60.25L248.997 61H248.377V54.32H249.217V56.82C249.37 56.56 249.58 56.3533 249.847 56.2C250.113 56.04 250.44 55.96 250.827 55.96C251.207 55.96 251.557 56.0633 251.877 56.27C252.203 56.47 252.463 56.7633 252.657 57.15C252.857 57.53 252.957 57.9933 252.957 58.54C252.957 59.0867 252.857 59.5533 252.657 59.94C252.463 60.32 252.203 60.6133 251.877 60.82C251.557 61.02 251.207 61.12 250.827 61.12ZM250.607 60.4C251.033 60.4 251.373 60.2367 251.627 59.91C251.887 59.5833 252.017 59.1267 252.017 58.54C252.017 57.9467 251.887 57.49 251.627 57.17C251.373 56.8433 251.033 56.68 250.607 56.68C250.18 56.68 249.837 56.8433 249.577 57.17C249.323 57.49 249.197 57.9467 249.197 58.54C249.197 59.1267 249.323 59.5833 249.577 59.91C249.837 60.2367 250.18 60.4 250.607 60.4ZM256.491 61.12C256.104 61.12 255.777 61.0433 255.511 60.89C255.244 60.73 255.034 60.5167 254.881 60.25L254.661 61H254.041V54.32H254.881V56.82C255.034 56.56 255.244 56.3533 255.511 56.2C255.777 56.04 256.104 55.96 256.491 55.96C256.871 55.96 257.221 56.0633 257.541 56.27C257.867 56.47 258.127 56.7633 258.321 57.15C258.521 57.53 258.621 57.9933 258.621 58.54C258.621 59.0867 258.521 59.5533 258.321 59.94C258.127 60.32 257.867 60.6133 257.541 60.82C257.221 61.02 256.871 61.12 256.491 61.12ZM256.271 60.4C256.697 60.4 257.037 60.2367 257.291 59.91C257.551 59.5833 257.681 59.1267 257.681 58.54C257.681 57.9467 257.551 57.49 257.291 57.17C257.037 56.8433 256.697 56.68 256.271 56.68C255.844 56.68 255.501 56.8433 255.241 57.17C254.987 57.49 254.861 57.9467 254.861 58.54C254.861 59.1267 254.987 59.5833 255.241 59.91C255.501 60.2367 255.844 60.4 256.271 60.4ZM260.875 61C260.562 61 260.318 60.97 260.145 60.91C259.978 60.8433 259.862 60.72 259.795 60.54C259.735 60.36 259.705 60.1 259.705 59.76V54.33H260.545V59.62C260.545 59.8733 260.572 60.0433 260.625 60.13C260.678 60.2167 260.822 60.26 261.055 60.26H261.245V61H260.875ZM264.207 61.12C263.687 61.12 263.247 61.0067 262.887 60.78C262.527 60.5467 262.251 60.2367 262.057 59.85C261.871 59.4567 261.777 59.0167 261.777 58.53C261.777 58.0033 261.884 57.55 262.097 57.17C262.311 56.7833 262.597 56.4867 262.957 56.28C263.324 56.0667 263.734 55.96 264.187 55.96C264.581 55.96 264.927 56.04 265.227 56.2C265.527 56.3533 265.774 56.5633 265.967 56.83C266.167 57.09 266.311 57.3867 266.397 57.72C266.491 58.0533 266.524 58.3967 266.497 58.75H262.677C262.691 59.1633 262.781 59.49 262.947 59.73C263.121 59.97 263.324 60.14 263.557 60.24C263.791 60.3333 264.007 60.38 264.207 60.38C264.487 60.38 264.721 60.3367 264.907 60.25C265.101 60.1567 265.254 60.0367 265.367 59.89L266.177 60.13C265.997 60.4167 265.741 60.6533 265.407 60.84C265.074 61.0267 264.674 61.12 264.207 61.12ZM262.687 58.08H265.607C265.607 57.8467 265.547 57.6233 265.427 57.41C265.314 57.1967 265.151 57.0233 264.937 56.89C264.731 56.75 264.481 56.68 264.187 56.68C263.941 56.68 263.707 56.7267 263.487 56.82C263.267 56.9133 263.084 57.0633 262.937 57.27C262.797 57.4767 262.714 57.7467 262.687 58.08ZM214.247 73C213.934 73 213.69 72.97 213.517 72.91C213.35 72.8433 213.234 72.72 213.167 72.54C213.107 72.36 213.077 72.1 213.077 71.76V68.71H212.237V68.04H213.077V66.79H213.917V68.04H214.877V68.71H213.917V71.62C213.917 71.8733 213.94 72.0433 213.987 72.13C214.04 72.2167 214.187 72.26 214.427 72.26H214.877V73H214.247ZM218.039 73.12C217.753 73.12 217.469 73.07 217.189 72.97C216.909 72.87 216.653 72.7167 216.419 72.51C216.193 72.2967 216.009 72.0267 215.869 71.7C215.729 71.3733 215.659 70.9867 215.659 70.54C215.659 70.0933 215.729 69.7067 215.869 69.38C216.009 69.0533 216.193 68.7867 216.419 68.58C216.653 68.3667 216.909 68.21 217.189 68.11C217.469 68.01 217.753 67.96 218.039 67.96C218.326 67.96 218.609 68.01 218.889 68.11C219.176 68.21 219.433 68.3667 219.659 68.58C219.893 68.7867 220.076 69.0533 220.209 69.38C220.349 69.7067 220.419 70.0933 220.419 70.54C220.419 70.9867 220.349 71.3733 220.209 71.7C220.076 72.0267 219.893 72.2967 219.659 72.51C219.433 72.7167 219.176 72.87 218.889 72.97C218.609 73.07 218.326 73.12 218.039 73.12ZM218.039 72.38C218.279 72.38 218.513 72.3167 218.739 72.19C218.966 72.0567 219.153 71.8567 219.299 71.59C219.446 71.3167 219.519 70.9667 219.519 70.54C219.519 70.1133 219.446 69.7667 219.299 69.5C219.153 69.2267 218.966 69.0267 218.739 68.9C218.513 68.7667 218.279 68.7 218.039 68.7C217.806 68.7 217.573 68.7667 217.339 68.9C217.113 69.0267 216.926 69.2267 216.779 69.5C216.633 69.7667 216.559 70.1133 216.559 70.54C216.559 70.9667 216.633 71.3167 216.779 71.59C216.926 71.8567 217.113 72.0567 217.339 72.19C217.573 72.3167 217.806 72.38 218.039 72.38ZM226.41 73.12C225.89 73.12 225.45 73.0067 225.09 72.78C224.73 72.5467 224.453 72.2367 224.26 71.85C224.073 71.4567 223.98 71.0167 223.98 70.53C223.98 70.0033 224.086 69.55 224.3 69.17C224.513 68.7833 224.8 68.4867 225.16 68.28C225.526 68.0667 225.936 67.96 226.39 67.96C226.783 67.96 227.13 68.04 227.43 68.2C227.73 68.3533 227.976 68.5633 228.17 68.83C228.37 69.09 228.513 69.3867 228.6 69.72C228.693 70.0533 228.726 70.3967 228.7 70.75H224.88C224.893 71.1633 224.983 71.49 225.15 71.73C225.323 71.97 225.526 72.14 225.76 72.24C225.993 72.3333 226.21 72.38 226.41 72.38C226.69 72.38 226.923 72.3367 227.11 72.25C227.303 72.1567 227.456 72.0367 227.57 71.89L228.38 72.13C228.2 72.4167 227.943 72.6533 227.61 72.84C227.276 73.0267 226.876 73.12 226.41 73.12ZM224.89 70.08H227.81C227.81 69.8467 227.75 69.6233 227.63 69.41C227.516 69.1967 227.353 69.0233 227.14 68.89C226.933 68.75 226.683 68.68 226.39 68.68C226.143 68.68 225.91 68.7267 225.69 68.82C225.47 68.9133 225.286 69.0633 225.14 69.27C225 69.4767 224.916 69.7467 224.89 70.08ZM228.99 73L230.8 70.45L229.08 68.04H230.07L231.29 69.76L232.52 68.04H233.51L231.79 70.45L233.6 73H232.61L231.29 71.15L229.98 73H228.99ZM234.3 74.61V68.04H234.91L235.14 68.82C235.293 68.56 235.503 68.3533 235.77 68.2C236.036 68.04 236.363 67.96 236.75 67.96C237.13 67.96 237.48 68.0633 237.8 68.27C238.126 68.47 238.386 68.7633 238.58 69.15C238.78 69.53 238.88 69.9933 238.88 70.54C238.88 71.08 238.78 71.5433 238.58 71.93C238.386 72.3167 238.126 72.6133 237.8 72.82C237.48 73.02 237.13 73.12 236.75 73.12C236.363 73.12 236.036 73.0433 235.77 72.89C235.503 72.73 235.293 72.5167 235.14 72.25V74.61H234.3ZM236.53 72.4C236.956 72.4 237.296 72.2367 237.55 71.91C237.81 71.5833 237.94 71.1267 237.94 70.54C237.94 69.9467 237.81 69.49 237.55 69.17C237.296 68.8433 236.956 68.68 236.53 68.68C236.103 68.68 235.76 68.8433 235.5 69.17C235.246 69.49 235.12 69.9467 235.12 70.54C235.12 71.1267 235.246 71.5833 235.5 71.91C235.76 72.2367 236.103 72.4 236.53 72.4ZM241.134 73C240.82 73 240.577 72.97 240.404 72.91C240.237 72.8433 240.12 72.72 240.054 72.54C239.994 72.36 239.964 72.1 239.964 71.76V66.33H240.804V71.62C240.804 71.8733 240.83 72.0433 240.884 72.13C240.937 72.2167 241.08 72.26 241.314 72.26H241.504V73H241.134ZM244.416 73.12C244.13 73.12 243.846 73.07 243.566 72.97C243.286 72.87 243.03 72.7167 242.796 72.51C242.57 72.2967 242.386 72.0267 242.246 71.7C242.106 71.3733 242.036 70.9867 242.036 70.54C242.036 70.0933 242.106 69.7067 242.246 69.38C242.386 69.0533 242.57 68.7867 242.796 68.58C243.03 68.3667 243.286 68.21 243.566 68.11C243.846 68.01 244.13 67.96 244.416 67.96C244.703 67.96 244.986 68.01 245.266 68.11C245.553 68.21 245.81 68.3667 246.036 68.58C246.27 68.7867 246.453 69.0533 246.586 69.38C246.726 69.7067 246.796 70.0933 246.796 70.54C246.796 70.9867 246.726 71.3733 246.586 71.7C246.453 72.0267 246.27 72.2967 246.036 72.51C245.81 72.7167 245.553 72.87 245.266 72.97C244.986 73.07 244.703 73.12 244.416 73.12ZM244.416 72.38C244.656 72.38 244.89 72.3167 245.116 72.19C245.343 72.0567 245.53 71.8567 245.676 71.59C245.823 71.3167 245.896 70.9667 245.896 70.54C245.896 70.1133 245.823 69.7667 245.676 69.5C245.53 69.2267 245.343 69.0267 245.116 68.9C244.89 68.7667 244.656 68.7 244.416 68.7C244.183 68.7 243.95 68.7667 243.716 68.9C243.49 69.0267 243.303 69.2267 243.156 69.5C243.01 69.7667 242.936 70.1133 242.936 70.54C242.936 70.9667 243.01 71.3167 243.156 71.59C243.303 71.8567 243.49 72.0567 243.716 72.19C243.95 72.3167 244.183 72.38 244.416 72.38ZM247.874 73V68.04H248.484L248.754 68.96C248.927 68.66 249.16 68.42 249.454 68.24C249.754 68.0533 250.11 67.96 250.524 67.96V68.83C250.477 68.83 250.427 68.83 250.374 68.83C250.327 68.83 250.28 68.8333 250.234 68.84C249.667 68.8867 249.27 69.0833 249.044 69.43C248.824 69.7767 248.714 70.2567 248.714 70.87V73H247.874ZM253.382 73.12C252.862 73.12 252.422 73.0067 252.062 72.78C251.702 72.5467 251.426 72.2367 251.232 71.85C251.046 71.4567 250.952 71.0167 250.952 70.53C250.952 70.0033 251.059 69.55 251.272 69.17C251.486 68.7833 251.772 68.4867 252.132 68.28C252.499 68.0667 252.909 67.96 253.362 67.96C253.756 67.96 254.102 68.04 254.402 68.2C254.702 68.3533 254.949 68.5633 255.142 68.83C255.342 69.09 255.486 69.3867 255.572 69.72C255.666 70.0533 255.699 70.3967 255.672 70.75H251.852C251.866 71.1633 251.956 71.49 252.122 71.73C252.296 71.97 252.499 72.14 252.732 72.24C252.966 72.3333 253.182 72.38 253.382 72.38C253.662 72.38 253.896 72.3367 254.082 72.25C254.276 72.1567 254.429 72.0367 254.542 71.89L255.352 72.13C255.172 72.4167 254.916 72.6533 254.582 72.84C254.249 73.0267 253.849 73.12 253.382 73.12ZM251.862 70.08H254.782C254.782 69.8467 254.722 69.6233 254.602 69.41C254.489 69.1967 254.326 69.0233 254.112 68.89C253.906 68.75 253.656 68.68 253.362 68.68C253.116 68.68 252.882 68.7267 252.662 68.82C252.442 68.9133 252.259 69.0633 252.112 69.27C251.972 69.4767 251.889 69.7467 251.862 70.08ZM211.6 79.1C211.433 79.1 211.287 79.04 211.16 78.92C211.04 78.7933 210.98 78.6433 210.98 78.47C210.98 78.2967 211.04 78.15 211.16 78.03C211.287 77.91 211.433 77.85 211.6 77.85C211.773 77.85 211.92 77.91 212.04 78.03C212.167 78.15 212.23 78.2967 212.23 78.47C212.23 78.6433 212.167 78.7933 212.04 78.92C211.92 79.04 211.773 79.1 211.6 79.1ZM211.18 85V80.71H210.49V80.04H212.02V85H211.18ZM215.033 85C214.72 85 214.477 84.97 214.303 84.91C214.137 84.8433 214.02 84.72 213.953 84.54C213.893 84.36 213.863 84.1 213.863 83.76V80.71H213.023V80.04H213.863V78.79H214.703V80.04H215.663V80.71H214.703V83.62C214.703 83.8733 214.727 84.0433 214.773 84.13C214.827 84.2167 214.973 84.26 215.213 84.26H215.663V85H215.033ZM218.455 85.12C218.169 85.12 217.885 85.0767 217.605 84.99C217.332 84.8967 217.085 84.76 216.865 84.58C216.652 84.3933 216.489 84.16 216.375 83.88L217.185 83.58C217.259 83.8733 217.419 84.0867 217.665 84.22C217.919 84.3467 218.182 84.41 218.455 84.41C218.655 84.41 218.842 84.38 219.015 84.32C219.195 84.26 219.342 84.1733 219.455 84.06C219.569 83.9467 219.625 83.8167 219.625 83.67C219.625 83.3967 219.515 83.2033 219.295 83.09C219.082 82.9767 218.825 82.89 218.525 82.83L217.835 82.69C217.595 82.6367 217.372 82.5633 217.165 82.47C216.959 82.37 216.792 82.23 216.665 82.05C216.539 81.87 216.475 81.63 216.475 81.33C216.475 81.03 216.569 80.78 216.755 80.58C216.942 80.3733 217.179 80.2167 217.465 80.11C217.759 80.0033 218.065 79.95 218.385 79.95C218.779 79.95 219.149 80.0333 219.495 80.2C219.849 80.36 220.099 80.6133 220.245 80.96L219.455 81.25C219.369 81.05 219.215 80.9033 218.995 80.81C218.782 80.71 218.559 80.66 218.325 80.66C218.072 80.66 217.842 80.7167 217.635 80.83C217.429 80.9433 217.325 81.1067 217.325 81.32C217.325 81.5333 217.412 81.69 217.585 81.79C217.765 81.8833 217.985 81.9567 218.245 82.01L218.895 82.14C219.162 82.1933 219.415 82.27 219.655 82.37C219.895 82.47 220.092 82.62 220.245 82.82C220.399 83.0133 220.475 83.2867 220.475 83.64C220.475 83.9533 220.379 84.22 220.185 84.44C219.992 84.66 219.742 84.83 219.435 84.95C219.129 85.0633 218.802 85.12 218.455 85.12ZM225.665 85.12C225.352 85.12 225.065 85.0633 224.805 84.95C224.545 84.8367 224.339 84.6733 224.185 84.46C224.032 84.2467 223.955 83.99 223.955 83.69C223.955 83.2967 224.092 82.9867 224.365 82.76C224.645 82.5333 225.035 82.36 225.535 82.24C226.042 82.1133 226.632 82.0133 227.305 81.94C227.319 81.52 227.235 81.1967 227.055 80.97C226.875 80.7433 226.585 80.63 226.185 80.63C225.885 80.63 225.639 80.7 225.445 80.84C225.259 80.9733 225.139 81.16 225.085 81.4L224.275 81.16C224.409 80.78 224.645 80.4867 224.985 80.28C225.332 80.0667 225.729 79.96 226.175 79.96C226.862 79.96 227.362 80.1233 227.675 80.45C227.995 80.77 228.155 81.2767 228.155 81.97V83.13C228.155 83.5433 228.172 83.9 228.205 84.2C228.239 84.5 228.279 84.7667 228.325 85H227.555L227.355 84.32C227.209 84.5667 226.999 84.7633 226.725 84.91C226.452 85.05 226.099 85.12 225.665 85.12ZM225.845 84.45C226.105 84.45 226.352 84.4033 226.585 84.31C226.819 84.2167 227.009 84.06 227.155 83.84C227.302 83.6133 227.375 83.3067 227.375 82.92V82.61C226.869 82.6633 226.429 82.73 226.055 82.81C225.682 82.8833 225.392 82.99 225.185 83.13C224.985 83.2633 224.885 83.4433 224.885 83.67C224.885 83.9033 224.969 84.0933 225.135 84.24C225.309 84.38 225.545 84.45 225.845 84.45ZM229.539 85V80.04H230.149L230.419 80.96C230.592 80.66 230.826 80.42 231.119 80.24C231.419 80.0533 231.776 79.96 232.189 79.96V80.83C232.142 80.83 232.092 80.83 232.039 80.83C231.992 80.83 231.946 80.8333 231.899 80.84C231.332 80.8867 230.936 81.0833 230.709 81.43C230.489 81.7767 230.379 82.2567 230.379 82.87V85H229.539ZM234.604 85C234.29 85 234.047 84.97 233.874 84.91C233.707 84.8433 233.59 84.72 233.524 84.54C233.464 84.36 233.434 84.1 233.434 83.76V80.71H232.594V80.04H233.434V78.79H234.274V80.04H235.234V80.71H234.274V83.62C234.274 83.8733 234.297 84.0433 234.344 84.13C234.397 84.2167 234.544 84.26 234.784 84.26H235.234V85H234.604ZM237.196 79.1C237.029 79.1 236.882 79.04 236.756 78.92C236.636 78.7933 236.576 78.6433 236.576 78.47C236.576 78.2967 236.636 78.15 236.756 78.03C236.882 77.91 237.029 77.85 237.196 77.85C237.369 77.85 237.516 77.91 237.636 78.03C237.762 78.15 237.826 78.2967 237.826 78.47C237.826 78.6433 237.762 78.7933 237.636 78.92C237.516 79.04 237.369 79.1 237.196 79.1ZM236.776 85V80.71H236.086V80.04H237.616V85H236.776ZM241.109 85.12C240.636 85.12 240.226 85.01 239.879 84.79C239.532 84.5633 239.266 84.2567 239.079 83.87C238.892 83.4833 238.799 83.04 238.799 82.54C238.799 82.0467 238.896 81.6067 239.089 81.22C239.289 80.8267 239.569 80.52 239.929 80.3C240.289 80.0733 240.712 79.96 241.199 79.96C241.646 79.96 242.029 80.07 242.349 80.29C242.669 80.51 242.909 80.7733 243.069 81.08L242.299 81.36C242.192 81.16 242.036 81 241.829 80.88C241.622 80.76 241.392 80.7 241.139 80.7C240.892 80.7 240.659 80.7667 240.439 80.9C240.219 81.0267 240.042 81.2267 239.909 81.5C239.776 81.7667 239.709 82.11 239.709 82.53C239.709 82.9433 239.776 83.29 239.909 83.57C240.049 83.8433 240.226 84.0467 240.439 84.18C240.659 84.3133 240.892 84.38 241.139 84.38C241.412 84.38 241.649 84.32 241.849 84.2C242.056 84.0733 242.212 83.9167 242.319 83.73L243.089 84.01C242.902 84.33 242.636 84.5967 242.289 84.81C241.942 85.0167 241.549 85.12 241.109 85.12ZM245.289 85C244.976 85 244.732 84.97 244.559 84.91C244.392 84.8433 244.276 84.72 244.209 84.54C244.149 84.36 244.119 84.1 244.119 83.76V78.33H244.959V83.62C244.959 83.8733 244.986 84.0433 245.039 84.13C245.092 84.2167 245.236 84.26 245.469 84.26H245.659V85H245.289ZM248.622 85.12C248.102 85.12 247.662 85.0067 247.302 84.78C246.942 84.5467 246.665 84.2367 246.472 83.85C246.285 83.4567 246.192 83.0167 246.192 82.53C246.192 82.0033 246.298 81.55 246.512 81.17C246.725 80.7833 247.012 80.4867 247.372 80.28C247.738 80.0667 248.148 79.96 248.602 79.96C248.995 79.96 249.342 80.04 249.642 80.2C249.942 80.3533 250.188 80.5633 250.382 80.83C250.582 81.09 250.725 81.3867 250.812 81.72C250.905 82.0533 250.938 82.3967 250.912 82.75H247.092C247.105 83.1633 247.195 83.49 247.362 83.73C247.535 83.97 247.738 84.14 247.972 84.24C248.205 84.3333 248.422 84.38 248.622 84.38C248.902 84.38 249.135 84.3367 249.322 84.25C249.515 84.1567 249.668 84.0367 249.782 83.89L250.592 84.13C250.412 84.4167 250.155 84.6533 249.822 84.84C249.488 85.0267 249.088 85.12 248.622 85.12ZM247.102 82.08H250.022C250.022 81.8467 249.962 81.6233 249.842 81.41C249.728 81.1967 249.565 81.0233 249.352 80.89C249.145 80.75 248.895 80.68 248.602 80.68C248.355 80.68 248.122 80.7267 247.902 80.82C247.682 80.9133 247.498 81.0633 247.352 81.27C247.212 81.4767 247.128 81.7467 247.102 82.08ZM253.592 85.12C253.305 85.12 253.022 85.0767 252.742 84.99C252.469 84.8967 252.222 84.76 252.002 84.58C251.789 84.3933 251.625 84.16 251.512 83.88L252.322 83.58C252.395 83.8733 252.555 84.0867 252.802 84.22C253.055 84.3467 253.319 84.41 253.592 84.41C253.792 84.41 253.979 84.38 254.152 84.32C254.332 84.26 254.479 84.1733 254.592 84.06C254.705 83.9467 254.762 83.8167 254.762 83.67C254.762 83.3967 254.652 83.2033 254.432 83.09C254.219 82.9767 253.962 82.89 253.662 82.83L252.972 82.69C252.732 82.6367 252.509 82.5633 252.302 82.47C252.095 82.37 251.929 82.23 251.802 82.05C251.675 81.87 251.612 81.63 251.612 81.33C251.612 81.03 251.705 80.78 251.892 80.58C252.079 80.3733 252.315 80.2167 252.602 80.11C252.895 80.0033 253.202 79.95 253.522 79.95C253.915 79.95 254.285 80.0333 254.632 80.2C254.985 80.36 255.235 80.6133 255.382 80.96L254.592 81.25C254.505 81.05 254.352 80.9033 254.132 80.81C253.919 80.71 253.695 80.66 253.462 80.66C253.209 80.66 252.979 80.7167 252.772 80.83C252.565 80.9433 252.462 81.1067 252.462 81.32C252.462 81.5333 252.549 81.69 252.722 81.79C252.902 81.8833 253.122 81.9567 253.382 82.01L254.032 82.14C254.299 82.1933 254.552 82.27 254.792 82.37C255.032 82.47 255.229 82.62 255.382 82.82C255.535 83.0133 255.612 83.2867 255.612 83.64C255.612 83.9533 255.515 84.22 255.322 84.44C255.129 84.66 254.879 84.83 254.572 84.95C254.265 85.0633 253.939 85.12 253.592 85.12ZM256.929 85.12C256.756 85.12 256.606 85.0567 256.479 84.93C256.353 84.8033 256.289 84.6533 256.289 84.48C256.289 84.3 256.353 84.1467 256.479 84.02C256.606 83.8933 256.756 83.83 256.929 83.83C257.109 83.83 257.263 83.8933 257.389 84.02C257.516 84.1467 257.579 84.3 257.579 84.48C257.579 84.6533 257.516 84.8033 257.389 84.93C257.263 85.0567 257.109 85.12 256.929 85.12Z" fill="black"/>
<circle cx="221.999" cy="38.7045" r="9.85294" fill="#FCF4E9" stroke="black"/>
<circle cx="250" cy="39" r="10.5" fill="#FFBC36" stroke="black"/>
<circle cx="235.177" cy="17.9994" r="9.85294" fill="#FCF4E9" stroke="black"/>
<circle cx="259.647" cy="13.7631" r="9.85294" fill="#FCF4E9" stroke="black"/>
<circle cx="208.353" cy="12.3529" r="9.85294" fill="#FCF4E9" stroke="black"/>
<circle cx="250" cy="39" r="2" fill="black"/>
<circle cx="250" cy="39" r="5" stroke="black" stroke-linecap="round" stroke-linejoin="round" stroke-dasharray="1 2"/>
</g>
<defs>
<clipPath id="clip0_6125_41697">
<rect width="270" height="85" fill="white"/>
</clipPath>
</defs>
</svg>
