<svg width="193" height="43" viewBox="0 0 193 43" fill="none" xmlns="http://www.w3.org/2000/svg">
<path d="M4.36471 27.9303L1 34.3538L7.72942 38.6362L10.1765 37.1068L10.4824 33.7421L20.2706 30.9891L19.353 37.4127L21.4941 38.0244L23.0235 38.6362L26.0824 39.8597L28.5294 38.0244L30.3647 35.5774V33.4362V22.1185L27.6118 11.4126L19.9647 4.07145L12.9294 2.84792L8.0353 5.60086L2.8353 13.8597L4.05883 18.142L4.36471 27.9303Z" fill="#B8CEFF" stroke="black" stroke-width="1.18987"/>
<path d="M5.28271 26.0953L5.5886 14.7777L7.42389 11.1071L12.318 7.74237L13.5415 8.9659L22.718 13.2483L22.4121 17.2247L23.6357 21.2012L25.7768 18.1424L26.6945 18.4483L27.3063 20.5894L26.0827 23.6483L23.6357 25.1777V23.0365L23.0239 26.7071L20.8827 30.6836L15.071 34.0483L10.4827 33.7424L7.11801 29.7659L5.28271 26.0953Z" fill="#B8CEFF" stroke="black" stroke-width="1.18987"/>
<path d="M15.0711 25.789L12.0122 26.0949L11.0946 24.8713L11.7063 18.7537L10.4828 17.836H7.72988L6.50635 18.1419M14.7652 18.4478L15.9887 17.836H18.7416L19.9652 18.4478" stroke="black" stroke-width="1.18987"/>
<path d="M43.1651 12.9192L42.2993 22.0096V22.4424L45.7623 26.7712L48.3596 24.6068L63.5102 28.0698L70.0033 23.3082V18.5466L69.1375 14.2178L68.2718 12.0534L65.2417 7.7247L63.5102 6.42608L58.3157 4.69458H53.1212L45.7623 8.59045L43.1651 12.9192Z" fill="#FFA0A2" stroke="black" stroke-width="1.18987"/>
<path d="M46.6274 35.4287L44.463 28.9356L42.7315 29.8014L41.4329 28.9356L41 25.9055V22.0096H42.7315L44.463 24.174V16.3823L47.0602 13.3521V9.88915L52.2547 7.2919L60.9122 8.15765L66.1067 11.1878L66.9725 14.6508L67.4053 24.174L69.5697 22.4425L70.8683 24.174L70.0026 30.4507L68.704 31.5329L67.1889 30.4507L66.9725 32.8315L63.5095 37.5931L58.7478 38.4589L49.6575 37.5931L46.6274 35.4287Z" fill="#FFA0A2"/>
<path d="M67.4053 24.174V28.0699L67.1889 30.4507M67.4053 24.174L66.9725 14.6508L66.1067 11.1878L60.9122 8.15765L52.2547 7.2919L47.0602 9.88915V13.3521L44.463 16.3823V24.174L42.7315 22.0096H41V25.9055L41.4329 28.9356L42.7315 29.8014L44.463 28.9356L46.6274 35.4287L49.6575 37.5931L58.7478 38.4589L63.5095 37.5931L66.9725 32.8315L67.1889 30.4507M67.4053 24.174L69.5697 22.4425L70.8683 24.174L70.0026 30.4507L68.704 31.5329L67.1889 30.4507" stroke="black" stroke-width="1.18987"/>
<path d="M55.2842 25.4726L57.4486 25.0397L59.1801 24.6068L58.7472 17.6808L60.4787 15.5165L63.9417 15.9493L65.6732 17.6808M53.9856 15.5165H49.2239L47.0596 16.8151" stroke="black" stroke-width="1.18987"/>
<path d="M117 28.0224L116.218 33.2378L114.132 33.7593L111.785 31.9339L110.22 31.6732L108.395 31.9339L107.352 29.3263L106.569 31.4124L107.612 33.4985L106.569 34.0201L105.787 33.2378L105.266 36.8885L102.919 37.41L101.876 36.1062L100.572 35.0631V29.3263L99.5286 31.4124L89.6195 32.977L88.0549 34.0201L85.9688 34.2808V32.977L84.665 31.6732V35.0631L83.8827 36.8885L83.3611 36.1062V31.4124L82.3181 33.2378V38.9746L81.5358 40.8L81.0142 38.4531V26.9794L83.3611 16.2879L86.7511 8.46495L90.4018 5.07498L96.1387 3.77115L101.876 5.07498L107.352 8.72571L110.22 14.7233V16.2879L111.785 19.1564L114.392 23.0679L117 28.0224Z" fill="#CFB8FF" stroke="black" stroke-width="1.18987"/>
<path d="M95.0952 33.7596L99.0067 32.4558L100.311 28.805L100.05 25.4151V22.2859L98.7459 19.6782V17.0706L96.399 13.4198L93.5306 9.76909H90.923H88.5761L87.2722 10.8122L85.7076 13.4198L84.6646 17.0706V20.1998L83.8823 22.8074L84.4038 25.4151L88.0545 31.6735L90.6622 33.7596H95.0952Z" fill="#CFB8FF" stroke="black" stroke-width="1.18987"/>
<path d="M92.2271 23.8505L89.6194 24.1113L88.5763 22.8074L89.0979 18.1137L87.5333 16.8098H85.7079L84.9256 17.3314M92.7486 17.3314L94.3132 16.2883H96.9208L97.4424 16.8098" stroke="black" stroke-width="1.18987"/>
<path d="M127 19.9956L127.701 22.0984L137.865 28.0565L148.379 27.706L155.038 22.4489L156.089 18.5937V14.0375L152.585 8.0795L148.028 3.87381L145.225 2.12144H142.421L139.617 3.87381L136.463 3.52334L134.36 5.27571L130.505 10.5328L127 16.8413V19.9956Z" fill="#FFE6B5"/>
<path d="M131.206 30.5098L129.103 26.6546L131.206 27.3555V30.5098Z" fill="#FFE6B5"/>
<path d="M127 19.9956L127.701 22.0984L137.865 28.0565L148.379 27.706L155.038 22.4489L156.089 18.5937V14.0375L152.585 8.0795L148.028 3.87381L145.225 2.12144H142.421L139.617 3.87381L136.463 3.52334L134.36 5.27571L130.505 10.5328L127 16.8413V19.9956Z" stroke="black" stroke-width="1.18987"/>
<path d="M131.206 30.5098L129.103 26.6546L131.206 27.3555V30.5098Z" stroke="black" stroke-width="1.18987"/>
<path d="M134.361 32.9633L131.907 28.4071L131.207 27.0052H130.506L129.454 26.6548L128.052 24.9024V22.0986L128.753 20.3462H131.207V19.6453L132.959 13.6872L135.062 9.13109L138.216 6.3273H143.123L146.277 7.02825L150.833 10.533L152.585 14.0377L153.286 17.192L152.585 20.6967L153.286 22.7996L154.338 22.0986L155.039 22.7996L154.338 27.3557L153.637 28.4071L152.196 27.3557L150.833 32.2624L148.029 34.7157L144.525 36.1176L138.917 35.4166L134.361 32.9633Z" fill="#FFE6B5"/>
<path d="M153.286 22.7996L152.585 25.9538L152.196 27.3557M153.286 22.7996L152.585 20.6967L153.286 17.192L152.585 14.0377L150.833 10.533L146.277 7.02825L143.123 6.3273H138.216L135.062 9.13109L132.959 13.6872L131.207 19.6453V20.3462H128.753L128.052 22.0986V24.9024L129.454 26.6548L130.506 27.0052H131.207L131.907 28.4071L134.361 32.9633L138.917 35.4166L144.525 36.1176L148.029 34.7157L150.833 32.2624L152.196 27.3557M153.286 22.7996L154.338 22.0986L155.039 22.7996L154.338 27.3557L153.637 28.4071L152.196 27.3557" stroke="black" stroke-width="1.18987"/>
<path d="M142.422 23.8509L144.525 24.2014L145.226 23.5004V15.79L146.978 14.3881L150.833 14.7386M135.413 15.0891L138.567 14.0376H141.721" stroke="black" stroke-width="1.18987"/>
<path d="M173.339 29.9776L171.528 25.7517V24.8462H170.32L169.113 22.4314V17.9036L167.604 16.6962V13.6777L167 10.3574L171.528 6.4333L172.131 4.6222L177.263 1.90555L181.791 1L187.526 3.4148L190.846 5.52775L191.752 13.6777L191.45 16.9981L190.242 17.9036V20.9221L188.733 23.3369H187.306L187.224 24.2425L186.62 25.7517L185.111 29.3739L181.791 32.3924L178.168 32.9961L175.452 32.3924L173.339 29.9776Z" fill="#B8CEFF"/>
<path d="M171.528 19.111V13.6777L172.131 10.3574L174.546 8.2444M171.528 19.111V24.8462M171.528 19.111L170.32 17.9036H169.113M190.242 17.9036L189.639 16.6962L187.828 19.111L187.526 20.9221L187.306 23.3369M190.242 17.9036V20.9221L188.733 23.3369H187.306M190.242 17.9036L191.45 16.9981L191.752 13.6777L190.846 5.52775L187.526 3.4148L181.791 1L177.263 1.90555L172.131 4.6222L171.528 6.4333L167 10.3574L167.604 13.6777V16.6962L169.113 17.9036M187.306 23.3369L187.224 24.2425L186.62 25.7517L185.111 29.3739L181.791 32.3924L178.168 32.9961L175.452 32.3924L173.339 29.9776L171.528 25.7517V24.8462M171.528 24.8462H170.32L169.113 22.4314V17.9036" stroke="black" stroke-width="1.18987"/>
<path d="M176.358 22.7326L179.377 23.0345V17.6012L180.282 16.6956H183.905M176.358 16.6956H173.038" stroke="black" stroke-width="1.18987"/>
<path d="M174.546 8.54608L176.659 12.4701L181.791 13.9794H185.111L186.319 16.3942L188.13 18.809" stroke="black" stroke-width="1.18987"/>
</svg>
