<svg width="300" height="100" viewBox="0 0 300 100" fill="none" xmlns="http://www.w3.org/2000/svg">
<path d="M29.0004 67L31.5104 60.31H32.5604L35.0604 67H34.0604L33.5504 65.54H30.5104L30.0004 67H29.0004ZM30.8004 64.73H33.2604L32.0304 61.26L30.8004 64.73ZM41.1129 67.12C40.7262 67.12 40.3996 67.0433 40.1329 66.89C39.8662 66.73 39.6562 66.5167 39.5029 66.25L39.2829 67H38.6629V60.32H39.5029V62.82C39.6562 62.56 39.8662 62.3533 40.1329 62.2C40.3996 62.04 40.7262 61.96 41.1129 61.96C41.4929 61.96 41.8429 62.0633 42.1629 62.27C42.4896 62.47 42.7496 62.7633 42.9429 63.15C43.1429 63.53 43.2429 63.9933 43.2429 64.54C43.2429 65.0867 43.1429 65.5533 42.9429 65.94C42.7496 66.32 42.4896 66.6133 42.1629 66.82C41.8429 67.02 41.4929 67.12 41.1129 67.12ZM40.8929 66.4C41.3196 66.4 41.6596 66.2367 41.9129 65.91C42.1729 65.5833 42.3029 65.1267 42.3029 64.54C42.3029 63.9467 42.1729 63.49 41.9129 63.17C41.6596 62.8433 41.3196 62.68 40.8929 62.68C40.4662 62.68 40.1229 62.8433 39.8629 63.17C39.6096 63.49 39.4829 63.9467 39.4829 64.54C39.4829 65.1267 39.6096 65.5833 39.8629 65.91C40.1229 66.2367 40.4662 66.4 40.8929 66.4ZM45.897 67.12C45.5103 67.12 45.2003 67.04 44.967 66.88C44.7336 66.7133 44.5636 66.4867 44.457 66.2C44.357 65.9067 44.307 65.5733 44.307 65.2V62.03H45.147V65C45.147 65.3667 45.1903 65.65 45.277 65.85C45.3636 66.05 45.4836 66.19 45.637 66.27C45.797 66.3433 45.9803 66.38 46.187 66.38C46.5803 66.38 46.887 66.2433 47.107 65.97C47.3336 65.69 47.447 65.2867 47.447 64.76V62.03H48.287V67H47.657L47.447 66.28C47.307 66.52 47.117 66.72 46.877 66.88C46.637 67.04 46.3103 67.12 45.897 67.12ZM52.1383 67.12C51.7516 67.12 51.4249 67.0433 51.1583 66.89C50.8916 66.73 50.6816 66.5167 50.5283 66.25L50.3083 67H49.6883V60.32H50.5283V62.82C50.6816 62.56 50.8916 62.3533 51.1583 62.2C51.4249 62.04 51.7516 61.96 52.1383 61.96C52.5183 61.96 52.8683 62.0633 53.1883 62.27C53.5149 62.47 53.7749 62.7633 53.9683 63.15C54.1683 63.53 54.2683 63.9933 54.2683 64.54C54.2683 65.0867 54.1683 65.5533 53.9683 65.94C53.7749 66.32 53.5149 66.6133 53.1883 66.82C52.8683 67.02 52.5183 67.12 52.1383 67.12ZM51.9183 66.4C52.3449 66.4 52.6849 66.2367 52.9383 65.91C53.1983 65.5833 53.3283 65.1267 53.3283 64.54C53.3283 63.9467 53.1983 63.49 52.9383 63.17C52.6849 62.8433 52.3449 62.68 51.9183 62.68C51.4916 62.68 51.1483 62.8433 50.8883 63.17C50.6349 63.49 50.5083 63.9467 50.5083 64.54C50.5083 65.1267 50.6349 65.5833 50.8883 65.91C51.1483 66.2367 51.4916 66.4 51.9183 66.4ZM57.8023 67.12C57.4157 67.12 57.089 67.0433 56.8223 66.89C56.5557 66.73 56.3457 66.5167 56.1923 66.25L55.9723 67H55.3523V60.32H56.1923V62.82C56.3457 62.56 56.5557 62.3533 56.8223 62.2C57.089 62.04 57.4157 61.96 57.8023 61.96C58.1823 61.96 58.5323 62.0633 58.8523 62.27C59.179 62.47 59.439 62.7633 59.6323 63.15C59.8323 63.53 59.9323 63.9933 59.9323 64.54C59.9323 65.0867 59.8323 65.5533 59.6323 65.94C59.439 66.32 59.179 66.6133 58.8523 66.82C58.5323 67.02 58.1823 67.12 57.8023 67.12ZM57.5823 66.4C58.009 66.4 58.349 66.2367 58.6023 65.91C58.8623 65.5833 58.9923 65.1267 58.9923 64.54C58.9923 63.9467 58.8623 63.49 58.6023 63.17C58.349 62.8433 58.009 62.68 57.5823 62.68C57.1557 62.68 56.8123 62.8433 56.5523 63.17C56.299 63.49 56.1723 63.9467 56.1723 64.54C56.1723 65.1267 56.299 65.5833 56.5523 65.91C56.8123 66.2367 57.1557 66.4 57.5823 66.4ZM62.1864 67C61.8731 67 61.6297 66.97 61.4564 66.91C61.2897 66.8433 61.1731 66.72 61.1064 66.54C61.0464 66.36 61.0164 66.1 61.0164 65.76V60.33H61.8564V65.62C61.8564 65.8733 61.8831 66.0433 61.9364 66.13C61.9897 66.2167 62.1331 66.26 62.3664 66.26H62.5564V67H62.1864ZM65.519 67.12C64.999 67.12 64.559 67.0067 64.199 66.78C63.839 66.5467 63.5623 66.2367 63.369 65.85C63.1823 65.4567 63.089 65.0167 63.089 64.53C63.089 64.0033 63.1957 63.55 63.409 63.17C63.6223 62.7833 63.909 62.4867 64.269 62.28C64.6357 62.0667 65.0457 61.96 65.499 61.96C65.8923 61.96 66.239 62.04 66.539 62.2C66.839 62.3533 67.0857 62.5633 67.279 62.83C67.479 63.09 67.6223 63.3867 67.709 63.72C67.8023 64.0533 67.8357 64.3967 67.809 64.75H63.989C64.0023 65.1633 64.0923 65.49 64.259 65.73C64.4323 65.97 64.6357 66.14 64.869 66.24C65.1023 66.3333 65.319 66.38 65.519 66.38C65.799 66.38 66.0323 66.3367 66.219 66.25C66.4123 66.1567 66.5657 66.0367 66.679 65.89L67.489 66.13C67.309 66.4167 67.0523 66.6533 66.719 66.84C66.3857 67.0267 65.9857 67.12 65.519 67.12ZM63.999 64.08H66.919C66.919 63.8467 66.859 63.6233 66.739 63.41C66.6257 63.1967 66.4623 63.0233 66.249 62.89C66.0423 62.75 65.7923 62.68 65.499 62.68C65.2523 62.68 65.019 62.7267 64.799 62.82C64.579 62.9133 64.3957 63.0633 64.249 63.27C64.109 63.4767 64.0257 63.7467 63.999 64.08ZM17.7254 79V74.04H18.3354L18.6054 74.96C18.7787 74.66 19.0121 74.42 19.3054 74.24C19.6054 74.0533 19.9621 73.96 20.3754 73.96V74.83C20.3287 74.83 20.2787 74.83 20.2254 74.83C20.1787 74.83 20.1321 74.8333 20.0854 74.84C19.5187 74.8867 19.1221 75.0833 18.8954 75.43C18.6754 75.7767 18.5654 76.2567 18.5654 76.87V79H17.7254ZM23.2338 79.12C22.7138 79.12 22.2738 79.0067 21.9138 78.78C21.5538 78.5467 21.2772 78.2367 21.0838 77.85C20.8972 77.4567 20.8038 77.0167 20.8038 76.53C20.8038 76.0033 20.9105 75.55 21.1238 75.17C21.3372 74.7833 21.6238 74.4867 21.9838 74.28C22.3505 74.0667 22.7605 73.96 23.2138 73.96C23.6072 73.96 23.9538 74.04 24.2538 74.2C24.5538 74.3533 24.8005 74.5633 24.9938 74.83C25.1938 75.09 25.3372 75.3867 25.4238 75.72C25.5172 76.0533 25.5505 76.3967 25.5238 76.75H21.7038C21.7172 77.1633 21.8072 77.49 21.9738 77.73C22.1472 77.97 22.3505 78.14 22.5838 78.24C22.8172 78.3333 23.0338 78.38 23.2338 78.38C23.5138 78.38 23.7472 78.3367 23.9338 78.25C24.1272 78.1567 24.2805 78.0367 24.3938 77.89L25.2038 78.13C25.0238 78.4167 24.7672 78.6533 24.4338 78.84C24.1005 79.0267 23.7005 79.12 23.2338 79.12ZM21.7138 76.08H24.6338C24.6338 75.8467 24.5738 75.6233 24.4538 75.41C24.3405 75.1967 24.1772 75.0233 23.9638 74.89C23.7572 74.75 23.5072 74.68 23.2138 74.68C22.9672 74.68 22.7338 74.7267 22.5138 74.82C22.2938 74.9133 22.1105 75.0633 21.9638 75.27C21.8238 75.4767 21.7405 75.7467 21.7138 76.08ZM26.5145 80.61V74.04H27.1245L27.3545 74.82C27.5078 74.56 27.7178 74.3533 27.9845 74.2C28.2511 74.04 28.5778 73.96 28.9645 73.96C29.3445 73.96 29.6945 74.0633 30.0145 74.27C30.3411 74.47 30.6011 74.7633 30.7945 75.15C30.9945 75.53 31.0945 75.9933 31.0945 76.54C31.0945 77.08 30.9945 77.5433 30.7945 77.93C30.6011 78.3167 30.3411 78.6133 30.0145 78.82C29.6945 79.02 29.3445 79.12 28.9645 79.12C28.5778 79.12 28.2511 79.0433 27.9845 78.89C27.7178 78.73 27.5078 78.5167 27.3545 78.25V80.61H26.5145ZM28.7445 78.4C29.1711 78.4 29.5111 78.2367 29.7645 77.91C30.0245 77.5833 30.1545 77.1267 30.1545 76.54C30.1545 75.9467 30.0245 75.49 29.7645 75.17C29.5111 74.8433 29.1711 74.68 28.7445 74.68C28.3178 74.68 27.9745 74.8433 27.7145 75.17C27.4611 75.49 27.3345 75.9467 27.3345 76.54C27.3345 77.1267 27.4611 77.5833 27.7145 77.91C27.9745 78.2367 28.3178 78.4 28.7445 78.4ZM32.1785 79V74.04H32.7885L33.0585 74.96C33.2318 74.66 33.4652 74.42 33.7585 74.24C34.0585 74.0533 34.4152 73.96 34.8285 73.96V74.83C34.7818 74.83 34.7318 74.83 34.6785 74.83C34.6318 74.83 34.5852 74.8333 34.5385 74.84C33.9718 74.8867 33.5752 75.0833 33.3485 75.43C33.1285 75.7767 33.0185 76.2567 33.0185 76.87V79H32.1785ZM37.687 79.12C37.167 79.12 36.727 79.0067 36.367 78.78C36.007 78.5467 35.7303 78.2367 35.537 77.85C35.3503 77.4567 35.257 77.0167 35.257 76.53C35.257 76.0033 35.3636 75.55 35.577 75.17C35.7903 74.7833 36.077 74.4867 36.437 74.28C36.8036 74.0667 37.2136 73.96 37.667 73.96C38.0603 73.96 38.407 74.04 38.707 74.2C39.007 74.3533 39.2536 74.5633 39.447 74.83C39.647 75.09 39.7903 75.3867 39.877 75.72C39.9703 76.0533 40.0036 76.3967 39.977 76.75H36.157C36.1703 77.1633 36.2603 77.49 36.427 77.73C36.6003 77.97 36.8036 78.14 37.037 78.24C37.2703 78.3333 37.487 78.38 37.687 78.38C37.967 78.38 38.2003 78.3367 38.387 78.25C38.5803 78.1567 38.7336 78.0367 38.847 77.89L39.657 78.13C39.477 78.4167 39.2203 78.6533 38.887 78.84C38.5536 79.0267 38.1536 79.12 37.687 79.12ZM36.167 76.08H39.087C39.087 75.8467 39.027 75.6233 38.907 75.41C38.7936 75.1967 38.6303 75.0233 38.417 74.89C38.2103 74.75 37.9603 74.68 37.667 74.68C37.4203 74.68 37.187 74.7267 36.967 74.82C36.747 74.9133 36.5636 75.0633 36.417 75.27C36.277 75.4767 36.1936 75.7467 36.167 76.08ZM42.6576 79.12C42.3709 79.12 42.0876 79.0767 41.8076 78.99C41.5342 78.8967 41.2876 78.76 41.0676 78.58C40.8542 78.3933 40.6909 78.16 40.5776 77.88L41.3876 77.58C41.4609 77.8733 41.6209 78.0867 41.8676 78.22C42.1209 78.3467 42.3842 78.41 42.6576 78.41C42.8576 78.41 43.0442 78.38 43.2176 78.32C43.3976 78.26 43.5442 78.1733 43.6576 78.06C43.7709 77.9467 43.8276 77.8167 43.8276 77.67C43.8276 77.3967 43.7176 77.2033 43.4976 77.09C43.2842 76.9767 43.0276 76.89 42.7276 76.83L42.0376 76.69C41.7976 76.6367 41.5742 76.5633 41.3676 76.47C41.1609 76.37 40.9942 76.23 40.8676 76.05C40.7409 75.87 40.6776 75.63 40.6776 75.33C40.6776 75.03 40.7709 74.78 40.9576 74.58C41.1442 74.3733 41.3809 74.2167 41.6676 74.11C41.9609 74.0033 42.2676 73.95 42.5876 73.95C42.9809 73.95 43.3509 74.0333 43.6976 74.2C44.0509 74.36 44.3009 74.6133 44.4476 74.96L43.6576 75.25C43.5709 75.05 43.4176 74.9033 43.1976 74.81C42.9842 74.71 42.7609 74.66 42.5276 74.66C42.2742 74.66 42.0442 74.7167 41.8376 74.83C41.6309 74.9433 41.5276 75.1067 41.5276 75.32C41.5276 75.5333 41.6142 75.69 41.7876 75.79C41.9676 75.8833 42.1876 75.9567 42.4476 76.01L43.0976 76.14C43.3642 76.1933 43.6176 76.27 43.8576 76.37C44.0976 76.47 44.2942 76.62 44.4476 76.82C44.6009 77.0133 44.6776 77.2867 44.6776 77.64C44.6776 77.9533 44.5809 78.22 44.3876 78.44C44.1942 78.66 43.9442 78.83 43.6376 78.95C43.3309 79.0633 43.0042 79.12 42.6576 79.12ZM47.7846 79.12C47.2646 79.12 46.8246 79.0067 46.4646 78.78C46.1046 78.5467 45.8279 78.2367 45.6346 77.85C45.4479 77.4567 45.3546 77.0167 45.3546 76.53C45.3546 76.0033 45.4613 75.55 45.6746 75.17C45.8879 74.7833 46.1746 74.4867 46.5346 74.28C46.9013 74.0667 47.3113 73.96 47.7646 73.96C48.1579 73.96 48.5046 74.04 48.8046 74.2C49.1046 74.3533 49.3513 74.5633 49.5446 74.83C49.7446 75.09 49.8879 75.3867 49.9746 75.72C50.0679 76.0533 50.1013 76.3967 50.0746 76.75H46.2546C46.2679 77.1633 46.3579 77.49 46.5246 77.73C46.6979 77.97 46.9013 78.14 47.1346 78.24C47.3679 78.3333 47.5846 78.38 47.7846 78.38C48.0646 78.38 48.2979 78.3367 48.4846 78.25C48.6779 78.1567 48.8313 78.0367 48.9446 77.89L49.7546 78.13C49.5746 78.4167 49.3179 78.6533 48.9846 78.84C48.6513 79.0267 48.2513 79.12 47.7846 79.12ZM46.2646 76.08H49.1846C49.1846 75.8467 49.1246 75.6233 49.0046 75.41C48.8913 75.1967 48.7279 75.0233 48.5146 74.89C48.3079 74.75 48.0579 74.68 47.7646 74.68C47.5179 74.68 47.2846 74.7267 47.0646 74.82C46.8446 74.9133 46.6613 75.0633 46.5146 75.27C46.3746 75.4767 46.2913 75.7467 46.2646 76.08ZM51.0652 79V74.04H51.6852L51.9052 74.79C52.0452 74.5567 52.2419 74.36 52.4952 74.2C52.7486 74.04 53.0852 73.96 53.5052 73.96C54.1052 73.96 54.5286 74.1367 54.7752 74.49C55.0219 74.8367 55.1452 75.2933 55.1452 75.86V79H54.3052V76.11C54.3052 75.8567 54.2819 75.6233 54.2352 75.41C54.1886 75.19 54.0852 75.0133 53.9252 74.88C53.7719 74.7467 53.5352 74.68 53.2152 74.68C52.8086 74.68 52.4886 74.82 52.2552 75.1C52.0219 75.3733 51.9052 75.7767 51.9052 76.31V79H51.0652ZM57.9073 79C57.5939 79 57.3506 78.97 57.1773 78.91C57.0106 78.8433 56.8939 78.72 56.8273 78.54C56.7673 78.36 56.7373 78.1 56.7373 77.76V74.71H55.8973V74.04H56.7373V72.79H57.5773V74.04H58.5373V74.71H57.5773V77.62C57.5773 77.8733 57.6006 78.0433 57.6473 78.13C57.7006 78.2167 57.8473 78.26 58.0873 78.26H58.5373V79H57.9073ZM61.3295 79.12C61.0428 79.12 60.7595 79.0767 60.4795 78.99C60.2061 78.8967 59.9595 78.76 59.7395 78.58C59.5261 78.3933 59.3628 78.16 59.2495 77.88L60.0595 77.58C60.1328 77.8733 60.2928 78.0867 60.5395 78.22C60.7928 78.3467 61.0561 78.41 61.3295 78.41C61.5295 78.41 61.7161 78.38 61.8895 78.32C62.0695 78.26 62.2161 78.1733 62.3295 78.06C62.4428 77.9467 62.4995 77.8167 62.4995 77.67C62.4995 77.3967 62.3895 77.2033 62.1695 77.09C61.9561 76.9767 61.6995 76.89 61.3995 76.83L60.7095 76.69C60.4695 76.6367 60.2461 76.5633 60.0395 76.47C59.8328 76.37 59.6661 76.23 59.5395 76.05C59.4128 75.87 59.3495 75.63 59.3495 75.33C59.3495 75.03 59.4428 74.78 59.6295 74.58C59.8161 74.3733 60.0528 74.2167 60.3395 74.11C60.6328 74.0033 60.9395 73.95 61.2595 73.95C61.6528 73.95 62.0228 74.0333 62.3695 74.2C62.7228 74.36 62.9728 74.6133 63.1195 74.96L62.3295 75.25C62.2428 75.05 62.0895 74.9033 61.8695 74.81C61.6561 74.71 61.4328 74.66 61.1995 74.66C60.9461 74.66 60.7161 74.7167 60.5095 74.83C60.3028 74.9433 60.1995 75.1067 60.1995 75.32C60.1995 75.5333 60.2861 75.69 60.4595 75.79C60.6395 75.8833 60.8595 75.9567 61.1195 76.01L61.7695 76.14C62.0361 76.1933 62.2895 76.27 62.5295 76.37C62.7695 76.47 62.9661 76.62 63.1195 76.82C63.2728 77.0133 63.3495 77.2867 63.3495 77.64C63.3495 77.9533 63.2528 78.22 63.0595 78.44C62.8661 78.66 62.6161 78.83 62.3095 78.95C62.0028 79.0633 61.6761 79.12 61.3295 79.12ZM68.5392 79.12C68.2259 79.12 67.9392 79.0633 67.6792 78.95C67.4192 78.8367 67.2126 78.6733 67.0592 78.46C66.9059 78.2467 66.8292 77.99 66.8292 77.69C66.8292 77.2967 66.9659 76.9867 67.2392 76.76C67.5192 76.5333 67.9092 76.36 68.4092 76.24C68.9159 76.1133 69.5059 76.0133 70.1792 75.94C70.1926 75.52 70.1092 75.1967 69.9292 74.97C69.7492 74.7433 69.4592 74.63 69.0592 74.63C68.7592 74.63 68.5126 74.7 68.3192 74.84C68.1326 74.9733 68.0126 75.16 67.9592 75.4L67.1492 75.16C67.2826 74.78 67.5192 74.4867 67.8592 74.28C68.2059 74.0667 68.6026 73.96 69.0492 73.96C69.7359 73.96 70.2359 74.1233 70.5492 74.45C70.8692 74.77 71.0292 75.2767 71.0292 75.97V77.13C71.0292 77.5433 71.0459 77.9 71.0792 78.2C71.1126 78.5 71.1526 78.7667 71.1992 79H70.4292L70.2292 78.32C70.0826 78.5667 69.8726 78.7633 69.5992 78.91C69.3259 79.05 68.9726 79.12 68.5392 79.12ZM68.7192 78.45C68.9792 78.45 69.2259 78.4033 69.4592 78.31C69.6926 78.2167 69.8826 78.06 70.0292 77.84C70.1759 77.6133 70.2492 77.3067 70.2492 76.92V76.61C69.7426 76.6633 69.3026 76.73 68.9292 76.81C68.5559 76.8833 68.2659 76.99 68.0592 77.13C67.8592 77.2633 67.7592 77.4433 67.7592 77.67C67.7592 77.9033 67.8426 78.0933 68.0092 78.24C68.1826 78.38 68.4192 78.45 68.7192 78.45ZM72.4129 79V74.04H73.0329L73.2529 74.79C73.3929 74.5567 73.5896 74.36 73.8429 74.2C74.0962 74.04 74.4329 73.96 74.8529 73.96C75.4529 73.96 75.8762 74.1367 76.1229 74.49C76.3696 74.8367 76.4929 75.2933 76.4929 75.86V79H75.6529V76.11C75.6529 75.8567 75.6296 75.6233 75.5829 75.41C75.5362 75.19 75.4329 75.0133 75.2729 74.88C75.1196 74.7467 74.8829 74.68 74.5629 74.68C74.1562 74.68 73.8362 74.82 73.6029 75.1C73.3696 75.3733 73.2529 75.7767 73.2529 76.31V79H72.4129ZM25.4702 85.1C25.3035 85.1 25.1568 85.04 25.0302 84.92C24.9102 84.7933 24.8502 84.6433 24.8502 84.47C24.8502 84.2967 24.9102 84.15 25.0302 84.03C25.1568 83.91 25.3035 83.85 25.4702 83.85C25.6435 83.85 25.7902 83.91 25.9102 84.03C26.0368 84.15 26.1002 84.2967 26.1002 84.47C26.1002 84.6433 26.0368 84.7933 25.9102 84.92C25.7902 85.04 25.6435 85.1 25.4702 85.1ZM25.0502 91V86.71H24.3602V86.04H25.8902V91H25.0502ZM27.3934 91V86.04H28.0134L28.2334 86.79C28.3734 86.5567 28.57 86.36 28.8234 86.2C29.0767 86.04 29.4134 85.96 29.8334 85.96C30.4334 85.96 30.8567 86.1367 31.1034 86.49C31.35 86.8367 31.4734 87.2933 31.4734 87.86V91H30.6334V88.11C30.6334 87.8567 30.61 87.6233 30.5634 87.41C30.5167 87.19 30.4134 87.0133 30.2534 86.88C30.1 86.7467 29.8634 86.68 29.5434 86.68C29.1367 86.68 28.8167 86.82 28.5834 87.1C28.35 87.3733 28.2334 87.7767 28.2334 88.31V91H27.3934ZM34.5549 91.12C34.1816 91.12 33.8316 91.02 33.5049 90.82C33.1783 90.6133 32.9149 90.32 32.7149 89.94C32.5216 89.5533 32.4249 89.0867 32.4249 88.54C32.4249 87.9933 32.5216 87.53 32.7149 87.15C32.9149 86.7633 33.1783 86.47 33.5049 86.27C33.8316 86.0633 34.1816 85.96 34.5549 85.96C34.9483 85.96 35.2783 86.04 35.5449 86.2C35.8116 86.3533 36.0183 86.56 36.1649 86.82V84.32H37.0049V89.13C37.0049 89.2967 37.0116 89.5433 37.0249 89.87C37.0383 90.19 37.0883 90.5667 37.1749 91H36.3849L36.1649 90.25C36.0183 90.5167 35.8116 90.73 35.5449 90.89C35.2783 91.0433 34.9483 91.12 34.5549 91.12ZM34.7749 90.4C35.2016 90.4 35.5416 90.2367 35.7949 89.91C36.0549 89.5833 36.1849 89.1267 36.1849 88.54C36.1849 87.9467 36.0549 87.49 35.7949 87.17C35.5416 86.8433 35.2016 86.68 34.7749 86.68C34.3483 86.68 34.0049 86.8433 33.7449 87.17C33.4916 87.49 33.3649 87.9467 33.3649 88.54C33.3649 89.1267 33.4916 89.5833 33.7449 89.91C34.0049 90.2367 34.3483 90.4 34.7749 90.4ZM39.2495 85.1C39.0828 85.1 38.9361 85.04 38.8095 84.92C38.6895 84.7933 38.6295 84.6433 38.6295 84.47C38.6295 84.2967 38.6895 84.15 38.8095 84.03C38.9361 83.91 39.0828 83.85 39.2495 83.85C39.4228 83.85 39.5695 83.91 39.6895 84.03C39.8161 84.15 39.8795 84.2967 39.8795 84.47C39.8795 84.6433 39.8161 84.7933 39.6895 84.92C39.5695 85.04 39.4228 85.1 39.2495 85.1ZM38.8295 91V86.71H38.1395V86.04H39.6695V91H38.8295ZM42.2427 91L40.4727 86.04H41.3827L42.6827 89.9L43.9727 86.04H44.8827L43.1127 91H42.2427ZM46.4467 85.1C46.2801 85.1 46.1334 85.04 46.0067 84.92C45.8867 84.7933 45.8267 84.6433 45.8267 84.47C45.8267 84.2967 45.8867 84.15 46.0067 84.03C46.1334 83.91 46.2801 83.85 46.4467 83.85C46.6201 83.85 46.7667 83.91 46.8867 84.03C47.0134 84.15 47.0767 84.2967 47.0767 84.47C47.0767 84.6433 47.0134 84.7933 46.8867 84.92C46.7667 85.04 46.6201 85.1 46.4467 85.1ZM46.0267 91V86.71H45.3367V86.04H46.8667V91H46.0267ZM50.1799 91.12C49.8066 91.12 49.4566 91.02 49.1299 90.82C48.8033 90.6133 48.5399 90.32 48.3399 89.94C48.1466 89.5533 48.0499 89.0867 48.0499 88.54C48.0499 87.9933 48.1466 87.53 48.3399 87.15C48.5399 86.7633 48.8033 86.47 49.1299 86.27C49.4566 86.0633 49.8066 85.96 50.1799 85.96C50.5733 85.96 50.9033 86.04 51.1699 86.2C51.4366 86.3533 51.6433 86.56 51.7899 86.82V84.32H52.6299V89.13C52.6299 89.2967 52.6366 89.5433 52.6499 89.87C52.6633 90.19 52.7133 90.5667 52.7999 91H52.0099L51.7899 90.25C51.6433 90.5167 51.4366 90.73 51.1699 90.89C50.9033 91.0433 50.5733 91.12 50.1799 91.12ZM50.3999 90.4C50.8266 90.4 51.1666 90.2367 51.4199 89.91C51.6799 89.5833 51.8099 89.1267 51.8099 88.54C51.8099 87.9467 51.6799 87.49 51.4199 87.17C51.1666 86.8433 50.8266 86.68 50.3999 86.68C49.9733 86.68 49.6299 86.8433 49.3699 87.17C49.1166 87.49 48.9899 87.9467 48.9899 88.54C48.9899 89.1267 49.1166 89.5833 49.3699 89.91C49.6299 90.2367 49.9733 90.4 50.3999 90.4ZM55.5845 91.12C55.1978 91.12 54.8878 91.04 54.6545 90.88C54.4211 90.7133 54.2511 90.4867 54.1445 90.2C54.0445 89.9067 53.9945 89.5733 53.9945 89.2V86.03H54.8345V89C54.8345 89.3667 54.8778 89.65 54.9645 89.85C55.0511 90.05 55.1711 90.19 55.3245 90.27C55.4845 90.3433 55.6678 90.38 55.8745 90.38C56.2678 90.38 56.5745 90.2433 56.7945 89.97C57.0211 89.69 57.1345 89.2867 57.1345 88.76V86.03H57.9745V91H57.3445L57.1345 90.28C56.9945 90.52 56.8045 90.72 56.5645 90.88C56.3245 91.04 55.9978 91.12 55.5845 91.12ZM60.7658 91.12C60.4524 91.12 60.1658 91.0633 59.9058 90.95C59.6458 90.8367 59.4391 90.6733 59.2858 90.46C59.1324 90.2467 59.0558 89.99 59.0558 89.69C59.0558 89.2967 59.1924 88.9867 59.4658 88.76C59.7458 88.5333 60.1358 88.36 60.6358 88.24C61.1424 88.1133 61.7324 88.0133 62.4058 87.94C62.4191 87.52 62.3358 87.1967 62.1558 86.97C61.9758 86.7433 61.6858 86.63 61.2858 86.63C60.9858 86.63 60.7391 86.7 60.5458 86.84C60.3591 86.9733 60.2391 87.16 60.1858 87.4L59.3758 87.16C59.5091 86.78 59.7458 86.4867 60.0858 86.28C60.4324 86.0667 60.8291 85.96 61.2758 85.96C61.9624 85.96 62.4624 86.1233 62.7758 86.45C63.0958 86.77 63.2558 87.2767 63.2558 87.97V89.13C63.2558 89.5433 63.2724 89.9 63.3058 90.2C63.3391 90.5 63.3791 90.7667 63.4258 91H62.6558L62.4558 90.32C62.3091 90.5667 62.0991 90.7633 61.8258 90.91C61.5524 91.05 61.1991 91.12 60.7658 91.12ZM60.9458 90.45C61.2058 90.45 61.4524 90.4033 61.6858 90.31C61.9191 90.2167 62.1091 90.06 62.2558 89.84C62.4024 89.6133 62.4758 89.3067 62.4758 88.92V88.61C61.9691 88.6633 61.5291 88.73 61.1558 88.81C60.7824 88.8833 60.4924 88.99 60.2858 89.13C60.0858 89.2633 59.9858 89.4433 59.9858 89.67C59.9858 89.9033 60.0691 90.0933 60.2358 90.24C60.4091 90.38 60.6458 90.45 60.9458 90.45ZM65.8095 91C65.4961 91 65.2528 90.97 65.0795 90.91C64.9128 90.8433 64.7961 90.72 64.7295 90.54C64.6695 90.36 64.6395 90.1 64.6395 89.76V84.33H65.4795V89.62C65.4795 89.8733 65.5061 90.0433 65.5595 90.13C65.6128 90.2167 65.7561 90.26 65.9895 90.26H66.1795V91H65.8095ZM68.722 91.12C68.4354 91.12 68.152 91.0767 67.872 90.99C67.5987 90.8967 67.352 90.76 67.132 90.58C66.9187 90.3933 66.7554 90.16 66.642 89.88L67.452 89.58C67.5254 89.8733 67.6854 90.0867 67.932 90.22C68.1854 90.3467 68.4487 90.41 68.722 90.41C68.922 90.41 69.1087 90.38 69.282 90.32C69.462 90.26 69.6087 90.1733 69.722 90.06C69.8354 89.9467 69.892 89.8167 69.892 89.67C69.892 89.3967 69.782 89.2033 69.562 89.09C69.3487 88.9767 69.092 88.89 68.792 88.83L68.102 88.69C67.862 88.6367 67.6387 88.5633 67.432 88.47C67.2254 88.37 67.0587 88.23 66.932 88.05C66.8054 87.87 66.742 87.63 66.742 87.33C66.742 87.03 66.8354 86.78 67.022 86.58C67.2087 86.3733 67.4454 86.2167 67.732 86.11C68.0254 86.0033 68.332 85.95 68.652 85.95C69.0454 85.95 69.4154 86.0333 69.762 86.2C70.1154 86.36 70.3654 86.6133 70.512 86.96L69.722 87.25C69.6354 87.05 69.482 86.9033 69.262 86.81C69.0487 86.71 68.8254 86.66 68.592 86.66C68.3387 86.66 68.1087 86.7167 67.902 86.83C67.6954 86.9433 67.592 87.1067 67.592 87.32C67.592 87.5333 67.6787 87.69 67.852 87.79C68.032 87.8833 68.252 87.9567 68.512 88.01L69.162 88.14C69.4287 88.1933 69.682 88.27 69.922 88.37C70.162 88.47 70.3587 88.62 70.512 88.82C70.6654 89.0133 70.742 89.2867 70.742 89.64C70.742 89.9533 70.6454 90.22 70.452 90.44C70.2587 90.66 70.0087 90.83 69.702 90.95C69.3954 91.0633 69.0687 91.12 68.722 91.12ZM72.0591 91.12C71.8857 91.12 71.7357 91.0567 71.6091 90.93C71.4824 90.8033 71.4191 90.6533 71.4191 90.48C71.4191 90.3 71.4824 90.1467 71.6091 90.02C71.7357 89.8933 71.8857 89.83 72.0591 89.83C72.2391 89.83 72.3924 89.8933 72.5191 90.02C72.6457 90.1467 72.7091 90.3 72.7091 90.48C72.7091 90.6533 72.6457 90.8033 72.5191 90.93C72.3924 91.0567 72.2391 91.12 72.0591 91.12Z" fill="black"/>
<circle cx="48.5" cy="34.5" r="17" fill="#FCF4E9" stroke="black"/>
<path d="M100.814 67.12C100.181 67.12 99.6375 66.9733 99.1842 66.68C98.7308 66.38 98.3842 65.97 98.1442 65.45C97.9042 64.93 97.7842 64.33 97.7842 63.65C97.7842 62.9567 97.9108 62.3533 98.1642 61.84C98.4242 61.32 98.7875 60.9167 99.2542 60.63C99.7208 60.3433 100.268 60.2 100.894 60.2C101.454 60.2 101.958 60.33 102.404 60.59C102.858 60.85 103.198 61.2233 103.424 61.71L102.604 62.01C102.458 61.71 102.234 61.4667 101.934 61.28C101.641 61.0867 101.278 60.99 100.844 60.99C100.451 60.99 100.094 61.09 99.7742 61.29C99.4608 61.49 99.2108 61.79 99.0242 62.19C98.8375 62.5833 98.7442 63.07 98.7442 63.65C98.7442 64.21 98.8342 64.69 99.0142 65.09C99.1942 65.49 99.4442 65.7967 99.7642 66.01C100.091 66.2233 100.461 66.33 100.874 66.33C101.308 66.33 101.671 66.2367 101.964 66.05C102.264 65.8633 102.491 65.6167 102.644 65.31L103.464 65.61C103.224 66.1033 102.871 66.48 102.404 66.74C101.938 66.9933 101.408 67.12 100.814 67.12ZM106.607 67.12C106.32 67.12 106.037 67.07 105.757 66.97C105.477 66.87 105.22 66.7167 104.987 66.51C104.76 66.2967 104.577 66.0267 104.437 65.7C104.297 65.3733 104.227 64.9867 104.227 64.54C104.227 64.0933 104.297 63.7067 104.437 63.38C104.577 63.0533 104.76 62.7867 104.987 62.58C105.22 62.3667 105.477 62.21 105.757 62.11C106.037 62.01 106.32 61.96 106.607 61.96C106.893 61.96 107.177 62.01 107.457 62.11C107.743 62.21 108 62.3667 108.227 62.58C108.46 62.7867 108.643 63.0533 108.777 63.38C108.917 63.7067 108.987 64.0933 108.987 64.54C108.987 64.9867 108.917 65.3733 108.777 65.7C108.643 66.0267 108.46 66.2967 108.227 66.51C108 66.7167 107.743 66.87 107.457 66.97C107.177 67.07 106.893 67.12 106.607 67.12ZM106.607 66.38C106.847 66.38 107.08 66.3167 107.307 66.19C107.533 66.0567 107.72 65.8567 107.867 65.59C108.013 65.3167 108.087 64.9667 108.087 64.54C108.087 64.1133 108.013 63.7667 107.867 63.5C107.72 63.2267 107.533 63.0267 107.307 62.9C107.08 62.7667 106.847 62.7 106.607 62.7C106.373 62.7 106.14 62.7667 105.907 62.9C105.68 63.0267 105.493 63.2267 105.347 63.5C105.2 63.7667 105.127 64.1133 105.127 64.54C105.127 64.9667 105.2 65.3167 105.347 65.59C105.493 65.8567 105.68 66.0567 105.907 66.19C106.14 66.3167 106.373 66.38 106.607 66.38ZM110.064 67V62.04H110.684L110.904 62.79C111.044 62.5567 111.241 62.36 111.494 62.2C111.748 62.04 112.084 61.96 112.504 61.96C113.104 61.96 113.528 62.1367 113.774 62.49C114.021 62.8367 114.144 63.2933 114.144 63.86V67H113.304V64.11C113.304 63.8567 113.281 63.6233 113.234 63.41C113.188 63.19 113.084 63.0133 112.924 62.88C112.771 62.7467 112.534 62.68 112.214 62.68C111.808 62.68 111.488 62.82 111.254 63.1C111.021 63.3733 110.904 63.7767 110.904 64.31V67H110.064ZM115.523 67V62.04H116.143L116.363 62.79C116.503 62.5567 116.7 62.36 116.953 62.2C117.207 62.04 117.543 61.96 117.963 61.96C118.563 61.96 118.987 62.1367 119.233 62.49C119.48 62.8367 119.603 63.2933 119.603 63.86V67H118.763V64.11C118.763 63.8567 118.74 63.6233 118.693 63.41C118.647 63.19 118.543 63.0133 118.383 62.88C118.23 62.7467 117.993 62.68 117.673 62.68C117.267 62.68 116.947 62.82 116.713 63.1C116.48 63.3733 116.363 63.7767 116.363 64.31V67H115.523ZM122.985 67.12C122.465 67.12 122.025 67.0067 121.665 66.78C121.305 66.5467 121.028 66.2367 120.835 65.85C120.648 65.4567 120.555 65.0167 120.555 64.53C120.555 64.0033 120.661 63.55 120.875 63.17C121.088 62.7833 121.375 62.4867 121.735 62.28C122.101 62.0667 122.511 61.96 122.965 61.96C123.358 61.96 123.705 62.04 124.005 62.2C124.305 62.3533 124.551 62.5633 124.745 62.83C124.945 63.09 125.088 63.3867 125.175 63.72C125.268 64.0533 125.301 64.3967 125.275 64.75H121.455C121.468 65.1633 121.558 65.49 121.725 65.73C121.898 65.97 122.101 66.14 122.335 66.24C122.568 66.3333 122.785 66.38 122.985 66.38C123.265 66.38 123.498 66.3367 123.685 66.25C123.878 66.1567 124.031 66.0367 124.145 65.89L124.955 66.13C124.775 66.4167 124.518 66.6533 124.185 66.84C123.851 67.0267 123.451 67.12 122.985 67.12ZM121.465 64.08H124.385C124.385 63.8467 124.325 63.6233 124.205 63.41C124.091 63.1967 123.928 63.0233 123.715 62.89C123.508 62.75 123.258 62.68 122.965 62.68C122.718 62.68 122.485 62.7267 122.265 62.82C122.045 62.9133 121.861 63.0633 121.715 63.27C121.575 63.4767 121.491 63.7467 121.465 64.08ZM128.255 67.12C127.782 67.12 127.372 67.01 127.025 66.79C126.679 66.5633 126.412 66.2567 126.225 65.87C126.039 65.4833 125.945 65.04 125.945 64.54C125.945 64.0467 126.042 63.6067 126.235 63.22C126.435 62.8267 126.715 62.52 127.075 62.3C127.435 62.0733 127.859 61.96 128.345 61.96C128.792 61.96 129.175 62.07 129.495 62.29C129.815 62.51 130.055 62.7733 130.215 63.08L129.445 63.36C129.339 63.16 129.182 63 128.975 62.88C128.769 62.76 128.539 62.7 128.285 62.7C128.039 62.7 127.805 62.7667 127.585 62.9C127.365 63.0267 127.189 63.2267 127.055 63.5C126.922 63.7667 126.855 64.11 126.855 64.53C126.855 64.9433 126.922 65.29 127.055 65.57C127.195 65.8433 127.372 66.0467 127.585 66.18C127.805 66.3133 128.039 66.38 128.285 66.38C128.559 66.38 128.795 66.32 128.995 66.2C129.202 66.0733 129.359 65.9167 129.465 65.73L130.235 66.01C130.049 66.33 129.782 66.5967 129.435 66.81C129.089 67.0167 128.695 67.12 128.255 67.12ZM132.775 67C132.462 67 132.219 66.97 132.045 66.91C131.879 66.8433 131.762 66.72 131.695 66.54C131.635 66.36 131.605 66.1 131.605 65.76V62.71H130.765V62.04H131.605V60.79H132.445V62.04H133.405V62.71H132.445V65.62C132.445 65.8733 132.469 66.0433 132.515 66.13C132.569 66.2167 132.715 66.26 132.955 66.26H133.405V67H132.775ZM135.368 61.1C135.201 61.1 135.054 61.04 134.928 60.92C134.808 60.7933 134.748 60.6433 134.748 60.47C134.748 60.2967 134.808 60.15 134.928 60.03C135.054 59.91 135.201 59.85 135.368 59.85C135.541 59.85 135.688 59.91 135.808 60.03C135.934 60.15 135.998 60.2967 135.998 60.47C135.998 60.6433 135.934 60.7933 135.808 60.92C135.688 61.04 135.541 61.1 135.368 61.1ZM134.948 67V62.71H134.258V62.04H135.788V67H134.948ZM139.351 67.12C139.064 67.12 138.781 67.07 138.501 66.97C138.221 66.87 137.964 66.7167 137.731 66.51C137.504 66.2967 137.321 66.0267 137.181 65.7C137.041 65.3733 136.971 64.9867 136.971 64.54C136.971 64.0933 137.041 63.7067 137.181 63.38C137.321 63.0533 137.504 62.7867 137.731 62.58C137.964 62.3667 138.221 62.21 138.501 62.11C138.781 62.01 139.064 61.96 139.351 61.96C139.637 61.96 139.921 62.01 140.201 62.11C140.487 62.21 140.744 62.3667 140.971 62.58C141.204 62.7867 141.387 63.0533 141.521 63.38C141.661 63.7067 141.731 64.0933 141.731 64.54C141.731 64.9867 141.661 65.3733 141.521 65.7C141.387 66.0267 141.204 66.2967 140.971 66.51C140.744 66.7167 140.487 66.87 140.201 66.97C139.921 67.07 139.637 67.12 139.351 67.12ZM139.351 66.38C139.591 66.38 139.824 66.3167 140.051 66.19C140.277 66.0567 140.464 65.8567 140.611 65.59C140.757 65.3167 140.831 64.9667 140.831 64.54C140.831 64.1133 140.757 63.7667 140.611 63.5C140.464 63.2267 140.277 63.0267 140.051 62.9C139.824 62.7667 139.591 62.7 139.351 62.7C139.117 62.7 138.884 62.7667 138.651 62.9C138.424 63.0267 138.237 63.2267 138.091 63.5C137.944 63.7667 137.871 64.1133 137.871 64.54C137.871 64.9667 137.944 65.3167 138.091 65.59C138.237 65.8567 138.424 66.0567 138.651 66.19C138.884 66.3167 139.117 66.38 139.351 66.38ZM142.808 67V62.04H143.428L143.648 62.79C143.788 62.5567 143.985 62.36 144.238 62.2C144.492 62.04 144.828 61.96 145.248 61.96C145.848 61.96 146.272 62.1367 146.518 62.49C146.765 62.8367 146.888 63.2933 146.888 63.86V67H146.048V64.11C146.048 63.8567 146.025 63.6233 145.978 63.41C145.932 63.19 145.828 63.0133 145.668 62.88C145.515 62.7467 145.278 62.68 144.958 62.68C144.552 62.68 144.232 62.82 143.998 63.1C143.765 63.3733 143.648 63.7767 143.648 64.31V67H142.808ZM152.58 67C152.267 67 152.023 66.97 151.85 66.91C151.683 66.8433 151.567 66.72 151.5 66.54C151.44 66.36 151.41 66.1 151.41 65.76V62.71H150.57V62.04H151.41V60.79H152.25V62.04H153.21V62.71H152.25V65.62C152.25 65.8733 152.273 66.0433 152.32 66.13C152.373 66.2167 152.52 66.26 152.76 66.26H153.21V67H152.58ZM154.312 67V60.32H155.152V62.79C155.292 62.5567 155.489 62.36 155.742 62.2C155.996 62.04 156.332 61.96 156.752 61.96C157.352 61.96 157.776 62.1367 158.022 62.49C158.269 62.8367 158.392 63.2933 158.392 63.86V67H157.552V64.11C157.552 63.8567 157.529 63.6233 157.482 63.41C157.436 63.19 157.332 63.0133 157.172 62.88C157.019 62.7467 156.782 62.68 156.462 62.68C156.056 62.68 155.736 62.82 155.502 63.1C155.269 63.3733 155.152 63.7767 155.152 64.31V67H154.312ZM160.631 61.1C160.465 61.1 160.318 61.04 160.191 60.92C160.071 60.7933 160.011 60.6433 160.011 60.47C160.011 60.2967 160.071 60.15 160.191 60.03C160.318 59.91 160.465 59.85 160.631 59.85C160.805 59.85 160.951 59.91 161.071 60.03C161.198 60.15 161.261 60.2967 161.261 60.47C161.261 60.6433 161.198 60.7933 161.071 60.92C160.951 61.04 160.805 61.1 160.631 61.1ZM160.211 67V62.71H159.521V62.04H161.051V67H160.211ZM164.544 67.12C164.071 67.12 163.661 67.01 163.314 66.79C162.968 66.5633 162.701 66.2567 162.514 65.87C162.328 65.4833 162.234 65.04 162.234 64.54C162.234 64.0467 162.331 63.6067 162.524 63.22C162.724 62.8267 163.004 62.52 163.364 62.3C163.724 62.0733 164.148 61.96 164.634 61.96C165.081 61.96 165.464 62.07 165.784 62.29C166.104 62.51 166.344 62.7733 166.504 63.08L165.734 63.36C165.628 63.16 165.471 63 165.264 62.88C165.058 62.76 164.828 62.7 164.574 62.7C164.328 62.7 164.094 62.7667 163.874 62.9C163.654 63.0267 163.478 63.2267 163.344 63.5C163.211 63.7667 163.144 64.11 163.144 64.53C163.144 64.9433 163.211 65.29 163.344 65.57C163.484 65.8433 163.661 66.0467 163.874 66.18C164.094 66.3133 164.328 66.38 164.574 66.38C164.848 66.38 165.084 66.32 165.284 66.2C165.491 66.0733 165.648 65.9167 165.754 65.73L166.524 66.01C166.338 66.33 166.071 66.5967 165.724 66.81C165.378 67.0167 164.984 67.12 164.544 67.12ZM167.554 67V60.32H168.394V64.27L170.394 62.04H171.404L169.534 64.09L171.654 67H170.624L168.974 64.71L168.394 65.34V67H167.554ZM172.457 67V62.04H173.077L173.297 62.79C173.437 62.5567 173.634 62.36 173.887 62.2C174.14 62.04 174.477 61.96 174.897 61.96C175.497 61.96 175.92 62.1367 176.167 62.49C176.414 62.8367 176.537 63.2933 176.537 63.86V67H175.697V64.11C175.697 63.8567 175.674 63.6233 175.627 63.41C175.58 63.19 175.477 63.0133 175.317 62.88C175.164 62.7467 174.927 62.68 174.607 62.68C174.2 62.68 173.88 62.82 173.647 63.1C173.414 63.3733 173.297 63.7767 173.297 64.31V67H172.457ZM179.918 67.12C179.398 67.12 178.958 67.0067 178.598 66.78C178.238 66.5467 177.962 66.2367 177.768 65.85C177.582 65.4567 177.488 65.0167 177.488 64.53C177.488 64.0033 177.595 63.55 177.808 63.17C178.022 62.7833 178.308 62.4867 178.668 62.28C179.035 62.0667 179.445 61.96 179.898 61.96C180.292 61.96 180.638 62.04 180.938 62.2C181.238 62.3533 181.485 62.5633 181.678 62.83C181.878 63.09 182.022 63.3867 182.108 63.72C182.202 64.0533 182.235 64.3967 182.208 64.75H178.388C178.402 65.1633 178.492 65.49 178.658 65.73C178.832 65.97 179.035 66.14 179.268 66.24C179.502 66.3333 179.718 66.38 179.918 66.38C180.198 66.38 180.432 66.3367 180.618 66.25C180.812 66.1567 180.965 66.0367 181.078 65.89L181.888 66.13C181.708 66.4167 181.452 66.6533 181.118 66.84C180.785 67.0267 180.385 67.12 179.918 67.12ZM178.398 64.08H181.318C181.318 63.8467 181.258 63.6233 181.138 63.41C181.025 63.1967 180.862 63.0233 180.648 62.89C180.442 62.75 180.192 62.68 179.898 62.68C179.652 62.68 179.418 62.7267 179.198 62.82C178.978 62.9133 178.795 63.0633 178.648 63.27C178.508 63.4767 178.425 63.7467 178.398 64.08ZM184.889 67.12C184.602 67.12 184.319 67.0767 184.039 66.99C183.766 66.8967 183.519 66.76 183.299 66.58C183.086 66.3933 182.922 66.16 182.809 65.88L183.619 65.58C183.692 65.8733 183.852 66.0867 184.099 66.22C184.352 66.3467 184.616 66.41 184.889 66.41C185.089 66.41 185.276 66.38 185.449 66.32C185.629 66.26 185.776 66.1733 185.889 66.06C186.002 65.9467 186.059 65.8167 186.059 65.67C186.059 65.3967 185.949 65.2033 185.729 65.09C185.516 64.9767 185.259 64.89 184.959 64.83L184.269 64.69C184.029 64.6367 183.806 64.5633 183.599 64.47C183.392 64.37 183.226 64.23 183.099 64.05C182.972 63.87 182.909 63.63 182.909 63.33C182.909 63.03 183.002 62.78 183.189 62.58C183.376 62.3733 183.612 62.2167 183.899 62.11C184.192 62.0033 184.499 61.95 184.819 61.95C185.212 61.95 185.582 62.0333 185.929 62.2C186.282 62.36 186.532 62.6133 186.679 62.96L185.889 63.25C185.802 63.05 185.649 62.9033 185.429 62.81C185.216 62.71 184.992 62.66 184.759 62.66C184.506 62.66 184.276 62.7167 184.069 62.83C183.862 62.9433 183.759 63.1067 183.759 63.32C183.759 63.5333 183.846 63.69 184.019 63.79C184.199 63.8833 184.419 63.9567 184.679 64.01L185.329 64.14C185.596 64.1933 185.849 64.27 186.089 64.37C186.329 64.47 186.526 64.62 186.679 64.82C186.832 65.0133 186.909 65.2867 186.909 65.64C186.909 65.9533 186.812 66.22 186.619 66.44C186.426 66.66 186.176 66.83 185.869 66.95C185.562 67.0633 185.236 67.12 184.889 67.12ZM189.596 67.12C189.309 67.12 189.026 67.0767 188.746 66.99C188.473 66.8967 188.226 66.76 188.006 66.58C187.793 66.3933 187.629 66.16 187.516 65.88L188.326 65.58C188.399 65.8733 188.559 66.0867 188.806 66.22C189.059 66.3467 189.323 66.41 189.596 66.41C189.796 66.41 189.983 66.38 190.156 66.32C190.336 66.26 190.483 66.1733 190.596 66.06C190.709 65.9467 190.766 65.8167 190.766 65.67C190.766 65.3967 190.656 65.2033 190.436 65.09C190.223 64.9767 189.966 64.89 189.666 64.83L188.976 64.69C188.736 64.6367 188.513 64.5633 188.306 64.47C188.099 64.37 187.933 64.23 187.806 64.05C187.679 63.87 187.616 63.63 187.616 63.33C187.616 63.03 187.709 62.78 187.896 62.58C188.083 62.3733 188.319 62.2167 188.606 62.11C188.899 62.0033 189.206 61.95 189.526 61.95C189.919 61.95 190.289 62.0333 190.636 62.2C190.989 62.36 191.239 62.6133 191.386 62.96L190.596 63.25C190.509 63.05 190.356 62.9033 190.136 62.81C189.923 62.71 189.699 62.66 189.466 62.66C189.213 62.66 188.983 62.7167 188.776 62.83C188.569 62.9433 188.466 63.1067 188.466 63.32C188.466 63.5333 188.553 63.69 188.726 63.79C188.906 63.8833 189.126 63.9567 189.386 64.01L190.036 64.14C190.303 64.1933 190.556 64.27 190.796 64.37C191.036 64.47 191.233 64.62 191.386 64.82C191.539 65.0133 191.616 65.2867 191.616 65.64C191.616 65.9533 191.519 66.22 191.326 66.44C191.133 66.66 190.883 66.83 190.576 66.95C190.269 67.0633 189.943 67.12 189.596 67.12ZM102.453 73.1C102.286 73.1 102.139 73.04 102.013 72.92C101.893 72.7933 101.833 72.6433 101.833 72.47C101.833 72.2967 101.893 72.15 102.013 72.03C102.139 71.91 102.286 71.85 102.453 71.85C102.626 71.85 102.773 71.91 102.893 72.03C103.019 72.15 103.083 72.2967 103.083 72.47C103.083 72.6433 103.019 72.7933 102.893 72.92C102.773 73.04 102.626 73.1 102.453 73.1ZM102.033 79V74.71H101.343V74.04H102.873V79H102.033ZM104.376 79V74.04H104.996L105.216 74.79C105.356 74.5567 105.552 74.36 105.806 74.2C106.059 74.04 106.396 73.96 106.816 73.96C107.416 73.96 107.839 74.1367 108.086 74.49C108.332 74.8367 108.456 75.2933 108.456 75.86V79H107.616V76.11C107.616 75.8567 107.592 75.6233 107.546 75.41C107.499 75.19 107.396 75.0133 107.236 74.88C107.082 74.7467 106.846 74.68 106.526 74.68C106.119 74.68 105.799 74.82 105.566 75.1C105.332 75.3733 105.216 75.7767 105.216 76.31V79H104.376ZM111.537 79.12C111.164 79.12 110.814 79.02 110.487 78.82C110.161 78.6133 109.897 78.32 109.697 77.94C109.504 77.5533 109.407 77.0867 109.407 76.54C109.407 75.9933 109.504 75.53 109.697 75.15C109.897 74.7633 110.161 74.47 110.487 74.27C110.814 74.0633 111.164 73.96 111.537 73.96C111.931 73.96 112.261 74.04 112.527 74.2C112.794 74.3533 113.001 74.56 113.147 74.82V72.32H113.987V77.13C113.987 77.2967 113.994 77.5433 114.007 77.87C114.021 78.19 114.071 78.5667 114.157 79H113.367L113.147 78.25C113.001 78.5167 112.794 78.73 112.527 78.89C112.261 79.0433 111.931 79.12 111.537 79.12ZM111.757 78.4C112.184 78.4 112.524 78.2367 112.777 77.91C113.037 77.5833 113.167 77.1267 113.167 76.54C113.167 75.9467 113.037 75.49 112.777 75.17C112.524 74.8433 112.184 74.68 111.757 74.68C111.331 74.68 110.987 74.8433 110.727 75.17C110.474 75.49 110.347 75.9467 110.347 76.54C110.347 77.1267 110.474 77.5833 110.727 77.91C110.987 78.2367 111.331 78.4 111.757 78.4ZM116.232 73.1C116.065 73.1 115.919 73.04 115.792 72.92C115.672 72.7933 115.612 72.6433 115.612 72.47C115.612 72.2967 115.672 72.15 115.792 72.03C115.919 71.91 116.065 71.85 116.232 71.85C116.405 71.85 116.552 71.91 116.672 72.03C116.799 72.15 116.862 72.2967 116.862 72.47C116.862 72.6433 116.799 72.7933 116.672 72.92C116.552 73.04 116.405 73.1 116.232 73.1ZM115.812 79V74.71H115.122V74.04H116.652V79H115.812ZM120.145 79.12C119.672 79.12 119.262 79.01 118.915 78.79C118.568 78.5633 118.302 78.2567 118.115 77.87C117.928 77.4833 117.835 77.04 117.835 76.54C117.835 76.0467 117.932 75.6067 118.125 75.22C118.325 74.8267 118.605 74.52 118.965 74.3C119.325 74.0733 119.748 73.96 120.235 73.96C120.682 73.96 121.065 74.07 121.385 74.29C121.705 74.51 121.945 74.7733 122.105 75.08L121.335 75.36C121.228 75.16 121.072 75 120.865 74.88C120.658 74.76 120.428 74.7 120.175 74.7C119.928 74.7 119.695 74.7667 119.475 74.9C119.255 75.0267 119.078 75.2267 118.945 75.5C118.812 75.7667 118.745 76.11 118.745 76.53C118.745 76.9433 118.812 77.29 118.945 77.57C119.085 77.8433 119.262 78.0467 119.475 78.18C119.695 78.3133 119.928 78.38 120.175 78.38C120.448 78.38 120.685 78.32 120.885 78.2C121.092 78.0733 121.248 77.9167 121.355 77.73L122.125 78.01C121.938 78.33 121.672 78.5967 121.325 78.81C120.978 79.0167 120.585 79.12 120.145 79.12ZM124.545 79.12C124.232 79.12 123.945 79.0633 123.685 78.95C123.425 78.8367 123.218 78.6733 123.065 78.46C122.912 78.2467 122.835 77.99 122.835 77.69C122.835 77.2967 122.972 76.9867 123.245 76.76C123.525 76.5333 123.915 76.36 124.415 76.24C124.922 76.1133 125.512 76.0133 126.185 75.94C126.198 75.52 126.115 75.1967 125.935 74.97C125.755 74.7433 125.465 74.63 125.065 74.63C124.765 74.63 124.518 74.7 124.325 74.84C124.138 74.9733 124.018 75.16 123.965 75.4L123.155 75.16C123.288 74.78 123.525 74.4867 123.865 74.28C124.212 74.0667 124.608 73.96 125.055 73.96C125.742 73.96 126.242 74.1233 126.555 74.45C126.875 74.77 127.035 75.2767 127.035 75.97V77.13C127.035 77.5433 127.052 77.9 127.085 78.2C127.118 78.5 127.158 78.7667 127.205 79H126.435L126.235 78.32C126.088 78.5667 125.878 78.7633 125.605 78.91C125.332 79.05 124.978 79.12 124.545 79.12ZM124.725 78.45C124.985 78.45 125.232 78.4033 125.465 78.31C125.698 78.2167 125.888 78.06 126.035 77.84C126.182 77.6133 126.255 77.3067 126.255 76.92V76.61C125.748 76.6633 125.308 76.73 124.935 76.81C124.562 76.8833 124.272 76.99 124.065 77.13C123.865 77.2633 123.765 77.4433 123.765 77.67C123.765 77.9033 123.848 78.0933 124.015 78.24C124.188 78.38 124.425 78.45 124.725 78.45ZM129.929 79C129.615 79 129.372 78.97 129.199 78.91C129.032 78.8433 128.915 78.72 128.849 78.54C128.789 78.36 128.759 78.1 128.759 77.76V74.71H127.919V74.04H128.759V72.79H129.599V74.04H130.559V74.71H129.599V77.62C129.599 77.8733 129.622 78.0433 129.669 78.13C129.722 78.2167 129.869 78.26 130.109 78.26H130.559V79H129.929ZM133.771 79.12C133.251 79.12 132.811 79.0067 132.451 78.78C132.091 78.5467 131.814 78.2367 131.621 77.85C131.434 77.4567 131.341 77.0167 131.341 76.53C131.341 76.0033 131.448 75.55 131.661 75.17C131.874 74.7833 132.161 74.4867 132.521 74.28C132.888 74.0667 133.298 73.96 133.751 73.96C134.144 73.96 134.491 74.04 134.791 74.2C135.091 74.3533 135.338 74.5633 135.531 74.83C135.731 75.09 135.874 75.3867 135.961 75.72C136.054 76.0533 136.088 76.3967 136.061 76.75H132.241C132.254 77.1633 132.344 77.49 132.511 77.73C132.684 77.97 132.888 78.14 133.121 78.24C133.354 78.3333 133.571 78.38 133.771 78.38C134.051 78.38 134.284 78.3367 134.471 78.25C134.664 78.1567 134.818 78.0367 134.931 77.89L135.741 78.13C135.561 78.4167 135.304 78.6533 134.971 78.84C134.638 79.0267 134.238 79.12 133.771 79.12ZM132.251 76.08H135.171C135.171 75.8467 135.111 75.6233 134.991 75.41C134.878 75.1967 134.714 75.0233 134.501 74.89C134.294 74.75 134.044 74.68 133.751 74.68C133.504 74.68 133.271 74.7267 133.051 74.82C132.831 74.9133 132.648 75.0633 132.501 75.27C132.361 75.4767 132.278 75.7467 132.251 76.08ZM138.742 79.12C138.455 79.12 138.172 79.0767 137.892 78.99C137.618 78.8967 137.372 78.76 137.152 78.58C136.938 78.3933 136.775 78.16 136.662 77.88L137.472 77.58C137.545 77.8733 137.705 78.0867 137.952 78.22C138.205 78.3467 138.468 78.41 138.742 78.41C138.942 78.41 139.128 78.38 139.302 78.32C139.482 78.26 139.628 78.1733 139.742 78.06C139.855 77.9467 139.912 77.8167 139.912 77.67C139.912 77.3967 139.802 77.2033 139.582 77.09C139.368 76.9767 139.112 76.89 138.812 76.83L138.122 76.69C137.882 76.6367 137.658 76.5633 137.452 76.47C137.245 76.37 137.078 76.23 136.952 76.05C136.825 75.87 136.762 75.63 136.762 75.33C136.762 75.03 136.855 74.78 137.042 74.58C137.228 74.3733 137.465 74.2167 137.752 74.11C138.045 74.0033 138.352 73.95 138.672 73.95C139.065 73.95 139.435 74.0333 139.782 74.2C140.135 74.36 140.385 74.6133 140.532 74.96L139.742 75.25C139.655 75.05 139.502 74.9033 139.282 74.81C139.068 74.71 138.845 74.66 138.612 74.66C138.358 74.66 138.128 74.7167 137.922 74.83C137.715 74.9433 137.612 75.1067 137.612 75.32C137.612 75.5333 137.698 75.69 137.872 75.79C138.052 75.8833 138.272 75.9567 138.532 76.01L139.182 76.14C139.448 76.1933 139.702 76.27 139.942 76.37C140.182 76.47 140.378 76.62 140.532 76.82C140.685 77.0133 140.762 77.2867 140.762 77.64C140.762 77.9533 140.665 78.22 140.472 78.44C140.278 78.66 140.028 78.83 139.722 78.95C139.415 79.0633 139.088 79.12 138.742 79.12ZM145.951 79.12C145.638 79.12 145.351 79.0633 145.091 78.95C144.831 78.8367 144.625 78.6733 144.471 78.46C144.318 78.2467 144.241 77.99 144.241 77.69C144.241 77.2967 144.378 76.9867 144.651 76.76C144.931 76.5333 145.321 76.36 145.821 76.24C146.328 76.1133 146.918 76.0133 147.591 75.94C147.605 75.52 147.521 75.1967 147.341 74.97C147.161 74.7433 146.871 74.63 146.471 74.63C146.171 74.63 145.925 74.7 145.731 74.84C145.545 74.9733 145.425 75.16 145.371 75.4L144.561 75.16C144.695 74.78 144.931 74.4867 145.271 74.28C145.618 74.0667 146.015 73.96 146.461 73.96C147.148 73.96 147.648 74.1233 147.961 74.45C148.281 74.77 148.441 75.2767 148.441 75.97V77.13C148.441 77.5433 148.458 77.9 148.491 78.2C148.525 78.5 148.565 78.7667 148.611 79H147.841L147.641 78.32C147.495 78.5667 147.285 78.7633 147.011 78.91C146.738 79.05 146.385 79.12 145.951 79.12ZM146.131 78.45C146.391 78.45 146.638 78.4033 146.871 78.31C147.105 78.2167 147.295 78.06 147.441 77.84C147.588 77.6133 147.661 77.3067 147.661 76.92V76.61C147.155 76.6633 146.715 76.73 146.341 76.81C145.968 76.8833 145.678 76.99 145.471 77.13C145.271 77.2633 145.171 77.4433 145.171 77.67C145.171 77.9033 145.255 78.0933 145.421 78.24C145.595 78.38 145.831 78.45 146.131 78.45ZM149.825 79V74.04H150.445L150.665 74.79C150.805 74.5567 150.995 74.36 151.235 74.2C151.482 74.04 151.788 73.96 152.155 73.96C152.535 73.96 152.842 74.0367 153.075 74.19C153.308 74.3433 153.478 74.5567 153.585 74.83C153.785 74.5233 154.025 74.3033 154.305 74.17C154.592 74.03 154.908 73.96 155.255 73.96C155.828 73.96 156.238 74.1367 156.485 74.49C156.732 74.8367 156.855 75.2933 156.855 75.86V79H156.015V76.11C156.015 75.8567 155.988 75.6233 155.935 75.41C155.888 75.19 155.788 75.0133 155.635 74.88C155.488 74.7467 155.262 74.68 154.955 74.68C154.595 74.68 154.305 74.82 154.085 75.1C153.872 75.3733 153.765 75.7767 153.765 76.31V79H152.925V76.11C152.925 75.8567 152.898 75.6233 152.845 75.41C152.798 75.19 152.698 75.0133 152.545 74.88C152.398 74.7467 152.172 74.68 151.865 74.68C151.505 74.68 151.215 74.82 150.995 75.1C150.775 75.3733 150.665 75.7767 150.665 76.31V79H149.825ZM160.186 79.12C159.899 79.12 159.616 79.07 159.336 78.97C159.056 78.87 158.799 78.7167 158.566 78.51C158.339 78.2967 158.156 78.0267 158.016 77.7C157.876 77.3733 157.806 76.9867 157.806 76.54C157.806 76.0933 157.876 75.7067 158.016 75.38C158.156 75.0533 158.339 74.7867 158.566 74.58C158.799 74.3667 159.056 74.21 159.336 74.11C159.616 74.01 159.899 73.96 160.186 73.96C160.472 73.96 160.756 74.01 161.036 74.11C161.322 74.21 161.579 74.3667 161.806 74.58C162.039 74.7867 162.222 75.0533 162.356 75.38C162.496 75.7067 162.566 76.0933 162.566 76.54C162.566 76.9867 162.496 77.3733 162.356 77.7C162.222 78.0267 162.039 78.2967 161.806 78.51C161.579 78.7167 161.322 78.87 161.036 78.97C160.756 79.07 160.472 79.12 160.186 79.12ZM160.186 78.38C160.426 78.38 160.659 78.3167 160.886 78.19C161.112 78.0567 161.299 77.8567 161.446 77.59C161.592 77.3167 161.666 76.9667 161.666 76.54C161.666 76.1133 161.592 75.7667 161.446 75.5C161.299 75.2267 161.112 75.0267 160.886 74.9C160.659 74.7667 160.426 74.7 160.186 74.7C159.952 74.7 159.719 74.7667 159.486 74.9C159.259 75.0267 159.072 75.2267 158.926 75.5C158.779 75.7667 158.706 76.1133 158.706 76.54C158.706 76.9667 158.779 77.3167 158.926 77.59C159.072 77.8567 159.259 78.0567 159.486 78.19C159.719 78.3167 159.952 78.38 160.186 78.38ZM165.213 79.12C164.827 79.12 164.517 79.04 164.283 78.88C164.05 78.7133 163.88 78.4867 163.773 78.2C163.673 77.9067 163.623 77.5733 163.623 77.2V74.03H164.463V77C164.463 77.3667 164.507 77.65 164.593 77.85C164.68 78.05 164.8 78.19 164.953 78.27C165.113 78.3433 165.297 78.38 165.503 78.38C165.897 78.38 166.203 78.2433 166.423 77.97C166.65 77.69 166.763 77.2867 166.763 76.76V74.03H167.603V79H166.973L166.763 78.28C166.623 78.52 166.433 78.72 166.193 78.88C165.953 79.04 165.627 79.12 165.213 79.12ZM169.005 79V74.04H169.625L169.845 74.79C169.985 74.5567 170.181 74.36 170.435 74.2C170.688 74.04 171.025 73.96 171.445 73.96C172.045 73.96 172.468 74.1367 172.715 74.49C172.961 74.8367 173.085 75.2933 173.085 75.86V79H172.245V76.11C172.245 75.8567 172.221 75.6233 172.175 75.41C172.128 75.19 172.025 75.0133 171.865 74.88C171.711 74.7467 171.475 74.68 171.155 74.68C170.748 74.68 170.428 74.82 170.195 75.1C169.961 75.3733 169.845 75.7767 169.845 76.31V79H169.005ZM175.847 79C175.533 79 175.29 78.97 175.117 78.91C174.95 78.8433 174.833 78.72 174.767 78.54C174.707 78.36 174.677 78.1 174.677 77.76V74.71H173.837V74.04H174.677V72.79H175.517V74.04H176.477V74.71H175.517V77.62C175.517 77.8733 175.54 78.0433 175.587 78.13C175.64 78.2167 175.787 78.26 176.027 78.26H176.477V79H175.847ZM182.442 79.12C182.155 79.12 181.872 79.07 181.592 78.97C181.312 78.87 181.055 78.7167 180.822 78.51C180.595 78.2967 180.412 78.0267 180.272 77.7C180.132 77.3733 180.062 76.9867 180.062 76.54C180.062 76.0933 180.132 75.7067 180.272 75.38C180.412 75.0533 180.595 74.7867 180.822 74.58C181.055 74.3667 181.312 74.21 181.592 74.11C181.872 74.01 182.155 73.96 182.442 73.96C182.728 73.96 183.012 74.01 183.292 74.11C183.578 74.21 183.835 74.3667 184.062 74.58C184.295 74.7867 184.478 75.0533 184.612 75.38C184.752 75.7067 184.822 76.0933 184.822 76.54C184.822 76.9867 184.752 77.3733 184.612 77.7C184.478 78.0267 184.295 78.2967 184.062 78.51C183.835 78.7167 183.578 78.87 183.292 78.97C183.012 79.07 182.728 79.12 182.442 79.12ZM182.442 78.38C182.682 78.38 182.915 78.3167 183.142 78.19C183.368 78.0567 183.555 77.8567 183.702 77.59C183.848 77.3167 183.922 76.9667 183.922 76.54C183.922 76.1133 183.848 75.7667 183.702 75.5C183.555 75.2267 183.368 75.0267 183.142 74.9C182.915 74.7667 182.682 74.7 182.442 74.7C182.208 74.7 181.975 74.7667 181.742 74.9C181.515 75.0267 181.328 75.2267 181.182 75.5C181.035 75.7667 180.962 76.1133 180.962 76.54C180.962 76.9667 181.035 77.3167 181.182 77.59C181.328 77.8567 181.515 78.0567 181.742 78.19C181.975 78.3167 182.208 78.38 182.442 78.38ZM186.189 79V74.71H185.349V74.04H186.189V73.3C186.189 72.96 186.223 72.69 186.289 72.49C186.356 72.29 186.486 72.15 186.679 72.07C186.873 71.9833 187.153 71.94 187.519 71.94H188.059V72.65H187.539C187.326 72.65 187.186 72.6933 187.119 72.78C187.059 72.8667 187.029 73.0367 187.029 73.29V74.04H188.059V74.71H187.029V79H186.189ZM114.865 91.12C114.578 91.12 114.295 91.0767 114.015 90.99C113.741 90.8967 113.495 90.76 113.275 90.58C113.061 90.3933 112.898 90.16 112.785 89.88L113.595 89.58C113.668 89.8733 113.828 90.0867 114.075 90.22C114.328 90.3467 114.591 90.41 114.865 90.41C115.065 90.41 115.251 90.38 115.425 90.32C115.605 90.26 115.751 90.1733 115.865 90.06C115.978 89.9467 116.035 89.8167 116.035 89.67C116.035 89.3967 115.925 89.2033 115.705 89.09C115.491 88.9767 115.235 88.89 114.935 88.83L114.245 88.69C114.005 88.6367 113.781 88.5633 113.575 88.47C113.368 88.37 113.201 88.23 113.075 88.05C112.948 87.87 112.885 87.63 112.885 87.33C112.885 87.03 112.978 86.78 113.165 86.58C113.351 86.3733 113.588 86.2167 113.875 86.11C114.168 86.0033 114.475 85.95 114.795 85.95C115.188 85.95 115.558 86.0333 115.905 86.2C116.258 86.36 116.508 86.6133 116.655 86.96L115.865 87.25C115.778 87.05 115.625 86.9033 115.405 86.81C115.191 86.71 114.968 86.66 114.735 86.66C114.481 86.66 114.251 86.7167 114.045 86.83C113.838 86.9433 113.735 87.1067 113.735 87.32C113.735 87.5333 113.821 87.69 113.995 87.79C114.175 87.8833 114.395 87.9567 114.655 88.01L115.305 88.14C115.571 88.1933 115.825 88.27 116.065 88.37C116.305 88.47 116.501 88.62 116.655 88.82C116.808 89.0133 116.885 89.2867 116.885 89.64C116.885 89.9533 116.788 90.22 116.595 90.44C116.401 90.66 116.151 90.83 115.845 90.95C115.538 91.0633 115.211 91.12 114.865 91.12ZM117.882 91V84.32H118.722V86.79C118.862 86.5567 119.058 86.36 119.312 86.2C119.565 86.04 119.902 85.96 120.322 85.96C120.922 85.96 121.345 86.1367 121.592 86.49C121.838 86.8367 121.962 87.2933 121.962 87.86V91H121.122V88.11C121.122 87.8567 121.098 87.6233 121.052 87.41C121.005 87.19 120.902 87.0133 120.742 86.88C120.588 86.7467 120.352 86.68 120.032 86.68C119.625 86.68 119.305 86.82 119.072 87.1C118.838 87.3733 118.722 87.7767 118.722 88.31V91H117.882ZM124.731 91.12C124.417 91.12 124.131 91.0633 123.871 90.95C123.611 90.8367 123.404 90.6733 123.251 90.46C123.097 90.2467 123.021 89.99 123.021 89.69C123.021 89.2967 123.157 88.9867 123.431 88.76C123.711 88.5333 124.101 88.36 124.601 88.24C125.107 88.1133 125.697 88.0133 126.371 87.94C126.384 87.52 126.301 87.1967 126.121 86.97C125.941 86.7433 125.651 86.63 125.251 86.63C124.951 86.63 124.704 86.7 124.511 86.84C124.324 86.9733 124.204 87.16 124.151 87.4L123.341 87.16C123.474 86.78 123.711 86.4867 124.051 86.28C124.397 86.0667 124.794 85.96 125.241 85.96C125.927 85.96 126.427 86.1233 126.741 86.45C127.061 86.77 127.221 87.2767 127.221 87.97V89.13C127.221 89.5433 127.237 89.9 127.271 90.2C127.304 90.5 127.344 90.7667 127.391 91H126.621L126.421 90.32C126.274 90.5667 126.064 90.7633 125.791 90.91C125.517 91.05 125.164 91.12 124.731 91.12ZM124.911 90.45C125.171 90.45 125.417 90.4033 125.651 90.31C125.884 90.2167 126.074 90.06 126.221 89.84C126.367 89.6133 126.441 89.3067 126.441 88.92V88.61C125.934 88.6633 125.494 88.73 125.121 88.81C124.747 88.8833 124.457 88.99 124.251 89.13C124.051 89.2633 123.951 89.4433 123.951 89.67C123.951 89.9033 124.034 90.0933 124.201 90.24C124.374 90.38 124.611 90.45 124.911 90.45ZM128.604 91V86.04H129.214L129.484 86.96C129.658 86.66 129.891 86.42 130.184 86.24C130.484 86.0533 130.841 85.96 131.254 85.96V86.83C131.208 86.83 131.158 86.83 131.104 86.83C131.058 86.83 131.011 86.8333 130.964 86.84C130.398 86.8867 130.001 87.0833 129.774 87.43C129.554 87.7767 129.444 88.2567 129.444 88.87V91H128.604ZM134.113 91.12C133.593 91.12 133.153 91.0067 132.793 90.78C132.433 90.5467 132.156 90.2367 131.963 89.85C131.776 89.4567 131.683 89.0167 131.683 88.53C131.683 88.0033 131.789 87.55 132.003 87.17C132.216 86.7833 132.503 86.4867 132.863 86.28C133.229 86.0667 133.639 85.96 134.093 85.96C134.486 85.96 134.833 86.04 135.133 86.2C135.433 86.3533 135.679 86.5633 135.873 86.83C136.073 87.09 136.216 87.3867 136.303 87.72C136.396 88.0533 136.429 88.3967 136.403 88.75H132.583C132.596 89.1633 132.686 89.49 132.853 89.73C133.026 89.97 133.229 90.14 133.463 90.24C133.696 90.3333 133.913 90.38 134.113 90.38C134.393 90.38 134.626 90.3367 134.813 90.25C135.006 90.1567 135.159 90.0367 135.273 89.89L136.083 90.13C135.903 90.4167 135.646 90.6533 135.313 90.84C134.979 91.0267 134.579 91.12 134.113 91.12ZM132.593 88.08H135.513C135.513 87.8467 135.453 87.6233 135.333 87.41C135.219 87.1967 135.056 87.0233 134.843 86.89C134.636 86.75 134.386 86.68 134.093 86.68C133.846 86.68 133.613 86.7267 133.393 86.82C133.173 86.9133 132.989 87.0633 132.843 87.27C132.703 87.4767 132.619 87.7467 132.593 88.08ZM139.203 91.12C138.83 91.12 138.48 91.02 138.153 90.82C137.827 90.6133 137.563 90.32 137.363 89.94C137.17 89.5533 137.073 89.0867 137.073 88.54C137.073 87.9933 137.17 87.53 137.363 87.15C137.563 86.7633 137.827 86.47 138.153 86.27C138.48 86.0633 138.83 85.96 139.203 85.96C139.597 85.96 139.927 86.04 140.193 86.2C140.46 86.3533 140.667 86.56 140.813 86.82V84.32H141.653V89.13C141.653 89.2967 141.66 89.5433 141.673 89.87C141.687 90.19 141.737 90.5667 141.823 91H141.033L140.813 90.25C140.667 90.5167 140.46 90.73 140.193 90.89C139.927 91.0433 139.597 91.12 139.203 91.12ZM139.423 90.4C139.85 90.4 140.19 90.2367 140.443 89.91C140.703 89.5833 140.833 89.1267 140.833 88.54C140.833 87.9467 140.703 87.49 140.443 87.17C140.19 86.8433 139.85 86.68 139.423 86.68C138.997 86.68 138.653 86.8433 138.393 87.17C138.14 87.49 138.013 87.9467 138.013 88.54C138.013 89.1267 138.14 89.5833 138.393 89.91C138.653 90.2367 138.997 90.4 139.423 90.4ZM147.231 91.12C146.917 91.12 146.631 91.0633 146.371 90.95C146.111 90.8367 145.904 90.6733 145.751 90.46C145.597 90.2467 145.521 89.99 145.521 89.69C145.521 89.2967 145.657 88.9867 145.931 88.76C146.211 88.5333 146.601 88.36 147.101 88.24C147.607 88.1133 148.197 88.0133 148.871 87.94C148.884 87.52 148.801 87.1967 148.621 86.97C148.441 86.7433 148.151 86.63 147.751 86.63C147.451 86.63 147.204 86.7 147.011 86.84C146.824 86.9733 146.704 87.16 146.651 87.4L145.841 87.16C145.974 86.78 146.211 86.4867 146.551 86.28C146.897 86.0667 147.294 85.96 147.741 85.96C148.427 85.96 148.927 86.1233 149.241 86.45C149.561 86.77 149.721 87.2767 149.721 87.97V89.13C149.721 89.5433 149.737 89.9 149.771 90.2C149.804 90.5 149.844 90.7667 149.891 91H149.121L148.921 90.32C148.774 90.5667 148.564 90.7633 148.291 90.91C148.017 91.05 147.664 91.12 147.231 91.12ZM147.411 90.45C147.671 90.45 147.917 90.4033 148.151 90.31C148.384 90.2167 148.574 90.06 148.721 89.84C148.867 89.6133 148.941 89.3067 148.941 88.92V88.61C148.434 88.6633 147.994 88.73 147.621 88.81C147.247 88.8833 146.957 88.99 146.751 89.13C146.551 89.2633 146.451 89.4433 146.451 89.67C146.451 89.9033 146.534 90.0933 146.701 90.24C146.874 90.38 147.111 90.45 147.411 90.45ZM151.104 91V86.04H151.714L151.984 86.96C152.158 86.66 152.391 86.42 152.684 86.24C152.984 86.0533 153.341 85.96 153.754 85.96V86.83C153.708 86.83 153.658 86.83 153.604 86.83C153.558 86.83 153.511 86.8333 153.464 86.84C152.898 86.8867 152.501 87.0833 152.274 87.43C152.054 87.7767 151.944 88.2567 151.944 88.87V91H151.104ZM156.169 91C155.856 91 155.612 90.97 155.439 90.91C155.272 90.8433 155.156 90.72 155.089 90.54C155.029 90.36 154.999 90.1 154.999 89.76V86.71H154.159V86.04H154.999V84.79H155.839V86.04H156.799V86.71H155.839V89.62C155.839 89.8733 155.862 90.0433 155.909 90.13C155.962 90.2167 156.109 90.26 156.349 90.26H156.799V91H156.169ZM158.761 85.1C158.595 85.1 158.448 85.04 158.321 84.92C158.201 84.7933 158.141 84.6433 158.141 84.47C158.141 84.2967 158.201 84.15 158.321 84.03C158.448 83.91 158.595 83.85 158.761 83.85C158.935 83.85 159.081 83.91 159.201 84.03C159.328 84.15 159.391 84.2967 159.391 84.47C159.391 84.6433 159.328 84.7933 159.201 84.92C159.081 85.04 158.935 85.1 158.761 85.1ZM158.341 91V86.71H157.651V86.04H159.181V91H158.341ZM162.674 91.12C162.201 91.12 161.791 91.01 161.444 90.79C161.098 90.5633 160.831 90.2567 160.644 89.87C160.458 89.4833 160.364 89.04 160.364 88.54C160.364 88.0467 160.461 87.6067 160.654 87.22C160.854 86.8267 161.134 86.52 161.494 86.3C161.854 86.0733 162.278 85.96 162.764 85.96C163.211 85.96 163.594 86.07 163.914 86.29C164.234 86.51 164.474 86.7733 164.634 87.08L163.864 87.36C163.758 87.16 163.601 87 163.394 86.88C163.188 86.76 162.958 86.7 162.704 86.7C162.458 86.7 162.224 86.7667 162.004 86.9C161.784 87.0267 161.608 87.2267 161.474 87.5C161.341 87.7667 161.274 88.11 161.274 88.53C161.274 88.9433 161.341 89.29 161.474 89.57C161.614 89.8433 161.791 90.0467 162.004 90.18C162.224 90.3133 162.458 90.38 162.704 90.38C162.978 90.38 163.214 90.32 163.414 90.2C163.621 90.0733 163.778 89.9167 163.884 89.73L164.654 90.01C164.468 90.33 164.201 90.5967 163.854 90.81C163.508 91.0167 163.114 91.12 162.674 91.12ZM166.854 91C166.541 91 166.298 90.97 166.124 90.91C165.958 90.8433 165.841 90.72 165.774 90.54C165.714 90.36 165.684 90.1 165.684 89.76V84.33H166.524V89.62C166.524 89.8733 166.551 90.0433 166.604 90.13C166.658 90.2167 166.801 90.26 167.034 90.26H167.224V91H166.854ZM170.187 91.12C169.667 91.12 169.227 91.0067 168.867 90.78C168.507 90.5467 168.23 90.2367 168.037 89.85C167.85 89.4567 167.757 89.0167 167.757 88.53C167.757 88.0033 167.864 87.55 168.077 87.17C168.29 86.7833 168.577 86.4867 168.937 86.28C169.304 86.0667 169.714 85.96 170.167 85.96C170.56 85.96 170.907 86.04 171.207 86.2C171.507 86.3533 171.754 86.5633 171.947 86.83C172.147 87.09 172.29 87.3867 172.377 87.72C172.47 88.0533 172.504 88.3967 172.477 88.75H168.657C168.67 89.1633 168.76 89.49 168.927 89.73C169.1 89.97 169.304 90.14 169.537 90.24C169.77 90.3333 169.987 90.38 170.187 90.38C170.467 90.38 170.7 90.3367 170.887 90.25C171.08 90.1567 171.234 90.0367 171.347 89.89L172.157 90.13C171.977 90.4167 171.72 90.6533 171.387 90.84C171.054 91.0267 170.654 91.12 170.187 91.12ZM168.667 88.08H171.587C171.587 87.8467 171.527 87.6233 171.407 87.41C171.294 87.1967 171.13 87.0233 170.917 86.89C170.71 86.75 170.46 86.68 170.167 86.68C169.92 86.68 169.687 86.7267 169.467 86.82C169.247 86.9133 169.064 87.0633 168.917 87.27C168.777 87.4767 168.694 87.7467 168.667 88.08ZM175.158 91.12C174.871 91.12 174.588 91.0767 174.308 90.99C174.034 90.8967 173.788 90.76 173.568 90.58C173.354 90.3933 173.191 90.16 173.078 89.88L173.888 89.58C173.961 89.8733 174.121 90.0867 174.368 90.22C174.621 90.3467 174.884 90.41 175.158 90.41C175.358 90.41 175.544 90.38 175.718 90.32C175.898 90.26 176.044 90.1733 176.158 90.06C176.271 89.9467 176.328 89.8167 176.328 89.67C176.328 89.3967 176.218 89.2033 175.998 89.09C175.784 88.9767 175.528 88.89 175.228 88.83L174.538 88.69C174.298 88.6367 174.074 88.5633 173.868 88.47C173.661 88.37 173.494 88.23 173.368 88.05C173.241 87.87 173.178 87.63 173.178 87.33C173.178 87.03 173.271 86.78 173.458 86.58C173.644 86.3733 173.881 86.2167 174.168 86.11C174.461 86.0033 174.768 85.95 175.088 85.95C175.481 85.95 175.851 86.0333 176.198 86.2C176.551 86.36 176.801 86.6133 176.948 86.96L176.158 87.25C176.071 87.05 175.918 86.9033 175.698 86.81C175.484 86.71 175.261 86.66 175.028 86.66C174.774 86.66 174.544 86.7167 174.338 86.83C174.131 86.9433 174.028 87.1067 174.028 87.32C174.028 87.5333 174.114 87.69 174.288 87.79C174.468 87.8833 174.688 87.9567 174.948 88.01L175.598 88.14C175.864 88.1933 176.118 88.27 176.358 88.37C176.598 88.47 176.794 88.62 176.948 88.82C177.101 89.0133 177.178 89.2867 177.178 89.64C177.178 89.9533 177.081 90.22 176.888 90.44C176.694 90.66 176.444 90.83 176.138 90.95C175.831 91.0633 175.504 91.12 175.158 91.12ZM178.495 91.12C178.321 91.12 178.171 91.0567 178.045 90.93C177.918 90.8033 177.855 90.6533 177.855 90.48C177.855 90.3 177.918 90.1467 178.045 90.02C178.171 89.8933 178.321 89.83 178.495 89.83C178.675 89.83 178.828 89.8933 178.955 90.02C179.081 90.1467 179.145 90.3 179.145 90.48C179.145 90.6533 179.081 90.8033 178.955 90.93C178.828 91.0567 178.675 91.12 178.495 91.12Z" fill="black"/>
<path d="M171 34L111 34" stroke="black" stroke-width="5"/>
<path d="M161 34L115 34" stroke="black" stroke-opacity="0.5" stroke-width="10"/>
<path d="M161 34L125 34" stroke="black" stroke-opacity="0.5" stroke-width="15"/>
<circle cx="109.5" cy="33.5" r="17" fill="#FCF4E9" stroke="black"/>
<circle cx="174.5" cy="33.5" r="17" fill="#FCF4E9" stroke="black"/>
<path d="M210.864 67V66.26H211.804V61.06H210.864V60.32H213.684V61.06H212.744V66.26H213.684V67H210.864ZM215.045 67V62.04H215.665L215.885 62.79C216.025 62.5567 216.221 62.36 216.475 62.2C216.728 62.04 217.065 61.96 217.485 61.96C218.085 61.96 218.508 62.1367 218.755 62.49C219.001 62.8367 219.125 63.2933 219.125 63.86V67H218.285V64.11C218.285 63.8567 218.261 63.6233 218.215 63.41C218.168 63.19 218.065 63.0133 217.905 62.88C217.751 62.7467 217.515 62.68 217.195 62.68C216.788 62.68 216.468 62.82 216.235 63.1C216.001 63.3733 215.885 63.7767 215.885 64.31V67H215.045ZM221.887 67C221.573 67 221.33 66.97 221.157 66.91C220.99 66.8433 220.873 66.72 220.807 66.54C220.747 66.36 220.717 66.1 220.717 65.76V62.71H219.877V62.04H220.717V60.79H221.557V62.04H222.517V62.71H221.557V65.62C221.557 65.8733 221.58 66.0433 221.627 66.13C221.68 66.2167 221.827 66.26 222.067 66.26H222.517V67H221.887ZM225.729 67.12C225.209 67.12 224.769 67.0067 224.409 66.78C224.049 66.5467 223.772 66.2367 223.579 65.85C223.392 65.4567 223.299 65.0167 223.299 64.53C223.299 64.0033 223.406 63.55 223.619 63.17C223.832 62.7833 224.119 62.4867 224.479 62.28C224.846 62.0667 225.256 61.96 225.709 61.96C226.102 61.96 226.449 62.04 226.749 62.2C227.049 62.3533 227.296 62.5633 227.489 62.83C227.689 63.09 227.832 63.3867 227.919 63.72C228.012 64.0533 228.046 64.3967 228.019 64.75H224.199C224.212 65.1633 224.302 65.49 224.469 65.73C224.642 65.97 224.846 66.14 225.079 66.24C225.312 66.3333 225.529 66.38 225.729 66.38C226.009 66.38 226.242 66.3367 226.429 66.25C226.622 66.1567 226.776 66.0367 226.889 65.89L227.699 66.13C227.519 66.4167 227.262 66.6533 226.929 66.84C226.596 67.0267 226.196 67.12 225.729 67.12ZM224.209 64.08H227.129C227.129 63.8467 227.069 63.6233 226.949 63.41C226.836 63.1967 226.672 63.0233 226.459 62.89C226.252 62.75 226.002 62.68 225.709 62.68C225.462 62.68 225.229 62.7267 225.009 62.82C224.789 62.9133 224.606 63.0633 224.459 63.27C224.319 63.4767 224.236 63.7467 224.209 64.08ZM229.01 67V62.04H229.62L229.89 62.96C230.063 62.66 230.296 62.42 230.59 62.24C230.89 62.0533 231.246 61.96 231.66 61.96V62.83C231.613 62.83 231.563 62.83 231.51 62.83C231.463 62.83 231.416 62.8333 231.37 62.84C230.803 62.8867 230.406 63.0833 230.18 63.43C229.96 63.7767 229.85 64.2567 229.85 64.87V67H229.01ZM233.652 67.12C233.338 67.12 233.052 67.0633 232.792 66.95C232.532 66.8367 232.325 66.6733 232.172 66.46C232.018 66.2467 231.942 65.99 231.942 65.69C231.942 65.2967 232.078 64.9867 232.352 64.76C232.632 64.5333 233.022 64.36 233.522 64.24C234.028 64.1133 234.618 64.0133 235.292 63.94C235.305 63.52 235.222 63.1967 235.042 62.97C234.862 62.7433 234.572 62.63 234.172 62.63C233.872 62.63 233.625 62.7 233.432 62.84C233.245 62.9733 233.125 63.16 233.072 63.4L232.262 63.16C232.395 62.78 232.632 62.4867 232.972 62.28C233.318 62.0667 233.715 61.96 234.162 61.96C234.848 61.96 235.348 62.1233 235.662 62.45C235.982 62.77 236.142 63.2767 236.142 63.97V65.13C236.142 65.5433 236.158 65.9 236.192 66.2C236.225 66.5 236.265 66.7667 236.312 67H235.542L235.342 66.32C235.195 66.5667 234.985 66.7633 234.712 66.91C234.438 67.05 234.085 67.12 233.652 67.12ZM233.832 66.45C234.092 66.45 234.338 66.4033 234.572 66.31C234.805 66.2167 234.995 66.06 235.142 65.84C235.288 65.6133 235.362 65.3067 235.362 64.92V64.61C234.855 64.6633 234.415 64.73 234.042 64.81C233.668 64.8833 233.378 64.99 233.172 65.13C232.972 65.2633 232.872 65.4433 232.872 65.67C232.872 65.9033 232.955 66.0933 233.122 66.24C233.295 66.38 233.532 66.45 233.832 66.45ZM239.515 67.12C239.042 67.12 238.632 67.01 238.285 66.79C237.939 66.5633 237.672 66.2567 237.485 65.87C237.299 65.4833 237.205 65.04 237.205 64.54C237.205 64.0467 237.302 63.6067 237.495 63.22C237.695 62.8267 237.975 62.52 238.335 62.3C238.695 62.0733 239.119 61.96 239.605 61.96C240.052 61.96 240.435 62.07 240.755 62.29C241.075 62.51 241.315 62.7733 241.475 63.08L240.705 63.36C240.599 63.16 240.442 63 240.235 62.88C240.029 62.76 239.799 62.7 239.545 62.7C239.299 62.7 239.065 62.7667 238.845 62.9C238.625 63.0267 238.449 63.2267 238.315 63.5C238.182 63.7667 238.115 64.11 238.115 64.53C238.115 64.9433 238.182 65.29 238.315 65.57C238.455 65.8433 238.632 66.0467 238.845 66.18C239.065 66.3133 239.299 66.38 239.545 66.38C239.819 66.38 240.055 66.32 240.255 66.2C240.462 66.0733 240.619 65.9167 240.725 65.73L241.495 66.01C241.309 66.33 241.042 66.5967 240.695 66.81C240.349 67.0167 239.955 67.12 239.515 67.12ZM244.035 67C243.722 67 243.479 66.97 243.305 66.91C243.139 66.8433 243.022 66.72 242.955 66.54C242.895 66.36 242.865 66.1 242.865 65.76V62.71H242.025V62.04H242.865V60.79H243.705V62.04H244.665V62.71H243.705V65.62C243.705 65.8733 243.729 66.0433 243.775 66.13C243.829 66.2167 243.975 66.26 244.215 66.26H244.665V67H244.035ZM250.08 67C249.767 67 249.523 66.97 249.35 66.91C249.183 66.8433 249.067 66.72 249 66.54C248.94 66.36 248.91 66.1 248.91 65.76V62.71H248.07V62.04H248.91V60.79H249.75V62.04H250.71V62.71H249.75V65.62C249.75 65.8733 249.773 66.0433 249.82 66.13C249.873 66.2167 250.02 66.26 250.26 66.26H250.71V67H250.08ZM253.872 67.12C253.586 67.12 253.302 67.07 253.022 66.97C252.742 66.87 252.486 66.7167 252.252 66.51C252.026 66.2967 251.842 66.0267 251.702 65.7C251.562 65.3733 251.492 64.9867 251.492 64.54C251.492 64.0933 251.562 63.7067 251.702 63.38C251.842 63.0533 252.026 62.7867 252.252 62.58C252.486 62.3667 252.742 62.21 253.022 62.11C253.302 62.01 253.586 61.96 253.872 61.96C254.159 61.96 254.442 62.01 254.722 62.11C255.009 62.21 255.266 62.3667 255.492 62.58C255.726 62.7867 255.909 63.0533 256.042 63.38C256.182 63.7067 256.252 64.0933 256.252 64.54C256.252 64.9867 256.182 65.3733 256.042 65.7C255.909 66.0267 255.726 66.2967 255.492 66.51C255.266 66.7167 255.009 66.87 254.722 66.97C254.442 67.07 254.159 67.12 253.872 67.12ZM253.872 66.38C254.112 66.38 254.346 66.3167 254.572 66.19C254.799 66.0567 254.986 65.8567 255.132 65.59C255.279 65.3167 255.352 64.9667 255.352 64.54C255.352 64.1133 255.279 63.7667 255.132 63.5C254.986 63.2267 254.799 63.0267 254.572 62.9C254.346 62.7667 254.112 62.7 253.872 62.7C253.639 62.7 253.406 62.7667 253.172 62.9C252.946 63.0267 252.759 63.2267 252.612 63.5C252.466 63.7667 252.392 64.1133 252.392 64.54C252.392 64.9667 252.466 65.3167 252.612 65.59C252.759 65.8567 252.946 66.0567 253.172 66.19C253.406 66.3167 253.639 66.38 253.872 66.38ZM262.243 67.12C261.723 67.12 261.283 67.0067 260.923 66.78C260.563 66.5467 260.286 66.2367 260.093 65.85C259.906 65.4567 259.813 65.0167 259.813 64.53C259.813 64.0033 259.919 63.55 260.133 63.17C260.346 62.7833 260.633 62.4867 260.993 62.28C261.359 62.0667 261.769 61.96 262.223 61.96C262.616 61.96 262.963 62.04 263.263 62.2C263.563 62.3533 263.809 62.5633 264.003 62.83C264.203 63.09 264.346 63.3867 264.433 63.72C264.526 64.0533 264.559 64.3967 264.533 64.75H260.713C260.726 65.1633 260.816 65.49 260.983 65.73C261.156 65.97 261.359 66.14 261.593 66.24C261.826 66.3333 262.043 66.38 262.243 66.38C262.523 66.38 262.756 66.3367 262.943 66.25C263.136 66.1567 263.289 66.0367 263.403 65.89L264.213 66.13C264.033 66.4167 263.776 66.6533 263.443 66.84C263.109 67.0267 262.709 67.12 262.243 67.12ZM260.723 64.08H263.643C263.643 63.8467 263.583 63.6233 263.463 63.41C263.349 63.1967 263.186 63.0233 262.973 62.89C262.766 62.75 262.516 62.68 262.223 62.68C261.976 62.68 261.743 62.7267 261.523 62.82C261.303 62.9133 261.119 63.0633 260.973 63.27C260.833 63.4767 260.749 63.7467 260.723 64.08ZM264.823 67L266.633 64.45L264.913 62.04H265.903L267.123 63.76L268.353 62.04H269.343L267.623 64.45L269.433 67H268.443L267.123 65.15L265.813 67H264.823ZM270.133 68.61V62.04H270.743L270.973 62.82C271.126 62.56 271.336 62.3533 271.603 62.2C271.869 62.04 272.196 61.96 272.583 61.96C272.963 61.96 273.313 62.0633 273.633 62.27C273.959 62.47 274.219 62.7633 274.413 63.15C274.613 63.53 274.713 63.9933 274.713 64.54C274.713 65.08 274.613 65.5433 274.413 65.93C274.219 66.3167 273.959 66.6133 273.633 66.82C273.313 67.02 272.963 67.12 272.583 67.12C272.196 67.12 271.869 67.0433 271.603 66.89C271.336 66.73 271.126 66.5167 270.973 66.25V68.61H270.133ZM272.363 66.4C272.789 66.4 273.129 66.2367 273.383 65.91C273.643 65.5833 273.773 65.1267 273.773 64.54C273.773 63.9467 273.643 63.49 273.383 63.17C273.129 62.8433 272.789 62.68 272.363 62.68C271.936 62.68 271.593 62.8433 271.333 63.17C271.079 63.49 270.953 63.9467 270.953 64.54C270.953 65.1267 271.079 65.5833 271.333 65.91C271.593 66.2367 271.936 66.4 272.363 66.4ZM276.967 67C276.653 67 276.41 66.97 276.237 66.91C276.07 66.8433 275.953 66.72 275.887 66.54C275.827 66.36 275.797 66.1 275.797 65.76V60.33H276.637V65.62C276.637 65.8733 276.663 66.0433 276.717 66.13C276.77 66.2167 276.913 66.26 277.147 66.26H277.337V67H276.967ZM280.249 67.12C279.963 67.12 279.679 67.07 279.399 66.97C279.119 66.87 278.863 66.7167 278.629 66.51C278.403 66.2967 278.219 66.0267 278.079 65.7C277.939 65.3733 277.869 64.9867 277.869 64.54C277.869 64.0933 277.939 63.7067 278.079 63.38C278.219 63.0533 278.403 62.7867 278.629 62.58C278.863 62.3667 279.119 62.21 279.399 62.11C279.679 62.01 279.963 61.96 280.249 61.96C280.536 61.96 280.819 62.01 281.099 62.11C281.386 62.21 281.643 62.3667 281.869 62.58C282.103 62.7867 282.286 63.0533 282.419 63.38C282.559 63.7067 282.629 64.0933 282.629 64.54C282.629 64.9867 282.559 65.3733 282.419 65.7C282.286 66.0267 282.103 66.2967 281.869 66.51C281.643 66.7167 281.386 66.87 281.099 66.97C280.819 67.07 280.536 67.12 280.249 67.12ZM280.249 66.38C280.489 66.38 280.723 66.3167 280.949 66.19C281.176 66.0567 281.363 65.8567 281.509 65.59C281.656 65.3167 281.729 64.9667 281.729 64.54C281.729 64.1133 281.656 63.7667 281.509 63.5C281.363 63.2267 281.176 63.0267 280.949 62.9C280.723 62.7667 280.489 62.7 280.249 62.7C280.016 62.7 279.783 62.7667 279.549 62.9C279.323 63.0267 279.136 63.2267 278.989 63.5C278.843 63.7667 278.769 64.1133 278.769 64.54C278.769 64.9667 278.843 65.3167 278.989 65.59C279.136 65.8567 279.323 66.0567 279.549 66.19C279.783 66.3167 280.016 66.38 280.249 66.38ZM283.707 67V62.04H284.317L284.587 62.96C284.76 62.66 284.994 62.42 285.287 62.24C285.587 62.0533 285.944 61.96 286.357 61.96V62.83C286.31 62.83 286.26 62.83 286.207 62.83C286.16 62.83 286.114 62.8333 286.067 62.84C285.5 62.8867 285.104 63.0833 284.877 63.43C284.657 63.7767 284.547 64.2567 284.547 64.87V67H283.707ZM289.215 67.12C288.695 67.12 288.255 67.0067 287.895 66.78C287.535 66.5467 287.259 66.2367 287.065 65.85C286.879 65.4567 286.785 65.0167 286.785 64.53C286.785 64.0033 286.892 63.55 287.105 63.17C287.319 62.7833 287.605 62.4867 287.965 62.28C288.332 62.0667 288.742 61.96 289.195 61.96C289.589 61.96 289.935 62.04 290.235 62.2C290.535 62.3533 290.782 62.5633 290.975 62.83C291.175 63.09 291.319 63.3867 291.405 63.72C291.499 64.0533 291.532 64.3967 291.505 64.75H287.685C287.699 65.1633 287.789 65.49 287.955 65.73C288.129 65.97 288.332 66.14 288.565 66.24C288.799 66.3333 289.015 66.38 289.215 66.38C289.495 66.38 289.729 66.3367 289.915 66.25C290.109 66.1567 290.262 66.0367 290.375 65.89L291.185 66.13C291.005 66.4167 290.749 66.6533 290.415 66.84C290.082 67.0267 289.682 67.12 289.215 67.12ZM287.695 64.08H290.615C290.615 63.8467 290.555 63.6233 290.435 63.41C290.322 63.1967 290.159 63.0233 289.945 62.89C289.739 62.75 289.489 62.68 289.195 62.68C288.949 62.68 288.715 62.7267 288.495 62.82C288.275 62.9133 288.092 63.0633 287.945 63.27C287.805 63.4767 287.722 63.7467 287.695 64.08ZM219.655 79C219.342 79 219.099 78.97 218.925 78.91C218.759 78.8433 218.642 78.72 218.575 78.54C218.515 78.36 218.485 78.1 218.485 77.76V74.71H217.645V74.04H218.485V72.79H219.325V74.04H220.285V74.71H219.325V77.62C219.325 77.8733 219.349 78.0433 219.395 78.13C219.449 78.2167 219.595 78.26 219.835 78.26H220.285V79H219.655ZM221.388 79V72.32H222.228V74.79C222.368 74.5567 222.564 74.36 222.818 74.2C223.071 74.04 223.408 73.96 223.828 73.96C224.428 73.96 224.851 74.1367 225.098 74.49C225.344 74.8367 225.468 75.2933 225.468 75.86V79H224.628V76.11C224.628 75.8567 224.604 75.6233 224.558 75.41C224.511 75.19 224.408 75.0133 224.248 74.88C224.094 74.7467 223.858 74.68 223.538 74.68C223.131 74.68 222.811 74.82 222.578 75.1C222.344 75.3733 222.228 75.7767 222.228 76.31V79H221.388ZM228.849 79.12C228.329 79.12 227.889 79.0067 227.529 78.78C227.169 78.5467 226.892 78.2367 226.699 77.85C226.512 77.4567 226.419 77.0167 226.419 76.53C226.419 76.0033 226.526 75.55 226.739 75.17C226.952 74.7833 227.239 74.4867 227.599 74.28C227.966 74.0667 228.376 73.96 228.829 73.96C229.222 73.96 229.569 74.04 229.869 74.2C230.169 74.3533 230.416 74.5633 230.609 74.83C230.809 75.09 230.952 75.3867 231.039 75.72C231.132 76.0533 231.166 76.3967 231.139 76.75H227.319C227.332 77.1633 227.422 77.49 227.589 77.73C227.762 77.97 227.966 78.14 228.199 78.24C228.432 78.3333 228.649 78.38 228.849 78.38C229.129 78.38 229.362 78.3367 229.549 78.25C229.742 78.1567 229.896 78.0367 230.009 77.89L230.819 78.13C230.639 78.4167 230.382 78.6533 230.049 78.84C229.716 79.0267 229.316 79.12 228.849 79.12ZM227.329 76.08H230.249C230.249 75.8467 230.189 75.6233 230.069 75.41C229.956 75.1967 229.792 75.0233 229.579 74.89C229.372 74.75 229.122 74.68 228.829 74.68C228.582 74.68 228.349 74.7267 228.129 74.82C227.909 74.9133 227.726 75.0633 227.579 75.27C227.439 75.4767 227.356 75.7467 227.329 76.08ZM236.322 79.12C236.009 79.12 235.722 79.0633 235.462 78.95C235.202 78.8367 234.996 78.6733 234.842 78.46C234.689 78.2467 234.612 77.99 234.612 77.69C234.612 77.2967 234.749 76.9867 235.022 76.76C235.302 76.5333 235.692 76.36 236.192 76.24C236.699 76.1133 237.289 76.0133 237.962 75.94C237.976 75.52 237.892 75.1967 237.712 74.97C237.532 74.7433 237.242 74.63 236.842 74.63C236.542 74.63 236.296 74.7 236.102 74.84C235.916 74.9733 235.796 75.16 235.742 75.4L234.932 75.16C235.066 74.78 235.302 74.4867 235.642 74.28C235.989 74.0667 236.386 73.96 236.832 73.96C237.519 73.96 238.019 74.1233 238.332 74.45C238.652 74.77 238.812 75.2767 238.812 75.97V77.13C238.812 77.5433 238.829 77.9 238.862 78.2C238.896 78.5 238.936 78.7667 238.982 79H238.212L238.012 78.32C237.866 78.5667 237.656 78.7633 237.382 78.91C237.109 79.05 236.756 79.12 236.322 79.12ZM236.502 78.45C236.762 78.45 237.009 78.4033 237.242 78.31C237.476 78.2167 237.666 78.06 237.812 77.84C237.959 77.6133 238.032 77.3067 238.032 76.92V76.61C237.526 76.6633 237.086 76.73 236.712 76.81C236.339 76.8833 236.049 76.99 235.842 77.13C235.642 77.2633 235.542 77.4433 235.542 77.67C235.542 77.9033 235.626 78.0933 235.792 78.24C235.966 78.38 236.202 78.45 236.502 78.45ZM241.886 79.12C241.599 79.12 241.316 79.0767 241.036 78.99C240.763 78.8967 240.516 78.76 240.296 78.58C240.083 78.3933 239.919 78.16 239.806 77.88L240.616 77.58C240.689 77.8733 240.849 78.0867 241.096 78.22C241.349 78.3467 241.613 78.41 241.886 78.41C242.086 78.41 242.273 78.38 242.446 78.32C242.626 78.26 242.773 78.1733 242.886 78.06C242.999 77.9467 243.056 77.8167 243.056 77.67C243.056 77.3967 242.946 77.2033 242.726 77.09C242.513 76.9767 242.256 76.89 241.956 76.83L241.266 76.69C241.026 76.6367 240.803 76.5633 240.596 76.47C240.389 76.37 240.223 76.23 240.096 76.05C239.969 75.87 239.906 75.63 239.906 75.33C239.906 75.03 239.999 74.78 240.186 74.58C240.373 74.3733 240.609 74.2167 240.896 74.11C241.189 74.0033 241.496 73.95 241.816 73.95C242.209 73.95 242.579 74.0333 242.926 74.2C243.279 74.36 243.529 74.6133 243.676 74.96L242.886 75.25C242.799 75.05 242.646 74.9033 242.426 74.81C242.213 74.71 241.989 74.66 241.756 74.66C241.503 74.66 241.273 74.7167 241.066 74.83C240.859 74.9433 240.756 75.1067 240.756 75.32C240.756 75.5333 240.843 75.69 241.016 75.79C241.196 75.8833 241.416 75.9567 241.676 76.01L242.326 76.14C242.593 76.1933 242.846 76.27 243.086 76.37C243.326 76.47 243.523 76.62 243.676 76.82C243.829 77.0133 243.906 77.2867 243.906 77.64C243.906 77.9533 243.809 78.22 243.616 78.44C243.423 78.66 243.173 78.83 242.866 78.95C242.559 79.0633 242.233 79.12 241.886 79.12ZM246.593 79.12C246.306 79.12 246.023 79.0767 245.743 78.99C245.47 78.8967 245.223 78.76 245.003 78.58C244.79 78.3933 244.626 78.16 244.513 77.88L245.323 77.58C245.396 77.8733 245.556 78.0867 245.803 78.22C246.056 78.3467 246.32 78.41 246.593 78.41C246.793 78.41 246.98 78.38 247.153 78.32C247.333 78.26 247.48 78.1733 247.593 78.06C247.706 77.9467 247.763 77.8167 247.763 77.67C247.763 77.3967 247.653 77.2033 247.433 77.09C247.22 76.9767 246.963 76.89 246.663 76.83L245.973 76.69C245.733 76.6367 245.51 76.5633 245.303 76.47C245.096 76.37 244.93 76.23 244.803 76.05C244.676 75.87 244.613 75.63 244.613 75.33C244.613 75.03 244.706 74.78 244.893 74.58C245.08 74.3733 245.316 74.2167 245.603 74.11C245.896 74.0033 246.203 73.95 246.523 73.95C246.916 73.95 247.286 74.0333 247.633 74.2C247.986 74.36 248.236 74.6133 248.383 74.96L247.593 75.25C247.506 75.05 247.353 74.9033 247.133 74.81C246.92 74.71 246.696 74.66 246.463 74.66C246.21 74.66 245.98 74.7167 245.773 74.83C245.566 74.9433 245.463 75.1067 245.463 75.32C245.463 75.5333 245.55 75.69 245.723 75.79C245.903 75.8833 246.123 75.9567 246.383 76.01L247.033 76.14C247.3 76.1933 247.553 76.27 247.793 76.37C248.033 76.47 248.23 76.62 248.383 76.82C248.536 77.0133 248.613 77.2867 248.613 77.64C248.613 77.9533 248.516 78.22 248.323 78.44C248.13 78.66 247.88 78.83 247.573 78.95C247.266 79.0633 246.94 79.12 246.593 79.12ZM251.67 79.12C251.383 79.12 251.1 79.07 250.82 78.97C250.54 78.87 250.283 78.7167 250.05 78.51C249.823 78.2967 249.64 78.0267 249.5 77.7C249.36 77.3733 249.29 76.9867 249.29 76.54C249.29 76.0933 249.36 75.7067 249.5 75.38C249.64 75.0533 249.823 74.7867 250.05 74.58C250.283 74.3667 250.54 74.21 250.82 74.11C251.1 74.01 251.383 73.96 251.67 73.96C251.957 73.96 252.24 74.01 252.52 74.11C252.807 74.21 253.063 74.3667 253.29 74.58C253.523 74.7867 253.707 75.0533 253.84 75.38C253.98 75.7067 254.05 76.0933 254.05 76.54C254.05 76.9867 253.98 77.3733 253.84 77.7C253.707 78.0267 253.523 78.2967 253.29 78.51C253.063 78.7167 252.807 78.87 252.52 78.97C252.24 79.07 251.957 79.12 251.67 79.12ZM251.67 78.38C251.91 78.38 252.143 78.3167 252.37 78.19C252.597 78.0567 252.783 77.8567 252.93 77.59C253.077 77.3167 253.15 76.9667 253.15 76.54C253.15 76.1133 253.077 75.7667 252.93 75.5C252.783 75.2267 252.597 75.0267 252.37 74.9C252.143 74.7667 251.91 74.7 251.67 74.7C251.437 74.7 251.203 74.7667 250.97 74.9C250.743 75.0267 250.557 75.2267 250.41 75.5C250.263 75.7667 250.19 76.1133 250.19 76.54C250.19 76.9667 250.263 77.3167 250.41 77.59C250.557 77.8567 250.743 78.0567 250.97 78.19C251.203 78.3167 251.437 78.38 251.67 78.38ZM257.118 79.12C256.644 79.12 256.234 79.01 255.888 78.79C255.541 78.5633 255.274 78.2567 255.088 77.87C254.901 77.4833 254.808 77.04 254.808 76.54C254.808 76.0467 254.904 75.6067 255.098 75.22C255.298 74.8267 255.578 74.52 255.938 74.3C256.298 74.0733 256.721 73.96 257.208 73.96C257.654 73.96 258.038 74.07 258.358 74.29C258.678 74.51 258.918 74.7733 259.078 75.08L258.308 75.36C258.201 75.16 258.044 75 257.838 74.88C257.631 74.76 257.401 74.7 257.148 74.7C256.901 74.7 256.668 74.7667 256.448 74.9C256.228 75.0267 256.051 75.2267 255.918 75.5C255.784 75.7667 255.718 76.11 255.718 76.53C255.718 76.9433 255.784 77.29 255.918 77.57C256.058 77.8433 256.234 78.0467 256.448 78.18C256.668 78.3133 256.901 78.38 257.148 78.38C257.421 78.38 257.658 78.32 257.858 78.2C258.064 78.0733 258.221 77.9167 258.328 77.73L259.098 78.01C258.911 78.33 258.644 78.5967 258.298 78.81C257.951 79.0167 257.558 79.12 257.118 79.12ZM260.988 73.1C260.821 73.1 260.674 73.04 260.548 72.92C260.428 72.7933 260.368 72.6433 260.368 72.47C260.368 72.2967 260.428 72.15 260.548 72.03C260.674 71.91 260.821 71.85 260.988 71.85C261.161 71.85 261.308 71.91 261.428 72.03C261.554 72.15 261.618 72.2967 261.618 72.47C261.618 72.6433 261.554 72.7933 261.428 72.92C261.308 73.04 261.161 73.1 260.988 73.1ZM260.568 79V74.71H259.878V74.04H261.408V79H260.568ZM264.301 79.12C263.988 79.12 263.701 79.0633 263.441 78.95C263.181 78.8367 262.974 78.6733 262.821 78.46C262.668 78.2467 262.591 77.99 262.591 77.69C262.591 77.2967 262.728 76.9867 263.001 76.76C263.281 76.5333 263.671 76.36 264.171 76.24C264.678 76.1133 265.268 76.0133 265.941 75.94C265.954 75.52 265.871 75.1967 265.691 74.97C265.511 74.7433 265.221 74.63 264.821 74.63C264.521 74.63 264.274 74.7 264.081 74.84C263.894 74.9733 263.774 75.16 263.721 75.4L262.911 75.16C263.044 74.78 263.281 74.4867 263.621 74.28C263.968 74.0667 264.364 73.96 264.811 73.96C265.498 73.96 265.998 74.1233 266.311 74.45C266.631 74.77 266.791 75.2767 266.791 75.97V77.13C266.791 77.5433 266.808 77.9 266.841 78.2C266.874 78.5 266.914 78.7667 266.961 79H266.191L265.991 78.32C265.844 78.5667 265.634 78.7633 265.361 78.91C265.088 79.05 264.734 79.12 264.301 79.12ZM264.481 78.45C264.741 78.45 264.988 78.4033 265.221 78.31C265.454 78.2167 265.644 78.06 265.791 77.84C265.938 77.6133 266.011 77.3067 266.011 76.92V76.61C265.504 76.6633 265.064 76.73 264.691 76.81C264.318 76.8833 264.028 76.99 263.821 77.13C263.621 77.2633 263.521 77.4433 263.521 77.67C263.521 77.9033 263.604 78.0933 263.771 78.24C263.944 78.38 264.181 78.45 264.481 78.45ZM269.685 79C269.371 79 269.128 78.97 268.955 78.91C268.788 78.8433 268.671 78.72 268.605 78.54C268.545 78.36 268.515 78.1 268.515 77.76V74.71H267.675V74.04H268.515V72.79H269.355V74.04H270.315V74.71H269.355V77.62C269.355 77.8733 269.378 78.0433 269.425 78.13C269.478 78.2167 269.625 78.26 269.865 78.26H270.315V79H269.685ZM273.527 79.12C273.007 79.12 272.567 79.0067 272.207 78.78C271.847 78.5467 271.57 78.2367 271.377 77.85C271.19 77.4567 271.097 77.0167 271.097 76.53C271.097 76.0033 271.203 75.55 271.417 75.17C271.63 74.7833 271.917 74.4867 272.277 74.28C272.643 74.0667 273.053 73.96 273.507 73.96C273.9 73.96 274.247 74.04 274.547 74.2C274.847 74.3533 275.093 74.5633 275.287 74.83C275.487 75.09 275.63 75.3867 275.717 75.72C275.81 76.0533 275.843 76.3967 275.817 76.75H271.997C272.01 77.1633 272.1 77.49 272.267 77.73C272.44 77.97 272.643 78.14 272.877 78.24C273.11 78.3333 273.327 78.38 273.527 78.38C273.807 78.38 274.04 78.3367 274.227 78.25C274.42 78.1567 274.573 78.0367 274.687 77.89L275.497 78.13C275.317 78.4167 275.06 78.6533 274.727 78.84C274.393 79.0267 273.993 79.12 273.527 79.12ZM272.007 76.08H274.927C274.927 75.8467 274.867 75.6233 274.747 75.41C274.633 75.1967 274.47 75.0233 274.257 74.89C274.05 74.75 273.8 74.68 273.507 74.68C273.26 74.68 273.027 74.7267 272.807 74.82C272.587 74.9133 272.403 75.0633 272.257 75.27C272.117 75.4767 272.033 75.7467 272.007 76.08ZM278.617 79.12C278.244 79.12 277.894 79.02 277.567 78.82C277.241 78.6133 276.977 78.32 276.777 77.94C276.584 77.5533 276.487 77.0867 276.487 76.54C276.487 75.9933 276.584 75.53 276.777 75.15C276.977 74.7633 277.241 74.47 277.567 74.27C277.894 74.0633 278.244 73.96 278.617 73.96C279.011 73.96 279.341 74.04 279.607 74.2C279.874 74.3533 280.081 74.56 280.227 74.82V72.32H281.067V77.13C281.067 77.2967 281.074 77.5433 281.087 77.87C281.101 78.19 281.151 78.5667 281.237 79H280.447L280.227 78.25C280.081 78.5167 279.874 78.73 279.607 78.89C279.341 79.0433 279.011 79.12 278.617 79.12ZM278.837 78.4C279.264 78.4 279.604 78.2367 279.857 77.91C280.117 77.5833 280.247 77.1267 280.247 76.54C280.247 75.9467 280.117 75.49 279.857 75.17C279.604 74.8433 279.264 74.68 278.837 74.68C278.411 74.68 278.067 74.8433 277.807 75.17C277.554 75.49 277.427 75.9467 277.427 76.54C277.427 77.1267 277.554 77.5833 277.807 77.91C278.067 78.2367 278.411 78.4 278.837 78.4ZM235.898 91.12C235.584 91.12 235.298 91.0633 235.038 90.95C234.778 90.8367 234.571 90.6733 234.418 90.46C234.264 90.2467 234.188 89.99 234.188 89.69C234.188 89.2967 234.324 88.9867 234.598 88.76C234.878 88.5333 235.268 88.36 235.768 88.24C236.274 88.1133 236.864 88.0133 237.538 87.94C237.551 87.52 237.468 87.1967 237.288 86.97C237.108 86.7433 236.818 86.63 236.418 86.63C236.118 86.63 235.871 86.7 235.678 86.84C235.491 86.9733 235.371 87.16 235.318 87.4L234.508 87.16C234.641 86.78 234.878 86.4867 235.218 86.28C235.564 86.0667 235.961 85.96 236.408 85.96C237.094 85.96 237.594 86.1233 237.908 86.45C238.228 86.77 238.388 87.2767 238.388 87.97V89.13C238.388 89.5433 238.404 89.9 238.438 90.2C238.471 90.5 238.511 90.7667 238.558 91H237.788L237.588 90.32C237.441 90.5667 237.231 90.7633 236.958 90.91C236.684 91.05 236.331 91.12 235.898 91.12ZM236.078 90.45C236.338 90.45 236.584 90.4033 236.818 90.31C237.051 90.2167 237.241 90.06 237.388 89.84C237.534 89.6133 237.608 89.3067 237.608 88.92V88.61C237.101 88.6633 236.661 88.73 236.288 88.81C235.914 88.8833 235.624 88.99 235.418 89.13C235.218 89.2633 235.118 89.4433 235.118 89.67C235.118 89.9033 235.201 90.0933 235.368 90.24C235.541 90.38 235.778 90.45 236.078 90.45ZM239.771 91V86.04H240.381L240.651 86.96C240.825 86.66 241.058 86.42 241.351 86.24C241.651 86.0533 242.008 85.96 242.421 85.96V86.83C242.375 86.83 242.325 86.83 242.271 86.83C242.225 86.83 242.178 86.8333 242.131 86.84C241.565 86.8867 241.168 87.0833 240.941 87.43C240.721 87.7767 240.611 88.2567 240.611 88.87V91H239.771ZM244.836 91C244.523 91 244.279 90.97 244.106 90.91C243.939 90.8433 243.823 90.72 243.756 90.54C243.696 90.36 243.666 90.1 243.666 89.76V86.71H242.826V86.04H243.666V84.79H244.506V86.04H245.466V86.71H244.506V89.62C244.506 89.8733 244.529 90.0433 244.576 90.13C244.629 90.2167 244.776 90.26 245.016 90.26H245.466V91H244.836ZM247.428 85.1C247.261 85.1 247.115 85.04 246.988 84.92C246.868 84.7933 246.808 84.6433 246.808 84.47C246.808 84.2967 246.868 84.15 246.988 84.03C247.115 83.91 247.261 83.85 247.428 83.85C247.601 83.85 247.748 83.91 247.868 84.03C247.995 84.15 248.058 84.2967 248.058 84.47C248.058 84.6433 247.995 84.7933 247.868 84.92C247.748 85.04 247.601 85.1 247.428 85.1ZM247.008 91V86.71H246.318V86.04H247.848V91H247.008ZM251.341 91.12C250.868 91.12 250.458 91.01 250.111 90.79C249.765 90.5633 249.498 90.2567 249.311 89.87C249.125 89.4833 249.031 89.04 249.031 88.54C249.031 88.0467 249.128 87.6067 249.321 87.22C249.521 86.8267 249.801 86.52 250.161 86.3C250.521 86.0733 250.945 85.96 251.431 85.96C251.878 85.96 252.261 86.07 252.581 86.29C252.901 86.51 253.141 86.7733 253.301 87.08L252.531 87.36C252.425 87.16 252.268 87 252.061 86.88C251.855 86.76 251.625 86.7 251.371 86.7C251.125 86.7 250.891 86.7667 250.671 86.9C250.451 87.0267 250.275 87.2267 250.141 87.5C250.008 87.7667 249.941 88.11 249.941 88.53C249.941 88.9433 250.008 89.29 250.141 89.57C250.281 89.8433 250.458 90.0467 250.671 90.18C250.891 90.3133 251.125 90.38 251.371 90.38C251.645 90.38 251.881 90.32 252.081 90.2C252.288 90.0733 252.445 89.9167 252.551 89.73L253.321 90.01C253.135 90.33 252.868 90.5967 252.521 90.81C252.175 91.0167 251.781 91.12 251.341 91.12ZM255.521 91C255.208 91 254.965 90.97 254.791 90.91C254.625 90.8433 254.508 90.72 254.441 90.54C254.381 90.36 254.351 90.1 254.351 89.76V84.33H255.191V89.62C255.191 89.8733 255.218 90.0433 255.271 90.13C255.325 90.2167 255.468 90.26 255.701 90.26H255.891V91H255.521ZM258.854 91.12C258.334 91.12 257.894 91.0067 257.534 90.78C257.174 90.5467 256.897 90.2367 256.704 89.85C256.517 89.4567 256.424 89.0167 256.424 88.53C256.424 88.0033 256.531 87.55 256.744 87.17C256.957 86.7833 257.244 86.4867 257.604 86.28C257.971 86.0667 258.381 85.96 258.834 85.96C259.227 85.96 259.574 86.04 259.874 86.2C260.174 86.3533 260.421 86.5633 260.614 86.83C260.814 87.09 260.957 87.3867 261.044 87.72C261.137 88.0533 261.171 88.3967 261.144 88.75H257.324C257.337 89.1633 257.427 89.49 257.594 89.73C257.767 89.97 257.971 90.14 258.204 90.24C258.437 90.3333 258.654 90.38 258.854 90.38C259.134 90.38 259.367 90.3367 259.554 90.25C259.747 90.1567 259.901 90.0367 260.014 89.89L260.824 90.13C260.644 90.4167 260.387 90.6533 260.054 90.84C259.721 91.0267 259.321 91.12 258.854 91.12ZM257.334 88.08H260.254C260.254 87.8467 260.194 87.6233 260.074 87.41C259.961 87.1967 259.797 87.0233 259.584 86.89C259.377 86.75 259.127 86.68 258.834 86.68C258.587 86.68 258.354 86.7267 258.134 86.82C257.914 86.9133 257.731 87.0633 257.584 87.27C257.444 87.4767 257.361 87.7467 257.334 88.08ZM263.825 91.12C263.538 91.12 263.255 91.0767 262.975 90.99C262.701 90.8967 262.455 90.76 262.235 90.58C262.021 90.3933 261.858 90.16 261.745 89.88L262.555 89.58C262.628 89.8733 262.788 90.0867 263.035 90.22C263.288 90.3467 263.551 90.41 263.825 90.41C264.025 90.41 264.211 90.38 264.385 90.32C264.565 90.26 264.711 90.1733 264.825 90.06C264.938 89.9467 264.995 89.8167 264.995 89.67C264.995 89.3967 264.885 89.2033 264.665 89.09C264.451 88.9767 264.195 88.89 263.895 88.83L263.205 88.69C262.965 88.6367 262.741 88.5633 262.535 88.47C262.328 88.37 262.161 88.23 262.035 88.05C261.908 87.87 261.845 87.63 261.845 87.33C261.845 87.03 261.938 86.78 262.125 86.58C262.311 86.3733 262.548 86.2167 262.835 86.11C263.128 86.0033 263.435 85.95 263.755 85.95C264.148 85.95 264.518 86.0333 264.865 86.2C265.218 86.36 265.468 86.6133 265.615 86.96L264.825 87.25C264.738 87.05 264.585 86.9033 264.365 86.81C264.151 86.71 263.928 86.66 263.695 86.66C263.441 86.66 263.211 86.7167 263.005 86.83C262.798 86.9433 262.695 87.1067 262.695 87.32C262.695 87.5333 262.781 87.69 262.955 87.79C263.135 87.8833 263.355 87.9567 263.615 88.01L264.265 88.14C264.531 88.1933 264.785 88.27 265.025 88.37C265.265 88.47 265.461 88.62 265.615 88.82C265.768 89.0133 265.845 89.2867 265.845 89.64C265.845 89.9533 265.748 90.22 265.555 90.44C265.361 90.66 265.111 90.83 264.805 90.95C264.498 91.0633 264.171 91.12 263.825 91.12ZM267.162 91.12C266.988 91.12 266.838 91.0567 266.712 90.93C266.585 90.8033 266.522 90.6533 266.522 90.48C266.522 90.3 266.585 90.1467 266.712 90.02C266.838 89.8933 266.988 89.83 267.162 89.83C267.342 89.83 267.495 89.8933 267.622 90.02C267.748 90.1467 267.812 90.3 267.812 90.48C267.812 90.6533 267.748 90.8033 267.622 90.93C267.495 91.0567 267.342 91.12 267.162 91.12Z" fill="black"/>
<path d="M269 44L249 17" stroke="black" stroke-width="5"/>
<path d="M269 44L216 44" stroke="black" stroke-width="2"/>
<path d="M249 17L222 12" stroke="black"/>
<circle cx="218" cy="44" r="9.5" fill="#FCF4E9" stroke="black"/>
<circle cx="249" cy="17" r="9.5" fill="#FFBC36" stroke="black"/>
<circle cx="223" cy="12" r="9.5" fill="#FCF4E9" stroke="black"/>
<circle cx="269" cy="44" r="9.5" fill="#FFBC36" stroke="black"/>
<circle cx="269" cy="44" r="2" fill="black"/>
<circle cx="269" cy="44" r="5" stroke="black" stroke-linecap="round" stroke-linejoin="round" stroke-dasharray="1 2"/>
<circle cx="249" cy="17" r="2" fill="black"/>
<circle cx="249" cy="17" r="5" stroke="black" stroke-linecap="round" stroke-linejoin="round" stroke-dasharray="1 2"/>
</svg>
