<svg width="280" height="89" viewBox="0 0 280 89" fill="none" xmlns="http://www.w3.org/2000/svg">
<g clip-path="url(#clip0_6125_41760)">
<path d="M12.0004 65L14.5104 58.31H15.5604L18.0604 65H17.0604L16.5504 63.54H13.5104L13.0004 65H12.0004ZM13.8004 62.73H16.2604L15.0304 59.26L13.8004 62.73ZM24.1129 65.12C23.7262 65.12 23.3996 65.0433 23.1329 64.89C22.8662 64.73 22.6562 64.5167 22.5029 64.25L22.2829 65H21.6629V58.32H22.5029V60.82C22.6562 60.56 22.8662 60.3533 23.1329 60.2C23.3996 60.04 23.7262 59.96 24.1129 59.96C24.4929 59.96 24.8429 60.0633 25.1629 60.27C25.4896 60.47 25.7496 60.7633 25.9429 61.15C26.1429 61.53 26.2429 61.9933 26.2429 62.54C26.2429 63.0867 26.1429 63.5533 25.9429 63.94C25.7496 64.32 25.4896 64.6133 25.1629 64.82C24.8429 65.02 24.4929 65.12 24.1129 65.12ZM23.8929 64.4C24.3196 64.4 24.6596 64.2367 24.9129 63.91C25.1729 63.5833 25.3029 63.1267 25.3029 62.54C25.3029 61.9467 25.1729 61.49 24.9129 61.17C24.6596 60.8433 24.3196 60.68 23.8929 60.68C23.4662 60.68 23.1229 60.8433 22.8629 61.17C22.6096 61.49 22.4829 61.9467 22.4829 62.54C22.4829 63.1267 22.6096 63.5833 22.8629 63.91C23.1229 64.2367 23.4662 64.4 23.8929 64.4ZM28.897 65.12C28.5103 65.12 28.2003 65.04 27.967 64.88C27.7336 64.7133 27.5636 64.4867 27.457 64.2C27.357 63.9067 27.307 63.5733 27.307 63.2V60.03H28.147V63C28.147 63.3667 28.1903 63.65 28.277 63.85C28.3636 64.05 28.4836 64.19 28.637 64.27C28.797 64.3433 28.9803 64.38 29.187 64.38C29.5803 64.38 29.887 64.2433 30.107 63.97C30.3336 63.69 30.447 63.2867 30.447 62.76V60.03H31.287V65H30.657L30.447 64.28C30.307 64.52 30.117 64.72 29.877 64.88C29.637 65.04 29.3103 65.12 28.897 65.12ZM35.1383 65.12C34.7516 65.12 34.4249 65.0433 34.1583 64.89C33.8916 64.73 33.6816 64.5167 33.5283 64.25L33.3083 65H32.6883V58.32H33.5283V60.82C33.6816 60.56 33.8916 60.3533 34.1583 60.2C34.4249 60.04 34.7516 59.96 35.1383 59.96C35.5183 59.96 35.8683 60.0633 36.1883 60.27C36.5149 60.47 36.7749 60.7633 36.9683 61.15C37.1683 61.53 37.2683 61.9933 37.2683 62.54C37.2683 63.0867 37.1683 63.5533 36.9683 63.94C36.7749 64.32 36.5149 64.6133 36.1883 64.82C35.8683 65.02 35.5183 65.12 35.1383 65.12ZM34.9183 64.4C35.3449 64.4 35.6849 64.2367 35.9383 63.91C36.1983 63.5833 36.3283 63.1267 36.3283 62.54C36.3283 61.9467 36.1983 61.49 35.9383 61.17C35.6849 60.8433 35.3449 60.68 34.9183 60.68C34.4916 60.68 34.1483 60.8433 33.8883 61.17C33.6349 61.49 33.5083 61.9467 33.5083 62.54C33.5083 63.1267 33.6349 63.5833 33.8883 63.91C34.1483 64.2367 34.4916 64.4 34.9183 64.4ZM40.8023 65.12C40.4157 65.12 40.089 65.0433 39.8223 64.89C39.5557 64.73 39.3457 64.5167 39.1923 64.25L38.9723 65H38.3523V58.32H39.1923V60.82C39.3457 60.56 39.5557 60.3533 39.8223 60.2C40.089 60.04 40.4157 59.96 40.8023 59.96C41.1823 59.96 41.5323 60.0633 41.8523 60.27C42.179 60.47 42.439 60.7633 42.6323 61.15C42.8323 61.53 42.9323 61.9933 42.9323 62.54C42.9323 63.0867 42.8323 63.5533 42.6323 63.94C42.439 64.32 42.179 64.6133 41.8523 64.82C41.5323 65.02 41.1823 65.12 40.8023 65.12ZM40.5823 64.4C41.009 64.4 41.349 64.2367 41.6023 63.91C41.8623 63.5833 41.9923 63.1267 41.9923 62.54C41.9923 61.9467 41.8623 61.49 41.6023 61.17C41.349 60.8433 41.009 60.68 40.5823 60.68C40.1557 60.68 39.8123 60.8433 39.5523 61.17C39.299 61.49 39.1723 61.9467 39.1723 62.54C39.1723 63.1267 39.299 63.5833 39.5523 63.91C39.8123 64.2367 40.1557 64.4 40.5823 64.4ZM45.1864 65C44.8731 65 44.6297 64.97 44.4564 64.91C44.2897 64.8433 44.1731 64.72 44.1064 64.54C44.0464 64.36 44.0164 64.1 44.0164 63.76V58.33H44.8564V63.62C44.8564 63.8733 44.8831 64.0433 44.9364 64.13C44.9897 64.2167 45.1331 64.26 45.3664 64.26H45.5564V65H45.1864ZM48.519 65.12C47.999 65.12 47.559 65.0067 47.199 64.78C46.839 64.5467 46.5623 64.2367 46.369 63.85C46.1823 63.4567 46.089 63.0167 46.089 62.53C46.089 62.0033 46.1957 61.55 46.409 61.17C46.6223 60.7833 46.909 60.4867 47.269 60.28C47.6357 60.0667 48.0457 59.96 48.499 59.96C48.8923 59.96 49.239 60.04 49.539 60.2C49.839 60.3533 50.0857 60.5633 50.279 60.83C50.479 61.09 50.6223 61.3867 50.709 61.72C50.8023 62.0533 50.8357 62.3967 50.809 62.75H46.989C47.0023 63.1633 47.0923 63.49 47.259 63.73C47.4323 63.97 47.6357 64.14 47.869 64.24C48.1023 64.3333 48.319 64.38 48.519 64.38C48.799 64.38 49.0323 64.3367 49.219 64.25C49.4123 64.1567 49.5657 64.0367 49.679 63.89L50.489 64.13C50.309 64.4167 50.0523 64.6533 49.719 64.84C49.3857 65.0267 48.9857 65.12 48.519 65.12ZM46.999 62.08H49.919C49.919 61.8467 49.859 61.6233 49.739 61.41C49.6257 61.1967 49.4623 61.0233 49.249 60.89C49.0423 60.75 48.7923 60.68 48.499 60.68C48.2523 60.68 48.019 60.7267 47.799 60.82C47.579 60.9133 47.3957 61.0633 47.249 61.27C47.109 61.4767 47.0257 61.7467 46.999 62.08ZM0.725391 77V72.04H1.33539L1.60539 72.96C1.77872 72.66 2.01206 72.42 2.30539 72.24C2.60539 72.0533 2.96206 71.96 3.37539 71.96V72.83C3.32872 72.83 3.27872 72.83 3.22539 72.83C3.17872 72.83 3.13206 72.8333 3.08539 72.84C2.51872 72.8867 2.12206 73.0833 1.89539 73.43C1.67539 73.7767 1.56539 74.2567 1.56539 74.87V77H0.725391ZM6.23383 77.12C5.71383 77.12 5.27383 77.0067 4.91383 76.78C4.55383 76.5467 4.27716 76.2367 4.08383 75.85C3.89716 75.4567 3.80383 75.0167 3.80383 74.53C3.80383 74.0033 3.91049 73.55 4.12383 73.17C4.33716 72.7833 4.62383 72.4867 4.98383 72.28C5.35049 72.0667 5.76049 71.96 6.21383 71.96C6.60716 71.96 6.95383 72.04 7.25383 72.2C7.55383 72.3533 7.8005 72.5633 7.99383 72.83C8.19383 73.09 8.33716 73.3867 8.42383 73.72C8.51716 74.0533 8.55049 74.3967 8.52383 74.75H4.70383C4.71716 75.1633 4.80716 75.49 4.97383 75.73C5.14716 75.97 5.35049 76.14 5.58383 76.24C5.81716 76.3333 6.03383 76.38 6.23383 76.38C6.51383 76.38 6.74716 76.3367 6.93383 76.25C7.12716 76.1567 7.2805 76.0367 7.39383 75.89L8.20383 76.13C8.02383 76.4167 7.76716 76.6533 7.43383 76.84C7.10049 77.0267 6.70049 77.12 6.23383 77.12ZM4.71383 74.08H7.63383C7.63383 73.8467 7.57383 73.6233 7.45383 73.41C7.34049 73.1967 7.17716 73.0233 6.96383 72.89C6.75716 72.75 6.50716 72.68 6.21383 72.68C5.96716 72.68 5.73383 72.7267 5.51383 72.82C5.29383 72.9133 5.11049 73.0633 4.96383 73.27C4.82383 73.4767 4.74049 73.7467 4.71383 74.08ZM9.51445 78.61V72.04H10.1245L10.3545 72.82C10.5078 72.56 10.7178 72.3533 10.9845 72.2C11.2511 72.04 11.5778 71.96 11.9645 71.96C12.3445 71.96 12.6945 72.0633 13.0145 72.27C13.3411 72.47 13.6011 72.7633 13.7945 73.15C13.9945 73.53 14.0945 73.9933 14.0945 74.54C14.0945 75.08 13.9945 75.5433 13.7945 75.93C13.6011 76.3167 13.3411 76.6133 13.0145 76.82C12.6945 77.02 12.3445 77.12 11.9645 77.12C11.5778 77.12 11.2511 77.0433 10.9845 76.89C10.7178 76.73 10.5078 76.5167 10.3545 76.25V78.61H9.51445ZM11.7445 76.4C12.1711 76.4 12.5111 76.2367 12.7645 75.91C13.0245 75.5833 13.1545 75.1267 13.1545 74.54C13.1545 73.9467 13.0245 73.49 12.7645 73.17C12.5111 72.8433 12.1711 72.68 11.7445 72.68C11.3178 72.68 10.9745 72.8433 10.7145 73.17C10.4611 73.49 10.3345 73.9467 10.3345 74.54C10.3345 75.1267 10.4611 75.5833 10.7145 75.91C10.9745 76.2367 11.3178 76.4 11.7445 76.4ZM15.1785 77V72.04H15.7885L16.0585 72.96C16.2318 72.66 16.4652 72.42 16.7585 72.24C17.0585 72.0533 17.4152 71.96 17.8285 71.96V72.83C17.7818 72.83 17.7318 72.83 17.6785 72.83C17.6318 72.83 17.5852 72.8333 17.5385 72.84C16.9718 72.8867 16.5752 73.0833 16.3485 73.43C16.1285 73.7767 16.0185 74.2567 16.0185 74.87V77H15.1785ZM20.687 77.12C20.167 77.12 19.727 77.0067 19.367 76.78C19.007 76.5467 18.7303 76.2367 18.537 75.85C18.3503 75.4567 18.257 75.0167 18.257 74.53C18.257 74.0033 18.3636 73.55 18.577 73.17C18.7903 72.7833 19.077 72.4867 19.437 72.28C19.8036 72.0667 20.2136 71.96 20.667 71.96C21.0603 71.96 21.407 72.04 21.707 72.2C22.007 72.3533 22.2536 72.5633 22.447 72.83C22.647 73.09 22.7903 73.3867 22.877 73.72C22.9703 74.0533 23.0036 74.3967 22.977 74.75H19.157C19.1703 75.1633 19.2603 75.49 19.427 75.73C19.6003 75.97 19.8036 76.14 20.037 76.24C20.2703 76.3333 20.487 76.38 20.687 76.38C20.967 76.38 21.2003 76.3367 21.387 76.25C21.5803 76.1567 21.7336 76.0367 21.847 75.89L22.657 76.13C22.477 76.4167 22.2203 76.6533 21.887 76.84C21.5536 77.0267 21.1536 77.12 20.687 77.12ZM19.167 74.08H22.087C22.087 73.8467 22.027 73.6233 21.907 73.41C21.7936 73.1967 21.6303 73.0233 21.417 72.89C21.2103 72.75 20.9603 72.68 20.667 72.68C20.4203 72.68 20.187 72.7267 19.967 72.82C19.747 72.9133 19.5636 73.0633 19.417 73.27C19.277 73.4767 19.1936 73.7467 19.167 74.08ZM25.6576 77.12C25.3709 77.12 25.0876 77.0767 24.8076 76.99C24.5342 76.8967 24.2876 76.76 24.0676 76.58C23.8542 76.3933 23.6909 76.16 23.5776 75.88L24.3876 75.58C24.4609 75.8733 24.6209 76.0867 24.8676 76.22C25.1209 76.3467 25.3842 76.41 25.6576 76.41C25.8576 76.41 26.0442 76.38 26.2176 76.32C26.3976 76.26 26.5442 76.1733 26.6576 76.06C26.7709 75.9467 26.8276 75.8167 26.8276 75.67C26.8276 75.3967 26.7176 75.2033 26.4976 75.09C26.2842 74.9767 26.0276 74.89 25.7276 74.83L25.0376 74.69C24.7976 74.6367 24.5742 74.5633 24.3676 74.47C24.1609 74.37 23.9942 74.23 23.8676 74.05C23.7409 73.87 23.6776 73.63 23.6776 73.33C23.6776 73.03 23.7709 72.78 23.9576 72.58C24.1442 72.3733 24.3809 72.2167 24.6676 72.11C24.9609 72.0033 25.2676 71.95 25.5876 71.95C25.9809 71.95 26.3509 72.0333 26.6976 72.2C27.0509 72.36 27.3009 72.6133 27.4476 72.96L26.6576 73.25C26.5709 73.05 26.4176 72.9033 26.1976 72.81C25.9842 72.71 25.7609 72.66 25.5276 72.66C25.2742 72.66 25.0442 72.7167 24.8376 72.83C24.6309 72.9433 24.5276 73.1067 24.5276 73.32C24.5276 73.5333 24.6142 73.69 24.7876 73.79C24.9676 73.8833 25.1876 73.9567 25.4476 74.01L26.0976 74.14C26.3642 74.1933 26.6176 74.27 26.8576 74.37C27.0976 74.47 27.2942 74.62 27.4476 74.82C27.6009 75.0133 27.6776 75.2867 27.6776 75.64C27.6776 75.9533 27.5809 76.22 27.3876 76.44C27.1942 76.66 26.9442 76.83 26.6376 76.95C26.3309 77.0633 26.0042 77.12 25.6576 77.12ZM30.7846 77.12C30.2646 77.12 29.8246 77.0067 29.4646 76.78C29.1046 76.5467 28.8279 76.2367 28.6346 75.85C28.4479 75.4567 28.3546 75.0167 28.3546 74.53C28.3546 74.0033 28.4613 73.55 28.6746 73.17C28.8879 72.7833 29.1746 72.4867 29.5346 72.28C29.9013 72.0667 30.3113 71.96 30.7646 71.96C31.1579 71.96 31.5046 72.04 31.8046 72.2C32.1046 72.3533 32.3513 72.5633 32.5446 72.83C32.7446 73.09 32.8879 73.3867 32.9746 73.72C33.0679 74.0533 33.1013 74.3967 33.0746 74.75H29.2546C29.2679 75.1633 29.3579 75.49 29.5246 75.73C29.6979 75.97 29.9013 76.14 30.1346 76.24C30.3679 76.3333 30.5846 76.38 30.7846 76.38C31.0646 76.38 31.2979 76.3367 31.4846 76.25C31.6779 76.1567 31.8313 76.0367 31.9446 75.89L32.7546 76.13C32.5746 76.4167 32.3179 76.6533 31.9846 76.84C31.6513 77.0267 31.2513 77.12 30.7846 77.12ZM29.2646 74.08H32.1846C32.1846 73.8467 32.1246 73.6233 32.0046 73.41C31.8913 73.1967 31.7279 73.0233 31.5146 72.89C31.3079 72.75 31.0579 72.68 30.7646 72.68C30.5179 72.68 30.2846 72.7267 30.0646 72.82C29.8446 72.9133 29.6613 73.0633 29.5146 73.27C29.3746 73.4767 29.2913 73.7467 29.2646 74.08ZM34.0652 77V72.04H34.6852L34.9052 72.79C35.0452 72.5567 35.2419 72.36 35.4952 72.2C35.7486 72.04 36.0852 71.96 36.5052 71.96C37.1052 71.96 37.5286 72.1367 37.7752 72.49C38.0219 72.8367 38.1452 73.2933 38.1452 73.86V77H37.3052V74.11C37.3052 73.8567 37.2819 73.6233 37.2352 73.41C37.1886 73.19 37.0852 73.0133 36.9252 72.88C36.7719 72.7467 36.5352 72.68 36.2152 72.68C35.8086 72.68 35.4886 72.82 35.2552 73.1C35.0219 73.3733 34.9052 73.7767 34.9052 74.31V77H34.0652ZM40.9073 77C40.5939 77 40.3506 76.97 40.1773 76.91C40.0106 76.8433 39.8939 76.72 39.8273 76.54C39.7673 76.36 39.7373 76.1 39.7373 75.76V72.71H38.8973V72.04H39.7373V70.79H40.5773V72.04H41.5373V72.71H40.5773V75.62C40.5773 75.8733 40.6006 76.0433 40.6473 76.13C40.7006 76.2167 40.8473 76.26 41.0873 76.26H41.5373V77H40.9073ZM44.3295 77.12C44.0428 77.12 43.7595 77.0767 43.4795 76.99C43.2061 76.8967 42.9595 76.76 42.7395 76.58C42.5261 76.3933 42.3628 76.16 42.2495 75.88L43.0595 75.58C43.1328 75.8733 43.2928 76.0867 43.5395 76.22C43.7928 76.3467 44.0561 76.41 44.3295 76.41C44.5295 76.41 44.7161 76.38 44.8895 76.32C45.0695 76.26 45.2161 76.1733 45.3295 76.06C45.4428 75.9467 45.4995 75.8167 45.4995 75.67C45.4995 75.3967 45.3895 75.2033 45.1695 75.09C44.9561 74.9767 44.6995 74.89 44.3995 74.83L43.7095 74.69C43.4695 74.6367 43.2461 74.5633 43.0395 74.47C42.8328 74.37 42.6661 74.23 42.5395 74.05C42.4128 73.87 42.3495 73.63 42.3495 73.33C42.3495 73.03 42.4428 72.78 42.6295 72.58C42.8161 72.3733 43.0528 72.2167 43.3395 72.11C43.6328 72.0033 43.9395 71.95 44.2595 71.95C44.6528 71.95 45.0228 72.0333 45.3695 72.2C45.7228 72.36 45.9728 72.6133 46.1195 72.96L45.3295 73.25C45.2428 73.05 45.0895 72.9033 44.8695 72.81C44.6561 72.71 44.4328 72.66 44.1995 72.66C43.9461 72.66 43.7161 72.7167 43.5095 72.83C43.3028 72.9433 43.1995 73.1067 43.1995 73.32C43.1995 73.5333 43.2861 73.69 43.4595 73.79C43.6395 73.8833 43.8595 73.9567 44.1195 74.01L44.7695 74.14C45.0361 74.1933 45.2895 74.27 45.5295 74.37C45.7695 74.47 45.9661 74.62 46.1195 74.82C46.2728 75.0133 46.3495 75.2867 46.3495 75.64C46.3495 75.9533 46.2528 76.22 46.0595 76.44C45.8661 76.66 45.6161 76.83 45.3095 76.95C45.0028 77.0633 44.6761 77.12 44.3295 77.12ZM51.5392 77.12C51.2259 77.12 50.9392 77.0633 50.6792 76.95C50.4192 76.8367 50.2126 76.6733 50.0592 76.46C49.9059 76.2467 49.8292 75.99 49.8292 75.69C49.8292 75.2967 49.9659 74.9867 50.2392 74.76C50.5192 74.5333 50.9092 74.36 51.4092 74.24C51.9159 74.1133 52.5059 74.0133 53.1792 73.94C53.1926 73.52 53.1092 73.1967 52.9292 72.97C52.7492 72.7433 52.4592 72.63 52.0592 72.63C51.7592 72.63 51.5126 72.7 51.3192 72.84C51.1326 72.9733 51.0126 73.16 50.9592 73.4L50.1492 73.16C50.2826 72.78 50.5192 72.4867 50.8592 72.28C51.2059 72.0667 51.6026 71.96 52.0492 71.96C52.7359 71.96 53.2359 72.1233 53.5492 72.45C53.8692 72.77 54.0292 73.2767 54.0292 73.97V75.13C54.0292 75.5433 54.0459 75.9 54.0792 76.2C54.1126 76.5 54.1526 76.7667 54.1992 77H53.4292L53.2292 76.32C53.0826 76.5667 52.8726 76.7633 52.5992 76.91C52.3259 77.05 51.9726 77.12 51.5392 77.12ZM51.7192 76.45C51.9792 76.45 52.2259 76.4033 52.4592 76.31C52.6926 76.2167 52.8826 76.06 53.0292 75.84C53.1759 75.6133 53.2492 75.3067 53.2492 74.92V74.61C52.7426 74.6633 52.3026 74.73 51.9292 74.81C51.5559 74.8833 51.2659 74.99 51.0592 75.13C50.8592 75.2633 50.7592 75.4433 50.7592 75.67C50.7592 75.9033 50.8426 76.0933 51.0092 76.24C51.1826 76.38 51.4192 76.45 51.7192 76.45ZM55.4129 77V72.04H56.0329L56.2529 72.79C56.3929 72.5567 56.5896 72.36 56.8429 72.2C57.0962 72.04 57.4329 71.96 57.8529 71.96C58.4529 71.96 58.8762 72.1367 59.1229 72.49C59.3696 72.8367 59.4929 73.2933 59.4929 73.86V77H58.6529V74.11C58.6529 73.8567 58.6296 73.6233 58.5829 73.41C58.5362 73.19 58.4329 73.0133 58.2729 72.88C58.1196 72.7467 57.8829 72.68 57.5629 72.68C57.1562 72.68 56.8362 72.82 56.6029 73.1C56.3696 73.3733 56.2529 73.7767 56.2529 74.31V77H55.4129ZM8.47016 83.1C8.30349 83.1 8.15682 83.04 8.03016 82.92C7.91016 82.7933 7.85016 82.6433 7.85016 82.47C7.85016 82.2967 7.91016 82.15 8.03016 82.03C8.15682 81.91 8.30349 81.85 8.47016 81.85C8.64349 81.85 8.79016 81.91 8.91016 82.03C9.03682 82.15 9.10016 82.2967 9.10016 82.47C9.10016 82.6433 9.03682 82.7933 8.91016 82.92C8.79016 83.04 8.64349 83.1 8.47016 83.1ZM8.05016 89V84.71H7.36016V84.04H8.89016V89H8.05016ZM10.3934 89V84.04H11.0134L11.2334 84.79C11.3734 84.5567 11.57 84.36 11.8234 84.2C12.0767 84.04 12.4134 83.96 12.8334 83.96C13.4334 83.96 13.8567 84.1367 14.1034 84.49C14.35 84.8367 14.4734 85.2933 14.4734 85.86V89H13.6334V86.11C13.6334 85.8567 13.61 85.6233 13.5634 85.41C13.5167 85.19 13.4134 85.0133 13.2534 84.88C13.1 84.7467 12.8634 84.68 12.5434 84.68C12.1367 84.68 11.8167 84.82 11.5834 85.1C11.35 85.3733 11.2334 85.7767 11.2334 86.31V89H10.3934ZM17.5549 89.12C17.1816 89.12 16.8316 89.02 16.5049 88.82C16.1783 88.6133 15.9149 88.32 15.7149 87.94C15.5216 87.5533 15.4249 87.0867 15.4249 86.54C15.4249 85.9933 15.5216 85.53 15.7149 85.15C15.9149 84.7633 16.1783 84.47 16.5049 84.27C16.8316 84.0633 17.1816 83.96 17.5549 83.96C17.9483 83.96 18.2783 84.04 18.5449 84.2C18.8116 84.3533 19.0183 84.56 19.1649 84.82V82.32H20.0049V87.13C20.0049 87.2967 20.0116 87.5433 20.0249 87.87C20.0383 88.19 20.0883 88.5667 20.1749 89H19.3849L19.1649 88.25C19.0183 88.5167 18.8116 88.73 18.5449 88.89C18.2783 89.0433 17.9483 89.12 17.5549 89.12ZM17.7749 88.4C18.2016 88.4 18.5416 88.2367 18.7949 87.91C19.0549 87.5833 19.1849 87.1267 19.1849 86.54C19.1849 85.9467 19.0549 85.49 18.7949 85.17C18.5416 84.8433 18.2016 84.68 17.7749 84.68C17.3483 84.68 17.0049 84.8433 16.7449 85.17C16.4916 85.49 16.3649 85.9467 16.3649 86.54C16.3649 87.1267 16.4916 87.5833 16.7449 87.91C17.0049 88.2367 17.3483 88.4 17.7749 88.4ZM22.2495 83.1C22.0828 83.1 21.9361 83.04 21.8095 82.92C21.6895 82.7933 21.6295 82.6433 21.6295 82.47C21.6295 82.2967 21.6895 82.15 21.8095 82.03C21.9361 81.91 22.0828 81.85 22.2495 81.85C22.4228 81.85 22.5695 81.91 22.6895 82.03C22.8161 82.15 22.8795 82.2967 22.8795 82.47C22.8795 82.6433 22.8161 82.7933 22.6895 82.92C22.5695 83.04 22.4228 83.1 22.2495 83.1ZM21.8295 89V84.71H21.1395V84.04H22.6695V89H21.8295ZM25.2427 89L23.4727 84.04H24.3827L25.6827 87.9L26.9727 84.04H27.8827L26.1127 89H25.2427ZM29.4467 83.1C29.2801 83.1 29.1334 83.04 29.0067 82.92C28.8867 82.7933 28.8267 82.6433 28.8267 82.47C28.8267 82.2967 28.8867 82.15 29.0067 82.03C29.1334 81.91 29.2801 81.85 29.4467 81.85C29.6201 81.85 29.7667 81.91 29.8867 82.03C30.0134 82.15 30.0767 82.2967 30.0767 82.47C30.0767 82.6433 30.0134 82.7933 29.8867 82.92C29.7667 83.04 29.6201 83.1 29.4467 83.1ZM29.0267 89V84.71H28.3367V84.04H29.8667V89H29.0267ZM33.1799 89.12C32.8066 89.12 32.4566 89.02 32.1299 88.82C31.8033 88.6133 31.5399 88.32 31.3399 87.94C31.1466 87.5533 31.0499 87.0867 31.0499 86.54C31.0499 85.9933 31.1466 85.53 31.3399 85.15C31.5399 84.7633 31.8033 84.47 32.1299 84.27C32.4566 84.0633 32.8066 83.96 33.1799 83.96C33.5733 83.96 33.9033 84.04 34.1699 84.2C34.4366 84.3533 34.6433 84.56 34.7899 84.82V82.32H35.6299V87.13C35.6299 87.2967 35.6366 87.5433 35.6499 87.87C35.6633 88.19 35.7133 88.5667 35.7999 89H35.0099L34.7899 88.25C34.6433 88.5167 34.4366 88.73 34.1699 88.89C33.9033 89.0433 33.5733 89.12 33.1799 89.12ZM33.3999 88.4C33.8266 88.4 34.1666 88.2367 34.4199 87.91C34.6799 87.5833 34.8099 87.1267 34.8099 86.54C34.8099 85.9467 34.6799 85.49 34.4199 85.17C34.1666 84.8433 33.8266 84.68 33.3999 84.68C32.9733 84.68 32.6299 84.8433 32.3699 85.17C32.1166 85.49 31.9899 85.9467 31.9899 86.54C31.9899 87.1267 32.1166 87.5833 32.3699 87.91C32.6299 88.2367 32.9733 88.4 33.3999 88.4ZM38.5845 89.12C38.1978 89.12 37.8878 89.04 37.6545 88.88C37.4211 88.7133 37.2511 88.4867 37.1445 88.2C37.0445 87.9067 36.9945 87.5733 36.9945 87.2V84.03H37.8345V87C37.8345 87.3667 37.8778 87.65 37.9645 87.85C38.0511 88.05 38.1711 88.19 38.3245 88.27C38.4845 88.3433 38.6678 88.38 38.8745 88.38C39.2678 88.38 39.5745 88.2433 39.7945 87.97C40.0211 87.69 40.1345 87.2867 40.1345 86.76V84.03H40.9745V89H40.3445L40.1345 88.28C39.9945 88.52 39.8045 88.72 39.5645 88.88C39.3245 89.04 38.9978 89.12 38.5845 89.12ZM43.7658 89.12C43.4524 89.12 43.1658 89.0633 42.9058 88.95C42.6458 88.8367 42.4391 88.6733 42.2858 88.46C42.1324 88.2467 42.0558 87.99 42.0558 87.69C42.0558 87.2967 42.1924 86.9867 42.4658 86.76C42.7458 86.5333 43.1358 86.36 43.6358 86.24C44.1424 86.1133 44.7324 86.0133 45.4058 85.94C45.4191 85.52 45.3358 85.1967 45.1558 84.97C44.9758 84.7433 44.6858 84.63 44.2858 84.63C43.9858 84.63 43.7391 84.7 43.5458 84.84C43.3591 84.9733 43.2391 85.16 43.1858 85.4L42.3758 85.16C42.5091 84.78 42.7458 84.4867 43.0858 84.28C43.4324 84.0667 43.8291 83.96 44.2758 83.96C44.9624 83.96 45.4624 84.1233 45.7758 84.45C46.0958 84.77 46.2558 85.2767 46.2558 85.97V87.13C46.2558 87.5433 46.2724 87.9 46.3058 88.2C46.3391 88.5 46.3791 88.7667 46.4258 89H45.6558L45.4558 88.32C45.3091 88.5667 45.0991 88.7633 44.8258 88.91C44.5524 89.05 44.1991 89.12 43.7658 89.12ZM43.9458 88.45C44.2058 88.45 44.4524 88.4033 44.6858 88.31C44.9191 88.2167 45.1091 88.06 45.2558 87.84C45.4024 87.6133 45.4758 87.3067 45.4758 86.92V86.61C44.9691 86.6633 44.5291 86.73 44.1558 86.81C43.7824 86.8833 43.4924 86.99 43.2858 87.13C43.0858 87.2633 42.9858 87.4433 42.9858 87.67C42.9858 87.9033 43.0691 88.0933 43.2358 88.24C43.4091 88.38 43.6458 88.45 43.9458 88.45ZM48.8095 89C48.4961 89 48.2528 88.97 48.0795 88.91C47.9128 88.8433 47.7961 88.72 47.7295 88.54C47.6695 88.36 47.6395 88.1 47.6395 87.76V82.33H48.4795V87.62C48.4795 87.8733 48.5061 88.0433 48.5595 88.13C48.6128 88.2167 48.7561 88.26 48.9895 88.26H49.1795V89H48.8095ZM51.722 89.12C51.4354 89.12 51.152 89.0767 50.872 88.99C50.5987 88.8967 50.352 88.76 50.132 88.58C49.9187 88.3933 49.7554 88.16 49.642 87.88L50.452 87.58C50.5254 87.8733 50.6854 88.0867 50.932 88.22C51.1854 88.3467 51.4487 88.41 51.722 88.41C51.922 88.41 52.1087 88.38 52.282 88.32C52.462 88.26 52.6087 88.1733 52.722 88.06C52.8354 87.9467 52.892 87.8167 52.892 87.67C52.892 87.3967 52.782 87.2033 52.562 87.09C52.3487 86.9767 52.092 86.89 51.792 86.83L51.102 86.69C50.862 86.6367 50.6387 86.5633 50.432 86.47C50.2254 86.37 50.0587 86.23 49.932 86.05C49.8054 85.87 49.742 85.63 49.742 85.33C49.742 85.03 49.8354 84.78 50.022 84.58C50.2087 84.3733 50.4454 84.2167 50.732 84.11C51.0254 84.0033 51.332 83.95 51.652 83.95C52.0454 83.95 52.4154 84.0333 52.762 84.2C53.1154 84.36 53.3654 84.6133 53.512 84.96L52.722 85.25C52.6354 85.05 52.482 84.9033 52.262 84.81C52.0487 84.71 51.8254 84.66 51.592 84.66C51.3387 84.66 51.1087 84.7167 50.902 84.83C50.6954 84.9433 50.592 85.1067 50.592 85.32C50.592 85.5333 50.6787 85.69 50.852 85.79C51.032 85.8833 51.252 85.9567 51.512 86.01L52.162 86.14C52.4287 86.1933 52.682 86.27 52.922 86.37C53.162 86.47 53.3587 86.62 53.512 86.82C53.6654 87.0133 53.742 87.2867 53.742 87.64C53.742 87.9533 53.6454 88.22 53.452 88.44C53.2587 88.66 53.0087 88.83 52.702 88.95C52.3954 89.0633 52.0687 89.12 51.722 89.12ZM55.0591 89.12C54.8857 89.12 54.7357 89.0567 54.6091 88.93C54.4824 88.8033 54.4191 88.6533 54.4191 88.48C54.4191 88.3 54.4824 88.1467 54.6091 88.02C54.7357 87.8933 54.8857 87.83 55.0591 87.83C55.2391 87.83 55.3924 87.8933 55.5191 88.02C55.6457 88.1467 55.7091 88.3 55.7091 88.48C55.7091 88.6533 55.6457 88.8033 55.5191 88.93C55.3924 89.0567 55.2391 89.12 55.0591 89.12Z" fill="black"/>
<circle cx="31.5" cy="32.5" r="17" fill="#FCF4E9" stroke="black"/>
<path d="M83.8142 65.12C83.1808 65.12 82.6375 64.9733 82.1842 64.68C81.7308 64.38 81.3842 63.97 81.1442 63.45C80.9042 62.93 80.7842 62.33 80.7842 61.65C80.7842 60.9567 80.9108 60.3533 81.1642 59.84C81.4242 59.32 81.7875 58.9167 82.2542 58.63C82.7208 58.3433 83.2675 58.2 83.8942 58.2C84.4542 58.2 84.9575 58.33 85.4042 58.59C85.8575 58.85 86.1975 59.2233 86.4242 59.71L85.6042 60.01C85.4575 59.71 85.2342 59.4667 84.9342 59.28C84.6408 59.0867 84.2775 58.99 83.8442 58.99C83.4508 58.99 83.0942 59.09 82.7742 59.29C82.4608 59.49 82.2108 59.79 82.0242 60.19C81.8375 60.5833 81.7442 61.07 81.7442 61.65C81.7442 62.21 81.8342 62.69 82.0142 63.09C82.1942 63.49 82.4442 63.7967 82.7642 64.01C83.0908 64.2233 83.4608 64.33 83.8742 64.33C84.3075 64.33 84.6708 64.2367 84.9642 64.05C85.2642 63.8633 85.4908 63.6167 85.6442 63.31L86.4642 63.61C86.2242 64.1033 85.8708 64.48 85.4042 64.74C84.9375 64.9933 84.4075 65.12 83.8142 65.12ZM89.6067 65.12C89.32 65.12 89.0367 65.07 88.7567 64.97C88.4767 64.87 88.22 64.7167 87.9867 64.51C87.76 64.2967 87.5767 64.0267 87.4367 63.7C87.2967 63.3733 87.2267 62.9867 87.2267 62.54C87.2267 62.0933 87.2967 61.7067 87.4367 61.38C87.5767 61.0533 87.76 60.7867 87.9867 60.58C88.22 60.3667 88.4767 60.21 88.7567 60.11C89.0367 60.01 89.32 59.96 89.6067 59.96C89.8933 59.96 90.1767 60.01 90.4567 60.11C90.7433 60.21 91 60.3667 91.2267 60.58C91.46 60.7867 91.6433 61.0533 91.7767 61.38C91.9167 61.7067 91.9867 62.0933 91.9867 62.54C91.9867 62.9867 91.9167 63.3733 91.7767 63.7C91.6433 64.0267 91.46 64.2967 91.2267 64.51C91 64.7167 90.7433 64.87 90.4567 64.97C90.1767 65.07 89.8933 65.12 89.6067 65.12ZM89.6067 64.38C89.8467 64.38 90.08 64.3167 90.3067 64.19C90.5333 64.0567 90.72 63.8567 90.8667 63.59C91.0133 63.3167 91.0867 62.9667 91.0867 62.54C91.0867 62.1133 91.0133 61.7667 90.8667 61.5C90.72 61.2267 90.5333 61.0267 90.3067 60.9C90.08 60.7667 89.8467 60.7 89.6067 60.7C89.3733 60.7 89.14 60.7667 88.9067 60.9C88.68 61.0267 88.4933 61.2267 88.3467 61.5C88.2 61.7667 88.1267 62.1133 88.1267 62.54C88.1267 62.9667 88.2 63.3167 88.3467 63.59C88.4933 63.8567 88.68 64.0567 88.9067 64.19C89.14 64.3167 89.3733 64.38 89.6067 64.38ZM93.0643 65V60.04H93.6843L93.9043 60.79C94.0443 60.5567 94.2409 60.36 94.4943 60.2C94.7476 60.04 95.0843 59.96 95.5043 59.96C96.1043 59.96 96.5276 60.1367 96.7743 60.49C97.0209 60.8367 97.1443 61.2933 97.1443 61.86V65H96.3043V62.11C96.3043 61.8567 96.2809 61.6233 96.2343 61.41C96.1876 61.19 96.0843 61.0133 95.9243 60.88C95.7709 60.7467 95.5343 60.68 95.2143 60.68C94.8076 60.68 94.4876 60.82 94.2543 61.1C94.0209 61.3733 93.9043 61.7767 93.9043 62.31V65H93.0643ZM98.5232 65V60.04H99.1432L99.3632 60.79C99.5032 60.5567 99.6999 60.36 99.9532 60.2C100.207 60.04 100.543 59.96 100.963 59.96C101.563 59.96 101.987 60.1367 102.233 60.49C102.48 60.8367 102.603 61.2933 102.603 61.86V65H101.763V62.11C101.763 61.8567 101.74 61.6233 101.693 61.41C101.647 61.19 101.543 61.0133 101.383 60.88C101.23 60.7467 100.993 60.68 100.673 60.68C100.267 60.68 99.9466 60.82 99.7132 61.1C99.4799 61.3733 99.3632 61.7767 99.3632 62.31V65H98.5232ZM105.985 65.12C105.465 65.12 105.025 65.0067 104.665 64.78C104.305 64.5467 104.028 64.2367 103.835 63.85C103.648 63.4567 103.555 63.0167 103.555 62.53C103.555 62.0033 103.661 61.55 103.875 61.17C104.088 60.7833 104.375 60.4867 104.735 60.28C105.101 60.0667 105.511 59.96 105.965 59.96C106.358 59.96 106.705 60.04 107.005 60.2C107.305 60.3533 107.551 60.5633 107.745 60.83C107.945 61.09 108.088 61.3867 108.175 61.72C108.268 62.0533 108.301 62.3967 108.275 62.75H104.455C104.468 63.1633 104.558 63.49 104.725 63.73C104.898 63.97 105.101 64.14 105.335 64.24C105.568 64.3333 105.785 64.38 105.985 64.38C106.265 64.38 106.498 64.3367 106.685 64.25C106.878 64.1567 107.031 64.0367 107.145 63.89L107.955 64.13C107.775 64.4167 107.518 64.6533 107.185 64.84C106.851 65.0267 106.451 65.12 105.985 65.12ZM104.465 62.08H107.385C107.385 61.8467 107.325 61.6233 107.205 61.41C107.091 61.1967 106.928 61.0233 106.715 60.89C106.508 60.75 106.258 60.68 105.965 60.68C105.718 60.68 105.485 60.7267 105.265 60.82C105.045 60.9133 104.861 61.0633 104.715 61.27C104.575 61.4767 104.491 61.7467 104.465 62.08ZM111.255 65.12C110.782 65.12 110.372 65.01 110.025 64.79C109.679 64.5633 109.412 64.2567 109.225 63.87C109.039 63.4833 108.945 63.04 108.945 62.54C108.945 62.0467 109.042 61.6067 109.235 61.22C109.435 60.8267 109.715 60.52 110.075 60.3C110.435 60.0733 110.859 59.96 111.345 59.96C111.792 59.96 112.175 60.07 112.495 60.29C112.815 60.51 113.055 60.7733 113.215 61.08L112.445 61.36C112.339 61.16 112.182 61 111.975 60.88C111.769 60.76 111.539 60.7 111.285 60.7C111.039 60.7 110.805 60.7667 110.585 60.9C110.365 61.0267 110.189 61.2267 110.055 61.5C109.922 61.7667 109.855 62.11 109.855 62.53C109.855 62.9433 109.922 63.29 110.055 63.57C110.195 63.8433 110.372 64.0467 110.585 64.18C110.805 64.3133 111.039 64.38 111.285 64.38C111.559 64.38 111.795 64.32 111.995 64.2C112.202 64.0733 112.359 63.9167 112.465 63.73L113.235 64.01C113.049 64.33 112.782 64.5967 112.435 64.81C112.089 65.0167 111.695 65.12 111.255 65.12ZM115.775 65C115.462 65 115.219 64.97 115.045 64.91C114.879 64.8433 114.762 64.72 114.695 64.54C114.635 64.36 114.605 64.1 114.605 63.76V60.71H113.765V60.04H114.605V58.79H115.445V60.04H116.405V60.71H115.445V63.62C115.445 63.8733 115.469 64.0433 115.515 64.13C115.569 64.2167 115.715 64.26 115.955 64.26H116.405V65H115.775ZM118.368 59.1C118.201 59.1 118.054 59.04 117.928 58.92C117.808 58.7933 117.748 58.6433 117.748 58.47C117.748 58.2967 117.808 58.15 117.928 58.03C118.054 57.91 118.201 57.85 118.368 57.85C118.541 57.85 118.688 57.91 118.808 58.03C118.934 58.15 118.998 58.2967 118.998 58.47C118.998 58.6433 118.934 58.7933 118.808 58.92C118.688 59.04 118.541 59.1 118.368 59.1ZM117.948 65V60.71H117.258V60.04H118.788V65H117.948ZM122.351 65.12C122.064 65.12 121.781 65.07 121.501 64.97C121.221 64.87 120.964 64.7167 120.731 64.51C120.504 64.2967 120.321 64.0267 120.181 63.7C120.041 63.3733 119.971 62.9867 119.971 62.54C119.971 62.0933 120.041 61.7067 120.181 61.38C120.321 61.0533 120.504 60.7867 120.731 60.58C120.964 60.3667 121.221 60.21 121.501 60.11C121.781 60.01 122.064 59.96 122.351 59.96C122.637 59.96 122.921 60.01 123.201 60.11C123.487 60.21 123.744 60.3667 123.971 60.58C124.204 60.7867 124.387 61.0533 124.521 61.38C124.661 61.7067 124.731 62.0933 124.731 62.54C124.731 62.9867 124.661 63.3733 124.521 63.7C124.387 64.0267 124.204 64.2967 123.971 64.51C123.744 64.7167 123.487 64.87 123.201 64.97C122.921 65.07 122.637 65.12 122.351 65.12ZM122.351 64.38C122.591 64.38 122.824 64.3167 123.051 64.19C123.277 64.0567 123.464 63.8567 123.611 63.59C123.757 63.3167 123.831 62.9667 123.831 62.54C123.831 62.1133 123.757 61.7667 123.611 61.5C123.464 61.2267 123.277 61.0267 123.051 60.9C122.824 60.7667 122.591 60.7 122.351 60.7C122.117 60.7 121.884 60.7667 121.651 60.9C121.424 61.0267 121.237 61.2267 121.091 61.5C120.944 61.7667 120.871 62.1133 120.871 62.54C120.871 62.9667 120.944 63.3167 121.091 63.59C121.237 63.8567 121.424 64.0567 121.651 64.19C121.884 64.3167 122.117 64.38 122.351 64.38ZM125.808 65V60.04H126.428L126.648 60.79C126.788 60.5567 126.985 60.36 127.238 60.2C127.492 60.04 127.828 59.96 128.248 59.96C128.848 59.96 129.272 60.1367 129.518 60.49C129.765 60.8367 129.888 61.2933 129.888 61.86V65H129.048V62.11C129.048 61.8567 129.025 61.6233 128.978 61.41C128.932 61.19 128.828 61.0133 128.668 60.88C128.515 60.7467 128.278 60.68 127.958 60.68C127.552 60.68 127.232 60.82 126.998 61.1C126.765 61.3733 126.648 61.7767 126.648 62.31V65H125.808ZM135.58 65C135.267 65 135.023 64.97 134.85 64.91C134.683 64.8433 134.567 64.72 134.5 64.54C134.44 64.36 134.41 64.1 134.41 63.76V60.71H133.57V60.04H134.41V58.79H135.25V60.04H136.21V60.71H135.25V63.62C135.25 63.8733 135.273 64.0433 135.32 64.13C135.373 64.2167 135.52 64.26 135.76 64.26H136.21V65H135.58ZM137.312 65V58.32H138.152V60.79C138.292 60.5567 138.489 60.36 138.742 60.2C138.996 60.04 139.332 59.96 139.752 59.96C140.352 59.96 140.776 60.1367 141.022 60.49C141.269 60.8367 141.392 61.2933 141.392 61.86V65H140.552V62.11C140.552 61.8567 140.529 61.6233 140.482 61.41C140.436 61.19 140.332 61.0133 140.172 60.88C140.019 60.7467 139.782 60.68 139.462 60.68C139.056 60.68 138.736 60.82 138.502 61.1C138.269 61.3733 138.152 61.7767 138.152 62.31V65H137.312ZM143.631 59.1C143.465 59.1 143.318 59.04 143.191 58.92C143.071 58.7933 143.011 58.6433 143.011 58.47C143.011 58.2967 143.071 58.15 143.191 58.03C143.318 57.91 143.465 57.85 143.631 57.85C143.805 57.85 143.951 57.91 144.071 58.03C144.198 58.15 144.261 58.2967 144.261 58.47C144.261 58.6433 144.198 58.7933 144.071 58.92C143.951 59.04 143.805 59.1 143.631 59.1ZM143.211 65V60.71H142.521V60.04H144.051V65H143.211ZM147.544 65.12C147.071 65.12 146.661 65.01 146.314 64.79C145.968 64.5633 145.701 64.2567 145.514 63.87C145.328 63.4833 145.234 63.04 145.234 62.54C145.234 62.0467 145.331 61.6067 145.524 61.22C145.724 60.8267 146.004 60.52 146.364 60.3C146.724 60.0733 147.148 59.96 147.634 59.96C148.081 59.96 148.464 60.07 148.784 60.29C149.104 60.51 149.344 60.7733 149.504 61.08L148.734 61.36C148.628 61.16 148.471 61 148.264 60.88C148.058 60.76 147.828 60.7 147.574 60.7C147.328 60.7 147.094 60.7667 146.874 60.9C146.654 61.0267 146.478 61.2267 146.344 61.5C146.211 61.7667 146.144 62.11 146.144 62.53C146.144 62.9433 146.211 63.29 146.344 63.57C146.484 63.8433 146.661 64.0467 146.874 64.18C147.094 64.3133 147.328 64.38 147.574 64.38C147.848 64.38 148.084 64.32 148.284 64.2C148.491 64.0733 148.648 63.9167 148.754 63.73L149.524 64.01C149.338 64.33 149.071 64.5967 148.724 64.81C148.378 65.0167 147.984 65.12 147.544 65.12ZM150.554 65V58.32H151.394V62.27L153.394 60.04H154.404L152.534 62.09L154.654 65H153.624L151.974 62.71L151.394 63.34V65H150.554ZM155.457 65V60.04H156.077L156.297 60.79C156.437 60.5567 156.634 60.36 156.887 60.2C157.14 60.04 157.477 59.96 157.897 59.96C158.497 59.96 158.92 60.1367 159.167 60.49C159.414 60.8367 159.537 61.2933 159.537 61.86V65H158.697V62.11C158.697 61.8567 158.674 61.6233 158.627 61.41C158.58 61.19 158.477 61.0133 158.317 60.88C158.164 60.7467 157.927 60.68 157.607 60.68C157.2 60.68 156.88 60.82 156.647 61.1C156.414 61.3733 156.297 61.7767 156.297 62.31V65H155.457ZM162.918 65.12C162.398 65.12 161.958 65.0067 161.598 64.78C161.238 64.5467 160.962 64.2367 160.768 63.85C160.582 63.4567 160.488 63.0167 160.488 62.53C160.488 62.0033 160.595 61.55 160.808 61.17C161.022 60.7833 161.308 60.4867 161.668 60.28C162.035 60.0667 162.445 59.96 162.898 59.96C163.292 59.96 163.638 60.04 163.938 60.2C164.238 60.3533 164.485 60.5633 164.678 60.83C164.878 61.09 165.022 61.3867 165.108 61.72C165.202 62.0533 165.235 62.3967 165.208 62.75H161.388C161.402 63.1633 161.492 63.49 161.658 63.73C161.832 63.97 162.035 64.14 162.268 64.24C162.502 64.3333 162.718 64.38 162.918 64.38C163.198 64.38 163.432 64.3367 163.618 64.25C163.812 64.1567 163.965 64.0367 164.078 63.89L164.888 64.13C164.708 64.4167 164.452 64.6533 164.118 64.84C163.785 65.0267 163.385 65.12 162.918 65.12ZM161.398 62.08H164.318C164.318 61.8467 164.258 61.6233 164.138 61.41C164.025 61.1967 163.862 61.0233 163.648 60.89C163.442 60.75 163.192 60.68 162.898 60.68C162.652 60.68 162.418 60.7267 162.198 60.82C161.978 60.9133 161.795 61.0633 161.648 61.27C161.508 61.4767 161.425 61.7467 161.398 62.08ZM167.889 65.12C167.602 65.12 167.319 65.0767 167.039 64.99C166.766 64.8967 166.519 64.76 166.299 64.58C166.086 64.3933 165.922 64.16 165.809 63.88L166.619 63.58C166.692 63.8733 166.852 64.0867 167.099 64.22C167.352 64.3467 167.616 64.41 167.889 64.41C168.089 64.41 168.276 64.38 168.449 64.32C168.629 64.26 168.776 64.1733 168.889 64.06C169.002 63.9467 169.059 63.8167 169.059 63.67C169.059 63.3967 168.949 63.2033 168.729 63.09C168.516 62.9767 168.259 62.89 167.959 62.83L167.269 62.69C167.029 62.6367 166.806 62.5633 166.599 62.47C166.392 62.37 166.226 62.23 166.099 62.05C165.972 61.87 165.909 61.63 165.909 61.33C165.909 61.03 166.002 60.78 166.189 60.58C166.376 60.3733 166.612 60.2167 166.899 60.11C167.192 60.0033 167.499 59.95 167.819 59.95C168.212 59.95 168.582 60.0333 168.929 60.2C169.282 60.36 169.532 60.6133 169.679 60.96L168.889 61.25C168.802 61.05 168.649 60.9033 168.429 60.81C168.216 60.71 167.992 60.66 167.759 60.66C167.506 60.66 167.276 60.7167 167.069 60.83C166.862 60.9433 166.759 61.1067 166.759 61.32C166.759 61.5333 166.846 61.69 167.019 61.79C167.199 61.8833 167.419 61.9567 167.679 62.01L168.329 62.14C168.596 62.1933 168.849 62.27 169.089 62.37C169.329 62.47 169.526 62.62 169.679 62.82C169.832 63.0133 169.909 63.2867 169.909 63.64C169.909 63.9533 169.812 64.22 169.619 64.44C169.426 64.66 169.176 64.83 168.869 64.95C168.562 65.0633 168.236 65.12 167.889 65.12ZM172.596 65.12C172.309 65.12 172.026 65.0767 171.746 64.99C171.473 64.8967 171.226 64.76 171.006 64.58C170.793 64.3933 170.629 64.16 170.516 63.88L171.326 63.58C171.399 63.8733 171.559 64.0867 171.806 64.22C172.059 64.3467 172.323 64.41 172.596 64.41C172.796 64.41 172.983 64.38 173.156 64.32C173.336 64.26 173.483 64.1733 173.596 64.06C173.709 63.9467 173.766 63.8167 173.766 63.67C173.766 63.3967 173.656 63.2033 173.436 63.09C173.223 62.9767 172.966 62.89 172.666 62.83L171.976 62.69C171.736 62.6367 171.513 62.5633 171.306 62.47C171.099 62.37 170.933 62.23 170.806 62.05C170.679 61.87 170.616 61.63 170.616 61.33C170.616 61.03 170.709 60.78 170.896 60.58C171.083 60.3733 171.319 60.2167 171.606 60.11C171.899 60.0033 172.206 59.95 172.526 59.95C172.919 59.95 173.289 60.0333 173.636 60.2C173.989 60.36 174.239 60.6133 174.386 60.96L173.596 61.25C173.509 61.05 173.356 60.9033 173.136 60.81C172.923 60.71 172.699 60.66 172.466 60.66C172.213 60.66 171.983 60.7167 171.776 60.83C171.569 60.9433 171.466 61.1067 171.466 61.32C171.466 61.5333 171.553 61.69 171.726 61.79C171.906 61.8833 172.126 61.9567 172.386 62.01L173.036 62.14C173.303 62.1933 173.556 62.27 173.796 62.37C174.036 62.47 174.233 62.62 174.386 62.82C174.539 63.0133 174.616 63.2867 174.616 63.64C174.616 63.9533 174.519 64.22 174.326 64.44C174.133 64.66 173.883 64.83 173.576 64.95C173.269 65.0633 172.943 65.12 172.596 65.12ZM85.4526 71.1C85.2859 71.1 85.1392 71.04 85.0126 70.92C84.8926 70.7933 84.8326 70.6433 84.8326 70.47C84.8326 70.2967 84.8926 70.15 85.0126 70.03C85.1392 69.91 85.2859 69.85 85.4526 69.85C85.6259 69.85 85.7726 69.91 85.8926 70.03C86.0192 70.15 86.0826 70.2967 86.0826 70.47C86.0826 70.6433 86.0192 70.7933 85.8926 70.92C85.7726 71.04 85.6259 71.1 85.4526 71.1ZM85.0326 77V72.71H84.3426V72.04H85.8726V77H85.0326ZM87.3758 77V72.04H87.9958L88.2158 72.79C88.3558 72.5567 88.5524 72.36 88.8058 72.2C89.0591 72.04 89.3958 71.96 89.8158 71.96C90.4158 71.96 90.8391 72.1367 91.0858 72.49C91.3324 72.8367 91.4558 73.2933 91.4558 73.86V77H90.6158V74.11C90.6158 73.8567 90.5924 73.6233 90.5458 73.41C90.4991 73.19 90.3958 73.0133 90.2358 72.88C90.0824 72.7467 89.8458 72.68 89.5258 72.68C89.1191 72.68 88.7991 72.82 88.5658 73.1C88.3324 73.3733 88.2158 73.7767 88.2158 74.31V77H87.3758ZM94.5373 77.12C94.164 77.12 93.814 77.02 93.4873 76.82C93.1607 76.6133 92.8973 76.32 92.6973 75.94C92.504 75.5533 92.4073 75.0867 92.4073 74.54C92.4073 73.9933 92.504 73.53 92.6973 73.15C92.8973 72.7633 93.1607 72.47 93.4873 72.27C93.814 72.0633 94.164 71.96 94.5373 71.96C94.9307 71.96 95.2607 72.04 95.5273 72.2C95.794 72.3533 96.0007 72.56 96.1473 72.82V70.32H96.9873V75.13C96.9873 75.2967 96.994 75.5433 97.0073 75.87C97.0207 76.19 97.0707 76.5667 97.1573 77H96.3673L96.1473 76.25C96.0007 76.5167 95.794 76.73 95.5273 76.89C95.2607 77.0433 94.9307 77.12 94.5373 77.12ZM94.7573 76.4C95.184 76.4 95.524 76.2367 95.7773 75.91C96.0373 75.5833 96.1673 75.1267 96.1673 74.54C96.1673 73.9467 96.0373 73.49 95.7773 73.17C95.524 72.8433 95.184 72.68 94.7573 72.68C94.3307 72.68 93.9873 72.8433 93.7273 73.17C93.474 73.49 93.3473 73.9467 93.3473 74.54C93.3473 75.1267 93.474 75.5833 93.7273 75.91C93.9873 76.2367 94.3307 76.4 94.7573 76.4ZM99.2319 71.1C99.0652 71.1 98.9185 71.04 98.7919 70.92C98.6719 70.7933 98.6119 70.6433 98.6119 70.47C98.6119 70.2967 98.6719 70.15 98.7919 70.03C98.9185 69.91 99.0652 69.85 99.2319 69.85C99.4052 69.85 99.5519 69.91 99.6719 70.03C99.7985 70.15 99.8619 70.2967 99.8619 70.47C99.8619 70.6433 99.7985 70.7933 99.6719 70.92C99.5519 71.04 99.4052 71.1 99.2319 71.1ZM98.8119 77V72.71H98.1219V72.04H99.6519V77H98.8119ZM103.145 77.12C102.672 77.12 102.262 77.01 101.915 76.79C101.568 76.5633 101.302 76.2567 101.115 75.87C100.928 75.4833 100.835 75.04 100.835 74.54C100.835 74.0467 100.932 73.6067 101.125 73.22C101.325 72.8267 101.605 72.52 101.965 72.3C102.325 72.0733 102.748 71.96 103.235 71.96C103.682 71.96 104.065 72.07 104.385 72.29C104.705 72.51 104.945 72.7733 105.105 73.08L104.335 73.36C104.228 73.16 104.072 73 103.865 72.88C103.658 72.76 103.428 72.7 103.175 72.7C102.928 72.7 102.695 72.7667 102.475 72.9C102.255 73.0267 102.078 73.2267 101.945 73.5C101.812 73.7667 101.745 74.11 101.745 74.53C101.745 74.9433 101.812 75.29 101.945 75.57C102.085 75.8433 102.262 76.0467 102.475 76.18C102.695 76.3133 102.928 76.38 103.175 76.38C103.448 76.38 103.685 76.32 103.885 76.2C104.092 76.0733 104.248 75.9167 104.355 75.73L105.125 76.01C104.938 76.33 104.672 76.5967 104.325 76.81C103.978 77.0167 103.585 77.12 103.145 77.12ZM107.545 77.12C107.232 77.12 106.945 77.0633 106.685 76.95C106.425 76.8367 106.218 76.6733 106.065 76.46C105.912 76.2467 105.835 75.99 105.835 75.69C105.835 75.2967 105.972 74.9867 106.245 74.76C106.525 74.5333 106.915 74.36 107.415 74.24C107.922 74.1133 108.512 74.0133 109.185 73.94C109.198 73.52 109.115 73.1967 108.935 72.97C108.755 72.7433 108.465 72.63 108.065 72.63C107.765 72.63 107.518 72.7 107.325 72.84C107.138 72.9733 107.018 73.16 106.965 73.4L106.155 73.16C106.288 72.78 106.525 72.4867 106.865 72.28C107.212 72.0667 107.608 71.96 108.055 71.96C108.742 71.96 109.242 72.1233 109.555 72.45C109.875 72.77 110.035 73.2767 110.035 73.97V75.13C110.035 75.5433 110.052 75.9 110.085 76.2C110.118 76.5 110.158 76.7667 110.205 77H109.435L109.235 76.32C109.088 76.5667 108.878 76.7633 108.605 76.91C108.332 77.05 107.978 77.12 107.545 77.12ZM107.725 76.45C107.985 76.45 108.232 76.4033 108.465 76.31C108.698 76.2167 108.888 76.06 109.035 75.84C109.182 75.6133 109.255 75.3067 109.255 74.92V74.61C108.748 74.6633 108.308 74.73 107.935 74.81C107.562 74.8833 107.272 74.99 107.065 75.13C106.865 75.2633 106.765 75.4433 106.765 75.67C106.765 75.9033 106.848 76.0933 107.015 76.24C107.188 76.38 107.425 76.45 107.725 76.45ZM112.929 77C112.615 77 112.372 76.97 112.199 76.91C112.032 76.8433 111.915 76.72 111.849 76.54C111.789 76.36 111.759 76.1 111.759 75.76V72.71H110.919V72.04H111.759V70.79H112.599V72.04H113.559V72.71H112.599V75.62C112.599 75.8733 112.622 76.0433 112.669 76.13C112.722 76.2167 112.869 76.26 113.109 76.26H113.559V77H112.929ZM116.771 77.12C116.251 77.12 115.811 77.0067 115.451 76.78C115.091 76.5467 114.814 76.2367 114.621 75.85C114.434 75.4567 114.341 75.0167 114.341 74.53C114.341 74.0033 114.448 73.55 114.661 73.17C114.874 72.7833 115.161 72.4867 115.521 72.28C115.888 72.0667 116.298 71.96 116.751 71.96C117.144 71.96 117.491 72.04 117.791 72.2C118.091 72.3533 118.338 72.5633 118.531 72.83C118.731 73.09 118.874 73.3867 118.961 73.72C119.054 74.0533 119.088 74.3967 119.061 74.75H115.241C115.254 75.1633 115.344 75.49 115.511 75.73C115.684 75.97 115.888 76.14 116.121 76.24C116.354 76.3333 116.571 76.38 116.771 76.38C117.051 76.38 117.284 76.3367 117.471 76.25C117.664 76.1567 117.818 76.0367 117.931 75.89L118.741 76.13C118.561 76.4167 118.304 76.6533 117.971 76.84C117.638 77.0267 117.238 77.12 116.771 77.12ZM115.251 74.08H118.171C118.171 73.8467 118.111 73.6233 117.991 73.41C117.878 73.1967 117.714 73.0233 117.501 72.89C117.294 72.75 117.044 72.68 116.751 72.68C116.504 72.68 116.271 72.7267 116.051 72.82C115.831 72.9133 115.648 73.0633 115.501 73.27C115.361 73.4767 115.278 73.7467 115.251 74.08ZM121.742 77.12C121.455 77.12 121.172 77.0767 120.892 76.99C120.618 76.8967 120.372 76.76 120.152 76.58C119.938 76.3933 119.775 76.16 119.662 75.88L120.472 75.58C120.545 75.8733 120.705 76.0867 120.952 76.22C121.205 76.3467 121.468 76.41 121.742 76.41C121.942 76.41 122.128 76.38 122.302 76.32C122.482 76.26 122.628 76.1733 122.742 76.06C122.855 75.9467 122.912 75.8167 122.912 75.67C122.912 75.3967 122.802 75.2033 122.582 75.09C122.368 74.9767 122.112 74.89 121.812 74.83L121.122 74.69C120.882 74.6367 120.658 74.5633 120.452 74.47C120.245 74.37 120.078 74.23 119.952 74.05C119.825 73.87 119.762 73.63 119.762 73.33C119.762 73.03 119.855 72.78 120.042 72.58C120.228 72.3733 120.465 72.2167 120.752 72.11C121.045 72.0033 121.352 71.95 121.672 71.95C122.065 71.95 122.435 72.0333 122.782 72.2C123.135 72.36 123.385 72.6133 123.532 72.96L122.742 73.25C122.655 73.05 122.502 72.9033 122.282 72.81C122.068 72.71 121.845 72.66 121.612 72.66C121.358 72.66 121.128 72.7167 120.922 72.83C120.715 72.9433 120.612 73.1067 120.612 73.32C120.612 73.5333 120.698 73.69 120.872 73.79C121.052 73.8833 121.272 73.9567 121.532 74.01L122.182 74.14C122.448 74.1933 122.702 74.27 122.942 74.37C123.182 74.47 123.378 74.62 123.532 74.82C123.685 75.0133 123.762 75.2867 123.762 75.64C123.762 75.9533 123.665 76.22 123.472 76.44C123.278 76.66 123.028 76.83 122.722 76.95C122.415 77.0633 122.088 77.12 121.742 77.12ZM128.951 77.12C128.638 77.12 128.351 77.0633 128.091 76.95C127.831 76.8367 127.625 76.6733 127.471 76.46C127.318 76.2467 127.241 75.99 127.241 75.69C127.241 75.2967 127.378 74.9867 127.651 74.76C127.931 74.5333 128.321 74.36 128.821 74.24C129.328 74.1133 129.918 74.0133 130.591 73.94C130.605 73.52 130.521 73.1967 130.341 72.97C130.161 72.7433 129.871 72.63 129.471 72.63C129.171 72.63 128.925 72.7 128.731 72.84C128.545 72.9733 128.425 73.16 128.371 73.4L127.561 73.16C127.695 72.78 127.931 72.4867 128.271 72.28C128.618 72.0667 129.015 71.96 129.461 71.96C130.148 71.96 130.648 72.1233 130.961 72.45C131.281 72.77 131.441 73.2767 131.441 73.97V75.13C131.441 75.5433 131.458 75.9 131.491 76.2C131.525 76.5 131.565 76.7667 131.611 77H130.841L130.641 76.32C130.495 76.5667 130.285 76.7633 130.011 76.91C129.738 77.05 129.385 77.12 128.951 77.12ZM129.131 76.45C129.391 76.45 129.638 76.4033 129.871 76.31C130.105 76.2167 130.295 76.06 130.441 75.84C130.588 75.6133 130.661 75.3067 130.661 74.92V74.61C130.155 74.6633 129.715 74.73 129.341 74.81C128.968 74.8833 128.678 74.99 128.471 75.13C128.271 75.2633 128.171 75.4433 128.171 75.67C128.171 75.9033 128.255 76.0933 128.421 76.24C128.595 76.38 128.831 76.45 129.131 76.45ZM132.825 77V72.04H133.445L133.665 72.79C133.805 72.5567 133.995 72.36 134.235 72.2C134.482 72.04 134.788 71.96 135.155 71.96C135.535 71.96 135.842 72.0367 136.075 72.19C136.308 72.3433 136.478 72.5567 136.585 72.83C136.785 72.5233 137.025 72.3033 137.305 72.17C137.592 72.03 137.908 71.96 138.255 71.96C138.828 71.96 139.238 72.1367 139.485 72.49C139.732 72.8367 139.855 73.2933 139.855 73.86V77H139.015V74.11C139.015 73.8567 138.988 73.6233 138.935 73.41C138.888 73.19 138.788 73.0133 138.635 72.88C138.488 72.7467 138.262 72.68 137.955 72.68C137.595 72.68 137.305 72.82 137.085 73.1C136.872 73.3733 136.765 73.7767 136.765 74.31V77H135.925V74.11C135.925 73.8567 135.898 73.6233 135.845 73.41C135.798 73.19 135.698 73.0133 135.545 72.88C135.398 72.7467 135.172 72.68 134.865 72.68C134.505 72.68 134.215 72.82 133.995 73.1C133.775 73.3733 133.665 73.7767 133.665 74.31V77H132.825ZM143.186 77.12C142.899 77.12 142.616 77.07 142.336 76.97C142.056 76.87 141.799 76.7167 141.566 76.51C141.339 76.2967 141.156 76.0267 141.016 75.7C140.876 75.3733 140.806 74.9867 140.806 74.54C140.806 74.0933 140.876 73.7067 141.016 73.38C141.156 73.0533 141.339 72.7867 141.566 72.58C141.799 72.3667 142.056 72.21 142.336 72.11C142.616 72.01 142.899 71.96 143.186 71.96C143.472 71.96 143.756 72.01 144.036 72.11C144.322 72.21 144.579 72.3667 144.806 72.58C145.039 72.7867 145.222 73.0533 145.356 73.38C145.496 73.7067 145.566 74.0933 145.566 74.54C145.566 74.9867 145.496 75.3733 145.356 75.7C145.222 76.0267 145.039 76.2967 144.806 76.51C144.579 76.7167 144.322 76.87 144.036 76.97C143.756 77.07 143.472 77.12 143.186 77.12ZM143.186 76.38C143.426 76.38 143.659 76.3167 143.886 76.19C144.112 76.0567 144.299 75.8567 144.446 75.59C144.592 75.3167 144.666 74.9667 144.666 74.54C144.666 74.1133 144.592 73.7667 144.446 73.5C144.299 73.2267 144.112 73.0267 143.886 72.9C143.659 72.7667 143.426 72.7 143.186 72.7C142.952 72.7 142.719 72.7667 142.486 72.9C142.259 73.0267 142.072 73.2267 141.926 73.5C141.779 73.7667 141.706 74.1133 141.706 74.54C141.706 74.9667 141.779 75.3167 141.926 75.59C142.072 75.8567 142.259 76.0567 142.486 76.19C142.719 76.3167 142.952 76.38 143.186 76.38ZM148.213 77.12C147.827 77.12 147.517 77.04 147.283 76.88C147.05 76.7133 146.88 76.4867 146.773 76.2C146.673 75.9067 146.623 75.5733 146.623 75.2V72.03H147.463V75C147.463 75.3667 147.507 75.65 147.593 75.85C147.68 76.05 147.8 76.19 147.953 76.27C148.113 76.3433 148.297 76.38 148.503 76.38C148.897 76.38 149.203 76.2433 149.423 75.97C149.65 75.69 149.763 75.2867 149.763 74.76V72.03H150.603V77H149.973L149.763 76.28C149.623 76.52 149.433 76.72 149.193 76.88C148.953 77.04 148.627 77.12 148.213 77.12ZM152.005 77V72.04H152.625L152.845 72.79C152.985 72.5567 153.181 72.36 153.435 72.2C153.688 72.04 154.025 71.96 154.445 71.96C155.045 71.96 155.468 72.1367 155.715 72.49C155.961 72.8367 156.085 73.2933 156.085 73.86V77H155.245V74.11C155.245 73.8567 155.221 73.6233 155.175 73.41C155.128 73.19 155.025 73.0133 154.865 72.88C154.711 72.7467 154.475 72.68 154.155 72.68C153.748 72.68 153.428 72.82 153.195 73.1C152.961 73.3733 152.845 73.7767 152.845 74.31V77H152.005ZM158.847 77C158.533 77 158.29 76.97 158.117 76.91C157.95 76.8433 157.833 76.72 157.767 76.54C157.707 76.36 157.677 76.1 157.677 75.76V72.71H156.837V72.04H157.677V70.79H158.517V72.04H159.477V72.71H158.517V75.62C158.517 75.8733 158.54 76.0433 158.587 76.13C158.64 76.2167 158.787 76.26 159.027 76.26H159.477V77H158.847ZM165.442 77.12C165.155 77.12 164.872 77.07 164.592 76.97C164.312 76.87 164.055 76.7167 163.822 76.51C163.595 76.2967 163.412 76.0267 163.272 75.7C163.132 75.3733 163.062 74.9867 163.062 74.54C163.062 74.0933 163.132 73.7067 163.272 73.38C163.412 73.0533 163.595 72.7867 163.822 72.58C164.055 72.3667 164.312 72.21 164.592 72.11C164.872 72.01 165.155 71.96 165.442 71.96C165.728 71.96 166.012 72.01 166.292 72.11C166.578 72.21 166.835 72.3667 167.062 72.58C167.295 72.7867 167.478 73.0533 167.612 73.38C167.752 73.7067 167.822 74.0933 167.822 74.54C167.822 74.9867 167.752 75.3733 167.612 75.7C167.478 76.0267 167.295 76.2967 167.062 76.51C166.835 76.7167 166.578 76.87 166.292 76.97C166.012 77.07 165.728 77.12 165.442 77.12ZM165.442 76.38C165.682 76.38 165.915 76.3167 166.142 76.19C166.368 76.0567 166.555 75.8567 166.702 75.59C166.848 75.3167 166.922 74.9667 166.922 74.54C166.922 74.1133 166.848 73.7667 166.702 73.5C166.555 73.2267 166.368 73.0267 166.142 72.9C165.915 72.7667 165.682 72.7 165.442 72.7C165.208 72.7 164.975 72.7667 164.742 72.9C164.515 73.0267 164.328 73.2267 164.182 73.5C164.035 73.7667 163.962 74.1133 163.962 74.54C163.962 74.9667 164.035 75.3167 164.182 75.59C164.328 75.8567 164.515 76.0567 164.742 76.19C164.975 76.3167 165.208 76.38 165.442 76.38ZM169.189 77V72.71H168.349V72.04H169.189V71.3C169.189 70.96 169.223 70.69 169.289 70.49C169.356 70.29 169.486 70.15 169.679 70.07C169.873 69.9833 170.153 69.94 170.519 69.94H171.059V70.65H170.539C170.326 70.65 170.186 70.6933 170.119 70.78C170.059 70.8667 170.029 71.0367 170.029 71.29V72.04H171.059V72.71H170.029V77H169.189ZM97.8646 89.12C97.5779 89.12 97.2946 89.0767 97.0146 88.99C96.7413 88.8967 96.4946 88.76 96.2746 88.58C96.0613 88.3933 95.8979 88.16 95.7846 87.88L96.5946 87.58C96.6679 87.8733 96.8279 88.0867 97.0746 88.22C97.3279 88.3467 97.5913 88.41 97.8646 88.41C98.0646 88.41 98.2513 88.38 98.4246 88.32C98.6046 88.26 98.7513 88.1733 98.8646 88.06C98.9779 87.9467 99.0346 87.8167 99.0346 87.67C99.0346 87.3967 98.9246 87.2033 98.7046 87.09C98.4913 86.9767 98.2346 86.89 97.9346 86.83L97.2446 86.69C97.0046 86.6367 96.7813 86.5633 96.5746 86.47C96.3679 86.37 96.2013 86.23 96.0746 86.05C95.9479 85.87 95.8846 85.63 95.8846 85.33C95.8846 85.03 95.9779 84.78 96.1646 84.58C96.3513 84.3733 96.5879 84.2167 96.8746 84.11C97.1679 84.0033 97.4746 83.95 97.7946 83.95C98.1879 83.95 98.5579 84.0333 98.9046 84.2C99.2579 84.36 99.5079 84.6133 99.6546 84.96L98.8646 85.25C98.7779 85.05 98.6246 84.9033 98.4046 84.81C98.1913 84.71 97.9679 84.66 97.7346 84.66C97.4813 84.66 97.2513 84.7167 97.0446 84.83C96.8379 84.9433 96.7346 85.1067 96.7346 85.32C96.7346 85.5333 96.8213 85.69 96.9946 85.79C97.1746 85.8833 97.3946 85.9567 97.6546 86.01L98.3046 86.14C98.5713 86.1933 98.8246 86.27 99.0646 86.37C99.3046 86.47 99.5013 86.62 99.6546 86.82C99.8079 87.0133 99.8846 87.2867 99.8846 87.64C99.8846 87.9533 99.7879 88.22 99.5946 88.44C99.4013 88.66 99.1513 88.83 98.8446 88.95C98.5379 89.0633 98.2113 89.12 97.8646 89.12ZM100.882 89V82.32H101.722V84.79C101.862 84.5567 102.058 84.36 102.312 84.2C102.565 84.04 102.902 83.96 103.322 83.96C103.922 83.96 104.345 84.1367 104.592 84.49C104.838 84.8367 104.962 85.2933 104.962 85.86V89H104.122V86.11C104.122 85.8567 104.098 85.6233 104.052 85.41C104.005 85.19 103.902 85.0133 103.742 84.88C103.588 84.7467 103.352 84.68 103.032 84.68C102.625 84.68 102.305 84.82 102.072 85.1C101.838 85.3733 101.722 85.7767 101.722 86.31V89H100.882ZM107.731 89.12C107.417 89.12 107.131 89.0633 106.871 88.95C106.611 88.8367 106.404 88.6733 106.251 88.46C106.097 88.2467 106.021 87.99 106.021 87.69C106.021 87.2967 106.157 86.9867 106.431 86.76C106.711 86.5333 107.101 86.36 107.601 86.24C108.107 86.1133 108.697 86.0133 109.371 85.94C109.384 85.52 109.301 85.1967 109.121 84.97C108.941 84.7433 108.651 84.63 108.251 84.63C107.951 84.63 107.704 84.7 107.511 84.84C107.324 84.9733 107.204 85.16 107.151 85.4L106.341 85.16C106.474 84.78 106.711 84.4867 107.051 84.28C107.397 84.0667 107.794 83.96 108.241 83.96C108.927 83.96 109.427 84.1233 109.741 84.45C110.061 84.77 110.221 85.2767 110.221 85.97V87.13C110.221 87.5433 110.237 87.9 110.271 88.2C110.304 88.5 110.344 88.7667 110.391 89H109.621L109.421 88.32C109.274 88.5667 109.064 88.7633 108.791 88.91C108.517 89.05 108.164 89.12 107.731 89.12ZM107.911 88.45C108.171 88.45 108.417 88.4033 108.651 88.31C108.884 88.2167 109.074 88.06 109.221 87.84C109.367 87.6133 109.441 87.3067 109.441 86.92V86.61C108.934 86.6633 108.494 86.73 108.121 86.81C107.747 86.8833 107.457 86.99 107.251 87.13C107.051 87.2633 106.951 87.4433 106.951 87.67C106.951 87.9033 107.034 88.0933 107.201 88.24C107.374 88.38 107.611 88.45 107.911 88.45ZM111.604 89V84.04H112.214L112.484 84.96C112.658 84.66 112.891 84.42 113.184 84.24C113.484 84.0533 113.841 83.96 114.254 83.96V84.83C114.208 84.83 114.158 84.83 114.104 84.83C114.058 84.83 114.011 84.8333 113.964 84.84C113.398 84.8867 113.001 85.0833 112.774 85.43C112.554 85.7767 112.444 86.2567 112.444 86.87V89H111.604ZM117.113 89.12C116.593 89.12 116.153 89.0067 115.793 88.78C115.433 88.5467 115.156 88.2367 114.963 87.85C114.776 87.4567 114.683 87.0167 114.683 86.53C114.683 86.0033 114.789 85.55 115.003 85.17C115.216 84.7833 115.503 84.4867 115.863 84.28C116.229 84.0667 116.639 83.96 117.093 83.96C117.486 83.96 117.833 84.04 118.133 84.2C118.433 84.3533 118.679 84.5633 118.873 84.83C119.073 85.09 119.216 85.3867 119.303 85.72C119.396 86.0533 119.429 86.3967 119.403 86.75H115.583C115.596 87.1633 115.686 87.49 115.853 87.73C116.026 87.97 116.229 88.14 116.463 88.24C116.696 88.3333 116.913 88.38 117.113 88.38C117.393 88.38 117.626 88.3367 117.813 88.25C118.006 88.1567 118.159 88.0367 118.273 87.89L119.083 88.13C118.903 88.4167 118.646 88.6533 118.313 88.84C117.979 89.0267 117.579 89.12 117.113 89.12ZM115.593 86.08H118.513C118.513 85.8467 118.453 85.6233 118.333 85.41C118.219 85.1967 118.056 85.0233 117.843 84.89C117.636 84.75 117.386 84.68 117.093 84.68C116.846 84.68 116.613 84.7267 116.393 84.82C116.173 84.9133 115.989 85.0633 115.843 85.27C115.703 85.4767 115.619 85.7467 115.593 86.08ZM122.203 89.12C121.83 89.12 121.48 89.02 121.153 88.82C120.827 88.6133 120.563 88.32 120.363 87.94C120.17 87.5533 120.073 87.0867 120.073 86.54C120.073 85.9933 120.17 85.53 120.363 85.15C120.563 84.7633 120.827 84.47 121.153 84.27C121.48 84.0633 121.83 83.96 122.203 83.96C122.597 83.96 122.927 84.04 123.193 84.2C123.46 84.3533 123.667 84.56 123.813 84.82V82.32H124.653V87.13C124.653 87.2967 124.66 87.5433 124.673 87.87C124.687 88.19 124.737 88.5667 124.823 89H124.033L123.813 88.25C123.667 88.5167 123.46 88.73 123.193 88.89C122.927 89.0433 122.597 89.12 122.203 89.12ZM122.423 88.4C122.85 88.4 123.19 88.2367 123.443 87.91C123.703 87.5833 123.833 87.1267 123.833 86.54C123.833 85.9467 123.703 85.49 123.443 85.17C123.19 84.8433 122.85 84.68 122.423 84.68C121.997 84.68 121.653 84.8433 121.393 85.17C121.14 85.49 121.013 85.9467 121.013 86.54C121.013 87.1267 121.14 87.5833 121.393 87.91C121.653 88.2367 121.997 88.4 122.423 88.4ZM130.231 89.12C129.917 89.12 129.631 89.0633 129.371 88.95C129.111 88.8367 128.904 88.6733 128.751 88.46C128.597 88.2467 128.521 87.99 128.521 87.69C128.521 87.2967 128.657 86.9867 128.931 86.76C129.211 86.5333 129.601 86.36 130.101 86.24C130.607 86.1133 131.197 86.0133 131.871 85.94C131.884 85.52 131.801 85.1967 131.621 84.97C131.441 84.7433 131.151 84.63 130.751 84.63C130.451 84.63 130.204 84.7 130.011 84.84C129.824 84.9733 129.704 85.16 129.651 85.4L128.841 85.16C128.974 84.78 129.211 84.4867 129.551 84.28C129.897 84.0667 130.294 83.96 130.741 83.96C131.427 83.96 131.927 84.1233 132.241 84.45C132.561 84.77 132.721 85.2767 132.721 85.97V87.13C132.721 87.5433 132.737 87.9 132.771 88.2C132.804 88.5 132.844 88.7667 132.891 89H132.121L131.921 88.32C131.774 88.5667 131.564 88.7633 131.291 88.91C131.017 89.05 130.664 89.12 130.231 89.12ZM130.411 88.45C130.671 88.45 130.917 88.4033 131.151 88.31C131.384 88.2167 131.574 88.06 131.721 87.84C131.867 87.6133 131.941 87.3067 131.941 86.92V86.61C131.434 86.6633 130.994 86.73 130.621 86.81C130.247 86.8833 129.957 86.99 129.751 87.13C129.551 87.2633 129.451 87.4433 129.451 87.67C129.451 87.9033 129.534 88.0933 129.701 88.24C129.874 88.38 130.111 88.45 130.411 88.45ZM134.104 89V84.04H134.714L134.984 84.96C135.158 84.66 135.391 84.42 135.684 84.24C135.984 84.0533 136.341 83.96 136.754 83.96V84.83C136.708 84.83 136.658 84.83 136.604 84.83C136.558 84.83 136.511 84.8333 136.464 84.84C135.898 84.8867 135.501 85.0833 135.274 85.43C135.054 85.7767 134.944 86.2567 134.944 86.87V89H134.104ZM139.169 89C138.856 89 138.612 88.97 138.439 88.91C138.272 88.8433 138.156 88.72 138.089 88.54C138.029 88.36 137.999 88.1 137.999 87.76V84.71H137.159V84.04H137.999V82.79H138.839V84.04H139.799V84.71H138.839V87.62C138.839 87.8733 138.862 88.0433 138.909 88.13C138.962 88.2167 139.109 88.26 139.349 88.26H139.799V89H139.169ZM141.761 83.1C141.595 83.1 141.448 83.04 141.321 82.92C141.201 82.7933 141.141 82.6433 141.141 82.47C141.141 82.2967 141.201 82.15 141.321 82.03C141.448 81.91 141.595 81.85 141.761 81.85C141.935 81.85 142.081 81.91 142.201 82.03C142.328 82.15 142.391 82.2967 142.391 82.47C142.391 82.6433 142.328 82.7933 142.201 82.92C142.081 83.04 141.935 83.1 141.761 83.1ZM141.341 89V84.71H140.651V84.04H142.181V89H141.341ZM145.674 89.12C145.201 89.12 144.791 89.01 144.444 88.79C144.098 88.5633 143.831 88.2567 143.644 87.87C143.458 87.4833 143.364 87.04 143.364 86.54C143.364 86.0467 143.461 85.6067 143.654 85.22C143.854 84.8267 144.134 84.52 144.494 84.3C144.854 84.0733 145.278 83.96 145.764 83.96C146.211 83.96 146.594 84.07 146.914 84.29C147.234 84.51 147.474 84.7733 147.634 85.08L146.864 85.36C146.758 85.16 146.601 85 146.394 84.88C146.188 84.76 145.958 84.7 145.704 84.7C145.458 84.7 145.224 84.7667 145.004 84.9C144.784 85.0267 144.608 85.2267 144.474 85.5C144.341 85.7667 144.274 86.11 144.274 86.53C144.274 86.9433 144.341 87.29 144.474 87.57C144.614 87.8433 144.791 88.0467 145.004 88.18C145.224 88.3133 145.458 88.38 145.704 88.38C145.978 88.38 146.214 88.32 146.414 88.2C146.621 88.0733 146.778 87.9167 146.884 87.73L147.654 88.01C147.468 88.33 147.201 88.5967 146.854 88.81C146.508 89.0167 146.114 89.12 145.674 89.12ZM149.854 89C149.541 89 149.298 88.97 149.124 88.91C148.958 88.8433 148.841 88.72 148.774 88.54C148.714 88.36 148.684 88.1 148.684 87.76V82.33H149.524V87.62C149.524 87.8733 149.551 88.0433 149.604 88.13C149.658 88.2167 149.801 88.26 150.034 88.26H150.224V89H149.854ZM153.187 89.12C152.667 89.12 152.227 89.0067 151.867 88.78C151.507 88.5467 151.23 88.2367 151.037 87.85C150.85 87.4567 150.757 87.0167 150.757 86.53C150.757 86.0033 150.864 85.55 151.077 85.17C151.29 84.7833 151.577 84.4867 151.937 84.28C152.304 84.0667 152.714 83.96 153.167 83.96C153.56 83.96 153.907 84.04 154.207 84.2C154.507 84.3533 154.754 84.5633 154.947 84.83C155.147 85.09 155.29 85.3867 155.377 85.72C155.47 86.0533 155.504 86.3967 155.477 86.75H151.657C151.67 87.1633 151.76 87.49 151.927 87.73C152.1 87.97 152.304 88.14 152.537 88.24C152.77 88.3333 152.987 88.38 153.187 88.38C153.467 88.38 153.7 88.3367 153.887 88.25C154.08 88.1567 154.234 88.0367 154.347 87.89L155.157 88.13C154.977 88.4167 154.72 88.6533 154.387 88.84C154.054 89.0267 153.654 89.12 153.187 89.12ZM151.667 86.08H154.587C154.587 85.8467 154.527 85.6233 154.407 85.41C154.294 85.1967 154.13 85.0233 153.917 84.89C153.71 84.75 153.46 84.68 153.167 84.68C152.92 84.68 152.687 84.7267 152.467 84.82C152.247 84.9133 152.064 85.0633 151.917 85.27C151.777 85.4767 151.694 85.7467 151.667 86.08ZM158.158 89.12C157.871 89.12 157.588 89.0767 157.308 88.99C157.034 88.8967 156.788 88.76 156.568 88.58C156.354 88.3933 156.191 88.16 156.078 87.88L156.888 87.58C156.961 87.8733 157.121 88.0867 157.368 88.22C157.621 88.3467 157.884 88.41 158.158 88.41C158.358 88.41 158.544 88.38 158.718 88.32C158.898 88.26 159.044 88.1733 159.158 88.06C159.271 87.9467 159.328 87.8167 159.328 87.67C159.328 87.3967 159.218 87.2033 158.998 87.09C158.784 86.9767 158.528 86.89 158.228 86.83L157.538 86.69C157.298 86.6367 157.074 86.5633 156.868 86.47C156.661 86.37 156.494 86.23 156.368 86.05C156.241 85.87 156.178 85.63 156.178 85.33C156.178 85.03 156.271 84.78 156.458 84.58C156.644 84.3733 156.881 84.2167 157.168 84.11C157.461 84.0033 157.768 83.95 158.088 83.95C158.481 83.95 158.851 84.0333 159.198 84.2C159.551 84.36 159.801 84.6133 159.948 84.96L159.158 85.25C159.071 85.05 158.918 84.9033 158.698 84.81C158.484 84.71 158.261 84.66 158.028 84.66C157.774 84.66 157.544 84.7167 157.338 84.83C157.131 84.9433 157.028 85.1067 157.028 85.32C157.028 85.5333 157.114 85.69 157.288 85.79C157.468 85.8833 157.688 85.9567 157.948 86.01L158.598 86.14C158.864 86.1933 159.118 86.27 159.358 86.37C159.598 86.47 159.794 86.62 159.948 86.82C160.101 87.0133 160.178 87.2867 160.178 87.64C160.178 87.9533 160.081 88.22 159.888 88.44C159.694 88.66 159.444 88.83 159.138 88.95C158.831 89.0633 158.504 89.12 158.158 89.12ZM161.495 89.12C161.321 89.12 161.171 89.0567 161.045 88.93C160.918 88.8033 160.855 88.6533 160.855 88.48C160.855 88.3 160.918 88.1467 161.045 88.02C161.171 87.8933 161.321 87.83 161.495 87.83C161.675 87.83 161.828 87.8933 161.955 88.02C162.081 88.1467 162.145 88.3 162.145 88.48C162.145 88.6533 162.081 88.8033 161.955 88.93C161.828 89.0567 161.675 89.12 161.495 89.12Z" fill="black"/>
<path d="M154 32L94 32" stroke="black" stroke-width="5"/>
<path d="M144 32L98 32" stroke="black" stroke-opacity="0.5" stroke-width="10"/>
<path d="M144 32L108 32" stroke="black" stroke-opacity="0.5" stroke-width="15"/>
<circle cx="92.5" cy="31.5" r="17" fill="#FCF4E9" stroke="black"/>
<circle cx="157.5" cy="31.5" r="17" fill="#FCF4E9" stroke="black"/>
<path d="M193.996 65.12C193.629 65.12 193.273 65.0633 192.926 64.95C192.579 64.8367 192.273 64.6633 192.006 64.43C191.746 64.1967 191.556 63.9 191.436 63.54L192.306 63.28C192.386 63.52 192.516 63.72 192.696 63.88C192.876 64.0333 193.083 64.1467 193.316 64.22C193.556 64.2933 193.796 64.33 194.036 64.33C194.303 64.33 194.556 64.2867 194.796 64.2C195.036 64.1133 195.229 63.9833 195.376 63.81C195.529 63.63 195.606 63.4067 195.606 63.14C195.606 62.8667 195.506 62.65 195.306 62.49C195.106 62.33 194.759 62.1867 194.266 62.06L193.416 61.87C193.109 61.79 192.806 61.6833 192.506 61.55C192.213 61.4167 191.969 61.2267 191.776 60.98C191.589 60.7333 191.496 60.4033 191.496 59.99C191.496 59.61 191.613 59.2867 191.846 59.02C192.086 58.7533 192.393 58.55 192.766 58.41C193.146 58.27 193.539 58.2 193.946 58.2C194.259 58.2 194.566 58.2467 194.866 58.34C195.173 58.4267 195.446 58.5633 195.686 58.75C195.933 58.93 196.126 59.1633 196.266 59.45L195.406 59.7C195.279 59.4667 195.073 59.29 194.786 59.17C194.506 59.05 194.213 58.99 193.906 58.99C193.666 58.99 193.436 59.03 193.216 59.11C192.996 59.1833 192.816 59.2967 192.676 59.45C192.536 59.6033 192.466 59.7967 192.466 60.03C192.466 60.25 192.529 60.4267 192.656 60.56C192.789 60.6933 192.963 60.8 193.176 60.88C193.396 60.9533 193.636 61.02 193.896 61.08L194.626 61.24C194.966 61.32 195.286 61.43 195.586 61.57C195.886 61.71 196.129 61.9067 196.316 62.16C196.503 62.4133 196.596 62.7533 196.596 63.18C196.596 63.4867 196.523 63.7633 196.376 64.01C196.229 64.25 196.033 64.4533 195.786 64.62C195.539 64.78 195.259 64.9033 194.946 64.99C194.639 65.0767 194.323 65.12 193.996 65.12ZM199.803 65.12C199.283 65.12 198.843 65.0067 198.483 64.78C198.123 64.5467 197.846 64.2367 197.653 63.85C197.466 63.4567 197.373 63.0167 197.373 62.53C197.373 62.0033 197.48 61.55 197.693 61.17C197.906 60.7833 198.193 60.4867 198.553 60.28C198.92 60.0667 199.33 59.96 199.783 59.96C200.176 59.96 200.523 60.04 200.823 60.2C201.123 60.3533 201.37 60.5633 201.563 60.83C201.763 61.09 201.906 61.3867 201.993 61.72C202.086 62.0533 202.12 62.3967 202.093 62.75H198.273C198.286 63.1633 198.376 63.49 198.543 63.73C198.716 63.97 198.92 64.14 199.153 64.24C199.386 64.3333 199.603 64.38 199.803 64.38C200.083 64.38 200.316 64.3367 200.503 64.25C200.696 64.1567 200.85 64.0367 200.963 63.89L201.773 64.13C201.593 64.4167 201.336 64.6533 201.003 64.84C200.67 65.0267 200.27 65.12 199.803 65.12ZM198.283 62.08H201.203C201.203 61.8467 201.143 61.6233 201.023 61.41C200.91 61.1967 200.746 61.0233 200.533 60.89C200.326 60.75 200.076 60.68 199.783 60.68C199.536 60.68 199.303 60.7267 199.083 60.82C198.863 60.9133 198.68 61.0633 198.533 61.27C198.393 61.4767 198.31 61.7467 198.283 62.08ZM204.254 65C203.94 65 203.697 64.97 203.524 64.91C203.357 64.8433 203.24 64.72 203.174 64.54C203.114 64.36 203.084 64.1 203.084 63.76V58.33H203.924V63.62C203.924 63.8733 203.95 64.0433 204.004 64.13C204.057 64.2167 204.2 64.26 204.434 64.26H204.624V65H204.254ZM207.586 65.12C207.066 65.12 206.626 65.0067 206.266 64.78C205.906 64.5467 205.63 64.2367 205.436 63.85C205.25 63.4567 205.156 63.0167 205.156 62.53C205.156 62.0033 205.263 61.55 205.476 61.17C205.69 60.7833 205.976 60.4867 206.336 60.28C206.703 60.0667 207.113 59.96 207.566 59.96C207.96 59.96 208.306 60.04 208.606 60.2C208.906 60.3533 209.153 60.5633 209.346 60.83C209.546 61.09 209.69 61.3867 209.776 61.72C209.87 62.0533 209.903 62.3967 209.876 62.75H206.056C206.07 63.1633 206.16 63.49 206.326 63.73C206.5 63.97 206.703 64.14 206.936 64.24C207.17 64.3333 207.386 64.38 207.586 64.38C207.866 64.38 208.1 64.3367 208.286 64.25C208.48 64.1567 208.633 64.0367 208.746 63.89L209.556 64.13C209.376 64.4167 209.12 64.6533 208.786 64.84C208.453 65.0267 208.053 65.12 207.586 65.12ZM206.066 62.08H208.986C208.986 61.8467 208.926 61.6233 208.806 61.41C208.693 61.1967 208.53 61.0233 208.316 60.89C208.11 60.75 207.86 60.68 207.566 60.68C207.32 60.68 207.086 60.7267 206.866 60.82C206.646 60.9133 206.463 61.0633 206.316 61.27C206.176 61.4767 206.093 61.7467 206.066 62.08ZM212.857 65.12C212.384 65.12 211.974 65.01 211.627 64.79C211.28 64.5633 211.014 64.2567 210.827 63.87C210.64 63.4833 210.547 63.04 210.547 62.54C210.547 62.0467 210.644 61.6067 210.837 61.22C211.037 60.8267 211.317 60.52 211.677 60.3C212.037 60.0733 212.46 59.96 212.947 59.96C213.394 59.96 213.777 60.07 214.097 60.29C214.417 60.51 214.657 60.7733 214.817 61.08L214.047 61.36C213.94 61.16 213.784 61 213.577 60.88C213.37 60.76 213.14 60.7 212.887 60.7C212.64 60.7 212.407 60.7667 212.187 60.9C211.967 61.0267 211.79 61.2267 211.657 61.5C211.524 61.7667 211.457 62.11 211.457 62.53C211.457 62.9433 211.524 63.29 211.657 63.57C211.797 63.8433 211.974 64.0467 212.187 64.18C212.407 64.3133 212.64 64.38 212.887 64.38C213.16 64.38 213.397 64.32 213.597 64.2C213.804 64.0733 213.96 63.9167 214.067 63.73L214.837 64.01C214.65 64.33 214.384 64.5967 214.037 64.81C213.69 65.0167 213.297 65.12 212.857 65.12ZM217.377 65C217.064 65 216.82 64.97 216.647 64.91C216.48 64.8433 216.364 64.72 216.297 64.54C216.237 64.36 216.207 64.1 216.207 63.76V60.71H215.367V60.04H216.207V58.79H217.047V60.04H218.007V60.71H217.047V63.62C217.047 63.8733 217.07 64.0433 217.117 64.13C217.17 64.2167 217.317 64.26 217.557 64.26H218.007V65H217.377ZM223.422 65C223.109 65 222.865 64.97 222.692 64.91C222.525 64.8433 222.409 64.72 222.342 64.54C222.282 64.36 222.252 64.1 222.252 63.76V60.71H221.412V60.04H222.252V58.79H223.092V60.04H224.052V60.71H223.092V63.62C223.092 63.8733 223.115 64.0433 223.162 64.13C223.215 64.2167 223.362 64.26 223.602 64.26H224.052V65H223.422ZM225.884 65L224.454 60.04H225.354L226.304 63.71L227.294 60.04H228.164L229.144 63.71L230.094 60.04H230.994L229.574 65H228.804L227.724 61.01L226.644 65H225.884ZM233.757 65.12C233.47 65.12 233.187 65.07 232.907 64.97C232.627 64.87 232.37 64.7167 232.137 64.51C231.91 64.2967 231.727 64.0267 231.587 63.7C231.447 63.3733 231.377 62.9867 231.377 62.54C231.377 62.0933 231.447 61.7067 231.587 61.38C231.727 61.0533 231.91 60.7867 232.137 60.58C232.37 60.3667 232.627 60.21 232.907 60.11C233.187 60.01 233.47 59.96 233.757 59.96C234.044 59.96 234.327 60.01 234.607 60.11C234.894 60.21 235.15 60.3667 235.377 60.58C235.61 60.7867 235.794 61.0533 235.927 61.38C236.067 61.7067 236.137 62.0933 236.137 62.54C236.137 62.9867 236.067 63.3733 235.927 63.7C235.794 64.0267 235.61 64.2967 235.377 64.51C235.15 64.7167 234.894 64.87 234.607 64.97C234.327 65.07 234.044 65.12 233.757 65.12ZM233.757 64.38C233.997 64.38 234.23 64.3167 234.457 64.19C234.684 64.0567 234.87 63.8567 235.017 63.59C235.164 63.3167 235.237 62.9667 235.237 62.54C235.237 62.1133 235.164 61.7667 235.017 61.5C234.87 61.2267 234.684 61.0267 234.457 60.9C234.23 60.7667 233.997 60.7 233.757 60.7C233.524 60.7 233.29 60.7667 233.057 60.9C232.83 61.0267 232.644 61.2267 232.497 61.5C232.35 61.7667 232.277 62.1133 232.277 62.54C232.277 62.9667 232.35 63.3167 232.497 63.59C232.644 63.8567 232.83 64.0567 233.057 64.19C233.29 64.3167 233.524 64.38 233.757 64.38ZM242.467 65.12C242.081 65.12 241.754 65.0433 241.487 64.89C241.221 64.73 241.011 64.5167 240.857 64.25L240.637 65H240.017V58.32H240.857V60.82C241.011 60.56 241.221 60.3533 241.487 60.2C241.754 60.04 242.081 59.96 242.467 59.96C242.847 59.96 243.197 60.0633 243.517 60.27C243.844 60.47 244.104 60.7633 244.297 61.15C244.497 61.53 244.597 61.9933 244.597 62.54C244.597 63.0867 244.497 63.5533 244.297 63.94C244.104 64.32 243.844 64.6133 243.517 64.82C243.197 65.02 242.847 65.12 242.467 65.12ZM242.247 64.4C242.674 64.4 243.014 64.2367 243.267 63.91C243.527 63.5833 243.657 63.1267 243.657 62.54C243.657 61.9467 243.527 61.49 243.267 61.17C243.014 60.8433 242.674 60.68 242.247 60.68C241.821 60.68 241.477 60.8433 241.217 61.17C240.964 61.49 240.837 61.9467 240.837 62.54C240.837 63.1267 240.964 63.5833 241.217 63.91C241.477 64.2367 241.821 64.4 242.247 64.4ZM247.251 65.12C246.865 65.12 246.555 65.04 246.321 64.88C246.088 64.7133 245.918 64.4867 245.811 64.2C245.711 63.9067 245.661 63.5733 245.661 63.2V60.03H246.501V63C246.501 63.3667 246.545 63.65 246.631 63.85C246.718 64.05 246.838 64.19 246.991 64.27C247.151 64.3433 247.335 64.38 247.541 64.38C247.935 64.38 248.241 64.2433 248.461 63.97C248.688 63.69 248.801 63.2867 248.801 62.76V60.03H249.641V65H249.011L248.801 64.28C248.661 64.52 248.471 64.72 248.231 64.88C247.991 65.04 247.665 65.12 247.251 65.12ZM253.493 65.12C253.106 65.12 252.779 65.0433 252.513 64.89C252.246 64.73 252.036 64.5167 251.883 64.25L251.663 65H251.043V58.32H251.883V60.82C252.036 60.56 252.246 60.3533 252.513 60.2C252.779 60.04 253.106 59.96 253.493 59.96C253.873 59.96 254.223 60.0633 254.543 60.27C254.869 60.47 255.129 60.7633 255.323 61.15C255.523 61.53 255.623 61.9933 255.623 62.54C255.623 63.0867 255.523 63.5533 255.323 63.94C255.129 64.32 254.869 64.6133 254.543 64.82C254.223 65.02 253.873 65.12 253.493 65.12ZM253.273 64.4C253.699 64.4 254.039 64.2367 254.293 63.91C254.553 63.5833 254.683 63.1267 254.683 62.54C254.683 61.9467 254.553 61.49 254.293 61.17C254.039 60.8433 253.699 60.68 253.273 60.68C252.846 60.68 252.503 60.8433 252.243 61.17C251.989 61.49 251.863 61.9467 251.863 62.54C251.863 63.1267 251.989 63.5833 252.243 63.91C252.503 64.2367 252.846 64.4 253.273 64.4ZM259.157 65.12C258.77 65.12 258.444 65.0433 258.177 64.89C257.91 64.73 257.7 64.5167 257.547 64.25L257.327 65H256.707V58.32H257.547V60.82C257.7 60.56 257.91 60.3533 258.177 60.2C258.444 60.04 258.77 59.96 259.157 59.96C259.537 59.96 259.887 60.0633 260.207 60.27C260.534 60.47 260.794 60.7633 260.987 61.15C261.187 61.53 261.287 61.9933 261.287 62.54C261.287 63.0867 261.187 63.5533 260.987 63.94C260.794 64.32 260.534 64.6133 260.207 64.82C259.887 65.02 259.537 65.12 259.157 65.12ZM258.937 64.4C259.364 64.4 259.704 64.2367 259.957 63.91C260.217 63.5833 260.347 63.1267 260.347 62.54C260.347 61.9467 260.217 61.49 259.957 61.17C259.704 60.8433 259.364 60.68 258.937 60.68C258.51 60.68 258.167 60.8433 257.907 61.17C257.654 61.49 257.527 61.9467 257.527 62.54C257.527 63.1267 257.654 63.5833 257.907 63.91C258.167 64.2367 258.51 64.4 258.937 64.4ZM263.541 65C263.228 65 262.984 64.97 262.811 64.91C262.644 64.8433 262.528 64.72 262.461 64.54C262.401 64.36 262.371 64.1 262.371 63.76V58.33H263.211V63.62C263.211 63.8733 263.238 64.0433 263.291 64.13C263.344 64.2167 263.488 64.26 263.721 64.26H263.911V65H263.541ZM266.873 65.12C266.353 65.12 265.913 65.0067 265.553 64.78C265.193 64.5467 264.917 64.2367 264.723 63.85C264.537 63.4567 264.443 63.0167 264.443 62.53C264.443 62.0033 264.55 61.55 264.763 61.17C264.977 60.7833 265.263 60.4867 265.623 60.28C265.99 60.0667 266.4 59.96 266.853 59.96C267.247 59.96 267.593 60.04 267.893 60.2C268.193 60.3533 268.44 60.5633 268.633 60.83C268.833 61.09 268.977 61.3867 269.063 61.72C269.157 62.0533 269.19 62.3967 269.163 62.75H265.343C265.357 63.1633 265.447 63.49 265.613 63.73C265.787 63.97 265.99 64.14 266.223 64.24C266.457 64.3333 266.673 64.38 266.873 64.38C267.153 64.38 267.387 64.3367 267.573 64.25C267.767 64.1567 267.92 64.0367 268.033 63.89L268.843 64.13C268.663 64.4167 268.407 64.6533 268.073 64.84C267.74 65.0267 267.34 65.12 266.873 65.12ZM265.353 62.08H268.273C268.273 61.8467 268.213 61.6233 268.093 61.41C267.98 61.1967 267.817 61.0233 267.603 60.89C267.397 60.75 267.147 60.68 266.853 60.68C266.607 60.68 266.373 60.7267 266.153 60.82C265.933 60.9133 265.75 61.0633 265.603 61.27C265.463 61.4767 265.38 61.7467 265.353 62.08ZM271.844 65.12C271.557 65.12 271.274 65.0767 270.994 64.99C270.721 64.8967 270.474 64.76 270.254 64.58C270.041 64.3933 269.877 64.16 269.764 63.88L270.574 63.58C270.647 63.8733 270.807 64.0867 271.054 64.22C271.307 64.3467 271.571 64.41 271.844 64.41C272.044 64.41 272.231 64.38 272.404 64.32C272.584 64.26 272.731 64.1733 272.844 64.06C272.957 63.9467 273.014 63.8167 273.014 63.67C273.014 63.3967 272.904 63.2033 272.684 63.09C272.471 62.9767 272.214 62.89 271.914 62.83L271.224 62.69C270.984 62.6367 270.761 62.5633 270.554 62.47C270.347 62.37 270.181 62.23 270.054 62.05C269.927 61.87 269.864 61.63 269.864 61.33C269.864 61.03 269.957 60.78 270.144 60.58C270.331 60.3733 270.567 60.2167 270.854 60.11C271.147 60.0033 271.454 59.95 271.774 59.95C272.167 59.95 272.537 60.0333 272.884 60.2C273.237 60.36 273.487 60.6133 273.634 60.96L272.844 61.25C272.757 61.05 272.604 60.9033 272.384 60.81C272.171 60.71 271.947 60.66 271.714 60.66C271.461 60.66 271.231 60.7167 271.024 60.83C270.817 60.9433 270.714 61.1067 270.714 61.32C270.714 61.5333 270.801 61.69 270.974 61.79C271.154 61.8833 271.374 61.9567 271.634 62.01L272.284 62.14C272.551 62.1933 272.804 62.27 273.044 62.37C273.284 62.47 273.481 62.62 273.634 62.82C273.787 63.0133 273.864 63.2867 273.864 63.64C273.864 63.9533 273.767 64.22 273.574 64.44C273.381 64.66 273.131 64.83 272.824 64.95C272.517 65.0633 272.191 65.12 271.844 65.12ZM201.361 77C201.048 77 200.805 76.97 200.631 76.91C200.465 76.8433 200.348 76.72 200.281 76.54C200.221 76.36 200.191 76.1 200.191 75.76V72.71H199.351V72.04H200.191V70.79H201.031V72.04H201.991V72.71H201.031V75.62C201.031 75.8733 201.055 76.0433 201.101 76.13C201.155 76.2167 201.301 76.26 201.541 76.26H201.991V77H201.361ZM205.154 77.12C204.867 77.12 204.584 77.07 204.304 76.97C204.024 76.87 203.767 76.7167 203.534 76.51C203.307 76.2967 203.124 76.0267 202.984 75.7C202.844 75.3733 202.774 74.9867 202.774 74.54C202.774 74.0933 202.844 73.7067 202.984 73.38C203.124 73.0533 203.307 72.7867 203.534 72.58C203.767 72.3667 204.024 72.21 204.304 72.11C204.584 72.01 204.867 71.96 205.154 71.96C205.44 71.96 205.724 72.01 206.004 72.11C206.29 72.21 206.547 72.3667 206.774 72.58C207.007 72.7867 207.19 73.0533 207.324 73.38C207.464 73.7067 207.534 74.0933 207.534 74.54C207.534 74.9867 207.464 75.3733 207.324 75.7C207.19 76.0267 207.007 76.2967 206.774 76.51C206.547 76.7167 206.29 76.87 206.004 76.97C205.724 77.07 205.44 77.12 205.154 77.12ZM205.154 76.38C205.394 76.38 205.627 76.3167 205.854 76.19C206.08 76.0567 206.267 75.8567 206.414 75.59C206.56 75.3167 206.634 74.9667 206.634 74.54C206.634 74.1133 206.56 73.7667 206.414 73.5C206.267 73.2267 206.08 73.0267 205.854 72.9C205.627 72.7667 205.394 72.7 205.154 72.7C204.92 72.7 204.687 72.7667 204.454 72.9C204.227 73.0267 204.04 73.2267 203.894 73.5C203.747 73.7667 203.674 74.1133 203.674 74.54C203.674 74.9667 203.747 75.3167 203.894 75.59C204.04 75.8567 204.227 76.0567 204.454 76.19C204.687 76.3167 204.92 76.38 205.154 76.38ZM213.524 77.12C213.004 77.12 212.564 77.0067 212.204 76.78C211.844 76.5467 211.567 76.2367 211.374 75.85C211.187 75.4567 211.094 75.0167 211.094 74.53C211.094 74.0033 211.201 73.55 211.414 73.17C211.627 72.7833 211.914 72.4867 212.274 72.28C212.641 72.0667 213.051 71.96 213.504 71.96C213.897 71.96 214.244 72.04 214.544 72.2C214.844 72.3533 215.091 72.5633 215.284 72.83C215.484 73.09 215.627 73.3867 215.714 73.72C215.807 74.0533 215.841 74.3967 215.814 74.75H211.994C212.007 75.1633 212.097 75.49 212.264 75.73C212.437 75.97 212.641 76.14 212.874 76.24C213.107 76.3333 213.324 76.38 213.524 76.38C213.804 76.38 214.037 76.3367 214.224 76.25C214.417 76.1567 214.571 76.0367 214.684 75.89L215.494 76.13C215.314 76.4167 215.057 76.6533 214.724 76.84C214.391 77.0267 213.991 77.12 213.524 77.12ZM212.004 74.08H214.924C214.924 73.8467 214.864 73.6233 214.744 73.41C214.631 73.1967 214.467 73.0233 214.254 72.89C214.047 72.75 213.797 72.68 213.504 72.68C213.257 72.68 213.024 72.7267 212.804 72.82C212.584 72.9133 212.401 73.0633 212.254 73.27C212.114 73.4767 212.031 73.7467 212.004 74.08ZM216.104 77L217.914 74.45L216.194 72.04H217.184L218.404 73.76L219.634 72.04H220.624L218.904 74.45L220.714 77H219.724L218.404 75.15L217.094 77H216.104ZM221.414 78.61V72.04H222.024L222.254 72.82C222.407 72.56 222.617 72.3533 222.884 72.2C223.151 72.04 223.477 71.96 223.864 71.96C224.244 71.96 224.594 72.0633 224.914 72.27C225.241 72.47 225.501 72.7633 225.694 73.15C225.894 73.53 225.994 73.9933 225.994 74.54C225.994 75.08 225.894 75.5433 225.694 75.93C225.501 76.3167 225.241 76.6133 224.914 76.82C224.594 77.02 224.244 77.12 223.864 77.12C223.477 77.12 223.151 77.0433 222.884 76.89C222.617 76.73 222.407 76.5167 222.254 76.25V78.61H221.414ZM223.644 76.4C224.071 76.4 224.411 76.2367 224.664 75.91C224.924 75.5833 225.054 75.1267 225.054 74.54C225.054 73.9467 224.924 73.49 224.664 73.17C224.411 72.8433 224.071 72.68 223.644 72.68C223.217 72.68 222.874 72.8433 222.614 73.17C222.361 73.49 222.234 73.9467 222.234 74.54C222.234 75.1267 222.361 75.5833 222.614 75.91C222.874 76.2367 223.217 76.4 223.644 76.4ZM228.248 77C227.935 77 227.691 76.97 227.518 76.91C227.351 76.8433 227.235 76.72 227.168 76.54C227.108 76.36 227.078 76.1 227.078 75.76V70.33H227.918V75.62C227.918 75.8733 227.945 76.0433 227.998 76.13C228.051 76.2167 228.195 76.26 228.428 76.26H228.618V77H228.248ZM231.531 77.12C231.244 77.12 230.961 77.07 230.681 76.97C230.401 76.87 230.144 76.7167 229.911 76.51C229.684 76.2967 229.501 76.0267 229.361 75.7C229.221 75.3733 229.151 74.9867 229.151 74.54C229.151 74.0933 229.221 73.7067 229.361 73.38C229.501 73.0533 229.684 72.7867 229.911 72.58C230.144 72.3667 230.401 72.21 230.681 72.11C230.961 72.01 231.244 71.96 231.531 71.96C231.817 71.96 232.101 72.01 232.381 72.11C232.667 72.21 232.924 72.3667 233.151 72.58C233.384 72.7867 233.567 73.0533 233.701 73.38C233.841 73.7067 233.911 74.0933 233.911 74.54C233.911 74.9867 233.841 75.3733 233.701 75.7C233.567 76.0267 233.384 76.2967 233.151 76.51C232.924 76.7167 232.667 76.87 232.381 76.97C232.101 77.07 231.817 77.12 231.531 77.12ZM231.531 76.38C231.771 76.38 232.004 76.3167 232.231 76.19C232.457 76.0567 232.644 75.8567 232.791 75.59C232.937 75.3167 233.011 74.9667 233.011 74.54C233.011 74.1133 232.937 73.7667 232.791 73.5C232.644 73.2267 232.457 73.0267 232.231 72.9C232.004 72.7667 231.771 72.7 231.531 72.7C231.297 72.7 231.064 72.7667 230.831 72.9C230.604 73.0267 230.417 73.2267 230.271 73.5C230.124 73.7667 230.051 74.1133 230.051 74.54C230.051 74.9667 230.124 75.3167 230.271 75.59C230.417 75.8567 230.604 76.0567 230.831 76.19C231.064 76.3167 231.297 76.38 231.531 76.38ZM234.988 77V72.04H235.598L235.868 72.96C236.041 72.66 236.275 72.42 236.568 72.24C236.868 72.0533 237.225 71.96 237.638 71.96V72.83C237.591 72.83 237.541 72.83 237.488 72.83C237.441 72.83 237.395 72.8333 237.348 72.84C236.781 72.8867 236.385 73.0833 236.158 73.43C235.938 73.7767 235.828 74.2567 235.828 74.87V77H234.988ZM240.497 77.12C239.977 77.12 239.537 77.0067 239.177 76.78C238.817 76.5467 238.54 76.2367 238.347 75.85C238.16 75.4567 238.067 75.0167 238.067 74.53C238.067 74.0033 238.173 73.55 238.387 73.17C238.6 72.7833 238.887 72.4867 239.247 72.28C239.613 72.0667 240.023 71.96 240.477 71.96C240.87 71.96 241.217 72.04 241.517 72.2C241.817 72.3533 242.063 72.5633 242.257 72.83C242.457 73.09 242.6 73.3867 242.687 73.72C242.78 74.0533 242.813 74.3967 242.787 74.75H238.967C238.98 75.1633 239.07 75.49 239.237 75.73C239.41 75.97 239.613 76.14 239.847 76.24C240.08 76.3333 240.297 76.38 240.497 76.38C240.777 76.38 241.01 76.3367 241.197 76.25C241.39 76.1567 241.543 76.0367 241.657 75.89L242.467 76.13C242.287 76.4167 242.03 76.6533 241.697 76.84C241.363 77.0267 240.963 77.12 240.497 77.12ZM238.977 74.08H241.897C241.897 73.8467 241.837 73.6233 241.717 73.41C241.603 73.1967 241.44 73.0233 241.227 72.89C241.02 72.75 240.77 72.68 240.477 72.68C240.23 72.68 239.997 72.7267 239.777 72.82C239.557 72.9133 239.373 73.0633 239.227 73.27C239.087 73.4767 239.003 73.7467 238.977 74.08ZM248.09 77C247.777 77 247.533 76.97 247.36 76.91C247.193 76.8433 247.077 76.72 247.01 76.54C246.95 76.36 246.92 76.1 246.92 75.76V72.71H246.08V72.04H246.92V70.79H247.76V72.04H248.72V72.71H247.76V75.62C247.76 75.8733 247.783 76.0433 247.83 76.13C247.883 76.2167 248.03 76.26 248.27 76.26H248.72V77H248.09ZM249.822 77V70.32H250.662V72.79C250.802 72.5567 250.999 72.36 251.252 72.2C251.505 72.04 251.842 71.96 252.262 71.96C252.862 71.96 253.285 72.1367 253.532 72.49C253.779 72.8367 253.902 73.2933 253.902 73.86V77H253.062V74.11C253.062 73.8567 253.039 73.6233 252.992 73.41C252.945 73.19 252.842 73.0133 252.682 72.88C252.529 72.7467 252.292 72.68 251.972 72.68C251.565 72.68 251.245 72.82 251.012 73.1C250.779 73.3733 250.662 73.7767 250.662 74.31V77H249.822ZM257.284 77.12C256.764 77.12 256.324 77.0067 255.964 76.78C255.604 76.5467 255.327 76.2367 255.134 75.85C254.947 75.4567 254.854 75.0167 254.854 74.53C254.854 74.0033 254.96 73.55 255.174 73.17C255.387 72.7833 255.674 72.4867 256.034 72.28C256.4 72.0667 256.81 71.96 257.264 71.96C257.657 71.96 258.004 72.04 258.304 72.2C258.604 72.3533 258.85 72.5633 259.044 72.83C259.244 73.09 259.387 73.3867 259.474 73.72C259.567 74.0533 259.6 74.3967 259.574 74.75H255.754C255.767 75.1633 255.857 75.49 256.024 75.73C256.197 75.97 256.4 76.14 256.634 76.24C256.867 76.3333 257.084 76.38 257.284 76.38C257.564 76.38 257.797 76.3367 257.984 76.25C258.177 76.1567 258.33 76.0367 258.444 75.89L259.254 76.13C259.074 76.4167 258.817 76.6533 258.484 76.84C258.15 77.0267 257.75 77.12 257.284 77.12ZM255.764 74.08H258.684C258.684 73.8467 258.624 73.6233 258.504 73.41C258.39 73.1967 258.227 73.0233 258.014 72.89C257.807 72.75 257.557 72.68 257.264 72.68C257.017 72.68 256.784 72.7267 256.564 72.82C256.344 72.9133 256.16 73.0633 256.014 73.27C255.874 73.4767 255.79 73.7467 255.764 74.08ZM261.424 71.1C261.258 71.1 261.111 71.04 260.984 70.92C260.864 70.7933 260.804 70.6433 260.804 70.47C260.804 70.2967 260.864 70.15 260.984 70.03C261.111 69.91 261.258 69.85 261.424 69.85C261.598 69.85 261.744 69.91 261.864 70.03C261.991 70.15 262.054 70.2967 262.054 70.47C262.054 70.6433 261.991 70.7933 261.864 70.92C261.744 71.04 261.598 71.1 261.424 71.1ZM261.004 77V72.71H260.314V72.04H261.844V77H261.004ZM263.347 77V72.04H263.957L264.227 72.96C264.401 72.66 264.634 72.42 264.927 72.24C265.227 72.0533 265.584 71.96 265.997 71.96V72.83C265.951 72.83 265.901 72.83 265.847 72.83C265.801 72.83 265.754 72.8333 265.707 72.84C265.141 72.8867 264.744 73.0833 264.517 73.43C264.297 73.7767 264.187 74.2567 264.187 74.87V77H263.347ZM202.865 89.12C202.578 89.12 202.295 89.0767 202.015 88.99C201.741 88.8967 201.495 88.76 201.275 88.58C201.061 88.3933 200.898 88.16 200.785 87.88L201.595 87.58C201.668 87.8733 201.828 88.0867 202.075 88.22C202.328 88.3467 202.591 88.41 202.865 88.41C203.065 88.41 203.251 88.38 203.425 88.32C203.605 88.26 203.751 88.1733 203.865 88.06C203.978 87.9467 204.035 87.8167 204.035 87.67C204.035 87.3967 203.925 87.2033 203.705 87.09C203.491 86.9767 203.235 86.89 202.935 86.83L202.245 86.69C202.005 86.6367 201.781 86.5633 201.575 86.47C201.368 86.37 201.201 86.23 201.075 86.05C200.948 85.87 200.885 85.63 200.885 85.33C200.885 85.03 200.978 84.78 201.165 84.58C201.351 84.3733 201.588 84.2167 201.875 84.11C202.168 84.0033 202.475 83.95 202.795 83.95C203.188 83.95 203.558 84.0333 203.905 84.2C204.258 84.36 204.508 84.6133 204.655 84.96L203.865 85.25C203.778 85.05 203.625 84.9033 203.405 84.81C203.191 84.71 202.968 84.66 202.735 84.66C202.481 84.66 202.251 84.7167 202.045 84.83C201.838 84.9433 201.735 85.1067 201.735 85.32C201.735 85.5333 201.821 85.69 201.995 85.79C202.175 85.8833 202.395 85.9567 202.655 86.01L203.305 86.14C203.571 86.1933 203.825 86.27 204.065 86.37C204.305 86.47 204.501 86.62 204.655 86.82C204.808 87.0133 204.885 87.2867 204.885 87.64C204.885 87.9533 204.788 88.22 204.595 88.44C204.401 88.66 204.151 88.83 203.845 88.95C203.538 89.0633 203.211 89.12 202.865 89.12ZM205.882 89V82.32H206.722V84.79C206.862 84.5567 207.058 84.36 207.312 84.2C207.565 84.04 207.902 83.96 208.322 83.96C208.922 83.96 209.345 84.1367 209.592 84.49C209.838 84.8367 209.962 85.2933 209.962 85.86V89H209.122V86.11C209.122 85.8567 209.098 85.6233 209.052 85.41C209.005 85.19 208.902 85.0133 208.742 84.88C208.588 84.7467 208.352 84.68 208.032 84.68C207.625 84.68 207.305 84.82 207.072 85.1C206.838 85.3733 206.722 85.7767 206.722 86.31V89H205.882ZM212.731 89.12C212.417 89.12 212.131 89.0633 211.871 88.95C211.611 88.8367 211.404 88.6733 211.251 88.46C211.097 88.2467 211.021 87.99 211.021 87.69C211.021 87.2967 211.157 86.9867 211.431 86.76C211.711 86.5333 212.101 86.36 212.601 86.24C213.107 86.1133 213.697 86.0133 214.371 85.94C214.384 85.52 214.301 85.1967 214.121 84.97C213.941 84.7433 213.651 84.63 213.251 84.63C212.951 84.63 212.704 84.7 212.511 84.84C212.324 84.9733 212.204 85.16 212.151 85.4L211.341 85.16C211.474 84.78 211.711 84.4867 212.051 84.28C212.397 84.0667 212.794 83.96 213.241 83.96C213.927 83.96 214.427 84.1233 214.741 84.45C215.061 84.77 215.221 85.2767 215.221 85.97V87.13C215.221 87.5433 215.237 87.9 215.271 88.2C215.304 88.5 215.344 88.7667 215.391 89H214.621L214.421 88.32C214.274 88.5667 214.064 88.7633 213.791 88.91C213.517 89.05 213.164 89.12 212.731 89.12ZM212.911 88.45C213.171 88.45 213.417 88.4033 213.651 88.31C213.884 88.2167 214.074 88.06 214.221 87.84C214.367 87.6133 214.441 87.3067 214.441 86.92V86.61C213.934 86.6633 213.494 86.73 213.121 86.81C212.747 86.8833 212.457 86.99 212.251 87.13C212.051 87.2633 211.951 87.4433 211.951 87.67C211.951 87.9033 212.034 88.0933 212.201 88.24C212.374 88.38 212.611 88.45 212.911 88.45ZM216.604 89V84.04H217.214L217.484 84.96C217.658 84.66 217.891 84.42 218.184 84.24C218.484 84.0533 218.841 83.96 219.254 83.96V84.83C219.208 84.83 219.158 84.83 219.104 84.83C219.058 84.83 219.011 84.8333 218.964 84.84C218.398 84.8867 218.001 85.0833 217.774 85.43C217.554 85.7767 217.444 86.2567 217.444 86.87V89H216.604ZM222.113 89.12C221.593 89.12 221.153 89.0067 220.793 88.78C220.433 88.5467 220.156 88.2367 219.963 87.85C219.776 87.4567 219.683 87.0167 219.683 86.53C219.683 86.0033 219.789 85.55 220.003 85.17C220.216 84.7833 220.503 84.4867 220.863 84.28C221.229 84.0667 221.639 83.96 222.093 83.96C222.486 83.96 222.833 84.04 223.133 84.2C223.433 84.3533 223.679 84.5633 223.873 84.83C224.073 85.09 224.216 85.3867 224.303 85.72C224.396 86.0533 224.429 86.3967 224.403 86.75H220.583C220.596 87.1633 220.686 87.49 220.853 87.73C221.026 87.97 221.229 88.14 221.463 88.24C221.696 88.3333 221.913 88.38 222.113 88.38C222.393 88.38 222.626 88.3367 222.813 88.25C223.006 88.1567 223.159 88.0367 223.273 87.89L224.083 88.13C223.903 88.4167 223.646 88.6533 223.313 88.84C222.979 89.0267 222.579 89.12 222.113 89.12ZM220.593 86.08H223.513C223.513 85.8467 223.453 85.6233 223.333 85.41C223.219 85.1967 223.056 85.0233 222.843 84.89C222.636 84.75 222.386 84.68 222.093 84.68C221.846 84.68 221.613 84.7267 221.393 84.82C221.173 84.9133 220.989 85.0633 220.843 85.27C220.703 85.4767 220.619 85.7467 220.593 86.08ZM227.203 89.12C226.83 89.12 226.48 89.02 226.153 88.82C225.827 88.6133 225.563 88.32 225.363 87.94C225.17 87.5533 225.073 87.0867 225.073 86.54C225.073 85.9933 225.17 85.53 225.363 85.15C225.563 84.7633 225.827 84.47 226.153 84.27C226.48 84.0633 226.83 83.96 227.203 83.96C227.597 83.96 227.927 84.04 228.193 84.2C228.46 84.3533 228.667 84.56 228.813 84.82V82.32H229.653V87.13C229.653 87.2967 229.66 87.5433 229.673 87.87C229.687 88.19 229.737 88.5667 229.823 89H229.033L228.813 88.25C228.667 88.5167 228.46 88.73 228.193 88.89C227.927 89.0433 227.597 89.12 227.203 89.12ZM227.423 88.4C227.85 88.4 228.19 88.2367 228.443 87.91C228.703 87.5833 228.833 87.1267 228.833 86.54C228.833 85.9467 228.703 85.49 228.443 85.17C228.19 84.8433 227.85 84.68 227.423 84.68C226.997 84.68 226.653 84.8433 226.393 85.17C226.14 85.49 226.013 85.9467 226.013 86.54C226.013 87.1267 226.14 87.5833 226.393 87.91C226.653 88.2367 226.997 88.4 227.423 88.4ZM235.231 89.12C234.917 89.12 234.631 89.0633 234.371 88.95C234.111 88.8367 233.904 88.6733 233.751 88.46C233.597 88.2467 233.521 87.99 233.521 87.69C233.521 87.2967 233.657 86.9867 233.931 86.76C234.211 86.5333 234.601 86.36 235.101 86.24C235.607 86.1133 236.197 86.0133 236.871 85.94C236.884 85.52 236.801 85.1967 236.621 84.97C236.441 84.7433 236.151 84.63 235.751 84.63C235.451 84.63 235.204 84.7 235.011 84.84C234.824 84.9733 234.704 85.16 234.651 85.4L233.841 85.16C233.974 84.78 234.211 84.4867 234.551 84.28C234.897 84.0667 235.294 83.96 235.741 83.96C236.427 83.96 236.927 84.1233 237.241 84.45C237.561 84.77 237.721 85.2767 237.721 85.97V87.13C237.721 87.5433 237.737 87.9 237.771 88.2C237.804 88.5 237.844 88.7667 237.891 89H237.121L236.921 88.32C236.774 88.5667 236.564 88.7633 236.291 88.91C236.017 89.05 235.664 89.12 235.231 89.12ZM235.411 88.45C235.671 88.45 235.917 88.4033 236.151 88.31C236.384 88.2167 236.574 88.06 236.721 87.84C236.867 87.6133 236.941 87.3067 236.941 86.92V86.61C236.434 86.6633 235.994 86.73 235.621 86.81C235.247 86.8833 234.957 86.99 234.751 87.13C234.551 87.2633 234.451 87.4433 234.451 87.67C234.451 87.9033 234.534 88.0933 234.701 88.24C234.874 88.38 235.111 88.45 235.411 88.45ZM239.104 89V84.04H239.714L239.984 84.96C240.158 84.66 240.391 84.42 240.684 84.24C240.984 84.0533 241.341 83.96 241.754 83.96V84.83C241.708 84.83 241.658 84.83 241.604 84.83C241.558 84.83 241.511 84.8333 241.464 84.84C240.898 84.8867 240.501 85.0833 240.274 85.43C240.054 85.7767 239.944 86.2567 239.944 86.87V89H239.104ZM244.169 89C243.856 89 243.612 88.97 243.439 88.91C243.272 88.8433 243.156 88.72 243.089 88.54C243.029 88.36 242.999 88.1 242.999 87.76V84.71H242.159V84.04H242.999V82.79H243.839V84.04H244.799V84.71H243.839V87.62C243.839 87.8733 243.862 88.0433 243.909 88.13C243.962 88.2167 244.109 88.26 244.349 88.26H244.799V89H244.169ZM246.761 83.1C246.595 83.1 246.448 83.04 246.321 82.92C246.201 82.7933 246.141 82.6433 246.141 82.47C246.141 82.2967 246.201 82.15 246.321 82.03C246.448 81.91 246.595 81.85 246.761 81.85C246.935 81.85 247.081 81.91 247.201 82.03C247.328 82.15 247.391 82.2967 247.391 82.47C247.391 82.6433 247.328 82.7933 247.201 82.92C247.081 83.04 246.935 83.1 246.761 83.1ZM246.341 89V84.71H245.651V84.04H247.181V89H246.341ZM250.674 89.12C250.201 89.12 249.791 89.01 249.444 88.79C249.098 88.5633 248.831 88.2567 248.644 87.87C248.458 87.4833 248.364 87.04 248.364 86.54C248.364 86.0467 248.461 85.6067 248.654 85.22C248.854 84.8267 249.134 84.52 249.494 84.3C249.854 84.0733 250.278 83.96 250.764 83.96C251.211 83.96 251.594 84.07 251.914 84.29C252.234 84.51 252.474 84.7733 252.634 85.08L251.864 85.36C251.758 85.16 251.601 85 251.394 84.88C251.188 84.76 250.958 84.7 250.704 84.7C250.458 84.7 250.224 84.7667 250.004 84.9C249.784 85.0267 249.608 85.2267 249.474 85.5C249.341 85.7667 249.274 86.11 249.274 86.53C249.274 86.9433 249.341 87.29 249.474 87.57C249.614 87.8433 249.791 88.0467 250.004 88.18C250.224 88.3133 250.458 88.38 250.704 88.38C250.978 88.38 251.214 88.32 251.414 88.2C251.621 88.0733 251.778 87.9167 251.884 87.73L252.654 88.01C252.468 88.33 252.201 88.5967 251.854 88.81C251.508 89.0167 251.114 89.12 250.674 89.12ZM254.854 89C254.541 89 254.298 88.97 254.124 88.91C253.958 88.8433 253.841 88.72 253.774 88.54C253.714 88.36 253.684 88.1 253.684 87.76V82.33H254.524V87.62C254.524 87.8733 254.551 88.0433 254.604 88.13C254.658 88.2167 254.801 88.26 255.034 88.26H255.224V89H254.854ZM258.187 89.12C257.667 89.12 257.227 89.0067 256.867 88.78C256.507 88.5467 256.23 88.2367 256.037 87.85C255.85 87.4567 255.757 87.0167 255.757 86.53C255.757 86.0033 255.864 85.55 256.077 85.17C256.29 84.7833 256.577 84.4867 256.937 84.28C257.304 84.0667 257.714 83.96 258.167 83.96C258.56 83.96 258.907 84.04 259.207 84.2C259.507 84.3533 259.754 84.5633 259.947 84.83C260.147 85.09 260.29 85.3867 260.377 85.72C260.47 86.0533 260.504 86.3967 260.477 86.75H256.657C256.67 87.1633 256.76 87.49 256.927 87.73C257.1 87.97 257.304 88.14 257.537 88.24C257.77 88.3333 257.987 88.38 258.187 88.38C258.467 88.38 258.7 88.3367 258.887 88.25C259.08 88.1567 259.234 88.0367 259.347 87.89L260.157 88.13C259.977 88.4167 259.72 88.6533 259.387 88.84C259.054 89.0267 258.654 89.12 258.187 89.12ZM256.667 86.08H259.587C259.587 85.8467 259.527 85.6233 259.407 85.41C259.294 85.1967 259.13 85.0233 258.917 84.89C258.71 84.75 258.46 84.68 258.167 84.68C257.92 84.68 257.687 84.7267 257.467 84.82C257.247 84.9133 257.064 85.0633 256.917 85.27C256.777 85.4767 256.694 85.7467 256.667 86.08ZM263.158 89.12C262.871 89.12 262.588 89.0767 262.308 88.99C262.034 88.8967 261.788 88.76 261.568 88.58C261.354 88.3933 261.191 88.16 261.078 87.88L261.888 87.58C261.961 87.8733 262.121 88.0867 262.368 88.22C262.621 88.3467 262.884 88.41 263.158 88.41C263.358 88.41 263.544 88.38 263.718 88.32C263.898 88.26 264.044 88.1733 264.158 88.06C264.271 87.9467 264.328 87.8167 264.328 87.67C264.328 87.3967 264.218 87.2033 263.998 87.09C263.784 86.9767 263.528 86.89 263.228 86.83L262.538 86.69C262.298 86.6367 262.074 86.5633 261.868 86.47C261.661 86.37 261.494 86.23 261.368 86.05C261.241 85.87 261.178 85.63 261.178 85.33C261.178 85.03 261.271 84.78 261.458 84.58C261.644 84.3733 261.881 84.2167 262.168 84.11C262.461 84.0033 262.768 83.95 263.088 83.95C263.481 83.95 263.851 84.0333 264.198 84.2C264.551 84.36 264.801 84.6133 264.948 84.96L264.158 85.25C264.071 85.05 263.918 84.9033 263.698 84.81C263.484 84.71 263.261 84.66 263.028 84.66C262.774 84.66 262.544 84.7167 262.338 84.83C262.131 84.9433 262.028 85.1067 262.028 85.32C262.028 85.5333 262.114 85.69 262.288 85.79C262.468 85.8833 262.688 85.9567 262.948 86.01L263.598 86.14C263.864 86.1933 264.118 86.27 264.358 86.37C264.598 86.47 264.794 86.62 264.948 86.82C265.101 87.0133 265.178 87.2867 265.178 87.64C265.178 87.9533 265.081 88.22 264.888 88.44C264.694 88.66 264.444 88.83 264.138 88.95C263.831 89.0633 263.504 89.12 263.158 89.12ZM266.495 89.12C266.321 89.12 266.171 89.0567 266.045 88.93C265.918 88.8033 265.855 88.6533 265.855 88.48C265.855 88.3 265.918 88.1467 266.045 88.02C266.171 87.8933 266.321 87.83 266.495 87.83C266.675 87.83 266.828 87.8933 266.955 88.02C267.081 88.1467 267.145 88.3 267.145 88.48C267.145 88.6533 267.081 88.8033 266.955 88.93C266.828 89.0567 266.675 89.12 266.495 89.12Z" fill="black"/>
<path d="M252 42L232 15" stroke="black" stroke-width="5"/>
<path d="M252 42L199 42" stroke="black" stroke-width="2"/>
<path d="M232 15L205 10" stroke="black"/>
<circle cx="201" cy="42" r="9.5" fill="#FCF4E9" stroke="black"/>
<circle cx="232" cy="15" r="9.5" fill="#FFBC36" stroke="black"/>
<circle cx="206" cy="10" r="9.5" fill="#FCF4E9" stroke="black"/>
<circle cx="252" cy="42" r="9.5" fill="#FFBC36" stroke="black"/>
<circle cx="252" cy="42" r="2" fill="black"/>
<circle cx="252" cy="42" r="5" stroke="black" stroke-linecap="round" stroke-linejoin="round" stroke-dasharray="1 2"/>
<circle cx="232" cy="15" r="2" fill="black"/>
<circle cx="232" cy="15" r="5" stroke="black" stroke-linecap="round" stroke-linejoin="round" stroke-dasharray="1 2"/>
</g>
<defs>
<clipPath id="clip0_6125_41760">
<rect width="280" height="89" fill="white"/>
</clipPath>
</defs>
</svg>
