<svg width="300" height="100" viewBox="0 0 300 100" fill="none" xmlns="http://www.w3.org/2000/svg">
<path d="M100.813 67V61.13H98.5932V60.32H103.973V61.13H101.753V67H100.813ZM104.769 67V60.32H105.609V62.79C105.749 62.5567 105.946 62.36 106.199 62.2C106.453 62.04 106.789 61.96 107.209 61.96C107.809 61.96 108.233 62.1367 108.479 62.49C108.726 62.8367 108.849 63.2933 108.849 63.86V67H108.009V64.11C108.009 63.8567 107.986 63.6233 107.939 63.41C107.893 63.19 107.789 63.0133 107.629 62.88C107.476 62.7467 107.239 62.68 106.919 62.68C106.513 62.68 106.193 62.82 105.959 63.1C105.726 63.3733 105.609 63.7767 105.609 64.31V67H104.769ZM112.231 67.12C111.711 67.12 111.271 67.0067 110.911 66.78C110.551 66.5467 110.274 66.2367 110.081 65.85C109.894 65.4567 109.801 65.0167 109.801 64.53C109.801 64.0033 109.908 63.55 110.121 63.17C110.334 62.7833 110.621 62.4867 110.981 62.28C111.348 62.0667 111.758 61.96 112.211 61.96C112.604 61.96 112.951 62.04 113.251 62.2C113.551 62.3533 113.798 62.5633 113.991 62.83C114.191 63.09 114.334 63.3867 114.421 63.72C114.514 64.0533 114.548 64.3967 114.521 64.75H110.701C110.714 65.1633 110.804 65.49 110.971 65.73C111.144 65.97 111.348 66.14 111.581 66.24C111.814 66.3333 112.031 66.38 112.231 66.38C112.511 66.38 112.744 66.3367 112.931 66.25C113.124 66.1567 113.278 66.0367 113.391 65.89L114.201 66.13C114.021 66.4167 113.764 66.6533 113.431 66.84C113.098 67.0267 112.698 67.12 112.231 67.12ZM110.711 64.08H113.631C113.631 63.8467 113.571 63.6233 113.451 63.41C113.338 63.1967 113.174 63.0233 112.961 62.89C112.754 62.75 112.504 62.68 112.211 62.68C111.964 62.68 111.731 62.7267 111.511 62.82C111.291 62.9133 111.108 63.0633 110.961 63.27C110.821 63.4767 110.738 63.7467 110.711 64.08ZM119.704 67.12C119.391 67.12 119.104 67.0633 118.844 66.95C118.584 66.8367 118.378 66.6733 118.224 66.46C118.071 66.2467 117.994 65.99 117.994 65.69C117.994 65.2967 118.131 64.9867 118.404 64.76C118.684 64.5333 119.074 64.36 119.574 64.24C120.081 64.1133 120.671 64.0133 121.344 63.94C121.358 63.52 121.274 63.1967 121.094 62.97C120.914 62.7433 120.624 62.63 120.224 62.63C119.924 62.63 119.678 62.7 119.484 62.84C119.298 62.9733 119.178 63.16 119.124 63.4L118.314 63.16C118.448 62.78 118.684 62.4867 119.024 62.28C119.371 62.0667 119.768 61.96 120.214 61.96C120.901 61.96 121.401 62.1233 121.714 62.45C122.034 62.77 122.194 63.2767 122.194 63.97V65.13C122.194 65.5433 122.211 65.9 122.244 66.2C122.278 66.5 122.318 66.7667 122.364 67H121.594L121.394 66.32C121.248 66.5667 121.038 66.7633 120.764 66.91C120.491 67.05 120.138 67.12 119.704 67.12ZM119.884 66.45C120.144 66.45 120.391 66.4033 120.624 66.31C120.858 66.2167 121.048 66.06 121.194 65.84C121.341 65.6133 121.414 65.3067 121.414 64.92V64.61C120.908 64.6633 120.468 64.73 120.094 64.81C119.721 64.8833 119.431 64.99 119.224 65.13C119.024 65.2633 118.924 65.4433 118.924 65.67C118.924 65.9033 119.008 66.0933 119.174 66.24C119.348 66.38 119.584 66.45 119.884 66.45ZM123.578 67V62.04H124.198L124.418 62.79C124.558 62.5567 124.748 62.36 124.988 62.2C125.235 62.04 125.541 61.96 125.908 61.96C126.288 61.96 126.595 62.0367 126.828 62.19C127.061 62.3433 127.231 62.5567 127.338 62.83C127.538 62.5233 127.778 62.3033 128.058 62.17C128.345 62.03 128.661 61.96 129.008 61.96C129.581 61.96 129.991 62.1367 130.238 62.49C130.485 62.8367 130.608 63.2933 130.608 63.86V67H129.768V64.11C129.768 63.8567 129.741 63.6233 129.688 63.41C129.641 63.19 129.541 63.0133 129.388 62.88C129.241 62.7467 129.015 62.68 128.708 62.68C128.348 62.68 128.058 62.82 127.838 63.1C127.625 63.3733 127.518 63.7767 127.518 64.31V67H126.678V64.11C126.678 63.8567 126.651 63.6233 126.598 63.41C126.551 63.19 126.451 63.0133 126.298 62.88C126.151 62.7467 125.925 62.68 125.618 62.68C125.258 62.68 124.968 62.82 124.748 63.1C124.528 63.3733 124.418 63.7767 124.418 64.31V67H123.578ZM133.939 67.12C133.652 67.12 133.369 67.07 133.089 66.97C132.809 66.87 132.552 66.7167 132.319 66.51C132.092 66.2967 131.909 66.0267 131.769 65.7C131.629 65.3733 131.559 64.9867 131.559 64.54C131.559 64.0933 131.629 63.7067 131.769 63.38C131.909 63.0533 132.092 62.7867 132.319 62.58C132.552 62.3667 132.809 62.21 133.089 62.11C133.369 62.01 133.652 61.96 133.939 61.96C134.225 61.96 134.509 62.01 134.789 62.11C135.075 62.21 135.332 62.3667 135.559 62.58C135.792 62.7867 135.975 63.0533 136.109 63.38C136.249 63.7067 136.319 64.0933 136.319 64.54C136.319 64.9867 136.249 65.3733 136.109 65.7C135.975 66.0267 135.792 66.2967 135.559 66.51C135.332 66.7167 135.075 66.87 134.789 66.97C134.509 67.07 134.225 67.12 133.939 67.12ZM133.939 66.38C134.179 66.38 134.412 66.3167 134.639 66.19C134.865 66.0567 135.052 65.8567 135.199 65.59C135.345 65.3167 135.419 64.9667 135.419 64.54C135.419 64.1133 135.345 63.7667 135.199 63.5C135.052 63.2267 134.865 63.0267 134.639 62.9C134.412 62.7667 134.179 62.7 133.939 62.7C133.705 62.7 133.472 62.7667 133.239 62.9C133.012 63.0267 132.825 63.2267 132.679 63.5C132.532 63.7667 132.459 64.1133 132.459 64.54C132.459 64.9667 132.532 65.3167 132.679 65.59C132.825 65.8567 133.012 66.0567 133.239 66.19C133.472 66.3167 133.705 66.38 133.939 66.38ZM138.966 67.12C138.58 67.12 138.27 67.04 138.036 66.88C137.803 66.7133 137.633 66.4867 137.526 66.2C137.426 65.9067 137.376 65.5733 137.376 65.2V62.03H138.216V65C138.216 65.3667 138.26 65.65 138.346 65.85C138.433 66.05 138.553 66.19 138.706 66.27C138.866 66.3433 139.05 66.38 139.256 66.38C139.65 66.38 139.956 66.2433 140.176 65.97C140.403 65.69 140.516 65.2867 140.516 64.76V62.03H141.356V67H140.726L140.516 66.28C140.376 66.52 140.186 66.72 139.946 66.88C139.706 67.04 139.38 67.12 138.966 67.12ZM142.758 67V62.04H143.378L143.598 62.79C143.738 62.5567 143.934 62.36 144.188 62.2C144.441 62.04 144.778 61.96 145.198 61.96C145.798 61.96 146.221 62.1367 146.468 62.49C146.714 62.8367 146.838 63.2933 146.838 63.86V67H145.998V64.11C145.998 63.8567 145.974 63.6233 145.928 63.41C145.881 63.19 145.778 63.0133 145.618 62.88C145.464 62.7467 145.228 62.68 144.908 62.68C144.501 62.68 144.181 62.82 143.948 63.1C143.714 63.3733 143.598 63.7767 143.598 64.31V67H142.758ZM149.6 67C149.286 67 149.043 66.97 148.87 66.91C148.703 66.8433 148.586 66.72 148.52 66.54C148.46 66.36 148.43 66.1 148.43 65.76V62.71H147.59V62.04H148.43V60.79H149.27V62.04H150.23V62.71H149.27V65.62C149.27 65.8733 149.293 66.0433 149.34 66.13C149.393 66.2167 149.54 66.26 149.78 66.26H150.23V67H149.6ZM156.195 67.12C155.908 67.12 155.625 67.07 155.345 66.97C155.065 66.87 154.808 66.7167 154.575 66.51C154.348 66.2967 154.165 66.0267 154.025 65.7C153.885 65.3733 153.815 64.9867 153.815 64.54C153.815 64.0933 153.885 63.7067 154.025 63.38C154.165 63.0533 154.348 62.7867 154.575 62.58C154.808 62.3667 155.065 62.21 155.345 62.11C155.625 62.01 155.908 61.96 156.195 61.96C156.481 61.96 156.765 62.01 157.045 62.11C157.331 62.21 157.588 62.3667 157.815 62.58C158.048 62.7867 158.231 63.0533 158.365 63.38C158.505 63.7067 158.575 64.0933 158.575 64.54C158.575 64.9867 158.505 65.3733 158.365 65.7C158.231 66.0267 158.048 66.2967 157.815 66.51C157.588 66.7167 157.331 66.87 157.045 66.97C156.765 67.07 156.481 67.12 156.195 67.12ZM156.195 66.38C156.435 66.38 156.668 66.3167 156.895 66.19C157.121 66.0567 157.308 65.8567 157.455 65.59C157.601 65.3167 157.675 64.9667 157.675 64.54C157.675 64.1133 157.601 63.7667 157.455 63.5C157.308 63.2267 157.121 63.0267 156.895 62.9C156.668 62.7667 156.435 62.7 156.195 62.7C155.961 62.7 155.728 62.7667 155.495 62.9C155.268 63.0267 155.081 63.2267 154.935 63.5C154.788 63.7667 154.715 64.1133 154.715 64.54C154.715 64.9667 154.788 65.3167 154.935 65.59C155.081 65.8567 155.268 66.0567 155.495 66.19C155.728 66.3167 155.961 66.38 156.195 66.38ZM159.942 67V62.71H159.102V62.04H159.942V61.3C159.942 60.96 159.975 60.69 160.042 60.49C160.109 60.29 160.239 60.15 160.432 60.07C160.625 59.9833 160.905 59.94 161.272 59.94H161.812V60.65H161.292C161.079 60.65 160.939 60.6933 160.872 60.78C160.812 60.8667 160.782 61.0367 160.782 61.29V62.04H161.812V62.71H160.782V67H159.942ZM168.01 67.12C167.624 67.12 167.297 67.0433 167.03 66.89C166.764 66.73 166.554 66.5167 166.4 66.25L166.18 67H165.56V60.32H166.4V62.82C166.554 62.56 166.764 62.3533 167.03 62.2C167.297 62.04 167.624 61.96 168.01 61.96C168.39 61.96 168.74 62.0633 169.06 62.27C169.387 62.47 169.647 62.7633 169.84 63.15C170.04 63.53 170.14 63.9933 170.14 64.54C170.14 65.0867 170.04 65.5533 169.84 65.94C169.647 66.32 169.387 66.6133 169.06 66.82C168.74 67.02 168.39 67.12 168.01 67.12ZM167.79 66.4C168.217 66.4 168.557 66.2367 168.81 65.91C169.07 65.5833 169.2 65.1267 169.2 64.54C169.2 63.9467 169.07 63.49 168.81 63.17C168.557 62.8433 168.217 62.68 167.79 62.68C167.364 62.68 167.02 62.8433 166.76 63.17C166.507 63.49 166.38 63.9467 166.38 64.54C166.38 65.1267 166.507 65.5833 166.76 65.91C167.02 66.2367 167.364 66.4 167.79 66.4ZM172.794 67.12C172.408 67.12 172.098 67.04 171.864 66.88C171.631 66.7133 171.461 66.4867 171.354 66.2C171.254 65.9067 171.204 65.5733 171.204 65.2V62.03H172.044V65C172.044 65.3667 172.088 65.65 172.174 65.85C172.261 66.05 172.381 66.19 172.534 66.27C172.694 66.3433 172.878 66.38 173.084 66.38C173.478 66.38 173.784 66.2433 174.004 65.97C174.231 65.69 174.344 65.2867 174.344 64.76V62.03H175.184V67H174.554L174.344 66.28C174.204 66.52 174.014 66.72 173.774 66.88C173.534 67.04 173.208 67.12 172.794 67.12ZM179.036 67.12C178.649 67.12 178.322 67.0433 178.056 66.89C177.789 66.73 177.579 66.5167 177.426 66.25L177.206 67H176.586V60.32H177.426V62.82C177.579 62.56 177.789 62.3533 178.056 62.2C178.322 62.04 178.649 61.96 179.036 61.96C179.416 61.96 179.766 62.0633 180.086 62.27C180.412 62.47 180.672 62.7633 180.866 63.15C181.066 63.53 181.166 63.9933 181.166 64.54C181.166 65.0867 181.066 65.5533 180.866 65.94C180.672 66.32 180.412 66.6133 180.086 66.82C179.766 67.02 179.416 67.12 179.036 67.12ZM178.816 66.4C179.242 66.4 179.582 66.2367 179.836 65.91C180.096 65.5833 180.226 65.1267 180.226 64.54C180.226 63.9467 180.096 63.49 179.836 63.17C179.582 62.8433 179.242 62.68 178.816 62.68C178.389 62.68 178.046 62.8433 177.786 63.17C177.532 63.49 177.406 63.9467 177.406 64.54C177.406 65.1267 177.532 65.5833 177.786 65.91C178.046 66.2367 178.389 66.4 178.816 66.4ZM184.7 67.12C184.313 67.12 183.986 67.0433 183.72 66.89C183.453 66.73 183.243 66.5167 183.09 66.25L182.87 67H182.25V60.32H183.09V62.82C183.243 62.56 183.453 62.3533 183.72 62.2C183.986 62.04 184.313 61.96 184.7 61.96C185.08 61.96 185.43 62.0633 185.75 62.27C186.076 62.47 186.336 62.7633 186.53 63.15C186.73 63.53 186.83 63.9933 186.83 64.54C186.83 65.0867 186.73 65.5533 186.53 65.94C186.336 66.32 186.076 66.6133 185.75 66.82C185.43 67.02 185.08 67.12 184.7 67.12ZM184.48 66.4C184.906 66.4 185.246 66.2367 185.5 65.91C185.76 65.5833 185.89 65.1267 185.89 64.54C185.89 63.9467 185.76 63.49 185.5 63.17C185.246 62.8433 184.906 62.68 184.48 62.68C184.053 62.68 183.71 62.8433 183.45 63.17C183.196 63.49 183.07 63.9467 183.07 64.54C183.07 65.1267 183.196 65.5833 183.45 65.91C183.71 66.2367 184.053 66.4 184.48 66.4ZM189.084 67C188.771 67 188.527 66.97 188.354 66.91C188.187 66.8433 188.071 66.72 188.004 66.54C187.944 66.36 187.914 66.1 187.914 65.76V60.33H188.754V65.62C188.754 65.8733 188.781 66.0433 188.834 66.13C188.887 66.2167 189.031 66.26 189.264 66.26H189.454V67H189.084ZM192.416 67.12C191.896 67.12 191.456 67.0067 191.096 66.78C190.736 66.5467 190.46 66.2367 190.266 65.85C190.08 65.4567 189.986 65.0167 189.986 64.53C189.986 64.0033 190.093 63.55 190.306 63.17C190.52 62.7833 190.806 62.4867 191.166 62.28C191.533 62.0667 191.943 61.96 192.396 61.96C192.79 61.96 193.136 62.04 193.436 62.2C193.736 62.3533 193.983 62.5633 194.176 62.83C194.376 63.09 194.52 63.3867 194.606 63.72C194.7 64.0533 194.733 64.3967 194.706 64.75H190.886C190.9 65.1633 190.99 65.49 191.156 65.73C191.33 65.97 191.533 66.14 191.766 66.24C192 66.3333 192.216 66.38 192.416 66.38C192.696 66.38 192.93 66.3367 193.116 66.25C193.31 66.1567 193.463 66.0367 193.576 65.89L194.386 66.13C194.206 66.4167 193.95 66.6533 193.616 66.84C193.283 67.0267 192.883 67.12 192.416 67.12ZM190.896 64.08H193.816C193.816 63.8467 193.756 63.6233 193.636 63.41C193.523 63.1967 193.36 63.0233 193.146 62.89C192.94 62.75 192.69 62.68 192.396 62.68C192.15 62.68 191.916 62.7267 191.696 62.82C191.476 62.9133 191.293 63.0633 191.146 63.27C191.006 63.4767 190.923 63.7467 190.896 64.08ZM197.387 67.12C197.1 67.12 196.817 67.0767 196.537 66.99C196.264 66.8967 196.017 66.76 195.797 66.58C195.584 66.3933 195.42 66.16 195.307 65.88L196.117 65.58C196.19 65.8733 196.35 66.0867 196.597 66.22C196.85 66.3467 197.114 66.41 197.387 66.41C197.587 66.41 197.774 66.38 197.947 66.32C198.127 66.26 198.274 66.1733 198.387 66.06C198.5 65.9467 198.557 65.8167 198.557 65.67C198.557 65.3967 198.447 65.2033 198.227 65.09C198.014 64.9767 197.757 64.89 197.457 64.83L196.767 64.69C196.527 64.6367 196.304 64.5633 196.097 64.47C195.89 64.37 195.724 64.23 195.597 64.05C195.47 63.87 195.407 63.63 195.407 63.33C195.407 63.03 195.5 62.78 195.687 62.58C195.874 62.3733 196.11 62.2167 196.397 62.11C196.69 62.0033 196.997 61.95 197.317 61.95C197.71 61.95 198.08 62.0333 198.427 62.2C198.78 62.36 199.03 62.6133 199.177 62.96L198.387 63.25C198.3 63.05 198.147 62.9033 197.927 62.81C197.714 62.71 197.49 62.66 197.257 62.66C197.004 62.66 196.774 62.7167 196.567 62.83C196.36 62.9433 196.257 63.1067 196.257 63.32C196.257 63.5333 196.344 63.69 196.517 63.79C196.697 63.8833 196.917 63.9567 197.177 64.01L197.827 64.14C198.094 64.1933 198.347 64.27 198.587 64.37C198.827 64.47 199.024 64.62 199.177 64.82C199.33 65.0133 199.407 65.2867 199.407 65.64C199.407 65.9533 199.31 66.22 199.117 66.44C198.924 66.66 198.674 66.83 198.367 66.95C198.06 67.0633 197.734 67.12 197.387 67.12ZM109.218 79V74.04H109.828L110.098 74.96C110.271 74.66 110.504 74.42 110.798 74.24C111.098 74.0533 111.454 73.96 111.868 73.96V74.83C111.821 74.83 111.771 74.83 111.718 74.83C111.671 74.83 111.624 74.8333 111.578 74.84C111.011 74.8867 110.614 75.0833 110.388 75.43C110.168 75.7767 110.058 76.2567 110.058 76.87V79H109.218ZM114.726 79.12C114.206 79.12 113.766 79.0067 113.406 78.78C113.046 78.5467 112.769 78.2367 112.576 77.85C112.389 77.4567 112.296 77.0167 112.296 76.53C112.296 76.0033 112.403 75.55 112.616 75.17C112.829 74.7833 113.116 74.4867 113.476 74.28C113.843 74.0667 114.253 73.96 114.706 73.96C115.099 73.96 115.446 74.04 115.746 74.2C116.046 74.3533 116.293 74.5633 116.486 74.83C116.686 75.09 116.829 75.3867 116.916 75.72C117.009 76.0533 117.043 76.3967 117.016 76.75H113.196C113.209 77.1633 113.299 77.49 113.466 77.73C113.639 77.97 113.843 78.14 114.076 78.24C114.309 78.3333 114.526 78.38 114.726 78.38C115.006 78.38 115.239 78.3367 115.426 78.25C115.619 78.1567 115.773 78.0367 115.886 77.89L116.696 78.13C116.516 78.4167 116.259 78.6533 115.926 78.84C115.593 79.0267 115.193 79.12 114.726 79.12ZM113.206 76.08H116.126C116.126 75.8467 116.066 75.6233 115.946 75.41C115.833 75.1967 115.669 75.0233 115.456 74.89C115.249 74.75 114.999 74.68 114.706 74.68C114.459 74.68 114.226 74.7267 114.006 74.82C113.786 74.9133 113.603 75.0633 113.456 75.27C113.316 75.4767 113.233 75.7467 113.206 76.08ZM118.007 80.61V74.04H118.617L118.847 74.82C119 74.56 119.21 74.3533 119.477 74.2C119.743 74.04 120.07 73.96 120.457 73.96C120.837 73.96 121.187 74.0633 121.507 74.27C121.833 74.47 122.093 74.7633 122.287 75.15C122.487 75.53 122.587 75.9933 122.587 76.54C122.587 77.08 122.487 77.5433 122.287 77.93C122.093 78.3167 121.833 78.6133 121.507 78.82C121.187 79.02 120.837 79.12 120.457 79.12C120.07 79.12 119.743 79.0433 119.477 78.89C119.21 78.73 119 78.5167 118.847 78.25V80.61H118.007ZM120.237 78.4C120.663 78.4 121.003 78.2367 121.257 77.91C121.517 77.5833 121.647 77.1267 121.647 76.54C121.647 75.9467 121.517 75.49 121.257 75.17C121.003 74.8433 120.663 74.68 120.237 74.68C119.81 74.68 119.467 74.8433 119.207 75.17C118.953 75.49 118.827 75.9467 118.827 76.54C118.827 77.1267 118.953 77.5833 119.207 77.91C119.467 78.2367 119.81 78.4 120.237 78.4ZM123.671 79V74.04H124.281L124.551 74.96C124.724 74.66 124.957 74.42 125.251 74.24C125.551 74.0533 125.907 73.96 126.321 73.96V74.83C126.274 74.83 126.224 74.83 126.171 74.83C126.124 74.83 126.077 74.8333 126.031 74.84C125.464 74.8867 125.067 75.0833 124.841 75.43C124.621 75.7767 124.511 76.2567 124.511 76.87V79H123.671ZM129.179 79.12C128.659 79.12 128.219 79.0067 127.859 78.78C127.499 78.5467 127.222 78.2367 127.029 77.85C126.842 77.4567 126.749 77.0167 126.749 76.53C126.749 76.0033 126.856 75.55 127.069 75.17C127.282 74.7833 127.569 74.4867 127.929 74.28C128.296 74.0667 128.706 73.96 129.159 73.96C129.552 73.96 129.899 74.04 130.199 74.2C130.499 74.3533 130.746 74.5633 130.939 74.83C131.139 75.09 131.282 75.3867 131.369 75.72C131.462 76.0533 131.496 76.3967 131.469 76.75H127.649C127.662 77.1633 127.752 77.49 127.919 77.73C128.092 77.97 128.296 78.14 128.529 78.24C128.762 78.3333 128.979 78.38 129.179 78.38C129.459 78.38 129.692 78.3367 129.879 78.25C130.072 78.1567 130.226 78.0367 130.339 77.89L131.149 78.13C130.969 78.4167 130.712 78.6533 130.379 78.84C130.046 79.0267 129.646 79.12 129.179 79.12ZM127.659 76.08H130.579C130.579 75.8467 130.519 75.6233 130.399 75.41C130.286 75.1967 130.122 75.0233 129.909 74.89C129.702 74.75 129.452 74.68 129.159 74.68C128.912 74.68 128.679 74.7267 128.459 74.82C128.239 74.9133 128.056 75.0633 127.909 75.27C127.769 75.4767 127.686 75.7467 127.659 76.08ZM134.15 79.12C133.863 79.12 133.58 79.0767 133.3 78.99C133.026 78.8967 132.78 78.76 132.56 78.58C132.346 78.3933 132.183 78.16 132.07 77.88L132.88 77.58C132.953 77.8733 133.113 78.0867 133.36 78.22C133.613 78.3467 133.876 78.41 134.15 78.41C134.35 78.41 134.536 78.38 134.71 78.32C134.89 78.26 135.036 78.1733 135.15 78.06C135.263 77.9467 135.32 77.8167 135.32 77.67C135.32 77.3967 135.21 77.2033 134.99 77.09C134.776 76.9767 134.52 76.89 134.22 76.83L133.53 76.69C133.29 76.6367 133.066 76.5633 132.86 76.47C132.653 76.37 132.486 76.23 132.36 76.05C132.233 75.87 132.17 75.63 132.17 75.33C132.17 75.03 132.263 74.78 132.45 74.58C132.636 74.3733 132.873 74.2167 133.16 74.11C133.453 74.0033 133.76 73.95 134.08 73.95C134.473 73.95 134.843 74.0333 135.19 74.2C135.543 74.36 135.793 74.6133 135.94 74.96L135.15 75.25C135.063 75.05 134.91 74.9033 134.69 74.81C134.476 74.71 134.253 74.66 134.02 74.66C133.766 74.66 133.536 74.7167 133.33 74.83C133.123 74.9433 133.02 75.1067 133.02 75.32C133.02 75.5333 133.106 75.69 133.28 75.79C133.46 75.8833 133.68 75.9567 133.94 76.01L134.59 76.14C134.856 76.1933 135.11 76.27 135.35 76.37C135.59 76.47 135.786 76.62 135.94 76.82C136.093 77.0133 136.17 77.2867 136.17 77.64C136.17 77.9533 136.073 78.22 135.88 78.44C135.686 78.66 135.436 78.83 135.13 78.95C134.823 79.0633 134.496 79.12 134.15 79.12ZM139.277 79.12C138.757 79.12 138.317 79.0067 137.957 78.78C137.597 78.5467 137.32 78.2367 137.127 77.85C136.94 77.4567 136.847 77.0167 136.847 76.53C136.847 76.0033 136.953 75.55 137.167 75.17C137.38 74.7833 137.667 74.4867 138.027 74.28C138.393 74.0667 138.803 73.96 139.257 73.96C139.65 73.96 139.997 74.04 140.297 74.2C140.597 74.3533 140.843 74.5633 141.037 74.83C141.237 75.09 141.38 75.3867 141.467 75.72C141.56 76.0533 141.593 76.3967 141.567 76.75H137.747C137.76 77.1633 137.85 77.49 138.017 77.73C138.19 77.97 138.393 78.14 138.627 78.24C138.86 78.3333 139.077 78.38 139.277 78.38C139.557 78.38 139.79 78.3367 139.977 78.25C140.17 78.1567 140.323 78.0367 140.437 77.89L141.247 78.13C141.067 78.4167 140.81 78.6533 140.477 78.84C140.143 79.0267 139.743 79.12 139.277 79.12ZM137.757 76.08H140.677C140.677 75.8467 140.617 75.6233 140.497 75.41C140.383 75.1967 140.22 75.0233 140.007 74.89C139.8 74.75 139.55 74.68 139.257 74.68C139.01 74.68 138.777 74.7267 138.557 74.82C138.337 74.9133 138.153 75.0633 138.007 75.27C137.867 75.4767 137.783 75.7467 137.757 76.08ZM142.557 79V74.04H143.177L143.397 74.79C143.537 74.5567 143.734 74.36 143.987 74.2C144.241 74.04 144.577 73.96 144.997 73.96C145.597 73.96 146.021 74.1367 146.267 74.49C146.514 74.8367 146.637 75.2933 146.637 75.86V79H145.797V76.11C145.797 75.8567 145.774 75.6233 145.727 75.41C145.681 75.19 145.577 75.0133 145.417 74.88C145.264 74.7467 145.027 74.68 144.707 74.68C144.301 74.68 143.981 74.82 143.747 75.1C143.514 75.3733 143.397 75.7767 143.397 76.31V79H142.557ZM149.399 79C149.086 79 148.843 78.97 148.669 78.91C148.503 78.8433 148.386 78.72 148.319 78.54C148.259 78.36 148.229 78.1 148.229 77.76V74.71H147.389V74.04H148.229V72.79H149.069V74.04H150.029V74.71H149.069V77.62C149.069 77.8733 149.093 78.0433 149.139 78.13C149.193 78.2167 149.339 78.26 149.579 78.26H150.029V79H149.399ZM155.444 79C155.131 79 154.888 78.97 154.714 78.91C154.548 78.8433 154.431 78.72 154.364 78.54C154.304 78.36 154.274 78.1 154.274 77.76V74.71H153.434V74.04H154.274V72.79H155.114V74.04H156.074V74.71H155.114V77.62C155.114 77.8733 155.138 78.0433 155.184 78.13C155.238 78.2167 155.384 78.26 155.624 78.26H156.074V79H155.444ZM157.177 79V72.32H158.017V74.79C158.157 74.5567 158.353 74.36 158.607 74.2C158.86 74.04 159.197 73.96 159.617 73.96C160.217 73.96 160.64 74.1367 160.887 74.49C161.133 74.8367 161.257 75.2933 161.257 75.86V79H160.417V76.11C160.417 75.8567 160.393 75.6233 160.347 75.41C160.3 75.19 160.197 75.0133 160.037 74.88C159.883 74.7467 159.647 74.68 159.327 74.68C158.92 74.68 158.6 74.82 158.367 75.1C158.133 75.3733 158.017 75.7767 158.017 76.31V79H157.177ZM164.638 79.12C164.118 79.12 163.678 79.0067 163.318 78.78C162.958 78.5467 162.681 78.2367 162.488 77.85C162.301 77.4567 162.208 77.0167 162.208 76.53C162.208 76.0033 162.315 75.55 162.528 75.17C162.741 74.7833 163.028 74.4867 163.388 74.28C163.755 74.0667 164.165 73.96 164.618 73.96C165.011 73.96 165.358 74.04 165.658 74.2C165.958 74.3533 166.205 74.5633 166.398 74.83C166.598 75.09 166.741 75.3867 166.828 75.72C166.921 76.0533 166.955 76.3967 166.928 76.75H163.108C163.121 77.1633 163.211 77.49 163.378 77.73C163.551 77.97 163.755 78.14 163.988 78.24C164.221 78.3333 164.438 78.38 164.638 78.38C164.918 78.38 165.151 78.3367 165.338 78.25C165.531 78.1567 165.685 78.0367 165.798 77.89L166.608 78.13C166.428 78.4167 166.171 78.6533 165.838 78.84C165.505 79.0267 165.105 79.12 164.638 79.12ZM163.118 76.08H166.038C166.038 75.8467 165.978 75.6233 165.858 75.41C165.745 75.1967 165.581 75.0233 165.368 74.89C165.161 74.75 164.911 74.68 164.618 74.68C164.371 74.68 164.138 74.7267 163.918 74.82C163.698 74.9133 163.515 75.0633 163.368 75.27C163.228 75.4767 163.145 75.7467 163.118 76.08ZM172.231 79C171.918 79 171.675 78.97 171.501 78.91C171.335 78.8433 171.218 78.72 171.151 78.54C171.091 78.36 171.061 78.1 171.061 77.76V74.71H170.221V74.04H171.061V72.79H171.901V74.04H172.861V74.71H171.901V77.62C171.901 77.8733 171.925 78.0433 171.971 78.13C172.025 78.2167 172.171 78.26 172.411 78.26H172.861V79H172.231ZM176.024 79.12C175.737 79.12 175.454 79.07 175.174 78.97C174.894 78.87 174.637 78.7167 174.404 78.51C174.177 78.2967 173.994 78.0267 173.854 77.7C173.714 77.3733 173.644 76.9867 173.644 76.54C173.644 76.0933 173.714 75.7067 173.854 75.38C173.994 75.0533 174.177 74.7867 174.404 74.58C174.637 74.3667 174.894 74.21 175.174 74.11C175.454 74.01 175.737 73.96 176.024 73.96C176.31 73.96 176.594 74.01 176.874 74.11C177.16 74.21 177.417 74.3667 177.644 74.58C177.877 74.7867 178.06 75.0533 178.194 75.38C178.334 75.7067 178.404 76.0933 178.404 76.54C178.404 76.9867 178.334 77.3733 178.194 77.7C178.06 78.0267 177.877 78.2967 177.644 78.51C177.417 78.7167 177.16 78.87 176.874 78.97C176.594 79.07 176.31 79.12 176.024 79.12ZM176.024 78.38C176.264 78.38 176.497 78.3167 176.724 78.19C176.95 78.0567 177.137 77.8567 177.284 77.59C177.43 77.3167 177.504 76.9667 177.504 76.54C177.504 76.1133 177.43 75.7667 177.284 75.5C177.137 75.2267 176.95 75.0267 176.724 74.9C176.497 74.7667 176.264 74.7 176.024 74.7C175.79 74.7 175.557 74.7667 175.324 74.9C175.097 75.0267 174.91 75.2267 174.764 75.5C174.617 75.7667 174.544 76.1133 174.544 76.54C174.544 76.9667 174.617 77.3167 174.764 77.59C174.91 77.8567 175.097 78.0567 175.324 78.19C175.557 78.3167 175.79 78.38 176.024 78.38ZM180.991 79C180.678 79 180.435 78.97 180.261 78.91C180.095 78.8433 179.978 78.72 179.911 78.54C179.851 78.36 179.821 78.1 179.821 77.76V74.71H178.981V74.04H179.821V72.79H180.661V74.04H181.621V74.71H180.661V77.62C180.661 77.8733 180.685 78.0433 180.731 78.13C180.785 78.2167 180.931 78.26 181.171 78.26H181.621V79H180.991ZM184.113 79.12C183.8 79.12 183.513 79.0633 183.253 78.95C182.993 78.8367 182.787 78.6733 182.633 78.46C182.48 78.2467 182.403 77.99 182.403 77.69C182.403 77.2967 182.54 76.9867 182.813 76.76C183.093 76.5333 183.483 76.36 183.983 76.24C184.49 76.1133 185.08 76.0133 185.753 75.94C185.767 75.52 185.683 75.1967 185.503 74.97C185.323 74.7433 185.033 74.63 184.633 74.63C184.333 74.63 184.087 74.7 183.893 74.84C183.707 74.9733 183.587 75.16 183.533 75.4L182.723 75.16C182.857 74.78 183.093 74.4867 183.433 74.28C183.78 74.0667 184.177 73.96 184.623 73.96C185.31 73.96 185.81 74.1233 186.123 74.45C186.443 74.77 186.603 75.2767 186.603 75.97V77.13C186.603 77.5433 186.62 77.9 186.653 78.2C186.687 78.5 186.727 78.7667 186.773 79H186.003L185.803 78.32C185.657 78.5667 185.447 78.7633 185.173 78.91C184.9 79.05 184.547 79.12 184.113 79.12ZM184.293 78.45C184.553 78.45 184.8 78.4033 185.033 78.31C185.267 78.2167 185.457 78.06 185.603 77.84C185.75 77.6133 185.823 77.3067 185.823 76.92V76.61C185.317 76.6633 184.877 76.73 184.503 76.81C184.13 76.8833 183.84 76.99 183.633 77.13C183.433 77.2633 183.333 77.4433 183.333 77.67C183.333 77.9033 183.417 78.0933 183.583 78.24C183.757 78.38 183.993 78.45 184.293 78.45ZM189.157 79C188.844 79 188.6 78.97 188.427 78.91C188.26 78.8433 188.144 78.72 188.077 78.54C188.017 78.36 187.987 78.1 187.987 77.76V72.33H188.827V77.62C188.827 77.8733 188.854 78.0433 188.907 78.13C188.96 78.2167 189.104 78.26 189.337 78.26H189.527V79H189.157ZM109.277 91L107.507 86.04H108.417L109.717 89.9L111.007 86.04H111.917L110.147 91H109.277ZM113.481 85.1C113.314 85.1 113.168 85.04 113.041 84.92C112.921 84.7933 112.861 84.6433 112.861 84.47C112.861 84.2967 112.921 84.15 113.041 84.03C113.168 83.91 113.314 83.85 113.481 83.85C113.654 83.85 113.801 83.91 113.921 84.03C114.048 84.15 114.111 84.2967 114.111 84.47C114.111 84.6433 114.048 84.7933 113.921 84.92C113.801 85.04 113.654 85.1 113.481 85.1ZM113.061 91V86.71H112.371V86.04H113.901V91H113.061ZM117.094 91.12C116.807 91.12 116.524 91.0767 116.244 90.99C115.971 90.8967 115.724 90.76 115.504 90.58C115.291 90.3933 115.127 90.16 115.014 89.88L115.824 89.58C115.897 89.8733 116.057 90.0867 116.304 90.22C116.557 90.3467 116.821 90.41 117.094 90.41C117.294 90.41 117.481 90.38 117.654 90.32C117.834 90.26 117.981 90.1733 118.094 90.06C118.207 89.9467 118.264 89.8167 118.264 89.67C118.264 89.3967 118.154 89.2033 117.934 89.09C117.721 88.9767 117.464 88.89 117.164 88.83L116.474 88.69C116.234 88.6367 116.011 88.5633 115.804 88.47C115.597 88.37 115.431 88.23 115.304 88.05C115.177 87.87 115.114 87.63 115.114 87.33C115.114 87.03 115.207 86.78 115.394 86.58C115.581 86.3733 115.817 86.2167 116.104 86.11C116.397 86.0033 116.704 85.95 117.024 85.95C117.417 85.95 117.787 86.0333 118.134 86.2C118.487 86.36 118.737 86.6133 118.884 86.96L118.094 87.25C118.007 87.05 117.854 86.9033 117.634 86.81C117.421 86.71 117.197 86.66 116.964 86.66C116.711 86.66 116.481 86.7167 116.274 86.83C116.067 86.9433 115.964 87.1067 115.964 87.32C115.964 87.5333 116.051 87.69 116.224 87.79C116.404 87.8833 116.624 87.9567 116.884 88.01L117.534 88.14C117.801 88.1933 118.054 88.27 118.294 88.37C118.534 88.47 118.731 88.62 118.884 88.82C119.037 89.0133 119.114 89.2867 119.114 89.64C119.114 89.9533 119.017 90.22 118.824 90.44C118.631 90.66 118.381 90.83 118.074 90.95C117.767 91.0633 117.441 91.12 117.094 91.12ZM121.681 91.12C121.294 91.12 120.984 91.04 120.751 90.88C120.518 90.7133 120.348 90.4867 120.241 90.2C120.141 89.9067 120.091 89.5733 120.091 89.2V86.03H120.931V89C120.931 89.3667 120.974 89.65 121.061 89.85C121.148 90.05 121.268 90.19 121.421 90.27C121.581 90.3433 121.764 90.38 121.971 90.38C122.364 90.38 122.671 90.2433 122.891 89.97C123.118 89.69 123.231 89.2867 123.231 88.76V86.03H124.071V91H123.441L123.231 90.28C123.091 90.52 122.901 90.72 122.661 90.88C122.421 91.04 122.094 91.12 121.681 91.12ZM126.862 91.12C126.549 91.12 126.262 91.0633 126.002 90.95C125.742 90.8367 125.536 90.6733 125.382 90.46C125.229 90.2467 125.152 89.99 125.152 89.69C125.152 89.2967 125.289 88.9867 125.562 88.76C125.842 88.5333 126.232 88.36 126.732 88.24C127.239 88.1133 127.829 88.0133 128.502 87.94C128.516 87.52 128.432 87.1967 128.252 86.97C128.072 86.7433 127.782 86.63 127.382 86.63C127.082 86.63 126.836 86.7 126.642 86.84C126.456 86.9733 126.336 87.16 126.282 87.4L125.472 87.16C125.606 86.78 125.842 86.4867 126.182 86.28C126.529 86.0667 126.926 85.96 127.372 85.96C128.059 85.96 128.559 86.1233 128.872 86.45C129.192 86.77 129.352 87.2767 129.352 87.97V89.13C129.352 89.5433 129.369 89.9 129.402 90.2C129.436 90.5 129.476 90.7667 129.522 91H128.752L128.552 90.32C128.406 90.5667 128.196 90.7633 127.922 90.91C127.649 91.05 127.296 91.12 126.862 91.12ZM127.042 90.45C127.302 90.45 127.549 90.4033 127.782 90.31C128.016 90.2167 128.206 90.06 128.352 89.84C128.499 89.6133 128.572 89.3067 128.572 88.92V88.61C128.066 88.6633 127.626 88.73 127.252 88.81C126.879 88.8833 126.589 88.99 126.382 89.13C126.182 89.2633 126.082 89.4433 126.082 89.67C126.082 89.9033 126.166 90.0933 126.332 90.24C126.506 90.38 126.742 90.45 127.042 90.45ZM131.906 91C131.593 91 131.349 90.97 131.176 90.91C131.009 90.8433 130.893 90.72 130.826 90.54C130.766 90.36 130.736 90.1 130.736 89.76V84.33H131.576V89.62C131.576 89.8733 131.603 90.0433 131.656 90.13C131.709 90.2167 131.853 90.26 132.086 90.26H132.276V91H131.906ZM137.321 91.12C137.008 91.12 136.721 91.0633 136.461 90.95C136.201 90.8367 135.995 90.6733 135.841 90.46C135.688 90.2467 135.611 89.99 135.611 89.69C135.611 89.2967 135.748 88.9867 136.021 88.76C136.301 88.5333 136.691 88.36 137.191 88.24C137.698 88.1133 138.288 88.0133 138.961 87.94C138.975 87.52 138.891 87.1967 138.711 86.97C138.531 86.7433 138.241 86.63 137.841 86.63C137.541 86.63 137.295 86.7 137.101 86.84C136.915 86.9733 136.795 87.16 136.741 87.4L135.931 87.16C136.065 86.78 136.301 86.4867 136.641 86.28C136.988 86.0667 137.385 85.96 137.831 85.96C138.518 85.96 139.018 86.1233 139.331 86.45C139.651 86.77 139.811 87.2767 139.811 87.97V89.13C139.811 89.5433 139.828 89.9 139.861 90.2C139.895 90.5 139.935 90.7667 139.981 91H139.211L139.011 90.32C138.865 90.5667 138.655 90.7633 138.381 90.91C138.108 91.05 137.755 91.12 137.321 91.12ZM137.501 90.45C137.761 90.45 138.008 90.4033 138.241 90.31C138.475 90.2167 138.665 90.06 138.811 89.84C138.958 89.6133 139.031 89.3067 139.031 88.92V88.61C138.525 88.6633 138.085 88.73 137.711 88.81C137.338 88.8833 137.048 88.99 136.841 89.13C136.641 89.2633 136.541 89.4433 136.541 89.67C136.541 89.9033 136.625 90.0933 136.791 90.24C136.965 90.38 137.201 90.45 137.501 90.45ZM141.195 92.61V86.04H141.805L142.035 86.82C142.188 86.56 142.398 86.3533 142.665 86.2C142.932 86.04 143.258 85.96 143.645 85.96C144.025 85.96 144.375 86.0633 144.695 86.27C145.022 86.47 145.282 86.7633 145.475 87.15C145.675 87.53 145.775 87.9933 145.775 88.54C145.775 89.08 145.675 89.5433 145.475 89.93C145.282 90.3167 145.022 90.6133 144.695 90.82C144.375 91.02 144.025 91.12 143.645 91.12C143.258 91.12 142.932 91.0433 142.665 90.89C142.398 90.73 142.188 90.5167 142.035 90.25V92.61H141.195ZM143.425 90.4C143.852 90.4 144.192 90.2367 144.445 89.91C144.705 89.5833 144.835 89.1267 144.835 88.54C144.835 87.9467 144.705 87.49 144.445 87.17C144.192 86.8433 143.852 86.68 143.425 86.68C142.998 86.68 142.655 86.8433 142.395 87.17C142.142 87.49 142.015 87.9467 142.015 88.54C142.015 89.1267 142.142 89.5833 142.395 89.91C142.655 90.2367 142.998 90.4 143.425 90.4ZM146.859 92.61V86.04H147.469L147.699 86.82C147.853 86.56 148.063 86.3533 148.329 86.2C148.596 86.04 148.923 85.96 149.309 85.96C149.689 85.96 150.039 86.0633 150.359 86.27C150.686 86.47 150.946 86.7633 151.139 87.15C151.339 87.53 151.439 87.9933 151.439 88.54C151.439 89.08 151.339 89.5433 151.139 89.93C150.946 90.3167 150.686 90.6133 150.359 90.82C150.039 91.02 149.689 91.12 149.309 91.12C148.923 91.12 148.596 91.0433 148.329 90.89C148.063 90.73 147.853 90.5167 147.699 90.25V92.61H146.859ZM149.089 90.4C149.516 90.4 149.856 90.2367 150.109 89.91C150.369 89.5833 150.499 89.1267 150.499 88.54C150.499 87.9467 150.369 87.49 150.109 87.17C149.856 86.8433 149.516 86.68 149.089 86.68C148.663 86.68 148.319 86.8433 148.059 87.17C147.806 87.49 147.679 87.9467 147.679 88.54C147.679 89.1267 147.806 89.5833 148.059 89.91C148.319 90.2367 148.663 90.4 149.089 90.4ZM154.633 91.12C154.113 91.12 153.673 91.0067 153.313 90.78C152.953 90.5467 152.677 90.2367 152.483 89.85C152.297 89.4567 152.203 89.0167 152.203 88.53C152.203 88.0033 152.31 87.55 152.523 87.17C152.737 86.7833 153.023 86.4867 153.383 86.28C153.75 86.0667 154.16 85.96 154.613 85.96C155.007 85.96 155.353 86.04 155.653 86.2C155.953 86.3533 156.2 86.5633 156.393 86.83C156.593 87.09 156.737 87.3867 156.823 87.72C156.917 88.0533 156.95 88.3967 156.923 88.75H153.103C153.117 89.1633 153.207 89.49 153.373 89.73C153.547 89.97 153.75 90.14 153.983 90.24C154.217 90.3333 154.433 90.38 154.633 90.38C154.913 90.38 155.147 90.3367 155.333 90.25C155.527 90.1567 155.68 90.0367 155.793 89.89L156.603 90.13C156.423 90.4167 156.167 90.6533 155.833 90.84C155.5 91.0267 155.1 91.12 154.633 91.12ZM153.113 88.08H156.033C156.033 87.8467 155.973 87.6233 155.853 87.41C155.74 87.1967 155.577 87.0233 155.363 86.89C155.157 86.75 154.907 86.68 154.613 86.68C154.367 86.68 154.133 86.7267 153.913 86.82C153.693 86.9133 153.51 87.0633 153.363 87.27C153.223 87.4767 153.14 87.7467 153.113 88.08ZM159.304 91.12C158.991 91.12 158.704 91.0633 158.444 90.95C158.184 90.8367 157.977 90.6733 157.824 90.46C157.671 90.2467 157.594 89.99 157.594 89.69C157.594 89.2967 157.731 88.9867 158.004 88.76C158.284 88.5333 158.674 88.36 159.174 88.24C159.681 88.1133 160.271 88.0133 160.944 87.94C160.957 87.52 160.874 87.1967 160.694 86.97C160.514 86.7433 160.224 86.63 159.824 86.63C159.524 86.63 159.277 86.7 159.084 86.84C158.897 86.9733 158.777 87.16 158.724 87.4L157.914 87.16C158.047 86.78 158.284 86.4867 158.624 86.28C158.971 86.0667 159.367 85.96 159.814 85.96C160.501 85.96 161.001 86.1233 161.314 86.45C161.634 86.77 161.794 87.2767 161.794 87.97V89.13C161.794 89.5433 161.811 89.9 161.844 90.2C161.877 90.5 161.917 90.7667 161.964 91H161.194L160.994 90.32C160.847 90.5667 160.637 90.7633 160.364 90.91C160.091 91.05 159.737 91.12 159.304 91.12ZM159.484 90.45C159.744 90.45 159.991 90.4033 160.224 90.31C160.457 90.2167 160.647 90.06 160.794 89.84C160.941 89.6133 161.014 89.3067 161.014 88.92V88.61C160.507 88.6633 160.067 88.73 159.694 88.81C159.321 88.8833 159.031 88.99 158.824 89.13C158.624 89.2633 158.524 89.4433 158.524 89.67C158.524 89.9033 158.607 90.0933 158.774 90.24C158.947 90.38 159.184 90.45 159.484 90.45ZM163.178 91V86.04H163.788L164.058 86.96C164.231 86.66 164.464 86.42 164.758 86.24C165.058 86.0533 165.414 85.96 165.828 85.96V86.83C165.781 86.83 165.731 86.83 165.678 86.83C165.631 86.83 165.584 86.8333 165.538 86.84C164.971 86.8867 164.574 87.0833 164.348 87.43C164.128 87.7767 164.018 88.2567 164.018 88.87V91H163.178ZM167.819 91.12C167.506 91.12 167.219 91.0633 166.959 90.95C166.699 90.8367 166.493 90.6733 166.339 90.46C166.186 90.2467 166.109 89.99 166.109 89.69C166.109 89.2967 166.246 88.9867 166.519 88.76C166.799 88.5333 167.189 88.36 167.689 88.24C168.196 88.1133 168.786 88.0133 169.459 87.94C169.473 87.52 169.389 87.1967 169.209 86.97C169.029 86.7433 168.739 86.63 168.339 86.63C168.039 86.63 167.793 86.7 167.599 86.84C167.413 86.9733 167.293 87.16 167.239 87.4L166.429 87.16C166.563 86.78 166.799 86.4867 167.139 86.28C167.486 86.0667 167.883 85.96 168.329 85.96C169.016 85.96 169.516 86.1233 169.829 86.45C170.149 86.77 170.309 87.2767 170.309 87.97V89.13C170.309 89.5433 170.326 89.9 170.359 90.2C170.393 90.5 170.433 90.7667 170.479 91H169.709L169.509 90.32C169.363 90.5667 169.153 90.7633 168.879 90.91C168.606 91.05 168.253 91.12 167.819 91.12ZM167.999 90.45C168.259 90.45 168.506 90.4033 168.739 90.31C168.973 90.2167 169.163 90.06 169.309 89.84C169.456 89.6133 169.529 89.3067 169.529 88.92V88.61C169.023 88.6633 168.583 88.73 168.209 88.81C167.836 88.8833 167.546 88.99 167.339 89.13C167.139 89.2633 167.039 89.4433 167.039 89.67C167.039 89.9033 167.123 90.0933 167.289 90.24C167.463 90.38 167.699 90.45 167.999 90.45ZM171.693 91V86.04H172.313L172.533 86.79C172.673 86.5567 172.87 86.36 173.123 86.2C173.376 86.04 173.713 85.96 174.133 85.96C174.733 85.96 175.156 86.1367 175.403 86.49C175.65 86.8367 175.773 87.2933 175.773 87.86V91H174.933V88.11C174.933 87.8567 174.91 87.6233 174.863 87.41C174.816 87.19 174.713 87.0133 174.553 86.88C174.4 86.7467 174.163 86.68 173.843 86.68C173.436 86.68 173.116 86.82 172.883 87.1C172.65 87.3733 172.533 87.7767 172.533 88.31V91H171.693ZM179.035 91.12C178.561 91.12 178.151 91.01 177.805 90.79C177.458 90.5633 177.191 90.2567 177.005 89.87C176.818 89.4833 176.725 89.04 176.725 88.54C176.725 88.0467 176.821 87.6067 177.015 87.22C177.215 86.8267 177.495 86.52 177.855 86.3C178.215 86.0733 178.638 85.96 179.125 85.96C179.571 85.96 179.955 86.07 180.275 86.29C180.595 86.51 180.835 86.7733 180.995 87.08L180.225 87.36C180.118 87.16 179.961 87 179.755 86.88C179.548 86.76 179.318 86.7 179.065 86.7C178.818 86.7 178.585 86.7667 178.365 86.9C178.145 87.0267 177.968 87.2267 177.835 87.5C177.701 87.7667 177.635 88.11 177.635 88.53C177.635 88.9433 177.701 89.29 177.835 89.57C177.975 89.8433 178.151 90.0467 178.365 90.18C178.585 90.3133 178.818 90.38 179.065 90.38C179.338 90.38 179.575 90.32 179.775 90.2C179.981 90.0733 180.138 89.9167 180.245 89.73L181.015 90.01C180.828 90.33 180.561 90.5967 180.215 90.81C179.868 91.0167 179.475 91.12 179.035 91.12ZM184.155 91.12C183.635 91.12 183.195 91.0067 182.835 90.78C182.475 90.5467 182.198 90.2367 182.005 89.85C181.818 89.4567 181.725 89.0167 181.725 88.53C181.725 88.0033 181.831 87.55 182.045 87.17C182.258 86.7833 182.545 86.4867 182.905 86.28C183.271 86.0667 183.681 85.96 184.135 85.96C184.528 85.96 184.875 86.04 185.175 86.2C185.475 86.3533 185.721 86.5633 185.915 86.83C186.115 87.09 186.258 87.3867 186.345 87.72C186.438 88.0533 186.471 88.3967 186.445 88.75H182.625C182.638 89.1633 182.728 89.49 182.895 89.73C183.068 89.97 183.271 90.14 183.505 90.24C183.738 90.3333 183.955 90.38 184.155 90.38C184.435 90.38 184.668 90.3367 184.855 90.25C185.048 90.1567 185.201 90.0367 185.315 89.89L186.125 90.13C185.945 90.4167 185.688 90.6533 185.355 90.84C185.021 91.0267 184.621 91.12 184.155 91.12ZM182.635 88.08H185.555C185.555 87.8467 185.495 87.6233 185.375 87.41C185.261 87.1967 185.098 87.0233 184.885 86.89C184.678 86.75 184.428 86.68 184.135 86.68C183.888 86.68 183.655 86.7267 183.435 86.82C183.215 86.9133 183.031 87.0633 182.885 87.27C182.745 87.4767 182.661 87.7467 182.635 88.08ZM189.125 91.12C188.839 91.12 188.555 91.0767 188.275 90.99C188.002 90.8967 187.755 90.76 187.535 90.58C187.322 90.3933 187.159 90.16 187.045 89.88L187.855 89.58C187.929 89.8733 188.089 90.0867 188.335 90.22C188.589 90.3467 188.852 90.41 189.125 90.41C189.325 90.41 189.512 90.38 189.685 90.32C189.865 90.26 190.012 90.1733 190.125 90.06C190.239 89.9467 190.295 89.8167 190.295 89.67C190.295 89.3967 190.185 89.2033 189.965 89.09C189.752 88.9767 189.495 88.89 189.195 88.83L188.505 88.69C188.265 88.6367 188.042 88.5633 187.835 88.47C187.629 88.37 187.462 88.23 187.335 88.05C187.209 87.87 187.145 87.63 187.145 87.33C187.145 87.03 187.239 86.78 187.425 86.58C187.612 86.3733 187.849 86.2167 188.135 86.11C188.429 86.0033 188.735 85.95 189.055 85.95C189.449 85.95 189.819 86.0333 190.165 86.2C190.519 86.36 190.769 86.6133 190.915 86.96L190.125 87.25C190.039 87.05 189.885 86.9033 189.665 86.81C189.452 86.71 189.229 86.66 188.995 86.66C188.742 86.66 188.512 86.7167 188.305 86.83C188.099 86.9433 187.995 87.1067 187.995 87.32C187.995 87.5333 188.082 87.69 188.255 87.79C188.435 87.8833 188.655 87.9567 188.915 88.01L189.565 88.14C189.832 88.1933 190.085 88.27 190.325 88.37C190.565 88.47 190.762 88.62 190.915 88.82C191.069 89.0133 191.145 89.2867 191.145 89.64C191.145 89.9533 191.049 90.22 190.855 90.44C190.662 90.66 190.412 90.83 190.105 90.95C189.799 91.0633 189.472 91.12 189.125 91.12ZM192.462 91.12C192.289 91.12 192.139 91.0567 192.012 90.93C191.886 90.8033 191.822 90.6533 191.822 90.48C191.822 90.3 191.886 90.1467 192.012 90.02C192.139 89.8933 192.289 89.83 192.462 89.83C192.642 89.83 192.796 89.8933 192.922 90.02C193.049 90.1467 193.112 90.3 193.112 90.48C193.112 90.6533 193.049 90.8033 192.922 90.93C192.796 91.0567 192.642 91.12 192.462 91.12Z" fill="black"/>
<circle cx="137.999" cy="42.7045" r="9.85294" fill="#FCF4E9" stroke="black"/>
<circle cx="165.293" cy="42.7045" r="9.85294" fill="#FCF4E9" stroke="black"/>
<circle cx="151.177" cy="21.9994" r="9.85294" fill="#FCF4E9" stroke="black"/>
<circle cx="175.647" cy="17.7631" r="9.85294" fill="#FCF4E9" stroke="black"/>
<circle cx="124.353" cy="16.3529" r="9.85294" fill="#FCF4E9" stroke="black"/>
<path d="M29.0004 67L31.5104 60.31H32.5604L35.0604 67H34.0604L33.5504 65.54H30.5104L30.0004 67H29.0004ZM30.8004 64.73H33.2604L32.0304 61.26L30.8004 64.73ZM41.1129 67.12C40.7262 67.12 40.3996 67.0433 40.1329 66.89C39.8662 66.73 39.6562 66.5167 39.5029 66.25L39.2829 67H38.6629V60.32H39.5029V62.82C39.6562 62.56 39.8662 62.3533 40.1329 62.2C40.3996 62.04 40.7262 61.96 41.1129 61.96C41.4929 61.96 41.8429 62.0633 42.1629 62.27C42.4896 62.47 42.7496 62.7633 42.9429 63.15C43.1429 63.53 43.2429 63.9933 43.2429 64.54C43.2429 65.0867 43.1429 65.5533 42.9429 65.94C42.7496 66.32 42.4896 66.6133 42.1629 66.82C41.8429 67.02 41.4929 67.12 41.1129 67.12ZM40.8929 66.4C41.3196 66.4 41.6596 66.2367 41.9129 65.91C42.1729 65.5833 42.3029 65.1267 42.3029 64.54C42.3029 63.9467 42.1729 63.49 41.9129 63.17C41.6596 62.8433 41.3196 62.68 40.8929 62.68C40.4662 62.68 40.1229 62.8433 39.8629 63.17C39.6096 63.49 39.4829 63.9467 39.4829 64.54C39.4829 65.1267 39.6096 65.5833 39.8629 65.91C40.1229 66.2367 40.4662 66.4 40.8929 66.4ZM45.897 67.12C45.5103 67.12 45.2003 67.04 44.967 66.88C44.7336 66.7133 44.5636 66.4867 44.457 66.2C44.357 65.9067 44.307 65.5733 44.307 65.2V62.03H45.147V65C45.147 65.3667 45.1903 65.65 45.277 65.85C45.3636 66.05 45.4836 66.19 45.637 66.27C45.797 66.3433 45.9803 66.38 46.187 66.38C46.5803 66.38 46.887 66.2433 47.107 65.97C47.3336 65.69 47.447 65.2867 47.447 64.76V62.03H48.287V67H47.657L47.447 66.28C47.307 66.52 47.117 66.72 46.877 66.88C46.637 67.04 46.3103 67.12 45.897 67.12ZM52.1383 67.12C51.7516 67.12 51.4249 67.0433 51.1583 66.89C50.8916 66.73 50.6816 66.5167 50.5283 66.25L50.3083 67H49.6883V60.32H50.5283V62.82C50.6816 62.56 50.8916 62.3533 51.1583 62.2C51.4249 62.04 51.7516 61.96 52.1383 61.96C52.5183 61.96 52.8683 62.0633 53.1883 62.27C53.5149 62.47 53.7749 62.7633 53.9683 63.15C54.1683 63.53 54.2683 63.9933 54.2683 64.54C54.2683 65.0867 54.1683 65.5533 53.9683 65.94C53.7749 66.32 53.5149 66.6133 53.1883 66.82C52.8683 67.02 52.5183 67.12 52.1383 67.12ZM51.9183 66.4C52.3449 66.4 52.6849 66.2367 52.9383 65.91C53.1983 65.5833 53.3283 65.1267 53.3283 64.54C53.3283 63.9467 53.1983 63.49 52.9383 63.17C52.6849 62.8433 52.3449 62.68 51.9183 62.68C51.4916 62.68 51.1483 62.8433 50.8883 63.17C50.6349 63.49 50.5083 63.9467 50.5083 64.54C50.5083 65.1267 50.6349 65.5833 50.8883 65.91C51.1483 66.2367 51.4916 66.4 51.9183 66.4ZM57.8023 67.12C57.4157 67.12 57.089 67.0433 56.8223 66.89C56.5557 66.73 56.3457 66.5167 56.1923 66.25L55.9723 67H55.3523V60.32H56.1923V62.82C56.3457 62.56 56.5557 62.3533 56.8223 62.2C57.089 62.04 57.4157 61.96 57.8023 61.96C58.1823 61.96 58.5323 62.0633 58.8523 62.27C59.179 62.47 59.439 62.7633 59.6323 63.15C59.8323 63.53 59.9323 63.9933 59.9323 64.54C59.9323 65.0867 59.8323 65.5533 59.6323 65.94C59.439 66.32 59.179 66.6133 58.8523 66.82C58.5323 67.02 58.1823 67.12 57.8023 67.12ZM57.5823 66.4C58.009 66.4 58.349 66.2367 58.6023 65.91C58.8623 65.5833 58.9923 65.1267 58.9923 64.54C58.9923 63.9467 58.8623 63.49 58.6023 63.17C58.349 62.8433 58.009 62.68 57.5823 62.68C57.1557 62.68 56.8123 62.8433 56.5523 63.17C56.299 63.49 56.1723 63.9467 56.1723 64.54C56.1723 65.1267 56.299 65.5833 56.5523 65.91C56.8123 66.2367 57.1557 66.4 57.5823 66.4ZM62.1864 67C61.8731 67 61.6297 66.97 61.4564 66.91C61.2897 66.8433 61.1731 66.72 61.1064 66.54C61.0464 66.36 61.0164 66.1 61.0164 65.76V60.33H61.8564V65.62C61.8564 65.8733 61.8831 66.0433 61.9364 66.13C61.9897 66.2167 62.1331 66.26 62.3664 66.26H62.5564V67H62.1864ZM65.519 67.12C64.999 67.12 64.559 67.0067 64.199 66.78C63.839 66.5467 63.5623 66.2367 63.369 65.85C63.1823 65.4567 63.089 65.0167 63.089 64.53C63.089 64.0033 63.1957 63.55 63.409 63.17C63.6223 62.7833 63.909 62.4867 64.269 62.28C64.6357 62.0667 65.0457 61.96 65.499 61.96C65.8923 61.96 66.239 62.04 66.539 62.2C66.839 62.3533 67.0857 62.5633 67.279 62.83C67.479 63.09 67.6223 63.3867 67.709 63.72C67.8023 64.0533 67.8357 64.3967 67.809 64.75H63.989C64.0023 65.1633 64.0923 65.49 64.259 65.73C64.4323 65.97 64.6357 66.14 64.869 66.24C65.1023 66.3333 65.319 66.38 65.519 66.38C65.799 66.38 66.0323 66.3367 66.219 66.25C66.4123 66.1567 66.5657 66.0367 66.679 65.89L67.489 66.13C67.309 66.4167 67.0523 66.6533 66.719 66.84C66.3857 67.0267 65.9857 67.12 65.519 67.12ZM63.999 64.08H66.919C66.919 63.8467 66.859 63.6233 66.739 63.41C66.6257 63.1967 66.4623 63.0233 66.249 62.89C66.0423 62.75 65.7923 62.68 65.499 62.68C65.2523 62.68 65.019 62.7267 64.799 62.82C64.579 62.9133 64.3957 63.0633 64.249 63.27C64.109 63.4767 64.0257 63.7467 63.999 64.08ZM17.7254 79V74.04H18.3354L18.6054 74.96C18.7787 74.66 19.0121 74.42 19.3054 74.24C19.6054 74.0533 19.9621 73.96 20.3754 73.96V74.83C20.3287 74.83 20.2787 74.83 20.2254 74.83C20.1787 74.83 20.1321 74.8333 20.0854 74.84C19.5187 74.8867 19.1221 75.0833 18.8954 75.43C18.6754 75.7767 18.5654 76.2567 18.5654 76.87V79H17.7254ZM23.2338 79.12C22.7138 79.12 22.2738 79.0067 21.9138 78.78C21.5538 78.5467 21.2772 78.2367 21.0838 77.85C20.8972 77.4567 20.8038 77.0167 20.8038 76.53C20.8038 76.0033 20.9105 75.55 21.1238 75.17C21.3372 74.7833 21.6238 74.4867 21.9838 74.28C22.3505 74.0667 22.7605 73.96 23.2138 73.96C23.6072 73.96 23.9538 74.04 24.2538 74.2C24.5538 74.3533 24.8005 74.5633 24.9938 74.83C25.1938 75.09 25.3372 75.3867 25.4238 75.72C25.5172 76.0533 25.5505 76.3967 25.5238 76.75H21.7038C21.7172 77.1633 21.8072 77.49 21.9738 77.73C22.1472 77.97 22.3505 78.14 22.5838 78.24C22.8172 78.3333 23.0338 78.38 23.2338 78.38C23.5138 78.38 23.7472 78.3367 23.9338 78.25C24.1272 78.1567 24.2805 78.0367 24.3938 77.89L25.2038 78.13C25.0238 78.4167 24.7672 78.6533 24.4338 78.84C24.1005 79.0267 23.7005 79.12 23.2338 79.12ZM21.7138 76.08H24.6338C24.6338 75.8467 24.5738 75.6233 24.4538 75.41C24.3405 75.1967 24.1772 75.0233 23.9638 74.89C23.7572 74.75 23.5072 74.68 23.2138 74.68C22.9672 74.68 22.7338 74.7267 22.5138 74.82C22.2938 74.9133 22.1105 75.0633 21.9638 75.27C21.8238 75.4767 21.7405 75.7467 21.7138 76.08ZM26.5145 80.61V74.04H27.1245L27.3545 74.82C27.5078 74.56 27.7178 74.3533 27.9845 74.2C28.2511 74.04 28.5778 73.96 28.9645 73.96C29.3445 73.96 29.6945 74.0633 30.0145 74.27C30.3411 74.47 30.6011 74.7633 30.7945 75.15C30.9945 75.53 31.0945 75.9933 31.0945 76.54C31.0945 77.08 30.9945 77.5433 30.7945 77.93C30.6011 78.3167 30.3411 78.6133 30.0145 78.82C29.6945 79.02 29.3445 79.12 28.9645 79.12C28.5778 79.12 28.2511 79.0433 27.9845 78.89C27.7178 78.73 27.5078 78.5167 27.3545 78.25V80.61H26.5145ZM28.7445 78.4C29.1711 78.4 29.5111 78.2367 29.7645 77.91C30.0245 77.5833 30.1545 77.1267 30.1545 76.54C30.1545 75.9467 30.0245 75.49 29.7645 75.17C29.5111 74.8433 29.1711 74.68 28.7445 74.68C28.3178 74.68 27.9745 74.8433 27.7145 75.17C27.4611 75.49 27.3345 75.9467 27.3345 76.54C27.3345 77.1267 27.4611 77.5833 27.7145 77.91C27.9745 78.2367 28.3178 78.4 28.7445 78.4ZM32.1785 79V74.04H32.7885L33.0585 74.96C33.2318 74.66 33.4652 74.42 33.7585 74.24C34.0585 74.0533 34.4152 73.96 34.8285 73.96V74.83C34.7818 74.83 34.7318 74.83 34.6785 74.83C34.6318 74.83 34.5852 74.8333 34.5385 74.84C33.9718 74.8867 33.5752 75.0833 33.3485 75.43C33.1285 75.7767 33.0185 76.2567 33.0185 76.87V79H32.1785ZM37.687 79.12C37.167 79.12 36.727 79.0067 36.367 78.78C36.007 78.5467 35.7303 78.2367 35.537 77.85C35.3503 77.4567 35.257 77.0167 35.257 76.53C35.257 76.0033 35.3636 75.55 35.577 75.17C35.7903 74.7833 36.077 74.4867 36.437 74.28C36.8036 74.0667 37.2136 73.96 37.667 73.96C38.0603 73.96 38.407 74.04 38.707 74.2C39.007 74.3533 39.2536 74.5633 39.447 74.83C39.647 75.09 39.7903 75.3867 39.877 75.72C39.9703 76.0533 40.0036 76.3967 39.977 76.75H36.157C36.1703 77.1633 36.2603 77.49 36.427 77.73C36.6003 77.97 36.8036 78.14 37.037 78.24C37.2703 78.3333 37.487 78.38 37.687 78.38C37.967 78.38 38.2003 78.3367 38.387 78.25C38.5803 78.1567 38.7336 78.0367 38.847 77.89L39.657 78.13C39.477 78.4167 39.2203 78.6533 38.887 78.84C38.5536 79.0267 38.1536 79.12 37.687 79.12ZM36.167 76.08H39.087C39.087 75.8467 39.027 75.6233 38.907 75.41C38.7936 75.1967 38.6303 75.0233 38.417 74.89C38.2103 74.75 37.9603 74.68 37.667 74.68C37.4203 74.68 37.187 74.7267 36.967 74.82C36.747 74.9133 36.5636 75.0633 36.417 75.27C36.277 75.4767 36.1936 75.7467 36.167 76.08ZM42.6576 79.12C42.3709 79.12 42.0876 79.0767 41.8076 78.99C41.5342 78.8967 41.2876 78.76 41.0676 78.58C40.8542 78.3933 40.6909 78.16 40.5776 77.88L41.3876 77.58C41.4609 77.8733 41.6209 78.0867 41.8676 78.22C42.1209 78.3467 42.3842 78.41 42.6576 78.41C42.8576 78.41 43.0442 78.38 43.2176 78.32C43.3976 78.26 43.5442 78.1733 43.6576 78.06C43.7709 77.9467 43.8276 77.8167 43.8276 77.67C43.8276 77.3967 43.7176 77.2033 43.4976 77.09C43.2842 76.9767 43.0276 76.89 42.7276 76.83L42.0376 76.69C41.7976 76.6367 41.5742 76.5633 41.3676 76.47C41.1609 76.37 40.9942 76.23 40.8676 76.05C40.7409 75.87 40.6776 75.63 40.6776 75.33C40.6776 75.03 40.7709 74.78 40.9576 74.58C41.1442 74.3733 41.3809 74.2167 41.6676 74.11C41.9609 74.0033 42.2676 73.95 42.5876 73.95C42.9809 73.95 43.3509 74.0333 43.6976 74.2C44.0509 74.36 44.3009 74.6133 44.4476 74.96L43.6576 75.25C43.5709 75.05 43.4176 74.9033 43.1976 74.81C42.9842 74.71 42.7609 74.66 42.5276 74.66C42.2742 74.66 42.0442 74.7167 41.8376 74.83C41.6309 74.9433 41.5276 75.1067 41.5276 75.32C41.5276 75.5333 41.6142 75.69 41.7876 75.79C41.9676 75.8833 42.1876 75.9567 42.4476 76.01L43.0976 76.14C43.3642 76.1933 43.6176 76.27 43.8576 76.37C44.0976 76.47 44.2942 76.62 44.4476 76.82C44.6009 77.0133 44.6776 77.2867 44.6776 77.64C44.6776 77.9533 44.5809 78.22 44.3876 78.44C44.1942 78.66 43.9442 78.83 43.6376 78.95C43.3309 79.0633 43.0042 79.12 42.6576 79.12ZM47.7846 79.12C47.2646 79.12 46.8246 79.0067 46.4646 78.78C46.1046 78.5467 45.8279 78.2367 45.6346 77.85C45.4479 77.4567 45.3546 77.0167 45.3546 76.53C45.3546 76.0033 45.4613 75.55 45.6746 75.17C45.8879 74.7833 46.1746 74.4867 46.5346 74.28C46.9013 74.0667 47.3113 73.96 47.7646 73.96C48.1579 73.96 48.5046 74.04 48.8046 74.2C49.1046 74.3533 49.3513 74.5633 49.5446 74.83C49.7446 75.09 49.8879 75.3867 49.9746 75.72C50.0679 76.0533 50.1013 76.3967 50.0746 76.75H46.2546C46.2679 77.1633 46.3579 77.49 46.5246 77.73C46.6979 77.97 46.9013 78.14 47.1346 78.24C47.3679 78.3333 47.5846 78.38 47.7846 78.38C48.0646 78.38 48.2979 78.3367 48.4846 78.25C48.6779 78.1567 48.8313 78.0367 48.9446 77.89L49.7546 78.13C49.5746 78.4167 49.3179 78.6533 48.9846 78.84C48.6513 79.0267 48.2513 79.12 47.7846 79.12ZM46.2646 76.08H49.1846C49.1846 75.8467 49.1246 75.6233 49.0046 75.41C48.8913 75.1967 48.7279 75.0233 48.5146 74.89C48.3079 74.75 48.0579 74.68 47.7646 74.68C47.5179 74.68 47.2846 74.7267 47.0646 74.82C46.8446 74.9133 46.6613 75.0633 46.5146 75.27C46.3746 75.4767 46.2913 75.7467 46.2646 76.08ZM51.0652 79V74.04H51.6852L51.9052 74.79C52.0452 74.5567 52.2419 74.36 52.4952 74.2C52.7486 74.04 53.0852 73.96 53.5052 73.96C54.1052 73.96 54.5286 74.1367 54.7752 74.49C55.0219 74.8367 55.1452 75.2933 55.1452 75.86V79H54.3052V76.11C54.3052 75.8567 54.2819 75.6233 54.2352 75.41C54.1886 75.19 54.0852 75.0133 53.9252 74.88C53.7719 74.7467 53.5352 74.68 53.2152 74.68C52.8086 74.68 52.4886 74.82 52.2552 75.1C52.0219 75.3733 51.9052 75.7767 51.9052 76.31V79H51.0652ZM57.9073 79C57.5939 79 57.3506 78.97 57.1773 78.91C57.0106 78.8433 56.8939 78.72 56.8273 78.54C56.7673 78.36 56.7373 78.1 56.7373 77.76V74.71H55.8973V74.04H56.7373V72.79H57.5773V74.04H58.5373V74.71H57.5773V77.62C57.5773 77.8733 57.6006 78.0433 57.6473 78.13C57.7006 78.2167 57.8473 78.26 58.0873 78.26H58.5373V79H57.9073ZM61.3295 79.12C61.0428 79.12 60.7595 79.0767 60.4795 78.99C60.2061 78.8967 59.9595 78.76 59.7395 78.58C59.5261 78.3933 59.3628 78.16 59.2495 77.88L60.0595 77.58C60.1328 77.8733 60.2928 78.0867 60.5395 78.22C60.7928 78.3467 61.0561 78.41 61.3295 78.41C61.5295 78.41 61.7161 78.38 61.8895 78.32C62.0695 78.26 62.2161 78.1733 62.3295 78.06C62.4428 77.9467 62.4995 77.8167 62.4995 77.67C62.4995 77.3967 62.3895 77.2033 62.1695 77.09C61.9561 76.9767 61.6995 76.89 61.3995 76.83L60.7095 76.69C60.4695 76.6367 60.2461 76.5633 60.0395 76.47C59.8328 76.37 59.6661 76.23 59.5395 76.05C59.4128 75.87 59.3495 75.63 59.3495 75.33C59.3495 75.03 59.4428 74.78 59.6295 74.58C59.8161 74.3733 60.0528 74.2167 60.3395 74.11C60.6328 74.0033 60.9395 73.95 61.2595 73.95C61.6528 73.95 62.0228 74.0333 62.3695 74.2C62.7228 74.36 62.9728 74.6133 63.1195 74.96L62.3295 75.25C62.2428 75.05 62.0895 74.9033 61.8695 74.81C61.6561 74.71 61.4328 74.66 61.1995 74.66C60.9461 74.66 60.7161 74.7167 60.5095 74.83C60.3028 74.9433 60.1995 75.1067 60.1995 75.32C60.1995 75.5333 60.2861 75.69 60.4595 75.79C60.6395 75.8833 60.8595 75.9567 61.1195 76.01L61.7695 76.14C62.0361 76.1933 62.2895 76.27 62.5295 76.37C62.7695 76.47 62.9661 76.62 63.1195 76.82C63.2728 77.0133 63.3495 77.2867 63.3495 77.64C63.3495 77.9533 63.2528 78.22 63.0595 78.44C62.8661 78.66 62.6161 78.83 62.3095 78.95C62.0028 79.0633 61.6761 79.12 61.3295 79.12ZM68.5392 79.12C68.2259 79.12 67.9392 79.0633 67.6792 78.95C67.4192 78.8367 67.2126 78.6733 67.0592 78.46C66.9059 78.2467 66.8292 77.99 66.8292 77.69C66.8292 77.2967 66.9659 76.9867 67.2392 76.76C67.5192 76.5333 67.9092 76.36 68.4092 76.24C68.9159 76.1133 69.5059 76.0133 70.1792 75.94C70.1926 75.52 70.1092 75.1967 69.9292 74.97C69.7492 74.7433 69.4592 74.63 69.0592 74.63C68.7592 74.63 68.5126 74.7 68.3192 74.84C68.1326 74.9733 68.0126 75.16 67.9592 75.4L67.1492 75.16C67.2826 74.78 67.5192 74.4867 67.8592 74.28C68.2059 74.0667 68.6026 73.96 69.0492 73.96C69.7359 73.96 70.2359 74.1233 70.5492 74.45C70.8692 74.77 71.0292 75.2767 71.0292 75.97V77.13C71.0292 77.5433 71.0459 77.9 71.0792 78.2C71.1126 78.5 71.1526 78.7667 71.1992 79H70.4292L70.2292 78.32C70.0826 78.5667 69.8726 78.7633 69.5992 78.91C69.3259 79.05 68.9726 79.12 68.5392 79.12ZM68.7192 78.45C68.9792 78.45 69.2259 78.4033 69.4592 78.31C69.6926 78.2167 69.8826 78.06 70.0292 77.84C70.1759 77.6133 70.2492 77.3067 70.2492 76.92V76.61C69.7426 76.6633 69.3026 76.73 68.9292 76.81C68.5559 76.8833 68.2659 76.99 68.0592 77.13C67.8592 77.2633 67.7592 77.4433 67.7592 77.67C67.7592 77.9033 67.8426 78.0933 68.0092 78.24C68.1826 78.38 68.4192 78.45 68.7192 78.45ZM72.4129 79V74.04H73.0329L73.2529 74.79C73.3929 74.5567 73.5896 74.36 73.8429 74.2C74.0962 74.04 74.4329 73.96 74.8529 73.96C75.4529 73.96 75.8762 74.1367 76.1229 74.49C76.3696 74.8367 76.4929 75.2933 76.4929 75.86V79H75.6529V76.11C75.6529 75.8567 75.6296 75.6233 75.5829 75.41C75.5362 75.19 75.4329 75.0133 75.2729 74.88C75.1196 74.7467 74.8829 74.68 74.5629 74.68C74.1562 74.68 73.8362 74.82 73.6029 75.1C73.3696 75.3733 73.2529 75.7767 73.2529 76.31V79H72.4129ZM25.4702 85.1C25.3035 85.1 25.1568 85.04 25.0302 84.92C24.9102 84.7933 24.8502 84.6433 24.8502 84.47C24.8502 84.2967 24.9102 84.15 25.0302 84.03C25.1568 83.91 25.3035 83.85 25.4702 83.85C25.6435 83.85 25.7902 83.91 25.9102 84.03C26.0368 84.15 26.1002 84.2967 26.1002 84.47C26.1002 84.6433 26.0368 84.7933 25.9102 84.92C25.7902 85.04 25.6435 85.1 25.4702 85.1ZM25.0502 91V86.71H24.3602V86.04H25.8902V91H25.0502ZM27.3934 91V86.04H28.0134L28.2334 86.79C28.3734 86.5567 28.57 86.36 28.8234 86.2C29.0767 86.04 29.4134 85.96 29.8334 85.96C30.4334 85.96 30.8567 86.1367 31.1034 86.49C31.35 86.8367 31.4734 87.2933 31.4734 87.86V91H30.6334V88.11C30.6334 87.8567 30.61 87.6233 30.5634 87.41C30.5167 87.19 30.4134 87.0133 30.2534 86.88C30.1 86.7467 29.8634 86.68 29.5434 86.68C29.1367 86.68 28.8167 86.82 28.5834 87.1C28.35 87.3733 28.2334 87.7767 28.2334 88.31V91H27.3934ZM34.5549 91.12C34.1816 91.12 33.8316 91.02 33.5049 90.82C33.1783 90.6133 32.9149 90.32 32.7149 89.94C32.5216 89.5533 32.4249 89.0867 32.4249 88.54C32.4249 87.9933 32.5216 87.53 32.7149 87.15C32.9149 86.7633 33.1783 86.47 33.5049 86.27C33.8316 86.0633 34.1816 85.96 34.5549 85.96C34.9483 85.96 35.2783 86.04 35.5449 86.2C35.8116 86.3533 36.0183 86.56 36.1649 86.82V84.32H37.0049V89.13C37.0049 89.2967 37.0116 89.5433 37.0249 89.87C37.0383 90.19 37.0883 90.5667 37.1749 91H36.3849L36.1649 90.25C36.0183 90.5167 35.8116 90.73 35.5449 90.89C35.2783 91.0433 34.9483 91.12 34.5549 91.12ZM34.7749 90.4C35.2016 90.4 35.5416 90.2367 35.7949 89.91C36.0549 89.5833 36.1849 89.1267 36.1849 88.54C36.1849 87.9467 36.0549 87.49 35.7949 87.17C35.5416 86.8433 35.2016 86.68 34.7749 86.68C34.3483 86.68 34.0049 86.8433 33.7449 87.17C33.4916 87.49 33.3649 87.9467 33.3649 88.54C33.3649 89.1267 33.4916 89.5833 33.7449 89.91C34.0049 90.2367 34.3483 90.4 34.7749 90.4ZM39.2495 85.1C39.0828 85.1 38.9361 85.04 38.8095 84.92C38.6895 84.7933 38.6295 84.6433 38.6295 84.47C38.6295 84.2967 38.6895 84.15 38.8095 84.03C38.9361 83.91 39.0828 83.85 39.2495 83.85C39.4228 83.85 39.5695 83.91 39.6895 84.03C39.8161 84.15 39.8795 84.2967 39.8795 84.47C39.8795 84.6433 39.8161 84.7933 39.6895 84.92C39.5695 85.04 39.4228 85.1 39.2495 85.1ZM38.8295 91V86.71H38.1395V86.04H39.6695V91H38.8295ZM42.2427 91L40.4727 86.04H41.3827L42.6827 89.9L43.9727 86.04H44.8827L43.1127 91H42.2427ZM46.4467 85.1C46.2801 85.1 46.1334 85.04 46.0067 84.92C45.8867 84.7933 45.8267 84.6433 45.8267 84.47C45.8267 84.2967 45.8867 84.15 46.0067 84.03C46.1334 83.91 46.2801 83.85 46.4467 83.85C46.6201 83.85 46.7667 83.91 46.8867 84.03C47.0134 84.15 47.0767 84.2967 47.0767 84.47C47.0767 84.6433 47.0134 84.7933 46.8867 84.92C46.7667 85.04 46.6201 85.1 46.4467 85.1ZM46.0267 91V86.71H45.3367V86.04H46.8667V91H46.0267ZM50.1799 91.12C49.8066 91.12 49.4566 91.02 49.1299 90.82C48.8033 90.6133 48.5399 90.32 48.3399 89.94C48.1466 89.5533 48.0499 89.0867 48.0499 88.54C48.0499 87.9933 48.1466 87.53 48.3399 87.15C48.5399 86.7633 48.8033 86.47 49.1299 86.27C49.4566 86.0633 49.8066 85.96 50.1799 85.96C50.5733 85.96 50.9033 86.04 51.1699 86.2C51.4366 86.3533 51.6433 86.56 51.7899 86.82V84.32H52.6299V89.13C52.6299 89.2967 52.6366 89.5433 52.6499 89.87C52.6633 90.19 52.7133 90.5667 52.7999 91H52.0099L51.7899 90.25C51.6433 90.5167 51.4366 90.73 51.1699 90.89C50.9033 91.0433 50.5733 91.12 50.1799 91.12ZM50.3999 90.4C50.8266 90.4 51.1666 90.2367 51.4199 89.91C51.6799 89.5833 51.8099 89.1267 51.8099 88.54C51.8099 87.9467 51.6799 87.49 51.4199 87.17C51.1666 86.8433 50.8266 86.68 50.3999 86.68C49.9733 86.68 49.6299 86.8433 49.3699 87.17C49.1166 87.49 48.9899 87.9467 48.9899 88.54C48.9899 89.1267 49.1166 89.5833 49.3699 89.91C49.6299 90.2367 49.9733 90.4 50.3999 90.4ZM55.5845 91.12C55.1978 91.12 54.8878 91.04 54.6545 90.88C54.4211 90.7133 54.2511 90.4867 54.1445 90.2C54.0445 89.9067 53.9945 89.5733 53.9945 89.2V86.03H54.8345V89C54.8345 89.3667 54.8778 89.65 54.9645 89.85C55.0511 90.05 55.1711 90.19 55.3245 90.27C55.4845 90.3433 55.6678 90.38 55.8745 90.38C56.2678 90.38 56.5745 90.2433 56.7945 89.97C57.0211 89.69 57.1345 89.2867 57.1345 88.76V86.03H57.9745V91H57.3445L57.1345 90.28C56.9945 90.52 56.8045 90.72 56.5645 90.88C56.3245 91.04 55.9978 91.12 55.5845 91.12ZM60.7658 91.12C60.4524 91.12 60.1658 91.0633 59.9058 90.95C59.6458 90.8367 59.4391 90.6733 59.2858 90.46C59.1324 90.2467 59.0558 89.99 59.0558 89.69C59.0558 89.2967 59.1924 88.9867 59.4658 88.76C59.7458 88.5333 60.1358 88.36 60.6358 88.24C61.1424 88.1133 61.7324 88.0133 62.4058 87.94C62.4191 87.52 62.3358 87.1967 62.1558 86.97C61.9758 86.7433 61.6858 86.63 61.2858 86.63C60.9858 86.63 60.7391 86.7 60.5458 86.84C60.3591 86.9733 60.2391 87.16 60.1858 87.4L59.3758 87.16C59.5091 86.78 59.7458 86.4867 60.0858 86.28C60.4324 86.0667 60.8291 85.96 61.2758 85.96C61.9624 85.96 62.4624 86.1233 62.7758 86.45C63.0958 86.77 63.2558 87.2767 63.2558 87.97V89.13C63.2558 89.5433 63.2724 89.9 63.3058 90.2C63.3391 90.5 63.3791 90.7667 63.4258 91H62.6558L62.4558 90.32C62.3091 90.5667 62.0991 90.7633 61.8258 90.91C61.5524 91.05 61.1991 91.12 60.7658 91.12ZM60.9458 90.45C61.2058 90.45 61.4524 90.4033 61.6858 90.31C61.9191 90.2167 62.1091 90.06 62.2558 89.84C62.4024 89.6133 62.4758 89.3067 62.4758 88.92V88.61C61.9691 88.6633 61.5291 88.73 61.1558 88.81C60.7824 88.8833 60.4924 88.99 60.2858 89.13C60.0858 89.2633 59.9858 89.4433 59.9858 89.67C59.9858 89.9033 60.0691 90.0933 60.2358 90.24C60.4091 90.38 60.6458 90.45 60.9458 90.45ZM65.8095 91C65.4961 91 65.2528 90.97 65.0795 90.91C64.9128 90.8433 64.7961 90.72 64.7295 90.54C64.6695 90.36 64.6395 90.1 64.6395 89.76V84.33H65.4795V89.62C65.4795 89.8733 65.5061 90.0433 65.5595 90.13C65.6128 90.2167 65.7561 90.26 65.9895 90.26H66.1795V91H65.8095ZM68.722 91.12C68.4354 91.12 68.152 91.0767 67.872 90.99C67.5987 90.8967 67.352 90.76 67.132 90.58C66.9187 90.3933 66.7554 90.16 66.642 89.88L67.452 89.58C67.5254 89.8733 67.6854 90.0867 67.932 90.22C68.1854 90.3467 68.4487 90.41 68.722 90.41C68.922 90.41 69.1087 90.38 69.282 90.32C69.462 90.26 69.6087 90.1733 69.722 90.06C69.8354 89.9467 69.892 89.8167 69.892 89.67C69.892 89.3967 69.782 89.2033 69.562 89.09C69.3487 88.9767 69.092 88.89 68.792 88.83L68.102 88.69C67.862 88.6367 67.6387 88.5633 67.432 88.47C67.2254 88.37 67.0587 88.23 66.932 88.05C66.8054 87.87 66.742 87.63 66.742 87.33C66.742 87.03 66.8354 86.78 67.022 86.58C67.2087 86.3733 67.4454 86.2167 67.732 86.11C68.0254 86.0033 68.332 85.95 68.652 85.95C69.0454 85.95 69.4154 86.0333 69.762 86.2C70.1154 86.36 70.3654 86.6133 70.512 86.96L69.722 87.25C69.6354 87.05 69.482 86.9033 69.262 86.81C69.0487 86.71 68.8254 86.66 68.592 86.66C68.3387 86.66 68.1087 86.7167 67.902 86.83C67.6954 86.9433 67.592 87.1067 67.592 87.32C67.592 87.5333 67.6787 87.69 67.852 87.79C68.032 87.8833 68.252 87.9567 68.512 88.01L69.162 88.14C69.4287 88.1933 69.682 88.27 69.922 88.37C70.162 88.47 70.3587 88.62 70.512 88.82C70.6654 89.0133 70.742 89.2867 70.742 89.64C70.742 89.9533 70.6454 90.22 70.452 90.44C70.2587 90.66 70.0087 90.83 69.702 90.95C69.3954 91.0633 69.0687 91.12 68.722 91.12ZM72.0591 91.12C71.8857 91.12 71.7357 91.0567 71.6091 90.93C71.4824 90.8033 71.4191 90.6533 71.4191 90.48C71.4191 90.3 71.4824 90.1467 71.6091 90.02C71.7357 89.8933 71.8857 89.83 72.0591 89.83C72.2391 89.83 72.3924 89.8933 72.5191 90.02C72.6457 90.1467 72.7091 90.3 72.7091 90.48C72.7091 90.6533 72.6457 90.8033 72.5191 90.93C72.3924 91.0567 72.2391 91.12 72.0591 91.12Z" fill="black"/>
<circle cx="48.5" cy="33.5" r="17" fill="#FCF4E9" stroke="black"/>
<path d="M218.369 67.12C218.003 67.12 217.646 67.0633 217.299 66.95C216.953 66.8367 216.646 66.6633 216.379 66.43C216.119 66.1967 215.929 65.9 215.809 65.54L216.679 65.28C216.759 65.52 216.889 65.72 217.069 65.88C217.249 66.0333 217.456 66.1467 217.689 66.22C217.929 66.2933 218.169 66.33 218.409 66.33C218.676 66.33 218.929 66.2867 219.169 66.2C219.409 66.1133 219.603 65.9833 219.749 65.81C219.903 65.63 219.979 65.4067 219.979 65.14C219.979 64.8667 219.879 64.65 219.679 64.49C219.479 64.33 219.133 64.1867 218.639 64.06L217.789 63.87C217.483 63.79 217.179 63.6833 216.879 63.55C216.586 63.4167 216.343 63.2267 216.149 62.98C215.963 62.7333 215.869 62.4033 215.869 61.99C215.869 61.61 215.986 61.2867 216.219 61.02C216.459 60.7533 216.766 60.55 217.139 60.41C217.519 60.27 217.913 60.2 218.319 60.2C218.633 60.2 218.939 60.2467 219.239 60.34C219.546 60.4267 219.819 60.5633 220.059 60.75C220.306 60.93 220.499 61.1633 220.639 61.45L219.779 61.7C219.653 61.4667 219.446 61.29 219.159 61.17C218.879 61.05 218.586 60.99 218.279 60.99C218.039 60.99 217.809 61.03 217.589 61.11C217.369 61.1833 217.189 61.2967 217.049 61.45C216.909 61.6033 216.839 61.7967 216.839 62.03C216.839 62.25 216.903 62.4267 217.029 62.56C217.163 62.6933 217.336 62.8 217.549 62.88C217.769 62.9533 218.009 63.02 218.269 63.08L218.999 63.24C219.339 63.32 219.659 63.43 219.959 63.57C220.259 63.71 220.503 63.9067 220.689 64.16C220.876 64.4133 220.969 64.7533 220.969 65.18C220.969 65.4867 220.896 65.7633 220.749 66.01C220.603 66.25 220.406 66.4533 220.159 66.62C219.913 66.78 219.633 66.9033 219.319 66.99C219.013 67.0767 218.696 67.12 218.369 67.12ZM224.176 67.12C223.656 67.12 223.216 67.0067 222.856 66.78C222.496 66.5467 222.22 66.2367 222.026 65.85C221.84 65.4567 221.746 65.0167 221.746 64.53C221.746 64.0033 221.853 63.55 222.066 63.17C222.28 62.7833 222.566 62.4867 222.926 62.28C223.293 62.0667 223.703 61.96 224.156 61.96C224.55 61.96 224.896 62.04 225.196 62.2C225.496 62.3533 225.743 62.5633 225.936 62.83C226.136 63.09 226.28 63.3867 226.366 63.72C226.46 64.0533 226.493 64.3967 226.466 64.75H222.646C222.66 65.1633 222.75 65.49 222.916 65.73C223.09 65.97 223.293 66.14 223.526 66.24C223.76 66.3333 223.976 66.38 224.176 66.38C224.456 66.38 224.69 66.3367 224.876 66.25C225.07 66.1567 225.223 66.0367 225.336 65.89L226.146 66.13C225.966 66.4167 225.71 66.6533 225.376 66.84C225.043 67.0267 224.643 67.12 224.176 67.12ZM222.656 64.08H225.576C225.576 63.8467 225.516 63.6233 225.396 63.41C225.283 63.1967 225.12 63.0233 224.906 62.89C224.7 62.75 224.45 62.68 224.156 62.68C223.91 62.68 223.676 62.7267 223.456 62.82C223.236 62.9133 223.053 63.0633 222.906 63.27C222.766 63.4767 222.683 63.7467 222.656 64.08ZM228.627 67C228.314 67 228.07 66.97 227.897 66.91C227.73 66.8433 227.614 66.72 227.547 66.54C227.487 66.36 227.457 66.1 227.457 65.76V60.33H228.297V65.62C228.297 65.8733 228.324 66.0433 228.377 66.13C228.43 66.2167 228.574 66.26 228.807 66.26H228.997V67H228.627ZM231.959 67.12C231.439 67.12 230.999 67.0067 230.639 66.78C230.279 66.5467 230.003 66.2367 229.809 65.85C229.623 65.4567 229.529 65.0167 229.529 64.53C229.529 64.0033 229.636 63.55 229.849 63.17C230.063 62.7833 230.349 62.4867 230.709 62.28C231.076 62.0667 231.486 61.96 231.939 61.96C232.333 61.96 232.679 62.04 232.979 62.2C233.279 62.3533 233.526 62.5633 233.719 62.83C233.919 63.09 234.063 63.3867 234.149 63.72C234.243 64.0533 234.276 64.3967 234.249 64.75H230.429C230.443 65.1633 230.533 65.49 230.699 65.73C230.873 65.97 231.076 66.14 231.309 66.24C231.543 66.3333 231.759 66.38 231.959 66.38C232.239 66.38 232.473 66.3367 232.659 66.25C232.853 66.1567 233.006 66.0367 233.119 65.89L233.929 66.13C233.749 66.4167 233.493 66.6533 233.159 66.84C232.826 67.0267 232.426 67.12 231.959 67.12ZM230.439 64.08H233.359C233.359 63.8467 233.299 63.6233 233.179 63.41C233.066 63.1967 232.903 63.0233 232.689 62.89C232.483 62.75 232.233 62.68 231.939 62.68C231.693 62.68 231.459 62.7267 231.239 62.82C231.019 62.9133 230.836 63.0633 230.689 63.27C230.549 63.4767 230.466 63.7467 230.439 64.08ZM237.23 67.12C236.757 67.12 236.347 67.01 236 66.79C235.653 66.5633 235.387 66.2567 235.2 65.87C235.013 65.4833 234.92 65.04 234.92 64.54C234.92 64.0467 235.017 63.6067 235.21 63.22C235.41 62.8267 235.69 62.52 236.05 62.3C236.41 62.0733 236.833 61.96 237.32 61.96C237.767 61.96 238.15 62.07 238.47 62.29C238.79 62.51 239.03 62.7733 239.19 63.08L238.42 63.36C238.313 63.16 238.157 63 237.95 62.88C237.743 62.76 237.513 62.7 237.26 62.7C237.013 62.7 236.78 62.7667 236.56 62.9C236.34 63.0267 236.163 63.2267 236.03 63.5C235.897 63.7667 235.83 64.11 235.83 64.53C235.83 64.9433 235.897 65.29 236.03 65.57C236.17 65.8433 236.347 66.0467 236.56 66.18C236.78 66.3133 237.013 66.38 237.26 66.38C237.533 66.38 237.77 66.32 237.97 66.2C238.177 66.0733 238.333 65.9167 238.44 65.73L239.21 66.01C239.023 66.33 238.757 66.5967 238.41 66.81C238.063 67.0167 237.67 67.12 237.23 67.12ZM241.75 67C241.437 67 241.193 66.97 241.02 66.91C240.853 66.8433 240.737 66.72 240.67 66.54C240.61 66.36 240.58 66.1 240.58 65.76V62.71H239.74V62.04H240.58V60.79H241.42V62.04H242.38V62.71H241.42V65.62C241.42 65.8733 241.443 66.0433 241.49 66.13C241.543 66.2167 241.69 66.26 241.93 66.26H242.38V67H241.75ZM247.675 67.12C247.362 67.12 247.075 67.0633 246.815 66.95C246.555 66.8367 246.348 66.6733 246.195 66.46C246.042 66.2467 245.965 65.99 245.965 65.69C245.965 65.2967 246.102 64.9867 246.375 64.76C246.655 64.5333 247.045 64.36 247.545 64.24C248.052 64.1133 248.642 64.0133 249.315 63.94C249.328 63.52 249.245 63.1967 249.065 62.97C248.885 62.7433 248.595 62.63 248.195 62.63C247.895 62.63 247.648 62.7 247.455 62.84C247.268 62.9733 247.148 63.16 247.095 63.4L246.285 63.16C246.418 62.78 246.655 62.4867 246.995 62.28C247.342 62.0667 247.738 61.96 248.185 61.96C248.872 61.96 249.372 62.1233 249.685 62.45C250.005 62.77 250.165 63.2767 250.165 63.97V65.13C250.165 65.5433 250.182 65.9 250.215 66.2C250.248 66.5 250.288 66.7667 250.335 67H249.565L249.365 66.32C249.218 66.5667 249.008 66.7633 248.735 66.91C248.462 67.05 248.108 67.12 247.675 67.12ZM247.855 66.45C248.115 66.45 248.362 66.4033 248.595 66.31C248.828 66.2167 249.018 66.06 249.165 65.84C249.312 65.6133 249.385 65.3067 249.385 64.92V64.61C248.878 64.6633 248.438 64.73 248.065 64.81C247.692 64.8833 247.402 64.99 247.195 65.13C246.995 65.2633 246.895 65.4433 246.895 65.67C246.895 65.9033 246.978 66.0933 247.145 66.24C247.318 66.38 247.555 66.45 247.855 66.45ZM256.801 67.12C256.415 67.12 256.088 67.0433 255.821 66.89C255.555 66.73 255.345 66.5167 255.191 66.25L254.971 67H254.351V60.32H255.191V62.82C255.345 62.56 255.555 62.3533 255.821 62.2C256.088 62.04 256.415 61.96 256.801 61.96C257.181 61.96 257.531 62.0633 257.851 62.27C258.178 62.47 258.438 62.7633 258.631 63.15C258.831 63.53 258.931 63.9933 258.931 64.54C258.931 65.0867 258.831 65.5533 258.631 65.94C258.438 66.32 258.178 66.6133 257.851 66.82C257.531 67.02 257.181 67.12 256.801 67.12ZM256.581 66.4C257.008 66.4 257.348 66.2367 257.601 65.91C257.861 65.5833 257.991 65.1267 257.991 64.54C257.991 63.9467 257.861 63.49 257.601 63.17C257.348 62.8433 257.008 62.68 256.581 62.68C256.155 62.68 255.811 62.8433 255.551 63.17C255.298 63.49 255.171 63.9467 255.171 64.54C255.171 65.1267 255.298 65.5833 255.551 65.91C255.811 66.2367 256.155 66.4 256.581 66.4ZM261.585 67.12C261.199 67.12 260.889 67.04 260.655 66.88C260.422 66.7133 260.252 66.4867 260.145 66.2C260.045 65.9067 259.995 65.5733 259.995 65.2V62.03H260.835V65C260.835 65.3667 260.879 65.65 260.965 65.85C261.052 66.05 261.172 66.19 261.325 66.27C261.485 66.3433 261.669 66.38 261.875 66.38C262.269 66.38 262.575 66.2433 262.795 65.97C263.022 65.69 263.135 65.2867 263.135 64.76V62.03H263.975V67H263.345L263.135 66.28C262.995 66.52 262.805 66.72 262.565 66.88C262.325 67.04 261.999 67.12 261.585 67.12ZM267.827 67.12C267.44 67.12 267.113 67.0433 266.847 66.89C266.58 66.73 266.37 66.5167 266.217 66.25L265.997 67H265.377V60.32H266.217V62.82C266.37 62.56 266.58 62.3533 266.847 62.2C267.113 62.04 267.44 61.96 267.827 61.96C268.207 61.96 268.557 62.0633 268.877 62.27C269.203 62.47 269.463 62.7633 269.657 63.15C269.857 63.53 269.957 63.9933 269.957 64.54C269.957 65.0867 269.857 65.5533 269.657 65.94C269.463 66.32 269.203 66.6133 268.877 66.82C268.557 67.02 268.207 67.12 267.827 67.12ZM267.607 66.4C268.033 66.4 268.373 66.2367 268.627 65.91C268.887 65.5833 269.017 65.1267 269.017 64.54C269.017 63.9467 268.887 63.49 268.627 63.17C268.373 62.8433 268.033 62.68 267.607 62.68C267.18 62.68 266.837 62.8433 266.577 63.17C266.323 63.49 266.197 63.9467 266.197 64.54C266.197 65.1267 266.323 65.5833 266.577 65.91C266.837 66.2367 267.18 66.4 267.607 66.4ZM273.491 67.12C273.104 67.12 272.777 67.0433 272.511 66.89C272.244 66.73 272.034 66.5167 271.881 66.25L271.661 67H271.041V60.32H271.881V62.82C272.034 62.56 272.244 62.3533 272.511 62.2C272.777 62.04 273.104 61.96 273.491 61.96C273.871 61.96 274.221 62.0633 274.541 62.27C274.867 62.47 275.127 62.7633 275.321 63.15C275.521 63.53 275.621 63.9933 275.621 64.54C275.621 65.0867 275.521 65.5533 275.321 65.94C275.127 66.32 274.867 66.6133 274.541 66.82C274.221 67.02 273.871 67.12 273.491 67.12ZM273.271 66.4C273.697 66.4 274.037 66.2367 274.291 65.91C274.551 65.5833 274.681 65.1267 274.681 64.54C274.681 63.9467 274.551 63.49 274.291 63.17C274.037 62.8433 273.697 62.68 273.271 62.68C272.844 62.68 272.501 62.8433 272.241 63.17C271.987 63.49 271.861 63.9467 271.861 64.54C271.861 65.1267 271.987 65.5833 272.241 65.91C272.501 66.2367 272.844 66.4 273.271 66.4ZM277.875 67C277.562 67 277.318 66.97 277.145 66.91C276.978 66.8433 276.862 66.72 276.795 66.54C276.735 66.36 276.705 66.1 276.705 65.76V60.33H277.545V65.62C277.545 65.8733 277.572 66.0433 277.625 66.13C277.678 66.2167 277.822 66.26 278.055 66.26H278.245V67H277.875ZM281.207 67.12C280.687 67.12 280.247 67.0067 279.887 66.78C279.527 66.5467 279.251 66.2367 279.057 65.85C278.871 65.4567 278.777 65.0167 278.777 64.53C278.777 64.0033 278.884 63.55 279.097 63.17C279.311 62.7833 279.597 62.4867 279.957 62.28C280.324 62.0667 280.734 61.96 281.187 61.96C281.581 61.96 281.927 62.04 282.227 62.2C282.527 62.3533 282.774 62.5633 282.967 62.83C283.167 63.09 283.311 63.3867 283.397 63.72C283.491 64.0533 283.524 64.3967 283.497 64.75H279.677C279.691 65.1633 279.781 65.49 279.947 65.73C280.121 65.97 280.324 66.14 280.557 66.24C280.791 66.3333 281.007 66.38 281.207 66.38C281.487 66.38 281.721 66.3367 281.907 66.25C282.101 66.1567 282.254 66.0367 282.367 65.89L283.177 66.13C282.997 66.4167 282.741 66.6533 282.407 66.84C282.074 67.0267 281.674 67.12 281.207 67.12ZM279.687 64.08H282.607C282.607 63.8467 282.547 63.6233 282.427 63.41C282.314 63.1967 282.151 63.0233 281.937 62.89C281.731 62.75 281.481 62.68 281.187 62.68C280.941 62.68 280.707 62.7267 280.487 62.82C280.267 62.9133 280.084 63.0633 279.937 63.27C279.797 63.4767 279.714 63.7467 279.687 64.08ZM231.247 79C230.934 79 230.69 78.97 230.517 78.91C230.35 78.8433 230.234 78.72 230.167 78.54C230.107 78.36 230.077 78.1 230.077 77.76V74.71H229.237V74.04H230.077V72.79H230.917V74.04H231.877V74.71H230.917V77.62C230.917 77.8733 230.94 78.0433 230.987 78.13C231.04 78.2167 231.187 78.26 231.427 78.26H231.877V79H231.247ZM235.039 79.12C234.753 79.12 234.469 79.07 234.189 78.97C233.909 78.87 233.653 78.7167 233.419 78.51C233.193 78.2967 233.009 78.0267 232.869 77.7C232.729 77.3733 232.659 76.9867 232.659 76.54C232.659 76.0933 232.729 75.7067 232.869 75.38C233.009 75.0533 233.193 74.7867 233.419 74.58C233.653 74.3667 233.909 74.21 234.189 74.11C234.469 74.01 234.753 73.96 235.039 73.96C235.326 73.96 235.609 74.01 235.889 74.11C236.176 74.21 236.433 74.3667 236.659 74.58C236.893 74.7867 237.076 75.0533 237.209 75.38C237.349 75.7067 237.419 76.0933 237.419 76.54C237.419 76.9867 237.349 77.3733 237.209 77.7C237.076 78.0267 236.893 78.2967 236.659 78.51C236.433 78.7167 236.176 78.87 235.889 78.97C235.609 79.07 235.326 79.12 235.039 79.12ZM235.039 78.38C235.279 78.38 235.513 78.3167 235.739 78.19C235.966 78.0567 236.153 77.8567 236.299 77.59C236.446 77.3167 236.519 76.9667 236.519 76.54C236.519 76.1133 236.446 75.7667 236.299 75.5C236.153 75.2267 235.966 75.0267 235.739 74.9C235.513 74.7667 235.279 74.7 235.039 74.7C234.806 74.7 234.573 74.7667 234.339 74.9C234.113 75.0267 233.926 75.2267 233.779 75.5C233.633 75.7667 233.559 76.1133 233.559 76.54C233.559 76.9667 233.633 77.3167 233.779 77.59C233.926 77.8567 234.113 78.0567 234.339 78.19C234.573 78.3167 234.806 78.38 235.039 78.38ZM243.41 79.12C242.89 79.12 242.45 79.0067 242.09 78.78C241.73 78.5467 241.453 78.2367 241.26 77.85C241.073 77.4567 240.98 77.0167 240.98 76.53C240.98 76.0033 241.086 75.55 241.3 75.17C241.513 74.7833 241.8 74.4867 242.16 74.28C242.526 74.0667 242.936 73.96 243.39 73.96C243.783 73.96 244.13 74.04 244.43 74.2C244.73 74.3533 244.976 74.5633 245.17 74.83C245.37 75.09 245.513 75.3867 245.6 75.72C245.693 76.0533 245.726 76.3967 245.7 76.75H241.88C241.893 77.1633 241.983 77.49 242.15 77.73C242.323 77.97 242.526 78.14 242.76 78.24C242.993 78.3333 243.21 78.38 243.41 78.38C243.69 78.38 243.923 78.3367 244.11 78.25C244.303 78.1567 244.456 78.0367 244.57 77.89L245.38 78.13C245.2 78.4167 244.943 78.6533 244.61 78.84C244.276 79.0267 243.876 79.12 243.41 79.12ZM241.89 76.08H244.81C244.81 75.8467 244.75 75.6233 244.63 75.41C244.516 75.1967 244.353 75.0233 244.14 74.89C243.933 74.75 243.683 74.68 243.39 74.68C243.143 74.68 242.91 74.7267 242.69 74.82C242.47 74.9133 242.286 75.0633 242.14 75.27C242 75.4767 241.916 75.7467 241.89 76.08ZM245.99 79L247.8 76.45L246.08 74.04H247.07L248.29 75.76L249.52 74.04H250.51L248.79 76.45L250.6 79H249.61L248.29 77.15L246.98 79H245.99ZM251.3 80.61V74.04H251.91L252.14 74.82C252.293 74.56 252.503 74.3533 252.77 74.2C253.036 74.04 253.363 73.96 253.75 73.96C254.13 73.96 254.48 74.0633 254.8 74.27C255.126 74.47 255.386 74.7633 255.58 75.15C255.78 75.53 255.88 75.9933 255.88 76.54C255.88 77.08 255.78 77.5433 255.58 77.93C255.386 78.3167 255.126 78.6133 254.8 78.82C254.48 79.02 254.13 79.12 253.75 79.12C253.363 79.12 253.036 79.0433 252.77 78.89C252.503 78.73 252.293 78.5167 252.14 78.25V80.61H251.3ZM253.53 78.4C253.956 78.4 254.296 78.2367 254.55 77.91C254.81 77.5833 254.94 77.1267 254.94 76.54C254.94 75.9467 254.81 75.49 254.55 75.17C254.296 74.8433 253.956 74.68 253.53 74.68C253.103 74.68 252.76 74.8433 252.5 75.17C252.246 75.49 252.12 75.9467 252.12 76.54C252.12 77.1267 252.246 77.5833 252.5 77.91C252.76 78.2367 253.103 78.4 253.53 78.4ZM258.134 79C257.82 79 257.577 78.97 257.404 78.91C257.237 78.8433 257.12 78.72 257.054 78.54C256.994 78.36 256.964 78.1 256.964 77.76V72.33H257.804V77.62C257.804 77.8733 257.83 78.0433 257.884 78.13C257.937 78.2167 258.08 78.26 258.314 78.26H258.504V79H258.134ZM261.416 79.12C261.13 79.12 260.846 79.07 260.566 78.97C260.286 78.87 260.03 78.7167 259.796 78.51C259.57 78.2967 259.386 78.0267 259.246 77.7C259.106 77.3733 259.036 76.9867 259.036 76.54C259.036 76.0933 259.106 75.7067 259.246 75.38C259.386 75.0533 259.57 74.7867 259.796 74.58C260.03 74.3667 260.286 74.21 260.566 74.11C260.846 74.01 261.13 73.96 261.416 73.96C261.703 73.96 261.986 74.01 262.266 74.11C262.553 74.21 262.81 74.3667 263.036 74.58C263.27 74.7867 263.453 75.0533 263.586 75.38C263.726 75.7067 263.796 76.0933 263.796 76.54C263.796 76.9867 263.726 77.3733 263.586 77.7C263.453 78.0267 263.27 78.2967 263.036 78.51C262.81 78.7167 262.553 78.87 262.266 78.97C261.986 79.07 261.703 79.12 261.416 79.12ZM261.416 78.38C261.656 78.38 261.89 78.3167 262.116 78.19C262.343 78.0567 262.53 77.8567 262.676 77.59C262.823 77.3167 262.896 76.9667 262.896 76.54C262.896 76.1133 262.823 75.7667 262.676 75.5C262.53 75.2267 262.343 75.0267 262.116 74.9C261.89 74.7667 261.656 74.7 261.416 74.7C261.183 74.7 260.95 74.7667 260.716 74.9C260.49 75.0267 260.303 75.2267 260.156 75.5C260.01 75.7667 259.936 76.1133 259.936 76.54C259.936 76.9667 260.01 77.3167 260.156 77.59C260.303 77.8567 260.49 78.0567 260.716 78.19C260.95 78.3167 261.183 78.38 261.416 78.38ZM264.874 79V74.04H265.484L265.754 74.96C265.927 74.66 266.16 74.42 266.454 74.24C266.754 74.0533 267.11 73.96 267.524 73.96V74.83C267.477 74.83 267.427 74.83 267.374 74.83C267.327 74.83 267.28 74.8333 267.234 74.84C266.667 74.8867 266.27 75.0833 266.044 75.43C265.824 75.7767 265.714 76.2567 265.714 76.87V79H264.874ZM270.382 79.12C269.862 79.12 269.422 79.0067 269.062 78.78C268.702 78.5467 268.426 78.2367 268.232 77.85C268.046 77.4567 267.952 77.0167 267.952 76.53C267.952 76.0033 268.059 75.55 268.272 75.17C268.486 74.7833 268.772 74.4867 269.132 74.28C269.499 74.0667 269.909 73.96 270.362 73.96C270.756 73.96 271.102 74.04 271.402 74.2C271.702 74.3533 271.949 74.5633 272.142 74.83C272.342 75.09 272.486 75.3867 272.572 75.72C272.666 76.0533 272.699 76.3967 272.672 76.75H268.852C268.866 77.1633 268.956 77.49 269.122 77.73C269.296 77.97 269.499 78.14 269.732 78.24C269.966 78.3333 270.182 78.38 270.382 78.38C270.662 78.38 270.896 78.3367 271.082 78.25C271.276 78.1567 271.429 78.0367 271.542 77.89L272.352 78.13C272.172 78.4167 271.916 78.6533 271.582 78.84C271.249 79.0267 270.849 79.12 270.382 79.12ZM268.862 76.08H271.782C271.782 75.8467 271.722 75.6233 271.602 75.41C271.489 75.1967 271.326 75.0233 271.112 74.89C270.906 74.75 270.656 74.68 270.362 74.68C270.116 74.68 269.882 74.7267 269.662 74.82C269.442 74.9133 269.259 75.0633 269.112 75.27C268.972 75.4767 268.889 75.7467 268.862 76.08ZM228.6 85.1C228.433 85.1 228.287 85.04 228.16 84.92C228.04 84.7933 227.98 84.6433 227.98 84.47C227.98 84.2967 228.04 84.15 228.16 84.03C228.287 83.91 228.433 83.85 228.6 83.85C228.773 83.85 228.92 83.91 229.04 84.03C229.167 84.15 229.23 84.2967 229.23 84.47C229.23 84.6433 229.167 84.7933 229.04 84.92C228.92 85.04 228.773 85.1 228.6 85.1ZM228.18 91V86.71H227.49V86.04H229.02V91H228.18ZM232.033 91C231.72 91 231.477 90.97 231.303 90.91C231.137 90.8433 231.02 90.72 230.953 90.54C230.893 90.36 230.863 90.1 230.863 89.76V86.71H230.023V86.04H230.863V84.79H231.703V86.04H232.663V86.71H231.703V89.62C231.703 89.8733 231.727 90.0433 231.773 90.13C231.827 90.2167 231.973 90.26 232.213 90.26H232.663V91H232.033ZM235.455 91.12C235.169 91.12 234.885 91.0767 234.605 90.99C234.332 90.8967 234.085 90.76 233.865 90.58C233.652 90.3933 233.489 90.16 233.375 89.88L234.185 89.58C234.259 89.8733 234.419 90.0867 234.665 90.22C234.919 90.3467 235.182 90.41 235.455 90.41C235.655 90.41 235.842 90.38 236.015 90.32C236.195 90.26 236.342 90.1733 236.455 90.06C236.569 89.9467 236.625 89.8167 236.625 89.67C236.625 89.3967 236.515 89.2033 236.295 89.09C236.082 88.9767 235.825 88.89 235.525 88.83L234.835 88.69C234.595 88.6367 234.372 88.5633 234.165 88.47C233.959 88.37 233.792 88.23 233.665 88.05C233.539 87.87 233.475 87.63 233.475 87.33C233.475 87.03 233.569 86.78 233.755 86.58C233.942 86.3733 234.179 86.2167 234.465 86.11C234.759 86.0033 235.065 85.95 235.385 85.95C235.779 85.95 236.149 86.0333 236.495 86.2C236.849 86.36 237.099 86.6133 237.245 86.96L236.455 87.25C236.369 87.05 236.215 86.9033 235.995 86.81C235.782 86.71 235.559 86.66 235.325 86.66C235.072 86.66 234.842 86.7167 234.635 86.83C234.429 86.9433 234.325 87.1067 234.325 87.32C234.325 87.5333 234.412 87.69 234.585 87.79C234.765 87.8833 234.985 87.9567 235.245 88.01L235.895 88.14C236.162 88.1933 236.415 88.27 236.655 88.37C236.895 88.47 237.092 88.62 237.245 88.82C237.399 89.0133 237.475 89.2867 237.475 89.64C237.475 89.9533 237.379 90.22 237.185 90.44C236.992 90.66 236.742 90.83 236.435 90.95C236.129 91.0633 235.802 91.12 235.455 91.12ZM242.665 91.12C242.352 91.12 242.065 91.0633 241.805 90.95C241.545 90.8367 241.339 90.6733 241.185 90.46C241.032 90.2467 240.955 89.99 240.955 89.69C240.955 89.2967 241.092 88.9867 241.365 88.76C241.645 88.5333 242.035 88.36 242.535 88.24C243.042 88.1133 243.632 88.0133 244.305 87.94C244.319 87.52 244.235 87.1967 244.055 86.97C243.875 86.7433 243.585 86.63 243.185 86.63C242.885 86.63 242.639 86.7 242.445 86.84C242.259 86.9733 242.139 87.16 242.085 87.4L241.275 87.16C241.409 86.78 241.645 86.4867 241.985 86.28C242.332 86.0667 242.729 85.96 243.175 85.96C243.862 85.96 244.362 86.1233 244.675 86.45C244.995 86.77 245.155 87.2767 245.155 87.97V89.13C245.155 89.5433 245.172 89.9 245.205 90.2C245.239 90.5 245.279 90.7667 245.325 91H244.555L244.355 90.32C244.209 90.5667 243.999 90.7633 243.725 90.91C243.452 91.05 243.099 91.12 242.665 91.12ZM242.845 90.45C243.105 90.45 243.352 90.4033 243.585 90.31C243.819 90.2167 244.009 90.06 244.155 89.84C244.302 89.6133 244.375 89.3067 244.375 88.92V88.61C243.869 88.6633 243.429 88.73 243.055 88.81C242.682 88.8833 242.392 88.99 242.185 89.13C241.985 89.2633 241.885 89.4433 241.885 89.67C241.885 89.9033 241.969 90.0933 242.135 90.24C242.309 90.38 242.545 90.45 242.845 90.45ZM246.539 91V86.04H247.149L247.419 86.96C247.592 86.66 247.826 86.42 248.119 86.24C248.419 86.0533 248.776 85.96 249.189 85.96V86.83C249.142 86.83 249.092 86.83 249.039 86.83C248.992 86.83 248.946 86.8333 248.899 86.84C248.332 86.8867 247.936 87.0833 247.709 87.43C247.489 87.7767 247.379 88.2567 247.379 88.87V91H246.539ZM251.604 91C251.29 91 251.047 90.97 250.874 90.91C250.707 90.8433 250.59 90.72 250.524 90.54C250.464 90.36 250.434 90.1 250.434 89.76V86.71H249.594V86.04H250.434V84.79H251.274V86.04H252.234V86.71H251.274V89.62C251.274 89.8733 251.297 90.0433 251.344 90.13C251.397 90.2167 251.544 90.26 251.784 90.26H252.234V91H251.604ZM254.196 85.1C254.029 85.1 253.882 85.04 253.756 84.92C253.636 84.7933 253.576 84.6433 253.576 84.47C253.576 84.2967 253.636 84.15 253.756 84.03C253.882 83.91 254.029 83.85 254.196 83.85C254.369 83.85 254.516 83.91 254.636 84.03C254.762 84.15 254.826 84.2967 254.826 84.47C254.826 84.6433 254.762 84.7933 254.636 84.92C254.516 85.04 254.369 85.1 254.196 85.1ZM253.776 91V86.71H253.086V86.04H254.616V91H253.776ZM258.109 91.12C257.636 91.12 257.226 91.01 256.879 90.79C256.532 90.5633 256.266 90.2567 256.079 89.87C255.892 89.4833 255.799 89.04 255.799 88.54C255.799 88.0467 255.896 87.6067 256.089 87.22C256.289 86.8267 256.569 86.52 256.929 86.3C257.289 86.0733 257.712 85.96 258.199 85.96C258.646 85.96 259.029 86.07 259.349 86.29C259.669 86.51 259.909 86.7733 260.069 87.08L259.299 87.36C259.192 87.16 259.036 87 258.829 86.88C258.622 86.76 258.392 86.7 258.139 86.7C257.892 86.7 257.659 86.7667 257.439 86.9C257.219 87.0267 257.042 87.2267 256.909 87.5C256.776 87.7667 256.709 88.11 256.709 88.53C256.709 88.9433 256.776 89.29 256.909 89.57C257.049 89.8433 257.226 90.0467 257.439 90.18C257.659 90.3133 257.892 90.38 258.139 90.38C258.412 90.38 258.649 90.32 258.849 90.2C259.056 90.0733 259.212 89.9167 259.319 89.73L260.089 90.01C259.902 90.33 259.636 90.5967 259.289 90.81C258.942 91.0167 258.549 91.12 258.109 91.12ZM262.289 91C261.976 91 261.732 90.97 261.559 90.91C261.392 90.8433 261.276 90.72 261.209 90.54C261.149 90.36 261.119 90.1 261.119 89.76V84.33H261.959V89.62C261.959 89.8733 261.986 90.0433 262.039 90.13C262.092 90.2167 262.236 90.26 262.469 90.26H262.659V91H262.289ZM265.622 91.12C265.102 91.12 264.662 91.0067 264.302 90.78C263.942 90.5467 263.665 90.2367 263.472 89.85C263.285 89.4567 263.192 89.0167 263.192 88.53C263.192 88.0033 263.298 87.55 263.512 87.17C263.725 86.7833 264.012 86.4867 264.372 86.28C264.738 86.0667 265.148 85.96 265.602 85.96C265.995 85.96 266.342 86.04 266.642 86.2C266.942 86.3533 267.188 86.5633 267.382 86.83C267.582 87.09 267.725 87.3867 267.812 87.72C267.905 88.0533 267.938 88.3967 267.912 88.75H264.092C264.105 89.1633 264.195 89.49 264.362 89.73C264.535 89.97 264.738 90.14 264.972 90.24C265.205 90.3333 265.422 90.38 265.622 90.38C265.902 90.38 266.135 90.3367 266.322 90.25C266.515 90.1567 266.668 90.0367 266.782 89.89L267.592 90.13C267.412 90.4167 267.155 90.6533 266.822 90.84C266.488 91.0267 266.088 91.12 265.622 91.12ZM264.102 88.08H267.022C267.022 87.8467 266.962 87.6233 266.842 87.41C266.728 87.1967 266.565 87.0233 266.352 86.89C266.145 86.75 265.895 86.68 265.602 86.68C265.355 86.68 265.122 86.7267 264.902 86.82C264.682 86.9133 264.498 87.0633 264.352 87.27C264.212 87.4767 264.128 87.7467 264.102 88.08ZM270.592 91.12C270.305 91.12 270.022 91.0767 269.742 90.99C269.469 90.8967 269.222 90.76 269.002 90.58C268.789 90.3933 268.625 90.16 268.512 89.88L269.322 89.58C269.395 89.8733 269.555 90.0867 269.802 90.22C270.055 90.3467 270.319 90.41 270.592 90.41C270.792 90.41 270.979 90.38 271.152 90.32C271.332 90.26 271.479 90.1733 271.592 90.06C271.705 89.9467 271.762 89.8167 271.762 89.67C271.762 89.3967 271.652 89.2033 271.432 89.09C271.219 88.9767 270.962 88.89 270.662 88.83L269.972 88.69C269.732 88.6367 269.509 88.5633 269.302 88.47C269.095 88.37 268.929 88.23 268.802 88.05C268.675 87.87 268.612 87.63 268.612 87.33C268.612 87.03 268.705 86.78 268.892 86.58C269.079 86.3733 269.315 86.2167 269.602 86.11C269.895 86.0033 270.202 85.95 270.522 85.95C270.915 85.95 271.285 86.0333 271.632 86.2C271.985 86.36 272.235 86.6133 272.382 86.96L271.592 87.25C271.505 87.05 271.352 86.9033 271.132 86.81C270.919 86.71 270.695 86.66 270.462 86.66C270.209 86.66 269.979 86.7167 269.772 86.83C269.565 86.9433 269.462 87.1067 269.462 87.32C269.462 87.5333 269.549 87.69 269.722 87.79C269.902 87.8833 270.122 87.9567 270.382 88.01L271.032 88.14C271.299 88.1933 271.552 88.27 271.792 88.37C272.032 88.47 272.229 88.62 272.382 88.82C272.535 89.0133 272.612 89.2867 272.612 89.64C272.612 89.9533 272.515 90.22 272.322 90.44C272.129 90.66 271.879 90.83 271.572 90.95C271.265 91.0633 270.939 91.12 270.592 91.12ZM273.929 91.12C273.756 91.12 273.606 91.0567 273.479 90.93C273.353 90.8033 273.289 90.6533 273.289 90.48C273.289 90.3 273.353 90.1467 273.479 90.02C273.606 89.8933 273.756 89.83 273.929 89.83C274.109 89.83 274.263 89.8933 274.389 90.02C274.516 90.1467 274.579 90.3 274.579 90.48C274.579 90.6533 274.516 90.8033 274.389 90.93C274.263 91.0567 274.109 91.12 273.929 91.12Z" fill="black"/>
<circle cx="238.999" cy="44.7045" r="9.85294" fill="#FCF4E9" stroke="black"/>
<circle cx="267" cy="45" r="10.5" fill="#FFBC36" stroke="black"/>
<circle cx="252.177" cy="23.9994" r="9.85294" fill="#FCF4E9" stroke="black"/>
<circle cx="276.647" cy="19.7631" r="9.85294" fill="#FCF4E9" stroke="black"/>
<circle cx="225.353" cy="18.3529" r="9.85294" fill="#FCF4E9" stroke="black"/>
<circle cx="267" cy="45" r="2" fill="black"/>
<circle cx="267" cy="45" r="5" stroke="black" stroke-linecap="round" stroke-linejoin="round" stroke-dasharray="1 2"/>
</svg>
