<svg width="47" height="38" viewBox="0 0 47 38" fill="none" xmlns="http://www.w3.org/2000/svg">
<path d="M8.64271 26.7583L7.37273 32.8399L13.9212 34.7946L15.5801 32.9615L15.0448 30.1167L18.7682 29.0595L22.468 25.5572L23.2149 31.0662L25.1228 31.0693L26.5264 31.2156L29.3338 31.5083L30.9212 29.423L31.8612 26.9767L31.3601 25.2119L28.7117 15.884L23.9374 7.70455L15.9169 3.44352L9.83211 4.08143L6.44264 7.49566L4.08951 15.5194L6.10005 18.7625L8.64271 26.7583Z" fill="#FFEBCE" stroke="black" stroke-width="1.18987"/>
<path d="M8.9696 25.0326L6.57325 15.6331L7.22692 12.1784L10.4732 8.25991L11.768 8.98201L20.3333 10.3641L21.0117 13.713L22.9506 16.7041L23.9996 13.682L24.8275 13.7193L25.8328 15.3409L25.5401 18.1483L23.8812 19.9815L23.5233 18.7209L23.7349 21.3852L22.9007 25.1636L18.8981 29.2968L15.0449 30.1184L11.3412 27.6284L8.9696 25.0326Z" fill="#FFEBCE" stroke="black" stroke-width="1.18987"/>
<path d="M16.965 22.488L14.5155 23.4559L13.4728 22.6622L12.5455 17.477L11.3223 17.007L9.05334 17.6512L8.1165 18.1896M14.9949 16.5091L15.8602 15.7185L18.1291 15.0743L19.2807 15.2922" stroke="black" stroke-width="1.18987"/>
<path d="M23.5132 10.8903L21.1193 17.8896L21.038 18.2307L42.8166 24.1454L43.7114 20.3934L43.8391 16.8191L43.5602 14.9501L41.9738 10.9669L40.8465 9.61663L37.0579 7.27117L32.9439 6.29007L26.3836 7.96995L23.5132 10.8903Z" fill="#FFEBCE" stroke="black" stroke-width="1.18987"/>
<path d="M22.026 29.2823L21.532 23.7572L19.998 24.1124L19.1321 23.1849L19.3587 20.7156L20.0908 17.6458L21.4621 17.9728L22.4267 20.0053L23.8909 13.8657L26.5173 11.9687L27.168 9.23997L31.7701 8.17456L38.4641 10.4919L42.0086 13.8606L42.0436 16.7528L40.5969 24.3385L42.6364 23.383L43.3395 24.9926L41.4744 29.7748L40.2425 30.3823L39.246 29.2434L38.6272 31.0785L34.9898 34.1764L31.0559 33.9592L24.0191 31.5601L22.026 29.2823Z" fill="#FFEBCE"/>
<path d="M40.5969 24.3385L39.8648 27.4083L39.246 29.2434M40.5969 24.3385L42.0436 16.7528L42.0086 13.8606L38.4641 10.4919L31.7701 8.17456L27.168 9.23997L26.5173 11.9687L23.8909 13.8657L22.4267 20.0053L21.4621 17.9728L20.0908 17.6458L19.3587 20.7156L19.1321 23.1849L19.998 24.1124L21.532 23.7572L22.026 29.2823L24.0191 31.5601L31.0559 33.9592L34.9898 34.1764L38.6272 31.0785L39.246 29.2434M40.5969 24.3385L42.6364 23.383L43.3395 24.9926L41.4744 29.7748L40.2425 30.3823L39.246 29.2434" stroke="black" stroke-width="1.18987"/>
<path d="M30.7523 23.0703L32.5478 23.138L34.0005 23.1239L34.9591 17.5848L36.7372 16.2064L39.3985 17.2016L40.4445 18.8929M31.5947 14.98L27.8235 14.0807L25.8653 14.6951" stroke="black" stroke-width="1.18987"/>
</svg>
