<svg width="274" height="74" viewBox="0 0 274 74" fill="none" xmlns="http://www.w3.org/2000/svg">
<path d="M0.814688 59V52.32H3.50469C3.99135 52.32 4.38469 52.4 4.68469 52.56C4.99135 52.72 5.21469 52.9267 5.35469 53.18C5.50135 53.4267 5.57469 53.6933 5.57469 53.98C5.57469 54.2467 5.51469 54.51 5.39469 54.77C5.27469 55.03 5.10135 55.2567 4.87469 55.45C5.20802 55.6233 5.45469 55.86 5.61469 56.16C5.78135 56.4533 5.86469 56.76 5.86469 57.08C5.86469 57.4 5.78135 57.7067 5.61469 58C5.45469 58.2933 5.21135 58.5333 4.88469 58.72C4.55802 58.9067 4.15135 59 3.66469 59H0.814688ZM1.75469 55.18H3.60469C3.94469 55.18 4.19802 55.0733 4.36469 54.86C4.53802 54.6467 4.62469 54.4133 4.62469 54.16C4.62469 53.9867 4.58469 53.82 4.50469 53.66C4.43135 53.5 4.31802 53.37 4.16469 53.27C4.01802 53.1633 3.83135 53.11 3.60469 53.11H1.75469V55.18ZM1.75469 58.21H3.76469C4.01135 58.21 4.21802 58.1533 4.38469 58.04C4.55135 57.9267 4.67802 57.7833 4.76469 57.61C4.85135 57.43 4.89469 57.2433 4.89469 57.05C4.89469 56.8567 4.85135 56.6767 4.76469 56.51C4.68469 56.3367 4.55802 56.1967 4.38469 56.09C4.21802 55.9767 4.00802 55.92 3.75469 55.92H1.75469V58.21ZM8.51609 59.12C8.12943 59.12 7.81943 59.04 7.58609 58.88C7.35276 58.7133 7.18276 58.4867 7.07609 58.2C6.97609 57.9067 6.92609 57.5733 6.92609 57.2V54.03H7.76609V57C7.76609 57.3667 7.80943 57.65 7.89609 57.85C7.98276 58.05 8.10276 58.19 8.25609 58.27C8.41609 58.3433 8.59943 58.38 8.80609 58.38C9.19943 58.38 9.50609 58.2433 9.72609 57.97C9.95276 57.69 10.0661 57.2867 10.0661 56.76V54.03H10.9061V59H10.2761L10.0661 58.28C9.92609 58.52 9.73609 58.72 9.49609 58.88C9.25609 59.04 8.92943 59.12 8.51609 59.12ZM14.7574 59.12C14.3708 59.12 14.0441 59.0433 13.7774 58.89C13.5108 58.73 13.3008 58.5167 13.1474 58.25L12.9274 59H12.3074V52.32H13.1474V54.82C13.3008 54.56 13.5108 54.3533 13.7774 54.2C14.0441 54.04 14.3708 53.96 14.7574 53.96C15.1374 53.96 15.4874 54.0633 15.8074 54.27C16.1341 54.47 16.3941 54.7633 16.5874 55.15C16.7874 55.53 16.8874 55.9933 16.8874 56.54C16.8874 57.0867 16.7874 57.5533 16.5874 57.94C16.3941 58.32 16.1341 58.6133 15.8074 58.82C15.4874 59.02 15.1374 59.12 14.7574 59.12ZM14.5374 58.4C14.9641 58.4 15.3041 58.2367 15.5574 57.91C15.8174 57.5833 15.9474 57.1267 15.9474 56.54C15.9474 55.9467 15.8174 55.49 15.5574 55.17C15.3041 54.8433 14.9641 54.68 14.5374 54.68C14.1108 54.68 13.7674 54.8433 13.5074 55.17C13.2541 55.49 13.1274 55.9467 13.1274 56.54C13.1274 57.1267 13.2541 57.5833 13.5074 57.91C13.7674 58.2367 14.1108 58.4 14.5374 58.4ZM20.4215 59.12C20.0348 59.12 19.7082 59.0433 19.4415 58.89C19.1748 58.73 18.9648 58.5167 18.8115 58.25L18.5915 59H17.9715V52.32H18.8115V54.82C18.9648 54.56 19.1748 54.3533 19.4415 54.2C19.7082 54.04 20.0348 53.96 20.4215 53.96C20.8015 53.96 21.1515 54.0633 21.4715 54.27C21.7982 54.47 22.0582 54.7633 22.2515 55.15C22.4515 55.53 22.5515 55.9933 22.5515 56.54C22.5515 57.0867 22.4515 57.5533 22.2515 57.94C22.0582 58.32 21.7982 58.6133 21.4715 58.82C21.1515 59.02 20.8015 59.12 20.4215 59.12ZM20.2015 58.4C20.6282 58.4 20.9682 58.2367 21.2215 57.91C21.4815 57.5833 21.6115 57.1267 21.6115 56.54C21.6115 55.9467 21.4815 55.49 21.2215 55.17C20.9682 54.8433 20.6282 54.68 20.2015 54.68C19.7748 54.68 19.4315 54.8433 19.1715 55.17C18.9182 55.49 18.7915 55.9467 18.7915 56.54C18.7915 57.1267 18.9182 57.5833 19.1715 57.91C19.4315 58.2367 19.7748 58.4 20.2015 58.4ZM24.8055 59C24.4922 59 24.2489 58.97 24.0755 58.91C23.9089 58.8433 23.7922 58.72 23.7255 58.54C23.6655 58.36 23.6355 58.1 23.6355 57.76V52.33H24.4755V57.62C24.4755 57.8733 24.5022 58.0433 24.5555 58.13C24.6089 58.2167 24.7522 58.26 24.9855 58.26H25.1755V59H24.8055ZM28.1381 59.12C27.6181 59.12 27.1781 59.0067 26.8181 58.78C26.4581 58.5467 26.1815 58.2367 25.9881 57.85C25.8015 57.4567 25.7081 57.0167 25.7081 56.53C25.7081 56.0033 25.8148 55.55 26.0281 55.17C26.2415 54.7833 26.5281 54.4867 26.8881 54.28C27.2548 54.0667 27.6648 53.96 28.1181 53.96C28.5115 53.96 28.8581 54.04 29.1581 54.2C29.4581 54.3533 29.7048 54.5633 29.8981 54.83C30.0981 55.09 30.2415 55.3867 30.3281 55.72C30.4215 56.0533 30.4548 56.3967 30.4281 56.75H26.6081C26.6215 57.1633 26.7115 57.49 26.8781 57.73C27.0515 57.97 27.2548 58.14 27.4881 58.24C27.7215 58.3333 27.9381 58.38 28.1381 58.38C28.4181 58.38 28.6515 58.3367 28.8381 58.25C29.0315 58.1567 29.1848 58.0367 29.2981 57.89L30.1081 58.13C29.9281 58.4167 29.6715 58.6533 29.3381 58.84C29.0048 59.0267 28.6048 59.12 28.1381 59.12ZM26.6181 56.08H29.5381C29.5381 55.8467 29.4781 55.6233 29.3581 55.41C29.2448 55.1967 29.0815 55.0233 28.8681 54.89C28.6615 54.75 28.4115 54.68 28.1181 54.68C27.8715 54.68 27.6381 54.7267 27.4181 54.82C27.1981 54.9133 27.0148 55.0633 26.8681 55.27C26.7281 55.4767 26.6448 55.7467 26.6181 56.08ZM33.1088 59.12C32.8221 59.12 32.5388 59.0767 32.2588 58.99C31.9854 58.8967 31.7388 58.76 31.5188 58.58C31.3054 58.3933 31.1421 58.16 31.0288 57.88L31.8388 57.58C31.9121 57.8733 32.0721 58.0867 32.3188 58.22C32.5721 58.3467 32.8354 58.41 33.1088 58.41C33.3088 58.41 33.4954 58.38 33.6688 58.32C33.8488 58.26 33.9954 58.1733 34.1088 58.06C34.2221 57.9467 34.2788 57.8167 34.2788 57.67C34.2788 57.3967 34.1688 57.2033 33.9488 57.09C33.7354 56.9767 33.4788 56.89 33.1788 56.83L32.4888 56.69C32.2488 56.6367 32.0254 56.5633 31.8188 56.47C31.6121 56.37 31.4454 56.23 31.3188 56.05C31.1921 55.87 31.1288 55.63 31.1288 55.33C31.1288 55.03 31.2221 54.78 31.4088 54.58C31.5954 54.3733 31.8321 54.2167 32.1188 54.11C32.4121 54.0033 32.7188 53.95 33.0388 53.95C33.4321 53.95 33.8021 54.0333 34.1488 54.2C34.5021 54.36 34.7521 54.6133 34.8988 54.96L34.1088 55.25C34.0221 55.05 33.8688 54.9033 33.6488 54.81C33.4354 54.71 33.2121 54.66 32.9788 54.66C32.7254 54.66 32.4954 54.7167 32.2888 54.83C32.0821 54.9433 31.9788 55.1067 31.9788 55.32C31.9788 55.5333 32.0654 55.69 32.2388 55.79C32.4188 55.8833 32.6388 55.9567 32.8988 56.01L33.5488 56.14C33.8154 56.1933 34.0688 56.27 34.3088 56.37C34.5488 56.47 34.7454 56.62 34.8988 56.82C35.0521 57.0133 35.1288 57.2867 35.1288 57.64C35.1288 57.9533 35.0321 58.22 34.8388 58.44C34.6454 58.66 34.3954 58.83 34.0888 58.95C33.7821 59.0633 33.4554 59.12 33.1088 59.12ZM38.9285 59V54.04H39.5385L39.8085 54.96C39.9818 54.66 40.2152 54.42 40.5085 54.24C40.8085 54.0533 41.1652 53.96 41.5785 53.96V54.83C41.5318 54.83 41.4818 54.83 41.4285 54.83C41.3818 54.83 41.3352 54.8333 41.2885 54.84C40.7218 54.8867 40.3252 55.0833 40.0985 55.43C39.8785 55.7767 39.7685 56.2567 39.7685 56.87V59H38.9285ZM44.437 59.12C43.917 59.12 43.477 59.0067 43.117 58.78C42.757 58.5467 42.4803 58.2367 42.287 57.85C42.1003 57.4567 42.007 57.0167 42.007 56.53C42.007 56.0033 42.1136 55.55 42.327 55.17C42.5403 54.7833 42.827 54.4867 43.187 54.28C43.5536 54.0667 43.9636 53.96 44.417 53.96C44.8103 53.96 45.157 54.04 45.457 54.2C45.757 54.3533 46.0036 54.5633 46.197 54.83C46.397 55.09 46.5403 55.3867 46.627 55.72C46.7203 56.0533 46.7536 56.3967 46.727 56.75H42.907C42.9203 57.1633 43.0103 57.49 43.177 57.73C43.3503 57.97 43.5536 58.14 43.787 58.24C44.0203 58.3333 44.237 58.38 44.437 58.38C44.717 58.38 44.9503 58.3367 45.137 58.25C45.3303 58.1567 45.4836 58.0367 45.597 57.89L46.407 58.13C46.227 58.4167 45.9703 58.6533 45.637 58.84C45.3036 59.0267 44.9036 59.12 44.437 59.12ZM42.917 56.08H45.837C45.837 55.8467 45.777 55.6233 45.657 55.41C45.5436 55.1967 45.3803 55.0233 45.167 54.89C44.9603 54.75 44.7103 54.68 44.417 54.68C44.1703 54.68 43.937 54.7267 43.717 54.82C43.497 54.9133 43.3136 55.0633 43.167 55.27C43.027 55.4767 42.9436 55.7467 42.917 56.08ZM47.7176 60.61V54.04H48.3276L48.5576 54.82C48.7109 54.56 48.9209 54.3533 49.1876 54.2C49.4542 54.04 49.7809 53.96 50.1676 53.96C50.5476 53.96 50.8976 54.0633 51.2176 54.27C51.5442 54.47 51.8042 54.7633 51.9976 55.15C52.1976 55.53 52.2976 55.9933 52.2976 56.54C52.2976 57.08 52.1976 57.5433 51.9976 57.93C51.8042 58.3167 51.5442 58.6133 51.2176 58.82C50.8976 59.02 50.5476 59.12 50.1676 59.12C49.7809 59.12 49.4542 59.0433 49.1876 58.89C48.9209 58.73 48.7109 58.5167 48.5576 58.25V60.61H47.7176ZM49.9476 58.4C50.3742 58.4 50.7142 58.2367 50.9676 57.91C51.2276 57.5833 51.3576 57.1267 51.3576 56.54C51.3576 55.9467 51.2276 55.49 50.9676 55.17C50.7142 54.8433 50.3742 54.68 49.9476 54.68C49.5209 54.68 49.1776 54.8433 48.9176 55.17C48.6642 55.49 48.5376 55.9467 48.5376 56.54C48.5376 57.1267 48.6642 57.5833 48.9176 57.91C49.1776 58.2367 49.5209 58.4 49.9476 58.4ZM53.3816 59V54.04H53.9916L54.2616 54.96C54.435 54.66 54.6683 54.42 54.9616 54.24C55.2616 54.0533 55.6183 53.96 56.0316 53.96V54.83C55.985 54.83 55.935 54.83 55.8816 54.83C55.835 54.83 55.7883 54.8333 55.7416 54.84C55.175 54.8867 54.7783 55.0833 54.5516 55.43C54.3316 55.7767 54.2216 56.2567 54.2216 56.87V59H53.3816ZM58.8901 59.12C58.3701 59.12 57.9301 59.0067 57.5701 58.78C57.2101 58.5467 56.9334 58.2367 56.7401 57.85C56.5534 57.4567 56.4601 57.0167 56.4601 56.53C56.4601 56.0033 56.5667 55.55 56.7801 55.17C56.9934 54.7833 57.2801 54.4867 57.6401 54.28C58.0067 54.0667 58.4167 53.96 58.8701 53.96C59.2634 53.96 59.6101 54.04 59.9101 54.2C60.2101 54.3533 60.4567 54.5633 60.6501 54.83C60.8501 55.09 60.9934 55.3867 61.0801 55.72C61.1734 56.0533 61.2067 56.3967 61.1801 56.75H57.3601C57.3734 57.1633 57.4634 57.49 57.6301 57.73C57.8034 57.97 58.0067 58.14 58.2401 58.24C58.4734 58.3333 58.6901 58.38 58.8901 58.38C59.1701 58.38 59.4034 58.3367 59.5901 58.25C59.7834 58.1567 59.9367 58.0367 60.0501 57.89L60.8601 58.13C60.6801 58.4167 60.4234 58.6533 60.0901 58.84C59.7567 59.0267 59.3567 59.12 58.8901 59.12ZM57.3701 56.08H60.2901C60.2901 55.8467 60.2301 55.6233 60.1101 55.41C59.9967 55.1967 59.8334 55.0233 59.6201 54.89C59.4134 54.75 59.1634 54.68 58.8701 54.68C58.6234 54.68 58.3901 54.7267 58.1701 54.82C57.9501 54.9133 57.7667 55.0633 57.6201 55.27C57.4801 55.4767 57.3967 55.7467 57.3701 56.08ZM63.8607 59.12C63.574 59.12 63.2907 59.0767 63.0107 58.99C62.7374 58.8967 62.4907 58.76 62.2707 58.58C62.0574 58.3933 61.894 58.16 61.7807 57.88L62.5907 57.58C62.664 57.8733 62.824 58.0867 63.0707 58.22C63.324 58.3467 63.5874 58.41 63.8607 58.41C64.0607 58.41 64.2474 58.38 64.4207 58.32C64.6007 58.26 64.7474 58.1733 64.8607 58.06C64.974 57.9467 65.0307 57.8167 65.0307 57.67C65.0307 57.3967 64.9207 57.2033 64.7007 57.09C64.4874 56.9767 64.2307 56.89 63.9307 56.83L63.2407 56.69C63.0007 56.6367 62.7774 56.5633 62.5707 56.47C62.364 56.37 62.1974 56.23 62.0707 56.05C61.944 55.87 61.8807 55.63 61.8807 55.33C61.8807 55.03 61.974 54.78 62.1607 54.58C62.3474 54.3733 62.584 54.2167 62.8707 54.11C63.164 54.0033 63.4707 53.95 63.7907 53.95C64.184 53.95 64.554 54.0333 64.9007 54.2C65.254 54.36 65.504 54.6133 65.6507 54.96L64.8607 55.25C64.774 55.05 64.6207 54.9033 64.4007 54.81C64.1874 54.71 63.964 54.66 63.7307 54.66C63.4774 54.66 63.2474 54.7167 63.0407 54.83C62.834 54.9433 62.7307 55.1067 62.7307 55.32C62.7307 55.5333 62.8174 55.69 62.9907 55.79C63.1707 55.8833 63.3907 55.9567 63.6507 56.01L64.3007 56.14C64.5674 56.1933 64.8207 56.27 65.0607 56.37C65.3007 56.47 65.4974 56.62 65.6507 56.82C65.804 57.0133 65.8807 57.2867 65.8807 57.64C65.8807 57.9533 65.784 58.22 65.5907 58.44C65.3974 58.66 65.1474 58.83 64.8407 58.95C64.534 59.0633 64.2074 59.12 63.8607 59.12ZM68.9877 59.12C68.4677 59.12 68.0277 59.0067 67.6677 58.78C67.3077 58.5467 67.0311 58.2367 66.8377 57.85C66.6511 57.4567 66.5577 57.0167 66.5577 56.53C66.5577 56.0033 66.6644 55.55 66.8777 55.17C67.0911 54.7833 67.3777 54.4867 67.7377 54.28C68.1044 54.0667 68.5144 53.96 68.9677 53.96C69.3611 53.96 69.7077 54.04 70.0077 54.2C70.3077 54.3533 70.5544 54.5633 70.7477 54.83C70.9477 55.09 71.0911 55.3867 71.1777 55.72C71.2711 56.0533 71.3044 56.3967 71.2777 56.75H67.4577C67.4711 57.1633 67.5611 57.49 67.7277 57.73C67.9011 57.97 68.1044 58.14 68.3377 58.24C68.5711 58.3333 68.7877 58.38 68.9877 58.38C69.2677 58.38 69.5011 58.3367 69.6877 58.25C69.8811 58.1567 70.0344 58.0367 70.1477 57.89L70.9577 58.13C70.7777 58.4167 70.5211 58.6533 70.1877 58.84C69.8544 59.0267 69.4544 59.12 68.9877 59.12ZM67.4677 56.08H70.3877C70.3877 55.8467 70.3277 55.6233 70.2077 55.41C70.0944 55.1967 69.9311 55.0233 69.7177 54.89C69.5111 54.75 69.2611 54.68 68.9677 54.68C68.7211 54.68 68.4877 54.7267 68.2677 54.82C68.0477 54.9133 67.8644 55.0633 67.7177 55.27C67.5777 55.4767 67.4944 55.7467 67.4677 56.08ZM72.2684 59V54.04H72.8884L73.1084 54.79C73.2484 54.5567 73.445 54.36 73.6984 54.2C73.9517 54.04 74.2884 53.96 74.7084 53.96C75.3084 53.96 75.7317 54.1367 75.9784 54.49C76.225 54.8367 76.3484 55.2933 76.3484 55.86V59H75.5084V56.11C75.5084 55.8567 75.485 55.6233 75.4384 55.41C75.3917 55.19 75.2884 55.0133 75.1284 54.88C74.975 54.7467 74.7384 54.68 74.4184 54.68C74.0117 54.68 73.6917 54.82 73.4584 55.1C73.225 55.3733 73.1084 55.7767 73.1084 56.31V59H72.2684ZM79.1104 59C78.7971 59 78.5537 58.97 78.3804 58.91C78.2137 58.8433 78.0971 58.72 78.0304 58.54C77.9704 58.36 77.9404 58.1 77.9404 57.76V54.71H77.1004V54.04H77.9404V52.79H78.7804V54.04H79.7404V54.71H78.7804V57.62C78.7804 57.8733 78.8037 58.0433 78.8504 58.13C78.9037 58.2167 79.0504 58.26 79.2904 58.26H79.7404V59H79.1104ZM18.4702 65.1C18.3035 65.1 18.1568 65.04 18.0302 64.92C17.9102 64.7933 17.8502 64.6433 17.8502 64.47C17.8502 64.2967 17.9102 64.15 18.0302 64.03C18.1568 63.91 18.3035 63.85 18.4702 63.85C18.6435 63.85 18.7902 63.91 18.9102 64.03C19.0368 64.15 19.1002 64.2967 19.1002 64.47C19.1002 64.6433 19.0368 64.7933 18.9102 64.92C18.7902 65.04 18.6435 65.1 18.4702 65.1ZM18.0502 71V66.71H17.3602V66.04H18.8902V71H18.0502ZM20.3934 71V66.04H21.0134L21.2334 66.79C21.3734 66.5567 21.57 66.36 21.8234 66.2C22.0767 66.04 22.4134 65.96 22.8334 65.96C23.4334 65.96 23.8567 66.1367 24.1034 66.49C24.35 66.8367 24.4734 67.2933 24.4734 67.86V71H23.6334V68.11C23.6334 67.8567 23.61 67.6233 23.5634 67.41C23.5167 67.19 23.4134 67.0133 23.2534 66.88C23.1 66.7467 22.8634 66.68 22.5434 66.68C22.1367 66.68 21.8167 66.82 21.5834 67.1C21.35 67.3733 21.2334 67.7767 21.2334 68.31V71H20.3934ZM27.5549 71.12C27.1816 71.12 26.8316 71.02 26.5049 70.82C26.1783 70.6133 25.9149 70.32 25.7149 69.94C25.5216 69.5533 25.4249 69.0867 25.4249 68.54C25.4249 67.9933 25.5216 67.53 25.7149 67.15C25.9149 66.7633 26.1783 66.47 26.5049 66.27C26.8316 66.0633 27.1816 65.96 27.5549 65.96C27.9483 65.96 28.2783 66.04 28.5449 66.2C28.8116 66.3533 29.0183 66.56 29.1649 66.82V64.32H30.0049V69.13C30.0049 69.2967 30.0116 69.5433 30.0249 69.87C30.0383 70.19 30.0883 70.5667 30.1749 71H29.3849L29.1649 70.25C29.0183 70.5167 28.8116 70.73 28.5449 70.89C28.2783 71.0433 27.9483 71.12 27.5549 71.12ZM27.7749 70.4C28.2016 70.4 28.5416 70.2367 28.7949 69.91C29.0549 69.5833 29.1849 69.1267 29.1849 68.54C29.1849 67.9467 29.0549 67.49 28.7949 67.17C28.5416 66.8433 28.2016 66.68 27.7749 66.68C27.3483 66.68 27.0049 66.8433 26.7449 67.17C26.4916 67.49 26.3649 67.9467 26.3649 68.54C26.3649 69.1267 26.4916 69.5833 26.7449 69.91C27.0049 70.2367 27.3483 70.4 27.7749 70.4ZM32.2495 65.1C32.0828 65.1 31.9361 65.04 31.8095 64.92C31.6895 64.7933 31.6295 64.6433 31.6295 64.47C31.6295 64.2967 31.6895 64.15 31.8095 64.03C31.9361 63.91 32.0828 63.85 32.2495 63.85C32.4228 63.85 32.5695 63.91 32.6895 64.03C32.8161 64.15 32.8795 64.2967 32.8795 64.47C32.8795 64.6433 32.8161 64.7933 32.6895 64.92C32.5695 65.04 32.4228 65.1 32.2495 65.1ZM31.8295 71V66.71H31.1395V66.04H32.6695V71H31.8295ZM35.2427 71L33.4727 66.04H34.3827L35.6827 69.9L36.9727 66.04H37.8827L36.1127 71H35.2427ZM39.4467 65.1C39.2801 65.1 39.1334 65.04 39.0067 64.92C38.8867 64.7933 38.8267 64.6433 38.8267 64.47C38.8267 64.2967 38.8867 64.15 39.0067 64.03C39.1334 63.91 39.2801 63.85 39.4467 63.85C39.6201 63.85 39.7667 63.91 39.8867 64.03C40.0134 64.15 40.0767 64.2967 40.0767 64.47C40.0767 64.6433 40.0134 64.7933 39.8867 64.92C39.7667 65.04 39.6201 65.1 39.4467 65.1ZM39.0267 71V66.71H38.3367V66.04H39.8667V71H39.0267ZM43.1799 71.12C42.8066 71.12 42.4566 71.02 42.1299 70.82C41.8033 70.6133 41.5399 70.32 41.3399 69.94C41.1466 69.5533 41.0499 69.0867 41.0499 68.54C41.0499 67.9933 41.1466 67.53 41.3399 67.15C41.5399 66.7633 41.8033 66.47 42.1299 66.27C42.4566 66.0633 42.8066 65.96 43.1799 65.96C43.5733 65.96 43.9033 66.04 44.1699 66.2C44.4366 66.3533 44.6433 66.56 44.7899 66.82V64.32H45.6299V69.13C45.6299 69.2967 45.6366 69.5433 45.6499 69.87C45.6633 70.19 45.7133 70.5667 45.7999 71H45.0099L44.7899 70.25C44.6433 70.5167 44.4366 70.73 44.1699 70.89C43.9033 71.0433 43.5733 71.12 43.1799 71.12ZM43.3999 70.4C43.8266 70.4 44.1666 70.2367 44.4199 69.91C44.6799 69.5833 44.8099 69.1267 44.8099 68.54C44.8099 67.9467 44.6799 67.49 44.4199 67.17C44.1666 66.8433 43.8266 66.68 43.3999 66.68C42.9733 66.68 42.6299 66.8433 42.3699 67.17C42.1166 67.49 41.9899 67.9467 41.9899 68.54C41.9899 69.1267 42.1166 69.5833 42.3699 69.91C42.6299 70.2367 42.9733 70.4 43.3999 70.4ZM48.5845 71.12C48.1978 71.12 47.8878 71.04 47.6545 70.88C47.4211 70.7133 47.2511 70.4867 47.1445 70.2C47.0445 69.9067 46.9945 69.5733 46.9945 69.2V66.03H47.8345V69C47.8345 69.3667 47.8778 69.65 47.9645 69.85C48.0511 70.05 48.1711 70.19 48.3245 70.27C48.4845 70.3433 48.6678 70.38 48.8745 70.38C49.2678 70.38 49.5745 70.2433 49.7945 69.97C50.0211 69.69 50.1345 69.2867 50.1345 68.76V66.03H50.9745V71H50.3445L50.1345 70.28C49.9945 70.52 49.8045 70.72 49.5645 70.88C49.3245 71.04 48.9978 71.12 48.5845 71.12ZM53.7658 71.12C53.4524 71.12 53.1658 71.0633 52.9058 70.95C52.6458 70.8367 52.4391 70.6733 52.2858 70.46C52.1324 70.2467 52.0558 69.99 52.0558 69.69C52.0558 69.2967 52.1924 68.9867 52.4658 68.76C52.7458 68.5333 53.1358 68.36 53.6358 68.24C54.1424 68.1133 54.7324 68.0133 55.4058 67.94C55.4191 67.52 55.3358 67.1967 55.1558 66.97C54.9758 66.7433 54.6858 66.63 54.2858 66.63C53.9858 66.63 53.7391 66.7 53.5458 66.84C53.3591 66.9733 53.2391 67.16 53.1858 67.4L52.3758 67.16C52.5091 66.78 52.7458 66.4867 53.0858 66.28C53.4324 66.0667 53.8291 65.96 54.2758 65.96C54.9624 65.96 55.4624 66.1233 55.7758 66.45C56.0958 66.77 56.2558 67.2767 56.2558 67.97V69.13C56.2558 69.5433 56.2724 69.9 56.3058 70.2C56.3391 70.5 56.3791 70.7667 56.4258 71H55.6558L55.4558 70.32C55.3091 70.5667 55.0991 70.7633 54.8258 70.91C54.5524 71.05 54.1991 71.12 53.7658 71.12ZM53.9458 70.45C54.2058 70.45 54.4524 70.4033 54.6858 70.31C54.9191 70.2167 55.1091 70.06 55.2558 69.84C55.4024 69.6133 55.4758 69.3067 55.4758 68.92V68.61C54.9691 68.6633 54.5291 68.73 54.1558 68.81C53.7824 68.8833 53.4924 68.99 53.2858 69.13C53.0858 69.2633 52.9858 69.4433 52.9858 69.67C52.9858 69.9033 53.0691 70.0933 53.2358 70.24C53.4091 70.38 53.6458 70.45 53.9458 70.45ZM58.8095 71C58.4961 71 58.2528 70.97 58.0795 70.91C57.9128 70.8433 57.7961 70.72 57.7295 70.54C57.6695 70.36 57.6395 70.1 57.6395 69.76V64.33H58.4795V69.62C58.4795 69.8733 58.5061 70.0433 58.5595 70.13C58.6128 70.2167 58.7561 70.26 58.9895 70.26H59.1795V71H58.8095ZM61.722 71.12C61.4354 71.12 61.152 71.0767 60.872 70.99C60.5987 70.8967 60.352 70.76 60.132 70.58C59.9187 70.3933 59.7554 70.16 59.642 69.88L60.452 69.58C60.5254 69.8733 60.6854 70.0867 60.932 70.22C61.1854 70.3467 61.4487 70.41 61.722 70.41C61.922 70.41 62.1087 70.38 62.282 70.32C62.462 70.26 62.6087 70.1733 62.722 70.06C62.8354 69.9467 62.892 69.8167 62.892 69.67C62.892 69.3967 62.782 69.2033 62.562 69.09C62.3487 68.9767 62.092 68.89 61.792 68.83L61.102 68.69C60.862 68.6367 60.6387 68.5633 60.432 68.47C60.2254 68.37 60.0587 68.23 59.932 68.05C59.8054 67.87 59.742 67.63 59.742 67.33C59.742 67.03 59.8354 66.78 60.022 66.58C60.2087 66.3733 60.4454 66.2167 60.732 66.11C61.0254 66.0033 61.332 65.95 61.652 65.95C62.0454 65.95 62.4154 66.0333 62.762 66.2C63.1154 66.36 63.3654 66.6133 63.512 66.96L62.722 67.25C62.6354 67.05 62.482 66.9033 62.262 66.81C62.0487 66.71 61.8254 66.66 61.592 66.66C61.3387 66.66 61.1087 66.7167 60.902 66.83C60.6954 66.9433 60.592 67.1067 60.592 67.32C60.592 67.5333 60.6787 67.69 60.852 67.79C61.032 67.8833 61.252 67.9567 61.512 68.01L62.162 68.14C62.4287 68.1933 62.682 68.27 62.922 68.37C63.162 68.47 63.3587 68.62 63.512 68.82C63.6654 69.0133 63.742 69.2867 63.742 69.64C63.742 69.9533 63.6454 70.22 63.452 70.44C63.2587 70.66 63.0087 70.83 62.702 70.95C62.3954 71.0633 62.0687 71.12 61.722 71.12ZM65.0591 71.12C64.8857 71.12 64.7357 71.0567 64.6091 70.93C64.4824 70.8033 64.4191 70.6533 64.4191 70.48C64.4191 70.3 64.4824 70.1467 64.6091 70.02C64.7357 69.8933 64.8857 69.83 65.0591 69.83C65.2391 69.83 65.3924 69.8933 65.5191 70.02C65.6457 70.1467 65.7091 70.3 65.7091 70.48C65.7091 70.6533 65.6457 70.8033 65.5191 70.93C65.3924 71.0567 65.2391 71.12 65.0591 71.12Z" fill="black"/>
<path d="M115.83 59.12C115.196 59.12 114.653 58.9733 114.2 58.68C113.746 58.38 113.4 57.97 113.16 57.45C112.92 56.93 112.8 56.33 112.8 55.65C112.8 54.9567 112.926 54.3533 113.18 53.84C113.44 53.32 113.803 52.9167 114.27 52.63C114.736 52.3433 115.283 52.2 115.91 52.2C116.47 52.2 116.973 52.33 117.42 52.59C117.873 52.85 118.213 53.2233 118.44 53.71L117.62 54.01C117.473 53.71 117.25 53.4667 116.95 53.28C116.656 53.0867 116.293 52.99 115.86 52.99C115.466 52.99 115.11 53.09 114.79 53.29C114.476 53.49 114.226 53.79 114.04 54.19C113.853 54.5833 113.76 55.07 113.76 55.65C113.76 56.21 113.85 56.69 114.03 57.09C114.21 57.49 114.46 57.7967 114.78 58.01C115.106 58.2233 115.476 58.33 115.89 58.33C116.323 58.33 116.686 58.2367 116.98 58.05C117.28 57.8633 117.506 57.6167 117.66 57.31L118.48 57.61C118.24 58.1033 117.886 58.48 117.42 58.74C116.953 58.9933 116.423 59.12 115.83 59.12ZM121.622 59.12C121.336 59.12 121.052 59.07 120.772 58.97C120.492 58.87 120.236 58.7167 120.002 58.51C119.776 58.2967 119.592 58.0267 119.452 57.7C119.312 57.3733 119.242 56.9867 119.242 56.54C119.242 56.0933 119.312 55.7067 119.452 55.38C119.592 55.0533 119.776 54.7867 120.002 54.58C120.236 54.3667 120.492 54.21 120.772 54.11C121.052 54.01 121.336 53.96 121.622 53.96C121.909 53.96 122.192 54.01 122.472 54.11C122.759 54.21 123.016 54.3667 123.242 54.58C123.476 54.7867 123.659 55.0533 123.792 55.38C123.932 55.7067 124.002 56.0933 124.002 56.54C124.002 56.9867 123.932 57.3733 123.792 57.7C123.659 58.0267 123.476 58.2967 123.242 58.51C123.016 58.7167 122.759 58.87 122.472 58.97C122.192 59.07 121.909 59.12 121.622 59.12ZM121.622 58.38C121.862 58.38 122.096 58.3167 122.322 58.19C122.549 58.0567 122.736 57.8567 122.882 57.59C123.029 57.3167 123.102 56.9667 123.102 56.54C123.102 56.1133 123.029 55.7667 122.882 55.5C122.736 55.2267 122.549 55.0267 122.322 54.9C122.096 54.7667 121.862 54.7 121.622 54.7C121.389 54.7 121.156 54.7667 120.922 54.9C120.696 55.0267 120.509 55.2267 120.362 55.5C120.216 55.7667 120.142 56.1133 120.142 56.54C120.142 56.9667 120.216 57.3167 120.362 57.59C120.509 57.8567 120.696 58.0567 120.922 58.19C121.156 58.3167 121.389 58.38 121.622 58.38ZM125.08 59V54.04H125.7L125.92 54.79C126.06 54.5567 126.257 54.36 126.51 54.2C126.763 54.04 127.1 53.96 127.52 53.96C128.12 53.96 128.543 54.1367 128.79 54.49C129.037 54.8367 129.16 55.2933 129.16 55.86V59H128.32V56.11C128.32 55.8567 128.297 55.6233 128.25 55.41C128.203 55.19 128.1 55.0133 127.94 54.88C127.787 54.7467 127.55 54.68 127.23 54.68C126.823 54.68 126.503 54.82 126.27 55.1C126.037 55.3733 125.92 55.7767 125.92 56.31V59H125.08ZM130.539 59V54.04H131.159L131.379 54.79C131.519 54.5567 131.716 54.36 131.969 54.2C132.222 54.04 132.559 53.96 132.979 53.96C133.579 53.96 134.002 54.1367 134.249 54.49C134.496 54.8367 134.619 55.2933 134.619 55.86V59H133.779V56.11C133.779 55.8567 133.756 55.6233 133.709 55.41C133.662 55.19 133.559 55.0133 133.399 54.88C133.246 54.7467 133.009 54.68 132.689 54.68C132.282 54.68 131.962 54.82 131.729 55.1C131.496 55.3733 131.379 55.7767 131.379 56.31V59H130.539ZM138 59.12C137.48 59.12 137.04 59.0067 136.68 58.78C136.32 58.5467 136.044 58.2367 135.85 57.85C135.664 57.4567 135.57 57.0167 135.57 56.53C135.57 56.0033 135.677 55.55 135.89 55.17C136.104 54.7833 136.39 54.4867 136.75 54.28C137.117 54.0667 137.527 53.96 137.98 53.96C138.374 53.96 138.72 54.04 139.02 54.2C139.32 54.3533 139.567 54.5633 139.76 54.83C139.96 55.09 140.104 55.3867 140.19 55.72C140.284 56.0533 140.317 56.3967 140.29 56.75H136.47C136.484 57.1633 136.574 57.49 136.74 57.73C136.914 57.97 137.117 58.14 137.35 58.24C137.584 58.3333 137.8 58.38 138 58.38C138.28 58.38 138.514 58.3367 138.7 58.25C138.894 58.1567 139.047 58.0367 139.16 57.89L139.97 58.13C139.79 58.4167 139.534 58.6533 139.2 58.84C138.867 59.0267 138.467 59.12 138 59.12ZM136.48 56.08H139.4C139.4 55.8467 139.34 55.6233 139.22 55.41C139.107 55.1967 138.944 55.0233 138.73 54.89C138.524 54.75 138.274 54.68 137.98 54.68C137.734 54.68 137.5 54.7267 137.28 54.82C137.06 54.9133 136.877 55.0633 136.73 55.27C136.59 55.4767 136.507 55.7467 136.48 56.08ZM143.271 59.12C142.798 59.12 142.388 59.01 142.041 58.79C141.694 58.5633 141.428 58.2567 141.241 57.87C141.054 57.4833 140.961 57.04 140.961 56.54C140.961 56.0467 141.058 55.6067 141.251 55.22C141.451 54.8267 141.731 54.52 142.091 54.3C142.451 54.0733 142.874 53.96 143.361 53.96C143.808 53.96 144.191 54.07 144.511 54.29C144.831 54.51 145.071 54.7733 145.231 55.08L144.461 55.36C144.354 55.16 144.198 55 143.991 54.88C143.784 54.76 143.554 54.7 143.301 54.7C143.054 54.7 142.821 54.7667 142.601 54.9C142.381 55.0267 142.204 55.2267 142.071 55.5C141.938 55.7667 141.871 56.11 141.871 56.53C141.871 56.9433 141.938 57.29 142.071 57.57C142.211 57.8433 142.388 58.0467 142.601 58.18C142.821 58.3133 143.054 58.38 143.301 58.38C143.574 58.38 143.811 58.32 144.011 58.2C144.218 58.0733 144.374 57.9167 144.481 57.73L145.251 58.01C145.064 58.33 144.798 58.5967 144.451 58.81C144.104 59.0167 143.711 59.12 143.271 59.12ZM147.791 59C147.478 59 147.234 58.97 147.061 58.91C146.894 58.8433 146.778 58.72 146.711 58.54C146.651 58.36 146.621 58.1 146.621 57.76V54.71H145.781V54.04H146.621V52.79H147.461V54.04H148.421V54.71H147.461V57.62C147.461 57.8733 147.484 58.0433 147.531 58.13C147.584 58.2167 147.731 58.26 147.971 58.26H148.421V59H147.791ZM150.383 53.1C150.217 53.1 150.07 53.04 149.943 52.92C149.823 52.7933 149.763 52.6433 149.763 52.47C149.763 52.2967 149.823 52.15 149.943 52.03C150.07 51.91 150.217 51.85 150.383 51.85C150.557 51.85 150.703 51.91 150.823 52.03C150.95 52.15 151.013 52.2967 151.013 52.47C151.013 52.6433 150.95 52.7933 150.823 52.92C150.703 53.04 150.557 53.1 150.383 53.1ZM149.963 59V54.71H149.273V54.04H150.803V59H149.963ZM154.366 59.12C154.08 59.12 153.796 59.07 153.516 58.97C153.236 58.87 152.98 58.7167 152.746 58.51C152.52 58.2967 152.336 58.0267 152.196 57.7C152.056 57.3733 151.986 56.9867 151.986 56.54C151.986 56.0933 152.056 55.7067 152.196 55.38C152.336 55.0533 152.52 54.7867 152.746 54.58C152.98 54.3667 153.236 54.21 153.516 54.11C153.796 54.01 154.08 53.96 154.366 53.96C154.653 53.96 154.936 54.01 155.216 54.11C155.503 54.21 155.76 54.3667 155.986 54.58C156.22 54.7867 156.403 55.0533 156.536 55.38C156.676 55.7067 156.746 56.0933 156.746 56.54C156.746 56.9867 156.676 57.3733 156.536 57.7C156.403 58.0267 156.22 58.2967 155.986 58.51C155.76 58.7167 155.503 58.87 155.216 58.97C154.936 59.07 154.653 59.12 154.366 59.12ZM154.366 58.38C154.606 58.38 154.84 58.3167 155.066 58.19C155.293 58.0567 155.48 57.8567 155.626 57.59C155.773 57.3167 155.846 56.9667 155.846 56.54C155.846 56.1133 155.773 55.7667 155.626 55.5C155.48 55.2267 155.293 55.0267 155.066 54.9C154.84 54.7667 154.606 54.7 154.366 54.7C154.133 54.7 153.9 54.7667 153.666 54.9C153.44 55.0267 153.253 55.2267 153.106 55.5C152.96 55.7667 152.886 56.1133 152.886 56.54C152.886 56.9667 152.96 57.3167 153.106 57.59C153.253 57.8567 153.44 58.0567 153.666 58.19C153.9 58.3167 154.133 58.38 154.366 58.38ZM157.824 59V54.04H158.444L158.664 54.79C158.804 54.5567 159.001 54.36 159.254 54.2C159.507 54.04 159.844 53.96 160.264 53.96C160.864 53.96 161.287 54.1367 161.534 54.49C161.781 54.8367 161.904 55.2933 161.904 55.86V59H161.064V56.11C161.064 55.8567 161.041 55.6233 160.994 55.41C160.947 55.19 160.844 55.0133 160.684 54.88C160.531 54.7467 160.294 54.68 159.974 54.68C159.567 54.68 159.247 54.82 159.014 55.1C158.781 55.3733 158.664 55.7767 158.664 56.31V59H157.824ZM167.596 59C167.282 59 167.039 58.97 166.866 58.91C166.699 58.8433 166.582 58.72 166.516 58.54C166.456 58.36 166.426 58.1 166.426 57.76V54.71H165.586V54.04H166.426V52.79H167.266V54.04H168.226V54.71H167.266V57.62C167.266 57.8733 167.289 58.0433 167.336 58.13C167.389 58.2167 167.536 58.26 167.776 58.26H168.226V59H167.596ZM169.328 59V52.32H170.168V54.79C170.308 54.5567 170.505 54.36 170.758 54.2C171.011 54.04 171.348 53.96 171.768 53.96C172.368 53.96 172.791 54.1367 173.038 54.49C173.285 54.8367 173.408 55.2933 173.408 55.86V59H172.568V56.11C172.568 55.8567 172.545 55.6233 172.498 55.41C172.451 55.19 172.348 55.0133 172.188 54.88C172.035 54.7467 171.798 54.68 171.478 54.68C171.071 54.68 170.751 54.82 170.518 55.1C170.285 55.3733 170.168 55.7767 170.168 56.31V59H169.328ZM175.647 53.1C175.48 53.1 175.334 53.04 175.207 52.92C175.087 52.7933 175.027 52.6433 175.027 52.47C175.027 52.2967 175.087 52.15 175.207 52.03C175.334 51.91 175.48 51.85 175.647 51.85C175.82 51.85 175.967 51.91 176.087 52.03C176.214 52.15 176.277 52.2967 176.277 52.47C176.277 52.6433 176.214 52.7933 176.087 52.92C175.967 53.04 175.82 53.1 175.647 53.1ZM175.227 59V54.71H174.537V54.04H176.067V59H175.227ZM179.56 59.12C179.087 59.12 178.677 59.01 178.33 58.79C177.983 58.5633 177.717 58.2567 177.53 57.87C177.343 57.4833 177.25 57.04 177.25 56.54C177.25 56.0467 177.347 55.6067 177.54 55.22C177.74 54.8267 178.02 54.52 178.38 54.3C178.74 54.0733 179.163 53.96 179.65 53.96C180.097 53.96 180.48 54.07 180.8 54.29C181.12 54.51 181.36 54.7733 181.52 55.08L180.75 55.36C180.643 55.16 180.487 55 180.28 54.88C180.073 54.76 179.843 54.7 179.59 54.7C179.343 54.7 179.11 54.7667 178.89 54.9C178.67 55.0267 178.493 55.2267 178.36 55.5C178.227 55.7667 178.16 56.11 178.16 56.53C178.16 56.9433 178.227 57.29 178.36 57.57C178.5 57.8433 178.677 58.0467 178.89 58.18C179.11 58.3133 179.343 58.38 179.59 58.38C179.863 58.38 180.1 58.32 180.3 58.2C180.507 58.0733 180.663 57.9167 180.77 57.73L181.54 58.01C181.353 58.33 181.087 58.5967 180.74 58.81C180.393 59.0167 180 59.12 179.56 59.12ZM182.57 59V52.32H183.41V56.27L185.41 54.04H186.42L184.55 56.09L186.67 59H185.64L183.99 56.71L183.41 57.34V59H182.57ZM187.472 59V54.04H188.092L188.312 54.79C188.452 54.5567 188.649 54.36 188.902 54.2C189.156 54.04 189.492 53.96 189.912 53.96C190.512 53.96 190.936 54.1367 191.182 54.49C191.429 54.8367 191.552 55.2933 191.552 55.86V59H190.712V56.11C190.712 55.8567 190.689 55.6233 190.642 55.41C190.596 55.19 190.492 55.0133 190.332 54.88C190.179 54.7467 189.942 54.68 189.622 54.68C189.216 54.68 188.896 54.82 188.662 55.1C188.429 55.3733 188.312 55.7767 188.312 56.31V59H187.472ZM194.934 59.12C194.414 59.12 193.974 59.0067 193.614 58.78C193.254 58.5467 192.977 58.2367 192.784 57.85C192.597 57.4567 192.504 57.0167 192.504 56.53C192.504 56.0033 192.611 55.55 192.824 55.17C193.037 54.7833 193.324 54.4867 193.684 54.28C194.051 54.0667 194.461 53.96 194.914 53.96C195.307 53.96 195.654 54.04 195.954 54.2C196.254 54.3533 196.501 54.5633 196.694 54.83C196.894 55.09 197.037 55.3867 197.124 55.72C197.217 56.0533 197.251 56.3967 197.224 56.75H193.404C193.417 57.1633 193.507 57.49 193.674 57.73C193.847 57.97 194.051 58.14 194.284 58.24C194.517 58.3333 194.734 58.38 194.934 58.38C195.214 58.38 195.447 58.3367 195.634 58.25C195.827 58.1567 195.981 58.0367 196.094 57.89L196.904 58.13C196.724 58.4167 196.467 58.6533 196.134 58.84C195.801 59.0267 195.401 59.12 194.934 59.12ZM193.414 56.08H196.334C196.334 55.8467 196.274 55.6233 196.154 55.41C196.041 55.1967 195.877 55.0233 195.664 54.89C195.457 54.75 195.207 54.68 194.914 54.68C194.667 54.68 194.434 54.7267 194.214 54.82C193.994 54.9133 193.811 55.0633 193.664 55.27C193.524 55.4767 193.441 55.7467 193.414 56.08ZM199.905 59.12C199.618 59.12 199.335 59.0767 199.055 58.99C198.781 58.8967 198.535 58.76 198.315 58.58C198.101 58.3933 197.938 58.16 197.825 57.88L198.635 57.58C198.708 57.8733 198.868 58.0867 199.115 58.22C199.368 58.3467 199.631 58.41 199.905 58.41C200.105 58.41 200.291 58.38 200.465 58.32C200.645 58.26 200.791 58.1733 200.905 58.06C201.018 57.9467 201.075 57.8167 201.075 57.67C201.075 57.3967 200.965 57.2033 200.745 57.09C200.531 56.9767 200.275 56.89 199.975 56.83L199.285 56.69C199.045 56.6367 198.821 56.5633 198.615 56.47C198.408 56.37 198.241 56.23 198.115 56.05C197.988 55.87 197.925 55.63 197.925 55.33C197.925 55.03 198.018 54.78 198.205 54.58C198.391 54.3733 198.628 54.2167 198.915 54.11C199.208 54.0033 199.515 53.95 199.835 53.95C200.228 53.95 200.598 54.0333 200.945 54.2C201.298 54.36 201.548 54.6133 201.695 54.96L200.905 55.25C200.818 55.05 200.665 54.9033 200.445 54.81C200.231 54.71 200.008 54.66 199.775 54.66C199.521 54.66 199.291 54.7167 199.085 54.83C198.878 54.9433 198.775 55.1067 198.775 55.32C198.775 55.5333 198.861 55.69 199.035 55.79C199.215 55.8833 199.435 55.9567 199.695 56.01L200.345 56.14C200.611 56.1933 200.865 56.27 201.105 56.37C201.345 56.47 201.541 56.62 201.695 56.82C201.848 57.0133 201.925 57.2867 201.925 57.64C201.925 57.9533 201.828 58.22 201.635 58.44C201.441 58.66 201.191 58.83 200.885 58.95C200.578 59.0633 200.251 59.12 199.905 59.12ZM204.612 59.12C204.325 59.12 204.042 59.0767 203.762 58.99C203.488 58.8967 203.242 58.76 203.022 58.58C202.808 58.3933 202.645 58.16 202.532 57.88L203.342 57.58C203.415 57.8733 203.575 58.0867 203.822 58.22C204.075 58.3467 204.338 58.41 204.612 58.41C204.812 58.41 204.998 58.38 205.172 58.32C205.352 58.26 205.498 58.1733 205.612 58.06C205.725 57.9467 205.782 57.8167 205.782 57.67C205.782 57.3967 205.672 57.2033 205.452 57.09C205.238 56.9767 204.982 56.89 204.682 56.83L203.992 56.69C203.752 56.6367 203.528 56.5633 203.322 56.47C203.115 56.37 202.948 56.23 202.822 56.05C202.695 55.87 202.632 55.63 202.632 55.33C202.632 55.03 202.725 54.78 202.912 54.58C203.098 54.3733 203.335 54.2167 203.622 54.11C203.915 54.0033 204.222 53.95 204.542 53.95C204.935 53.95 205.305 54.0333 205.652 54.2C206.005 54.36 206.255 54.6133 206.402 54.96L205.612 55.25C205.525 55.05 205.372 54.9033 205.152 54.81C204.938 54.71 204.715 54.66 204.482 54.66C204.228 54.66 203.998 54.7167 203.792 54.83C203.585 54.9433 203.482 55.1067 203.482 55.32C203.482 55.5333 203.568 55.69 203.742 55.79C203.922 55.8833 204.142 55.9567 204.402 56.01L205.052 56.14C205.318 56.1933 205.572 56.27 205.812 56.37C206.052 56.47 206.248 56.62 206.402 56.82C206.555 57.0133 206.632 57.2867 206.632 57.64C206.632 57.9533 206.535 58.22 206.342 58.44C206.148 58.66 205.898 58.83 205.592 58.95C205.285 59.0633 204.958 59.12 204.612 59.12ZM211.291 53.1C211.125 53.1 210.978 53.04 210.851 52.92C210.731 52.7933 210.671 52.6433 210.671 52.47C210.671 52.2967 210.731 52.15 210.851 52.03C210.978 51.91 211.125 51.85 211.291 51.85C211.465 51.85 211.611 51.91 211.731 52.03C211.858 52.15 211.921 52.2967 211.921 52.47C211.921 52.6433 211.858 52.7933 211.731 52.92C211.611 53.04 211.465 53.1 211.291 53.1ZM210.871 59V54.71H210.181V54.04H211.711V59H210.871ZM213.215 59V54.04H213.835L214.055 54.79C214.195 54.5567 214.391 54.36 214.645 54.2C214.898 54.04 215.235 53.96 215.655 53.96C216.255 53.96 216.678 54.1367 216.925 54.49C217.171 54.8367 217.295 55.2933 217.295 55.86V59H216.455V56.11C216.455 55.8567 216.431 55.6233 216.385 55.41C216.338 55.19 216.235 55.0133 216.075 54.88C215.921 54.7467 215.685 54.68 215.365 54.68C214.958 54.68 214.638 54.82 214.405 55.1C214.171 55.3733 214.055 55.7767 214.055 56.31V59H213.215ZM220.376 59.12C220.003 59.12 219.653 59.02 219.326 58.82C219 58.6133 218.736 58.32 218.536 57.94C218.343 57.5533 218.246 57.0867 218.246 56.54C218.246 55.9933 218.343 55.53 218.536 55.15C218.736 54.7633 219 54.47 219.326 54.27C219.653 54.0633 220.003 53.96 220.376 53.96C220.77 53.96 221.1 54.04 221.366 54.2C221.633 54.3533 221.84 54.56 221.986 54.82V52.32H222.826V57.13C222.826 57.2967 222.833 57.5433 222.846 57.87C222.86 58.19 222.91 58.5667 222.996 59H222.206L221.986 58.25C221.84 58.5167 221.633 58.73 221.366 58.89C221.1 59.0433 220.77 59.12 220.376 59.12ZM220.596 58.4C221.023 58.4 221.363 58.2367 221.616 57.91C221.876 57.5833 222.006 57.1267 222.006 56.54C222.006 55.9467 221.876 55.49 221.616 55.17C221.363 54.8433 221.023 54.68 220.596 54.68C220.17 54.68 219.826 54.8433 219.566 55.17C219.313 55.49 219.186 55.9467 219.186 56.54C219.186 57.1267 219.313 57.5833 219.566 57.91C219.826 58.2367 220.17 58.4 220.596 58.4ZM225.071 53.1C224.904 53.1 224.757 53.04 224.631 52.92C224.511 52.7933 224.451 52.6433 224.451 52.47C224.451 52.2967 224.511 52.15 224.631 52.03C224.757 51.91 224.904 51.85 225.071 51.85C225.244 51.85 225.391 51.91 225.511 52.03C225.637 52.15 225.701 52.2967 225.701 52.47C225.701 52.6433 225.637 52.7933 225.511 52.92C225.391 53.04 225.244 53.1 225.071 53.1ZM224.651 59V54.71H223.961V54.04H225.491V59H224.651ZM228.984 59.12C228.511 59.12 228.101 59.01 227.754 58.79C227.407 58.5633 227.141 58.2567 226.954 57.87C226.767 57.4833 226.674 57.04 226.674 56.54C226.674 56.0467 226.771 55.6067 226.964 55.22C227.164 54.8267 227.444 54.52 227.804 54.3C228.164 54.0733 228.587 53.96 229.074 53.96C229.521 53.96 229.904 54.07 230.224 54.29C230.544 54.51 230.784 54.7733 230.944 55.08L230.174 55.36C230.067 55.16 229.911 55 229.704 54.88C229.497 54.76 229.267 54.7 229.014 54.7C228.767 54.7 228.534 54.7667 228.314 54.9C228.094 55.0267 227.917 55.2267 227.784 55.5C227.651 55.7667 227.584 56.11 227.584 56.53C227.584 56.9433 227.651 57.29 227.784 57.57C227.924 57.8433 228.101 58.0467 228.314 58.18C228.534 58.3133 228.767 58.38 229.014 58.38C229.287 58.38 229.524 58.32 229.724 58.2C229.931 58.0733 230.087 57.9167 230.194 57.73L230.964 58.01C230.777 58.33 230.511 58.5967 230.164 58.81C229.817 59.0167 229.424 59.12 228.984 59.12ZM233.384 59.12C233.071 59.12 232.784 59.0633 232.524 58.95C232.264 58.8367 232.057 58.6733 231.904 58.46C231.751 58.2467 231.674 57.99 231.674 57.69C231.674 57.2967 231.811 56.9867 232.084 56.76C232.364 56.5333 232.754 56.36 233.254 56.24C233.761 56.1133 234.351 56.0133 235.024 55.94C235.037 55.52 234.954 55.1967 234.774 54.97C234.594 54.7433 234.304 54.63 233.904 54.63C233.604 54.63 233.357 54.7 233.164 54.84C232.977 54.9733 232.857 55.16 232.804 55.4L231.994 55.16C232.127 54.78 232.364 54.4867 232.704 54.28C233.051 54.0667 233.447 53.96 233.894 53.96C234.581 53.96 235.081 54.1233 235.394 54.45C235.714 54.77 235.874 55.2767 235.874 55.97V57.13C235.874 57.5433 235.891 57.9 235.924 58.2C235.957 58.5 235.997 58.7667 236.044 59H235.274L235.074 58.32C234.927 58.5667 234.717 58.7633 234.444 58.91C234.171 59.05 233.817 59.12 233.384 59.12ZM233.564 58.45C233.824 58.45 234.071 58.4033 234.304 58.31C234.537 58.2167 234.727 58.06 234.874 57.84C235.021 57.6133 235.094 57.3067 235.094 56.92V56.61C234.587 56.6633 234.147 56.73 233.774 56.81C233.401 56.8833 233.111 56.99 232.904 57.13C232.704 57.2633 232.604 57.4433 232.604 57.67C232.604 57.9033 232.687 58.0933 232.854 58.24C233.027 58.38 233.264 58.45 233.564 58.45ZM238.768 59C238.454 59 238.211 58.97 238.038 58.91C237.871 58.8433 237.754 58.72 237.688 58.54C237.628 58.36 237.598 58.1 237.598 57.76V54.71H236.758V54.04H237.598V52.79H238.438V54.04H239.398V54.71H238.438V57.62C238.438 57.8733 238.461 58.0433 238.508 58.13C238.561 58.2167 238.708 58.26 238.948 58.26H239.398V59H238.768ZM242.61 59.12C242.09 59.12 241.65 59.0067 241.29 58.78C240.93 58.5467 240.653 58.2367 240.46 57.85C240.273 57.4567 240.18 57.0167 240.18 56.53C240.18 56.0033 240.286 55.55 240.5 55.17C240.713 54.7833 241 54.4867 241.36 54.28C241.726 54.0667 242.136 53.96 242.59 53.96C242.983 53.96 243.33 54.04 243.63 54.2C243.93 54.3533 244.176 54.5633 244.37 54.83C244.57 55.09 244.713 55.3867 244.8 55.72C244.893 56.0533 244.926 56.3967 244.9 56.75H241.08C241.093 57.1633 241.183 57.49 241.35 57.73C241.523 57.97 241.726 58.14 241.96 58.24C242.193 58.3333 242.41 58.38 242.61 58.38C242.89 58.38 243.123 58.3367 243.31 58.25C243.503 58.1567 243.656 58.0367 243.77 57.89L244.58 58.13C244.4 58.4167 244.143 58.6533 243.81 58.84C243.476 59.0267 243.076 59.12 242.61 59.12ZM241.09 56.08H244.01C244.01 55.8467 243.95 55.6233 243.83 55.41C243.716 55.1967 243.553 55.0233 243.34 54.89C243.133 54.75 242.883 54.68 242.59 54.68C242.343 54.68 242.11 54.7267 241.89 54.82C241.67 54.9133 241.486 55.0633 241.34 55.27C241.2 55.4767 241.116 55.7467 241.09 56.08ZM247.58 59.12C247.294 59.12 247.01 59.0767 246.73 58.99C246.457 58.8967 246.21 58.76 245.99 58.58C245.777 58.3933 245.614 58.16 245.5 57.88L246.31 57.58C246.384 57.8733 246.544 58.0867 246.79 58.22C247.044 58.3467 247.307 58.41 247.58 58.41C247.78 58.41 247.967 58.38 248.14 58.32C248.32 58.26 248.467 58.1733 248.58 58.06C248.694 57.9467 248.75 57.8167 248.75 57.67C248.75 57.3967 248.64 57.2033 248.42 57.09C248.207 56.9767 247.95 56.89 247.65 56.83L246.96 56.69C246.72 56.6367 246.497 56.5633 246.29 56.47C246.084 56.37 245.917 56.23 245.79 56.05C245.664 55.87 245.6 55.63 245.6 55.33C245.6 55.03 245.694 54.78 245.88 54.58C246.067 54.3733 246.304 54.2167 246.59 54.11C246.884 54.0033 247.19 53.95 247.51 53.95C247.904 53.95 248.274 54.0333 248.62 54.2C248.974 54.36 249.224 54.6133 249.37 54.96L248.58 55.25C248.494 55.05 248.34 54.9033 248.12 54.81C247.907 54.71 247.684 54.66 247.45 54.66C247.197 54.66 246.967 54.7167 246.76 54.83C246.554 54.9433 246.45 55.1067 246.45 55.32C246.45 55.5333 246.537 55.69 246.71 55.79C246.89 55.8833 247.11 55.9567 247.37 56.01L248.02 56.14C248.287 56.1933 248.54 56.27 248.78 56.37C249.02 56.47 249.217 56.62 249.37 56.82C249.524 57.0133 249.6 57.2867 249.6 57.64C249.6 57.9533 249.504 58.22 249.31 58.44C249.117 58.66 248.867 58.83 248.56 58.95C248.254 59.0633 247.927 59.12 247.58 59.12ZM93.589 71.12C93.2757 71.12 92.989 71.0633 92.729 70.95C92.469 70.8367 92.2624 70.6733 92.109 70.46C91.9557 70.2467 91.879 69.99 91.879 69.69C91.879 69.2967 92.0157 68.9867 92.289 68.76C92.569 68.5333 92.959 68.36 93.459 68.24C93.9657 68.1133 94.5557 68.0133 95.229 67.94C95.2424 67.52 95.159 67.1967 94.979 66.97C94.799 66.7433 94.509 66.63 94.109 66.63C93.809 66.63 93.5624 66.7 93.369 66.84C93.1824 66.9733 93.0624 67.16 93.009 67.4L92.199 67.16C92.3324 66.78 92.569 66.4867 92.909 66.28C93.2557 66.0667 93.6524 65.96 94.099 65.96C94.7857 65.96 95.2857 66.1233 95.599 66.45C95.919 66.77 96.079 67.2767 96.079 67.97V69.13C96.079 69.5433 96.0957 69.9 96.129 70.2C96.1624 70.5 96.2024 70.7667 96.249 71H95.479L95.279 70.32C95.1324 70.5667 94.9224 70.7633 94.649 70.91C94.3757 71.05 94.0224 71.12 93.589 71.12ZM93.769 70.45C94.029 70.45 94.2757 70.4033 94.509 70.31C94.7424 70.2167 94.9324 70.06 95.079 69.84C95.2257 69.6133 95.299 69.3067 95.299 68.92V68.61C94.7924 68.6633 94.3524 68.73 93.979 68.81C93.6057 68.8833 93.3157 68.99 93.109 69.13C92.909 69.2633 92.809 69.4433 92.809 69.67C92.809 69.9033 92.8924 70.0933 93.059 70.24C93.2324 70.38 93.469 70.45 93.769 70.45ZM97.4627 71V66.04H98.0827L98.3027 66.79C98.4427 66.5567 98.6327 66.36 98.8727 66.2C99.1194 66.04 99.426 65.96 99.7927 65.96C100.173 65.96 100.479 66.0367 100.713 66.19C100.946 66.3433 101.116 66.5567 101.223 66.83C101.423 66.5233 101.663 66.3033 101.943 66.17C102.229 66.03 102.546 65.96 102.893 65.96C103.466 65.96 103.876 66.1367 104.123 66.49C104.369 66.8367 104.493 67.2933 104.493 67.86V71H103.653V68.11C103.653 67.8567 103.626 67.6233 103.573 67.41C103.526 67.19 103.426 67.0133 103.273 66.88C103.126 66.7467 102.899 66.68 102.593 66.68C102.233 66.68 101.943 66.82 101.723 67.1C101.509 67.3733 101.403 67.7767 101.403 68.31V71H100.563V68.11C100.563 67.8567 100.536 67.6233 100.483 67.41C100.436 67.19 100.336 67.0133 100.183 66.88C100.036 66.7467 99.8094 66.68 99.5027 66.68C99.1427 66.68 98.8527 66.82 98.6327 67.1C98.4127 67.3733 98.3027 67.7767 98.3027 68.31V71H97.4627ZM107.823 71.12C107.537 71.12 107.253 71.07 106.973 70.97C106.693 70.87 106.437 70.7167 106.203 70.51C105.977 70.2967 105.793 70.0267 105.653 69.7C105.513 69.3733 105.443 68.9867 105.443 68.54C105.443 68.0933 105.513 67.7067 105.653 67.38C105.793 67.0533 105.977 66.7867 106.203 66.58C106.437 66.3667 106.693 66.21 106.973 66.11C107.253 66.01 107.537 65.96 107.823 65.96C108.11 65.96 108.393 66.01 108.673 66.11C108.96 66.21 109.217 66.3667 109.443 66.58C109.677 66.7867 109.86 67.0533 109.993 67.38C110.133 67.7067 110.203 68.0933 110.203 68.54C110.203 68.9867 110.133 69.3733 109.993 69.7C109.86 70.0267 109.677 70.2967 109.443 70.51C109.217 70.7167 108.96 70.87 108.673 70.97C108.393 71.07 108.11 71.12 107.823 71.12ZM107.823 70.38C108.063 70.38 108.297 70.3167 108.523 70.19C108.75 70.0567 108.937 69.8567 109.083 69.59C109.23 69.3167 109.303 68.9667 109.303 68.54C109.303 68.1133 109.23 67.7667 109.083 67.5C108.937 67.2267 108.75 67.0267 108.523 66.9C108.297 66.7667 108.063 66.7 107.823 66.7C107.59 66.7 107.357 66.7667 107.123 66.9C106.897 67.0267 106.71 67.2267 106.563 67.5C106.417 67.7667 106.343 68.1133 106.343 68.54C106.343 68.9667 106.417 69.3167 106.563 69.59C106.71 69.8567 106.897 70.0567 107.123 70.19C107.357 70.3167 107.59 70.38 107.823 70.38ZM112.851 71.12C112.464 71.12 112.154 71.04 111.921 70.88C111.688 70.7133 111.518 70.4867 111.411 70.2C111.311 69.9067 111.261 69.5733 111.261 69.2V66.03H112.101V69C112.101 69.3667 112.144 69.65 112.231 69.85C112.318 70.05 112.438 70.19 112.591 70.27C112.751 70.3433 112.934 70.38 113.141 70.38C113.534 70.38 113.841 70.2433 114.061 69.97C114.288 69.69 114.401 69.2867 114.401 68.76V66.03H115.241V71H114.611L114.401 70.28C114.261 70.52 114.071 70.72 113.831 70.88C113.591 71.04 113.264 71.12 112.851 71.12ZM116.642 71V66.04H117.262L117.482 66.79C117.622 66.5567 117.819 66.36 118.072 66.2C118.326 66.04 118.662 65.96 119.082 65.96C119.682 65.96 120.106 66.1367 120.352 66.49C120.599 66.8367 120.722 67.2933 120.722 67.86V71H119.882V68.11C119.882 67.8567 119.859 67.6233 119.812 67.41C119.766 67.19 119.662 67.0133 119.502 66.88C119.349 66.7467 119.112 66.68 118.792 66.68C118.386 66.68 118.066 66.82 117.832 67.1C117.599 67.3733 117.482 67.7767 117.482 68.31V71H116.642ZM123.484 71C123.171 71 122.928 70.97 122.754 70.91C122.588 70.8433 122.471 70.72 122.404 70.54C122.344 70.36 122.314 70.1 122.314 69.76V66.71H121.474V66.04H122.314V64.79H123.154V66.04H124.114V66.71H123.154V69.62C123.154 69.8733 123.178 70.0433 123.224 70.13C123.278 70.2167 123.424 70.26 123.664 70.26H124.114V71H123.484ZM130.079 71.12C129.793 71.12 129.509 71.07 129.229 70.97C128.949 70.87 128.693 70.7167 128.459 70.51C128.233 70.2967 128.049 70.0267 127.909 69.7C127.769 69.3733 127.699 68.9867 127.699 68.54C127.699 68.0933 127.769 67.7067 127.909 67.38C128.049 67.0533 128.233 66.7867 128.459 66.58C128.693 66.3667 128.949 66.21 129.229 66.11C129.509 66.01 129.793 65.96 130.079 65.96C130.366 65.96 130.649 66.01 130.929 66.11C131.216 66.21 131.473 66.3667 131.699 66.58C131.933 66.7867 132.116 67.0533 132.249 67.38C132.389 67.7067 132.459 68.0933 132.459 68.54C132.459 68.9867 132.389 69.3733 132.249 69.7C132.116 70.0267 131.933 70.2967 131.699 70.51C131.473 70.7167 131.216 70.87 130.929 70.97C130.649 71.07 130.366 71.12 130.079 71.12ZM130.079 70.38C130.319 70.38 130.553 70.3167 130.779 70.19C131.006 70.0567 131.193 69.8567 131.339 69.59C131.486 69.3167 131.559 68.9667 131.559 68.54C131.559 68.1133 131.486 67.7667 131.339 67.5C131.193 67.2267 131.006 67.0267 130.779 66.9C130.553 66.7667 130.319 66.7 130.079 66.7C129.846 66.7 129.613 66.7667 129.379 66.9C129.153 67.0267 128.966 67.2267 128.819 67.5C128.673 67.7667 128.599 68.1133 128.599 68.54C128.599 68.9667 128.673 69.3167 128.819 69.59C128.966 69.8567 129.153 70.0567 129.379 70.19C129.613 70.3167 129.846 70.38 130.079 70.38ZM133.827 71V66.71H132.987V66.04H133.827V65.3C133.827 64.96 133.86 64.69 133.927 64.49C133.994 64.29 134.124 64.15 134.317 64.07C134.51 63.9833 134.79 63.94 135.157 63.94H135.697V64.65H135.177C134.964 64.65 134.824 64.6933 134.757 64.78C134.697 64.8667 134.667 65.0367 134.667 65.29V66.04H135.697V66.71H134.667V71H133.827ZM141.135 71.12C140.848 71.12 140.565 71.0767 140.285 70.99C140.012 70.8967 139.765 70.76 139.545 70.58C139.332 70.3933 139.168 70.16 139.055 69.88L139.865 69.58C139.938 69.8733 140.098 70.0867 140.345 70.22C140.598 70.3467 140.862 70.41 141.135 70.41C141.335 70.41 141.522 70.38 141.695 70.32C141.875 70.26 142.022 70.1733 142.135 70.06C142.248 69.9467 142.305 69.8167 142.305 69.67C142.305 69.3967 142.195 69.2033 141.975 69.09C141.762 68.9767 141.505 68.89 141.205 68.83L140.515 68.69C140.275 68.6367 140.052 68.5633 139.845 68.47C139.638 68.37 139.472 68.23 139.345 68.05C139.218 67.87 139.155 67.63 139.155 67.33C139.155 67.03 139.248 66.78 139.435 66.58C139.622 66.3733 139.858 66.2167 140.145 66.11C140.438 66.0033 140.745 65.95 141.065 65.95C141.458 65.95 141.828 66.0333 142.175 66.2C142.528 66.36 142.778 66.6133 142.925 66.96L142.135 67.25C142.048 67.05 141.895 66.9033 141.675 66.81C141.462 66.71 141.238 66.66 141.005 66.66C140.752 66.66 140.522 66.7167 140.315 66.83C140.108 66.9433 140.005 67.1067 140.005 67.32C140.005 67.5333 140.092 67.69 140.265 67.79C140.445 67.8833 140.665 67.9567 140.925 68.01L141.575 68.14C141.842 68.1933 142.095 68.27 142.335 68.37C142.575 68.47 142.772 68.62 142.925 68.82C143.078 69.0133 143.155 69.2867 143.155 69.64C143.155 69.9533 143.058 70.22 142.865 70.44C142.672 70.66 142.422 70.83 142.115 70.95C141.808 71.0633 141.482 71.12 141.135 71.12ZM144.152 71V64.32H144.992V66.79C145.132 66.5567 145.329 66.36 145.582 66.2C145.835 66.04 146.172 65.96 146.592 65.96C147.192 65.96 147.615 66.1367 147.862 66.49C148.109 66.8367 148.232 67.2933 148.232 67.86V71H147.392V68.11C147.392 67.8567 147.369 67.6233 147.322 67.41C147.275 67.19 147.172 67.0133 147.012 66.88C146.859 66.7467 146.622 66.68 146.302 66.68C145.895 66.68 145.575 66.82 145.342 67.1C145.109 67.3733 144.992 67.7767 144.992 68.31V71H144.152ZM151.001 71.12C150.688 71.12 150.401 71.0633 150.141 70.95C149.881 70.8367 149.674 70.6733 149.521 70.46C149.368 70.2467 149.291 69.99 149.291 69.69C149.291 69.2967 149.428 68.9867 149.701 68.76C149.981 68.5333 150.371 68.36 150.871 68.24C151.378 68.1133 151.968 68.0133 152.641 67.94C152.654 67.52 152.571 67.1967 152.391 66.97C152.211 66.7433 151.921 66.63 151.521 66.63C151.221 66.63 150.974 66.7 150.781 66.84C150.594 66.9733 150.474 67.16 150.421 67.4L149.611 67.16C149.744 66.78 149.981 66.4867 150.321 66.28C150.668 66.0667 151.064 65.96 151.511 65.96C152.198 65.96 152.698 66.1233 153.011 66.45C153.331 66.77 153.491 67.2767 153.491 67.97V69.13C153.491 69.5433 153.508 69.9 153.541 70.2C153.574 70.5 153.614 70.7667 153.661 71H152.891L152.691 70.32C152.544 70.5667 152.334 70.7633 152.061 70.91C151.788 71.05 151.434 71.12 151.001 71.12ZM151.181 70.45C151.441 70.45 151.688 70.4033 151.921 70.31C152.154 70.2167 152.344 70.06 152.491 69.84C152.638 69.6133 152.711 69.3067 152.711 68.92V68.61C152.204 68.6633 151.764 68.73 151.391 68.81C151.018 68.8833 150.728 68.99 150.521 69.13C150.321 69.2633 150.221 69.4433 150.221 69.67C150.221 69.9033 150.304 70.0933 150.471 70.24C150.644 70.38 150.881 70.45 151.181 70.45ZM154.875 71V66.04H155.485L155.755 66.96C155.928 66.66 156.161 66.42 156.455 66.24C156.755 66.0533 157.111 65.96 157.525 65.96V66.83C157.478 66.83 157.428 66.83 157.375 66.83C157.328 66.83 157.281 66.8333 157.235 66.84C156.668 66.8867 156.271 67.0833 156.045 67.43C155.825 67.7767 155.715 68.2567 155.715 68.87V71H154.875ZM160.383 71.12C159.863 71.12 159.423 71.0067 159.063 70.78C158.703 70.5467 158.427 70.2367 158.233 69.85C158.047 69.4567 157.953 69.0167 157.953 68.53C157.953 68.0033 158.06 67.55 158.273 67.17C158.487 66.7833 158.773 66.4867 159.133 66.28C159.5 66.0667 159.91 65.96 160.363 65.96C160.757 65.96 161.103 66.04 161.403 66.2C161.703 66.3533 161.95 66.5633 162.143 66.83C162.343 67.09 162.487 67.3867 162.573 67.72C162.667 68.0533 162.7 68.3967 162.673 68.75H158.853C158.867 69.1633 158.957 69.49 159.123 69.73C159.297 69.97 159.5 70.14 159.733 70.24C159.967 70.3333 160.183 70.38 160.383 70.38C160.663 70.38 160.897 70.3367 161.083 70.25C161.277 70.1567 161.43 70.0367 161.543 69.89L162.353 70.13C162.173 70.4167 161.917 70.6533 161.583 70.84C161.25 71.0267 160.85 71.12 160.383 71.12ZM158.863 68.08H161.783C161.783 67.8467 161.723 67.6233 161.603 67.41C161.49 67.1967 161.327 67.0233 161.113 66.89C160.907 66.75 160.657 66.68 160.363 66.68C160.117 66.68 159.883 66.7267 159.663 66.82C159.443 66.9133 159.26 67.0633 159.113 67.27C158.973 67.4767 158.89 67.7467 158.863 68.08ZM165.474 71.12C165.101 71.12 164.751 71.02 164.424 70.82C164.097 70.6133 163.834 70.32 163.634 69.94C163.441 69.5533 163.344 69.0867 163.344 68.54C163.344 67.9933 163.441 67.53 163.634 67.15C163.834 66.7633 164.097 66.47 164.424 66.27C164.751 66.0633 165.101 65.96 165.474 65.96C165.867 65.96 166.197 66.04 166.464 66.2C166.731 66.3533 166.937 66.56 167.084 66.82V64.32H167.924V69.13C167.924 69.2967 167.931 69.5433 167.944 69.87C167.957 70.19 168.007 70.5667 168.094 71H167.304L167.084 70.25C166.937 70.5167 166.731 70.73 166.464 70.89C166.197 71.0433 165.867 71.12 165.474 71.12ZM165.694 70.4C166.121 70.4 166.461 70.2367 166.714 69.91C166.974 69.5833 167.104 69.1267 167.104 68.54C167.104 67.9467 166.974 67.49 166.714 67.17C166.461 66.8433 166.121 66.68 165.694 66.68C165.267 66.68 164.924 66.8433 164.664 67.17C164.411 67.49 164.284 67.9467 164.284 68.54C164.284 69.1267 164.411 69.5833 164.664 69.91C164.924 70.2367 165.267 70.4 165.694 70.4ZM173.501 71.12C173.188 71.12 172.901 71.0633 172.641 70.95C172.381 70.8367 172.174 70.6733 172.021 70.46C171.868 70.2467 171.791 69.99 171.791 69.69C171.791 69.2967 171.928 68.9867 172.201 68.76C172.481 68.5333 172.871 68.36 173.371 68.24C173.878 68.1133 174.468 68.0133 175.141 67.94C175.154 67.52 175.071 67.1967 174.891 66.97C174.711 66.7433 174.421 66.63 174.021 66.63C173.721 66.63 173.474 66.7 173.281 66.84C173.094 66.9733 172.974 67.16 172.921 67.4L172.111 67.16C172.244 66.78 172.481 66.4867 172.821 66.28C173.168 66.0667 173.564 65.96 174.011 65.96C174.698 65.96 175.198 66.1233 175.511 66.45C175.831 66.77 175.991 67.2767 175.991 67.97V69.13C175.991 69.5433 176.008 69.9 176.041 70.2C176.074 70.5 176.114 70.7667 176.161 71H175.391L175.191 70.32C175.044 70.5667 174.834 70.7633 174.561 70.91C174.288 71.05 173.934 71.12 173.501 71.12ZM173.681 70.45C173.941 70.45 174.188 70.4033 174.421 70.31C174.654 70.2167 174.844 70.06 174.991 69.84C175.138 69.6133 175.211 69.3067 175.211 68.92V68.61C174.704 68.6633 174.264 68.73 173.891 68.81C173.518 68.8833 173.228 68.99 173.021 69.13C172.821 69.2633 172.721 69.4433 172.721 69.67C172.721 69.9033 172.804 70.0933 172.971 70.24C173.144 70.38 173.381 70.45 173.681 70.45ZM177.375 71V66.04H177.985L178.255 66.96C178.428 66.66 178.661 66.42 178.955 66.24C179.255 66.0533 179.611 65.96 180.025 65.96V66.83C179.978 66.83 179.928 66.83 179.875 66.83C179.828 66.83 179.781 66.8333 179.735 66.84C179.168 66.8867 178.771 67.0833 178.545 67.43C178.325 67.7767 178.215 68.2567 178.215 68.87V71H177.375ZM182.439 71C182.126 71 181.883 70.97 181.709 70.91C181.543 70.8433 181.426 70.72 181.359 70.54C181.299 70.36 181.269 70.1 181.269 69.76V66.71H180.429V66.04H181.269V64.79H182.109V66.04H183.069V66.71H182.109V69.62C182.109 69.8733 182.133 70.0433 182.179 70.13C182.233 70.2167 182.379 70.26 182.619 70.26H183.069V71H182.439ZM185.032 65.1C184.865 65.1 184.718 65.04 184.592 64.92C184.472 64.7933 184.412 64.6433 184.412 64.47C184.412 64.2967 184.472 64.15 184.592 64.03C184.718 63.91 184.865 63.85 185.032 63.85C185.205 63.85 185.352 63.91 185.472 64.03C185.598 64.15 185.662 64.2967 185.662 64.47C185.662 64.6433 185.598 64.7933 185.472 64.92C185.352 65.04 185.205 65.1 185.032 65.1ZM184.612 71V66.71H183.922V66.04H185.452V71H184.612ZM188.945 71.12C188.472 71.12 188.062 71.01 187.715 70.79C187.368 70.5633 187.102 70.2567 186.915 69.87C186.728 69.4833 186.635 69.04 186.635 68.54C186.635 68.0467 186.732 67.6067 186.925 67.22C187.125 66.8267 187.405 66.52 187.765 66.3C188.125 66.0733 188.548 65.96 189.035 65.96C189.482 65.96 189.865 66.07 190.185 66.29C190.505 66.51 190.745 66.7733 190.905 67.08L190.135 67.36C190.028 67.16 189.872 67 189.665 66.88C189.458 66.76 189.228 66.7 188.975 66.7C188.728 66.7 188.495 66.7667 188.275 66.9C188.055 67.0267 187.878 67.2267 187.745 67.5C187.612 67.7667 187.545 68.11 187.545 68.53C187.545 68.9433 187.612 69.29 187.745 69.57C187.885 69.8433 188.062 70.0467 188.275 70.18C188.495 70.3133 188.728 70.38 188.975 70.38C189.248 70.38 189.485 70.32 189.685 70.2C189.892 70.0733 190.048 69.9167 190.155 69.73L190.925 70.01C190.738 70.33 190.472 70.5967 190.125 70.81C189.778 71.0167 189.385 71.12 188.945 71.12ZM193.125 71C192.812 71 192.568 70.97 192.395 70.91C192.228 70.8433 192.112 70.72 192.045 70.54C191.985 70.36 191.955 70.1 191.955 69.76V64.33H192.795V69.62C192.795 69.8733 192.822 70.0433 192.875 70.13C192.928 70.2167 193.072 70.26 193.305 70.26H193.495V71H193.125ZM196.457 71.12C195.937 71.12 195.497 71.0067 195.137 70.78C194.777 70.5467 194.501 70.2367 194.307 69.85C194.121 69.4567 194.027 69.0167 194.027 68.53C194.027 68.0033 194.134 67.55 194.347 67.17C194.561 66.7833 194.847 66.4867 195.207 66.28C195.574 66.0667 195.984 65.96 196.437 65.96C196.831 65.96 197.177 66.04 197.477 66.2C197.777 66.3533 198.024 66.5633 198.217 66.83C198.417 67.09 198.561 67.3867 198.647 67.72C198.741 68.0533 198.774 68.3967 198.747 68.75H194.927C194.941 69.1633 195.031 69.49 195.197 69.73C195.371 69.97 195.574 70.14 195.807 70.24C196.041 70.3333 196.257 70.38 196.457 70.38C196.737 70.38 196.971 70.3367 197.157 70.25C197.351 70.1567 197.504 70.0367 197.617 69.89L198.427 70.13C198.247 70.4167 197.991 70.6533 197.657 70.84C197.324 71.0267 196.924 71.12 196.457 71.12ZM194.937 68.08H197.857C197.857 67.8467 197.797 67.6233 197.677 67.41C197.564 67.1967 197.401 67.0233 197.187 66.89C196.981 66.75 196.731 66.68 196.437 66.68C196.191 66.68 195.957 66.7267 195.737 66.82C195.517 66.9133 195.334 67.0633 195.187 67.27C195.047 67.4767 194.964 67.7467 194.937 68.08ZM201.428 71.12C201.141 71.12 200.858 71.0767 200.578 70.99C200.305 70.8967 200.058 70.76 199.838 70.58C199.625 70.3933 199.461 70.16 199.348 69.88L200.158 69.58C200.231 69.8733 200.391 70.0867 200.638 70.22C200.891 70.3467 201.155 70.41 201.428 70.41C201.628 70.41 201.815 70.38 201.988 70.32C202.168 70.26 202.315 70.1733 202.428 70.06C202.541 69.9467 202.598 69.8167 202.598 69.67C202.598 69.3967 202.488 69.2033 202.268 69.09C202.055 68.9767 201.798 68.89 201.498 68.83L200.808 68.69C200.568 68.6367 200.345 68.5633 200.138 68.47C199.931 68.37 199.765 68.23 199.638 68.05C199.511 67.87 199.448 67.63 199.448 67.33C199.448 67.03 199.541 66.78 199.728 66.58C199.915 66.3733 200.151 66.2167 200.438 66.11C200.731 66.0033 201.038 65.95 201.358 65.95C201.751 65.95 202.121 66.0333 202.468 66.2C202.821 66.36 203.071 66.6133 203.218 66.96L202.428 67.25C202.341 67.05 202.188 66.9033 201.968 66.81C201.755 66.71 201.531 66.66 201.298 66.66C201.045 66.66 200.815 66.7167 200.608 66.83C200.401 66.9433 200.298 67.1067 200.298 67.32C200.298 67.5333 200.385 67.69 200.558 67.79C200.738 67.8833 200.958 67.9567 201.218 68.01L201.868 68.14C202.135 68.1933 202.388 68.27 202.628 68.37C202.868 68.47 203.065 68.62 203.218 68.82C203.371 69.0133 203.448 69.2867 203.448 69.64C203.448 69.9533 203.351 70.22 203.158 70.44C202.965 70.66 202.715 70.83 202.408 70.95C202.101 71.0633 201.775 71.12 201.428 71.12ZM209.058 71.12C208.685 71.12 208.335 71.02 208.008 70.82C207.681 70.6133 207.418 70.32 207.218 69.94C207.025 69.5533 206.928 69.0867 206.928 68.54C206.928 67.9933 207.025 67.53 207.218 67.15C207.418 66.7633 207.681 66.47 208.008 66.27C208.335 66.0633 208.685 65.96 209.058 65.96C209.451 65.96 209.781 66.04 210.048 66.2C210.315 66.3533 210.521 66.56 210.668 66.82V64.32H211.508V69.13C211.508 69.2967 211.515 69.5433 211.528 69.87C211.541 70.19 211.591 70.5667 211.678 71H210.888L210.668 70.25C210.521 70.5167 210.315 70.73 210.048 70.89C209.781 71.0433 209.451 71.12 209.058 71.12ZM209.278 70.4C209.705 70.4 210.045 70.2367 210.298 69.91C210.558 69.5833 210.688 69.1267 210.688 68.54C210.688 67.9467 210.558 67.49 210.298 67.17C210.045 66.8433 209.705 66.68 209.278 66.68C208.851 66.68 208.508 66.8433 208.248 67.17C207.995 67.49 207.868 67.9467 207.868 68.54C207.868 69.1267 207.995 69.5833 208.248 69.91C208.508 70.2367 208.851 70.4 209.278 70.4ZM215.002 71.12C214.482 71.12 214.042 71.0067 213.682 70.78C213.322 70.5467 213.046 70.2367 212.852 69.85C212.666 69.4567 212.572 69.0167 212.572 68.53C212.572 68.0033 212.679 67.55 212.892 67.17C213.106 66.7833 213.392 66.4867 213.752 66.28C214.119 66.0667 214.529 65.96 214.982 65.96C215.376 65.96 215.722 66.04 216.022 66.2C216.322 66.3533 216.569 66.5633 216.762 66.83C216.962 67.09 217.106 67.3867 217.192 67.72C217.286 68.0533 217.319 68.3967 217.292 68.75H213.472C213.486 69.1633 213.576 69.49 213.742 69.73C213.916 69.97 214.119 70.14 214.352 70.24C214.586 70.3333 214.802 70.38 215.002 70.38C215.282 70.38 215.516 70.3367 215.702 70.25C215.896 70.1567 216.049 70.0367 216.162 69.89L216.972 70.13C216.792 70.4167 216.536 70.6533 216.202 70.84C215.869 71.0267 215.469 71.12 215.002 71.12ZM213.482 68.08H216.402C216.402 67.8467 216.342 67.6233 216.222 67.41C216.109 67.1967 215.946 67.0233 215.732 66.89C215.526 66.75 215.276 66.68 214.982 66.68C214.736 66.68 214.502 66.7267 214.282 66.82C214.062 66.9133 213.879 67.0633 213.732 67.27C213.592 67.4767 213.509 67.7467 213.482 68.08ZM219.793 71C219.48 71 219.236 70.97 219.063 70.91C218.896 70.8433 218.78 70.72 218.713 70.54C218.653 70.36 218.623 70.1 218.623 69.76V66.71H217.783V66.04H218.623V64.79H219.463V66.04H220.423V66.71H219.463V69.62C219.463 69.8733 219.486 70.0433 219.533 70.13C219.586 70.2167 219.733 70.26 219.973 70.26H220.423V71H219.793ZM223.635 71.12C223.115 71.12 222.675 71.0067 222.315 70.78C221.955 70.5467 221.679 70.2367 221.485 69.85C221.299 69.4567 221.205 69.0167 221.205 68.53C221.205 68.0033 221.312 67.55 221.525 67.17C221.739 66.7833 222.025 66.4867 222.385 66.28C222.752 66.0667 223.162 65.96 223.615 65.96C224.009 65.96 224.355 66.04 224.655 66.2C224.955 66.3533 225.202 66.5633 225.395 66.83C225.595 67.09 225.739 67.3867 225.825 67.72C225.919 68.0533 225.952 68.3967 225.925 68.75H222.105C222.119 69.1633 222.209 69.49 222.375 69.73C222.549 69.97 222.752 70.14 222.985 70.24C223.219 70.3333 223.435 70.38 223.635 70.38C223.915 70.38 224.149 70.3367 224.335 70.25C224.529 70.1567 224.682 70.0367 224.795 69.89L225.605 70.13C225.425 70.4167 225.169 70.6533 224.835 70.84C224.502 71.0267 224.102 71.12 223.635 71.12ZM222.115 68.08H225.035C225.035 67.8467 224.975 67.6233 224.855 67.41C224.742 67.1967 224.579 67.0233 224.365 66.89C224.159 66.75 223.909 66.68 223.615 66.68C223.369 66.68 223.135 66.7267 222.915 66.82C222.695 66.9133 222.512 67.0633 222.365 67.27C222.225 67.4767 222.142 67.7467 222.115 68.08ZM228.906 71.12C228.432 71.12 228.022 71.01 227.676 70.79C227.329 70.5633 227.062 70.2567 226.876 69.87C226.689 69.4833 226.596 69.04 226.596 68.54C226.596 68.0467 226.692 67.6067 226.886 67.22C227.086 66.8267 227.366 66.52 227.726 66.3C228.086 66.0733 228.509 65.96 228.996 65.96C229.442 65.96 229.826 66.07 230.146 66.29C230.466 66.51 230.706 66.7733 230.866 67.08L230.096 67.36C229.989 67.16 229.832 67 229.626 66.88C229.419 66.76 229.189 66.7 228.936 66.7C228.689 66.7 228.456 66.7667 228.236 66.9C228.016 67.0267 227.839 67.2267 227.706 67.5C227.572 67.7667 227.506 68.11 227.506 68.53C227.506 68.9433 227.572 69.29 227.706 69.57C227.846 69.8433 228.022 70.0467 228.236 70.18C228.456 70.3133 228.689 70.38 228.936 70.38C229.209 70.38 229.446 70.32 229.646 70.2C229.852 70.0733 230.009 69.9167 230.116 69.73L230.886 70.01C230.699 70.33 230.432 70.5967 230.086 70.81C229.739 71.0167 229.346 71.12 228.906 71.12ZM233.426 71C233.112 71 232.869 70.97 232.696 70.91C232.529 70.8433 232.412 70.72 232.346 70.54C232.286 70.36 232.256 70.1 232.256 69.76V66.71H231.416V66.04H232.256V64.79H233.096V66.04H234.056V66.71H233.096V69.62C233.096 69.8733 233.119 70.0433 233.166 70.13C233.219 70.2167 233.366 70.26 233.606 70.26H234.056V71H233.426ZM237.268 71.12C236.748 71.12 236.308 71.0067 235.948 70.78C235.588 70.5467 235.311 70.2367 235.118 69.85C234.931 69.4567 234.838 69.0167 234.838 68.53C234.838 68.0033 234.945 67.55 235.158 67.17C235.371 66.7833 235.658 66.4867 236.018 66.28C236.385 66.0667 236.795 65.96 237.248 65.96C237.641 65.96 237.988 66.04 238.288 66.2C238.588 66.3533 238.835 66.5633 239.028 66.83C239.228 67.09 239.371 67.3867 239.458 67.72C239.551 68.0533 239.585 68.3967 239.558 68.75H235.738C235.751 69.1633 235.841 69.49 236.008 69.73C236.181 69.97 236.385 70.14 236.618 70.24C236.851 70.3333 237.068 70.38 237.268 70.38C237.548 70.38 237.781 70.3367 237.968 70.25C238.161 70.1567 238.315 70.0367 238.428 69.89L239.238 70.13C239.058 70.4167 238.801 70.6533 238.468 70.84C238.135 71.0267 237.735 71.12 237.268 71.12ZM235.748 68.08H238.668C238.668 67.8467 238.608 67.6233 238.488 67.41C238.375 67.1967 238.211 67.0233 237.998 66.89C237.791 66.75 237.541 66.68 237.248 66.68C237.001 66.68 236.768 66.7267 236.548 66.82C236.328 66.9133 236.145 67.0633 235.998 67.27C235.858 67.4767 235.775 67.7467 235.748 68.08ZM242.359 71.12C241.985 71.12 241.635 71.02 241.309 70.82C240.982 70.6133 240.719 70.32 240.519 69.94C240.325 69.5533 240.229 69.0867 240.229 68.54C240.229 67.9933 240.325 67.53 240.519 67.15C240.719 66.7633 240.982 66.47 241.309 66.27C241.635 66.0633 241.985 65.96 242.359 65.96C242.752 65.96 243.082 66.04 243.349 66.2C243.615 66.3533 243.822 66.56 243.969 66.82V64.32H244.809V69.13C244.809 69.2967 244.815 69.5433 244.829 69.87C244.842 70.19 244.892 70.5667 244.979 71H244.189L243.969 70.25C243.822 70.5167 243.615 70.73 243.349 70.89C243.082 71.0433 242.752 71.12 242.359 71.12ZM242.579 70.4C243.005 70.4 243.345 70.2367 243.599 69.91C243.859 69.5833 243.989 69.1267 243.989 68.54C243.989 67.9467 243.859 67.49 243.599 67.17C243.345 66.8433 243.005 66.68 242.579 66.68C242.152 66.68 241.809 66.8433 241.549 67.17C241.295 67.49 241.169 67.9467 241.169 68.54C241.169 69.1267 241.295 69.5833 241.549 69.91C241.809 70.2367 242.152 70.4 242.579 70.4ZM249.286 71V66.71H248.446V66.04H249.286V65.3C249.286 64.96 249.319 64.69 249.386 64.49C249.453 64.29 249.583 64.15 249.776 64.07C249.969 63.9833 250.249 63.94 250.616 63.94H251.156V64.65H250.636C250.423 64.65 250.283 64.6933 250.216 64.78C250.156 64.8667 250.126 65.0367 250.126 65.29V66.04H251.156V66.71H250.126V71H249.286ZM253.179 71.12C252.866 71.12 252.579 71.0633 252.319 70.95C252.059 70.8367 251.852 70.6733 251.699 70.46C251.546 70.2467 251.469 69.99 251.469 69.69C251.469 69.2967 251.606 68.9867 251.879 68.76C252.159 68.5333 252.549 68.36 253.049 68.24C253.556 68.1133 254.146 68.0133 254.819 67.94C254.832 67.52 254.749 67.1967 254.569 66.97C254.389 66.7433 254.099 66.63 253.699 66.63C253.399 66.63 253.152 66.7 252.959 66.84C252.772 66.9733 252.652 67.16 252.599 67.4L251.789 67.16C251.922 66.78 252.159 66.4867 252.499 66.28C252.846 66.0667 253.242 65.96 253.689 65.96C254.376 65.96 254.876 66.1233 255.189 66.45C255.509 66.77 255.669 67.2767 255.669 67.97V69.13C255.669 69.5433 255.686 69.9 255.719 70.2C255.752 70.5 255.792 70.7667 255.839 71H255.069L254.869 70.32C254.722 70.5667 254.512 70.7633 254.239 70.91C253.966 71.05 253.612 71.12 253.179 71.12ZM253.359 70.45C253.619 70.45 253.866 70.4033 254.099 70.31C254.332 70.2167 254.522 70.06 254.669 69.84C254.816 69.6133 254.889 69.3067 254.889 68.92V68.61C254.382 68.6633 253.942 68.73 253.569 68.81C253.196 68.8833 252.906 68.99 252.699 69.13C252.499 69.2633 252.399 69.4433 252.399 69.67C252.399 69.9033 252.482 70.0933 252.649 70.24C252.822 70.38 253.059 70.45 253.359 70.45ZM259.043 71.12C258.569 71.12 258.159 71.01 257.813 70.79C257.466 70.5633 257.199 70.2567 257.013 69.87C256.826 69.4833 256.733 69.04 256.733 68.54C256.733 68.0467 256.829 67.6067 257.023 67.22C257.223 66.8267 257.503 66.52 257.863 66.3C258.223 66.0733 258.646 65.96 259.133 65.96C259.579 65.96 259.963 66.07 260.283 66.29C260.603 66.51 260.843 66.7733 261.003 67.08L260.233 67.36C260.126 67.16 259.969 67 259.763 66.88C259.556 66.76 259.326 66.7 259.073 66.7C258.826 66.7 258.593 66.7667 258.373 66.9C258.153 67.0267 257.976 67.2267 257.843 67.5C257.709 67.7667 257.643 68.11 257.643 68.53C257.643 68.9433 257.709 69.29 257.843 69.57C257.983 69.8433 258.159 70.0467 258.373 70.18C258.593 70.3133 258.826 70.38 259.073 70.38C259.346 70.38 259.583 70.32 259.783 70.2C259.989 70.0733 260.146 69.9167 260.253 69.73L261.023 70.01C260.836 70.33 260.569 70.5967 260.223 70.81C259.876 71.0167 259.483 71.12 259.043 71.12ZM264.163 71.12C263.643 71.12 263.203 71.0067 262.843 70.78C262.483 70.5467 262.206 70.2367 262.013 69.85C261.826 69.4567 261.733 69.0167 261.733 68.53C261.733 68.0033 261.839 67.55 262.053 67.17C262.266 66.7833 262.553 66.4867 262.913 66.28C263.279 66.0667 263.689 65.96 264.143 65.96C264.536 65.96 264.883 66.04 265.183 66.2C265.483 66.3533 265.729 66.5633 265.923 66.83C266.123 67.09 266.266 67.3867 266.353 67.72C266.446 68.0533 266.479 68.3967 266.453 68.75H262.633C262.646 69.1633 262.736 69.49 262.903 69.73C263.076 69.97 263.279 70.14 263.513 70.24C263.746 70.3333 263.963 70.38 264.163 70.38C264.443 70.38 264.676 70.3367 264.863 70.25C265.056 70.1567 265.209 70.0367 265.323 69.89L266.133 70.13C265.953 70.4167 265.696 70.6533 265.363 70.84C265.029 71.0267 264.629 71.12 264.163 71.12ZM262.643 68.08H265.563C265.563 67.8467 265.503 67.6233 265.383 67.41C265.269 67.1967 265.106 67.0233 264.893 66.89C264.686 66.75 264.436 66.68 264.143 66.68C263.896 66.68 263.663 66.7267 263.443 66.82C263.223 66.9133 263.039 67.0633 262.893 67.27C262.753 67.4767 262.669 67.7467 262.643 68.08ZM269.133 71.12C268.846 71.12 268.563 71.0767 268.283 70.99C268.01 70.8967 267.763 70.76 267.543 70.58C267.33 70.3933 267.166 70.16 267.053 69.88L267.863 69.58C267.936 69.8733 268.096 70.0867 268.343 70.22C268.596 70.3467 268.86 70.41 269.133 70.41C269.333 70.41 269.52 70.38 269.693 70.32C269.873 70.26 270.02 70.1733 270.133 70.06C270.246 69.9467 270.303 69.8167 270.303 69.67C270.303 69.3967 270.193 69.2033 269.973 69.09C269.76 68.9767 269.503 68.89 269.203 68.83L268.513 68.69C268.273 68.6367 268.05 68.5633 267.843 68.47C267.636 68.37 267.47 68.23 267.343 68.05C267.216 67.87 267.153 67.63 267.153 67.33C267.153 67.03 267.246 66.78 267.433 66.58C267.62 66.3733 267.856 66.2167 268.143 66.11C268.436 66.0033 268.743 65.95 269.063 65.95C269.456 65.95 269.826 66.0333 270.173 66.2C270.526 66.36 270.776 66.6133 270.923 66.96L270.133 67.25C270.046 67.05 269.893 66.9033 269.673 66.81C269.46 66.71 269.236 66.66 269.003 66.66C268.75 66.66 268.52 66.7167 268.313 66.83C268.106 66.9433 268.003 67.1067 268.003 67.32C268.003 67.5333 268.09 67.69 268.263 67.79C268.443 67.8833 268.663 67.9567 268.923 68.01L269.573 68.14C269.84 68.1933 270.093 68.27 270.333 68.37C270.573 68.47 270.77 68.62 270.923 68.82C271.076 69.0133 271.153 69.2867 271.153 69.64C271.153 69.9533 271.056 70.22 270.863 70.44C270.67 70.66 270.42 70.83 270.113 70.95C269.806 71.0633 269.48 71.12 269.133 71.12ZM272.47 71.12C272.297 71.12 272.147 71.0567 272.02 70.93C271.894 70.8033 271.83 70.6533 271.83 70.48C271.83 70.3 271.894 70.1467 272.02 70.02C272.147 69.8933 272.297 69.83 272.47 69.83C272.65 69.83 272.804 69.8933 272.93 70.02C273.057 70.1467 273.12 70.3 273.12 70.48C273.12 70.6533 273.057 70.8033 272.93 70.93C272.804 71.0567 272.65 71.12 272.47 71.12Z" fill="black"/>
<path d="M201 22L169 22" stroke="black" stroke-width="5"/>
<path d="M207 22L161 22" stroke="black" stroke-opacity="0.5" stroke-width="10"/>
<path d="M203 22L167 22" stroke="black" stroke-opacity="0.5" stroke-width="15"/>
<circle cx="147" cy="22" r="21.5" fill="#FCF4E9" stroke="black"/>
<circle cx="223" cy="22" r="21.5" fill="#FCF4E9" stroke="black"/>
<circle cx="42" cy="22" r="21.5" fill="#FCF4E9" stroke="black"/>
</svg>
