<svg width="266" height="76" viewBox="0 0 266 76" fill="none" xmlns="http://www.w3.org/2000/svg">
<path d="M0.814688 61V54.32H3.50469C3.99135 54.32 4.38469 54.4 4.68469 54.56C4.99135 54.72 5.21469 54.9267 5.35469 55.18C5.50135 55.4267 5.57469 55.6933 5.57469 55.98C5.57469 56.2467 5.51469 56.51 5.39469 56.77C5.27469 57.03 5.10135 57.2567 4.87469 57.45C5.20802 57.6233 5.45469 57.86 5.61469 58.16C5.78135 58.4533 5.86469 58.76 5.86469 59.08C5.86469 59.4 5.78135 59.7067 5.61469 60C5.45469 60.2933 5.21135 60.5333 4.88469 60.72C4.55802 60.9067 4.15135 61 3.66469 61H0.814688ZM1.75469 57.18H3.60469C3.94469 57.18 4.19802 57.0733 4.36469 56.86C4.53802 56.6467 4.62469 56.4133 4.62469 56.16C4.62469 55.9867 4.58469 55.82 4.50469 55.66C4.43135 55.5 4.31802 55.37 4.16469 55.27C4.01802 55.1633 3.83135 55.11 3.60469 55.11H1.75469V57.18ZM1.75469 60.21H3.76469C4.01135 60.21 4.21802 60.1533 4.38469 60.04C4.55135 59.9267 4.67802 59.7833 4.76469 59.61C4.85135 59.43 4.89469 59.2433 4.89469 59.05C4.89469 58.8567 4.85135 58.6767 4.76469 58.51C4.68469 58.3367 4.55802 58.1967 4.38469 58.09C4.21802 57.9767 4.00802 57.92 3.75469 57.92H1.75469V60.21ZM8.51609 61.12C8.12943 61.12 7.81943 61.04 7.58609 60.88C7.35276 60.7133 7.18276 60.4867 7.07609 60.2C6.97609 59.9067 6.92609 59.5733 6.92609 59.2V56.03H7.76609V59C7.76609 59.3667 7.80943 59.65 7.89609 59.85C7.98276 60.05 8.10276 60.19 8.25609 60.27C8.41609 60.3433 8.59943 60.38 8.80609 60.38C9.19943 60.38 9.50609 60.2433 9.72609 59.97C9.95276 59.69 10.0661 59.2867 10.0661 58.76V56.03H10.9061V61H10.2761L10.0661 60.28C9.92609 60.52 9.73609 60.72 9.49609 60.88C9.25609 61.04 8.92943 61.12 8.51609 61.12ZM14.7574 61.12C14.3708 61.12 14.0441 61.0433 13.7774 60.89C13.5108 60.73 13.3008 60.5167 13.1474 60.25L12.9274 61H12.3074V54.32H13.1474V56.82C13.3008 56.56 13.5108 56.3533 13.7774 56.2C14.0441 56.04 14.3708 55.96 14.7574 55.96C15.1374 55.96 15.4874 56.0633 15.8074 56.27C16.1341 56.47 16.3941 56.7633 16.5874 57.15C16.7874 57.53 16.8874 57.9933 16.8874 58.54C16.8874 59.0867 16.7874 59.5533 16.5874 59.94C16.3941 60.32 16.1341 60.6133 15.8074 60.82C15.4874 61.02 15.1374 61.12 14.7574 61.12ZM14.5374 60.4C14.9641 60.4 15.3041 60.2367 15.5574 59.91C15.8174 59.5833 15.9474 59.1267 15.9474 58.54C15.9474 57.9467 15.8174 57.49 15.5574 57.17C15.3041 56.8433 14.9641 56.68 14.5374 56.68C14.1108 56.68 13.7674 56.8433 13.5074 57.17C13.2541 57.49 13.1274 57.9467 13.1274 58.54C13.1274 59.1267 13.2541 59.5833 13.5074 59.91C13.7674 60.2367 14.1108 60.4 14.5374 60.4ZM20.4215 61.12C20.0348 61.12 19.7082 61.0433 19.4415 60.89C19.1748 60.73 18.9648 60.5167 18.8115 60.25L18.5915 61H17.9715V54.32H18.8115V56.82C18.9648 56.56 19.1748 56.3533 19.4415 56.2C19.7082 56.04 20.0348 55.96 20.4215 55.96C20.8015 55.96 21.1515 56.0633 21.4715 56.27C21.7982 56.47 22.0582 56.7633 22.2515 57.15C22.4515 57.53 22.5515 57.9933 22.5515 58.54C22.5515 59.0867 22.4515 59.5533 22.2515 59.94C22.0582 60.32 21.7982 60.6133 21.4715 60.82C21.1515 61.02 20.8015 61.12 20.4215 61.12ZM20.2015 60.4C20.6282 60.4 20.9682 60.2367 21.2215 59.91C21.4815 59.5833 21.6115 59.1267 21.6115 58.54C21.6115 57.9467 21.4815 57.49 21.2215 57.17C20.9682 56.8433 20.6282 56.68 20.2015 56.68C19.7748 56.68 19.4315 56.8433 19.1715 57.17C18.9182 57.49 18.7915 57.9467 18.7915 58.54C18.7915 59.1267 18.9182 59.5833 19.1715 59.91C19.4315 60.2367 19.7748 60.4 20.2015 60.4ZM24.8055 61C24.4922 61 24.2489 60.97 24.0755 60.91C23.9089 60.8433 23.7922 60.72 23.7255 60.54C23.6655 60.36 23.6355 60.1 23.6355 59.76V54.33H24.4755V59.62C24.4755 59.8733 24.5022 60.0433 24.5555 60.13C24.6089 60.2167 24.7522 60.26 24.9855 60.26H25.1755V61H24.8055ZM28.1381 61.12C27.6181 61.12 27.1781 61.0067 26.8181 60.78C26.4581 60.5467 26.1815 60.2367 25.9881 59.85C25.8015 59.4567 25.7081 59.0167 25.7081 58.53C25.7081 58.0033 25.8148 57.55 26.0281 57.17C26.2415 56.7833 26.5281 56.4867 26.8881 56.28C27.2548 56.0667 27.6648 55.96 28.1181 55.96C28.5115 55.96 28.8581 56.04 29.1581 56.2C29.4581 56.3533 29.7048 56.5633 29.8981 56.83C30.0981 57.09 30.2415 57.3867 30.3281 57.72C30.4215 58.0533 30.4548 58.3967 30.4281 58.75H26.6081C26.6215 59.1633 26.7115 59.49 26.8781 59.73C27.0515 59.97 27.2548 60.14 27.4881 60.24C27.7215 60.3333 27.9381 60.38 28.1381 60.38C28.4181 60.38 28.6515 60.3367 28.8381 60.25C29.0315 60.1567 29.1848 60.0367 29.2981 59.89L30.1081 60.13C29.9281 60.4167 29.6715 60.6533 29.3381 60.84C29.0048 61.0267 28.6048 61.12 28.1381 61.12ZM26.6181 58.08H29.5381C29.5381 57.8467 29.4781 57.6233 29.3581 57.41C29.2448 57.1967 29.0815 57.0233 28.8681 56.89C28.6615 56.75 28.4115 56.68 28.1181 56.68C27.8715 56.68 27.6381 56.7267 27.4181 56.82C27.1981 56.9133 27.0148 57.0633 26.8681 57.27C26.7281 57.4767 26.6448 57.7467 26.6181 58.08ZM33.1088 61.12C32.8221 61.12 32.5388 61.0767 32.2588 60.99C31.9854 60.8967 31.7388 60.76 31.5188 60.58C31.3054 60.3933 31.1421 60.16 31.0288 59.88L31.8388 59.58C31.9121 59.8733 32.0721 60.0867 32.3188 60.22C32.5721 60.3467 32.8354 60.41 33.1088 60.41C33.3088 60.41 33.4954 60.38 33.6688 60.32C33.8488 60.26 33.9954 60.1733 34.1088 60.06C34.2221 59.9467 34.2788 59.8167 34.2788 59.67C34.2788 59.3967 34.1688 59.2033 33.9488 59.09C33.7354 58.9767 33.4788 58.89 33.1788 58.83L32.4888 58.69C32.2488 58.6367 32.0254 58.5633 31.8188 58.47C31.6121 58.37 31.4454 58.23 31.3188 58.05C31.1921 57.87 31.1288 57.63 31.1288 57.33C31.1288 57.03 31.2221 56.78 31.4088 56.58C31.5954 56.3733 31.8321 56.2167 32.1188 56.11C32.4121 56.0033 32.7188 55.95 33.0388 55.95C33.4321 55.95 33.8021 56.0333 34.1488 56.2C34.5021 56.36 34.7521 56.6133 34.8988 56.96L34.1088 57.25C34.0221 57.05 33.8688 56.9033 33.6488 56.81C33.4354 56.71 33.2121 56.66 32.9788 56.66C32.7254 56.66 32.4954 56.7167 32.2888 56.83C32.0821 56.9433 31.9788 57.1067 31.9788 57.32C31.9788 57.5333 32.0654 57.69 32.2388 57.79C32.4188 57.8833 32.6388 57.9567 32.8988 58.01L33.5488 58.14C33.8154 58.1933 34.0688 58.27 34.3088 58.37C34.5488 58.47 34.7454 58.62 34.8988 58.82C35.0521 59.0133 35.1288 59.2867 35.1288 59.64C35.1288 59.9533 35.0321 60.22 34.8388 60.44C34.6454 60.66 34.3954 60.83 34.0888 60.95C33.7821 61.0633 33.4554 61.12 33.1088 61.12ZM38.9285 61V56.04H39.5385L39.8085 56.96C39.9818 56.66 40.2152 56.42 40.5085 56.24C40.8085 56.0533 41.1652 55.96 41.5785 55.96V56.83C41.5318 56.83 41.4818 56.83 41.4285 56.83C41.3818 56.83 41.3352 56.8333 41.2885 56.84C40.7218 56.8867 40.3252 57.0833 40.0985 57.43C39.8785 57.7767 39.7685 58.2567 39.7685 58.87V61H38.9285ZM44.437 61.12C43.917 61.12 43.477 61.0067 43.117 60.78C42.757 60.5467 42.4803 60.2367 42.287 59.85C42.1003 59.4567 42.007 59.0167 42.007 58.53C42.007 58.0033 42.1136 57.55 42.327 57.17C42.5403 56.7833 42.827 56.4867 43.187 56.28C43.5536 56.0667 43.9636 55.96 44.417 55.96C44.8103 55.96 45.157 56.04 45.457 56.2C45.757 56.3533 46.0036 56.5633 46.197 56.83C46.397 57.09 46.5403 57.3867 46.627 57.72C46.7203 58.0533 46.7536 58.3967 46.727 58.75H42.907C42.9203 59.1633 43.0103 59.49 43.177 59.73C43.3503 59.97 43.5536 60.14 43.787 60.24C44.0203 60.3333 44.237 60.38 44.437 60.38C44.717 60.38 44.9503 60.3367 45.137 60.25C45.3303 60.1567 45.4836 60.0367 45.597 59.89L46.407 60.13C46.227 60.4167 45.9703 60.6533 45.637 60.84C45.3036 61.0267 44.9036 61.12 44.437 61.12ZM42.917 58.08H45.837C45.837 57.8467 45.777 57.6233 45.657 57.41C45.5436 57.1967 45.3803 57.0233 45.167 56.89C44.9603 56.75 44.7103 56.68 44.417 56.68C44.1703 56.68 43.937 56.7267 43.717 56.82C43.497 56.9133 43.3136 57.0633 43.167 57.27C43.027 57.4767 42.9436 57.7467 42.917 58.08ZM47.7176 62.61V56.04H48.3276L48.5576 56.82C48.7109 56.56 48.9209 56.3533 49.1876 56.2C49.4542 56.04 49.7809 55.96 50.1676 55.96C50.5476 55.96 50.8976 56.0633 51.2176 56.27C51.5442 56.47 51.8042 56.7633 51.9976 57.15C52.1976 57.53 52.2976 57.9933 52.2976 58.54C52.2976 59.08 52.1976 59.5433 51.9976 59.93C51.8042 60.3167 51.5442 60.6133 51.2176 60.82C50.8976 61.02 50.5476 61.12 50.1676 61.12C49.7809 61.12 49.4542 61.0433 49.1876 60.89C48.9209 60.73 48.7109 60.5167 48.5576 60.25V62.61H47.7176ZM49.9476 60.4C50.3742 60.4 50.7142 60.2367 50.9676 59.91C51.2276 59.5833 51.3576 59.1267 51.3576 58.54C51.3576 57.9467 51.2276 57.49 50.9676 57.17C50.7142 56.8433 50.3742 56.68 49.9476 56.68C49.5209 56.68 49.1776 56.8433 48.9176 57.17C48.6642 57.49 48.5376 57.9467 48.5376 58.54C48.5376 59.1267 48.6642 59.5833 48.9176 59.91C49.1776 60.2367 49.5209 60.4 49.9476 60.4ZM53.3816 61V56.04H53.9916L54.2616 56.96C54.435 56.66 54.6683 56.42 54.9616 56.24C55.2616 56.0533 55.6183 55.96 56.0316 55.96V56.83C55.985 56.83 55.935 56.83 55.8816 56.83C55.835 56.83 55.7883 56.8333 55.7416 56.84C55.175 56.8867 54.7783 57.0833 54.5516 57.43C54.3316 57.7767 54.2216 58.2567 54.2216 58.87V61H53.3816ZM58.8901 61.12C58.3701 61.12 57.9301 61.0067 57.5701 60.78C57.2101 60.5467 56.9334 60.2367 56.7401 59.85C56.5534 59.4567 56.4601 59.0167 56.4601 58.53C56.4601 58.0033 56.5667 57.55 56.7801 57.17C56.9934 56.7833 57.2801 56.4867 57.6401 56.28C58.0067 56.0667 58.4167 55.96 58.8701 55.96C59.2634 55.96 59.6101 56.04 59.9101 56.2C60.2101 56.3533 60.4567 56.5633 60.6501 56.83C60.8501 57.09 60.9934 57.3867 61.0801 57.72C61.1734 58.0533 61.2067 58.3967 61.1801 58.75H57.3601C57.3734 59.1633 57.4634 59.49 57.6301 59.73C57.8034 59.97 58.0067 60.14 58.2401 60.24C58.4734 60.3333 58.6901 60.38 58.8901 60.38C59.1701 60.38 59.4034 60.3367 59.5901 60.25C59.7834 60.1567 59.9367 60.0367 60.0501 59.89L60.8601 60.13C60.6801 60.4167 60.4234 60.6533 60.0901 60.84C59.7567 61.0267 59.3567 61.12 58.8901 61.12ZM57.3701 58.08H60.2901C60.2901 57.8467 60.2301 57.6233 60.1101 57.41C59.9967 57.1967 59.8334 57.0233 59.6201 56.89C59.4134 56.75 59.1634 56.68 58.8701 56.68C58.6234 56.68 58.3901 56.7267 58.1701 56.82C57.9501 56.9133 57.7667 57.0633 57.6201 57.27C57.4801 57.4767 57.3967 57.7467 57.3701 58.08ZM63.8607 61.12C63.574 61.12 63.2907 61.0767 63.0107 60.99C62.7374 60.8967 62.4907 60.76 62.2707 60.58C62.0574 60.3933 61.894 60.16 61.7807 59.88L62.5907 59.58C62.664 59.8733 62.824 60.0867 63.0707 60.22C63.324 60.3467 63.5874 60.41 63.8607 60.41C64.0607 60.41 64.2474 60.38 64.4207 60.32C64.6007 60.26 64.7474 60.1733 64.8607 60.06C64.974 59.9467 65.0307 59.8167 65.0307 59.67C65.0307 59.3967 64.9207 59.2033 64.7007 59.09C64.4874 58.9767 64.2307 58.89 63.9307 58.83L63.2407 58.69C63.0007 58.6367 62.7774 58.5633 62.5707 58.47C62.364 58.37 62.1974 58.23 62.0707 58.05C61.944 57.87 61.8807 57.63 61.8807 57.33C61.8807 57.03 61.974 56.78 62.1607 56.58C62.3474 56.3733 62.584 56.2167 62.8707 56.11C63.164 56.0033 63.4707 55.95 63.7907 55.95C64.184 55.95 64.554 56.0333 64.9007 56.2C65.254 56.36 65.504 56.6133 65.6507 56.96L64.8607 57.25C64.774 57.05 64.6207 56.9033 64.4007 56.81C64.1874 56.71 63.964 56.66 63.7307 56.66C63.4774 56.66 63.2474 56.7167 63.0407 56.83C62.834 56.9433 62.7307 57.1067 62.7307 57.32C62.7307 57.5333 62.8174 57.69 62.9907 57.79C63.1707 57.8833 63.3907 57.9567 63.6507 58.01L64.3007 58.14C64.5674 58.1933 64.8207 58.27 65.0607 58.37C65.3007 58.47 65.4974 58.62 65.6507 58.82C65.804 59.0133 65.8807 59.2867 65.8807 59.64C65.8807 59.9533 65.784 60.22 65.5907 60.44C65.3974 60.66 65.1474 60.83 64.8407 60.95C64.534 61.0633 64.2074 61.12 63.8607 61.12ZM68.9877 61.12C68.4677 61.12 68.0277 61.0067 67.6677 60.78C67.3077 60.5467 67.0311 60.2367 66.8377 59.85C66.6511 59.4567 66.5577 59.0167 66.5577 58.53C66.5577 58.0033 66.6644 57.55 66.8777 57.17C67.0911 56.7833 67.3777 56.4867 67.7377 56.28C68.1044 56.0667 68.5144 55.96 68.9677 55.96C69.3611 55.96 69.7077 56.04 70.0077 56.2C70.3077 56.3533 70.5544 56.5633 70.7477 56.83C70.9477 57.09 71.0911 57.3867 71.1777 57.72C71.2711 58.0533 71.3044 58.3967 71.2777 58.75H67.4577C67.4711 59.1633 67.5611 59.49 67.7277 59.73C67.9011 59.97 68.1044 60.14 68.3377 60.24C68.5711 60.3333 68.7877 60.38 68.9877 60.38C69.2677 60.38 69.5011 60.3367 69.6877 60.25C69.8811 60.1567 70.0344 60.0367 70.1477 59.89L70.9577 60.13C70.7777 60.4167 70.5211 60.6533 70.1877 60.84C69.8544 61.0267 69.4544 61.12 68.9877 61.12ZM67.4677 58.08H70.3877C70.3877 57.8467 70.3277 57.6233 70.2077 57.41C70.0944 57.1967 69.9311 57.0233 69.7177 56.89C69.5111 56.75 69.2611 56.68 68.9677 56.68C68.7211 56.68 68.4877 56.7267 68.2677 56.82C68.0477 56.9133 67.8644 57.0633 67.7177 57.27C67.5777 57.4767 67.4944 57.7467 67.4677 58.08ZM72.2684 61V56.04H72.8884L73.1084 56.79C73.2484 56.5567 73.445 56.36 73.6984 56.2C73.9517 56.04 74.2884 55.96 74.7084 55.96C75.3084 55.96 75.7317 56.1367 75.9784 56.49C76.225 56.8367 76.3484 57.2933 76.3484 57.86V61H75.5084V58.11C75.5084 57.8567 75.485 57.6233 75.4384 57.41C75.3917 57.19 75.2884 57.0133 75.1284 56.88C74.975 56.7467 74.7384 56.68 74.4184 56.68C74.0117 56.68 73.6917 56.82 73.4584 57.1C73.225 57.3733 73.1084 57.7767 73.1084 58.31V61H72.2684ZM79.1104 61C78.7971 61 78.5537 60.97 78.3804 60.91C78.2137 60.8433 78.0971 60.72 78.0304 60.54C77.9704 60.36 77.9404 60.1 77.9404 59.76V56.71H77.1004V56.04H77.9404V54.79H78.7804V56.04H79.7404V56.71H78.7804V59.62C78.7804 59.8733 78.8037 60.0433 78.8504 60.13C78.9037 60.2167 79.0504 60.26 79.2904 60.26H79.7404V61H79.1104ZM18.4702 67.1C18.3035 67.1 18.1568 67.04 18.0302 66.92C17.9102 66.7933 17.8502 66.6433 17.8502 66.47C17.8502 66.2967 17.9102 66.15 18.0302 66.03C18.1568 65.91 18.3035 65.85 18.4702 65.85C18.6435 65.85 18.7902 65.91 18.9102 66.03C19.0368 66.15 19.1002 66.2967 19.1002 66.47C19.1002 66.6433 19.0368 66.7933 18.9102 66.92C18.7902 67.04 18.6435 67.1 18.4702 67.1ZM18.0502 73V68.71H17.3602V68.04H18.8902V73H18.0502ZM20.3934 73V68.04H21.0134L21.2334 68.79C21.3734 68.5567 21.57 68.36 21.8234 68.2C22.0767 68.04 22.4134 67.96 22.8334 67.96C23.4334 67.96 23.8567 68.1367 24.1034 68.49C24.35 68.8367 24.4734 69.2933 24.4734 69.86V73H23.6334V70.11C23.6334 69.8567 23.61 69.6233 23.5634 69.41C23.5167 69.19 23.4134 69.0133 23.2534 68.88C23.1 68.7467 22.8634 68.68 22.5434 68.68C22.1367 68.68 21.8167 68.82 21.5834 69.1C21.35 69.3733 21.2334 69.7767 21.2334 70.31V73H20.3934ZM27.5549 73.12C27.1816 73.12 26.8316 73.02 26.5049 72.82C26.1783 72.6133 25.9149 72.32 25.7149 71.94C25.5216 71.5533 25.4249 71.0867 25.4249 70.54C25.4249 69.9933 25.5216 69.53 25.7149 69.15C25.9149 68.7633 26.1783 68.47 26.5049 68.27C26.8316 68.0633 27.1816 67.96 27.5549 67.96C27.9483 67.96 28.2783 68.04 28.5449 68.2C28.8116 68.3533 29.0183 68.56 29.1649 68.82V66.32H30.0049V71.13C30.0049 71.2967 30.0116 71.5433 30.0249 71.87C30.0383 72.19 30.0883 72.5667 30.1749 73H29.3849L29.1649 72.25C29.0183 72.5167 28.8116 72.73 28.5449 72.89C28.2783 73.0433 27.9483 73.12 27.5549 73.12ZM27.7749 72.4C28.2016 72.4 28.5416 72.2367 28.7949 71.91C29.0549 71.5833 29.1849 71.1267 29.1849 70.54C29.1849 69.9467 29.0549 69.49 28.7949 69.17C28.5416 68.8433 28.2016 68.68 27.7749 68.68C27.3483 68.68 27.0049 68.8433 26.7449 69.17C26.4916 69.49 26.3649 69.9467 26.3649 70.54C26.3649 71.1267 26.4916 71.5833 26.7449 71.91C27.0049 72.2367 27.3483 72.4 27.7749 72.4ZM32.2495 67.1C32.0828 67.1 31.9361 67.04 31.8095 66.92C31.6895 66.7933 31.6295 66.6433 31.6295 66.47C31.6295 66.2967 31.6895 66.15 31.8095 66.03C31.9361 65.91 32.0828 65.85 32.2495 65.85C32.4228 65.85 32.5695 65.91 32.6895 66.03C32.8161 66.15 32.8795 66.2967 32.8795 66.47C32.8795 66.6433 32.8161 66.7933 32.6895 66.92C32.5695 67.04 32.4228 67.1 32.2495 67.1ZM31.8295 73V68.71H31.1395V68.04H32.6695V73H31.8295ZM35.2427 73L33.4727 68.04H34.3827L35.6827 71.9L36.9727 68.04H37.8827L36.1127 73H35.2427ZM39.4467 67.1C39.2801 67.1 39.1334 67.04 39.0067 66.92C38.8867 66.7933 38.8267 66.6433 38.8267 66.47C38.8267 66.2967 38.8867 66.15 39.0067 66.03C39.1334 65.91 39.2801 65.85 39.4467 65.85C39.6201 65.85 39.7667 65.91 39.8867 66.03C40.0134 66.15 40.0767 66.2967 40.0767 66.47C40.0767 66.6433 40.0134 66.7933 39.8867 66.92C39.7667 67.04 39.6201 67.1 39.4467 67.1ZM39.0267 73V68.71H38.3367V68.04H39.8667V73H39.0267ZM43.1799 73.12C42.8066 73.12 42.4566 73.02 42.1299 72.82C41.8033 72.6133 41.5399 72.32 41.3399 71.94C41.1466 71.5533 41.0499 71.0867 41.0499 70.54C41.0499 69.9933 41.1466 69.53 41.3399 69.15C41.5399 68.7633 41.8033 68.47 42.1299 68.27C42.4566 68.0633 42.8066 67.96 43.1799 67.96C43.5733 67.96 43.9033 68.04 44.1699 68.2C44.4366 68.3533 44.6433 68.56 44.7899 68.82V66.32H45.6299V71.13C45.6299 71.2967 45.6366 71.5433 45.6499 71.87C45.6633 72.19 45.7133 72.5667 45.7999 73H45.0099L44.7899 72.25C44.6433 72.5167 44.4366 72.73 44.1699 72.89C43.9033 73.0433 43.5733 73.12 43.1799 73.12ZM43.3999 72.4C43.8266 72.4 44.1666 72.2367 44.4199 71.91C44.6799 71.5833 44.8099 71.1267 44.8099 70.54C44.8099 69.9467 44.6799 69.49 44.4199 69.17C44.1666 68.8433 43.8266 68.68 43.3999 68.68C42.9733 68.68 42.6299 68.8433 42.3699 69.17C42.1166 69.49 41.9899 69.9467 41.9899 70.54C41.9899 71.1267 42.1166 71.5833 42.3699 71.91C42.6299 72.2367 42.9733 72.4 43.3999 72.4ZM48.5845 73.12C48.1978 73.12 47.8878 73.04 47.6545 72.88C47.4211 72.7133 47.2511 72.4867 47.1445 72.2C47.0445 71.9067 46.9945 71.5733 46.9945 71.2V68.03H47.8345V71C47.8345 71.3667 47.8778 71.65 47.9645 71.85C48.0511 72.05 48.1711 72.19 48.3245 72.27C48.4845 72.3433 48.6678 72.38 48.8745 72.38C49.2678 72.38 49.5745 72.2433 49.7945 71.97C50.0211 71.69 50.1345 71.2867 50.1345 70.76V68.03H50.9745V73H50.3445L50.1345 72.28C49.9945 72.52 49.8045 72.72 49.5645 72.88C49.3245 73.04 48.9978 73.12 48.5845 73.12ZM53.7658 73.12C53.4524 73.12 53.1658 73.0633 52.9058 72.95C52.6458 72.8367 52.4391 72.6733 52.2858 72.46C52.1324 72.2467 52.0558 71.99 52.0558 71.69C52.0558 71.2967 52.1924 70.9867 52.4658 70.76C52.7458 70.5333 53.1358 70.36 53.6358 70.24C54.1424 70.1133 54.7324 70.0133 55.4058 69.94C55.4191 69.52 55.3358 69.1967 55.1558 68.97C54.9758 68.7433 54.6858 68.63 54.2858 68.63C53.9858 68.63 53.7391 68.7 53.5458 68.84C53.3591 68.9733 53.2391 69.16 53.1858 69.4L52.3758 69.16C52.5091 68.78 52.7458 68.4867 53.0858 68.28C53.4324 68.0667 53.8291 67.96 54.2758 67.96C54.9624 67.96 55.4624 68.1233 55.7758 68.45C56.0958 68.77 56.2558 69.2767 56.2558 69.97V71.13C56.2558 71.5433 56.2724 71.9 56.3058 72.2C56.3391 72.5 56.3791 72.7667 56.4258 73H55.6558L55.4558 72.32C55.3091 72.5667 55.0991 72.7633 54.8258 72.91C54.5524 73.05 54.1991 73.12 53.7658 73.12ZM53.9458 72.45C54.2058 72.45 54.4524 72.4033 54.6858 72.31C54.9191 72.2167 55.1091 72.06 55.2558 71.84C55.4024 71.6133 55.4758 71.3067 55.4758 70.92V70.61C54.9691 70.6633 54.5291 70.73 54.1558 70.81C53.7824 70.8833 53.4924 70.99 53.2858 71.13C53.0858 71.2633 52.9858 71.4433 52.9858 71.67C52.9858 71.9033 53.0691 72.0933 53.2358 72.24C53.4091 72.38 53.6458 72.45 53.9458 72.45ZM58.8095 73C58.4961 73 58.2528 72.97 58.0795 72.91C57.9128 72.8433 57.7961 72.72 57.7295 72.54C57.6695 72.36 57.6395 72.1 57.6395 71.76V66.33H58.4795V71.62C58.4795 71.8733 58.5061 72.0433 58.5595 72.13C58.6128 72.2167 58.7561 72.26 58.9895 72.26H59.1795V73H58.8095ZM61.722 73.12C61.4354 73.12 61.152 73.0767 60.872 72.99C60.5987 72.8967 60.352 72.76 60.132 72.58C59.9187 72.3933 59.7554 72.16 59.642 71.88L60.452 71.58C60.5254 71.8733 60.6854 72.0867 60.932 72.22C61.1854 72.3467 61.4487 72.41 61.722 72.41C61.922 72.41 62.1087 72.38 62.282 72.32C62.462 72.26 62.6087 72.1733 62.722 72.06C62.8354 71.9467 62.892 71.8167 62.892 71.67C62.892 71.3967 62.782 71.2033 62.562 71.09C62.3487 70.9767 62.092 70.89 61.792 70.83L61.102 70.69C60.862 70.6367 60.6387 70.5633 60.432 70.47C60.2254 70.37 60.0587 70.23 59.932 70.05C59.8054 69.87 59.742 69.63 59.742 69.33C59.742 69.03 59.8354 68.78 60.022 68.58C60.2087 68.3733 60.4454 68.2167 60.732 68.11C61.0254 68.0033 61.332 67.95 61.652 67.95C62.0454 67.95 62.4154 68.0333 62.762 68.2C63.1154 68.36 63.3654 68.6133 63.512 68.96L62.722 69.25C62.6354 69.05 62.482 68.9033 62.262 68.81C62.0487 68.71 61.8254 68.66 61.592 68.66C61.3387 68.66 61.1087 68.7167 60.902 68.83C60.6954 68.9433 60.592 69.1067 60.592 69.32C60.592 69.5333 60.6787 69.69 60.852 69.79C61.032 69.8833 61.252 69.9567 61.512 70.01L62.162 70.14C62.4287 70.1933 62.682 70.27 62.922 70.37C63.162 70.47 63.3587 70.62 63.512 70.82C63.6654 71.0133 63.742 71.2867 63.742 71.64C63.742 71.9533 63.6454 72.22 63.452 72.44C63.2587 72.66 63.0087 72.83 62.702 72.95C62.3954 73.0633 62.0687 73.12 61.722 73.12ZM65.0591 73.12C64.8857 73.12 64.7357 73.0567 64.6091 72.93C64.4824 72.8033 64.4191 72.6533 64.4191 72.48C64.4191 72.3 64.4824 72.1467 64.6091 72.02C64.7357 71.8933 64.8857 71.83 65.0591 71.83C65.2391 71.83 65.3924 71.8933 65.5191 72.02C65.6457 72.1467 65.7091 72.3 65.7091 72.48C65.7091 72.6533 65.6457 72.8033 65.5191 72.93C65.3924 73.0567 65.2391 73.12 65.0591 73.12Z" fill="black"/>
<path d="M132.313 61V55.13H130.093V54.32H135.473V55.13H133.253V61H132.313ZM136.269 61V54.32H137.109V56.79C137.249 56.5567 137.446 56.36 137.699 56.2C137.953 56.04 138.289 55.96 138.709 55.96C139.309 55.96 139.733 56.1367 139.979 56.49C140.226 56.8367 140.349 57.2933 140.349 57.86V61H139.509V58.11C139.509 57.8567 139.486 57.6233 139.439 57.41C139.393 57.19 139.289 57.0133 139.129 56.88C138.976 56.7467 138.739 56.68 138.419 56.68C138.013 56.68 137.693 56.82 137.459 57.1C137.226 57.3733 137.109 57.7767 137.109 58.31V61H136.269ZM143.731 61.12C143.211 61.12 142.771 61.0067 142.411 60.78C142.051 60.5467 141.774 60.2367 141.581 59.85C141.394 59.4567 141.301 59.0167 141.301 58.53C141.301 58.0033 141.408 57.55 141.621 57.17C141.834 56.7833 142.121 56.4867 142.481 56.28C142.848 56.0667 143.258 55.96 143.711 55.96C144.104 55.96 144.451 56.04 144.751 56.2C145.051 56.3533 145.298 56.5633 145.491 56.83C145.691 57.09 145.834 57.3867 145.921 57.72C146.014 58.0533 146.048 58.3967 146.021 58.75H142.201C142.214 59.1633 142.304 59.49 142.471 59.73C142.644 59.97 142.848 60.14 143.081 60.24C143.314 60.3333 143.531 60.38 143.731 60.38C144.011 60.38 144.244 60.3367 144.431 60.25C144.624 60.1567 144.778 60.0367 144.891 59.89L145.701 60.13C145.521 60.4167 145.264 60.6533 144.931 60.84C144.598 61.0267 144.198 61.12 143.731 61.12ZM142.211 58.08H145.131C145.131 57.8467 145.071 57.6233 144.951 57.41C144.838 57.1967 144.674 57.0233 144.461 56.89C144.254 56.75 144.004 56.68 143.711 56.68C143.464 56.68 143.231 56.7267 143.011 56.82C142.791 56.9133 142.608 57.0633 142.461 57.27C142.321 57.4767 142.238 57.7467 142.211 58.08ZM151.204 61.12C150.891 61.12 150.604 61.0633 150.344 60.95C150.084 60.8367 149.878 60.6733 149.724 60.46C149.571 60.2467 149.494 59.99 149.494 59.69C149.494 59.2967 149.631 58.9867 149.904 58.76C150.184 58.5333 150.574 58.36 151.074 58.24C151.581 58.1133 152.171 58.0133 152.844 57.94C152.858 57.52 152.774 57.1967 152.594 56.97C152.414 56.7433 152.124 56.63 151.724 56.63C151.424 56.63 151.178 56.7 150.984 56.84C150.798 56.9733 150.678 57.16 150.624 57.4L149.814 57.16C149.948 56.78 150.184 56.4867 150.524 56.28C150.871 56.0667 151.268 55.96 151.714 55.96C152.401 55.96 152.901 56.1233 153.214 56.45C153.534 56.77 153.694 57.2767 153.694 57.97V59.13C153.694 59.5433 153.711 59.9 153.744 60.2C153.778 60.5 153.818 60.7667 153.864 61H153.094L152.894 60.32C152.748 60.5667 152.538 60.7633 152.264 60.91C151.991 61.05 151.638 61.12 151.204 61.12ZM151.384 60.45C151.644 60.45 151.891 60.4033 152.124 60.31C152.358 60.2167 152.548 60.06 152.694 59.84C152.841 59.6133 152.914 59.3067 152.914 58.92V58.61C152.408 58.6633 151.968 58.73 151.594 58.81C151.221 58.8833 150.931 58.99 150.724 59.13C150.524 59.2633 150.424 59.4433 150.424 59.67C150.424 59.9033 150.508 60.0933 150.674 60.24C150.848 60.38 151.084 60.45 151.384 60.45ZM155.078 61V56.04H155.698L155.918 56.79C156.058 56.5567 156.248 56.36 156.488 56.2C156.735 56.04 157.041 55.96 157.408 55.96C157.788 55.96 158.095 56.0367 158.328 56.19C158.561 56.3433 158.731 56.5567 158.838 56.83C159.038 56.5233 159.278 56.3033 159.558 56.17C159.845 56.03 160.161 55.96 160.508 55.96C161.081 55.96 161.491 56.1367 161.738 56.49C161.985 56.8367 162.108 57.2933 162.108 57.86V61H161.268V58.11C161.268 57.8567 161.241 57.6233 161.188 57.41C161.141 57.19 161.041 57.0133 160.888 56.88C160.741 56.7467 160.515 56.68 160.208 56.68C159.848 56.68 159.558 56.82 159.338 57.1C159.125 57.3733 159.018 57.7767 159.018 58.31V61H158.178V58.11C158.178 57.8567 158.151 57.6233 158.098 57.41C158.051 57.19 157.951 57.0133 157.798 56.88C157.651 56.7467 157.425 56.68 157.118 56.68C156.758 56.68 156.468 56.82 156.248 57.1C156.028 57.3733 155.918 57.7767 155.918 58.31V61H155.078ZM165.439 61.12C165.152 61.12 164.869 61.07 164.589 60.97C164.309 60.87 164.052 60.7167 163.819 60.51C163.592 60.2967 163.409 60.0267 163.269 59.7C163.129 59.3733 163.059 58.9867 163.059 58.54C163.059 58.0933 163.129 57.7067 163.269 57.38C163.409 57.0533 163.592 56.7867 163.819 56.58C164.052 56.3667 164.309 56.21 164.589 56.11C164.869 56.01 165.152 55.96 165.439 55.96C165.725 55.96 166.009 56.01 166.289 56.11C166.575 56.21 166.832 56.3667 167.059 56.58C167.292 56.7867 167.475 57.0533 167.609 57.38C167.749 57.7067 167.819 58.0933 167.819 58.54C167.819 58.9867 167.749 59.3733 167.609 59.7C167.475 60.0267 167.292 60.2967 167.059 60.51C166.832 60.7167 166.575 60.87 166.289 60.97C166.009 61.07 165.725 61.12 165.439 61.12ZM165.439 60.38C165.679 60.38 165.912 60.3167 166.139 60.19C166.365 60.0567 166.552 59.8567 166.699 59.59C166.845 59.3167 166.919 58.9667 166.919 58.54C166.919 58.1133 166.845 57.7667 166.699 57.5C166.552 57.2267 166.365 57.0267 166.139 56.9C165.912 56.7667 165.679 56.7 165.439 56.7C165.205 56.7 164.972 56.7667 164.739 56.9C164.512 57.0267 164.325 57.2267 164.179 57.5C164.032 57.7667 163.959 58.1133 163.959 58.54C163.959 58.9667 164.032 59.3167 164.179 59.59C164.325 59.8567 164.512 60.0567 164.739 60.19C164.972 60.3167 165.205 60.38 165.439 60.38ZM170.466 61.12C170.08 61.12 169.77 61.04 169.536 60.88C169.303 60.7133 169.133 60.4867 169.026 60.2C168.926 59.9067 168.876 59.5733 168.876 59.2V56.03H169.716V59C169.716 59.3667 169.76 59.65 169.846 59.85C169.933 60.05 170.053 60.19 170.206 60.27C170.366 60.3433 170.55 60.38 170.756 60.38C171.15 60.38 171.456 60.2433 171.676 59.97C171.903 59.69 172.016 59.2867 172.016 58.76V56.03H172.856V61H172.226L172.016 60.28C171.876 60.52 171.686 60.72 171.446 60.88C171.206 61.04 170.88 61.12 170.466 61.12ZM174.258 61V56.04H174.878L175.098 56.79C175.238 56.5567 175.434 56.36 175.688 56.2C175.941 56.04 176.278 55.96 176.698 55.96C177.298 55.96 177.721 56.1367 177.968 56.49C178.214 56.8367 178.338 57.2933 178.338 57.86V61H177.498V58.11C177.498 57.8567 177.474 57.6233 177.428 57.41C177.381 57.19 177.278 57.0133 177.118 56.88C176.964 56.7467 176.728 56.68 176.408 56.68C176.001 56.68 175.681 56.82 175.448 57.1C175.214 57.3733 175.098 57.7767 175.098 58.31V61H174.258ZM181.1 61C180.786 61 180.543 60.97 180.37 60.91C180.203 60.8433 180.086 60.72 180.02 60.54C179.96 60.36 179.93 60.1 179.93 59.76V56.71H179.09V56.04H179.93V54.79H180.77V56.04H181.73V56.71H180.77V59.62C180.77 59.8733 180.793 60.0433 180.84 60.13C180.893 60.2167 181.04 60.26 181.28 60.26H181.73V61H181.1ZM187.695 61.12C187.408 61.12 187.125 61.07 186.845 60.97C186.565 60.87 186.308 60.7167 186.075 60.51C185.848 60.2967 185.665 60.0267 185.525 59.7C185.385 59.3733 185.315 58.9867 185.315 58.54C185.315 58.0933 185.385 57.7067 185.525 57.38C185.665 57.0533 185.848 56.7867 186.075 56.58C186.308 56.3667 186.565 56.21 186.845 56.11C187.125 56.01 187.408 55.96 187.695 55.96C187.981 55.96 188.265 56.01 188.545 56.11C188.831 56.21 189.088 56.3667 189.315 56.58C189.548 56.7867 189.731 57.0533 189.865 57.38C190.005 57.7067 190.075 58.0933 190.075 58.54C190.075 58.9867 190.005 59.3733 189.865 59.7C189.731 60.0267 189.548 60.2967 189.315 60.51C189.088 60.7167 188.831 60.87 188.545 60.97C188.265 61.07 187.981 61.12 187.695 61.12ZM187.695 60.38C187.935 60.38 188.168 60.3167 188.395 60.19C188.621 60.0567 188.808 59.8567 188.955 59.59C189.101 59.3167 189.175 58.9667 189.175 58.54C189.175 58.1133 189.101 57.7667 188.955 57.5C188.808 57.2267 188.621 57.0267 188.395 56.9C188.168 56.7667 187.935 56.7 187.695 56.7C187.461 56.7 187.228 56.7667 186.995 56.9C186.768 57.0267 186.581 57.2267 186.435 57.5C186.288 57.7667 186.215 58.1133 186.215 58.54C186.215 58.9667 186.288 59.3167 186.435 59.59C186.581 59.8567 186.768 60.0567 186.995 60.19C187.228 60.3167 187.461 60.38 187.695 60.38ZM191.442 61V56.71H190.602V56.04H191.442V55.3C191.442 54.96 191.475 54.69 191.542 54.49C191.609 54.29 191.739 54.15 191.932 54.07C192.125 53.9833 192.405 53.94 192.772 53.94H193.312V54.65H192.792C192.579 54.65 192.439 54.6933 192.372 54.78C192.312 54.8667 192.282 55.0367 192.282 55.29V56.04H193.312V56.71H192.282V61H191.442ZM199.51 61.12C199.124 61.12 198.797 61.0433 198.53 60.89C198.264 60.73 198.054 60.5167 197.9 60.25L197.68 61H197.06V54.32H197.9V56.82C198.054 56.56 198.264 56.3533 198.53 56.2C198.797 56.04 199.124 55.96 199.51 55.96C199.89 55.96 200.24 56.0633 200.56 56.27C200.887 56.47 201.147 56.7633 201.34 57.15C201.54 57.53 201.64 57.9933 201.64 58.54C201.64 59.0867 201.54 59.5533 201.34 59.94C201.147 60.32 200.887 60.6133 200.56 60.82C200.24 61.02 199.89 61.12 199.51 61.12ZM199.29 60.4C199.717 60.4 200.057 60.2367 200.31 59.91C200.57 59.5833 200.7 59.1267 200.7 58.54C200.7 57.9467 200.57 57.49 200.31 57.17C200.057 56.8433 199.717 56.68 199.29 56.68C198.864 56.68 198.52 56.8433 198.26 57.17C198.007 57.49 197.88 57.9467 197.88 58.54C197.88 59.1267 198.007 59.5833 198.26 59.91C198.52 60.2367 198.864 60.4 199.29 60.4ZM204.294 61.12C203.908 61.12 203.598 61.04 203.364 60.88C203.131 60.7133 202.961 60.4867 202.854 60.2C202.754 59.9067 202.704 59.5733 202.704 59.2V56.03H203.544V59C203.544 59.3667 203.588 59.65 203.674 59.85C203.761 60.05 203.881 60.19 204.034 60.27C204.194 60.3433 204.378 60.38 204.584 60.38C204.978 60.38 205.284 60.2433 205.504 59.97C205.731 59.69 205.844 59.2867 205.844 58.76V56.03H206.684V61H206.054L205.844 60.28C205.704 60.52 205.514 60.72 205.274 60.88C205.034 61.04 204.708 61.12 204.294 61.12ZM210.536 61.12C210.149 61.12 209.822 61.0433 209.556 60.89C209.289 60.73 209.079 60.5167 208.926 60.25L208.706 61H208.086V54.32H208.926V56.82C209.079 56.56 209.289 56.3533 209.556 56.2C209.822 56.04 210.149 55.96 210.536 55.96C210.916 55.96 211.266 56.0633 211.586 56.27C211.912 56.47 212.172 56.7633 212.366 57.15C212.566 57.53 212.666 57.9933 212.666 58.54C212.666 59.0867 212.566 59.5533 212.366 59.94C212.172 60.32 211.912 60.6133 211.586 60.82C211.266 61.02 210.916 61.12 210.536 61.12ZM210.316 60.4C210.742 60.4 211.082 60.2367 211.336 59.91C211.596 59.5833 211.726 59.1267 211.726 58.54C211.726 57.9467 211.596 57.49 211.336 57.17C211.082 56.8433 210.742 56.68 210.316 56.68C209.889 56.68 209.546 56.8433 209.286 57.17C209.032 57.49 208.906 57.9467 208.906 58.54C208.906 59.1267 209.032 59.5833 209.286 59.91C209.546 60.2367 209.889 60.4 210.316 60.4ZM216.2 61.12C215.813 61.12 215.486 61.0433 215.22 60.89C214.953 60.73 214.743 60.5167 214.59 60.25L214.37 61H213.75V54.32H214.59V56.82C214.743 56.56 214.953 56.3533 215.22 56.2C215.486 56.04 215.813 55.96 216.2 55.96C216.58 55.96 216.93 56.0633 217.25 56.27C217.576 56.47 217.836 56.7633 218.03 57.15C218.23 57.53 218.33 57.9933 218.33 58.54C218.33 59.0867 218.23 59.5533 218.03 59.94C217.836 60.32 217.576 60.6133 217.25 60.82C216.93 61.02 216.58 61.12 216.2 61.12ZM215.98 60.4C216.406 60.4 216.746 60.2367 217 59.91C217.26 59.5833 217.39 59.1267 217.39 58.54C217.39 57.9467 217.26 57.49 217 57.17C216.746 56.8433 216.406 56.68 215.98 56.68C215.553 56.68 215.21 56.8433 214.95 57.17C214.696 57.49 214.57 57.9467 214.57 58.54C214.57 59.1267 214.696 59.5833 214.95 59.91C215.21 60.2367 215.553 60.4 215.98 60.4ZM220.584 61C220.271 61 220.027 60.97 219.854 60.91C219.687 60.8433 219.571 60.72 219.504 60.54C219.444 60.36 219.414 60.1 219.414 59.76V54.33H220.254V59.62C220.254 59.8733 220.281 60.0433 220.334 60.13C220.387 60.2167 220.531 60.26 220.764 60.26H220.954V61H220.584ZM223.916 61.12C223.396 61.12 222.956 61.0067 222.596 60.78C222.236 60.5467 221.96 60.2367 221.766 59.85C221.58 59.4567 221.486 59.0167 221.486 58.53C221.486 58.0033 221.593 57.55 221.806 57.17C222.02 56.7833 222.306 56.4867 222.666 56.28C223.033 56.0667 223.443 55.96 223.896 55.96C224.29 55.96 224.636 56.04 224.936 56.2C225.236 56.3533 225.483 56.5633 225.676 56.83C225.876 57.09 226.02 57.3867 226.106 57.72C226.2 58.0533 226.233 58.3967 226.206 58.75H222.386C222.4 59.1633 222.49 59.49 222.656 59.73C222.83 59.97 223.033 60.14 223.266 60.24C223.5 60.3333 223.716 60.38 223.916 60.38C224.196 60.38 224.43 60.3367 224.616 60.25C224.81 60.1567 224.963 60.0367 225.076 59.89L225.886 60.13C225.706 60.4167 225.45 60.6533 225.116 60.84C224.783 61.0267 224.383 61.12 223.916 61.12ZM222.396 58.08H225.316C225.316 57.8467 225.256 57.6233 225.136 57.41C225.023 57.1967 224.86 57.0233 224.646 56.89C224.44 56.75 224.19 56.68 223.896 56.68C223.65 56.68 223.416 56.7267 223.196 56.82C222.976 56.9133 222.793 57.0633 222.646 57.27C222.506 57.4767 222.423 57.7467 222.396 58.08ZM228.887 61.12C228.6 61.12 228.317 61.0767 228.037 60.99C227.764 60.8967 227.517 60.76 227.297 60.58C227.084 60.3933 226.92 60.16 226.807 59.88L227.617 59.58C227.69 59.8733 227.85 60.0867 228.097 60.22C228.35 60.3467 228.614 60.41 228.887 60.41C229.087 60.41 229.274 60.38 229.447 60.32C229.627 60.26 229.774 60.1733 229.887 60.06C230 59.9467 230.057 59.8167 230.057 59.67C230.057 59.3967 229.947 59.2033 229.727 59.09C229.514 58.9767 229.257 58.89 228.957 58.83L228.267 58.69C228.027 58.6367 227.804 58.5633 227.597 58.47C227.39 58.37 227.224 58.23 227.097 58.05C226.97 57.87 226.907 57.63 226.907 57.33C226.907 57.03 227 56.78 227.187 56.58C227.374 56.3733 227.61 56.2167 227.897 56.11C228.19 56.0033 228.497 55.95 228.817 55.95C229.21 55.95 229.58 56.0333 229.927 56.2C230.28 56.36 230.53 56.6133 230.677 56.96L229.887 57.25C229.8 57.05 229.647 56.9033 229.427 56.81C229.214 56.71 228.99 56.66 228.757 56.66C228.504 56.66 228.274 56.7167 228.067 56.83C227.86 56.9433 227.757 57.1067 227.757 57.32C227.757 57.5333 227.844 57.69 228.017 57.79C228.197 57.8833 228.417 57.9567 228.677 58.01L229.327 58.14C229.594 58.1933 229.847 58.27 230.087 58.37C230.327 58.47 230.524 58.62 230.677 58.82C230.83 59.0133 230.907 59.2867 230.907 59.64C230.907 59.9533 230.81 60.22 230.617 60.44C230.424 60.66 230.174 60.83 229.867 60.95C229.56 61.0633 229.234 61.12 228.887 61.12ZM98.7498 73V68.04H99.3598L99.6298 68.96C99.8031 68.66 100.036 68.42 100.33 68.24C100.63 68.0533 100.986 67.96 101.4 67.96V68.83C101.353 68.83 101.303 68.83 101.25 68.83C101.203 68.83 101.156 68.8333 101.11 68.84C100.543 68.8867 100.146 69.0833 99.9198 69.43C99.6998 69.7767 99.5898 70.2567 99.5898 70.87V73H98.7498ZM104.258 73.12C103.738 73.12 103.298 73.0067 102.938 72.78C102.578 72.5467 102.302 72.2367 102.108 71.85C101.922 71.4567 101.828 71.0167 101.828 70.53C101.828 70.0033 101.935 69.55 102.148 69.17C102.362 68.7833 102.648 68.4867 103.008 68.28C103.375 68.0667 103.785 67.96 104.238 67.96C104.632 67.96 104.978 68.04 105.278 68.2C105.578 68.3533 105.825 68.5633 106.018 68.83C106.218 69.09 106.362 69.3867 106.448 69.72C106.542 70.0533 106.575 70.3967 106.548 70.75H102.728C102.742 71.1633 102.832 71.49 102.998 71.73C103.172 71.97 103.375 72.14 103.608 72.24C103.842 72.3333 104.058 72.38 104.258 72.38C104.538 72.38 104.772 72.3367 104.958 72.25C105.152 72.1567 105.305 72.0367 105.418 71.89L106.228 72.13C106.048 72.4167 105.792 72.6533 105.458 72.84C105.125 73.0267 104.725 73.12 104.258 73.12ZM102.738 70.08H105.658C105.658 69.8467 105.598 69.6233 105.478 69.41C105.365 69.1967 105.202 69.0233 104.988 68.89C104.782 68.75 104.532 68.68 104.238 68.68C103.992 68.68 103.758 68.7267 103.538 68.82C103.318 68.9133 103.135 69.0633 102.988 69.27C102.848 69.4767 102.765 69.7467 102.738 70.08ZM107.539 74.61V68.04H108.149L108.379 68.82C108.532 68.56 108.742 68.3533 109.009 68.2C109.276 68.04 109.602 67.96 109.989 67.96C110.369 67.96 110.719 68.0633 111.039 68.27C111.366 68.47 111.626 68.7633 111.819 69.15C112.019 69.53 112.119 69.9933 112.119 70.54C112.119 71.08 112.019 71.5433 111.819 71.93C111.626 72.3167 111.366 72.6133 111.039 72.82C110.719 73.02 110.369 73.12 109.989 73.12C109.602 73.12 109.276 73.0433 109.009 72.89C108.742 72.73 108.532 72.5167 108.379 72.25V74.61H107.539ZM109.769 72.4C110.196 72.4 110.536 72.2367 110.789 71.91C111.049 71.5833 111.179 71.1267 111.179 70.54C111.179 69.9467 111.049 69.49 110.789 69.17C110.536 68.8433 110.196 68.68 109.769 68.68C109.342 68.68 108.999 68.8433 108.739 69.17C108.486 69.49 108.359 69.9467 108.359 70.54C108.359 71.1267 108.486 71.5833 108.739 71.91C108.999 72.2367 109.342 72.4 109.769 72.4ZM113.203 73V68.04H113.813L114.083 68.96C114.256 68.66 114.49 68.42 114.783 68.24C115.083 68.0533 115.44 67.96 115.853 67.96V68.83C115.806 68.83 115.756 68.83 115.703 68.83C115.656 68.83 115.61 68.8333 115.563 68.84C114.996 68.8867 114.6 69.0833 114.373 69.43C114.153 69.7767 114.043 70.2567 114.043 70.87V73H113.203ZM118.711 73.12C118.191 73.12 117.751 73.0067 117.391 72.78C117.031 72.5467 116.755 72.2367 116.561 71.85C116.375 71.4567 116.281 71.0167 116.281 70.53C116.281 70.0033 116.388 69.55 116.601 69.17C116.815 68.7833 117.101 68.4867 117.461 68.28C117.828 68.0667 118.238 67.96 118.691 67.96C119.085 67.96 119.431 68.04 119.731 68.2C120.031 68.3533 120.278 68.5633 120.471 68.83C120.671 69.09 120.815 69.3867 120.901 69.72C120.995 70.0533 121.028 70.3967 121.001 70.75H117.181C117.195 71.1633 117.285 71.49 117.451 71.73C117.625 71.97 117.828 72.14 118.061 72.24C118.295 72.3333 118.511 72.38 118.711 72.38C118.991 72.38 119.225 72.3367 119.411 72.25C119.605 72.1567 119.758 72.0367 119.871 71.89L120.681 72.13C120.501 72.4167 120.245 72.6533 119.911 72.84C119.578 73.0267 119.178 73.12 118.711 73.12ZM117.191 70.08H120.111C120.111 69.8467 120.051 69.6233 119.931 69.41C119.818 69.1967 119.655 69.0233 119.441 68.89C119.235 68.75 118.985 68.68 118.691 68.68C118.445 68.68 118.211 68.7267 117.991 68.82C117.771 68.9133 117.588 69.0633 117.441 69.27C117.301 69.4767 117.218 69.7467 117.191 70.08ZM123.682 73.12C123.395 73.12 123.112 73.0767 122.832 72.99C122.559 72.8967 122.312 72.76 122.092 72.58C121.879 72.3933 121.715 72.16 121.602 71.88L122.412 71.58C122.485 71.8733 122.645 72.0867 122.892 72.22C123.145 72.3467 123.409 72.41 123.682 72.41C123.882 72.41 124.069 72.38 124.242 72.32C124.422 72.26 124.569 72.1733 124.682 72.06C124.795 71.9467 124.852 71.8167 124.852 71.67C124.852 71.3967 124.742 71.2033 124.522 71.09C124.309 70.9767 124.052 70.89 123.752 70.83L123.062 70.69C122.822 70.6367 122.599 70.5633 122.392 70.47C122.185 70.37 122.019 70.23 121.892 70.05C121.765 69.87 121.702 69.63 121.702 69.33C121.702 69.03 121.795 68.78 121.982 68.58C122.169 68.3733 122.405 68.2167 122.692 68.11C122.985 68.0033 123.292 67.95 123.612 67.95C124.005 67.95 124.375 68.0333 124.722 68.2C125.075 68.36 125.325 68.6133 125.472 68.96L124.682 69.25C124.595 69.05 124.442 68.9033 124.222 68.81C124.009 68.71 123.785 68.66 123.552 68.66C123.299 68.66 123.069 68.7167 122.862 68.83C122.655 68.9433 122.552 69.1067 122.552 69.32C122.552 69.5333 122.639 69.69 122.812 69.79C122.992 69.8833 123.212 69.9567 123.472 70.01L124.122 70.14C124.389 70.1933 124.642 70.27 124.882 70.37C125.122 70.47 125.319 70.62 125.472 70.82C125.625 71.0133 125.702 71.2867 125.702 71.64C125.702 71.9533 125.605 72.22 125.412 72.44C125.219 72.66 124.969 72.83 124.662 72.95C124.355 73.0633 124.029 73.12 123.682 73.12ZM128.809 73.12C128.289 73.12 127.849 73.0067 127.489 72.78C127.129 72.5467 126.852 72.2367 126.659 71.85C126.472 71.4567 126.379 71.0167 126.379 70.53C126.379 70.0033 126.486 69.55 126.699 69.17C126.912 68.7833 127.199 68.4867 127.559 68.28C127.926 68.0667 128.336 67.96 128.789 67.96C129.182 67.96 129.529 68.04 129.829 68.2C130.129 68.3533 130.376 68.5633 130.569 68.83C130.769 69.09 130.912 69.3867 130.999 69.72C131.092 70.0533 131.126 70.3967 131.099 70.75H127.279C127.292 71.1633 127.382 71.49 127.549 71.73C127.722 71.97 127.926 72.14 128.159 72.24C128.392 72.3333 128.609 72.38 128.809 72.38C129.089 72.38 129.322 72.3367 129.509 72.25C129.702 72.1567 129.856 72.0367 129.969 71.89L130.779 72.13C130.599 72.4167 130.342 72.6533 130.009 72.84C129.676 73.0267 129.276 73.12 128.809 73.12ZM127.289 70.08H130.209C130.209 69.8467 130.149 69.6233 130.029 69.41C129.916 69.1967 129.752 69.0233 129.539 68.89C129.332 68.75 129.082 68.68 128.789 68.68C128.542 68.68 128.309 68.7267 128.089 68.82C127.869 68.9133 127.686 69.0633 127.539 69.27C127.399 69.4767 127.316 69.7467 127.289 70.08ZM132.09 73V68.04H132.71L132.93 68.79C133.07 68.5567 133.266 68.36 133.52 68.2C133.773 68.04 134.11 67.96 134.53 67.96C135.13 67.96 135.553 68.1367 135.8 68.49C136.046 68.8367 136.17 69.2933 136.17 69.86V73H135.33V70.11C135.33 69.8567 135.306 69.6233 135.26 69.41C135.213 69.19 135.11 69.0133 134.95 68.88C134.796 68.7467 134.56 68.68 134.24 68.68C133.833 68.68 133.513 68.82 133.28 69.1C133.046 69.3733 132.93 69.7767 132.93 70.31V73H132.09ZM138.932 73C138.618 73 138.375 72.97 138.202 72.91C138.035 72.8433 137.918 72.72 137.852 72.54C137.792 72.36 137.762 72.1 137.762 71.76V68.71H136.922V68.04H137.762V66.79H138.602V68.04H139.562V68.71H138.602V71.62C138.602 71.8733 138.625 72.0433 138.672 72.13C138.725 72.2167 138.872 72.26 139.112 72.26H139.562V73H138.932ZM144.977 73C144.663 73 144.42 72.97 144.247 72.91C144.08 72.8433 143.963 72.72 143.897 72.54C143.837 72.36 143.807 72.1 143.807 71.76V68.71H142.967V68.04H143.807V66.79H144.647V68.04H145.607V68.71H144.647V71.62C144.647 71.8733 144.67 72.0433 144.717 72.13C144.77 72.2167 144.917 72.26 145.157 72.26H145.607V73H144.977ZM146.709 73V66.32H147.549V68.79C147.689 68.5567 147.885 68.36 148.139 68.2C148.392 68.04 148.729 67.96 149.149 67.96C149.749 67.96 150.172 68.1367 150.419 68.49C150.665 68.8367 150.789 69.2933 150.789 69.86V73H149.949V70.11C149.949 69.8567 149.925 69.6233 149.879 69.41C149.832 69.19 149.729 69.0133 149.569 68.88C149.415 68.7467 149.179 68.68 148.859 68.68C148.452 68.68 148.132 68.82 147.899 69.1C147.665 69.3733 147.549 69.7767 147.549 70.31V73H146.709ZM154.17 73.12C153.65 73.12 153.21 73.0067 152.85 72.78C152.49 72.5467 152.214 72.2367 152.02 71.85C151.834 71.4567 151.74 71.0167 151.74 70.53C151.74 70.0033 151.847 69.55 152.06 69.17C152.274 68.7833 152.56 68.4867 152.92 68.28C153.287 68.0667 153.697 67.96 154.15 67.96C154.544 67.96 154.89 68.04 155.19 68.2C155.49 68.3533 155.737 68.5633 155.93 68.83C156.13 69.09 156.274 69.3867 156.36 69.72C156.454 70.0533 156.487 70.3967 156.46 70.75H152.64C152.654 71.1633 152.744 71.49 152.91 71.73C153.084 71.97 153.287 72.14 153.52 72.24C153.754 72.3333 153.97 72.38 154.17 72.38C154.45 72.38 154.684 72.3367 154.87 72.25C155.064 72.1567 155.217 72.0367 155.33 71.89L156.14 72.13C155.96 72.4167 155.704 72.6533 155.37 72.84C155.037 73.0267 154.637 73.12 154.17 73.12ZM152.65 70.08H155.57C155.57 69.8467 155.51 69.6233 155.39 69.41C155.277 69.1967 155.114 69.0233 154.9 68.89C154.694 68.75 154.444 68.68 154.15 68.68C153.904 68.68 153.67 68.7267 153.45 68.82C153.23 68.9133 153.047 69.0633 152.9 69.27C152.76 69.4767 152.677 69.7467 152.65 70.08ZM161.764 73C161.45 73 161.207 72.97 161.034 72.91C160.867 72.8433 160.75 72.72 160.684 72.54C160.624 72.36 160.594 72.1 160.594 71.76V68.71H159.754V68.04H160.594V66.79H161.434V68.04H162.394V68.71H161.434V71.62C161.434 71.8733 161.457 72.0433 161.504 72.13C161.557 72.2167 161.704 72.26 161.944 72.26H162.394V73H161.764ZM165.556 73.12C165.269 73.12 164.986 73.07 164.706 72.97C164.426 72.87 164.169 72.7167 163.936 72.51C163.709 72.2967 163.526 72.0267 163.386 71.7C163.246 71.3733 163.176 70.9867 163.176 70.54C163.176 70.0933 163.246 69.7067 163.386 69.38C163.526 69.0533 163.709 68.7867 163.936 68.58C164.169 68.3667 164.426 68.21 164.706 68.11C164.986 68.01 165.269 67.96 165.556 67.96C165.843 67.96 166.126 68.01 166.406 68.11C166.693 68.21 166.949 68.3667 167.176 68.58C167.409 68.7867 167.593 69.0533 167.726 69.38C167.866 69.7067 167.936 70.0933 167.936 70.54C167.936 70.9867 167.866 71.3733 167.726 71.7C167.593 72.0267 167.409 72.2967 167.176 72.51C166.949 72.7167 166.693 72.87 166.406 72.97C166.126 73.07 165.843 73.12 165.556 73.12ZM165.556 72.38C165.796 72.38 166.029 72.3167 166.256 72.19C166.483 72.0567 166.669 71.8567 166.816 71.59C166.963 71.3167 167.036 70.9667 167.036 70.54C167.036 70.1133 166.963 69.7667 166.816 69.5C166.669 69.2267 166.483 69.0267 166.256 68.9C166.029 68.7667 165.796 68.7 165.556 68.7C165.323 68.7 165.089 68.7667 164.856 68.9C164.629 69.0267 164.443 69.2267 164.296 69.5C164.149 69.7667 164.076 70.1133 164.076 70.54C164.076 70.9667 164.149 71.3167 164.296 71.59C164.443 71.8567 164.629 72.0567 164.856 72.19C165.089 72.3167 165.323 72.38 165.556 72.38ZM170.523 73C170.21 73 169.967 72.97 169.793 72.91C169.627 72.8433 169.51 72.72 169.443 72.54C169.383 72.36 169.353 72.1 169.353 71.76V68.71H168.513V68.04H169.353V66.79H170.193V68.04H171.153V68.71H170.193V71.62C170.193 71.8733 170.217 72.0433 170.263 72.13C170.317 72.2167 170.463 72.26 170.703 72.26H171.153V73H170.523ZM173.646 73.12C173.332 73.12 173.046 73.0633 172.786 72.95C172.526 72.8367 172.319 72.6733 172.166 72.46C172.012 72.2467 171.936 71.99 171.936 71.69C171.936 71.2967 172.072 70.9867 172.346 70.76C172.626 70.5333 173.016 70.36 173.516 70.24C174.022 70.1133 174.612 70.0133 175.286 69.94C175.299 69.52 175.216 69.1967 175.036 68.97C174.856 68.7433 174.566 68.63 174.166 68.63C173.866 68.63 173.619 68.7 173.426 68.84C173.239 68.9733 173.119 69.16 173.066 69.4L172.256 69.16C172.389 68.78 172.626 68.4867 172.966 68.28C173.312 68.0667 173.709 67.96 174.156 67.96C174.842 67.96 175.342 68.1233 175.656 68.45C175.976 68.77 176.136 69.2767 176.136 69.97V71.13C176.136 71.5433 176.152 71.9 176.186 72.2C176.219 72.5 176.259 72.7667 176.306 73H175.536L175.336 72.32C175.189 72.5667 174.979 72.7633 174.706 72.91C174.432 73.05 174.079 73.12 173.646 73.12ZM173.826 72.45C174.086 72.45 174.332 72.4033 174.566 72.31C174.799 72.2167 174.989 72.06 175.136 71.84C175.282 71.6133 175.356 71.3067 175.356 70.92V70.61C174.849 70.6633 174.409 70.73 174.036 70.81C173.662 70.8833 173.372 70.99 173.166 71.13C172.966 71.2633 172.866 71.4433 172.866 71.67C172.866 71.9033 172.949 72.0933 173.116 72.24C173.289 72.38 173.526 72.45 173.826 72.45ZM178.689 73C178.376 73 178.133 72.97 177.959 72.91C177.793 72.8433 177.676 72.72 177.609 72.54C177.549 72.36 177.519 72.1 177.519 71.76V66.33H178.359V71.62C178.359 71.8733 178.386 72.0433 178.439 72.13C178.493 72.2167 178.636 72.26 178.869 72.26H179.059V73H178.689ZM183.785 73L182.015 68.04H182.925L184.225 71.9L185.515 68.04H186.425L184.655 73H183.785ZM187.989 67.1C187.822 67.1 187.675 67.04 187.549 66.92C187.429 66.7933 187.369 66.6433 187.369 66.47C187.369 66.2967 187.429 66.15 187.549 66.03C187.675 65.91 187.822 65.85 187.989 65.85C188.162 65.85 188.309 65.91 188.429 66.03C188.555 66.15 188.619 66.2967 188.619 66.47C188.619 66.6433 188.555 66.7933 188.429 66.92C188.309 67.04 188.162 67.1 187.989 67.1ZM187.569 73V68.71H186.879V68.04H188.409V73H187.569ZM191.602 73.12C191.315 73.12 191.032 73.0767 190.752 72.99C190.479 72.8967 190.232 72.76 190.012 72.58C189.799 72.3933 189.635 72.16 189.522 71.88L190.332 71.58C190.405 71.8733 190.565 72.0867 190.812 72.22C191.065 72.3467 191.329 72.41 191.602 72.41C191.802 72.41 191.989 72.38 192.162 72.32C192.342 72.26 192.489 72.1733 192.602 72.06C192.715 71.9467 192.772 71.8167 192.772 71.67C192.772 71.3967 192.662 71.2033 192.442 71.09C192.229 70.9767 191.972 70.89 191.672 70.83L190.982 70.69C190.742 70.6367 190.519 70.5633 190.312 70.47C190.105 70.37 189.939 70.23 189.812 70.05C189.685 69.87 189.622 69.63 189.622 69.33C189.622 69.03 189.715 68.78 189.902 68.58C190.089 68.3733 190.325 68.2167 190.612 68.11C190.905 68.0033 191.212 67.95 191.532 67.95C191.925 67.95 192.295 68.0333 192.642 68.2C192.995 68.36 193.245 68.6133 193.392 68.96L192.602 69.25C192.515 69.05 192.362 68.9033 192.142 68.81C191.929 68.71 191.705 68.66 191.472 68.66C191.219 68.66 190.989 68.7167 190.782 68.83C190.575 68.9433 190.472 69.1067 190.472 69.32C190.472 69.5333 190.559 69.69 190.732 69.79C190.912 69.8833 191.132 69.9567 191.392 70.01L192.042 70.14C192.309 70.1933 192.562 70.27 192.802 70.37C193.042 70.47 193.239 70.62 193.392 70.82C193.545 71.0133 193.622 71.2867 193.622 71.64C193.622 71.9533 193.525 72.22 193.332 72.44C193.139 72.66 192.889 72.83 192.582 72.95C192.275 73.0633 191.949 73.12 191.602 73.12ZM196.189 73.12C195.802 73.12 195.492 73.04 195.259 72.88C195.026 72.7133 194.856 72.4867 194.749 72.2C194.649 71.9067 194.599 71.5733 194.599 71.2V68.03H195.439V71C195.439 71.3667 195.482 71.65 195.569 71.85C195.656 72.05 195.776 72.19 195.929 72.27C196.089 72.3433 196.272 72.38 196.479 72.38C196.872 72.38 197.179 72.2433 197.399 71.97C197.626 71.69 197.739 71.2867 197.739 70.76V68.03H198.579V73H197.949L197.739 72.28C197.599 72.52 197.409 72.72 197.169 72.88C196.929 73.04 196.602 73.12 196.189 73.12ZM201.37 73.12C201.057 73.12 200.77 73.0633 200.51 72.95C200.25 72.8367 200.044 72.6733 199.89 72.46C199.737 72.2467 199.66 71.99 199.66 71.69C199.66 71.2967 199.797 70.9867 200.07 70.76C200.35 70.5333 200.74 70.36 201.24 70.24C201.747 70.1133 202.337 70.0133 203.01 69.94C203.024 69.52 202.94 69.1967 202.76 68.97C202.58 68.7433 202.29 68.63 201.89 68.63C201.59 68.63 201.344 68.7 201.15 68.84C200.964 68.9733 200.844 69.16 200.79 69.4L199.98 69.16C200.114 68.78 200.35 68.4867 200.69 68.28C201.037 68.0667 201.434 67.96 201.88 67.96C202.567 67.96 203.067 68.1233 203.38 68.45C203.7 68.77 203.86 69.2767 203.86 69.97V71.13C203.86 71.5433 203.877 71.9 203.91 72.2C203.944 72.5 203.984 72.7667 204.03 73H203.26L203.06 72.32C202.914 72.5667 202.704 72.7633 202.43 72.91C202.157 73.05 201.804 73.12 201.37 73.12ZM201.55 72.45C201.81 72.45 202.057 72.4033 202.29 72.31C202.524 72.2167 202.714 72.06 202.86 71.84C203.007 71.6133 203.08 71.3067 203.08 70.92V70.61C202.574 70.6633 202.134 70.73 201.76 70.81C201.387 70.8833 201.097 70.99 200.89 71.13C200.69 71.2633 200.59 71.4433 200.59 71.67C200.59 71.9033 200.674 72.0933 200.84 72.24C201.014 72.38 201.25 72.45 201.55 72.45ZM206.414 73C206.101 73 205.857 72.97 205.684 72.91C205.517 72.8433 205.401 72.72 205.334 72.54C205.274 72.36 205.244 72.1 205.244 71.76V66.33H206.084V71.62C206.084 71.8733 206.111 72.0433 206.164 72.13C206.217 72.2167 206.361 72.26 206.594 72.26H206.784V73H206.414ZM211.829 73.12C211.516 73.12 211.229 73.0633 210.969 72.95C210.709 72.8367 210.503 72.6733 210.349 72.46C210.196 72.2467 210.119 71.99 210.119 71.69C210.119 71.2967 210.256 70.9867 210.529 70.76C210.809 70.5333 211.199 70.36 211.699 70.24C212.206 70.1133 212.796 70.0133 213.469 69.94C213.483 69.52 213.399 69.1967 213.219 68.97C213.039 68.7433 212.749 68.63 212.349 68.63C212.049 68.63 211.803 68.7 211.609 68.84C211.423 68.9733 211.303 69.16 211.249 69.4L210.439 69.16C210.573 68.78 210.809 68.4867 211.149 68.28C211.496 68.0667 211.893 67.96 212.339 67.96C213.026 67.96 213.526 68.1233 213.839 68.45C214.159 68.77 214.319 69.2767 214.319 69.97V71.13C214.319 71.5433 214.336 71.9 214.369 72.2C214.403 72.5 214.443 72.7667 214.489 73H213.719L213.519 72.32C213.373 72.5667 213.163 72.7633 212.889 72.91C212.616 73.05 212.263 73.12 211.829 73.12ZM212.009 72.45C212.269 72.45 212.516 72.4033 212.749 72.31C212.983 72.2167 213.173 72.06 213.319 71.84C213.466 71.6133 213.539 71.3067 213.539 70.92V70.61C213.033 70.6633 212.593 70.73 212.219 70.81C211.846 70.8833 211.556 70.99 211.349 71.13C211.149 71.2633 211.049 71.4433 211.049 71.67C211.049 71.9033 211.133 72.0933 211.299 72.24C211.473 72.38 211.709 72.45 212.009 72.45ZM215.703 74.61V68.04H216.313L216.543 68.82C216.696 68.56 216.906 68.3533 217.173 68.2C217.44 68.04 217.766 67.96 218.153 67.96C218.533 67.96 218.883 68.0633 219.203 68.27C219.53 68.47 219.79 68.7633 219.983 69.15C220.183 69.53 220.283 69.9933 220.283 70.54C220.283 71.08 220.183 71.5433 219.983 71.93C219.79 72.3167 219.53 72.6133 219.203 72.82C218.883 73.02 218.533 73.12 218.153 73.12C217.766 73.12 217.44 73.0433 217.173 72.89C216.906 72.73 216.696 72.5167 216.543 72.25V74.61H215.703ZM217.933 72.4C218.36 72.4 218.7 72.2367 218.953 71.91C219.213 71.5833 219.343 71.1267 219.343 70.54C219.343 69.9467 219.213 69.49 218.953 69.17C218.7 68.8433 218.36 68.68 217.933 68.68C217.506 68.68 217.163 68.8433 216.903 69.17C216.65 69.49 216.523 69.9467 216.523 70.54C216.523 71.1267 216.65 71.5833 216.903 71.91C217.163 72.2367 217.506 72.4 217.933 72.4ZM221.367 74.61V68.04H221.977L222.207 68.82C222.36 68.56 222.57 68.3533 222.837 68.2C223.104 68.04 223.43 67.96 223.817 67.96C224.197 67.96 224.547 68.0633 224.867 68.27C225.194 68.47 225.454 68.7633 225.647 69.15C225.847 69.53 225.947 69.9933 225.947 70.54C225.947 71.08 225.847 71.5433 225.647 71.93C225.454 72.3167 225.194 72.6133 224.867 72.82C224.547 73.02 224.197 73.12 223.817 73.12C223.43 73.12 223.104 73.0433 222.837 72.89C222.57 72.73 222.36 72.5167 222.207 72.25V74.61H221.367ZM223.597 72.4C224.024 72.4 224.364 72.2367 224.617 71.91C224.877 71.5833 225.007 71.1267 225.007 70.54C225.007 69.9467 224.877 69.49 224.617 69.17C224.364 68.8433 224.024 68.68 223.597 68.68C223.17 68.68 222.827 68.8433 222.567 69.17C222.314 69.49 222.187 69.9467 222.187 70.54C222.187 71.1267 222.314 71.5833 222.567 71.91C222.827 72.2367 223.17 72.4 223.597 72.4ZM229.141 73.12C228.621 73.12 228.181 73.0067 227.821 72.78C227.461 72.5467 227.184 72.2367 226.991 71.85C226.804 71.4567 226.711 71.0167 226.711 70.53C226.711 70.0033 226.818 69.55 227.031 69.17C227.244 68.7833 227.531 68.4867 227.891 68.28C228.258 68.0667 228.668 67.96 229.121 67.96C229.514 67.96 229.861 68.04 230.161 68.2C230.461 68.3533 230.708 68.5633 230.901 68.83C231.101 69.09 231.244 69.3867 231.331 69.72C231.424 70.0533 231.458 70.3967 231.431 70.75H227.611C227.624 71.1633 227.714 71.49 227.881 71.73C228.054 71.97 228.258 72.14 228.491 72.24C228.724 72.3333 228.941 72.38 229.141 72.38C229.421 72.38 229.654 72.3367 229.841 72.25C230.034 72.1567 230.188 72.0367 230.301 71.89L231.111 72.13C230.931 72.4167 230.674 72.6533 230.341 72.84C230.008 73.0267 229.608 73.12 229.141 73.12ZM227.621 70.08H230.541C230.541 69.8467 230.481 69.6233 230.361 69.41C230.248 69.1967 230.084 69.0233 229.871 68.89C229.664 68.75 229.414 68.68 229.121 68.68C228.874 68.68 228.641 68.7267 228.421 68.82C228.201 68.9133 228.018 69.0633 227.871 69.27C227.731 69.4767 227.648 69.7467 227.621 70.08ZM233.812 73.12C233.498 73.12 233.212 73.0633 232.952 72.95C232.692 72.8367 232.485 72.6733 232.332 72.46C232.178 72.2467 232.102 71.99 232.102 71.69C232.102 71.2967 232.238 70.9867 232.512 70.76C232.792 70.5333 233.182 70.36 233.682 70.24C234.188 70.1133 234.778 70.0133 235.452 69.94C235.465 69.52 235.382 69.1967 235.202 68.97C235.022 68.7433 234.732 68.63 234.332 68.63C234.032 68.63 233.785 68.7 233.592 68.84C233.405 68.9733 233.285 69.16 233.232 69.4L232.422 69.16C232.555 68.78 232.792 68.4867 233.132 68.28C233.478 68.0667 233.875 67.96 234.322 67.96C235.008 67.96 235.508 68.1233 235.822 68.45C236.142 68.77 236.302 69.2767 236.302 69.97V71.13C236.302 71.5433 236.318 71.9 236.352 72.2C236.385 72.5 236.425 72.7667 236.472 73H235.702L235.502 72.32C235.355 72.5667 235.145 72.7633 234.872 72.91C234.598 73.05 234.245 73.12 233.812 73.12ZM233.992 72.45C234.252 72.45 234.498 72.4033 234.732 72.31C234.965 72.2167 235.155 72.06 235.302 71.84C235.448 71.6133 235.522 71.3067 235.522 70.92V70.61C235.015 70.6633 234.575 70.73 234.202 70.81C233.828 70.8833 233.538 70.99 233.332 71.13C233.132 71.2633 233.032 71.4433 233.032 71.67C233.032 71.9033 233.115 72.0933 233.282 72.24C233.455 72.38 233.692 72.45 233.992 72.45ZM237.685 73V68.04H238.295L238.565 68.96C238.739 68.66 238.972 68.42 239.265 68.24C239.565 68.0533 239.922 67.96 240.335 67.96V68.83C240.289 68.83 240.239 68.83 240.185 68.83C240.139 68.83 240.092 68.8333 240.045 68.84C239.479 68.8867 239.082 69.0833 238.855 69.43C238.635 69.7767 238.525 70.2567 238.525 70.87V73H237.685ZM242.327 73.12C242.014 73.12 241.727 73.0633 241.467 72.95C241.207 72.8367 241.001 72.6733 240.847 72.46C240.694 72.2467 240.617 71.99 240.617 71.69C240.617 71.2967 240.754 70.9867 241.027 70.76C241.307 70.5333 241.697 70.36 242.197 70.24C242.704 70.1133 243.294 70.0133 243.967 69.94C243.981 69.52 243.897 69.1967 243.717 68.97C243.537 68.7433 243.247 68.63 242.847 68.63C242.547 68.63 242.301 68.7 242.107 68.84C241.921 68.9733 241.801 69.16 241.747 69.4L240.937 69.16C241.071 68.78 241.307 68.4867 241.647 68.28C241.994 68.0667 242.391 67.96 242.837 67.96C243.524 67.96 244.024 68.1233 244.337 68.45C244.657 68.77 244.817 69.2767 244.817 69.97V71.13C244.817 71.5433 244.834 71.9 244.867 72.2C244.901 72.5 244.941 72.7667 244.987 73H244.217L244.017 72.32C243.871 72.5667 243.661 72.7633 243.387 72.91C243.114 73.05 242.761 73.12 242.327 73.12ZM242.507 72.45C242.767 72.45 243.014 72.4033 243.247 72.31C243.481 72.2167 243.671 72.06 243.817 71.84C243.964 71.6133 244.037 71.3067 244.037 70.92V70.61C243.531 70.6633 243.091 70.73 242.717 70.81C242.344 70.8833 242.054 70.99 241.847 71.13C241.647 71.2633 241.547 71.4433 241.547 71.67C241.547 71.9033 241.631 72.0933 241.797 72.24C241.971 72.38 242.207 72.45 242.507 72.45ZM246.201 73V68.04H246.821L247.041 68.79C247.181 68.5567 247.378 68.36 247.631 68.2C247.884 68.04 248.221 67.96 248.641 67.96C249.241 67.96 249.664 68.1367 249.911 68.49C250.158 68.8367 250.281 69.2933 250.281 69.86V73H249.441V70.11C249.441 69.8567 249.418 69.6233 249.371 69.41C249.324 69.19 249.221 69.0133 249.061 68.88C248.908 68.7467 248.671 68.68 248.351 68.68C247.944 68.68 247.624 68.82 247.391 69.1C247.158 69.3733 247.041 69.7767 247.041 70.31V73H246.201ZM253.543 73.12C253.069 73.12 252.659 73.01 252.313 72.79C251.966 72.5633 251.699 72.2567 251.513 71.87C251.326 71.4833 251.233 71.04 251.233 70.54C251.233 70.0467 251.329 69.6067 251.523 69.22C251.723 68.8267 252.003 68.52 252.363 68.3C252.723 68.0733 253.146 67.96 253.633 67.96C254.079 67.96 254.463 68.07 254.783 68.29C255.103 68.51 255.343 68.7733 255.503 69.08L254.733 69.36C254.626 69.16 254.469 69 254.263 68.88C254.056 68.76 253.826 68.7 253.573 68.7C253.326 68.7 253.093 68.7667 252.873 68.9C252.653 69.0267 252.476 69.2267 252.343 69.5C252.209 69.7667 252.143 70.11 252.143 70.53C252.143 70.9433 252.209 71.29 252.343 71.57C252.483 71.8433 252.659 72.0467 252.873 72.18C253.093 72.3133 253.326 72.38 253.573 72.38C253.846 72.38 254.083 72.32 254.283 72.2C254.489 72.0733 254.646 71.9167 254.753 71.73L255.523 72.01C255.336 72.33 255.069 72.5967 254.723 72.81C254.376 73.0167 253.983 73.12 253.543 73.12ZM258.663 73.12C258.143 73.12 257.703 73.0067 257.343 72.78C256.983 72.5467 256.706 72.2367 256.513 71.85C256.326 71.4567 256.233 71.0167 256.233 70.53C256.233 70.0033 256.339 69.55 256.553 69.17C256.766 68.7833 257.053 68.4867 257.413 68.28C257.779 68.0667 258.189 67.96 258.643 67.96C259.036 67.96 259.383 68.04 259.683 68.2C259.983 68.3533 260.229 68.5633 260.423 68.83C260.623 69.09 260.766 69.3867 260.853 69.72C260.946 70.0533 260.979 70.3967 260.953 70.75H257.133C257.146 71.1633 257.236 71.49 257.403 71.73C257.576 71.97 257.779 72.14 258.013 72.24C258.246 72.3333 258.463 72.38 258.663 72.38C258.943 72.38 259.176 72.3367 259.363 72.25C259.556 72.1567 259.709 72.0367 259.823 71.89L260.633 72.13C260.453 72.4167 260.196 72.6533 259.863 72.84C259.529 73.0267 259.129 73.12 258.663 73.12ZM257.143 70.08H260.063C260.063 69.8467 260.003 69.6233 259.883 69.41C259.769 69.1967 259.606 69.0233 259.393 68.89C259.186 68.75 258.936 68.68 258.643 68.68C258.396 68.68 258.163 68.7267 257.943 68.82C257.723 68.9133 257.539 69.0633 257.393 69.27C257.253 69.4767 257.169 69.7467 257.143 70.08ZM263.633 73.12C263.346 73.12 263.063 73.0767 262.783 72.99C262.51 72.8967 262.263 72.76 262.043 72.58C261.83 72.3933 261.666 72.16 261.553 71.88L262.363 71.58C262.436 71.8733 262.596 72.0867 262.843 72.22C263.096 72.3467 263.36 72.41 263.633 72.41C263.833 72.41 264.02 72.38 264.193 72.32C264.373 72.26 264.52 72.1733 264.633 72.06C264.746 71.9467 264.803 71.8167 264.803 71.67C264.803 71.3967 264.693 71.2033 264.473 71.09C264.26 70.9767 264.003 70.89 263.703 70.83L263.013 70.69C262.773 70.6367 262.55 70.5633 262.343 70.47C262.136 70.37 261.97 70.23 261.843 70.05C261.716 69.87 261.653 69.63 261.653 69.33C261.653 69.03 261.746 68.78 261.933 68.58C262.12 68.3733 262.356 68.2167 262.643 68.11C262.936 68.0033 263.243 67.95 263.563 67.95C263.956 67.95 264.326 68.0333 264.673 68.2C265.026 68.36 265.276 68.6133 265.423 68.96L264.633 69.25C264.546 69.05 264.393 68.9033 264.173 68.81C263.96 68.71 263.736 68.66 263.503 68.66C263.25 68.66 263.02 68.7167 262.813 68.83C262.606 68.9433 262.503 69.1067 262.503 69.32C262.503 69.5333 262.59 69.69 262.763 69.79C262.943 69.8833 263.163 69.9567 263.423 70.01L264.073 70.14C264.34 70.1933 264.593 70.27 264.833 70.37C265.073 70.47 265.27 70.62 265.423 70.82C265.576 71.0133 265.653 71.2867 265.653 71.64C265.653 71.9533 265.556 72.22 265.363 72.44C265.17 72.66 264.92 72.83 264.613 72.95C264.306 73.0633 263.98 73.12 263.633 73.12Z" fill="black"/>
<circle cx="169.999" cy="36.7045" r="9.85294" fill="#FCF4E9" stroke="black"/>
<circle cx="197.293" cy="36.7045" r="9.85294" fill="#FCF4E9" stroke="black"/>
<circle cx="183.177" cy="15.9994" r="9.85294" fill="#FCF4E9" stroke="black"/>
<circle cx="207.647" cy="11.7631" r="9.85294" fill="#FCF4E9" stroke="black"/>
<circle cx="156.353" cy="10.3529" r="9.85294" fill="#FCF4E9" stroke="black"/>
<circle cx="42" cy="24" r="21.5" fill="#FCF4E9" stroke="black"/>
</svg>
