<svg width="273" height="160" viewBox="0 0 273 160" fill="none" xmlns="http://www.w3.org/2000/svg">
<path d="M177.803 122.612L101.945 150.061" stroke="#333333"/>
<path d="M177.804 122.612L127.069 34.9615" stroke="#333333"/>
<path d="M177.803 122.612L59.4863 93.295" stroke="#333333"/>
<path d="M177.803 122.612L225.5 99.5" stroke="#333333"/>
<path d="M220.284 7.69141L102.342 151.106" stroke="#333333"/>
<path d="M220.284 7.69141L127.068 34.961" stroke="#333333"/>
<path d="M220.284 7.69141L59.486 93.2945" stroke="#333333"/>
<path d="M101.397 150.509L127.068 34.9613" stroke="#333333"/>
<path d="M100.799 151.453L59.4863 93.2951" stroke="#333333"/>
<path d="M127.068 34.9613L59.4863 93.2948" stroke="#333333"/>
<path d="M260.5 56L223.5 103" stroke="black"/>
<path d="M256.102 55.338C256.473 58.2133 259.103 60.2442 261.979 59.8741C264.854 59.5041 266.885 56.8732 266.515 53.9979C266.145 51.1226 263.514 49.0917 260.639 49.4618C257.763 49.8318 255.732 52.4627 256.102 55.338Z" fill="white" stroke="#333333"/>
<path d="M226 103L266 99" stroke="black"/>
<path d="M167.706 123.275C168.374 128.461 173.119 132.124 178.304 131.456C183.49 130.789 187.153 126.044 186.486 120.858C185.818 115.672 181.073 112.009 175.888 112.677C170.702 113.344 167.039 118.089 167.706 123.275Z" fill="white" stroke="#333333"/>
<path d="M216.209 101.807C216.876 106.993 221.621 110.655 226.807 109.988C231.993 109.321 235.656 104.576 234.988 99.3897C234.321 94.2039 229.576 90.5411 224.39 91.2085C219.204 91.8759 215.541 96.6209 216.209 101.807Z" fill="white" stroke="#333333"/>
<path d="M212.853 9.28474C213.343 13.0877 216.822 15.7738 220.625 15.2844C224.428 14.7949 227.114 11.3152 226.625 7.5123C226.136 3.70936 222.656 1.02324 218.853 1.51269C215.05 2.00214 212.364 5.4818 212.853 9.28474Z" fill="white" stroke="#333333"/>
<path d="M261.67 99.5462C262.04 102.422 264.671 104.452 267.546 104.082C270.421 103.712 272.452 101.081 272.082 98.2062C271.712 95.3309 269.081 93.3 266.206 93.67C263.331 94.0401 261.3 96.671 261.67 99.5462Z" fill="white" stroke="#333333"/>
<path d="M93.9671 151.575C94.501 155.724 98.297 158.654 102.446 158.12C106.594 157.586 109.525 153.79 108.991 149.642C108.457 145.493 104.661 142.563 100.512 143.097C96.3634 143.631 93.4331 147.427 93.9671 151.575Z" fill="white" stroke="#333333"/>
<path d="M118.385 36.7153C118.963 41.2097 123.075 44.3842 127.57 43.8057C132.064 43.2273 135.239 39.115 134.66 34.6206C134.082 30.1262 129.969 26.9517 125.475 27.5301C120.981 28.1086 117.806 32.2209 118.385 36.7153Z" fill="white" stroke="#333333"/>
<path d="M1.04714 102.233C1.62557 106.727 5.73791 109.901 10.2323 109.323C14.7267 108.745 17.9012 104.632 17.3227 100.138C16.7443 95.6434 12.632 92.4689 8.13759 93.0474C3.64321 93.6258 0.468701 97.7381 1.04714 102.233Z" fill="white" stroke="#333333"/>
<path d="M47.7718 50.5404C48.198 53.8524 51.2285 56.1917 54.5404 55.7655C57.8524 55.3392 60.1917 52.3088 59.7655 48.9968C59.3392 45.6849 56.3088 43.3455 52.9968 43.7718C49.6849 44.1981 47.3455 47.2285 47.7718 50.5404Z" fill="white" stroke="#333333"/>
<path d="M51.8934 93.6363C52.3828 97.4392 55.8625 100.125 59.6654 99.6359C63.4684 99.1465 66.1545 95.6668 65.665 91.8639C65.1756 88.0609 61.6959 85.3748 57.893 85.8642C54.09 86.3537 51.4039 89.8334 51.8934 93.6363Z" fill="white" stroke="#333333"/>
</svg>
