<svg width="86" height="92" viewBox="0 0 86 92" fill="none" xmlns="http://www.w3.org/2000/svg">
<path d="M2.99613 65.12C2.62947 65.12 2.2728 65.0633 1.92613 64.95C1.57947 64.8367 1.2728 64.6633 1.00613 64.43C0.746133 64.1967 0.556133 63.9 0.436133 63.54L1.30613 63.28C1.38613 63.52 1.51613 63.72 1.69613 63.88C1.87613 64.0333 2.0828 64.1467 2.31613 64.22C2.55613 64.2933 2.79613 64.33 3.03613 64.33C3.3028 64.33 3.55613 64.2867 3.79613 64.2C4.03613 64.1133 4.22947 63.9833 4.37613 63.81C4.52947 63.63 4.60613 63.4067 4.60613 63.14C4.60613 62.8667 4.50613 62.65 4.30613 62.49C4.10613 62.33 3.75947 62.1867 3.26613 62.06L2.41613 61.87C2.10947 61.79 1.80613 61.6833 1.50613 61.55C1.2128 61.4167 0.969466 61.2267 0.776133 60.98C0.589466 60.7333 0.496133 60.4033 0.496133 59.99C0.496133 59.61 0.6128 59.2867 0.846133 59.02C1.08613 58.7533 1.3928 58.55 1.76613 58.41C2.14613 58.27 2.53947 58.2 2.94613 58.2C3.25947 58.2 3.56613 58.2467 3.86613 58.34C4.1728 58.4267 4.44613 58.5633 4.68613 58.75C4.9328 58.93 5.12613 59.1633 5.26613 59.45L4.40613 59.7C4.27947 59.4667 4.0728 59.29 3.78613 59.17C3.50613 59.05 3.2128 58.99 2.90613 58.99C2.66613 58.99 2.43613 59.03 2.21613 59.11C1.99613 59.1833 1.81613 59.2967 1.67613 59.45C1.53613 59.6033 1.46613 59.7967 1.46613 60.03C1.46613 60.25 1.52947 60.4267 1.65613 60.56C1.78947 60.6933 1.9628 60.8 2.17613 60.88C2.39613 60.9533 2.63613 61.02 2.89613 61.08L3.62613 61.24C3.96613 61.32 4.28613 61.43 4.58613 61.57C4.88613 61.71 5.12947 61.9067 5.31613 62.16C5.5028 62.4133 5.59613 62.7533 5.59613 63.18C5.59613 63.4867 5.5228 63.7633 5.37613 64.01C5.22947 64.25 5.0328 64.4533 4.78613 64.62C4.53947 64.78 4.25947 64.9033 3.94613 64.99C3.63947 65.0767 3.3228 65.12 2.99613 65.12ZM8.80316 65.12C8.28316 65.12 7.84316 65.0067 7.48316 64.78C7.12316 64.5467 6.8465 64.2367 6.65316 63.85C6.4665 63.4567 6.37316 63.0167 6.37316 62.53C6.37316 62.0033 6.47983 61.55 6.69316 61.17C6.9065 60.7833 7.19316 60.4867 7.55316 60.28C7.91983 60.0667 8.32983 59.96 8.78316 59.96C9.1765 59.96 9.52316 60.04 9.82316 60.2C10.1232 60.3533 10.3698 60.5633 10.5632 60.83C10.7632 61.09 10.9065 61.3867 10.9932 61.72C11.0865 62.0533 11.1198 62.3967 11.0932 62.75H7.27316C7.2865 63.1633 7.3765 63.49 7.54316 63.73C7.7165 63.97 7.91983 64.14 8.15316 64.24C8.3865 64.3333 8.60316 64.38 8.80316 64.38C9.08316 64.38 9.3165 64.3367 9.50316 64.25C9.6965 64.1567 9.84983 64.0367 9.96316 63.89L10.7732 64.13C10.5932 64.4167 10.3365 64.6533 10.0032 64.84C9.66983 65.0267 9.26983 65.12 8.80316 65.12ZM7.28316 62.08H10.2032C10.2032 61.8467 10.1432 61.6233 10.0232 61.41C9.90983 61.1967 9.7465 61.0233 9.53316 60.89C9.3265 60.75 9.0765 60.68 8.78316 60.68C8.5365 60.68 8.30316 60.7267 8.08316 60.82C7.86316 60.9133 7.67983 61.0633 7.53316 61.27C7.39316 61.4767 7.30983 61.7467 7.28316 62.08ZM13.2538 65C12.9405 65 12.6971 64.97 12.5238 64.91C12.3571 64.8433 12.2405 64.72 12.1738 64.54C12.1138 64.36 12.0838 64.1 12.0838 63.76V58.33H12.9238V63.62C12.9238 63.8733 12.9505 64.0433 13.0038 64.13C13.0571 64.2167 13.2005 64.26 13.4338 64.26H13.6238V65H13.2538ZM16.5864 65.12C16.0664 65.12 15.6264 65.0067 15.2664 64.78C14.9064 64.5467 14.6297 64.2367 14.4364 63.85C14.2497 63.4567 14.1564 63.0167 14.1564 62.53C14.1564 62.0033 14.263 61.55 14.4764 61.17C14.6897 60.7833 14.9764 60.4867 15.3364 60.28C15.703 60.0667 16.113 59.96 16.5664 59.96C16.9597 59.96 17.3064 60.04 17.6064 60.2C17.9064 60.3533 18.153 60.5633 18.3464 60.83C18.5464 61.09 18.6897 61.3867 18.7764 61.72C18.8697 62.0533 18.903 62.3967 18.8764 62.75H15.0564C15.0697 63.1633 15.1597 63.49 15.3264 63.73C15.4997 63.97 15.703 64.14 15.9364 64.24C16.1697 64.3333 16.3864 64.38 16.5864 64.38C16.8664 64.38 17.0997 64.3367 17.2864 64.25C17.4797 64.1567 17.633 64.0367 17.7464 63.89L18.5564 64.13C18.3764 64.4167 18.1197 64.6533 17.7864 64.84C17.453 65.0267 17.053 65.12 16.5864 65.12ZM15.0664 62.08H17.9864C17.9864 61.8467 17.9264 61.6233 17.8064 61.41C17.693 61.1967 17.5297 61.0233 17.3164 60.89C17.1097 60.75 16.8597 60.68 16.5664 60.68C16.3197 60.68 16.0864 60.7267 15.8664 60.82C15.6464 60.9133 15.463 61.0633 15.3164 61.27C15.1764 61.4767 15.093 61.7467 15.0664 62.08ZM21.857 65.12C21.3837 65.12 20.9737 65.01 20.627 64.79C20.2803 64.5633 20.0137 64.2567 19.827 63.87C19.6403 63.4833 19.547 63.04 19.547 62.54C19.547 62.0467 19.6437 61.6067 19.837 61.22C20.037 60.8267 20.317 60.52 20.677 60.3C21.037 60.0733 21.4603 59.96 21.947 59.96C22.3937 59.96 22.777 60.07 23.097 60.29C23.417 60.51 23.657 60.7733 23.817 61.08L23.047 61.36C22.9403 61.16 22.7837 61 22.577 60.88C22.3703 60.76 22.1403 60.7 21.887 60.7C21.6403 60.7 21.407 60.7667 21.187 60.9C20.967 61.0267 20.7903 61.2267 20.657 61.5C20.5237 61.7667 20.457 62.11 20.457 62.53C20.457 62.9433 20.5237 63.29 20.657 63.57C20.797 63.8433 20.9737 64.0467 21.187 64.18C21.407 64.3133 21.6403 64.38 21.887 64.38C22.1603 64.38 22.397 64.32 22.597 64.2C22.8037 64.0733 22.9603 63.9167 23.067 63.73L23.837 64.01C23.6503 64.33 23.3837 64.5967 23.037 64.81C22.6903 65.0167 22.297 65.12 21.857 65.12ZM26.377 65C26.0637 65 25.8203 64.97 25.647 64.91C25.4803 64.8433 25.3637 64.72 25.297 64.54C25.237 64.36 25.207 64.1 25.207 63.76V60.71H24.367V60.04H25.207V58.79H26.047V60.04H27.007V60.71H26.047V63.62C26.047 63.8733 26.0703 64.0433 26.117 64.13C26.1703 64.2167 26.317 64.26 26.557 64.26H27.007V65H26.377ZM32.4219 65C32.1086 65 31.8652 64.97 31.6919 64.91C31.5252 64.8433 31.4086 64.72 31.3419 64.54C31.2819 64.36 31.2519 64.1 31.2519 63.76V60.71H30.4119V60.04H31.2519V58.79H32.0919V60.04H33.0519V60.71H32.0919V63.62C32.0919 63.8733 32.1152 64.0433 32.1619 64.13C32.2152 64.2167 32.3619 64.26 32.6019 64.26H33.0519V65H32.4219ZM34.8841 65L33.4541 60.04H34.3541L35.3041 63.71L36.2941 60.04H37.1641L38.1441 63.71L39.0941 60.04H39.9941L38.5741 65H37.8041L36.7241 61.01L35.6441 65H34.8841ZM42.7571 65.12C42.4704 65.12 42.1871 65.07 41.9071 64.97C41.6271 64.87 41.3704 64.7167 41.1371 64.51C40.9104 64.2967 40.7271 64.0267 40.5871 63.7C40.4471 63.3733 40.3771 62.9867 40.3771 62.54C40.3771 62.0933 40.4471 61.7067 40.5871 61.38C40.7271 61.0533 40.9104 60.7867 41.1371 60.58C41.3704 60.3667 41.6271 60.21 41.9071 60.11C42.1871 60.01 42.4704 59.96 42.7571 59.96C43.0437 59.96 43.3271 60.01 43.6071 60.11C43.8937 60.21 44.1504 60.3667 44.3771 60.58C44.6104 60.7867 44.7937 61.0533 44.9271 61.38C45.0671 61.7067 45.1371 62.0933 45.1371 62.54C45.1371 62.9867 45.0671 63.3733 44.9271 63.7C44.7937 64.0267 44.6104 64.2967 44.3771 64.51C44.1504 64.7167 43.8937 64.87 43.6071 64.97C43.3271 65.07 43.0437 65.12 42.7571 65.12ZM42.7571 64.38C42.9971 64.38 43.2304 64.3167 43.4571 64.19C43.6837 64.0567 43.8704 63.8567 44.0171 63.59C44.1637 63.3167 44.2371 62.9667 44.2371 62.54C44.2371 62.1133 44.1637 61.7667 44.0171 61.5C43.8704 61.2267 43.6837 61.0267 43.4571 60.9C43.2304 60.7667 42.9971 60.7 42.7571 60.7C42.5237 60.7 42.2904 60.7667 42.0571 60.9C41.8304 61.0267 41.6437 61.2267 41.4971 61.5C41.3504 61.7667 41.2771 62.1133 41.2771 62.54C41.2771 62.9667 41.3504 63.3167 41.4971 63.59C41.6437 63.8567 41.8304 64.0567 42.0571 64.19C42.2904 64.3167 42.5237 64.38 42.7571 64.38ZM51.4674 65.12C51.0807 65.12 50.754 65.0433 50.4874 64.89C50.2207 64.73 50.0107 64.5167 49.8574 64.25L49.6374 65H49.0174V58.32H49.8574V60.82C50.0107 60.56 50.2207 60.3533 50.4874 60.2C50.754 60.04 51.0807 59.96 51.4674 59.96C51.8474 59.96 52.1974 60.0633 52.5174 60.27C52.844 60.47 53.104 60.7633 53.2974 61.15C53.4974 61.53 53.5974 61.9933 53.5974 62.54C53.5974 63.0867 53.4974 63.5533 53.2974 63.94C53.104 64.32 52.844 64.6133 52.5174 64.82C52.1974 65.02 51.8474 65.12 51.4674 65.12ZM51.2474 64.4C51.674 64.4 52.014 64.2367 52.2674 63.91C52.5274 63.5833 52.6574 63.1267 52.6574 62.54C52.6574 61.9467 52.5274 61.49 52.2674 61.17C52.014 60.8433 51.674 60.68 51.2474 60.68C50.8207 60.68 50.4774 60.8433 50.2174 61.17C49.964 61.49 49.8374 61.9467 49.8374 62.54C49.8374 63.1267 49.964 63.5833 50.2174 63.91C50.4774 64.2367 50.8207 64.4 51.2474 64.4ZM56.2514 65.12C55.8648 65.12 55.5548 65.04 55.3214 64.88C55.0881 64.7133 54.9181 64.4867 54.8114 64.2C54.7114 63.9067 54.6614 63.5733 54.6614 63.2V60.03H55.5014V63C55.5014 63.3667 55.5448 63.65 55.6314 63.85C55.7181 64.05 55.8381 64.19 55.9914 64.27C56.1514 64.3433 56.3348 64.38 56.5414 64.38C56.9348 64.38 57.2414 64.2433 57.4614 63.97C57.6881 63.69 57.8014 63.2867 57.8014 62.76V60.03H58.6414V65H58.0114L57.8014 64.28C57.6614 64.52 57.4714 64.72 57.2314 64.88C56.9914 65.04 56.6648 65.12 56.2514 65.12ZM62.4928 65.12C62.1061 65.12 61.7794 65.0433 61.5128 64.89C61.2461 64.73 61.0361 64.5167 60.8828 64.25L60.6628 65H60.0428V58.32H60.8828V60.82C61.0361 60.56 61.2461 60.3533 61.5128 60.2C61.7794 60.04 62.1061 59.96 62.4928 59.96C62.8728 59.96 63.2228 60.0633 63.5428 60.27C63.8694 60.47 64.1294 60.7633 64.3228 61.15C64.5228 61.53 64.6228 61.9933 64.6228 62.54C64.6228 63.0867 64.5228 63.5533 64.3228 63.94C64.1294 64.32 63.8694 64.6133 63.5428 64.82C63.2228 65.02 62.8728 65.12 62.4928 65.12ZM62.2728 64.4C62.6994 64.4 63.0394 64.2367 63.2928 63.91C63.5528 63.5833 63.6828 63.1267 63.6828 62.54C63.6828 61.9467 63.5528 61.49 63.2928 61.17C63.0394 60.8433 62.6994 60.68 62.2728 60.68C61.8461 60.68 61.5028 60.8433 61.2428 61.17C60.9894 61.49 60.8628 61.9467 60.8628 62.54C60.8628 63.1267 60.9894 63.5833 61.2428 63.91C61.5028 64.2367 61.8461 64.4 62.2728 64.4ZM68.1568 65.12C67.7702 65.12 67.4435 65.0433 67.1768 64.89C66.9102 64.73 66.7002 64.5167 66.5468 64.25L66.3268 65H65.7068V58.32H66.5468V60.82C66.7002 60.56 66.9102 60.3533 67.1768 60.2C67.4435 60.04 67.7702 59.96 68.1568 59.96C68.5368 59.96 68.8868 60.0633 69.2068 60.27C69.5335 60.47 69.7935 60.7633 69.9868 61.15C70.1868 61.53 70.2868 61.9933 70.2868 62.54C70.2868 63.0867 70.1868 63.5533 69.9868 63.94C69.7935 64.32 69.5335 64.6133 69.2068 64.82C68.8868 65.02 68.5368 65.12 68.1568 65.12ZM67.9368 64.4C68.3635 64.4 68.7035 64.2367 68.9568 63.91C69.2168 63.5833 69.3468 63.1267 69.3468 62.54C69.3468 61.9467 69.2168 61.49 68.9568 61.17C68.7035 60.8433 68.3635 60.68 67.9368 60.68C67.5102 60.68 67.1668 60.8433 66.9068 61.17C66.6535 61.49 66.5268 61.9467 66.5268 62.54C66.5268 63.1267 66.6535 63.5833 66.9068 63.91C67.1668 64.2367 67.5102 64.4 67.9368 64.4ZM72.5409 65C72.2276 65 71.9842 64.97 71.8109 64.91C71.6442 64.8433 71.5276 64.72 71.4609 64.54C71.4009 64.36 71.3709 64.1 71.3709 63.76V58.33H72.2109V63.62C72.2109 63.8733 72.2376 64.0433 72.2909 64.13C72.3442 64.2167 72.4876 64.26 72.7209 64.26H72.9109V65H72.5409ZM75.8735 65.12C75.3535 65.12 74.9135 65.0067 74.5535 64.78C74.1935 64.5467 73.9168 64.2367 73.7235 63.85C73.5368 63.4567 73.4435 63.0167 73.4435 62.53C73.4435 62.0033 73.5501 61.55 73.7635 61.17C73.9768 60.7833 74.2635 60.4867 74.6235 60.28C74.9901 60.0667 75.4001 59.96 75.8535 59.96C76.2468 59.96 76.5935 60.04 76.8935 60.2C77.1935 60.3533 77.4401 60.5633 77.6335 60.83C77.8335 61.09 77.9768 61.3867 78.0635 61.72C78.1568 62.0533 78.1901 62.3967 78.1635 62.75H74.3435C74.3568 63.1633 74.4468 63.49 74.6135 63.73C74.7868 63.97 74.9901 64.14 75.2235 64.24C75.4568 64.3333 75.6735 64.38 75.8735 64.38C76.1535 64.38 76.3868 64.3367 76.5735 64.25C76.7668 64.1567 76.9201 64.0367 77.0335 63.89L77.8435 64.13C77.6635 64.4167 77.4068 64.6533 77.0735 64.84C76.7401 65.0267 76.3401 65.12 75.8735 65.12ZM74.3535 62.08H77.2735C77.2735 61.8467 77.2135 61.6233 77.0935 61.41C76.9801 61.1967 76.8168 61.0233 76.6035 60.89C76.3968 60.75 76.1468 60.68 75.8535 60.68C75.6068 60.68 75.3735 60.7267 75.1535 60.82C74.9335 60.9133 74.7501 61.0633 74.6035 61.27C74.4635 61.4767 74.3801 61.7467 74.3535 62.08ZM80.8441 65.12C80.5574 65.12 80.2741 65.0767 79.9941 64.99C79.7208 64.8967 79.4741 64.76 79.2541 64.58C79.0408 64.3933 78.8774 64.16 78.7641 63.88L79.5741 63.58C79.6474 63.8733 79.8074 64.0867 80.0541 64.22C80.3074 64.3467 80.5708 64.41 80.8441 64.41C81.0441 64.41 81.2308 64.38 81.4041 64.32C81.5841 64.26 81.7308 64.1733 81.8441 64.06C81.9574 63.9467 82.0141 63.8167 82.0141 63.67C82.0141 63.3967 81.9041 63.2033 81.6841 63.09C81.4708 62.9767 81.2141 62.89 80.9141 62.83L80.2241 62.69C79.9841 62.6367 79.7608 62.5633 79.5541 62.47C79.3474 62.37 79.1808 62.23 79.0541 62.05C78.9274 61.87 78.8641 61.63 78.8641 61.33C78.8641 61.03 78.9574 60.78 79.1441 60.58C79.3308 60.3733 79.5674 60.2167 79.8541 60.11C80.1474 60.0033 80.4541 59.95 80.7741 59.95C81.1674 59.95 81.5374 60.0333 81.8841 60.2C82.2374 60.36 82.4874 60.6133 82.6341 60.96L81.8441 61.25C81.7574 61.05 81.6041 60.9033 81.3841 60.81C81.1708 60.71 80.9474 60.66 80.7141 60.66C80.4608 60.66 80.2308 60.7167 80.0241 60.83C79.8174 60.9433 79.7141 61.1067 79.7141 61.32C79.7141 61.5333 79.8008 61.69 79.9741 61.79C80.1541 61.8833 80.3741 61.9567 80.6341 62.01L81.2841 62.14C81.5508 62.1933 81.8041 62.27 82.0441 62.37C82.2841 62.47 82.4808 62.62 82.6341 62.82C82.7874 63.0133 82.8641 63.2867 82.8641 63.64C82.8641 63.9533 82.7674 64.22 82.5741 64.44C82.3808 64.66 82.1308 64.83 81.8241 64.95C81.5174 65.0633 81.1908 65.12 80.8441 65.12ZM10.3614 77C10.048 77 9.8047 76.97 9.63137 76.91C9.4647 76.8433 9.34803 76.72 9.28137 76.54C9.22137 76.36 9.19137 76.1 9.19137 75.76V72.71H8.35137V72.04H9.19137V70.79H10.0314V72.04H10.9914V72.71H10.0314V75.62C10.0314 75.8733 10.0547 76.0433 10.1014 76.13C10.1547 76.2167 10.3014 76.26 10.5414 76.26H10.9914V77H10.3614ZM14.1536 77.12C13.8669 77.12 13.5836 77.07 13.3036 76.97C13.0236 76.87 12.7669 76.7167 12.5336 76.51C12.3069 76.2967 12.1236 76.0267 11.9836 75.7C11.8436 75.3733 11.7736 74.9867 11.7736 74.54C11.7736 74.0933 11.8436 73.7067 11.9836 73.38C12.1236 73.0533 12.3069 72.7867 12.5336 72.58C12.7669 72.3667 13.0236 72.21 13.3036 72.11C13.5836 72.01 13.8669 71.96 14.1536 71.96C14.4402 71.96 14.7236 72.01 15.0036 72.11C15.2902 72.21 15.5469 72.3667 15.7736 72.58C16.0069 72.7867 16.1902 73.0533 16.3236 73.38C16.4636 73.7067 16.5336 74.0933 16.5336 74.54C16.5336 74.9867 16.4636 75.3733 16.3236 75.7C16.1902 76.0267 16.0069 76.2967 15.7736 76.51C15.5469 76.7167 15.2902 76.87 15.0036 76.97C14.7236 77.07 14.4402 77.12 14.1536 77.12ZM14.1536 76.38C14.3936 76.38 14.6269 76.3167 14.8536 76.19C15.0802 76.0567 15.2669 75.8567 15.4136 75.59C15.5602 75.3167 15.6336 74.9667 15.6336 74.54C15.6336 74.1133 15.5602 73.7667 15.4136 73.5C15.2669 73.2267 15.0802 73.0267 14.8536 72.9C14.6269 72.7667 14.3936 72.7 14.1536 72.7C13.9202 72.7 13.6869 72.7667 13.4536 72.9C13.2269 73.0267 13.0402 73.2267 12.8936 73.5C12.7469 73.7667 12.6736 74.1133 12.6736 74.54C12.6736 74.9667 12.7469 75.3167 12.8936 75.59C13.0402 75.8567 13.2269 76.0567 13.4536 76.19C13.6869 76.3167 13.9202 76.38 14.1536 76.38ZM22.5239 77.12C22.0039 77.12 21.5639 77.0067 21.2039 76.78C20.8439 76.5467 20.5672 76.2367 20.3739 75.85C20.1872 75.4567 20.0939 75.0167 20.0939 74.53C20.0939 74.0033 20.2005 73.55 20.4139 73.17C20.6272 72.7833 20.9139 72.4867 21.2739 72.28C21.6405 72.0667 22.0505 71.96 22.5039 71.96C22.8972 71.96 23.2439 72.04 23.5439 72.2C23.8439 72.3533 24.0905 72.5633 24.2839 72.83C24.4839 73.09 24.6272 73.3867 24.7139 73.72C24.8072 74.0533 24.8405 74.3967 24.8139 74.75H20.9939C21.0072 75.1633 21.0972 75.49 21.2639 75.73C21.4372 75.97 21.6405 76.14 21.8739 76.24C22.1072 76.3333 22.3239 76.38 22.5239 76.38C22.8039 76.38 23.0372 76.3367 23.2239 76.25C23.4172 76.1567 23.5705 76.0367 23.6839 75.89L24.4939 76.13C24.3139 76.4167 24.0572 76.6533 23.7239 76.84C23.3905 77.0267 22.9905 77.12 22.5239 77.12ZM21.0039 74.08H23.9239C23.9239 73.8467 23.8639 73.6233 23.7439 73.41C23.6305 73.1967 23.4672 73.0233 23.2539 72.89C23.0472 72.75 22.7972 72.68 22.5039 72.68C22.2572 72.68 22.0239 72.7267 21.8039 72.82C21.5839 72.9133 21.4005 73.0633 21.2539 73.27C21.1139 73.4767 21.0305 73.7467 21.0039 74.08ZM25.1045 77L26.9145 74.45L25.1945 72.04H26.1845L27.4045 73.76L28.6345 72.04H29.6245L27.9045 74.45L29.7145 77H28.7245L27.4045 75.15L26.0945 77H25.1045ZM30.4139 78.61V72.04H31.0239L31.2539 72.82C31.4072 72.56 31.6172 72.3533 31.8839 72.2C32.1505 72.04 32.4772 71.96 32.8639 71.96C33.2439 71.96 33.5939 72.0633 33.9139 72.27C34.2405 72.47 34.5005 72.7633 34.6939 73.15C34.8939 73.53 34.9939 73.9933 34.9939 74.54C34.9939 75.08 34.8939 75.5433 34.6939 75.93C34.5005 76.3167 34.2405 76.6133 33.9139 76.82C33.5939 77.02 33.2439 77.12 32.8639 77.12C32.4772 77.12 32.1505 77.0433 31.8839 76.89C31.6172 76.73 31.4072 76.5167 31.2539 76.25V78.61H30.4139ZM32.6439 76.4C33.0705 76.4 33.4105 76.2367 33.6639 75.91C33.9239 75.5833 34.0539 75.1267 34.0539 74.54C34.0539 73.9467 33.9239 73.49 33.6639 73.17C33.4105 72.8433 33.0705 72.68 32.6439 72.68C32.2172 72.68 31.8739 72.8433 31.6139 73.17C31.3605 73.49 31.2339 73.9467 31.2339 74.54C31.2339 75.1267 31.3605 75.5833 31.6139 75.91C31.8739 76.2367 32.2172 76.4 32.6439 76.4ZM37.2479 77C36.9346 77 36.6913 76.97 36.5179 76.91C36.3513 76.8433 36.2346 76.72 36.1679 76.54C36.1079 76.36 36.0779 76.1 36.0779 75.76V70.33H36.9179V75.62C36.9179 75.8733 36.9446 76.0433 36.9979 76.13C37.0513 76.2167 37.1946 76.26 37.4279 76.26H37.6179V77H37.2479ZM40.5305 77.12C40.2438 77.12 39.9605 77.07 39.6805 76.97C39.4005 76.87 39.1438 76.7167 38.9105 76.51C38.6838 76.2967 38.5005 76.0267 38.3605 75.7C38.2205 75.3733 38.1505 74.9867 38.1505 74.54C38.1505 74.0933 38.2205 73.7067 38.3605 73.38C38.5005 73.0533 38.6838 72.7867 38.9105 72.58C39.1438 72.3667 39.4005 72.21 39.6805 72.11C39.9605 72.01 40.2438 71.96 40.5305 71.96C40.8172 71.96 41.1005 72.01 41.3805 72.11C41.6672 72.21 41.9238 72.3667 42.1505 72.58C42.3838 72.7867 42.5672 73.0533 42.7005 73.38C42.8405 73.7067 42.9105 74.0933 42.9105 74.54C42.9105 74.9867 42.8405 75.3733 42.7005 75.7C42.5672 76.0267 42.3838 76.2967 42.1505 76.51C41.9238 76.7167 41.6672 76.87 41.3805 76.97C41.1005 77.07 40.8172 77.12 40.5305 77.12ZM40.5305 76.38C40.7705 76.38 41.0038 76.3167 41.2305 76.19C41.4572 76.0567 41.6438 75.8567 41.7905 75.59C41.9372 75.3167 42.0105 74.9667 42.0105 74.54C42.0105 74.1133 41.9372 73.7667 41.7905 73.5C41.6438 73.2267 41.4572 73.0267 41.2305 72.9C41.0038 72.7667 40.7705 72.7 40.5305 72.7C40.2972 72.7 40.0638 72.7667 39.8305 72.9C39.6038 73.0267 39.4172 73.2267 39.2705 73.5C39.1238 73.7667 39.0505 74.1133 39.0505 74.54C39.0505 74.9667 39.1238 75.3167 39.2705 75.59C39.4172 75.8567 39.6038 76.0567 39.8305 76.19C40.0638 76.3167 40.2972 76.38 40.5305 76.38ZM43.9881 77V72.04H44.5981L44.8681 72.96C45.0414 72.66 45.2748 72.42 45.5681 72.24C45.8681 72.0533 46.2248 71.96 46.6381 71.96V72.83C46.5914 72.83 46.5414 72.83 46.4881 72.83C46.4414 72.83 46.3948 72.8333 46.3481 72.84C45.7814 72.8867 45.3848 73.0833 45.1581 73.43C44.9381 73.7767 44.8281 74.2567 44.8281 74.87V77H43.9881ZM49.4965 77.12C48.9765 77.12 48.5365 77.0067 48.1765 76.78C47.8165 76.5467 47.5399 76.2367 47.3465 75.85C47.1599 75.4567 47.0665 75.0167 47.0665 74.53C47.0665 74.0033 47.1732 73.55 47.3865 73.17C47.5999 72.7833 47.8865 72.4867 48.2465 72.28C48.6132 72.0667 49.0232 71.96 49.4765 71.96C49.8699 71.96 50.2165 72.04 50.5165 72.2C50.8165 72.3533 51.0632 72.5633 51.2565 72.83C51.4565 73.09 51.5999 73.3867 51.6865 73.72C51.7799 74.0533 51.8132 74.3967 51.7865 74.75H47.9665C47.9799 75.1633 48.0699 75.49 48.2365 75.73C48.4099 75.97 48.6132 76.14 48.8465 76.24C49.0799 76.3333 49.2965 76.38 49.4965 76.38C49.7765 76.38 50.0099 76.3367 50.1965 76.25C50.3899 76.1567 50.5432 76.0367 50.6565 75.89L51.4665 76.13C51.2865 76.4167 51.0299 76.6533 50.6965 76.84C50.3632 77.0267 49.9632 77.12 49.4965 77.12ZM47.9765 74.08H50.8965C50.8965 73.8467 50.8365 73.6233 50.7165 73.41C50.6032 73.1967 50.4399 73.0233 50.2265 72.89C50.0199 72.75 49.7699 72.68 49.4765 72.68C49.2299 72.68 48.9965 72.7267 48.7765 72.82C48.5565 72.9133 48.3732 73.0633 48.2265 73.27C48.0865 73.4767 48.0032 73.7467 47.9765 74.08ZM57.0899 77C56.7765 77 56.5332 76.97 56.3599 76.91C56.1932 76.8433 56.0765 76.72 56.0099 76.54C55.9499 76.36 55.9199 76.1 55.9199 75.76V72.71H55.0799V72.04H55.9199V70.79H56.7599V72.04H57.7199V72.71H56.7599V75.62C56.7599 75.8733 56.7832 76.0433 56.8299 76.13C56.8832 76.2167 57.0299 76.26 57.2699 76.26H57.7199V77H57.0899ZM58.8221 77V70.32H59.6621V72.79C59.8021 72.5567 59.9987 72.36 60.2521 72.2C60.5054 72.04 60.8421 71.96 61.2621 71.96C61.8621 71.96 62.2854 72.1367 62.5321 72.49C62.7787 72.8367 62.9021 73.2933 62.9021 73.86V77H62.0621V74.11C62.0621 73.8567 62.0387 73.6233 61.9921 73.41C61.9454 73.19 61.8421 73.0133 61.6821 72.88C61.5287 72.7467 61.2921 72.68 60.9721 72.68C60.5654 72.68 60.2454 72.82 60.0121 73.1C59.7787 73.3733 59.6621 73.7767 59.6621 74.31V77H58.8221ZM66.2836 77.12C65.7636 77.12 65.3236 77.0067 64.9636 76.78C64.6036 76.5467 64.327 76.2367 64.1336 75.85C63.947 75.4567 63.8536 75.0167 63.8536 74.53C63.8536 74.0033 63.9603 73.55 64.1736 73.17C64.387 72.7833 64.6736 72.4867 65.0336 72.28C65.4003 72.0667 65.8103 71.96 66.2636 71.96C66.657 71.96 67.0036 72.04 67.3036 72.2C67.6036 72.3533 67.8503 72.5633 68.0436 72.83C68.2436 73.09 68.387 73.3867 68.4736 73.72C68.567 74.0533 68.6003 74.3967 68.5736 74.75H64.7536C64.767 75.1633 64.857 75.49 65.0236 75.73C65.197 75.97 65.4003 76.14 65.6336 76.24C65.867 76.3333 66.0836 76.38 66.2836 76.38C66.5636 76.38 66.797 76.3367 66.9836 76.25C67.177 76.1567 67.3303 76.0367 67.4436 75.89L68.2536 76.13C68.0736 76.4167 67.817 76.6533 67.4836 76.84C67.1503 77.0267 66.7503 77.12 66.2836 77.12ZM64.7636 74.08H67.6836C67.6836 73.8467 67.6236 73.6233 67.5036 73.41C67.3903 73.1967 67.227 73.0233 67.0136 72.89C66.807 72.75 66.557 72.68 66.2636 72.68C66.017 72.68 65.7836 72.7267 65.5636 72.82C65.3436 72.9133 65.1603 73.0633 65.0136 73.27C64.8736 73.4767 64.7903 73.7467 64.7636 74.08ZM70.4243 71.1C70.2576 71.1 70.1109 71.04 69.9843 70.92C69.8643 70.7933 69.8043 70.6433 69.8043 70.47C69.8043 70.2967 69.8643 70.15 69.9843 70.03C70.1109 69.91 70.2576 69.85 70.4243 69.85C70.5976 69.85 70.7443 69.91 70.8643 70.03C70.9909 70.15 71.0543 70.2967 71.0543 70.47C71.0543 70.6433 70.9909 70.7933 70.8643 70.92C70.7443 71.04 70.5976 71.1 70.4243 71.1ZM70.0043 77V72.71H69.3143V72.04H70.8443V77H70.0043ZM72.3475 77V72.04H72.9575L73.2275 72.96C73.4008 72.66 73.6341 72.42 73.9275 72.24C74.2275 72.0533 74.5841 71.96 74.9975 71.96V72.83C74.9508 72.83 74.9008 72.83 74.8475 72.83C74.8008 72.83 74.7541 72.8333 74.7075 72.84C74.1408 72.8867 73.7441 73.0833 73.5175 73.43C73.2975 73.7767 73.1875 74.2567 73.1875 74.87V77H72.3475ZM11.8646 89.12C11.5779 89.12 11.2946 89.0767 11.0146 88.99C10.7413 88.8967 10.4946 88.76 10.2746 88.58C10.0613 88.3933 9.89794 88.16 9.78461 87.88L10.5946 87.58C10.6679 87.8733 10.8279 88.0867 11.0746 88.22C11.3279 88.3467 11.5913 88.41 11.8646 88.41C12.0646 88.41 12.2513 88.38 12.4246 88.32C12.6046 88.26 12.7513 88.1733 12.8646 88.06C12.9779 87.9467 13.0346 87.8167 13.0346 87.67C13.0346 87.3967 12.9246 87.2033 12.7046 87.09C12.4913 86.9767 12.2346 86.89 11.9346 86.83L11.2446 86.69C11.0046 86.6367 10.7813 86.5633 10.5746 86.47C10.3679 86.37 10.2013 86.23 10.0746 86.05C9.94794 85.87 9.88461 85.63 9.88461 85.33C9.88461 85.03 9.97794 84.78 10.1646 84.58C10.3513 84.3733 10.5879 84.2167 10.8746 84.11C11.1679 84.0033 11.4746 83.95 11.7946 83.95C12.1879 83.95 12.5579 84.0333 12.9046 84.2C13.2579 84.36 13.5079 84.6133 13.6546 84.96L12.8646 85.25C12.7779 85.05 12.6246 84.9033 12.4046 84.81C12.1913 84.71 11.9679 84.66 11.7346 84.66C11.4813 84.66 11.2513 84.7167 11.0446 84.83C10.8379 84.9433 10.7346 85.1067 10.7346 85.32C10.7346 85.5333 10.8213 85.69 10.9946 85.79C11.1746 85.8833 11.3946 85.9567 11.6546 86.01L12.3046 86.14C12.5713 86.1933 12.8246 86.27 13.0646 86.37C13.3046 86.47 13.5013 86.62 13.6546 86.82C13.8079 87.0133 13.8846 87.2867 13.8846 87.64C13.8846 87.9533 13.7879 88.22 13.5946 88.44C13.4013 88.66 13.1513 88.83 12.8446 88.95C12.5379 89.0633 12.2113 89.12 11.8646 89.12ZM14.8816 89V82.32H15.7216V84.79C15.8616 84.5567 16.0583 84.36 16.3116 84.2C16.565 84.04 16.9016 83.96 17.3216 83.96C17.9216 83.96 18.345 84.1367 18.5916 84.49C18.8383 84.8367 18.9616 85.2933 18.9616 85.86V89H18.1216V86.11C18.1216 85.8567 18.0983 85.6233 18.0516 85.41C18.005 85.19 17.9016 85.0133 17.7416 84.88C17.5883 84.7467 17.3516 84.68 17.0316 84.68C16.625 84.68 16.305 84.82 16.0716 85.1C15.8383 85.3733 15.7216 85.7767 15.7216 86.31V89H14.8816ZM21.7306 89.12C21.4173 89.12 21.1306 89.0633 20.8706 88.95C20.6106 88.8367 20.404 88.6733 20.2506 88.46C20.0973 88.2467 20.0206 87.99 20.0206 87.69C20.0206 87.2967 20.1573 86.9867 20.4306 86.76C20.7106 86.5333 21.1006 86.36 21.6006 86.24C22.1073 86.1133 22.6973 86.0133 23.3706 85.94C23.384 85.52 23.3006 85.1967 23.1206 84.97C22.9406 84.7433 22.6506 84.63 22.2506 84.63C21.9506 84.63 21.704 84.7 21.5106 84.84C21.324 84.9733 21.204 85.16 21.1506 85.4L20.3406 85.16C20.474 84.78 20.7106 84.4867 21.0506 84.28C21.3973 84.0667 21.794 83.96 22.2406 83.96C22.9273 83.96 23.4273 84.1233 23.7406 84.45C24.0606 84.77 24.2206 85.2767 24.2206 85.97V87.13C24.2206 87.5433 24.2373 87.9 24.2706 88.2C24.304 88.5 24.344 88.7667 24.3906 89H23.6206L23.4206 88.32C23.274 88.5667 23.064 88.7633 22.7906 88.91C22.5173 89.05 22.164 89.12 21.7306 89.12ZM21.9106 88.45C22.1706 88.45 22.4173 88.4033 22.6506 88.31C22.884 88.2167 23.074 88.06 23.2206 87.84C23.3673 87.6133 23.4406 87.3067 23.4406 86.92V86.61C22.934 86.6633 22.494 86.73 22.1206 86.81C21.7473 86.8833 21.4573 86.99 21.2506 87.13C21.0506 87.2633 20.9506 87.4433 20.9506 87.67C20.9506 87.9033 21.034 88.0933 21.2006 88.24C21.374 88.38 21.6106 88.45 21.9106 88.45ZM25.6043 89V84.04H26.2143L26.4843 84.96C26.6576 84.66 26.891 84.42 27.1843 84.24C27.4843 84.0533 27.841 83.96 28.2543 83.96V84.83C28.2076 84.83 28.1576 84.83 28.1043 84.83C28.0576 84.83 28.011 84.8333 27.9643 84.84C27.3976 84.8867 27.001 85.0833 26.7743 85.43C26.5543 85.7767 26.4443 86.2567 26.4443 86.87V89H25.6043ZM31.1127 89.12C30.5927 89.12 30.1527 89.0067 29.7927 88.78C29.4327 88.5467 29.1561 88.2367 28.9627 87.85C28.7761 87.4567 28.6827 87.0167 28.6827 86.53C28.6827 86.0033 28.7894 85.55 29.0027 85.17C29.2161 84.7833 29.5027 84.4867 29.8627 84.28C30.2294 84.0667 30.6394 83.96 31.0927 83.96C31.4861 83.96 31.8327 84.04 32.1327 84.2C32.4327 84.3533 32.6794 84.5633 32.8727 84.83C33.0727 85.09 33.2161 85.3867 33.3027 85.72C33.3961 86.0533 33.4294 86.3967 33.4027 86.75H29.5827C29.5961 87.1633 29.6861 87.49 29.8527 87.73C30.0261 87.97 30.2294 88.14 30.4627 88.24C30.6961 88.3333 30.9127 88.38 31.1127 88.38C31.3927 88.38 31.6261 88.3367 31.8127 88.25C32.0061 88.1567 32.1594 88.0367 32.2727 87.89L33.0827 88.13C32.9027 88.4167 32.6461 88.6533 32.3127 88.84C31.9794 89.0267 31.5794 89.12 31.1127 89.12ZM29.5927 86.08H32.5127C32.5127 85.8467 32.4527 85.6233 32.3327 85.41C32.2194 85.1967 32.0561 85.0233 31.8427 84.89C31.6361 84.75 31.3861 84.68 31.0927 84.68C30.8461 84.68 30.6127 84.7267 30.3927 84.82C30.1727 84.9133 29.9894 85.0633 29.8427 85.27C29.7027 85.4767 29.6194 85.7467 29.5927 86.08ZM36.2034 89.12C35.83 89.12 35.48 89.02 35.1534 88.82C34.8267 88.6133 34.5634 88.32 34.3634 87.94C34.17 87.5533 34.0734 87.0867 34.0734 86.54C34.0734 85.9933 34.17 85.53 34.3634 85.15C34.5634 84.7633 34.8267 84.47 35.1534 84.27C35.48 84.0633 35.83 83.96 36.2034 83.96C36.5967 83.96 36.9267 84.04 37.1934 84.2C37.46 84.3533 37.6667 84.56 37.8134 84.82V82.32H38.6534V87.13C38.6534 87.2967 38.66 87.5433 38.6734 87.87C38.6867 88.19 38.7367 88.5667 38.8234 89H38.0334L37.8134 88.25C37.6667 88.5167 37.46 88.73 37.1934 88.89C36.9267 89.0433 36.5967 89.12 36.2034 89.12ZM36.4234 88.4C36.85 88.4 37.19 88.2367 37.4434 87.91C37.7034 87.5833 37.8334 87.1267 37.8334 86.54C37.8334 85.9467 37.7034 85.49 37.4434 85.17C37.19 84.8433 36.85 84.68 36.4234 84.68C35.9967 84.68 35.6534 84.8433 35.3934 85.17C35.14 85.49 35.0134 85.9467 35.0134 86.54C35.0134 87.1267 35.14 87.5833 35.3934 87.91C35.6534 88.2367 35.9967 88.4 36.4234 88.4ZM44.2306 89.12C43.9173 89.12 43.6306 89.0633 43.3706 88.95C43.1106 88.8367 42.904 88.6733 42.7506 88.46C42.5973 88.2467 42.5206 87.99 42.5206 87.69C42.5206 87.2967 42.6573 86.9867 42.9306 86.76C43.2106 86.5333 43.6006 86.36 44.1006 86.24C44.6073 86.1133 45.1973 86.0133 45.8706 85.94C45.884 85.52 45.8006 85.1967 45.6206 84.97C45.4406 84.7433 45.1506 84.63 44.7506 84.63C44.4506 84.63 44.204 84.7 44.0106 84.84C43.824 84.9733 43.704 85.16 43.6506 85.4L42.8406 85.16C42.974 84.78 43.2106 84.4867 43.5506 84.28C43.8973 84.0667 44.294 83.96 44.7406 83.96C45.4273 83.96 45.9273 84.1233 46.2406 84.45C46.5606 84.77 46.7206 85.2767 46.7206 85.97V87.13C46.7206 87.5433 46.7373 87.9 46.7706 88.2C46.804 88.5 46.844 88.7667 46.8906 89H46.1206L45.9206 88.32C45.774 88.5667 45.564 88.7633 45.2906 88.91C45.0173 89.05 44.664 89.12 44.2306 89.12ZM44.4106 88.45C44.6706 88.45 44.9173 88.4033 45.1506 88.31C45.384 88.2167 45.574 88.06 45.7206 87.84C45.8673 87.6133 45.9406 87.3067 45.9406 86.92V86.61C45.434 86.6633 44.994 86.73 44.6206 86.81C44.2473 86.8833 43.9573 86.99 43.7506 87.13C43.5506 87.2633 43.4506 87.4433 43.4506 87.67C43.4506 87.9033 43.534 88.0933 43.7006 88.24C43.874 88.38 44.1106 88.45 44.4106 88.45ZM48.1043 89V84.04H48.7143L48.9843 84.96C49.1576 84.66 49.391 84.42 49.6843 84.24C49.9843 84.0533 50.341 83.96 50.7543 83.96V84.83C50.7076 84.83 50.6576 84.83 50.6043 84.83C50.5576 84.83 50.511 84.8333 50.4643 84.84C49.8976 84.8867 49.501 85.0833 49.2743 85.43C49.0543 85.7767 48.9443 86.2567 48.9443 86.87V89H48.1043ZM53.169 89C52.8557 89 52.6123 88.97 52.439 88.91C52.2723 88.8433 52.1557 88.72 52.089 88.54C52.029 88.36 51.999 88.1 51.999 87.76V84.71H51.159V84.04H51.999V82.79H52.839V84.04H53.799V84.71H52.839V87.62C52.839 87.8733 52.8623 88.0433 52.909 88.13C52.9623 88.2167 53.109 88.26 53.349 88.26H53.799V89H53.169ZM55.7612 83.1C55.5945 83.1 55.4478 83.04 55.3212 82.92C55.2012 82.7933 55.1412 82.6433 55.1412 82.47C55.1412 82.2967 55.2012 82.15 55.3212 82.03C55.4478 81.91 55.5945 81.85 55.7612 81.85C55.9345 81.85 56.0812 81.91 56.2012 82.03C56.3278 82.15 56.3912 82.2967 56.3912 82.47C56.3912 82.6433 56.3278 82.7933 56.2012 82.92C56.0812 83.04 55.9345 83.1 55.7612 83.1ZM55.3412 89V84.71H54.6512V84.04H56.1812V89H55.3412ZM59.6744 89.12C59.201 89.12 58.791 89.01 58.4444 88.79C58.0977 88.5633 57.831 88.2567 57.6444 87.87C57.4577 87.4833 57.3644 87.04 57.3644 86.54C57.3644 86.0467 57.461 85.6067 57.6544 85.22C57.8544 84.8267 58.1344 84.52 58.4944 84.3C58.8544 84.0733 59.2777 83.96 59.7644 83.96C60.211 83.96 60.5944 84.07 60.9144 84.29C61.2344 84.51 61.4744 84.7733 61.6344 85.08L60.8644 85.36C60.7577 85.16 60.601 85 60.3944 84.88C60.1877 84.76 59.9577 84.7 59.7044 84.7C59.4577 84.7 59.2244 84.7667 59.0044 84.9C58.7844 85.0267 58.6077 85.2267 58.4744 85.5C58.341 85.7667 58.2744 86.11 58.2744 86.53C58.2744 86.9433 58.341 87.29 58.4744 87.57C58.6144 87.8433 58.791 88.0467 59.0044 88.18C59.2244 88.3133 59.4577 88.38 59.7044 88.38C59.9777 88.38 60.2144 88.32 60.4144 88.2C60.621 88.0733 60.7777 87.9167 60.8844 87.73L61.6544 88.01C61.4677 88.33 61.201 88.5967 60.8544 88.81C60.5077 89.0167 60.1144 89.12 59.6744 89.12ZM63.8544 89C63.541 89 63.2977 88.97 63.1244 88.91C62.9577 88.8433 62.841 88.72 62.7744 88.54C62.7144 88.36 62.6844 88.1 62.6844 87.76V82.33H63.5244V87.62C63.5244 87.8733 63.551 88.0433 63.6044 88.13C63.6577 88.2167 63.801 88.26 64.0344 88.26H64.2244V89H63.8544ZM67.187 89.12C66.667 89.12 66.227 89.0067 65.867 88.78C65.507 88.5467 65.2303 88.2367 65.037 87.85C64.8503 87.4567 64.757 87.0167 64.757 86.53C64.757 86.0033 64.8636 85.55 65.077 85.17C65.2903 84.7833 65.577 84.4867 65.937 84.28C66.3036 84.0667 66.7136 83.96 67.167 83.96C67.5603 83.96 67.907 84.04 68.207 84.2C68.507 84.3533 68.7536 84.5633 68.947 84.83C69.147 85.09 69.2903 85.3867 69.377 85.72C69.4703 86.0533 69.5036 86.3967 69.477 86.75H65.657C65.6703 87.1633 65.7603 87.49 65.927 87.73C66.1003 87.97 66.3036 88.14 66.537 88.24C66.7703 88.3333 66.987 88.38 67.187 88.38C67.467 88.38 67.7003 88.3367 67.887 88.25C68.0803 88.1567 68.2336 88.0367 68.347 87.89L69.157 88.13C68.977 88.4167 68.7203 88.6533 68.387 88.84C68.0536 89.0267 67.6536 89.12 67.187 89.12ZM65.667 86.08H68.587C68.587 85.8467 68.527 85.6233 68.407 85.41C68.2936 85.1967 68.1303 85.0233 67.917 84.89C67.7103 84.75 67.4603 84.68 67.167 84.68C66.9203 84.68 66.687 84.7267 66.467 84.82C66.247 84.9133 66.0636 85.0633 65.917 85.27C65.777 85.4767 65.6936 85.7467 65.667 86.08ZM72.1576 89.12C71.8709 89.12 71.5876 89.0767 71.3076 88.99C71.0342 88.8967 70.7876 88.76 70.5676 88.58C70.3542 88.3933 70.1909 88.16 70.0776 87.88L70.8876 87.58C70.9609 87.8733 71.1209 88.0867 71.3676 88.22C71.6209 88.3467 71.8842 88.41 72.1576 88.41C72.3576 88.41 72.5442 88.38 72.7176 88.32C72.8976 88.26 73.0442 88.1733 73.1576 88.06C73.2709 87.9467 73.3276 87.8167 73.3276 87.67C73.3276 87.3967 73.2176 87.2033 72.9976 87.09C72.7842 86.9767 72.5276 86.89 72.2276 86.83L71.5376 86.69C71.2976 86.6367 71.0742 86.5633 70.8676 86.47C70.6609 86.37 70.4942 86.23 70.3676 86.05C70.2409 85.87 70.1776 85.63 70.1776 85.33C70.1776 85.03 70.2709 84.78 70.4576 84.58C70.6442 84.3733 70.8809 84.2167 71.1676 84.11C71.4609 84.0033 71.7676 83.95 72.0876 83.95C72.4809 83.95 72.8509 84.0333 73.1976 84.2C73.5509 84.36 73.8009 84.6133 73.9476 84.96L73.1576 85.25C73.0709 85.05 72.9176 84.9033 72.6976 84.81C72.4842 84.71 72.2609 84.66 72.0276 84.66C71.7742 84.66 71.5442 84.7167 71.3376 84.83C71.1309 84.9433 71.0276 85.1067 71.0276 85.32C71.0276 85.5333 71.1142 85.69 71.2876 85.79C71.4676 85.8833 71.6876 85.9567 71.9476 86.01L72.5976 86.14C72.8642 86.1933 73.1176 86.27 73.3576 86.37C73.5976 86.47 73.7942 86.62 73.9476 86.82C74.1009 87.0133 74.1776 87.2867 74.1776 87.64C74.1776 87.9533 74.0809 88.22 73.8876 88.44C73.6942 88.66 73.4442 88.83 73.1376 88.95C72.8309 89.0633 72.5042 89.12 72.1576 89.12ZM75.4946 89.12C75.3213 89.12 75.1713 89.0567 75.0446 88.93C74.9179 88.8033 74.8546 88.6533 74.8546 88.48C74.8546 88.3 74.9179 88.1467 75.0446 88.02C75.1713 87.8933 75.3213 87.83 75.4946 87.83C75.6746 87.83 75.8279 87.8933 75.9546 88.02C76.0813 88.1467 76.1446 88.3 76.1446 88.48C76.1446 88.6533 76.0813 88.8033 75.9546 88.93C75.8279 89.0567 75.6746 89.12 75.4946 89.12Z" fill="black"/>
<path d="M61 42L41 15" stroke="black" stroke-width="5"/>
<path d="M61 42L8 42" stroke="black" stroke-width="2"/>
<path d="M41 15L14 10" stroke="black"/>
<circle cx="17" cy="42" r="9.5" fill="#FCF4E9" stroke="black"/>
<circle cx="22" cy="10" r="9.5" fill="#FCF4E9" stroke="black"/>
<circle cx="63" cy="42" r="9.5" fill="#FFBC36" stroke="black"/>
<circle cx="63" cy="42" r="2" fill="black"/>
<circle cx="63" cy="42" r="5" stroke="black" stroke-linecap="round" stroke-linejoin="round" stroke-dasharray="1 2"/>
<circle cx="43" cy="16" r="9.5" fill="#FFBC36" stroke="black"/>
<circle cx="43" cy="16" r="2" fill="black"/>
<circle cx="43" cy="16" r="5" stroke="black" stroke-linecap="round" stroke-linejoin="round" stroke-dasharray="1 2"/>
</svg>
