<svg width="136" height="161" viewBox="0 0 136 161" fill="none" xmlns="http://www.w3.org/2000/svg">
<circle cx="68" cy="47" r="46.5" fill="white" stroke="black"/>
<path d="M55.9421 41.8182V52H54.7092V43.1108H54.6495L52.1637 44.7614V43.5085L54.7092 41.8182H55.9421ZM62.1914 52.1392C61.4424 52.1392 60.8043 51.9354 60.2773 51.5277C59.7504 51.1167 59.3477 50.5218 59.0692 49.7429C58.7908 48.9607 58.6516 48.0161 58.6516 46.9091C58.6516 45.8087 58.7908 44.8691 59.0692 44.0902C59.351 43.308 59.7553 42.7114 60.2823 42.3004C60.8126 41.8861 61.449 41.679 62.1914 41.679C62.9338 41.679 63.5685 41.8861 64.0955 42.3004C64.6258 42.7114 65.0302 43.308 65.3086 44.0902C65.5903 44.8691 65.7312 45.8087 65.7312 46.9091C65.7312 48.0161 65.592 48.9607 65.3136 49.7429C65.0352 50.5218 64.6325 51.1167 64.1055 51.5277C63.5785 51.9354 62.9405 52.1392 62.1914 52.1392ZM62.1914 51.0455C62.9338 51.0455 63.5105 50.6875 63.9215 49.9716C64.3325 49.2557 64.538 48.2348 64.538 46.9091C64.538 46.0275 64.4435 45.2768 64.2546 44.657C64.069 44.0372 63.8005 43.5649 63.4492 43.2401C63.1012 42.9152 62.6819 42.7528 62.1914 42.7528C61.4556 42.7528 60.8806 43.1158 60.4663 43.8416C60.052 44.5642 59.8448 45.5866 59.8448 46.9091C59.8448 47.7907 59.9376 48.5398 60.1232 49.1562C60.3088 49.7727 60.5756 50.2417 60.9237 50.5632C61.275 50.8847 61.6976 51.0455 62.1914 51.0455ZM70.9414 52.1392C70.1924 52.1392 69.5543 51.9354 69.0273 51.5277C68.5004 51.1167 68.0977 50.5218 67.8192 49.7429C67.5408 48.9607 67.4016 48.0161 67.4016 46.9091C67.4016 45.8087 67.5408 44.8691 67.8192 44.0902C68.101 43.308 68.5053 42.7114 69.0323 42.3004C69.5626 41.8861 70.199 41.679 70.9414 41.679C71.6838 41.679 72.3185 41.8861 72.8455 42.3004C73.3758 42.7114 73.7802 43.308 74.0586 44.0902C74.3403 44.8691 74.4812 45.8087 74.4812 46.9091C74.4812 48.0161 74.342 48.9607 74.0636 49.7429C73.7852 50.5218 73.3825 51.1167 72.8555 51.5277C72.3285 51.9354 71.6905 52.1392 70.9414 52.1392ZM70.9414 51.0455C71.6838 51.0455 72.2605 50.6875 72.6715 49.9716C73.0825 49.2557 73.288 48.2348 73.288 46.9091C73.288 46.0275 73.1935 45.2768 73.0046 44.657C72.819 44.0372 72.5505 43.5649 72.1992 43.2401C71.8512 42.9152 71.4319 42.7528 70.9414 42.7528C70.2056 42.7528 69.6306 43.1158 69.2163 43.8416C68.802 44.5642 68.5948 45.5866 68.5948 46.9091C68.5948 47.7907 68.6876 48.5398 68.8732 49.1562C69.0588 49.7727 69.3256 50.2417 69.6737 50.5632C70.025 50.8847 70.4476 51.0455 70.9414 51.0455ZM81.5607 50.0909V49.554C81.5607 49.1828 81.637 48.843 81.7894 48.5348C81.9452 48.2232 82.1706 47.9747 82.4656 47.7891C82.7638 47.6001 83.1251 47.5057 83.5494 47.5057C83.9802 47.5057 84.3415 47.6001 84.6332 47.7891C84.9248 47.9747 85.1452 48.2232 85.2944 48.5348C85.4435 48.843 85.5181 49.1828 85.5181 49.554V50.0909C85.5181 50.4621 85.4419 50.8035 85.2894 51.1151C85.1403 51.4233 84.9182 51.6719 84.6232 51.8608C84.3316 52.0464 83.9736 52.1392 83.5494 52.1392C83.1185 52.1392 82.7556 52.0464 82.4606 51.8608C82.1656 51.6719 81.9419 51.4233 81.7894 51.1151C81.637 50.8035 81.5607 50.4621 81.5607 50.0909ZM82.5749 49.554V50.0909C82.5749 50.3991 82.6478 50.6759 82.7937 50.9212C82.9395 51.1631 83.1914 51.2841 83.5494 51.2841C83.8974 51.2841 84.1426 51.1631 84.2852 50.9212C84.431 50.6759 84.5039 50.3991 84.5039 50.0909V49.554C84.5039 49.2457 84.4343 48.9706 84.2951 48.7287C84.1559 48.4834 83.9073 48.3608 83.5494 48.3608C83.2013 48.3608 82.9511 48.4834 82.7987 48.7287C82.6495 48.9706 82.5749 49.2457 82.5749 49.554ZM76.4897 44.2642V43.7273C76.4897 43.3561 76.5659 43.0163 76.7184 42.7081C76.8742 42.3965 77.0996 42.148 77.3945 41.9624C77.6928 41.7734 78.0541 41.679 78.4783 41.679C78.9092 41.679 79.2705 41.7734 79.5621 41.9624C79.8538 42.148 80.0742 42.3965 80.2234 42.7081C80.3725 43.0163 80.4471 43.3561 80.4471 43.7273V44.2642C80.4471 44.6354 80.3709 44.9768 80.2184 45.2884C80.0692 45.5966 79.8472 45.8452 79.5522 46.0341C79.2605 46.2197 78.9026 46.3125 78.4783 46.3125C78.0475 46.3125 77.6845 46.2197 77.3896 46.0341C77.0946 45.8452 76.8709 45.5966 76.7184 45.2884C76.5659 44.9768 76.4897 44.6354 76.4897 44.2642ZM77.5039 43.7273V44.2642C77.5039 44.5724 77.5768 44.8492 77.7227 45.0945C77.8685 45.3364 78.1204 45.4574 78.4783 45.4574C78.8263 45.4574 79.0716 45.3364 79.2141 45.0945C79.36 44.8492 79.4329 44.5724 79.4329 44.2642V43.7273C79.4329 43.419 79.3633 43.1439 79.2241 42.902C79.0849 42.6567 78.8363 42.5341 78.4783 42.5341C78.1303 42.5341 77.8801 42.6567 77.7276 42.902C77.5785 43.1439 77.5039 43.419 77.5039 43.7273ZM76.8675 52L83.8675 41.8182H85.0011L78.0011 52H76.8675Z" fill="black"/>
<path d="M8.31001 117.21V116.273H14.8555V117.21H12.1112V125H11.0543V117.21H8.31001ZM17.3558 121.062V125H16.3501V116.273H17.3558V119.477H17.4411C17.5945 119.139 17.8246 118.871 18.1314 118.672C18.4411 118.47 18.853 118.369 19.3672 118.369C19.8132 118.369 20.2038 118.459 20.5391 118.638C20.8743 118.814 21.1342 119.085 21.3189 119.452C21.5064 119.815 21.6001 120.278 21.6001 120.841V125H20.5945V120.909C20.5945 120.389 20.4595 119.987 20.1896 119.703C19.9226 119.416 19.5518 119.273 19.0774 119.273C18.7479 119.273 18.4524 119.342 18.1911 119.482C17.9325 119.621 17.728 119.824 17.5774 120.091C17.4297 120.358 17.3558 120.682 17.3558 121.062ZM23.44 125V118.455H24.4457V125H23.44ZM23.9513 117.364C23.7553 117.364 23.5863 117.297 23.4442 117.163C23.305 117.03 23.2354 116.869 23.2354 116.682C23.2354 116.494 23.305 116.334 23.4442 116.2C23.5863 116.067 23.7553 116 23.9513 116C24.1474 116 24.315 116.067 24.4542 116.2C24.5962 116.334 24.6673 116.494 24.6673 116.682C24.6673 116.869 24.5962 117.03 24.4542 117.163C24.315 117.297 24.1474 117.364 23.9513 117.364ZM30.924 119.92L30.0206 120.176C29.9638 120.026 29.88 119.879 29.7692 119.737C29.6612 119.592 29.5135 119.473 29.326 119.379C29.1385 119.286 28.8984 119.239 28.6058 119.239C28.2053 119.239 27.8714 119.331 27.6044 119.516C27.3402 119.697 27.2081 119.929 27.2081 120.21C27.2081 120.46 27.299 120.658 27.4808 120.803C27.6626 120.947 27.9467 121.068 28.3331 121.165L29.3047 121.403C29.8899 121.545 30.326 121.763 30.6129 122.055C30.8999 122.345 31.0433 122.719 31.0433 123.176C31.0433 123.551 30.9354 123.886 30.7195 124.182C30.5064 124.477 30.2081 124.71 29.8246 124.881C29.4411 125.051 28.995 125.136 28.4865 125.136C27.8189 125.136 27.2663 124.991 26.8288 124.702C26.3913 124.412 26.1143 123.989 25.9979 123.432L26.9524 123.193C27.0433 123.545 27.2152 123.81 27.468 123.986C27.7237 124.162 28.0575 124.25 28.4695 124.25C28.9382 124.25 29.3104 124.151 29.5859 123.952C29.8643 123.75 30.0036 123.509 30.0036 123.227C30.0036 123 29.924 122.81 29.7649 122.656C29.6058 122.5 29.3615 122.384 29.032 122.307L27.9411 122.051C27.3416 121.909 26.9013 121.689 26.62 121.391C26.3416 121.089 26.2024 120.713 26.2024 120.261C26.2024 119.892 26.3061 119.565 26.5135 119.281C26.7237 118.997 27.0092 118.774 27.37 118.612C27.7337 118.45 28.1456 118.369 28.6058 118.369C29.2536 118.369 29.7621 118.511 30.1314 118.795C30.5036 119.08 30.7678 119.455 30.924 119.92ZM35.9322 125V118.455H36.9379V125H35.9322ZM36.4435 117.364C36.2475 117.364 36.0785 117.297 35.9364 117.163C35.7972 117.03 35.7276 116.869 35.7276 116.682C35.7276 116.494 35.7972 116.334 35.9364 116.2C36.0785 116.067 36.2475 116 36.4435 116C36.6396 116 36.8072 116.067 36.9464 116.2C37.0884 116.334 37.1594 116.494 37.1594 116.682C37.1594 116.869 37.0884 117.03 36.9464 117.163C36.8072 117.297 36.6396 117.364 36.4435 117.364ZM43.4162 119.92L42.5128 120.176C42.456 120.026 42.3722 119.879 42.2614 119.737C42.1534 119.592 42.0057 119.473 41.8182 119.379C41.6307 119.286 41.3906 119.239 41.098 119.239C40.6974 119.239 40.3636 119.331 40.0966 119.516C39.8324 119.697 39.7003 119.929 39.7003 120.21C39.7003 120.46 39.7912 120.658 39.973 120.803C40.1548 120.947 40.4389 121.068 40.8253 121.165L41.7969 121.403C42.3821 121.545 42.8182 121.763 43.1051 122.055C43.392 122.345 43.5355 122.719 43.5355 123.176C43.5355 123.551 43.4276 123.886 43.2116 124.182C42.9986 124.477 42.7003 124.71 42.3168 124.881C41.9332 125.051 41.4872 125.136 40.9787 125.136C40.3111 125.136 39.7585 124.991 39.321 124.702C38.8835 124.412 38.6065 123.989 38.4901 123.432L39.4446 123.193C39.5355 123.545 39.7074 123.81 39.9602 123.986C40.2159 124.162 40.5497 124.25 40.9616 124.25C41.4304 124.25 41.8026 124.151 42.0781 123.952C42.3565 123.75 42.4957 123.509 42.4957 123.227C42.4957 123 42.4162 122.81 42.2571 122.656C42.098 122.5 41.8537 122.384 41.5241 122.307L40.4332 122.051C39.8338 121.909 39.3935 121.689 39.1122 121.391C38.8338 121.089 38.6946 120.713 38.6946 120.261C38.6946 119.892 38.7983 119.565 39.0057 119.281C39.2159 118.997 39.5014 118.774 39.8622 118.612C40.2259 118.45 40.6378 118.369 41.098 118.369C41.7457 118.369 42.2543 118.511 42.6236 118.795C42.9957 119.08 43.2599 119.455 43.4162 119.92ZM51.271 118.455V119.307H47.8789V118.455H51.271ZM48.8675 116.886H49.8732V123.125C49.8732 123.409 49.9144 123.622 49.9968 123.764C50.082 123.903 50.19 123.997 50.3207 124.045C50.4542 124.091 50.5948 124.114 50.7425 124.114C50.8533 124.114 50.9442 124.108 51.0153 124.097C51.0863 124.082 51.1431 124.071 51.1857 124.062L51.3903 124.966C51.3221 124.991 51.2269 125.017 51.1048 125.043C50.9826 125.071 50.8278 125.085 50.6403 125.085C50.3562 125.085 50.0778 125.024 49.805 124.902C49.5352 124.78 49.3107 124.594 49.1317 124.344C48.9556 124.094 48.8675 123.778 48.8675 123.398V116.886ZM53.93 121.062V125H52.9244V116.273H53.93V119.477H54.0153C54.1687 119.139 54.3988 118.871 54.7056 118.672C55.0153 118.47 55.4272 118.369 55.9414 118.369C56.3874 118.369 56.7781 118.459 57.1133 118.638C57.4485 118.814 57.7085 119.085 57.8931 119.452C58.0806 119.815 58.1744 120.278 58.1744 120.841V125H57.1687V120.909C57.1687 120.389 57.0337 119.987 56.7638 119.703C56.4968 119.416 56.1261 119.273 55.6516 119.273C55.3221 119.273 55.0266 119.342 54.7653 119.482C54.5067 119.621 54.3022 119.824 54.1516 120.091C54.0039 120.358 53.93 120.682 53.93 121.062ZM62.7585 125.136C62.1278 125.136 61.5838 124.997 61.1264 124.719C60.6719 124.438 60.321 124.045 60.0739 123.543C59.8295 123.037 59.7074 122.449 59.7074 121.778C59.7074 121.108 59.8295 120.517 60.0739 120.006C60.321 119.491 60.6648 119.091 61.1051 118.804C61.5483 118.514 62.0653 118.369 62.6562 118.369C62.9972 118.369 63.3338 118.426 63.6662 118.54C63.9986 118.653 64.3011 118.838 64.5739 119.094C64.8466 119.347 65.0639 119.682 65.2259 120.099C65.3878 120.517 65.4688 121.031 65.4688 121.642V122.068H60.4233V121.199H64.446C64.446 120.83 64.3722 120.5 64.2244 120.21C64.0795 119.92 63.8722 119.692 63.6023 119.524C63.3352 119.357 63.0199 119.273 62.6562 119.273C62.2557 119.273 61.9091 119.372 61.6165 119.571C61.3267 119.767 61.1037 120.023 60.9474 120.338C60.7912 120.653 60.7131 120.991 60.7131 121.352V121.932C60.7131 122.426 60.7983 122.845 60.9688 123.189C61.142 123.53 61.3821 123.79 61.6889 123.969C61.9957 124.145 62.3523 124.233 62.7585 124.233C63.0227 124.233 63.2614 124.196 63.4744 124.122C63.6903 124.045 63.8764 123.932 64.0327 123.781C64.1889 123.628 64.3097 123.437 64.3949 123.21L65.3665 123.483C65.2642 123.812 65.0923 124.102 64.8509 124.352C64.6094 124.599 64.3111 124.793 63.956 124.932C63.6009 125.068 63.2017 125.136 62.7585 125.136ZM73.2202 118.455V119.307H69.8281V118.455H73.2202ZM70.8168 116.886H71.8224V123.125C71.8224 123.409 71.8636 123.622 71.946 123.764C72.0313 123.903 72.1392 123.997 72.2699 124.045C72.4034 124.091 72.544 124.114 72.6918 124.114C72.8026 124.114 72.8935 124.108 72.9645 124.097C73.0355 124.082 73.0923 124.071 73.1349 124.062L73.3395 124.966C73.2713 124.991 73.1761 125.017 73.054 125.043C72.9318 125.071 72.777 125.085 72.5895 125.085C72.3054 125.085 72.027 125.024 71.7543 124.902C71.4844 124.78 71.2599 124.594 71.081 124.344C70.9048 124.094 70.8168 123.778 70.8168 123.398V116.886ZM77.3217 125.136C76.7308 125.136 76.2124 124.996 75.7663 124.714C75.3232 124.433 74.9766 124.04 74.7266 123.534C74.4794 123.028 74.3558 122.437 74.3558 121.761C74.3558 121.08 74.4794 120.484 74.7266 119.976C74.9766 119.467 75.3232 119.072 75.7663 118.791C76.2124 118.51 76.7308 118.369 77.3217 118.369C77.9126 118.369 78.4297 118.51 78.8729 118.791C79.3189 119.072 79.6655 119.467 79.9126 119.976C80.1626 120.484 80.2876 121.08 80.2876 121.761C80.2876 122.437 80.1626 123.028 79.9126 123.534C79.6655 124.04 79.3189 124.433 78.8729 124.714C78.4297 124.996 77.9126 125.136 77.3217 125.136ZM77.3217 124.233C77.7706 124.233 78.1399 124.118 78.4297 123.888C78.7195 123.658 78.9339 123.355 79.0732 122.98C79.2124 122.605 79.282 122.199 79.282 121.761C79.282 121.324 79.2124 120.916 79.0732 120.538C78.9339 120.161 78.7195 119.855 78.4297 119.622C78.1399 119.389 77.7706 119.273 77.3217 119.273C76.8729 119.273 76.5036 119.389 76.2138 119.622C75.924 119.855 75.7095 120.161 75.5703 120.538C75.4311 120.916 75.3615 121.324 75.3615 121.761C75.3615 122.199 75.4311 122.605 75.5703 122.98C75.7095 123.355 75.924 123.658 76.2138 123.888C76.5036 124.118 76.8729 124.233 77.3217 124.233ZM84.6694 118.455V119.307H81.2773V118.455H84.6694ZM82.266 116.886H83.2717V123.125C83.2717 123.409 83.3129 123.622 83.3952 123.764C83.4805 123.903 83.5884 123.997 83.7191 124.045C83.8526 124.091 83.9933 124.114 84.141 124.114C84.2518 124.114 84.3427 124.108 84.4137 124.097C84.4847 124.082 84.5415 124.071 84.5842 124.062L84.7887 124.966C84.7205 124.991 84.6254 125.017 84.5032 125.043C84.381 125.071 84.2262 125.085 84.0387 125.085C83.7546 125.085 83.4762 125.024 83.2035 124.902C82.9336 124.78 82.7092 124.594 82.5302 124.344C82.354 124.094 82.266 123.778 82.266 123.398V116.886ZM88.1083 125.153C87.6935 125.153 87.3171 125.075 86.979 124.919C86.641 124.76 86.3725 124.531 86.1737 124.233C85.9748 123.932 85.8754 123.568 85.8754 123.142C85.8754 122.767 85.9492 122.463 86.0969 122.23C86.2447 121.994 86.4421 121.81 86.6893 121.676C86.9364 121.543 87.2092 121.443 87.5075 121.378C87.8086 121.31 88.1112 121.256 88.4151 121.216C88.8129 121.165 89.1353 121.126 89.3825 121.101C89.6325 121.072 89.8143 121.026 89.9279 120.96C90.0444 120.895 90.1026 120.781 90.1026 120.619V120.585C90.1026 120.165 89.9876 119.838 89.7575 119.605C89.5302 119.372 89.185 119.256 88.7219 119.256C88.2418 119.256 87.8654 119.361 87.5927 119.571C87.32 119.781 87.1282 120.006 87.0174 120.244L86.0629 119.903C86.2333 119.506 86.4606 119.196 86.7447 118.974C87.0316 118.75 87.3441 118.594 87.6822 118.506C88.0231 118.415 88.3583 118.369 88.6879 118.369C88.8981 118.369 89.1396 118.395 89.4123 118.446C89.6879 118.494 89.9535 118.595 90.2092 118.749C90.4677 118.902 90.6822 119.134 90.8526 119.443C91.0231 119.753 91.1083 120.168 91.1083 120.688V125H90.1026V124.114H90.0515C89.9833 124.256 89.8697 124.408 89.7106 124.57C89.5515 124.732 89.3398 124.869 89.0756 124.983C88.8114 125.097 88.489 125.153 88.1083 125.153ZM88.2617 124.25C88.6594 124.25 88.9947 124.172 89.2674 124.016C89.543 123.859 89.7504 123.658 89.8896 123.411C90.0316 123.163 90.1026 122.903 90.1026 122.631V121.71C90.06 121.761 89.9663 121.808 89.8214 121.851C89.6793 121.891 89.5146 121.926 89.3271 121.957C89.1424 121.986 88.962 122.011 88.7859 122.034C88.6126 122.054 88.4719 122.071 88.364 122.085C88.1026 122.119 87.8583 122.175 87.631 122.251C87.4066 122.325 87.2248 122.437 87.0856 122.588C86.9492 122.736 86.881 122.937 86.881 123.193C86.881 123.543 87.0103 123.807 87.2688 123.986C87.5302 124.162 87.8612 124.25 88.2617 124.25ZM93.9496 116.273V125H92.9439V116.273H93.9496ZM100.172 121.062V125H99.1665V118.455H100.138V119.477H100.223C100.377 119.145 100.61 118.878 100.922 118.676C101.235 118.472 101.638 118.369 102.132 118.369C102.576 118.369 102.963 118.46 103.296 118.642C103.628 118.821 103.887 119.094 104.071 119.46C104.256 119.824 104.348 120.284 104.348 120.841V125H103.343V120.909C103.343 120.395 103.209 119.994 102.942 119.707C102.675 119.418 102.309 119.273 101.843 119.273C101.522 119.273 101.235 119.342 100.982 119.482C100.732 119.621 100.534 119.824 100.39 120.091C100.245 120.358 100.172 120.682 100.172 121.062ZM108.93 125.136C108.3 125.136 107.756 124.997 107.298 124.719C106.844 124.438 106.493 124.045 106.246 123.543C106.001 123.037 105.879 122.449 105.879 121.778C105.879 121.108 106.001 120.517 106.246 120.006C106.493 119.491 106.837 119.091 107.277 118.804C107.72 118.514 108.237 118.369 108.828 118.369C109.169 118.369 109.506 118.426 109.838 118.54C110.17 118.653 110.473 118.838 110.746 119.094C111.018 119.347 111.236 119.682 111.398 120.099C111.56 120.517 111.641 121.031 111.641 121.642V122.068H106.595V121.199H110.618C110.618 120.83 110.544 120.5 110.396 120.21C110.251 119.92 110.044 119.692 109.774 119.524C109.507 119.357 109.192 119.273 108.828 119.273C108.428 119.273 108.081 119.372 107.788 119.571C107.499 119.767 107.276 120.023 107.119 120.338C106.963 120.653 106.885 120.991 106.885 121.352V121.932C106.885 122.426 106.97 122.845 107.141 123.189C107.314 123.53 107.554 123.79 107.861 123.969C108.168 124.145 108.524 124.233 108.93 124.233C109.195 124.233 109.433 124.196 109.646 124.122C109.862 124.045 110.048 123.932 110.205 123.781C110.361 123.628 110.482 123.437 110.567 123.21L111.538 123.483C111.436 123.812 111.264 124.102 111.023 124.352C110.781 124.599 110.483 124.793 110.128 124.932C109.773 125.068 109.374 125.136 108.93 125.136ZM114.653 125L112.659 118.455H113.716L115.131 123.466H115.199L116.597 118.455H117.67L119.051 123.449H119.119L120.534 118.455H121.591L119.597 125H118.608L117.176 119.972H117.074L115.642 125H114.653ZM127.557 119.92L126.653 120.176C126.597 120.026 126.513 119.879 126.402 119.737C126.294 119.592 126.146 119.473 125.959 119.379C125.771 119.286 125.531 119.239 125.239 119.239C124.838 119.239 124.504 119.331 124.237 119.516C123.973 119.697 123.841 119.929 123.841 120.21C123.841 120.46 123.932 120.658 124.114 120.803C124.295 120.947 124.58 121.068 124.966 121.165L125.938 121.403C126.523 121.545 126.959 121.763 127.246 122.055C127.533 122.345 127.676 122.719 127.676 123.176C127.676 123.551 127.568 123.886 127.352 124.182C127.139 124.477 126.841 124.71 126.457 124.881C126.074 125.051 125.628 125.136 125.119 125.136C124.452 125.136 123.899 124.991 123.462 124.702C123.024 124.412 122.747 123.989 122.631 123.432L123.585 123.193C123.676 123.545 123.848 123.81 124.101 123.986C124.357 124.162 124.69 124.25 125.102 124.25C125.571 124.25 125.943 124.151 126.219 123.952C126.497 123.75 126.636 123.509 126.636 123.227C126.636 123 126.557 122.81 126.398 122.656C126.239 122.5 125.994 122.384 125.665 122.307L124.574 122.051C123.974 121.909 123.534 121.689 123.253 121.391C122.974 121.089 122.835 120.713 122.835 120.261C122.835 119.892 122.939 119.565 123.146 119.281C123.357 118.997 123.642 118.774 124.003 118.612C124.366 118.45 124.778 118.369 125.239 118.369C125.886 118.369 126.395 118.511 126.764 118.795C127.136 119.08 127.401 119.455 127.557 119.92ZM9.72798 140.136C9.11435 140.136 8.58594 139.991 8.14276 139.702C7.69957 139.412 7.35866 139.013 7.12003 138.504C6.88139 137.996 6.76207 137.415 6.76207 136.761C6.76207 136.097 6.88423 135.51 7.12855 135.001C7.37571 134.49 7.71946 134.091 8.1598 133.804C8.60298 133.514 9.12003 133.369 9.71094 133.369C10.1712 133.369 10.5859 133.455 10.9553 133.625C11.3246 133.795 11.6271 134.034 11.8629 134.341C12.0987 134.648 12.245 135.006 12.3018 135.415H11.2962C11.2195 135.116 11.049 134.852 10.7848 134.622C10.5234 134.389 10.1712 134.273 9.72798 134.273C9.33594 134.273 8.99219 134.375 8.69673 134.58C8.40412 134.781 8.17543 135.067 8.01065 135.436C7.84872 135.803 7.76776 136.233 7.76776 136.727C7.76776 137.233 7.8473 137.673 8.00639 138.048C8.16832 138.423 8.3956 138.714 8.68821 138.922C8.98366 139.129 9.33026 139.233 9.72798 139.233C9.98935 139.233 10.2266 139.188 10.4396 139.097C10.6527 139.006 10.8331 138.875 10.9808 138.705C11.1286 138.534 11.2337 138.33 11.2962 138.091H12.3018C12.245 138.477 12.1044 138.825 11.88 139.135C11.6584 139.442 11.3643 139.686 10.9979 139.868C10.6342 140.047 10.2109 140.136 9.72798 140.136ZM16.4311 140.136C15.8402 140.136 15.3217 139.996 14.8757 139.714C14.4325 139.433 14.0859 139.04 13.8359 138.534C13.5888 138.028 13.4652 137.437 13.4652 136.761C13.4652 136.08 13.5888 135.484 13.8359 134.976C14.0859 134.467 14.4325 134.072 14.8757 133.791C15.3217 133.51 15.8402 133.369 16.4311 133.369C17.022 133.369 17.5391 133.51 17.9822 133.791C18.4283 134.072 18.7749 134.467 19.022 134.976C19.272 135.484 19.397 136.08 19.397 136.761C19.397 137.437 19.272 138.028 19.022 138.534C18.7749 139.04 18.4283 139.433 17.9822 139.714C17.5391 139.996 17.022 140.136 16.4311 140.136ZM16.4311 139.233C16.88 139.233 17.2493 139.118 17.5391 138.888C17.8288 138.658 18.0433 138.355 18.1825 137.98C18.3217 137.605 18.3913 137.199 18.3913 136.761C18.3913 136.324 18.3217 135.916 18.1825 135.538C18.0433 135.161 17.8288 134.855 17.5391 134.622C17.2493 134.389 16.88 134.273 16.4311 134.273C15.9822 134.273 15.6129 134.389 15.3232 134.622C15.0334 134.855 14.8189 135.161 14.6797 135.538C14.5405 135.916 14.4709 136.324 14.4709 136.761C14.4709 137.199 14.5405 137.605 14.6797 137.98C14.8189 138.355 15.0334 138.658 15.3232 138.888C15.6129 139.118 15.9822 139.233 16.4311 139.233ZM26.0501 133.455L23.6296 140H22.6069L20.1864 133.455H21.2773L23.0842 138.67H23.1523L24.9592 133.455H26.0501ZM29.8874 140.136C29.2567 140.136 28.7127 139.997 28.2553 139.719C27.8008 139.438 27.4499 139.045 27.2028 138.543C26.9585 138.037 26.8363 137.449 26.8363 136.778C26.8363 136.108 26.9585 135.517 27.2028 135.006C27.4499 134.491 27.7937 134.091 28.234 133.804C28.6772 133.514 29.1942 133.369 29.7852 133.369C30.1261 133.369 30.4627 133.426 30.7951 133.54C31.1275 133.653 31.43 133.838 31.7028 134.094C31.9755 134.347 32.1928 134.682 32.3548 135.099C32.5167 135.517 32.5977 136.031 32.5977 136.642V137.068H27.5522V136.199H31.5749C31.5749 135.83 31.5011 135.5 31.3533 135.21C31.2085 134.92 31.0011 134.692 30.7312 134.524C30.4641 134.357 30.1488 134.273 29.7852 134.273C29.3846 134.273 29.038 134.372 28.7454 134.571C28.4556 134.767 28.2326 135.023 28.0763 135.338C27.9201 135.653 27.842 135.991 27.842 136.352V136.932C27.842 137.426 27.9272 137.845 28.0977 138.189C28.271 138.53 28.511 138.79 28.8178 138.969C29.1246 139.145 29.4812 139.233 29.8874 139.233C30.1516 139.233 30.3903 139.196 30.6033 139.122C30.8192 139.045 31.0053 138.932 31.1616 138.781C31.3178 138.628 31.4386 138.437 31.5238 138.21L32.4954 138.483C32.3931 138.812 32.2212 139.102 31.9798 139.352C31.7383 139.599 31.44 139.793 31.0849 139.932C30.7298 140.068 30.3306 140.136 29.8874 140.136ZM34.1275 140V133.455H35.0991V134.443H35.1673C35.2866 134.119 35.5025 133.857 35.815 133.655C36.1275 133.453 36.4798 133.352 36.8718 133.352C36.9457 133.352 37.038 133.354 37.1488 133.357C37.2596 133.359 37.3434 133.364 37.4002 133.369V134.392C37.3661 134.384 37.288 134.371 37.1658 134.354C37.0465 134.334 36.9201 134.324 36.7866 134.324C36.4684 134.324 36.1843 134.391 35.9343 134.524C35.6871 134.655 35.4911 134.837 35.3462 135.07C35.2042 135.3 35.1332 135.562 35.1332 135.858V140H34.1275ZM40.5185 140.153C40.1037 140.153 39.7273 140.075 39.3892 139.919C39.0511 139.76 38.7827 139.531 38.5838 139.233C38.3849 138.932 38.2855 138.568 38.2855 138.142C38.2855 137.767 38.3594 137.463 38.5071 137.23C38.6548 136.994 38.8523 136.81 39.0994 136.676C39.3466 136.543 39.6193 136.443 39.9176 136.378C40.2188 136.31 40.5213 136.256 40.8253 136.216C41.223 136.165 41.5455 136.126 41.7926 136.101C42.0426 136.072 42.2244 136.026 42.3381 135.96C42.4545 135.895 42.5128 135.781 42.5128 135.619V135.585C42.5128 135.165 42.3977 134.838 42.1676 134.605C41.9403 134.372 41.5952 134.256 41.1321 134.256C40.652 134.256 40.2756 134.361 40.0028 134.571C39.7301 134.781 39.5384 135.006 39.4276 135.244L38.473 134.903C38.6435 134.506 38.8707 134.196 39.1548 133.974C39.4418 133.75 39.7543 133.594 40.0923 133.506C40.4332 133.415 40.7685 133.369 41.098 133.369C41.3082 133.369 41.5497 133.395 41.8224 133.446C42.098 133.494 42.3636 133.595 42.6193 133.749C42.8778 133.902 43.0923 134.134 43.2628 134.443C43.4332 134.753 43.5185 135.168 43.5185 135.688V140H42.5128V139.114H42.4616C42.3935 139.256 42.2798 139.408 42.1207 139.57C41.9616 139.732 41.75 139.869 41.4858 139.983C41.2216 140.097 40.8991 140.153 40.5185 140.153ZM40.6719 139.25C41.0696 139.25 41.4048 139.172 41.6776 139.016C41.9531 138.859 42.1605 138.658 42.2997 138.411C42.4418 138.163 42.5128 137.903 42.5128 137.631V136.71C42.4702 136.761 42.3764 136.808 42.2315 136.851C42.0895 136.891 41.9247 136.926 41.7372 136.957C41.5526 136.986 41.3722 137.011 41.196 137.034C41.0227 137.054 40.8821 137.071 40.7741 137.085C40.5128 137.119 40.2685 137.175 40.0412 137.251C39.8168 137.325 39.6349 137.437 39.4957 137.588C39.3594 137.736 39.2912 137.937 39.2912 138.193C39.2912 138.543 39.4205 138.807 39.679 138.986C39.9403 139.162 40.2713 139.25 40.6719 139.25ZM47.9961 142.591C47.5103 142.591 47.0927 142.528 46.7433 142.403C46.3938 142.281 46.1026 142.119 45.8697 141.918C45.6396 141.719 45.4563 141.506 45.32 141.278L46.1211 140.716C46.212 140.835 46.3271 140.972 46.4663 141.125C46.6055 141.281 46.7958 141.416 47.0373 141.53C47.2816 141.646 47.6012 141.705 47.9961 141.705C48.5245 141.705 48.9606 141.577 49.3043 141.321C49.6481 141.065 49.82 140.665 49.82 140.119V138.79H49.7347C49.6609 138.909 49.5558 139.057 49.4194 139.233C49.2859 139.406 49.0927 139.561 48.8398 139.697C48.5898 139.831 48.2518 139.898 47.8256 139.898C47.2972 139.898 46.8228 139.773 46.4023 139.523C45.9847 139.273 45.6538 138.909 45.4094 138.432C45.168 137.955 45.0472 137.375 45.0472 136.693C45.0472 136.023 45.1651 135.439 45.4009 134.942C45.6367 134.442 45.9648 134.055 46.3853 133.783C46.8058 133.507 47.2915 133.369 47.8427 133.369C48.2688 133.369 48.6069 133.44 48.8569 133.582C49.1097 133.722 49.3029 133.881 49.4364 134.06C49.5728 134.236 49.6779 134.381 49.7518 134.494H49.854V133.455H50.8256V140.188C50.8256 140.75 50.6978 141.207 50.4421 141.56C50.1893 141.915 49.8484 142.175 49.4194 142.339C48.9933 142.507 48.5188 142.591 47.9961 142.591ZM47.962 138.994C48.3654 138.994 48.7063 138.902 48.9847 138.717C49.2631 138.533 49.4748 138.267 49.6197 137.92C49.7646 137.574 49.837 137.159 49.837 136.676C49.837 136.205 49.766 135.788 49.6239 135.428C49.4819 135.067 49.2717 134.784 48.9933 134.58C48.7148 134.375 48.3711 134.273 47.962 134.273C47.5359 134.273 47.1808 134.381 46.8967 134.597C46.6154 134.812 46.4038 135.102 46.2617 135.466C46.1225 135.83 46.0529 136.233 46.0529 136.676C46.0529 137.131 46.1239 137.533 46.266 137.882C46.4109 138.229 46.6239 138.501 46.9052 138.7C47.1893 138.896 47.5415 138.994 47.962 138.994ZM55.4109 140.136C54.7802 140.136 54.2362 139.997 53.7788 139.719C53.3242 139.438 52.9734 139.045 52.7262 138.543C52.4819 138.037 52.3597 137.449 52.3597 136.778C52.3597 136.108 52.4819 135.517 52.7262 135.006C52.9734 134.491 53.3171 134.091 53.7575 133.804C54.2006 133.514 54.7177 133.369 55.3086 133.369C55.6495 133.369 55.9862 133.426 56.3185 133.54C56.6509 133.653 56.9535 133.838 57.2262 134.094C57.4989 134.347 57.7163 134.682 57.8782 135.099C58.0401 135.517 58.1211 136.031 58.1211 136.642V137.068H53.0756V136.199H57.0984C57.0984 135.83 57.0245 135.5 56.8768 135.21C56.7319 134.92 56.5245 134.692 56.2546 134.524C55.9876 134.357 55.6722 134.273 55.3086 134.273C54.908 134.273 54.5614 134.372 54.2688 134.571C53.979 134.767 53.756 135.023 53.5998 135.338C53.4435 135.653 53.3654 135.991 53.3654 136.352V136.932C53.3654 137.426 53.4506 137.845 53.6211 138.189C53.7944 138.53 54.0344 138.79 54.3413 138.969C54.6481 139.145 55.0046 139.233 55.4109 139.233C55.6751 139.233 55.9137 139.196 56.1268 139.122C56.3427 139.045 56.5288 138.932 56.685 138.781C56.8413 138.628 56.962 138.437 57.0472 138.21L58.0188 138.483C57.9165 138.812 57.7447 139.102 57.5032 139.352C57.2617 139.599 56.9634 139.793 56.6083 139.932C56.2532 140.068 55.854 140.136 55.4109 140.136ZM65.8725 133.455V134.307H62.4805V133.455H65.8725ZM63.4691 131.886H64.4748V138.125C64.4748 138.409 64.516 138.622 64.5984 138.764C64.6836 138.903 64.7915 138.997 64.9222 139.045C65.0558 139.091 65.1964 139.114 65.3441 139.114C65.4549 139.114 65.5458 139.108 65.6168 139.097C65.6879 139.082 65.7447 139.071 65.7873 139.062L65.9918 139.966C65.9237 139.991 65.8285 140.017 65.7063 140.043C65.5842 140.071 65.4293 140.085 65.2418 140.085C64.9577 140.085 64.6793 140.024 64.4066 139.902C64.1367 139.78 63.9123 139.594 63.7333 139.344C63.5572 139.094 63.4691 138.778 63.4691 138.398V131.886ZM69.3114 140.153C68.8967 140.153 68.5202 140.075 68.1822 139.919C67.8441 139.76 67.5756 139.531 67.3768 139.233C67.1779 138.932 67.0785 138.568 67.0785 138.142C67.0785 137.767 67.1523 137.463 67.3001 137.23C67.4478 136.994 67.6452 136.81 67.8924 136.676C68.1396 136.543 68.4123 136.443 68.7106 136.378C69.0117 136.31 69.3143 136.256 69.6183 136.216C70.016 136.165 70.3384 136.126 70.5856 136.101C70.8356 136.072 71.0174 136.026 71.131 135.96C71.2475 135.895 71.3058 135.781 71.3058 135.619V135.585C71.3058 135.165 71.1907 134.838 70.9606 134.605C70.7333 134.372 70.3881 134.256 69.9251 134.256C69.445 134.256 69.0685 134.361 68.7958 134.571C68.5231 134.781 68.3313 135.006 68.2205 135.244L67.266 134.903C67.4364 134.506 67.6637 134.196 67.9478 133.974C68.2347 133.75 68.5472 133.594 68.8853 133.506C69.2262 133.415 69.5614 133.369 69.891 133.369C70.1012 133.369 70.3427 133.395 70.6154 133.446C70.891 133.494 71.1566 133.595 71.4123 133.749C71.6708 133.902 71.8853 134.134 72.0558 134.443C72.2262 134.753 72.3114 135.168 72.3114 135.688V140H71.3058V139.114H71.2546C71.1864 139.256 71.0728 139.408 70.9137 139.57C70.7546 139.732 70.543 139.869 70.2788 139.983C70.0146 140.097 69.6921 140.153 69.3114 140.153ZM69.4648 139.25C69.8626 139.25 70.1978 139.172 70.4705 139.016C70.7461 138.859 70.9535 138.658 71.0927 138.411C71.2347 138.163 71.3058 137.903 71.3058 137.631V136.71C71.2631 136.761 71.1694 136.808 71.0245 136.851C70.8825 136.891 70.7177 136.926 70.5302 136.957C70.3455 136.986 70.1651 137.011 69.989 137.034C69.8157 137.054 69.6751 137.071 69.5671 137.085C69.3058 137.119 69.0614 137.175 68.8342 137.251C68.6097 137.325 68.4279 137.437 68.2887 137.588C68.1523 137.736 68.0842 137.937 68.0842 138.193C68.0842 138.543 68.2134 138.807 68.4719 138.986C68.7333 139.162 69.0643 139.25 69.4648 139.25ZM76.7891 142.591C76.3033 142.591 75.8857 142.528 75.5362 142.403C75.1868 142.281 74.8956 142.119 74.6626 141.918C74.4325 141.719 74.2493 141.506 74.1129 141.278L74.9141 140.716C75.005 140.835 75.12 140.972 75.2592 141.125C75.3984 141.281 75.5888 141.416 75.8303 141.53C76.0746 141.646 76.3942 141.705 76.7891 141.705C77.3175 141.705 77.7536 141.577 78.0973 141.321C78.4411 141.065 78.6129 140.665 78.6129 140.119V138.79H78.5277C78.4538 138.909 78.3487 139.057 78.2124 139.233C78.0788 139.406 77.8857 139.561 77.6328 139.697C77.3828 139.831 77.0447 139.898 76.6186 139.898C76.0902 139.898 75.6158 139.773 75.1953 139.523C74.7777 139.273 74.4467 138.909 74.2024 138.432C73.9609 137.955 73.8402 137.375 73.8402 136.693C73.8402 136.023 73.9581 135.439 74.1939 134.942C74.4297 134.442 74.7578 134.055 75.1783 133.783C75.5987 133.507 76.0845 133.369 76.6357 133.369C77.0618 133.369 77.3999 133.44 77.6499 133.582C77.9027 133.722 78.0959 133.881 78.2294 134.06C78.3658 134.236 78.4709 134.381 78.5447 134.494H78.647V133.455H79.6186V140.188C79.6186 140.75 79.4908 141.207 79.2351 141.56C78.9822 141.915 78.6413 142.175 78.2124 142.339C77.7862 142.507 77.3118 142.591 76.7891 142.591ZM76.755 138.994C77.1584 138.994 77.4993 138.902 77.7777 138.717C78.0561 138.533 78.2678 138.267 78.4126 137.92C78.5575 137.574 78.63 137.159 78.63 136.676C78.63 136.205 78.5589 135.788 78.4169 135.428C78.2749 135.067 78.0646 134.784 77.7862 134.58C77.5078 134.375 77.1641 134.273 76.755 134.273C76.3288 134.273 75.9737 134.381 75.6896 134.597C75.4084 134.812 75.1967 135.102 75.0547 135.466C74.9155 135.83 74.8459 136.233 74.8459 136.676C74.8459 137.131 74.9169 137.533 75.0589 137.882C75.2038 138.229 75.4169 138.501 75.6982 138.7C75.9822 138.896 76.3345 138.994 76.755 138.994ZM84.1016 142.591C83.6158 142.591 83.1982 142.528 82.8487 142.403C82.4993 142.281 82.2081 142.119 81.9751 141.918C81.745 141.719 81.5618 141.506 81.4254 141.278L82.2266 140.716C82.3175 140.835 82.4325 140.972 82.5717 141.125C82.7109 141.281 82.9013 141.416 83.1428 141.53C83.3871 141.646 83.7067 141.705 84.1016 141.705C84.63 141.705 85.0661 141.577 85.4098 141.321C85.7536 141.065 85.9254 140.665 85.9254 140.119V138.79H85.8402C85.7663 138.909 85.6612 139.057 85.5249 139.233C85.3913 139.406 85.1982 139.561 84.9453 139.697C84.6953 139.831 84.3572 139.898 83.9311 139.898C83.4027 139.898 82.9283 139.773 82.5078 139.523C82.0902 139.273 81.7592 138.909 81.5149 138.432C81.2734 137.955 81.1527 137.375 81.1527 136.693C81.1527 136.023 81.2706 135.439 81.5064 134.942C81.7422 134.442 82.0703 134.055 82.4908 133.783C82.9112 133.507 83.397 133.369 83.9482 133.369C84.3743 133.369 84.7124 133.44 84.9624 133.582C85.2152 133.722 85.4084 133.881 85.5419 134.06C85.6783 134.236 85.7834 134.381 85.8572 134.494H85.9595V133.455H86.9311V140.188C86.9311 140.75 86.8033 141.207 86.5476 141.56C86.2947 141.915 85.9538 142.175 85.5249 142.339C85.0987 142.507 84.6243 142.591 84.1016 142.591ZM84.0675 138.994C84.4709 138.994 84.8118 138.902 85.0902 138.717C85.3686 138.533 85.5803 138.267 85.7251 137.92C85.87 137.574 85.9425 137.159 85.9425 136.676C85.9425 136.205 85.8714 135.788 85.7294 135.428C85.5874 135.067 85.3771 134.784 85.0987 134.58C84.8203 134.375 84.4766 134.273 84.0675 134.273C83.6413 134.273 83.2862 134.381 83.0021 134.597C82.7209 134.812 82.5092 135.102 82.3672 135.466C82.228 135.83 82.1584 136.233 82.1584 136.676C82.1584 137.131 82.2294 137.533 82.3714 137.882C82.5163 138.229 82.7294 138.501 83.0107 138.7C83.2947 138.896 83.647 138.994 84.0675 138.994ZM91.5163 140.136C90.8857 140.136 90.3416 139.997 89.8842 139.719C89.4297 139.438 89.0788 139.045 88.8317 138.543C88.5874 138.037 88.4652 137.449 88.4652 136.778C88.4652 136.108 88.5874 135.517 88.8317 135.006C89.0788 134.491 89.4226 134.091 89.8629 133.804C90.3061 133.514 90.8232 133.369 91.4141 133.369C91.755 133.369 92.0916 133.426 92.424 133.54C92.7564 133.653 93.0589 133.838 93.3317 134.094C93.6044 134.347 93.8217 134.682 93.9837 135.099C94.1456 135.517 94.2266 136.031 94.2266 136.642V137.068H89.1811V136.199H93.2038C93.2038 135.83 93.13 135.5 92.9822 135.21C92.8374 134.92 92.63 134.692 92.3601 134.524C92.093 134.357 91.7777 134.273 91.4141 134.273C91.0135 134.273 90.6669 134.372 90.3743 134.571C90.0845 134.767 89.8615 135.023 89.7053 135.338C89.549 135.653 89.4709 135.991 89.4709 136.352V136.932C89.4709 137.426 89.5561 137.845 89.7266 138.189C89.8999 138.53 90.1399 138.79 90.4467 138.969C90.7536 139.145 91.1101 139.233 91.5163 139.233C91.7805 139.233 92.0192 139.196 92.2322 139.122C92.4482 139.045 92.6342 138.932 92.7905 138.781C92.9467 138.628 93.0675 138.437 93.1527 138.21L94.1243 138.483C94.022 138.812 93.8501 139.102 93.6087 139.352C93.3672 139.599 93.0689 139.793 92.7138 139.932C92.3587 140.068 91.9595 140.136 91.5163 140.136ZM98.228 140.136C97.6825 140.136 97.201 139.999 96.7834 139.723C96.3658 139.445 96.0391 139.053 95.8033 138.547C95.5675 138.038 95.4496 137.438 95.4496 136.744C95.4496 136.057 95.5675 135.46 95.8033 134.955C96.0391 134.449 96.3672 134.058 96.7876 133.783C97.2081 133.507 97.6939 133.369 98.245 133.369C98.6712 133.369 99.0078 133.44 99.255 133.582C99.505 133.722 99.6953 133.881 99.826 134.06C99.9595 134.236 100.063 134.381 100.137 134.494H100.222V131.273H101.228V140H100.256V138.994H100.137C100.063 139.114 99.9581 139.264 99.8217 139.446C99.6854 139.625 99.4908 139.786 99.2379 139.928C98.9851 140.067 98.6484 140.136 98.228 140.136ZM98.3643 139.233C98.7678 139.233 99.1087 139.128 99.3871 138.918C99.6655 138.705 99.8771 138.411 100.022 138.036C100.167 137.658 100.239 137.222 100.239 136.727C100.239 136.239 100.168 135.811 100.026 135.445C99.8842 135.075 99.674 134.788 99.3956 134.584C99.1172 134.376 98.7734 134.273 98.3643 134.273C97.9382 134.273 97.5831 134.382 97.299 134.601C97.0178 134.817 96.8061 135.111 96.6641 135.483C96.5249 135.852 96.4553 136.267 96.4553 136.727C96.4553 137.193 96.5263 137.616 96.6683 137.997C96.8132 138.375 97.0263 138.676 97.3075 138.901C97.5916 139.122 97.9439 139.233 98.3643 139.233ZM108.067 140L106.073 133.455H107.13L108.545 138.466H108.613L110.011 133.455H111.085L112.465 138.449H112.533L113.948 133.455H115.005L113.011 140H112.022L110.59 134.972H110.488L109.056 140H108.067ZM116.335 140V133.455H117.34V140H116.335ZM116.846 132.364C116.65 132.364 116.481 132.297 116.339 132.163C116.2 132.03 116.13 131.869 116.13 131.682C116.13 131.494 116.2 131.334 116.339 131.2C116.481 131.067 116.65 131 116.846 131C117.042 131 117.21 131.067 117.349 131.2C117.491 131.334 117.562 131.494 117.562 131.682C117.562 131.869 117.491 132.03 117.349 132.163C117.21 132.297 117.042 132.364 116.846 132.364ZM122.029 133.455V134.307H118.637V133.455H122.029ZM119.625 131.886H120.631V138.125C120.631 138.409 120.672 138.622 120.755 138.764C120.84 138.903 120.948 138.997 121.078 139.045C121.212 139.091 121.353 139.114 121.5 139.114C121.611 139.114 121.702 139.108 121.773 139.097C121.844 139.082 121.901 139.071 121.944 139.062L122.148 139.966C122.08 139.991 121.985 140.017 121.863 140.043C121.74 140.071 121.586 140.085 121.398 140.085C121.114 140.085 120.836 140.024 120.563 139.902C120.293 139.78 120.069 139.594 119.89 139.344C119.713 139.094 119.625 138.778 119.625 138.398V131.886ZM124.688 136.062V140H123.682V131.273H124.688V134.477H124.773C124.926 134.139 125.157 133.871 125.463 133.672C125.773 133.47 126.185 133.369 126.699 133.369C127.145 133.369 127.536 133.459 127.871 133.638C128.206 133.814 128.466 134.085 128.651 134.452C128.838 134.815 128.932 135.278 128.932 135.841V140H127.926V135.909C127.926 135.389 127.792 134.987 127.522 134.703C127.255 134.416 126.884 134.273 126.409 134.273C126.08 134.273 125.784 134.342 125.523 134.482C125.265 134.621 125.06 134.824 124.909 135.091C124.762 135.358 124.688 135.682 124.688 136.062ZM10.1035 157.591C9.61772 157.591 9.20011 157.528 8.85067 157.403C8.50124 157.281 8.21005 157.119 7.9771 156.918C7.74698 156.719 7.56374 156.506 7.42738 156.278L8.22852 155.716C8.31942 155.835 8.43448 155.972 8.57369 156.125C8.71289 156.281 8.90323 156.416 9.14471 156.53C9.38903 156.646 9.70863 156.705 10.1035 156.705C10.6319 156.705 11.068 156.577 11.4118 156.321C11.7555 156.065 11.9274 155.665 11.9274 155.119V153.79H11.8422C11.7683 153.909 11.6632 154.057 11.5268 154.233C11.3933 154.406 11.2001 154.561 10.9473 154.697C10.6973 154.831 10.3592 154.898 9.93306 154.898C9.40465 154.898 8.93022 154.773 8.50977 154.523C8.09215 154.273 7.76119 153.909 7.51687 153.432C7.27539 152.955 7.15465 152.375 7.15465 151.693C7.15465 151.023 7.27255 150.439 7.50835 149.942C7.74414 149.442 8.07227 149.055 8.49272 148.783C8.91317 148.507 9.39897 148.369 9.95011 148.369C10.3762 148.369 10.7143 148.44 10.9643 148.582C11.2172 148.722 11.4103 148.881 11.5439 149.06C11.6802 149.236 11.7853 149.381 11.8592 149.494H11.9615V148.455H12.9331V155.188C12.9331 155.75 12.8052 156.207 12.5495 156.56C12.2967 156.915 11.9558 157.175 11.5268 157.339C11.1007 157.507 10.6262 157.591 10.1035 157.591ZM10.0694 153.994C10.4728 153.994 10.8137 153.902 11.0922 153.717C11.3706 153.533 11.5822 153.267 11.7271 152.92C11.872 152.574 11.9444 152.159 11.9444 151.676C11.9444 151.205 11.8734 150.788 11.7314 150.428C11.5893 150.067 11.3791 149.784 11.1007 149.58C10.8223 149.375 10.4785 149.273 10.0694 149.273C9.64329 149.273 9.28817 149.381 9.00408 149.597C8.72283 149.812 8.51119 150.102 8.36914 150.466C8.22994 150.83 8.16033 151.233 8.16033 151.676C8.16033 152.131 8.23136 152.533 8.3734 152.882C8.51829 153.229 8.73136 153.501 9.01261 153.7C9.2967 153.896 9.64897 153.994 10.0694 153.994ZM17.5183 155.136C16.8876 155.136 16.3436 154.997 15.8862 154.719C15.4316 154.438 15.0808 154.045 14.8336 153.543C14.5893 153.037 14.4672 152.449 14.4672 151.778C14.4672 151.108 14.5893 150.517 14.8336 150.006C15.0808 149.491 15.4245 149.091 15.8649 148.804C16.3081 148.514 16.8251 148.369 17.416 148.369C17.7569 148.369 18.0936 148.426 18.426 148.54C18.7583 148.653 19.0609 148.838 19.3336 149.094C19.6064 149.347 19.8237 149.682 19.9856 150.099C20.1475 150.517 20.2285 151.031 20.2285 151.642V152.068H15.1831V151.199H19.2058C19.2058 150.83 19.1319 150.5 18.9842 150.21C18.8393 149.92 18.6319 149.692 18.362 149.524C18.095 149.357 17.7797 149.273 17.416 149.273C17.0154 149.273 16.6689 149.372 16.3762 149.571C16.0865 149.767 15.8635 150.023 15.7072 150.338C15.551 150.653 15.4728 150.991 15.4728 151.352V151.932C15.4728 152.426 15.5581 152.845 15.7285 153.189C15.9018 153.53 16.1419 153.79 16.4487 153.969C16.7555 154.145 17.112 154.233 17.5183 154.233C17.7825 154.233 18.0211 154.196 18.2342 154.122C18.4501 154.045 18.6362 153.932 18.7924 153.781C18.9487 153.628 19.0694 153.437 19.1547 153.21L20.1262 153.483C20.024 153.812 19.8521 154.102 19.6106 154.352C19.3691 154.599 19.0708 154.793 18.7157 154.932C18.3606 155.068 17.9615 155.136 17.5183 155.136ZM24.4174 155.136C23.8265 155.136 23.3081 154.996 22.862 154.714C22.4189 154.433 22.0723 154.04 21.8223 153.534C21.5751 153.028 21.4515 152.437 21.4515 151.761C21.4515 151.08 21.5751 150.484 21.8223 149.976C22.0723 149.467 22.4189 149.072 22.862 148.791C23.3081 148.51 23.8265 148.369 24.4174 148.369C25.0083 148.369 25.5254 148.51 25.9686 148.791C26.4146 149.072 26.7612 149.467 27.0083 149.976C27.2583 150.484 27.3833 151.08 27.3833 151.761C27.3833 152.437 27.2583 153.028 27.0083 153.534C26.7612 154.04 26.4146 154.433 25.9686 154.714C25.5254 154.996 25.0083 155.136 24.4174 155.136ZM24.4174 154.233C24.8663 154.233 25.2356 154.118 25.5254 153.888C25.8152 153.658 26.0297 153.355 26.1689 152.98C26.3081 152.605 26.3777 152.199 26.3777 151.761C26.3777 151.324 26.3081 150.916 26.1689 150.538C26.0297 150.161 25.8152 149.855 25.5254 149.622C25.2356 149.389 24.8663 149.273 24.4174 149.273C23.9686 149.273 23.5993 149.389 23.3095 149.622C23.0197 149.855 22.8052 150.161 22.666 150.538C22.5268 150.916 22.4572 151.324 22.4572 151.761C22.4572 152.199 22.5268 152.605 22.666 152.98C22.8052 153.355 23.0197 153.658 23.3095 153.888C23.5993 154.118 23.9686 154.233 24.4174 154.233ZM28.9185 157.455V148.455H29.8901V149.494H30.0094C30.0833 149.381 30.1855 149.236 30.3162 149.06C30.4498 148.881 30.6401 148.722 30.8873 148.582C31.1373 148.44 31.4753 148.369 31.9015 148.369C32.4526 148.369 32.9384 148.507 33.3588 148.783C33.7793 149.058 34.1074 149.449 34.3432 149.955C34.579 150.46 34.6969 151.057 34.6969 151.744C34.6969 152.438 34.579 153.038 34.3432 153.547C34.1074 154.053 33.7807 154.445 33.3631 154.723C32.9455 154.999 32.464 155.136 31.9185 155.136C31.498 155.136 31.1614 155.067 30.9086 154.928C30.6557 154.786 30.4611 154.625 30.3248 154.446C30.1884 154.264 30.0833 154.114 30.0094 153.994H29.9242V157.455H28.9185ZM29.9071 151.727C29.9071 152.222 29.9796 152.658 30.1245 153.036C30.2694 153.411 30.481 153.705 30.7594 153.918C31.0378 154.128 31.3787 154.233 31.7821 154.233C32.2026 154.233 32.5534 154.122 32.8347 153.901C33.1188 153.676 33.3319 153.375 33.4739 152.997C33.6188 152.616 33.6912 152.193 33.6912 151.727C33.6912 151.267 33.6202 150.852 33.4782 150.483C33.339 150.111 33.1273 149.817 32.8432 149.601C32.562 149.382 32.2083 149.273 31.7821 149.273C31.373 149.273 31.0293 149.376 30.7509 149.584C30.4725 149.788 30.2623 150.075 30.1202 150.445C29.9782 150.811 29.9071 151.239 29.9071 151.727ZM38.8901 155.136C38.2992 155.136 37.7807 154.996 37.3347 154.714C36.8915 154.433 36.5449 154.04 36.2949 153.534C36.0478 153.028 35.9242 152.437 35.9242 151.761C35.9242 151.08 36.0478 150.484 36.2949 149.976C36.5449 149.467 36.8915 149.072 37.3347 148.791C37.7807 148.51 38.2992 148.369 38.8901 148.369C39.481 148.369 39.998 148.51 40.4412 148.791C40.8873 149.072 41.2338 149.467 41.481 149.976C41.731 150.484 41.856 151.08 41.856 151.761C41.856 152.437 41.731 153.028 41.481 153.534C41.2338 154.04 40.8873 154.433 40.4412 154.714C39.998 154.996 39.481 155.136 38.8901 155.136ZM38.8901 154.233C39.339 154.233 39.7083 154.118 39.998 153.888C40.2878 153.658 40.5023 153.355 40.6415 152.98C40.7807 152.605 40.8503 152.199 40.8503 151.761C40.8503 151.324 40.7807 150.916 40.6415 150.538C40.5023 150.161 40.2878 149.855 39.998 149.622C39.7083 149.389 39.339 149.273 38.8901 149.273C38.4412 149.273 38.0719 149.389 37.7821 149.622C37.4924 149.855 37.2779 150.161 37.1387 150.538C36.9995 150.916 36.9299 151.324 36.9299 151.761C36.9299 152.199 36.9995 152.605 37.1387 152.98C37.2779 153.355 37.4924 153.658 37.7821 153.888C38.0719 154.118 38.4412 154.233 38.8901 154.233ZM44.3968 146.273V155H43.3912V146.273H44.3968ZM46.2388 155V148.455H47.2445V155H46.2388ZM46.7502 147.364C46.5542 147.364 46.3851 147.297 46.2431 147.163C46.1039 147.03 46.0343 146.869 46.0343 146.682C46.0343 146.494 46.1039 146.334 46.2431 146.2C46.3851 146.067 46.5542 146 46.7502 146C46.9462 146 47.1138 146.067 47.253 146.2C47.3951 146.334 47.4661 146.494 47.4661 146.682C47.4661 146.869 47.3951 147.03 47.253 147.163C47.1138 147.297 46.9462 147.364 46.7502 147.364ZM51.9331 148.455V149.307H48.541V148.455H51.9331ZM49.5297 146.886H50.5353V153.125C50.5353 153.409 50.5765 153.622 50.6589 153.764C50.7441 153.903 50.8521 153.997 50.9828 154.045C51.1163 154.091 51.2569 154.114 51.4047 154.114C51.5154 154.114 51.6064 154.108 51.6774 154.097C51.7484 154.082 51.8052 154.071 51.8478 154.062L52.0524 154.966C51.9842 154.991 51.889 155.017 51.7669 155.043C51.6447 155.071 51.4899 155.085 51.3024 155.085C51.0183 155.085 50.7399 155.024 50.4672 154.902C50.1973 154.78 49.9728 154.594 49.7939 154.344C49.6177 154.094 49.5297 153.778 49.5297 153.398V146.886ZM53.4458 155V148.455H54.4515V155H53.4458ZM53.9572 147.364C53.7612 147.364 53.5922 147.297 53.4501 147.163C53.3109 147.03 53.2413 146.869 53.2413 146.682C53.2413 146.494 53.3109 146.334 53.4501 146.2C53.5922 146.067 53.7612 146 53.9572 146C54.1532 146 54.3208 146.067 54.46 146.2C54.6021 146.334 54.6731 146.494 54.6731 146.682C54.6731 146.869 54.6021 147.03 54.46 147.163C54.3208 147.297 54.1532 147.364 53.9572 147.364ZM58.9526 155.136C58.339 155.136 57.8105 154.991 57.3674 154.702C56.9242 154.412 56.5833 154.013 56.3446 153.504C56.106 152.996 55.9867 152.415 55.9867 151.761C55.9867 151.097 56.1088 150.51 56.3532 150.001C56.6003 149.49 56.9441 149.091 57.3844 148.804C57.8276 148.514 58.3446 148.369 58.9355 148.369C59.3958 148.369 59.8105 148.455 60.1799 148.625C60.5492 148.795 60.8517 149.034 61.0875 149.341C61.3233 149.648 61.4696 150.006 61.5265 150.415H60.5208C60.4441 150.116 60.2736 149.852 60.0094 149.622C59.748 149.389 59.3958 149.273 58.9526 149.273C58.5605 149.273 58.2168 149.375 57.9213 149.58C57.6287 149.781 57.4 150.067 57.2353 150.436C57.0733 150.803 56.9924 151.233 56.9924 151.727C56.9924 152.233 57.0719 152.673 57.231 153.048C57.3929 153.423 57.6202 153.714 57.9128 153.922C58.2083 154.129 58.5549 154.233 58.9526 154.233C59.214 154.233 59.4512 154.188 59.6642 154.097C59.8773 154.006 60.0577 153.875 60.2054 153.705C60.3532 153.534 60.4583 153.33 60.5208 153.091H61.5265C61.4696 153.477 61.329 153.825 61.1046 154.135C60.883 154.442 60.589 154.686 60.2225 154.868C59.8588 155.047 59.4355 155.136 58.9526 155.136ZM64.9228 155.153C64.508 155.153 64.1316 155.075 63.7935 154.919C63.4554 154.76 63.187 154.531 62.9881 154.233C62.7892 153.932 62.6898 153.568 62.6898 153.142C62.6898 152.767 62.7637 152.463 62.9114 152.23C63.0591 151.994 63.2566 151.81 63.5037 151.676C63.7509 151.543 64.0236 151.443 64.3219 151.378C64.623 151.31 64.9256 151.256 65.2296 151.216C65.6273 151.165 65.9498 151.126 66.1969 151.101C66.4469 151.072 66.6287 151.026 66.7424 150.96C66.8588 150.895 66.9171 150.781 66.9171 150.619V150.585C66.9171 150.165 66.802 149.838 66.5719 149.605C66.3446 149.372 65.9995 149.256 65.5364 149.256C65.0563 149.256 64.6799 149.361 64.4071 149.571C64.1344 149.781 63.9426 150.006 63.8319 150.244L62.8773 149.903C63.0478 149.506 63.275 149.196 63.5591 148.974C63.8461 148.75 64.1586 148.594 64.4966 148.506C64.8375 148.415 65.1728 148.369 65.5023 148.369C65.7125 148.369 65.954 148.395 66.2267 148.446C66.5023 148.494 66.7679 148.595 67.0236 148.749C67.2821 148.902 67.4966 149.134 67.6671 149.443C67.8375 149.753 67.9228 150.168 67.9228 150.688V155H66.9171V154.114H66.8659C66.7978 154.256 66.6841 154.408 66.525 154.57C66.3659 154.732 66.1543 154.869 65.8901 154.983C65.6259 155.097 65.3034 155.153 64.9228 155.153ZM65.0762 154.25C65.4739 154.25 65.8091 154.172 66.0819 154.016C66.3574 153.859 66.5648 153.658 66.704 153.411C66.8461 153.163 66.9171 152.903 66.9171 152.631V151.71C66.8745 151.761 66.7807 151.808 66.6358 151.851C66.4938 151.891 66.329 151.926 66.1415 151.957C65.9569 151.986 65.7765 152.011 65.6003 152.034C65.427 152.054 65.2864 152.071 65.1784 152.085C64.9171 152.119 64.6728 152.175 64.4455 152.251C64.2211 152.325 64.0392 152.437 63.9 152.588C63.7637 152.736 63.6955 152.937 63.6955 153.193C63.6955 153.543 63.8248 153.807 64.0833 153.986C64.3446 154.162 64.6756 154.25 65.0762 154.25ZM70.764 146.273V155H69.7583V146.273H70.764ZM76.9185 152.614L76.9015 151.369H77.106L79.9696 148.455H81.214L78.1628 151.54H78.0776L76.9185 152.614ZM75.981 155V146.273H76.9867V155H75.981ZM80.1401 155L77.5833 151.761L78.2992 151.062L81.4185 155H80.1401ZM84.9831 155.136C84.3525 155.136 83.8084 154.997 83.351 154.719C82.8965 154.438 82.5456 154.045 82.2985 153.543C82.0542 153.037 81.932 152.449 81.932 151.778C81.932 151.108 82.0542 150.517 82.2985 150.006C82.5456 149.491 82.8894 149.091 83.3297 148.804C83.7729 148.514 84.29 148.369 84.8809 148.369C85.2218 148.369 85.5584 148.426 85.8908 148.54C86.2232 148.653 86.5257 148.838 86.7985 149.094C87.0712 149.347 87.2885 149.682 87.4505 150.099C87.6124 150.517 87.6934 151.031 87.6934 151.642V152.068H82.6479V151.199H86.6706C86.6706 150.83 86.5968 150.5 86.449 150.21C86.3042 149.92 86.0968 149.692 85.8269 149.524C85.5598 149.357 85.2445 149.273 84.8809 149.273C84.4803 149.273 84.1337 149.372 83.8411 149.571C83.5513 149.767 83.3283 150.023 83.1721 150.338C83.0158 150.653 82.9377 150.991 82.9377 151.352V151.932C82.9377 152.426 83.0229 152.845 83.1934 153.189C83.3667 153.53 83.6067 153.79 83.9135 153.969C84.2203 154.145 84.5769 154.233 84.9831 154.233C85.2473 154.233 85.486 154.196 85.699 154.122C85.915 154.045 86.101 153.932 86.2573 153.781C86.4135 153.628 86.5343 153.437 86.6195 153.21L87.5911 153.483C87.4888 153.812 87.3169 154.102 87.0755 154.352C86.834 154.599 86.5357 154.793 86.1806 154.932C85.8255 155.068 85.4263 155.136 84.9831 155.136ZM89.6717 157.455C89.5012 157.455 89.3493 157.44 89.2157 157.412C89.0822 157.386 88.9899 157.361 88.9387 157.335L89.1944 156.449C89.4387 156.511 89.6547 156.534 89.8422 156.517C90.0297 156.5 90.1958 156.416 90.3407 156.266C90.4885 156.118 90.6234 155.878 90.7456 155.545L90.9331 155.034L88.5126 148.455H89.6035L91.4103 153.67H91.4785L93.2853 148.455H94.3762L91.5978 155.955C91.4728 156.293 91.318 156.572 91.1333 156.794C90.9487 157.018 90.7342 157.185 90.4899 157.293C90.2484 157.401 89.9757 157.455 89.6717 157.455ZM97.1866 155L95.1923 148.455H96.2491L97.6639 153.466H97.7321L99.1298 148.455H100.204L101.584 153.449H101.653L103.067 148.455H104.124L102.13 155H101.141L99.7093 149.972H99.6071L98.1752 155H97.1866ZM107.89 155.136C107.299 155.136 106.781 154.996 106.335 154.714C105.892 154.433 105.545 154.04 105.295 153.534C105.048 153.028 104.924 152.437 104.924 151.761C104.924 151.08 105.048 150.484 105.295 149.976C105.545 149.467 105.892 149.072 106.335 148.791C106.781 148.51 107.299 148.369 107.89 148.369C108.481 148.369 108.998 148.51 109.441 148.791C109.887 149.072 110.234 149.467 110.481 149.976C110.731 150.484 110.856 151.08 110.856 151.761C110.856 152.437 110.731 153.028 110.481 153.534C110.234 154.04 109.887 154.433 109.441 154.714C108.998 154.996 108.481 155.136 107.89 155.136ZM107.89 154.233C108.339 154.233 108.708 154.118 108.998 153.888C109.288 153.658 109.502 153.355 109.642 152.98C109.781 152.605 109.85 152.199 109.85 151.761C109.85 151.324 109.781 150.916 109.642 150.538C109.502 150.161 109.288 149.855 108.998 149.622C108.708 149.389 108.339 149.273 107.89 149.273C107.441 149.273 107.072 149.389 106.782 149.622C106.492 149.855 106.278 150.161 106.139 150.538C105.999 150.916 105.93 151.324 105.93 151.761C105.93 152.199 105.999 152.605 106.139 152.98C106.278 153.355 106.492 153.658 106.782 153.888C107.072 154.118 107.441 154.233 107.89 154.233ZM112.391 155V148.455H113.363V149.443H113.431C113.55 149.119 113.766 148.857 114.079 148.655C114.391 148.453 114.743 148.352 115.135 148.352C115.209 148.352 115.302 148.354 115.412 148.357C115.523 148.359 115.607 148.364 115.664 148.369V149.392C115.63 149.384 115.552 149.371 115.43 149.354C115.31 149.334 115.184 149.324 115.05 149.324C114.732 149.324 114.448 149.391 114.198 149.524C113.951 149.655 113.755 149.837 113.61 150.07C113.468 150.3 113.397 150.562 113.397 150.858V155H112.391ZM119.128 155.136C118.583 155.136 118.101 154.999 117.684 154.723C117.266 154.445 116.939 154.053 116.704 153.547C116.468 153.038 116.35 152.438 116.35 151.744C116.35 151.057 116.468 150.46 116.704 149.955C116.939 149.449 117.268 149.058 117.688 148.783C118.108 148.507 118.594 148.369 119.145 148.369C119.572 148.369 119.908 148.44 120.155 148.582C120.405 148.722 120.596 148.881 120.726 149.06C120.86 149.236 120.964 149.381 121.037 149.494H121.123V146.273H122.128V155H121.157V153.994H121.037C120.964 154.114 120.858 154.264 120.722 154.446C120.586 154.625 120.391 154.786 120.138 154.928C119.885 155.067 119.549 155.136 119.128 155.136ZM119.265 154.233C119.668 154.233 120.009 154.128 120.287 153.918C120.566 153.705 120.778 153.411 120.922 153.036C121.067 152.658 121.14 152.222 121.14 151.727C121.14 151.239 121.069 150.811 120.927 150.445C120.785 150.075 120.574 149.788 120.296 149.584C120.018 149.376 119.674 149.273 119.265 149.273C118.839 149.273 118.483 149.382 118.199 149.601C117.918 149.817 117.706 150.111 117.564 150.483C117.425 150.852 117.356 151.267 117.356 151.727C117.356 152.193 117.427 152.616 117.569 152.997C117.714 153.375 117.927 153.676 118.208 153.901C118.492 154.122 118.844 154.233 119.265 154.233ZM128.746 149.92L127.843 150.176C127.786 150.026 127.702 149.879 127.591 149.737C127.483 149.592 127.336 149.473 127.148 149.379C126.961 149.286 126.721 149.239 126.428 149.239C126.028 149.239 125.694 149.331 125.427 149.516C125.162 149.697 125.03 149.929 125.03 150.21C125.03 150.46 125.121 150.658 125.303 150.803C125.485 150.947 125.769 151.068 126.155 151.165L127.127 151.403C127.712 151.545 128.148 151.763 128.435 152.055C128.722 152.345 128.866 152.719 128.866 153.176C128.866 153.551 128.758 153.886 128.542 154.182C128.329 154.477 128.03 154.71 127.647 154.881C127.263 155.051 126.817 155.136 126.309 155.136C125.641 155.136 125.089 154.991 124.651 154.702C124.214 154.412 123.937 153.989 123.82 153.432L124.775 153.193C124.866 153.545 125.037 153.81 125.29 153.986C125.546 154.162 125.88 154.25 126.292 154.25C126.76 154.25 127.133 154.151 127.408 153.952C127.687 153.75 127.826 153.509 127.826 153.227C127.826 153 127.746 152.81 127.587 152.656C127.428 152.5 127.184 152.384 126.854 152.307L125.763 152.051C125.164 151.909 124.724 151.689 124.442 151.391C124.164 151.089 124.025 150.713 124.025 150.261C124.025 149.892 124.128 149.565 124.336 149.281C124.546 148.997 124.831 148.774 125.192 148.612C125.556 148.45 125.968 148.369 126.428 148.369C127.076 148.369 127.584 148.511 127.954 148.795C128.326 149.08 128.59 149.455 128.746 149.92Z" fill="black"/>
</svg>
