<?xml version="1.0" encoding="UTF-8"?>
<svg width="135" height="167" viewBox="0 0 135 167" xmlns="http://www.w3.org/2000/svg">
<path d="m112 38.502-12.984 6.6162-3.0147-4.8369-0.7646-5.8135 9.2861-7.2734 7.477 11.308z" fill="#FFBC36" stroke="#CE8900"/>
<path d="m94.932 39.839-5.2988-0.9834 4.6865-3.6699 0.6123 4.6533z" fill="#FFBC36" stroke="#CE8900"/>
<path d="m97.477 48.41 14.583 22.167-2.444 3.7608-3.059 3.7783-3.448 3.4463-3.7779 3.0596-4.0821 2.6504-4.3418 2.2119-4.5371 1.7402-4.6963 1.2588-4.8183 0.7627-4.8555 0.2539-4.8545-0.2539-1.4824-0.2354-6.6133-7.9043-5.0586-18.337 29.737-23.29 13.748 4.9307z" fill="#FFBC36" stroke="#CE8900"/>
<path d="m117.83 39.52 0.415 2.623 0.254 4.8555-0.254 4.8535-0.761 4.8135-1.262 4.705-1.744 4.5459-1.871 3.6709-14.234-21.637 0.8409-1.8144 13.612-6.9365 5.004 0.3203z" fill="#FFBC36" stroke="#CE8900"/>
<path d="m58.035 85.181-4.8057 4.3544-0.1406-0.0537-4.3369-2.2099-4.0879-2.6543-3.7774-3.0596-2.5381-2.5381 14.791-11.584 4.8955 17.745z" fill="#FFBC36" stroke="#CE8900"/>
<path d="m95.21 40.908 3.0547 4.9004-0.7246 1.5606-12.88-4.6182 3.9219-3.0722 6.6279 1.2294z" fill="#FFBC36" stroke="#CE8900"/>
<path d="m64.16 92.772-1.8252-0.2881-4.7032-1.2597-3.3574-1.2901 4.2725-3.872 5.6133 6.7099z" fill="#FFBC36" stroke="#CE8900"/>
<path d="m112.27 23.751 2.209 4.334 1.746 4.5498 1.258 4.6973 0.185 1.1777-4.668-0.2979-7.692-11.634 5.833-4.5674 1.129 1.7402z" fill="#FFBC36" stroke="#CE8900"/>
<path d="m93.901 34.246-6.9033 5.4053-3.8926-4.7217 7.8701-3.4248 2.9258 2.7412z" fill="#4580FF" stroke="#0036AC"/>
<path d="m57.104 8.0729-8.6006-1.1846 0.2432-0.15821 4.3379-2.2109 4.543-1.7422 1.5839-0.42481-2.1074 5.7207z" fill="#4580FF" stroke="#0036AC"/>
<path d="m106.56 15.884 3.065 3.7842 0.974 1.5-15.899 12.452-3.0342-2.8437 6.3028-16.844 6.2006-0.4404 2.391 2.3916z" fill="#4580FF" stroke="#0036AC"/>
<path d="m57.183 9.0917 23.309 26.043 0.3545 9.332-43.21 33.84-0.1933-0.1934-3.0596-3.7783-2.6543-4.0879-2.209-4.334-1.7461-4.5498-1.2578-4.6972-0.7607-4.8038-0.2549-4.8642 0.2549-4.8643 0.7607-4.8008 1.2578-4.7001 1.7461-4.5499 2.209-4.3339 2.6543-4.0879 3.0596-3.7783 3.4424-3.4415 3.7773-3.0595 2.5596-1.6621 9.9609 1.3721z" fill="#4580FF" stroke="#0036AC"/>
<path d="m76.862 0.75494 4.8047 0.76075 4.6973 1.2578 4.5498 1.7461 4.3359 2.21 0.6416 0.417 1.2012 6.2686-6.4102 17.127-8.5273 3.7099-0.9785 0.1494-23.171-25.889 2.3867-6.4775 1.9414-0.51953 4.8008-0.76075 4.8642-0.25488 4.8633 0.25488z" fill="#4580FF" stroke="#0036AC"/>
<path d="m99.336 9.3829 3.7886 3.0684 0.103 0.1035-5.2119 0.3711-0.9629-5.0264 2.2832 1.4834z" fill="#4580FF" stroke="#0036AC"/>
<path d="m86.209 40.266-4.3906 3.4395-0.3164-8.3438 0.5908-0.0898 4.1162 4.9941z" fill="#4580FF" stroke="#0036AC"/>
<path d="m36.837 119-2.3864-8.727h1.0739l1.8238 7.108h0.0852l1.858-7.108h1.1932l1.8579 7.108h0.0853l1.8238-7.108h1.0739l-2.3864 8.727h-1.0909l-1.9261-6.955h-0.0682l-1.9261 6.955h-1.0909zm9.669 0v-6.545h1.0057v6.545h-1.0057zm0.5114-7.636c-0.1961 0-0.3651-0.067-0.5071-0.201-0.1393-0.133-0.2089-0.294-0.2089-0.481 0-0.188 0.0696-0.348 0.2089-0.482 0.142-0.133 0.311-0.2 0.5071-0.2 0.196 0 0.3636 0.067 0.5028 0.2 0.142 0.134 0.2131 0.294 0.2131 0.482 0 0.187-0.0711 0.348-0.2131 0.481-0.1392 0.134-0.3068 0.201-0.5028 0.201zm5.1828 1.091v0.852h-3.392v-0.852h3.392zm-2.4034-1.569h1.0057v6.239c0 0.284 0.0412 0.497 0.1236 0.639 0.0852 0.139 0.1932 0.233 0.3239 0.281 0.1335 0.046 0.2741 0.069 0.4218 0.069 0.1108 0 0.2017-6e-3 0.2728-0.017 0.071-0.015 0.1278-0.026 0.1704-0.035l0.2046 0.904c-0.0682 0.025-0.1634 0.051-0.2856 0.077-0.1221 0.028-0.2769 0.042-0.4644 0.042-0.2841 0-0.5625-0.061-0.8353-0.183-0.2699-0.122-0.4943-0.308-0.6733-0.558-0.1761-0.25-0.2642-0.566-0.2642-0.946v-6.512zm5.0625 4.176v3.938h-1.0057v-8.727h1.0057v3.204h0.0853c0.1534-0.338 0.3835-0.606 0.6903-0.805 0.3097-0.202 0.7216-0.303 1.2358-0.303 0.446 0 0.8366 0.09 1.1719 0.269 0.3352 0.176 0.5951 0.447 0.7798 0.814 0.1875 0.363 0.2812 0.826 0.2812 1.389v4.159h-1.0056v-4.091c0-0.52-0.135-0.922-0.4049-1.206-0.267-0.287-0.6377-0.43-1.1122-0.43-0.3295 0-0.625 0.069-0.8863 0.209-0.2586 0.139-0.4631 0.342-0.6137 0.609-0.1477 0.267-0.2216 0.591-0.2216 0.971zm6.0842 3.938v-6.545h1.0057v6.545h-1.0057zm0.5114-7.636c-0.1961 0-0.3651-0.067-0.5071-0.201-0.1393-0.133-0.2089-0.294-0.2089-0.481 0-0.188 0.0696-0.348 0.2089-0.482 0.142-0.133 0.311-0.2 0.5071-0.2 0.196 0 0.3636 0.067 0.5028 0.2 0.142 0.134 0.2131 0.294 0.2131 0.482 0 0.187-0.0711 0.348-0.2131 0.481-0.1392 0.134-0.3068 0.201-0.5028 0.201zm3.3419 3.698v3.938h-1.0057v-6.545h0.9716v1.022h0.0853c0.1534-0.332 0.3863-0.599 0.6988-0.801 0.3125-0.204 0.7159-0.307 1.2103-0.307 0.4431 0 0.8309 0.091 1.1633 0.273 0.3324 0.179 0.5909 0.452 0.7756 0.818 0.1846 0.364 0.277 0.824 0.277 1.381v4.159h-1.0057v-4.091c0-0.514-0.1335-0.915-0.4006-1.202-0.267-0.289-0.6335-0.434-1.0994-0.434-0.321 0-0.608 0.069-0.8608 0.209-0.25 0.139-0.4475 0.342-0.5923 0.609-0.1449 0.267-0.2174 0.591-0.2174 0.971zm12.133 4.074c-0.6307 0-1.1747-0.139-1.6321-0.417-0.4545-0.281-0.8054-0.674-1.0526-1.176-0.2443-0.506-0.3664-1.094-0.3664-1.765 0-0.67 0.1221-1.261 0.3664-1.772 0.2472-0.515 0.5909-0.915 1.0313-1.202 0.4432-0.29 0.9602-0.435 1.5511-0.435 0.3409 0 0.6776 0.057 1.01 0.171 0.3324 0.113 0.6349 0.298 0.9076 0.554 0.2728 0.253 0.4901 0.588 0.652 1.005 0.162 0.418 0.2429 0.932 0.2429 1.543v0.426h-5.0454v-0.869h4.0227c0-0.369-0.0739-0.699-0.2216-0.989-0.1449-0.29-0.3523-0.518-0.6222-0.686-0.267-0.167-0.5823-0.251-0.946-0.251-0.4005 0-0.7471 0.099-1.0397 0.298-0.2898 0.196-0.5128 0.452-0.6691 0.767-0.1562 0.315-0.2344 0.653-0.2344 1.014v0.58c0 0.494 0.0853 0.913 0.2557 1.257 0.1733 0.341 0.4134 0.601 0.7202 0.78 0.3068 0.176 0.6633 0.264 1.0696 0.264 0.2642 0 0.5028-0.037 0.7159-0.111 0.2159-0.077 0.402-0.19 0.5582-0.341 0.1563-0.153 0.277-0.344 0.3623-0.571l0.9716 0.273c-0.1023 0.329-0.2742 0.619-0.5157 0.869-0.2414 0.247-0.5397 0.441-0.8949 0.58-0.3551 0.136-0.7542 0.204-1.1974 0.204zm6.1662 0.017c-0.4148 0-0.7912-0.078-1.1293-0.234-0.338-0.159-0.6065-0.388-0.8054-0.686-0.1988-0.301-0.2983-0.665-0.2983-1.091 0-0.375 0.0739-0.679 0.2216-0.912 0.1478-0.236 0.3452-0.42 0.5924-0.554 0.2471-0.133 0.5198-0.233 0.8181-0.298 0.3012-0.068 0.6037-0.122 0.9077-0.162 0.3977-0.051 0.7202-0.09 0.9673-0.115 0.25-0.029 0.4319-0.075 0.5455-0.141 0.1165-0.065 0.1747-0.179 0.1747-0.341v-0.034c0-0.42-0.115-0.747-0.3452-0.98-0.2272-0.233-0.5724-0.349-1.0355-0.349-0.4801 0-0.8565 0.105-1.1292 0.315-0.2728 0.21-0.4645 0.435-0.5753 0.673l-0.9546-0.341c0.1705-0.397 0.3978-0.707 0.6819-0.929 0.2869-0.224 0.5994-0.38 0.9375-0.468 0.3409-0.091 0.6761-0.137 1.0056-0.137 0.2103 0 0.4517 0.026 0.7245 0.077 0.2755 0.048 0.5412 0.149 0.7968 0.303 0.2586 0.153 0.4731 0.385 0.6435 0.694 0.1705 0.31 0.2557 0.725 0.2557 1.245v4.312h-1.0057v-0.886h-0.0511c-0.0682 0.142-0.1818 0.294-0.3409 0.456s-0.3708 0.299-0.635 0.413-0.5866 0.17-0.9673 0.17zm0.1534-0.903c0.3977 0 0.733-0.078 1.0057-0.234 0.2756-0.157 0.4829-0.358 0.6221-0.605 0.1421-0.248 0.2131-0.508 0.2131-0.78v-0.921c-0.0426 0.051-0.1364 0.098-0.2812 0.141-0.1421 0.04-0.3069 0.075-0.4944 0.106-0.1846 0.029-0.365 0.054-0.5412 0.077-0.1732 0.02-0.3139 0.037-0.4218 0.051-0.2614 0.034-0.5057 0.09-0.733 0.166-0.2244 0.074-0.4062 0.186-0.5454 0.337-0.1364 0.148-0.2046 0.349-0.2046 0.605 0 0.35 0.1293 0.614 0.3878 0.793 0.2614 0.176 0.5923 0.264 0.9929 0.264zm7.3413 0.886c-0.6137 0-1.1421-0.145-1.5853-0.434-0.4431-0.29-0.7841-0.689-1.0227-1.198-0.2386-0.508-0.3579-1.089-0.3579-1.743 0-0.664 0.1221-1.251 0.3664-1.76 0.2472-0.511 0.5909-0.91 1.0313-1.197 0.4432-0.29 0.9602-0.435 1.5511-0.435 0.4602 0 0.875 0.086 1.2443 0.256 0.3694 0.17 0.6719 0.409 0.9077 0.716s0.3821 0.665 0.4389 1.074h-1.0057c-0.0767-0.299-0.2471-0.563-0.5113-0.793-0.2614-0.233-0.6137-0.349-1.0568-0.349-0.3921 0-0.7358 0.102-1.0313 0.307-0.2926 0.201-0.5213 0.487-0.6861 0.856-0.1619 0.367-0.2429 0.797-0.2429 1.291 0 0.506 0.0796 0.946 0.2387 1.321 0.1619 0.375 0.3892 0.666 0.6818 0.874 0.2954 0.207 0.642 0.311 1.0398 0.311 0.2613 0 0.4985-0.045 0.7116-0.136s0.3935-0.222 0.5412-0.392c0.1477-0.171 0.2528-0.375 0.3153-0.614h1.0057c-0.0568 0.386-0.1974 0.734-0.4218 1.044-0.2216 0.307-0.5157 0.551-0.8821 0.733-0.3637 0.179-0.787 0.268-1.2699 0.268zm5.0497-4.074v3.938h-1.0057v-8.727h1.0057v3.204h0.0852c0.1534-0.338 0.3835-0.606 0.6903-0.805 0.3097-0.202 0.7216-0.303 1.2358-0.303 0.4461 0 0.8367 0.09 1.1719 0.269 0.3352 0.176 0.5952 0.447 0.7798 0.814 0.1875 0.363 0.2813 0.826 0.2813 1.389v4.159h-1.0057v-4.091c0-0.52-0.1349-0.922-0.4048-1.206-0.2671-0.287-0.6378-0.43-1.1122-0.43-0.3296 0-0.625 0.069-0.8864 0.209-0.2585 0.139-0.4631 0.342-0.6136 0.609-0.1478 0.267-0.2216 0.591-0.2216 0.971zm-92.262 15v3.938h-1.0057v-6.545h0.97159v1.022h0.08523c0.15341-0.332 0.38636-0.599 0.69886-0.801 0.3125-0.204 0.71591-0.307 1.2102-0.307 0.44318 0 0.83096 0.091 1.1634 0.273 0.33239 0.179 0.59091 0.452 0.77557 0.818 0.18466 0.364 0.27699 0.824 0.27699 1.381v4.159h-1.0057v-4.091c0-0.514-0.13353-0.915-0.40057-1.202-0.26705-0.289-0.63352-0.434-1.0994-0.434-0.32103 0-0.60796 0.069-0.8608 0.209-0.25 0.139-0.44744 0.342-0.59233 0.609s-0.21733 0.591-0.21733 0.971zm8.7581 4.074c-0.6307 0-1.1747-0.139-1.6321-0.417-0.4545-0.281-0.80537-0.674-1.0525-1.176-0.24432-0.506-0.36648-1.094-0.36648-1.765 0-0.67 0.12216-1.261 0.36648-1.772 0.24716-0.515 0.59093-0.915 1.0312-1.202 0.4432-0.29 0.9602-0.435 1.5512-0.435 0.3409 0 0.6775 0.057 1.0099 0.171 0.3324 0.113 0.6349 0.298 0.9077 0.554 0.2727 0.253 0.49 0.588 0.652 1.005 0.1619 0.418 0.2429 0.932 0.2429 1.543v0.426h-5.0455v-0.869h4.0227c0-0.369-0.0738-0.699-0.2216-0.989-0.1448-0.29-0.3522-0.518-0.6221-0.686-0.2671-0.167-0.5824-0.251-0.946-0.251-0.4006 0-0.7472 0.099-1.0398 0.298-0.2898 0.196-0.5128 0.452-0.6691 0.767-0.1562 0.315-0.2343 0.653-0.2343 1.014v0.58c0 0.494 0.0852 0.913 0.2557 1.257 0.1733 0.341 0.4133 0.601 0.7201 0.78 0.3068 0.176 0.6634 0.264 1.0696 0.264 0.2642 0 0.5029-0.037 0.7159-0.111 0.2159-0.077 0.402-0.19 0.5583-0.341 0.1562-0.153 0.277-0.344 0.3622-0.571l0.9716 0.273c-0.1023 0.329-0.2742 0.619-0.5156 0.869-0.2415 0.247-0.5398 0.441-0.8949 0.58-0.3551 0.136-0.7543 0.204-1.1975 0.204zm5.723-0.136-1.9943-6.545h1.0568l1.4148 5.011h0.0682l1.3977-5.011h1.0739l1.3807 4.994h0.0681l1.4148-4.994h1.0568l-1.9943 6.545h-0.9886l-1.4318-5.028h-0.1023l-1.4318 5.028h-0.9887zm12.903-5.08-0.9034 0.256c-0.0568-0.15-0.1406-0.297-0.2514-0.439-0.1079-0.145-0.2557-0.264-0.4432-0.358-0.1875-0.093-0.4275-0.14-0.7201-0.14-0.4006 0-0.7344 0.092-1.0015 0.277-0.2642 0.181-0.3963 0.413-0.3963 0.694 0 0.25 0.0909 0.448 0.2728 0.593 0.1818 0.144 0.4659 0.265 0.8522 0.362l0.9716 0.238c0.5853 0.142 1.0213 0.36 1.3083 0.652 0.2869 0.29 0.4304 0.664 0.4304 1.121 0 0.375-0.108 0.71-0.3239 1.006-0.2131 0.295-0.5114 0.528-0.8949 0.699-0.3835 0.17-0.8295 0.255-1.3381 0.255-0.6676 0-1.2201-0.145-1.6576-0.434-0.4375-0.29-0.7145-0.713-0.831-1.27l0.9546-0.239c0.0909 0.352 0.2627 0.617 0.5156 0.793 0.2557 0.176 0.5895 0.264 1.0014 0.264 0.4688 0 0.8409-0.099 1.1165-0.298 0.2784-0.202 0.4176-0.443 0.4176-0.725 0-0.227-0.0796-0.417-0.2386-0.571-0.1591-0.156-0.4035-0.272-0.733-0.349l-1.0909-0.256c-0.5994-0.142-1.0398-0.362-1.321-0.66-0.2784-0.302-0.4176-0.678-0.4176-1.13 0-0.369 0.1037-0.696 0.311-0.98 0.2103-0.284 0.4958-0.507 0.8566-0.669 0.3636-0.162 0.7755-0.243 1.2358-0.243 0.6477 0 1.1562 0.142 1.5255 0.426 0.3722 0.285 0.6364 0.66 0.7926 1.125zm1.6332 7.535v-9h0.9716v1.039h0.1193c0.0739-0.113 0.1762-0.258 0.3068-0.434 0.1336-0.179 0.3239-0.338 0.5711-0.478 0.25-0.142 0.588-0.213 1.0142-0.213 0.5511 0 1.0369 0.138 1.4574 0.414 0.4204 0.275 0.7485 0.666 0.9843 1.172 0.2358 0.505 0.3537 1.102 0.3537 1.789 0 0.694-0.1179 1.294-0.3537 1.803-0.2358 0.506-0.5625 0.898-0.9801 1.176-0.4176 0.276-0.8991 0.413-1.4446 0.413-0.4204 0-0.7571-0.069-1.0099-0.208-0.2529-0.142-0.4475-0.303-0.5838-0.482-0.1364-0.182-0.2415-0.332-0.3154-0.452h-0.0852v3.461h-1.0057zm0.9887-5.728c0 0.495 0.0724 0.931 0.2173 1.309 0.1449 0.375 0.3565 0.669 0.6349 0.882 0.2784 0.21 0.6193 0.315 1.0228 0.315 0.4204 0 0.7713-0.111 1.0525-0.332 0.2841-0.225 0.4972-0.526 0.6392-0.904 0.1449-0.381 0.2173-0.804 0.2173-1.27 0-0.46-0.071-0.875-0.213-1.244-0.1392-0.372-0.3509-0.666-0.635-0.882-0.2812-0.219-0.6349-0.328-1.061-0.328-0.4091 0-0.7529 0.103-1.0313 0.311-0.2784 0.204-0.4886 0.491-0.6307 0.861-0.142 0.366-0.213 0.794-0.213 1.282zm8.25 3.426c-0.4148 0-0.7912-0.078-1.1293-0.234-0.3381-0.159-0.6065-0.388-0.8054-0.686-0.1989-0.301-0.2983-0.665-0.2983-1.091 0-0.375 0.0739-0.679 0.2216-0.912 0.1477-0.236 0.3452-0.42 0.5923-0.554 0.2472-0.133 0.5199-0.233 0.8182-0.298 0.3011-0.068 0.6037-0.122 0.9077-0.162 0.3977-0.051 0.7201-0.09 0.9673-0.115 0.25-0.029 0.4318-0.075 0.5455-0.141 0.1164-0.065 0.1747-0.179 0.1747-0.341v-0.034c0-0.42-0.1151-0.747-0.3452-0.98-0.2273-0.233-0.5724-0.349-1.0355-0.349-0.4801 0-0.8565 0.105-1.1293 0.315-0.2727 0.21-0.4645 0.435-0.5753 0.673l-0.9545-0.341c0.1705-0.397 0.3977-0.707 0.6818-0.929 0.2869-0.224 0.5994-0.38 0.9375-0.468 0.3409-0.091 0.6762-0.137 1.0057-0.137 0.2102 0 0.4517 0.026 0.7244 0.077 0.2756 0.048 0.5412 0.149 0.7969 0.303 0.2585 0.153 0.473 0.385 0.6435 0.694 0.1704 0.31 0.2557 0.725 0.2557 1.245v4.312h-1.0057v-0.886h-0.0512c-0.0681 0.142-0.1818 0.294-0.3409 0.456s-0.3707 0.299-0.6349 0.413-0.5867 0.17-0.9673 0.17zm0.1534-0.903c0.3977 0 0.7329-0.078 1.0056-0.234 0.2756-0.157 0.483-0.358 0.6222-0.605 0.142-0.248 0.2131-0.508 0.2131-0.78v-0.921c-0.0426 0.051-0.1364 0.098-0.2813 0.141-0.142 0.04-0.3068 0.075-0.4943 0.106-0.1847 0.029-0.3651 0.054-0.5412 0.077-0.1733 0.02-0.3139 0.037-0.4219 0.051-0.2613 0.034-0.5056 0.09-0.7329 0.166-0.2245 0.074-0.4063 0.186-0.5455 0.337-0.1363 0.148-0.2045 0.349-0.2045 0.605 0 0.35 0.1292 0.614 0.3878 0.793 0.2613 0.176 0.5923 0.264 0.9929 0.264zm4.6821 3.205v-9h0.9716v1.039h0.1193c0.0739-0.113 0.1762-0.258 0.3069-0.434 0.1335-0.179 0.3238-0.338 0.571-0.478 0.25-0.142 0.5881-0.213 1.0142-0.213 0.5511 0 1.0369 0.138 1.4574 0.414 0.4204 0.275 0.7486 0.666 0.9844 1.172 0.2357 0.505 0.3536 1.102 0.3536 1.789 0 0.694-0.1179 1.294-0.3536 1.803-0.2358 0.506-0.5625 0.898-0.9802 1.176-0.4176 0.276-0.8991 0.413-1.4446 0.413-0.4204 0-0.7571-0.069-1.0099-0.208-0.2528-0.142-0.4475-0.303-0.5838-0.482-0.1364-0.182-0.2415-0.332-0.3154-0.452h-0.0852v3.461h-1.0057zm0.9887-5.728c0 0.495 0.0724 0.931 0.2173 1.309 0.1449 0.375 0.3565 0.669 0.6349 0.882 0.2785 0.21 0.6194 0.315 1.0228 0.315 0.4204 0 0.7713-0.111 1.0525-0.332 0.2841-0.225 0.4972-0.526 0.6392-0.904 0.1449-0.381 0.2174-0.804 0.2174-1.27 0-0.46-0.0711-0.875-0.2131-1.244-0.1392-0.372-0.3509-0.666-0.6349-0.882-0.2813-0.219-0.635-0.328-1.0611-0.328-0.4091 0-0.7529 0.103-1.0313 0.311-0.2784 0.204-0.4886 0.491-0.6307 0.861-0.142 0.366-0.213 0.794-0.213 1.282zm9.0682 3.409c-0.6307 0-1.1748-0.139-1.6321-0.417-0.4546-0.281-0.8054-0.674-1.0526-1.176-0.2443-0.506-0.3665-1.094-0.3665-1.765 0-0.67 0.1222-1.261 0.3665-1.772 0.2472-0.515 0.5909-0.915 1.0312-1.202 0.4432-0.29 0.9603-0.435 1.5512-0.435 0.3409 0 0.6775 0.057 1.0099 0.171 0.3324 0.113 0.635 0.298 0.9077 0.554 0.2727 0.253 0.4901 0.588 0.652 1.005 0.1619 0.418 0.2429 0.932 0.2429 1.543v0.426h-5.0455v-0.869h4.0228c0-0.369-0.0739-0.699-0.2216-0.989-0.1449-0.29-0.3523-0.518-0.6222-0.686-0.267-0.167-0.5824-0.251-0.946-0.251-0.4006 0-0.7472 0.099-1.0398 0.298-0.2898 0.196-0.5128 0.452-0.669 0.767-0.1563 0.315-0.2344 0.653-0.2344 1.014v0.58c0 0.494 0.0852 0.913 0.2557 1.257 0.1733 0.341 0.4133 0.601 0.7202 0.78 0.3068 0.176 0.6633 0.264 1.0696 0.264 0.2642 0 0.5028-0.037 0.7159-0.111 0.2159-0.077 0.402-0.19 0.5582-0.341 0.1563-0.153 0.277-0.344 0.3622-0.571l0.9716 0.273c-0.1023 0.329-0.2741 0.619-0.5156 0.869-0.2415 0.247-0.5398 0.441-0.8949 0.58-0.3551 0.136-0.7543 0.204-1.1974 0.204zm4.24-0.136v-6.545h0.9716v0.988h0.0682c0.1193-0.324 0.3352-0.586 0.6477-0.788s0.6648-0.303 1.0568-0.303c0.0739 0 0.1662 2e-3 0.277 5e-3 0.1108 2e-3 0.1946 7e-3 0.2514 0.012v1.023c-0.0341-8e-3 -0.1122-0.021-0.2343-0.038-0.1194-0.02-0.2458-0.03-0.3793-0.03-0.3182 0-0.6023 0.067-0.8523 0.2-0.2471 0.131-0.4432 0.313-0.588 0.546-0.1421 0.23-0.2131 0.492-0.2131 0.788v4.142h-1.0057zm5.2149-1.193-0.0682 0.46c-0.0483 0.324-0.1222 0.671-0.2216 1.04-0.0966 0.369-0.1975 0.717-0.3026 1.044s-0.1917 0.587-0.2599 0.78h-0.7671c0.037-0.182 0.0853-0.422 0.1449-0.72 0.0597-0.299 0.1193-0.633 0.179-1.002 0.0625-0.366 0.1136-0.741 0.1534-1.125l0.0511-0.477h1.091zm5.2382 1.193v-6.545h0.9716v0.988h0.0682c0.1193-0.324 0.3352-0.586 0.6477-0.788s0.6648-0.303 1.0569-0.303c0.0738 0 0.1661 2e-3 0.2769 5e-3 0.1108 2e-3 0.1946 7e-3 0.2515 0.012v1.023c-0.0341-8e-3 -0.1123-0.021-0.2344-0.038-0.1193-0.02-0.2458-0.03-0.3793-0.03-0.3182 0-0.6022 0.067-0.8522 0.2-0.2472 0.131-0.4432 0.313-0.5881 0.546-0.1421 0.23-0.2131 0.492-0.2131 0.788v4.142h-1.0057zm7.01 0.136c-0.6307 0-1.1747-0.139-1.6321-0.417-0.4546-0.281-0.8054-0.674-1.0526-1.176-0.2443-0.506-0.3665-1.094-0.3665-1.765 0-0.67 0.1222-1.261 0.3665-1.772 0.2472-0.515 0.5909-0.915 1.0313-1.202 0.4432-0.29 0.9602-0.435 1.5511-0.435 0.3409 0 0.6776 0.057 1.0099 0.171 0.3324 0.113 0.635 0.298 0.9077 0.554 0.2727 0.253 0.4901 0.588 0.652 1.005 0.1619 0.418 0.2429 0.932 0.2429 1.543v0.426h-5.0454v-0.869h4.0227c0-0.369-0.0739-0.699-0.2216-0.989-0.1449-0.29-0.3523-0.518-0.6222-0.686-0.267-0.167-0.5824-0.251-0.946-0.251-0.4006 0-0.7472 0.099-1.0398 0.298-0.2897 0.196-0.5128 0.452-0.669 0.767-0.1563 0.315-0.2344 0.653-0.2344 1.014v0.58c0 0.494 0.0853 0.913 0.2557 1.257 0.1733 0.341 0.4134 0.601 0.7202 0.78 0.3068 0.176 0.6633 0.264 1.0696 0.264 0.2642 0 0.5028-0.037 0.7159-0.111 0.2159-0.077 0.402-0.19 0.5582-0.341 0.1563-0.153 0.277-0.344 0.3622-0.571l0.9716 0.273c-0.1022 0.329-0.2741 0.619-0.5156 0.869-0.2415 0.247-0.5398 0.441-0.8949 0.58-0.3551 0.136-0.7542 0.204-1.1974 0.204zm6.8821 2.455c-0.4858 0-0.9034-0.063-1.2529-0.188-0.3494-0.122-0.6406-0.284-0.8735-0.485-0.2302-0.199-0.4134-0.412-0.5498-0.64l0.8012-0.562c0.0909 0.119 0.2059 0.256 0.3452 0.409 0.1392 0.156 0.3295 0.291 0.571 0.405 0.2443 0.116 0.5639 0.175 0.9588 0.175 0.5284 0 0.9645-0.128 1.3082-0.384 0.3438-0.256 0.5156-0.656 0.5156-1.202v-1.329h-0.0852c-0.0738 0.119-0.179 0.267-0.3153 0.443-0.1335 0.173-0.3267 0.328-0.5796 0.464-0.25 0.134-0.588 0.201-1.0142 0.201-0.5284 0-1.0028-0.125-1.4233-0.375-0.4176-0.25-0.7485-0.614-0.9929-1.091-0.2414-0.477-0.3622-1.057-0.3622-1.739 0-0.67 0.1179-1.254 0.3537-1.751 0.2358-0.5 0.5639-0.887 0.9844-1.159 0.4204-0.276 0.9062-0.414 1.4574-0.414 0.4261 0 0.7642 0.071 1.0142 0.213 0.2528 0.14 0.446 0.299 0.5795 0.478 0.1364 0.176 0.2415 0.321 0.3154 0.434h0.1022v-1.039h0.9716v6.733c0 0.562-0.1278 1.019-0.3835 1.372-0.2528 0.355-0.5937 0.615-1.0227 0.779-0.4262 0.168-0.9006 0.252-1.4233 0.252zm-0.0341-3.597c0.4034 0 0.7443-0.092 1.0227-0.277 0.2784-0.184 0.4901-0.45 0.635-0.797 0.1448-0.346 0.2173-0.761 0.2173-1.244 0-0.471-0.071-0.888-0.2131-1.248-0.142-0.361-0.3523-0.644-0.6307-0.848-0.2784-0.205-0.6221-0.307-1.0312-0.307-0.4261 0-0.7813 0.108-1.0654 0.324-0.2812 0.215-0.4928 0.505-0.6349 0.869-0.1392 0.364-0.2088 0.767-0.2088 1.21 0 0.455 0.071 0.857 0.2131 1.206 0.1449 0.347 0.3579 0.619 0.6392 0.818 0.2841 0.196 0.6363 0.294 1.0568 0.294zm4.7045 1.006v-6.545h1.0057v6.545h-1.0057zm0.5114-7.636c-0.196 0-0.3651-0.067-0.5071-0.201-0.1392-0.133-0.2088-0.294-0.2088-0.481 0-0.188 0.0696-0.348 0.2088-0.482 0.142-0.133 0.3111-0.2 0.5071-0.2s0.3636 0.067 0.5028 0.2c0.1421 0.134 0.2131 0.294 0.2131 0.482 0 0.187-0.071 0.348-0.2131 0.481-0.1392 0.134-0.3068 0.201-0.5028 0.201zm4.9954 7.772c-0.5909 0-1.1094-0.14-1.5554-0.422-0.4432-0.281-0.7898-0.674-1.0398-1.18-0.2471-0.506-0.3707-1.097-0.3707-1.773 0-0.681 0.1236-1.277 0.3707-1.785 0.25-0.509 0.5966-0.904 1.0398-1.185 0.446-0.281 0.9645-0.422 1.5554-0.422s1.1079 0.141 1.5511 0.422c0.446 0.281 0.7926 0.676 1.0398 1.185 0.25 0.508 0.375 1.104 0.375 1.785 0 0.676-0.125 1.267-0.375 1.773-0.2472 0.506-0.5938 0.899-1.0398 1.18-0.4432 0.282-0.9602 0.422-1.5511 0.422zm0-0.903c0.4488 0 0.8182-0.115 1.1079-0.345 0.2898-0.23 0.5043-0.533 0.6435-0.908s0.2088-0.781 0.2088-1.219c0-0.437-0.0696-0.845-0.2088-1.223-0.1392-0.377-0.3537-0.683-0.6435-0.916-0.2897-0.233-0.6591-0.349-1.1079-0.349-0.4489 0-0.8182 0.116-1.108 0.349-0.2897 0.233-0.5042 0.539-0.6434 0.916-0.1392 0.378-0.2088 0.786-0.2088 1.223 0 0.438 0.0696 0.844 0.2088 1.219s0.3537 0.678 0.6434 0.908c0.2898 0.23 0.6591 0.345 1.108 0.345zm5.5065-3.171v3.938h-1.0055v-6.545h0.9715v1.022h0.085c0.154-0.332 0.387-0.599 0.699-0.801 0.313-0.204 0.716-0.307 1.21-0.307 0.444 0 0.831 0.091 1.164 0.273 0.332 0.179 0.591 0.452 0.775 0.818 0.185 0.364 0.277 0.824 0.277 1.381v4.159h-1.005v-4.091c0-0.514-0.134-0.915-0.401-1.202-0.267-0.289-0.633-0.434-1.099-0.434-0.321 0-0.608 0.069-0.861 0.209-0.25 0.139-0.448 0.342-0.592 0.609-0.145 0.267-0.218 0.591-0.218 0.971zm10.65-1.142-0.903 0.256c-0.057-0.15-0.141-0.297-0.251-0.439-0.108-0.145-0.256-0.264-0.444-0.358-0.187-0.093-0.427-0.14-0.72-0.14-0.4 0-0.734 0.092-1.001 0.277-0.264 0.181-0.396 0.413-0.396 0.694 0 0.25 0.09 0.448 0.272 0.593 0.182 0.144 0.466 0.265 0.853 0.362l0.971 0.238c0.585 0.142 1.021 0.36 1.308 0.652 0.287 0.29 0.431 0.664 0.431 1.121 0 0.375-0.108 0.71-0.324 1.006-0.213 0.295-0.511 0.528-0.895 0.699-0.384 0.17-0.83 0.255-1.338 0.255-0.668 0-1.22-0.145-1.658-0.434-0.437-0.29-0.714-0.713-0.831-1.27l0.955-0.239c0.091 0.352 0.263 0.617 0.515 0.793 0.256 0.176 0.59 0.264 1.002 0.264 0.469 0 0.841-0.099 1.116-0.298 0.279-0.202 0.418-0.443 0.418-0.725 0-0.227-0.08-0.417-0.239-0.571-0.159-0.156-0.403-0.272-0.733-0.349l-1.091-0.256c-0.599-0.142-1.039-0.362-1.321-0.66-0.278-0.302-0.417-0.678-0.417-1.13 0-0.369 0.104-0.696 0.311-0.98 0.21-0.284 0.496-0.507 0.856-0.669 0.364-0.162 0.776-0.243 1.236-0.243 0.648 0 1.157 0.142 1.526 0.426 0.372 0.285 0.636 0.66 0.792 1.125zm6.935 5.233c-0.415 0-0.791-0.078-1.13-0.234-0.338-0.159-0.606-0.388-0.805-0.686-0.199-0.301-0.298-0.665-0.298-1.091 0-0.375 0.074-0.679 0.221-0.912 0.148-0.236 0.346-0.42 0.593-0.554 0.247-0.133 0.52-0.233 0.818-0.298 0.301-0.068 0.604-0.122 0.908-0.162 0.397-0.051 0.72-0.09 0.967-0.115 0.25-0.029 0.432-0.075 0.545-0.141 0.117-0.065 0.175-0.179 0.175-0.341v-0.034c0-0.42-0.115-0.747-0.345-0.98-0.227-0.233-0.573-0.349-1.036-0.349-0.48 0-0.856 0.105-1.129 0.315s-0.464 0.435-0.575 0.673l-0.955-0.341c0.171-0.397 0.398-0.707 0.682-0.929 0.287-0.224 0.6-0.38 0.938-0.468 0.341-0.091 0.676-0.137 1.005-0.137 0.211 0 0.452 0.026 0.725 0.077 0.275 0.048 0.541 0.149 0.797 0.303 0.258 0.153 0.473 0.385 0.643 0.694 0.171 0.31 0.256 0.725 0.256 1.245v4.312h-1.006v-0.886h-0.051c-0.068 0.142-0.182 0.294-0.341 0.456s-0.371 0.299-0.635 0.413-0.587 0.17-0.967 0.17zm0.153-0.903c0.398 0 0.733-0.078 1.006-0.234 0.275-0.157 0.483-0.358 0.622-0.605 0.142-0.248 0.213-0.508 0.213-0.78v-0.921c-0.043 0.051-0.136 0.098-0.281 0.141-0.142 0.04-0.307 0.075-0.495 0.106-0.184 0.029-0.365 0.054-0.541 0.077-0.173 0.02-0.314 0.037-0.422 0.051-0.261 0.034-0.505 0.09-0.733 0.166-0.224 0.074-0.406 0.186-0.545 0.337-0.136 0.148-0.205 0.349-0.205 0.605 0 0.35 0.13 0.614 0.388 0.793 0.262 0.176 0.593 0.264 0.993 0.264zm4.682 0.75v-6.545h0.972v0.988h0.068c0.119-0.324 0.335-0.586 0.648-0.788 0.312-0.202 0.665-0.303 1.057-0.303 0.074 0 0.166 2e-3 0.277 5e-3 0.11 2e-3 0.194 7e-3 0.251 0.012v1.023c-0.034-8e-3 -0.112-0.021-0.234-0.038-0.12-0.02-0.246-0.03-0.38-0.03-0.318 0-0.602 0.067-0.852 0.2-0.247 0.131-0.443 0.313-0.588 0.546-0.142 0.23-0.213 0.492-0.213 0.788v4.142h-1.006zm7.01 0.136c-0.63 0-1.174-0.139-1.632-0.417-0.454-0.281-0.805-0.674-1.052-1.176-0.245-0.506-0.367-1.094-0.367-1.765 0-0.67 0.122-1.261 0.367-1.772 0.247-0.515 0.591-0.915 1.031-1.202 0.443-0.29 0.96-0.435 1.551-0.435 0.341 0 0.678 0.057 1.01 0.171 0.332 0.113 0.635 0.298 0.908 0.554 0.272 0.253 0.49 0.588 0.652 1.005 0.162 0.418 0.243 0.932 0.243 1.543v0.426h-5.046v-0.869h4.023c0-0.369-0.074-0.699-0.222-0.989-0.145-0.29-0.352-0.518-0.622-0.686-0.267-0.167-0.582-0.251-0.946-0.251-0.401 0-0.747 0.099-1.04 0.298-0.29 0.196-0.513 0.452-0.669 0.767s-0.234 0.653-0.234 1.014v0.58c0 0.494 0.085 0.913 0.256 1.257 0.173 0.341 0.413 0.601 0.72 0.78 0.306 0.176 0.663 0.264 1.069 0.264 0.264 0 0.503-0.037 0.716-0.111 0.216-0.077 0.402-0.19 0.558-0.341 0.157-0.153 0.277-0.344 0.363-0.571l0.971 0.273c-0.102 0.329-0.274 0.619-0.515 0.869-0.242 0.247-0.54 0.441-0.895 0.58-0.355 0.136-0.755 0.204-1.198 0.204zm-111 9.784-0.9034 0.256c-0.0568-0.15-0.1406-0.297-0.2514-0.439-0.1079-0.145-0.2557-0.264-0.4432-0.358-0.1875-0.093-0.4275-0.14-0.7201-0.14-0.4006 0-0.7344 0.092-1.0015 0.277-0.2642 0.181-0.3963 0.413-0.3963 0.694 0 0.25 0.0909 0.448 0.2728 0.593 0.1818 0.144 0.4659 0.265 0.8522 0.362l0.9716 0.238c0.5852 0.142 1.0213 0.36 1.3083 0.652 0.2869 0.29 0.4304 0.664 0.4304 1.121 0 0.375-0.108 0.71-0.3239 1.006-0.2131 0.295-0.5114 0.528-0.8949 0.699-0.3835 0.17-0.8295 0.255-1.3381 0.255-0.6676 0-1.2201-0.145-1.6576-0.434-0.4375-0.29-0.7145-0.713-0.831-1.27l0.9545-0.239c0.091 0.352 0.2628 0.617 0.5157 0.793 0.2557 0.176 0.5895 0.264 1.0014 0.264 0.4687 0 0.8409-0.099 1.1165-0.298 0.2784-0.202 0.4176-0.443 0.4176-0.725 0-0.227-0.0796-0.417-0.2387-0.571-0.159-0.156-0.4034-0.272-0.7329-0.349l-1.0909-0.256c-0.5994-0.142-1.0398-0.362-1.321-0.66-0.2784-0.302-0.4177-0.678-0.4177-1.13 0-0.369 0.1037-0.696 0.3111-0.98 0.2103-0.284 0.4958-0.507 0.8566-0.669 0.3636-0.162 0.7755-0.243 1.2358-0.243 0.6477 0 1.1562 0.142 1.5255 0.426 0.3722 0.285 0.6364 0.66 0.7926 1.125zm1.6332 5.08v-6.545h1.0057v6.545h-1.0057zm0.5114-7.636c-0.1961 0-0.3651-0.067-0.5071-0.201-0.1392-0.133-0.2088-0.294-0.2088-0.481 0-0.188 0.0696-0.348 0.2088-0.482 0.142-0.133 0.311-0.2 0.5071-0.2 0.196 0 0.3636 0.067 0.5028 0.2 0.1421 0.134 0.2131 0.294 0.2131 0.482 0 0.187-0.071 0.348-0.2131 0.481-0.1392 0.134-0.3068 0.201-0.5028 0.201zm2.1488 7.636v-0.767l3.7159-4.773v-0.068h-3.5966v-0.937h4.892v0.801l-3.6136 4.738v0.068h3.7329v0.938h-5.1306zm9.2365 0.136c-0.6307 0-1.1747-0.139-1.6321-0.417-0.4546-0.281-0.8054-0.674-1.0526-1.176-0.2443-0.506-0.3665-1.094-0.3665-1.765 0-0.67 0.1222-1.261 0.3665-1.772 0.2472-0.515 0.5909-0.915 1.0313-1.202 0.4431-0.29 0.9602-0.435 1.5511-0.435 0.3409 0 0.6776 0.057 1.0099 0.171 0.3324 0.113 0.635 0.298 0.9077 0.554 0.2727 0.253 0.4901 0.588 0.652 1.005 0.1619 0.418 0.2429 0.932 0.2429 1.543v0.426h-5.0455v-0.869h4.0228c0-0.369-0.0739-0.699-0.2216-0.989-0.1449-0.29-0.3523-0.518-0.6222-0.686-0.267-0.167-0.5824-0.251-0.946-0.251-0.4006 0-0.7472 0.099-1.0398 0.298-0.2897 0.196-0.5128 0.452-0.669 0.767-0.1563 0.315-0.2344 0.653-0.2344 1.014v0.58c0 0.494 0.0852 0.913 0.2557 1.257 0.1733 0.341 0.4133 0.601 0.7202 0.78 0.3068 0.176 0.6633 0.264 1.0696 0.264 0.2642 0 0.5028-0.037 0.7159-0.111 0.2159-0.077 0.402-0.19 0.5582-0.341 0.1563-0.153 0.277-0.344 0.3622-0.571l0.9716 0.273c-0.1022 0.329-0.2741 0.619-0.5156 0.869-0.2415 0.247-0.5398 0.441-0.8949 0.58-0.3551 0.136-0.7542 0.204-1.1974 0.204zm6.7116 0c-0.5454 0-1.027-0.137-1.4446-0.413-0.4176-0.278-0.7443-0.67-0.9801-1.176-0.2358-0.509-0.3537-1.109-0.3537-1.803 0-0.687 0.1179-1.284 0.3537-1.789 0.2358-0.506 0.5639-0.897 0.9844-1.172 0.4204-0.276 0.9062-0.414 1.4574-0.414 0.4261 0 0.7627 0.071 1.0099 0.213 0.25 0.14 0.4403 0.299 0.571 0.478 0.1336 0.176 0.2372 0.321 0.3111 0.434h0.0852v-3.221h1.0057v8.727h-0.9716v-1.006h-0.1193c-0.0739 0.12-0.179 0.27-0.3153 0.452-0.1364 0.179-0.331 0.34-0.5838 0.482-0.2529 0.139-0.5895 0.208-1.01 0.208zm0.1364-0.903c0.4034 0 0.7443-0.105 1.0227-0.315 0.2784-0.213 0.4901-0.507 0.635-0.882 0.1448-0.378 0.2173-0.814 0.2173-1.309 0-0.488-0.071-0.916-0.2131-1.282-0.142-0.37-0.3523-0.657-0.6307-0.861-0.2784-0.208-0.6221-0.311-1.0312-0.311-0.4262 0-0.7813 0.109-1.0654 0.328-0.2812 0.216-0.4929 0.51-0.6349 0.882-0.1392 0.369-0.2088 0.784-0.2088 1.244 0 0.466 0.071 0.889 0.2131 1.27 0.1448 0.378 0.3579 0.679 0.6392 0.904 0.2841 0.221 0.6363 0.332 1.0568 0.332zm8.3565 0.767v-8.727h1.0057v3.221h0.0852c0.0739-0.113 0.1762-0.258 0.3068-0.434 0.1336-0.179 0.3239-0.338 0.5711-0.478 0.25-0.142 0.588-0.213 1.0142-0.213 0.5511 0 1.0369 0.138 1.4574 0.414 0.4204 0.275 0.7485 0.666 0.9843 1.172 0.2358 0.505 0.3537 1.102 0.3537 1.789 0 0.694-0.1179 1.294-0.3537 1.803-0.2358 0.506-0.5625 0.898-0.9801 1.176-0.4176 0.276-0.8991 0.413-1.4446 0.413-0.4204 0-0.7571-0.069-1.0099-0.208-0.2529-0.142-0.4475-0.303-0.5838-0.482-0.1364-0.182-0.2415-0.332-0.3154-0.452h-0.1193v1.006h-0.9716zm0.9887-3.273c0 0.495 0.0724 0.931 0.2173 1.309 0.1449 0.375 0.3565 0.669 0.6349 0.882 0.2784 0.21 0.6193 0.315 1.0228 0.315 0.4204 0 0.7713-0.111 1.0525-0.332 0.2841-0.225 0.4972-0.526 0.6392-0.904 0.1449-0.381 0.2173-0.804 0.2173-1.27 0-0.46-0.071-0.875-0.213-1.244-0.1392-0.372-0.3509-0.666-0.635-0.882-0.2812-0.219-0.6349-0.328-1.061-0.328-0.4091 0-0.7529 0.103-1.0313 0.311-0.2784 0.204-0.4886 0.491-0.6307 0.861-0.142 0.366-0.213 0.794-0.213 1.282zm8.2542 3.426c-0.4148 0-0.7912-0.078-1.1292-0.234-0.3381-0.159-0.6066-0.388-0.8054-0.686-0.1989-0.301-0.2983-0.665-0.2983-1.091 0-0.375 0.0738-0.679 0.2215-0.912 0.1478-0.236 0.3452-0.42 0.5924-0.554 0.2471-0.133 0.5199-0.233 0.8182-0.298 0.3011-0.068 0.6037-0.122 0.9076-0.162 0.3978-0.051 0.7202-0.09 0.9674-0.115 0.25-0.029 0.4318-0.075 0.5454-0.141 0.1165-0.065 0.1747-0.179 0.1747-0.341v-0.034c0-0.42-0.115-0.747-0.3451-0.98-0.2273-0.233-0.5725-0.349-1.0356-0.349-0.4801 0-0.8565 0.105-1.1292 0.315s-0.4645 0.435-0.5753 0.673l-0.9545-0.341c0.1704-0.397 0.3977-0.707 0.6818-0.929 0.2869-0.224 0.5994-0.38 0.9375-0.468 0.3409-0.091 0.6761-0.137 1.0057-0.137 0.2102 0 0.4517 0.026 0.7244 0.077 0.2756 0.048 0.5412 0.149 0.7969 0.303 0.2585 0.153 0.473 0.385 0.6434 0.694 0.1705 0.31 0.2557 0.725 0.2557 1.245v4.312h-1.0057v-0.886h-0.0511c-0.0682 0.142-0.1818 0.294-0.3409 0.456s-0.3708 0.299-0.635 0.413-0.5866 0.17-0.9673 0.17zm0.1534-0.903c0.3977 0 0.733-0.078 1.0057-0.234 0.2756-0.157 0.483-0.358 0.6222-0.605 0.142-0.248 0.213-0.508 0.213-0.78v-0.921c-0.0426 0.051-0.1363 0.098-0.2812 0.141-0.1421 0.04-0.3068 0.075-0.4943 0.106-0.1847 0.029-0.3651 0.054-0.5412 0.077-0.1733 0.02-0.314 0.037-0.4219 0.051-0.2614 0.034-0.5057 0.09-0.733 0.166-0.2244 0.074-0.4062 0.186-0.5454 0.337-0.1364 0.148-0.2046 0.349-0.2046 0.605 0 0.35 0.1293 0.614 0.3878 0.793 0.2614 0.176 0.5924 0.264 0.9929 0.264zm9.3186-4.33-0.9035 0.256c-0.0568-0.15-0.1406-0.297-0.2514-0.439-0.1079-0.145-0.2557-0.264-0.4432-0.358-0.1875-0.093-0.4275-0.14-0.7201-0.14-0.4006 0-0.7344 0.092-1.0014 0.277-0.2642 0.181-0.3964 0.413-0.3964 0.694 0 0.25 0.091 0.448 0.2728 0.593 0.1818 0.144 0.4659 0.265 0.8522 0.362l0.9716 0.238c0.5853 0.142 1.0213 0.36 1.3083 0.652 0.2869 0.29 0.4304 0.664 0.4304 1.121 0 0.375-0.108 0.71-0.3239 1.006-0.2131 0.295-0.5114 0.528-0.8949 0.699-0.3835 0.17-0.8295 0.255-1.338 0.255-0.6677 0-1.2202-0.145-1.6577-0.434-0.4375-0.29-0.7145-0.713-0.831-1.27l0.9546-0.239c0.0909 0.352 0.2628 0.617 0.5156 0.793 0.2557 0.176 0.5895 0.264 1.0014 0.264 0.4688 0 0.8409-0.099 1.1165-0.298 0.2784-0.202 0.4176-0.443 0.4176-0.725 0-0.227-0.0795-0.417-0.2386-0.571-0.1591-0.156-0.4034-0.272-0.733-0.349l-1.0909-0.256c-0.5994-0.142-1.0398-0.362-1.321-0.66-0.2784-0.302-0.4176-0.678-0.4176-1.13 0-0.369 0.1037-0.696 0.311-0.98 0.2103-0.284 0.4958-0.507 0.8566-0.669 0.3636-0.162 0.7755-0.243 1.2358-0.243 0.6477 0 1.1562 0.142 1.5255 0.426 0.3722 0.285 0.6364 0.66 0.7927 1.125zm4.3774 5.216c-0.6306 0-1.1747-0.139-1.6321-0.417-0.4545-0.281-0.8054-0.674-1.0525-1.176-0.2443-0.506-0.3665-1.094-0.3665-1.765 0-0.67 0.1222-1.261 0.3665-1.772 0.2471-0.515 0.5909-0.915 1.0312-1.202 0.4432-0.29 0.9603-0.435 1.5512-0.435 0.3409 0 0.6775 0.057 1.0099 0.171 0.3324 0.113 0.635 0.298 0.9077 0.554 0.2727 0.253 0.49 0.588 0.652 1.005 0.1619 0.418 0.2429 0.932 0.2429 1.543v0.426h-5.0455v-0.869h4.0227c0-0.369-0.0738-0.699-0.2215-0.989-0.1449-0.29-0.3523-0.518-0.6222-0.686-0.2671-0.167-0.5824-0.251-0.946-0.251-0.4006 0-0.7472 0.099-1.0398 0.298-0.2898 0.196-0.5128 0.452-0.669 0.767-0.1563 0.315-0.2344 0.653-0.2344 1.014v0.58c0 0.494 0.0852 0.913 0.2557 1.257 0.1733 0.341 0.4133 0.601 0.7201 0.78 0.3069 0.176 0.6634 0.264 1.0696 0.264 0.2642 0 0.5029-0.037 0.716-0.111 0.2159-0.077 0.4019-0.19 0.5582-0.341 0.1562-0.153 0.277-0.344 0.3622-0.571l0.9716 0.273c-0.1023 0.329-0.2741 0.619-0.5156 0.869-0.2415 0.247-0.5398 0.441-0.8949 0.58-0.3551 0.136-0.7543 0.204-1.1975 0.204zm6.7117 0c-0.5455 0-1.027-0.137-1.4446-0.413-0.4176-0.278-0.7443-0.67-0.9801-1.176-0.2358-0.509-0.3537-1.109-0.3537-1.803 0-0.687 0.1179-1.284 0.3537-1.789 0.2358-0.506 0.5639-0.897 0.9844-1.172 0.4204-0.276 0.9062-0.414 1.4573-0.414 0.4262 0 0.7628 0.071 1.01 0.213 0.25 0.14 0.4403 0.299 0.571 0.478 0.1335 0.176 0.2372 0.321 0.3111 0.434h0.0852v-3.221h1.0057v8.727h-0.9716v-1.006h-0.1193c-0.0739 0.12-0.179 0.27-0.3154 0.452-0.1363 0.179-0.3309 0.34-0.5838 0.482-0.2528 0.139-0.5895 0.208-1.0099 0.208zm0.1364-0.903c0.4034 0 0.7443-0.105 1.0227-0.315 0.2784-0.213 0.49-0.507 0.6349-0.882 0.1449-0.378 0.2174-0.814 0.2174-1.309 0-0.488-0.0711-0.916-0.2131-1.282-0.1421-0.37-0.3523-0.657-0.6307-0.861-0.2784-0.208-0.6222-0.311-1.0312-0.311-0.4262 0-0.7813 0.109-1.0654 0.328-0.2812 0.216-0.4929 0.51-0.6349 0.882-0.1392 0.369-0.2088 0.784-0.2088 1.244 0 0.466 0.071 0.889 0.213 1.27 0.1449 0.378 0.358 0.679 0.6392 0.904 0.2841 0.221 0.6364 0.332 1.0569 0.332zm10.879 0.903c-0.5909 0-1.1094-0.14-1.5554-0.422-0.4432-0.281-0.7898-0.674-1.0398-1.18-0.2471-0.506-0.3707-1.097-0.3707-1.773 0-0.681 0.1236-1.277 0.3707-1.785 0.25-0.509 0.5966-0.904 1.0398-1.185 0.446-0.281 0.9645-0.422 1.5554-0.422s1.108 0.141 1.5512 0.422c0.446 0.281 0.7926 0.676 1.0397 1.185 0.25 0.508 0.375 1.104 0.375 1.785 0 0.676-0.125 1.267-0.375 1.773-0.2471 0.506-0.5937 0.899-1.0397 1.18-0.4432 0.282-0.9603 0.422-1.5512 0.422zm0-0.903c0.4489 0 0.8182-0.115 1.108-0.345 0.2897-0.23 0.5042-0.533 0.6434-0.908s0.2088-0.781 0.2088-1.219c0-0.437-0.0696-0.845-0.2088-1.223-0.1392-0.377-0.3537-0.683-0.6434-0.916-0.2898-0.233-0.6591-0.349-1.108-0.349-0.4488 0-0.8182 0.116-1.1079 0.349-0.2898 0.233-0.5043 0.539-0.6435 0.916-0.1392 0.378-0.2088 0.786-0.2088 1.223 0 0.438 0.0696 0.844 0.2088 1.219s0.3537 0.678 0.6435 0.908c0.2897 0.23 0.6591 0.345 1.1079 0.345zm5.5068-3.171v3.938h-1.0057v-6.545h0.9716v1.022h0.0852c0.1534-0.332 0.3864-0.599 0.6989-0.801 0.3125-0.204 0.7159-0.307 1.2102-0.307 0.4432 0 0.831 0.091 1.1633 0.273 0.3324 0.179 0.591 0.452 0.7756 0.818 0.1847 0.364 0.277 0.824 0.277 1.381v4.159h-1.0057v-4.091c0-0.514-0.1335-0.915-0.4005-1.202-0.2671-0.289-0.6336-0.434-1.0995-0.434-0.321 0-0.6079 0.069-0.8608 0.209-0.25 0.139-0.4474 0.342-0.5923 0.609s-0.2173 0.591-0.2173 0.971zm12.236-2.607v0.852h-3.392v-0.852h3.392zm-2.404-1.569h1.006v6.239c0 0.284 0.041 0.497 0.124 0.639 0.085 0.139 0.193 0.233 0.324 0.281 0.133 0.046 0.274 0.069 0.421 0.069 0.111 0 0.202-6e-3 0.273-0.017 0.071-0.015 0.128-0.026 0.171-0.035l0.204 0.904c-0.068 0.025-0.163 0.051-0.285 0.077-0.122 0.028-0.277 0.042-0.465 0.042-0.284 0-0.562-0.061-0.835-0.183-0.27-0.122-0.494-0.308-0.673-0.558-0.176-0.25-0.265-0.566-0.265-0.946v-6.512zm5.063 4.176v3.938h-1.006v-8.727h1.006v3.204h0.085c0.154-0.338 0.384-0.606 0.691-0.805 0.309-0.202 0.721-0.303 1.235-0.303 0.446 0 0.837 0.09 1.172 0.269 0.335 0.176 0.595 0.447 0.78 0.814 0.188 0.363 0.281 0.826 0.281 1.389v4.159h-1.005v-4.091c0-0.52-0.135-0.922-0.405-1.206-0.267-0.287-0.638-0.43-1.112-0.43-0.33 0-0.625 0.069-0.887 0.209-0.258 0.139-0.463 0.342-0.613 0.609-0.148 0.267-0.222 0.591-0.222 0.971zm8.828 4.074c-0.63 0-1.174-0.139-1.632-0.417-0.454-0.281-0.805-0.674-1.052-1.176-0.245-0.506-0.367-1.094-0.367-1.765 0-0.67 0.122-1.261 0.367-1.772 0.247-0.515 0.591-0.915 1.031-1.202 0.443-0.29 0.96-0.435 1.551-0.435 0.341 0 0.678 0.057 1.01 0.171 0.333 0.113 0.635 0.298 0.908 0.554 0.273 0.253 0.49 0.588 0.652 1.005 0.162 0.418 0.243 0.932 0.243 1.543v0.426h-5.046v-0.869h4.023c0-0.369-0.074-0.699-0.222-0.989-0.145-0.29-0.352-0.518-0.622-0.686-0.267-0.167-0.582-0.251-0.946-0.251-0.4 0-0.747 0.099-1.04 0.298-0.289 0.196-0.512 0.452-0.669 0.767-0.156 0.315-0.234 0.653-0.234 1.014v0.58c0 0.494 0.085 0.913 0.256 1.257 0.173 0.341 0.413 0.601 0.72 0.78 0.307 0.176 0.663 0.264 1.069 0.264 0.265 0 0.503-0.037 0.716-0.111 0.216-0.077 0.402-0.19 0.559-0.341 0.156-0.153 0.277-0.344 0.362-0.571l0.971 0.273c-0.102 0.329-0.274 0.619-0.515 0.869-0.242 0.247-0.54 0.441-0.895 0.58-0.355 0.136-0.754 0.204-1.198 0.204zm-104.42 15.017c-0.4147 0-0.7912-0.078-1.1292-0.234-0.3381-0.159-0.6066-0.388-0.8054-0.686-0.1989-0.301-0.2983-0.665-0.2983-1.091 0-0.375 0.0738-0.679 0.2216-0.912 0.1477-0.236 0.3451-0.42 0.5923-0.554 0.2472-0.133 0.5199-0.233 0.8182-0.298 0.3011-0.068 0.6037-0.122 0.9076-0.162 0.3978-0.051 0.7202-0.09 0.9674-0.115 0.25-0.029 0.4318-0.075 0.5454-0.141 0.1165-0.065 0.1747-0.179 0.1747-0.341v-0.034c0-0.42-0.115-0.747-0.3451-0.98-0.2273-0.233-0.5725-0.349-1.0355-0.349-0.4802 0-0.8566 0.105-1.1293 0.315s-0.4645 0.435-0.5753 0.673l-0.9545-0.341c0.1704-0.397 0.3977-0.707 0.6818-0.929 0.2869-0.224 0.5994-0.38 0.9375-0.468 0.3409-0.091 0.6761-0.137 1.0057-0.137 0.2102 0 0.4517 0.026 0.7244 0.077 0.2756 0.048 0.5412 0.149 0.7969 0.303 0.2585 0.153 0.473 0.385 0.6434 0.694 0.1705 0.31 0.2557 0.725 0.2557 1.245v4.312h-1.0057v-0.886h-0.0511c-0.0682 0.142-0.1818 0.294-0.3409 0.456s-0.3707 0.299-0.6349 0.413-0.5867 0.17-0.9674 0.17zm0.1534-0.903c0.3978 0 0.733-0.078 1.0057-0.234 0.2756-0.157 0.483-0.358 0.6222-0.605 0.142-0.248 0.213-0.508 0.213-0.78v-0.921c-0.0426 0.051-0.1363 0.098-0.2812 0.141-0.1421 0.04-0.3068 0.075-0.4943 0.106-0.1847 0.029-0.3651 0.054-0.5412 0.077-0.1733 0.02-0.3139 0.037-0.4219 0.051-0.2614 0.034-0.5057 0.09-0.7329 0.166-0.2245 0.074-0.4063 0.186-0.5455 0.337-0.1364 0.148-0.2045 0.349-0.2045 0.605 0 0.35 0.1292 0.614 0.3877 0.793 0.2614 0.176 0.5924 0.264 0.9929 0.264zm4.6822 0.75v-6.545h0.9716v1.022h0.0852c0.1364-0.349 0.3566-0.62 0.6605-0.814 0.304-0.196 0.6691-0.294 1.0952-0.294 0.4318 0 0.7912 0.098 1.0781 0.294 0.2898 0.194 0.5157 0.465 0.6776 0.814h0.0682c0.1676-0.338 0.419-0.606 0.7542-0.805 0.3353-0.202 0.7372-0.303 1.206-0.303 0.5852 0 1.0639 0.184 1.4361 0.55 0.3721 0.364 0.5582 0.93 0.5582 1.7v4.381h-1.0057v-4.381c0-0.483-0.1321-0.828-0.3963-1.035-0.2642-0.208-0.5753-0.311-0.9332-0.311-0.4602 0-0.8168 0.139-1.0696 0.417-0.2529 0.276-0.3793 0.625-0.3793 1.049v4.261h-1.0227v-4.483c0-0.372-0.1207-0.672-0.3622-0.899-0.2415-0.23-0.5526-0.345-0.9333-0.345-0.2613 0-0.5056 0.069-0.7329 0.209-0.2244 0.139-0.4063 0.332-0.5455 0.579-0.1363 0.244-0.2045 0.527-0.2045 0.848v4.091h-1.0057zm13.089 0.136c-0.5909 0-1.1094-0.14-1.5554-0.422-0.4432-0.281-0.7898-0.674-1.0398-1.18-0.2471-0.506-0.3707-1.097-0.3707-1.773 0-0.681 0.1236-1.277 0.3707-1.785 0.25-0.509 0.5966-0.904 1.0398-1.185 0.446-0.281 0.9645-0.422 1.5554-0.422s1.1079 0.141 1.5511 0.422c0.446 0.281 0.7926 0.676 1.0398 1.185 0.25 0.508 0.375 1.104 0.375 1.785 0 0.676-0.125 1.267-0.375 1.773-0.2472 0.506-0.5938 0.899-1.0398 1.18-0.4432 0.282-0.9602 0.422-1.5511 0.422zm0-0.903c0.4488 0 0.8182-0.115 1.1079-0.345 0.2898-0.23 0.5043-0.533 0.6435-0.908s0.2088-0.781 0.2088-1.219c0-0.437-0.0696-0.845-0.2088-1.223-0.1392-0.377-0.3537-0.683-0.6435-0.916-0.2897-0.233-0.6591-0.349-1.1079-0.349-0.4489 0-0.8182 0.116-1.108 0.349-0.2897 0.233-0.5042 0.539-0.6434 0.916-0.1392 0.378-0.2088 0.786-0.2088 1.223 0 0.438 0.0696 0.844 0.2088 1.219s0.3537 0.678 0.6434 0.908c0.2898 0.23 0.6591 0.345 1.108 0.345zm8.6261-1.909v-3.869h1.0056v6.545h-1.0056v-1.108h-0.0682c-0.1534 0.332-0.3921 0.615-0.7159 0.848-0.3239 0.23-0.733 0.345-1.2273 0.345-0.4091 0-0.7727-0.089-1.0909-0.268-0.3182-0.182-0.5682-0.455-0.75-0.818-0.1818-0.367-0.2727-0.829-0.2727-1.385v-4.159h1.0056v4.09c0 0.478 0.1336 0.858 0.4006 1.143 0.2699 0.284 0.6136 0.426 1.0313 0.426 0.25 0 0.5042-0.064 0.7627-0.192 0.2614-0.128 0.4801-0.324 0.6563-0.588 0.179-0.264 0.2685-0.601 0.2685-1.01zm3.8533-1.262v3.938h-1.0057v-6.545h0.9716v1.022h0.0852c0.1534-0.332 0.3864-0.599 0.6989-0.801 0.3125-0.204 0.7159-0.307 1.2102-0.307 0.4432 0 0.831 0.091 1.1634 0.273 0.3324 0.179 0.5909 0.452 0.7755 0.818 0.1847 0.364 0.277 0.824 0.277 1.381v4.159h-1.0057v-4.091c0-0.514-0.1335-0.915-0.4005-1.202-0.2671-0.289-0.6335-0.434-1.0995-0.434-0.321 0-0.6079 0.069-0.8608 0.209-0.25 0.139-0.4474 0.342-0.5923 0.609s-0.2173 0.591-0.2173 0.971zm8.8604-2.607v0.852h-3.392v-0.852h3.392zm-2.4034-1.569h1.0057v6.239c0 0.284 0.0412 0.497 0.1236 0.639 0.0852 0.139 0.1932 0.233 0.3238 0.281 0.1336 0.046 0.2742 0.069 0.4219 0.069 0.1108 0 0.2017-6e-3 0.2727-0.017 0.0711-0.015 0.1279-0.026 0.1705-0.035l0.2045 0.904c-0.0681 0.025-0.1633 0.051-0.2855 0.077-0.1221 0.028-0.277 0.042-0.4645 0.042-0.284 0-0.5625-0.061-0.8352-0.183-0.2699-0.122-0.4943-0.308-0.6733-0.558-0.1761-0.25-0.2642-0.566-0.2642-0.946v-6.512zm9.9503 8.25c-0.5909 0-1.1094-0.14-1.5554-0.422-0.4432-0.281-0.7898-0.674-1.0398-1.18-0.2471-0.506-0.3707-1.097-0.3707-1.773 0-0.681 0.1236-1.277 0.3707-1.785 0.25-0.509 0.5966-0.904 1.0398-1.185 0.446-0.281 0.9645-0.422 1.5554-0.422s1.108 0.141 1.5511 0.422c0.4461 0.281 0.7927 0.676 1.0398 1.185 0.25 0.508 0.375 1.104 0.375 1.785 0 0.676-0.125 1.267-0.375 1.773-0.2471 0.506-0.5937 0.899-1.0398 1.18-0.4431 0.282-0.9602 0.422-1.5511 0.422zm0-0.903c0.4489 0 0.8182-0.115 1.108-0.345 0.2897-0.23 0.5042-0.533 0.6434-0.908s0.2088-0.781 0.2088-1.219c0-0.437-0.0696-0.845-0.2088-1.223-0.1392-0.377-0.3537-0.683-0.6434-0.916-0.2898-0.233-0.6591-0.349-1.108-0.349s-0.8182 0.116-1.1079 0.349c-0.2898 0.233-0.5043 0.539-0.6435 0.916-0.1392 0.378-0.2088 0.786-0.2088 1.223 0 0.438 0.0696 0.844 0.2088 1.219s0.3537 0.678 0.6435 0.908c0.2897 0.23 0.659 0.345 1.1079 0.345zm7.4158-5.778v0.852h-3.5284v-0.852h3.5284zm-2.4715 6.545v-7.449c0-0.375 0.088-0.687 0.2642-0.937 0.1761-0.25 0.4048-0.438 0.686-0.563 0.2813-0.125 0.5782-0.187 0.8907-0.187 0.2471 0 0.4488 0.02 0.6051 0.059 0.1562 0.04 0.2727 0.077 0.3494 0.111l-0.2898 0.869c-0.0511-0.017-0.1221-0.038-0.213-0.064-0.0881-0.025-0.2046-0.038-0.3495-0.038-0.3324 0-0.5724 0.084-0.7201 0.252-0.1449 0.167-0.2174 0.413-0.2174 0.737v7.21h-1.0056zm9.9151 0.136c-0.6137 0-1.1421-0.145-1.5852-0.434-0.4432-0.29-0.7841-0.689-1.0228-1.198-0.2386-0.508-0.3579-1.089-0.3579-1.743 0-0.664 0.1221-1.251 0.3664-1.76 0.2472-0.511 0.591-0.91 1.0313-1.197 0.4432-0.29 0.9602-0.435 1.5511-0.435 0.4603 0 0.875 0.086 1.2444 0.256 0.3693 0.17 0.6718 0.409 0.9076 0.716s0.3821 0.665 0.4389 1.074h-1.0056c-0.0767-0.299-0.2472-0.563-0.5114-0.793-0.2614-0.233-0.6136-0.349-1.0568-0.349-0.3921 0-0.7358 0.102-1.0313 0.307-0.2926 0.201-0.5213 0.487-0.686 0.856-0.162 0.367-0.2429 0.797-0.2429 1.291 0 0.506 0.0795 0.946 0.2386 1.321 0.1619 0.375 0.3892 0.666 0.6818 0.874 0.2955 0.207 0.6421 0.311 1.0398 0.311 0.2613 0 0.4986-0.045 0.7116-0.136 0.2131-0.091 0.3935-0.222 0.5412-0.392 0.1477-0.171 0.2529-0.375 0.3154-0.614h1.0056c-0.0568 0.386-0.1974 0.734-0.4218 1.044-0.2216 0.307-0.5157 0.551-0.8821 0.733-0.3637 0.179-0.787 0.268-1.2699 0.268zm6.7031 0c-0.5909 0-1.1094-0.14-1.5554-0.422-0.4432-0.281-0.7898-0.674-1.0398-1.18-0.2471-0.506-0.3707-1.097-0.3707-1.773 0-0.681 0.1236-1.277 0.3707-1.785 0.25-0.509 0.5966-0.904 1.0398-1.185 0.446-0.281 0.9645-0.422 1.5554-0.422s1.108 0.141 1.5511 0.422c0.4461 0.281 0.7927 0.676 1.0398 1.185 0.25 0.508 0.375 1.104 0.375 1.785 0 0.676-0.125 1.267-0.375 1.773-0.2471 0.506-0.5937 0.899-1.0398 1.18-0.4431 0.282-0.9602 0.422-1.5511 0.422zm0-0.903c0.4489 0 0.8182-0.115 1.108-0.345 0.2897-0.23 0.5042-0.533 0.6434-0.908s0.2088-0.781 0.2088-1.219c0-0.437-0.0696-0.845-0.2088-1.223-0.1392-0.377-0.3537-0.683-0.6434-0.916-0.2898-0.233-0.6591-0.349-1.108-0.349s-0.8182 0.116-1.1079 0.349c-0.2898 0.233-0.5043 0.539-0.6435 0.916-0.1392 0.378-0.2088 0.786-0.2088 1.223 0 0.438 0.0696 0.844 0.2088 1.219s0.3537 0.678 0.6435 0.908c0.2897 0.23 0.659 0.345 1.1079 0.345zm9.619-5.778-2.4205 6.545h-1.0227l-2.4205-6.545h1.0909l1.8069 5.215h0.0681l1.8069-5.215h1.0909zm3.8373 6.681c-0.6307 0-1.1747-0.139-1.6321-0.417-0.4545-0.281-0.8054-0.674-1.0525-1.176-0.2444-0.506-0.3665-1.094-0.3665-1.765 0-0.67 0.1221-1.261 0.3665-1.772 0.2471-0.515 0.5909-0.915 1.0312-1.202 0.4432-0.29 0.9602-0.435 1.5512-0.435 0.3409 0 0.6775 0.057 1.0099 0.171 0.3324 0.113 0.6349 0.298 0.9077 0.554 0.2727 0.253 0.49 0.588 0.652 1.005 0.1619 0.418 0.2429 0.932 0.2429 1.543v0.426h-5.0455v-0.869h4.0227c0-0.369-0.0738-0.699-0.2216-0.989-0.1449-0.29-0.3522-0.518-0.6221-0.686-0.2671-0.167-0.5824-0.251-0.946-0.251-0.4006 0-0.7472 0.099-1.0398 0.298-0.2898 0.196-0.5128 0.452-0.6691 0.767-0.1562 0.315-0.2343 0.653-0.2343 1.014v0.58c0 0.494 0.0852 0.913 0.2557 1.257 0.1732 0.341 0.4133 0.601 0.7201 0.78 0.3068 0.176 0.6634 0.264 1.0696 0.264 0.2642 0 0.5029-0.037 0.7159-0.111 0.2159-0.077 0.402-0.19 0.5583-0.341 0.1562-0.153 0.277-0.344 0.3622-0.571l0.9716 0.273c-0.1023 0.329-0.2742 0.619-0.5156 0.869-0.2415 0.247-0.5398 0.441-0.8949 0.58-0.3551 0.136-0.7543 0.204-1.1975 0.204zm4.2401-0.136v-6.545h0.9712v0.988h0.069c0.119-0.324 0.335-0.586 0.647-0.788 0.313-0.202 0.665-0.303 1.057-0.303 0.074 0 0.166 2e-3 0.277 5e-3 0.111 2e-3 0.195 7e-3 0.252 0.012v1.023c-0.035-8e-3 -0.113-0.021-0.235-0.038-0.119-0.02-0.246-0.03-0.379-0.03-0.318 0-0.602 0.067-0.852 0.2-0.248 0.131-0.444 0.313-0.588 0.546-0.143 0.23-0.214 0.492-0.214 0.788v4.142h-1.0052zm6.3912 0.153c-0.415 0-0.791-0.078-1.129-0.234-0.339-0.159-0.607-0.388-0.806-0.686-0.199-0.301-0.298-0.665-0.298-1.091 0-0.375 0.074-0.679 0.221-0.912 0.148-0.236 0.346-0.42 0.593-0.554 0.247-0.133 0.52-0.233 0.818-0.298 0.301-0.068 0.604-0.122 0.908-0.162 0.397-0.051 0.72-0.09 0.967-0.115 0.25-0.029 0.432-0.075 0.545-0.141 0.117-0.065 0.175-0.179 0.175-0.341v-0.034c0-0.42-0.115-0.747-0.345-0.98-0.227-0.233-0.573-0.349-1.036-0.349-0.48 0-0.856 0.105-1.129 0.315s-0.464 0.435-0.575 0.673l-0.955-0.341c0.171-0.397 0.398-0.707 0.682-0.929 0.287-0.224 0.6-0.38 0.938-0.468 0.341-0.091 0.676-0.137 1.005-0.137 0.211 0 0.452 0.026 0.725 0.077 0.275 0.048 0.541 0.149 0.797 0.303 0.258 0.153 0.473 0.385 0.643 0.694 0.171 0.31 0.256 0.725 0.256 1.245v4.312h-1.006v-0.886h-0.051c-0.068 0.142-0.182 0.294-0.341 0.456s-0.371 0.299-0.635 0.413-0.587 0.17-0.967 0.17zm0.153-0.903c0.398 0 0.733-0.078 1.006-0.234 0.275-0.157 0.483-0.358 0.622-0.605 0.142-0.248 0.213-0.508 0.213-0.78v-0.921c-0.043 0.051-0.136 0.098-0.281 0.141-0.142 0.04-0.307 0.075-0.494 0.106-0.185 0.029-0.366 0.054-0.542 0.077-0.173 0.02-0.314 0.037-0.422 0.051-0.261 0.034-0.505 0.09-0.733 0.166-0.224 0.074-0.406 0.186-0.545 0.337-0.136 0.148-0.205 0.349-0.205 0.605 0 0.35 0.13 0.614 0.388 0.793 0.262 0.176 0.593 0.264 0.993 0.264zm7.324 3.341c-0.485 0-0.903-0.063-1.252-0.188-0.35-0.122-0.641-0.284-0.874-0.485-0.23-0.199-0.413-0.412-0.55-0.64l0.801-0.562c0.091 0.119 0.206 0.256 0.346 0.409 0.139 0.156 0.329 0.291 0.571 0.405 0.244 0.116 0.564 0.175 0.958 0.175 0.529 0 0.965-0.128 1.309-0.384 0.343-0.256 0.515-0.656 0.515-1.202v-1.329h-0.085c-0.074 0.119-0.179 0.267-0.315 0.443-0.134 0.173-0.327 0.328-0.58 0.464-0.25 0.134-0.588 0.201-1.014 0.201-0.528 0-1.003-0.125-1.423-0.375-0.418-0.25-0.749-0.614-0.993-1.091-0.242-0.477-0.362-1.057-0.362-1.739 0-0.67 0.117-1.254 0.353-1.751 0.236-0.5 0.564-0.887 0.985-1.159 0.42-0.276 0.906-0.414 1.457-0.414 0.426 0 0.764 0.071 1.014 0.213 0.253 0.14 0.446 0.299 0.58 0.478 0.136 0.176 0.241 0.321 0.315 0.434h0.102v-1.039h0.972v6.733c0 0.562-0.128 1.019-0.384 1.372-0.252 0.355-0.593 0.615-1.022 0.779-0.426 0.168-0.901 0.252-1.424 0.252zm-0.034-3.597c0.404 0 0.745-0.092 1.023-0.277 0.278-0.184 0.49-0.45 0.635-0.797 0.145-0.346 0.217-0.761 0.217-1.244 0-0.471-0.071-0.888-0.213-1.248-0.142-0.361-0.352-0.644-0.63-0.848-0.279-0.205-0.623-0.307-1.032-0.307-0.426 0-0.781 0.108-1.065 0.324-0.281 0.215-0.493 0.505-0.635 0.869-0.139 0.364-0.209 0.767-0.209 1.21 0 0.455 0.071 0.857 0.213 1.206 0.145 0.347 0.358 0.619 0.639 0.818 0.285 0.196 0.637 0.294 1.057 0.294zm7.449 1.142c-0.631 0-1.175-0.139-1.632-0.417-0.454-0.281-0.805-0.674-1.052-1.176-0.245-0.506-0.367-1.094-0.367-1.765 0-0.67 0.122-1.261 0.367-1.772 0.247-0.515 0.59-0.915 1.031-1.202 0.443-0.29 0.96-0.435 1.551-0.435 0.341 0 0.677 0.057 1.01 0.171 0.332 0.113 0.635 0.298 0.908 0.554 0.272 0.253 0.49 0.588 0.651 1.005 0.162 0.418 0.243 0.932 0.243 1.543v0.426h-5.045v-0.869h4.023c0-0.369-0.074-0.699-0.222-0.989-0.145-0.29-0.352-0.518-0.622-0.686-0.267-0.167-0.582-0.251-0.946-0.251-0.401 0-0.747 0.099-1.04 0.298-0.29 0.196-0.513 0.452-0.669 0.767s-0.234 0.653-0.234 1.014v0.58c0 0.494 0.085 0.913 0.255 1.257 0.174 0.341 0.414 0.601 0.721 0.78 0.306 0.176 0.663 0.264 1.069 0.264 0.264 0 0.503-0.037 0.716-0.111 0.216-0.077 0.402-0.19 0.558-0.341 0.157-0.153 0.277-0.344 0.363-0.571l0.971 0.273c-0.102 0.329-0.274 0.619-0.516 0.869-0.241 0.247-0.539 0.441-0.894 0.58-0.356 0.136-0.755 0.204-1.198 0.204z"/>
</svg>
