<?xml version="1.0" encoding="UTF-8"?>
<svg vwidth="136" height="161" iewBox="0 0 136 161" xmlns="http://www.w3.org/2000/svg">
<circle cx="68" cy="47" r="46.5" fill="#fff" stroke="#000"/>
<path d="m55.942 41.818v10.182h-1.2329v-8.8892h-0.0597l-2.4858 1.6506v-1.2529l2.5455-1.6903h1.2329zm6.2493 10.321c-0.749 0-1.3871-0.2038-1.9141-0.6115-0.5269-0.411-0.9296-1.0059-1.2081-1.7848-0.2784-0.7822-0.4176-1.7268-0.4176-2.8338 0-1.1004 0.1392-2.04 0.4176-2.8189 0.2818-0.7822 0.6861-1.3788 1.2131-1.7898 0.5303-0.4143 1.1667-0.6214 1.9091-0.6214s1.3771 0.2071 1.9041 0.6214c0.5303 0.411 0.9347 1.0076 1.2131 1.7898 0.2817 0.7789 0.4226 1.7185 0.4226 2.8189 0 1.107-0.1392 2.0516-0.4176 2.8338-0.2784 0.7789-0.6811 1.3738-1.2081 1.7848-0.527 0.4077-1.165 0.6115-1.9141 0.6115zm0-1.0937c0.7424 0 1.3191-0.358 1.7301-1.0739s0.6165-1.7368 0.6165-3.0625c0-0.8816-0.0945-1.6323-0.2834-2.2521-0.1856-0.6198-0.4541-1.0921-0.8054-1.4169-0.348-0.3249-0.7673-0.4873-1.2578-0.4873-0.7358 0-1.3108 0.363-1.7251 1.0888-0.4143 0.7226-0.6215 1.745-0.6215 3.0675 0 0.8816 0.0928 1.6307 0.2784 2.2471 0.1856 0.6165 0.4524 1.0855 0.8005 1.407 0.3513 0.3215 0.7739 0.4823 1.2677 0.4823zm8.75 1.0937c-0.749 0-1.3871-0.2038-1.9141-0.6115-0.5269-0.411-0.9296-1.0059-1.2081-1.7848-0.2784-0.7822-0.4176-1.7268-0.4176-2.8338 0-1.1004 0.1392-2.04 0.4176-2.8189 0.2818-0.7822 0.6861-1.3788 1.2131-1.7898 0.5303-0.4143 1.1667-0.6214 1.9091-0.6214s1.3771 0.2071 1.9041 0.6214c0.5303 0.411 0.9347 1.0076 1.2131 1.7898 0.2817 0.7789 0.4226 1.7185 0.4226 2.8189 0 1.107-0.1392 2.0516-0.4176 2.8338-0.2784 0.7789-0.6811 1.3738-1.2081 1.7848-0.527 0.4077-1.165 0.6115-1.9141 0.6115zm0-1.0937c0.7424 0 1.3191-0.358 1.7301-1.0739s0.6165-1.7368 0.6165-3.0625c0-0.8816-0.0945-1.6323-0.2834-2.2521-0.1856-0.6198-0.4541-1.0921-0.8054-1.4169-0.348-0.3249-0.7673-0.4873-1.2578-0.4873-0.7358 0-1.3108 0.363-1.7251 1.0888-0.4143 0.7226-0.6215 1.745-0.6215 3.0675 0 0.8816 0.0928 1.6307 0.2784 2.2471 0.1856 0.6165 0.4524 1.0855 0.8005 1.407 0.3513 0.3215 0.7739 0.4823 1.2677 0.4823zm10.619-0.9546v-0.5369c0-0.3712 0.0763-0.711 0.2287-1.0192 0.1558-0.3116 0.3812-0.5601 0.6762-0.7457 0.2982-0.189 0.6595-0.2834 1.0838-0.2834 0.4308 0 0.7921 0.0944 1.0838 0.2834 0.2916 0.1856 0.512 0.4341 0.6612 0.7457 0.1491 0.3082 0.2237 0.648 0.2237 1.0192v0.5369c0 0.3712-0.0762 0.7126-0.2287 1.0242-0.1491 0.3082-0.3712 0.5568-0.6662 0.7457-0.2916 0.1856-0.6496 0.2784-1.0738 0.2784-0.4309 0-0.7938-0.0928-1.0888-0.2784-0.295-0.1889-0.5187-0.4375-0.6712-0.7457-0.1524-0.3116-0.2287-0.653-0.2287-1.0242zm1.0142-0.5369v0.5369c0 0.3082 0.0729 0.585 0.2188 0.8303 0.1458 0.2419 0.3977 0.3629 0.7557 0.3629 0.348 0 0.5932-0.121 0.7358-0.3629 0.1458-0.2453 0.2187-0.5221 0.2187-0.8303v-0.5369c0-0.3083-0.0696-0.5834-0.2088-0.8253-0.1392-0.2453-0.3878-0.3679-0.7457-0.3679-0.3481 0-0.5983 0.1226-0.7507 0.3679-0.1492 0.2419-0.2238 0.517-0.2238 0.8253zm-6.0852-5.2898v-0.5369c0-0.3712 0.0762-0.711 0.2287-1.0192 0.1558-0.3116 0.3812-0.5601 0.6761-0.7457 0.2983-0.189 0.6596-0.2834 1.0838-0.2834 0.4309 0 0.7922 0.0944 1.0838 0.2834 0.2917 0.1856 0.5121 0.4341 0.6613 0.7457 0.1491 0.3082 0.2237 0.648 0.2237 1.0192v0.5369c0 0.3712-0.0762 0.7126-0.2287 1.0242-0.1492 0.3082-0.3712 0.5568-0.6662 0.7457-0.2917 0.1856-0.6496 0.2784-1.0739 0.2784-0.4308 0-0.7938-0.0928-1.0887-0.2784-0.295-0.1889-0.5187-0.4375-0.6712-0.7457-0.1525-0.3116-0.2287-0.653-0.2287-1.0242zm1.0142-0.5369v0.5369c0 0.3082 0.0729 0.585 0.2188 0.8303 0.1458 0.2419 0.3977 0.3629 0.7556 0.3629 0.348 0 0.5933-0.121 0.7358-0.3629 0.1459-0.2453 0.2188-0.5221 0.2188-0.8303v-0.5369c0-0.3083-0.0696-0.5834-0.2088-0.8253-0.1392-0.2453-0.3878-0.3679-0.7458-0.3679-0.348 0-0.5982 0.1226-0.7507 0.3679-0.1491 0.2419-0.2237 0.517-0.2237 0.8253zm-0.6364 8.2727 7-10.182h1.1336l-7 10.182h-1.1336z"/>
<path d="m8.31 117.21v-0.937h6.5455v0.937h-2.7443v7.79h-1.0569v-7.79h-2.7443zm9.0458 3.852v3.938h-1.0057v-8.727h1.0057v3.204h0.0853c0.1534-0.338 0.3835-0.606 0.6903-0.805 0.3097-0.202 0.7216-0.303 1.2358-0.303 0.446 0 0.8366 0.09 1.1719 0.269 0.3352 0.176 0.5951 0.447 0.7798 0.814 0.1875 0.363 0.2812 0.826 0.2812 1.389v4.159h-1.0056v-4.091c0-0.52-0.135-0.922-0.4049-1.206-0.267-0.287-0.6378-0.43-1.1122-0.43-0.3295 0-0.625 0.069-0.8863 0.209-0.2586 0.139-0.4631 0.342-0.6137 0.609-0.1477 0.267-0.2216 0.591-0.2216 0.971zm6.0842 3.938v-6.545h1.0057v6.545h-1.0057zm0.5113-7.636c-0.196 0-0.365-0.067-0.5071-0.201-0.1392-0.133-0.2088-0.294-0.2088-0.481 0-0.188 0.0696-0.348 0.2088-0.482 0.1421-0.133 0.3111-0.2 0.5071-0.2 0.1961 0 0.3637 0.067 0.5029 0.2 0.142 0.134 0.2131 0.294 0.2131 0.482 0 0.187-0.0711 0.348-0.2131 0.481-0.1392 0.134-0.3068 0.201-0.5029 0.201zm6.9727 2.556-0.9034 0.256c-0.0568-0.15-0.1406-0.297-0.2514-0.439-0.108-0.145-0.2557-0.264-0.4432-0.358-0.1875-0.093-0.4276-0.14-0.7202-0.14-0.4005 0-0.7344 0.092-1.0014 0.277-0.2642 0.181-0.3963 0.413-0.3963 0.694 0 0.25 0.0909 0.448 0.2727 0.593 0.1818 0.144 0.4659 0.265 0.8523 0.362l0.9716 0.238c0.5852 0.142 1.0213 0.36 1.3082 0.652 0.287 0.29 0.4304 0.664 0.4304 1.121 0 0.375-0.1079 0.71-0.3238 1.006-0.2131 0.295-0.5114 0.528-0.8949 0.699-0.3835 0.17-0.8296 0.255-1.3381 0.255-0.6676 0-1.2202-0.145-1.6577-0.434-0.4375-0.29-0.7145-0.713-0.8309-1.27l0.9545-0.239c0.0909 0.352 0.2628 0.617 0.5156 0.793 0.2557 0.176 0.5895 0.264 1.0015 0.264 0.4687 0 0.8409-0.099 1.1164-0.298 0.2784-0.202 0.4177-0.443 0.4177-0.725 0-0.227-0.0796-0.417-0.2387-0.571-0.1591-0.156-0.4034-0.272-0.7329-0.349l-1.0909-0.256c-0.5995-0.142-1.0398-0.362-1.3211-0.66-0.2784-0.302-0.4176-0.678-0.4176-1.13 0-0.369 0.1037-0.696 0.3111-0.98 0.2102-0.284 0.4957-0.507 0.8565-0.669 0.3637-0.162 0.7756-0.243 1.2358-0.243 0.6478 0 1.1563 0.142 1.5256 0.426 0.3722 0.285 0.6364 0.66 0.7926 1.125zm5.0082 5.08v-6.545h1.0057v6.545h-1.0057zm0.5113-7.636c-0.196 0-0.365-0.067-0.5071-0.201-0.1392-0.133-0.2088-0.294-0.2088-0.481 0-0.188 0.0696-0.348 0.2088-0.482 0.1421-0.133 0.3111-0.2 0.5071-0.2 0.1961 0 0.3637 0.067 0.5029 0.2 0.142 0.134 0.213 0.294 0.213 0.482 0 0.187-0.071 0.348-0.213 0.481-0.1392 0.134-0.3068 0.201-0.5029 0.201zm6.9727 2.556-0.9034 0.256c-0.0568-0.15-0.1406-0.297-0.2514-0.439-0.108-0.145-0.2557-0.264-0.4432-0.358-0.1875-0.093-0.4276-0.14-0.7202-0.14-0.4006 0-0.7344 0.092-1.0014 0.277-0.2642 0.181-0.3963 0.413-0.3963 0.694 0 0.25 0.0909 0.448 0.2727 0.593 0.1818 0.144 0.4659 0.265 0.8523 0.362l0.9716 0.238c0.5852 0.142 1.0213 0.36 1.3082 0.652 0.2869 0.29 0.4304 0.664 0.4304 1.121 0 0.375-0.1079 0.71-0.3239 1.006-0.213 0.295-0.5113 0.528-0.8948 0.699-0.3836 0.17-0.8296 0.255-1.3381 0.255-0.6676 0-1.2202-0.145-1.6577-0.434-0.4375-0.29-0.7145-0.713-0.8309-1.27l0.9545-0.239c0.0909 0.352 0.2628 0.617 0.5156 0.793 0.2557 0.176 0.5895 0.264 1.0014 0.264 0.4688 0 0.841-0.099 1.1165-0.298 0.2784-0.202 0.4176-0.443 0.4176-0.725 0-0.227-0.0795-0.417-0.2386-0.571-0.1591-0.156-0.4034-0.272-0.733-0.349l-1.0909-0.256c-0.5994-0.142-1.0397-0.362-1.321-0.66-0.2784-0.302-0.4176-0.678-0.4176-1.13 0-0.369 0.1037-0.696 0.3111-0.98 0.2102-0.284 0.4957-0.507 0.8565-0.669 0.3637-0.162 0.7756-0.243 1.2358-0.243 0.6477 0 1.1563 0.142 1.5256 0.426 0.3721 0.285 0.6363 0.66 0.7926 1.125zm7.8548-1.465v0.852h-3.3921v-0.852h3.3921zm-2.4035-1.569h1.0057v6.239c0 0.284 0.0412 0.497 0.1236 0.639 0.0852 0.139 0.1932 0.233 0.3239 0.281 0.1335 0.046 0.2741 0.069 0.4218 0.069 0.1108 0 0.2017-6e-3 0.2728-0.017 0.071-0.015 0.1278-0.026 0.1704-0.035l0.2046 0.904c-0.0682 0.025-0.1634 0.051-0.2855 0.077-0.1222 0.028-0.277 0.042-0.4645 0.042-0.2841 0-0.5625-0.061-0.8353-0.183-0.2698-0.122-0.4943-0.308-0.6733-0.558-0.1761-0.25-0.2642-0.566-0.2642-0.946v-6.512zm5.0625 4.176v3.938h-1.0056v-8.727h1.0056v3.204h0.0853c0.1534-0.338 0.3835-0.606 0.6903-0.805 0.3097-0.202 0.7216-0.303 1.2358-0.303 0.446 0 0.8367 0.09 1.1719 0.269 0.3352 0.176 0.5952 0.447 0.7798 0.814 0.1875 0.363 0.2813 0.826 0.2813 1.389v4.159h-1.0057v-4.091c0-0.52-0.135-0.922-0.4049-1.206-0.267-0.287-0.6377-0.43-1.1122-0.43-0.3295 0-0.625 0.069-0.8863 0.209-0.2586 0.139-0.4631 0.342-0.6137 0.609-0.1477 0.267-0.2216 0.591-0.2216 0.971zm8.8285 4.074c-0.6307 0-1.1747-0.139-1.6321-0.417-0.4545-0.281-0.8054-0.674-1.0525-1.176-0.2444-0.506-0.3665-1.094-0.3665-1.765 0-0.67 0.1221-1.261 0.3665-1.772 0.2471-0.515 0.5909-0.915 1.0312-1.202 0.4432-0.29 0.9602-0.435 1.5511-0.435 0.341 0 0.6776 0.057 1.01 0.171 0.3324 0.113 0.6349 0.298 0.9077 0.554 0.2727 0.253 0.49 0.588 0.652 1.005 0.1619 0.418 0.2429 0.932 0.2429 1.543v0.426h-5.0455v-0.869h4.0227c0-0.369-0.0738-0.699-0.2216-0.989-0.1449-0.29-0.3522-0.518-0.6221-0.686-0.2671-0.167-0.5824-0.251-0.9461-0.251-0.4005 0-0.7471 0.099-1.0397 0.298-0.2898 0.196-0.5128 0.452-0.6691 0.767-0.1562 0.315-0.2343 0.653-0.2343 1.014v0.58c0 0.494 0.0852 0.913 0.2557 1.257 0.1732 0.341 0.4133 0.601 0.7201 0.78 0.3068 0.176 0.6634 0.264 1.0696 0.264 0.2642 0 0.5029-0.037 0.7159-0.111 0.2159-0.077 0.402-0.19 0.5583-0.341 0.1562-0.153 0.277-0.344 0.3622-0.571l0.9716 0.273c-0.1023 0.329-0.2742 0.619-0.5156 0.869-0.2415 0.247-0.5398 0.441-0.8949 0.58-0.3551 0.136-0.7543 0.204-1.1975 0.204zm10.462-6.681v0.852h-3.3921v-0.852h3.3921zm-2.4034-1.569h1.0056v6.239c0 0.284 0.0412 0.497 0.1236 0.639 0.0853 0.139 0.1932 0.233 0.3239 0.281 0.1335 0.046 0.2741 0.069 0.4219 0.069 0.1108 0 0.2017-6e-3 0.2727-0.017 0.071-0.015 0.1278-0.026 0.1704-0.035l0.2046 0.904c-0.0682 0.025-0.1634 0.051-0.2855 0.077-0.1222 0.028-0.277 0.042-0.4645 0.042-0.2841 0-0.5625-0.061-0.8352-0.183-0.2699-0.122-0.4944-0.308-0.6733-0.558-0.1762-0.25-0.2642-0.566-0.2642-0.946v-6.512zm6.5049 8.25c-0.5909 0-1.1093-0.14-1.5554-0.422-0.4431-0.281-0.7897-0.674-1.0397-1.18-0.2472-0.506-0.3708-1.097-0.3708-1.773 0-0.681 0.1236-1.277 0.3708-1.785 0.25-0.509 0.5966-0.904 1.0397-1.185 0.4461-0.281 0.9645-0.422 1.5554-0.422s1.108 0.141 1.5512 0.422c0.446 0.281 0.7926 0.676 1.0397 1.185 0.25 0.508 0.375 1.104 0.375 1.785 0 0.676-0.125 1.267-0.375 1.773-0.2471 0.506-0.5937 0.899-1.0397 1.18-0.4432 0.282-0.9603 0.422-1.5512 0.422zm0-0.903c0.4489 0 0.8182-0.115 1.108-0.345s0.5042-0.533 0.6435-0.908c0.1392-0.375 0.2088-0.781 0.2088-1.219 0-0.437-0.0696-0.845-0.2088-1.223-0.1393-0.377-0.3537-0.683-0.6435-0.916s-0.6591-0.349-1.108-0.349c-0.4488 0-0.8181 0.116-1.1079 0.349s-0.5043 0.539-0.6435 0.916c-0.1392 0.378-0.2088 0.786-0.2088 1.223 0 0.438 0.0696 0.844 0.2088 1.219s0.3537 0.678 0.6435 0.908 0.6591 0.345 1.1079 0.345zm7.3477-5.778v0.852h-3.3921v-0.852h3.3921zm-2.4034-1.569h1.0057v6.239c0 0.284 0.0412 0.497 0.1235 0.639 0.0853 0.139 0.1932 0.233 0.3239 0.281 0.1335 0.046 0.2742 0.069 0.4219 0.069 0.1108 0 0.2017-6e-3 0.2727-0.017 0.071-0.015 0.1278-0.026 0.1705-0.035l0.2045 0.904c-0.0682 0.025-0.1633 0.051-0.2855 0.077-0.1222 0.028-0.277 0.042-0.4645 0.042-0.2841 0-0.5625-0.061-0.8352-0.183-0.2699-0.122-0.4943-0.308-0.6733-0.558-0.1762-0.25-0.2642-0.566-0.2642-0.946v-6.512zm5.8423 8.267c-0.4148 0-0.7912-0.078-1.1293-0.234-0.338-0.159-0.6065-0.388-0.8053-0.686-0.1989-0.301-0.2983-0.665-0.2983-1.091 0-0.375 0.0738-0.679 0.2215-0.912 0.1478-0.236 0.3452-0.42 0.5924-0.554 0.2471-0.133 0.5199-0.233 0.8182-0.298 0.3011-0.068 0.6037-0.122 0.9076-0.162 0.3978-0.051 0.7202-0.09 0.9674-0.115 0.25-0.029 0.4318-0.075 0.5454-0.141 0.1165-0.065 0.1747-0.179 0.1747-0.341v-0.034c0-0.42-0.115-0.747-0.3451-0.98-0.2273-0.233-0.5725-0.349-1.0356-0.349-0.4801 0-0.8565 0.105-1.1292 0.315s-0.4645 0.435-0.5753 0.673l-0.9545-0.341c0.1704-0.397 0.3977-0.707 0.6818-0.929 0.2869-0.224 0.5994-0.38 0.9375-0.468 0.3409-0.091 0.6761-0.137 1.0057-0.137 0.2102 0 0.4517 0.026 0.7244 0.077 0.2756 0.048 0.5412 0.149 0.7969 0.303 0.2585 0.153 0.473 0.385 0.6434 0.694 0.1705 0.31 0.2557 0.725 0.2557 1.245v4.312h-1.0057v-0.886h-0.0511c-0.0682 0.142-0.1818 0.294-0.3409 0.456s-0.3708 0.299-0.635 0.413-0.5866 0.17-0.9673 0.17zm0.1534-0.903c0.3977 0 0.733-0.078 1.0057-0.234 0.2756-0.157 0.483-0.358 0.6222-0.605 0.142-0.248 0.213-0.508 0.213-0.78v-0.921c-0.0426 0.051-0.1363 0.098-0.2812 0.141-0.1421 0.04-0.3068 0.075-0.4943 0.106-0.1847 0.029-0.3651 0.054-0.5412 0.077-0.1733 0.02-0.314 0.037-0.4219 0.051-0.2614 0.034-0.5057 0.09-0.733 0.166-0.2244 0.074-0.4062 0.186-0.5454 0.337-0.1364 0.148-0.2046 0.349-0.2046 0.605 0 0.35 0.1293 0.614 0.3878 0.793 0.2614 0.176 0.5924 0.264 0.9929 0.264zm5.6879-7.977v8.727h-1.0057v-8.727h1.0057zm6.2224 4.789v3.938h-1.0055v-6.545h0.9715v1.022h0.085c0.154-0.332 0.387-0.599 0.699-0.801 0.313-0.204 0.716-0.307 1.21-0.307 0.444 0 0.831 0.091 1.164 0.273 0.332 0.179 0.591 0.452 0.775 0.818 0.185 0.364 0.277 0.824 0.277 1.381v4.159h-1.005v-4.091c0-0.514-0.134-0.915-0.401-1.202-0.267-0.289-0.633-0.434-1.099-0.434-0.321 0-0.608 0.069-0.861 0.209-0.25 0.139-0.448 0.342-0.592 0.609-0.145 0.267-0.218 0.591-0.218 0.971zm8.758 4.074c-0.63 0-1.174-0.139-1.632-0.417-0.454-0.281-0.805-0.674-1.052-1.176-0.245-0.506-0.367-1.094-0.367-1.765 0-0.67 0.122-1.261 0.367-1.772 0.247-0.515 0.591-0.915 1.031-1.202 0.443-0.29 0.96-0.435 1.551-0.435 0.341 0 0.678 0.057 1.01 0.171 0.332 0.113 0.635 0.298 0.908 0.554 0.272 0.253 0.49 0.588 0.652 1.005 0.162 0.418 0.243 0.932 0.243 1.543v0.426h-5.046v-0.869h4.023c0-0.369-0.074-0.699-0.222-0.989-0.145-0.29-0.352-0.518-0.622-0.686-0.267-0.167-0.582-0.251-0.946-0.251-0.4 0-0.747 0.099-1.04 0.298-0.289 0.196-0.512 0.452-0.669 0.767-0.156 0.315-0.234 0.653-0.234 1.014v0.58c0 0.494 0.085 0.913 0.256 1.257 0.173 0.341 0.413 0.601 0.72 0.78 0.307 0.176 0.663 0.264 1.069 0.264 0.265 0 0.503-0.037 0.716-0.111 0.216-0.077 0.402-0.19 0.559-0.341 0.156-0.153 0.277-0.344 0.362-0.571l0.971 0.273c-0.102 0.329-0.274 0.619-0.515 0.869-0.242 0.247-0.54 0.441-0.895 0.58-0.355 0.136-0.754 0.204-1.198 0.204zm5.723-0.136-1.994-6.545h1.057l1.415 5.011h0.068l1.398-5.011h1.073l1.381 4.994h0.068l1.415-4.994h1.057l-1.994 6.545h-0.989l-1.432-5.028h-0.102l-1.432 5.028h-0.989zm12.904-5.08-0.904 0.256c-0.056-0.15-0.14-0.297-0.251-0.439-0.108-0.145-0.256-0.264-0.443-0.358-0.188-0.093-0.428-0.14-0.72-0.14-0.401 0-0.735 0.092-1.002 0.277-0.264 0.181-0.396 0.413-0.396 0.694 0 0.25 0.091 0.448 0.273 0.593 0.181 0.144 0.466 0.265 0.852 0.362l0.972 0.238c0.585 0.142 1.021 0.36 1.308 0.652 0.287 0.29 0.43 0.664 0.43 1.121 0 0.375-0.108 0.71-0.324 1.006-0.213 0.295-0.511 0.528-0.895 0.699-0.383 0.17-0.829 0.255-1.338 0.255-0.667 0-1.22-0.145-1.657-0.434-0.438-0.29-0.715-0.713-0.831-1.27l0.954-0.239c0.091 0.352 0.263 0.617 0.516 0.793 0.256 0.176 0.589 0.264 1.001 0.264 0.469 0 0.841-0.099 1.117-0.298 0.278-0.202 0.417-0.443 0.417-0.725 0-0.227-0.079-0.417-0.238-0.571-0.159-0.156-0.404-0.272-0.733-0.349l-1.091-0.256c-0.6-0.142-1.04-0.362-1.321-0.66-0.279-0.302-0.418-0.678-0.418-1.13 0-0.369 0.104-0.696 0.311-0.98 0.211-0.284 0.496-0.507 0.857-0.669 0.363-0.162 0.775-0.243 1.236-0.243 0.647 0 1.156 0.142 1.525 0.426 0.372 0.285 0.637 0.66 0.793 1.125zm-117.83 20.216c-0.61363 0-1.142-0.145-1.5852-0.434-0.44319-0.29-0.7841-0.689-1.0227-1.198-0.23864-0.508-0.35796-1.089-0.35796-1.743 0-0.664 0.12216-1.251 0.36648-1.76 0.24716-0.511 0.59091-0.91 1.0312-1.197 0.44318-0.29 0.96023-0.435 1.5511-0.435 0.46026 0 0.87496 0.086 1.2444 0.256 0.3693 0.17 0.6718 0.409 0.9076 0.716s0.3821 0.665 0.4389 1.074h-1.0056c-0.0767-0.299-0.2472-0.563-0.5114-0.793-0.2614-0.233-0.6136-0.349-1.0568-0.349-0.39204 0-0.73579 0.102-1.0312 0.307-0.29261 0.201-0.5213 0.487-0.68608 0.856-0.16193 0.367-0.24289 0.797-0.24289 1.291 0 0.506 0.07954 0.946 0.23863 1.321 0.16193 0.375 0.38921 0.666 0.68182 0.874 0.29545 0.207 0.64205 0.311 1.0398 0.311 0.26137 0 0.49862-0.045 0.71162-0.136 0.2131-0.091 0.3935-0.222 0.5412-0.392 0.1478-0.171 0.2529-0.375 0.3154-0.614h1.0056c-0.0568 0.386-0.1974 0.734-0.4218 1.044-0.2216 0.307-0.5157 0.551-0.8821 0.733-0.3637 0.179-0.787 0.268-1.2699 0.268zm6.7031 0c-0.5909 0-1.1094-0.14-1.5554-0.422-0.4432-0.281-0.7898-0.674-1.0398-1.18-0.2471-0.506-0.3707-1.097-0.3707-1.773 0-0.681 0.1236-1.277 0.3707-1.785 0.25-0.509 0.5966-0.904 1.0398-1.185 0.446-0.281 0.9645-0.422 1.5554-0.422s1.108 0.141 1.5511 0.422c0.4461 0.281 0.7927 0.676 1.0398 1.185 0.25 0.508 0.375 1.104 0.375 1.785 0 0.676-0.125 1.267-0.375 1.773-0.2471 0.506-0.5937 0.899-1.0398 1.18-0.4431 0.282-0.9602 0.422-1.5511 0.422zm0-0.903c0.4489 0 0.8182-0.115 1.108-0.345 0.2897-0.23 0.5042-0.533 0.6434-0.908s0.2088-0.781 0.2088-1.219c0-0.437-0.0696-0.845-0.2088-1.223-0.1392-0.377-0.3537-0.683-0.6434-0.916-0.2898-0.233-0.6591-0.349-1.108-0.349s-0.8182 0.116-1.1079 0.349c-0.2898 0.233-0.5043 0.539-0.6435 0.916-0.1392 0.378-0.2088 0.786-0.2088 1.223 0 0.438 0.0696 0.844 0.2088 1.219s0.3537 0.678 0.6435 0.908c0.2897 0.23 0.659 0.345 1.1079 0.345zm9.619-5.778-2.4205 6.545h-1.0227l-2.4205-6.545h1.0909l1.8069 5.215h0.0681l1.8069-5.215h1.0909zm3.8373 6.681c-0.6307 0-1.1747-0.139-1.6321-0.417-0.4545-0.281-0.8054-0.674-1.0525-1.176-0.2443-0.506-0.3665-1.094-0.3665-1.765 0-0.67 0.1222-1.261 0.3665-1.772 0.2471-0.515 0.5909-0.915 1.0312-1.202 0.4432-0.29 0.9602-0.435 1.5512-0.435 0.3409 0 0.6775 0.057 1.0099 0.171 0.3324 0.113 0.6349 0.298 0.9077 0.554 0.2727 0.253 0.49 0.588 0.652 1.005 0.1619 0.418 0.2429 0.932 0.2429 1.543v0.426h-5.0455v-0.869h4.0227c0-0.369-0.0738-0.699-0.2216-0.989-0.1448-0.29-0.3522-0.518-0.6221-0.686-0.2671-0.167-0.5824-0.251-0.946-0.251-0.4006 0-0.7472 0.099-1.0398 0.298-0.2898 0.196-0.5128 0.452-0.6691 0.767-0.1562 0.315-0.2343 0.653-0.2343 1.014v0.58c0 0.494 0.0852 0.913 0.2557 1.257 0.1733 0.341 0.4133 0.601 0.7201 0.78 0.3068 0.176 0.6634 0.264 1.0696 0.264 0.2642 0 0.5029-0.037 0.7159-0.111 0.2159-0.077 0.402-0.19 0.5583-0.341 0.1562-0.153 0.277-0.344 0.3622-0.571l0.9716 0.273c-0.1023 0.329-0.2742 0.619-0.5156 0.869-0.2415 0.247-0.5398 0.441-0.8949 0.58-0.3551 0.136-0.7543 0.204-1.1975 0.204zm4.2401-0.136v-6.545h0.9716v0.988h0.0682c0.1193-0.324 0.3352-0.586 0.6477-0.788s0.6648-0.303 1.0568-0.303c0.0739 0 0.1662 2e-3 0.277 5e-3 0.1108 2e-3 0.1946 7e-3 0.2514 0.012v1.023c-0.0341-8e-3 -0.1122-0.021-0.2344-0.038-0.1193-0.02-0.2457-0.03-0.3792-0.03-0.3182 0-0.6023 0.067-0.8523 0.2-0.2472 0.131-0.4432 0.313-0.5881 0.546-0.142 0.23-0.213 0.492-0.213 0.788v4.142h-1.0057zm6.391 0.153c-0.4148 0-0.7912-0.078-1.1293-0.234-0.3381-0.159-0.6065-0.388-0.8054-0.686-0.1989-0.301-0.2983-0.665-0.2983-1.091 0-0.375 0.0739-0.679 0.2216-0.912 0.1477-0.236 0.3452-0.42 0.5923-0.554 0.2472-0.133 0.5199-0.233 0.8182-0.298 0.3012-0.068 0.6037-0.122 0.9077-0.162 0.3977-0.051 0.7202-0.09 0.9673-0.115 0.25-0.029 0.4318-0.075 0.5455-0.141 0.1164-0.065 0.1747-0.179 0.1747-0.341v-0.034c0-0.42-0.1151-0.747-0.3452-0.98-0.2273-0.233-0.5724-0.349-1.0355-0.349-0.4801 0-0.8565 0.105-1.1293 0.315-0.2727 0.21-0.4644 0.435-0.5752 0.673l-0.9546-0.341c0.1705-0.397 0.3977-0.707 0.6818-0.929 0.287-0.224 0.5995-0.38 0.9375-0.468 0.3409-0.091 0.6762-0.137 1.0057-0.137 0.2102 0 0.4517 0.026 0.7244 0.077 0.2756 0.048 0.5412 0.149 0.7969 0.303 0.2585 0.153 0.473 0.385 0.6435 0.694 0.1704 0.31 0.2557 0.725 0.2557 1.245v4.312h-1.0057v-0.886h-0.0512c-0.0681 0.142-0.1818 0.294-0.3409 0.456s-0.3707 0.299-0.6349 0.413-0.5867 0.17-0.9673 0.17zm0.1534-0.903c0.3977 0 0.7329-0.078 1.0057-0.234 0.2755-0.157 0.4829-0.358 0.6221-0.605 0.1421-0.248 0.2131-0.508 0.2131-0.78v-0.921c-0.0426 0.051-0.1364 0.098-0.2813 0.141-0.142 0.04-0.3068 0.075-0.4943 0.106-0.1846 0.029-0.365 0.054-0.5412 0.077-0.1733 0.02-0.3139 0.037-0.4219 0.051-0.2613 0.034-0.5056 0.09-0.7329 0.166-0.2244 0.074-0.4063 0.186-0.5455 0.337-0.1363 0.148-0.2045 0.349-0.2045 0.605 0 0.35 0.1293 0.614 0.3878 0.793 0.2613 0.176 0.5923 0.264 0.9929 0.264zm7.3242 3.341c-0.4858 0-0.9034-0.063-1.2528-0.188-0.3495-0.122-0.6407-0.284-0.8736-0.485-0.2301-0.199-0.4134-0.412-0.5497-0.64l0.8011-0.562c0.0909 0.119 0.206 0.256 0.3452 0.409 0.1392 0.156 0.3295 0.291 0.571 0.405 0.2443 0.116 0.5639 0.175 0.9588 0.175 0.5284 0 0.9645-0.128 1.3082-0.384 0.3438-0.256 0.5157-0.656 0.5157-1.202v-1.329h-0.0853c-0.0738 0.119-0.1789 0.267-0.3153 0.443-0.1335 0.173-0.3267 0.328-0.5796 0.464-0.25 0.134-0.588 0.201-1.0142 0.201-0.5284 0-1.0028-0.125-1.4233-0.375-0.4176-0.25-0.7485-0.614-0.9929-1.091-0.2414-0.477-0.3622-1.057-0.3622-1.739 0-0.67 0.1179-1.254 0.3537-1.751 0.2358-0.5 0.5639-0.887 0.9844-1.159 0.4205-0.276 0.9062-0.414 1.4574-0.414 0.4261 0 0.7642 0.071 1.0142 0.213 0.2528 0.14 0.446 0.299 0.5795 0.478 0.1364 0.176 0.2415 0.321 0.3154 0.434h0.1022v-1.039h0.9716v6.733c0 0.562-0.1278 1.019-0.3835 1.372-0.2528 0.355-0.5937 0.615-1.0227 0.779-0.4261 0.168-0.9006 0.252-1.4233 0.252zm-0.0341-3.597c0.4034 0 0.7443-0.092 1.0227-0.277 0.2784-0.184 0.4901-0.45 0.635-0.797 0.1449-0.346 0.2173-0.761 0.2173-1.244 0-0.471-0.071-0.888-0.2131-1.248-0.142-0.361-0.3522-0.644-0.6306-0.848-0.2785-0.205-0.6222-0.307-1.0313-0.307-0.4261 0-0.7812 0.108-1.0653 0.324-0.2813 0.215-0.4929 0.505-0.635 0.869-0.1392 0.364-0.2088 0.767-0.2088 1.21 0 0.455 0.071 0.857 0.2131 1.206 0.1449 0.347 0.3579 0.619 0.6392 0.818 0.2841 0.196 0.6363 0.294 1.0568 0.294zm7.4489 1.142c-0.6307 0-1.1747-0.139-1.6321-0.417-0.4546-0.281-0.8054-0.674-1.0526-1.176-0.2443-0.506-0.3665-1.094-0.3665-1.765 0-0.67 0.1222-1.261 0.3665-1.772 0.2472-0.515 0.5909-0.915 1.0313-1.202 0.4431-0.29 0.9602-0.435 1.5511-0.435 0.3409 0 0.6776 0.057 1.0099 0.171 0.3324 0.113 0.635 0.298 0.9077 0.554 0.2727 0.253 0.4901 0.588 0.652 1.005 0.1619 0.418 0.2429 0.932 0.2429 1.543v0.426h-5.0455v-0.869h4.0228c0-0.369-0.0739-0.699-0.2216-0.989-0.1449-0.29-0.3523-0.518-0.6222-0.686-0.267-0.167-0.5824-0.251-0.946-0.251-0.4006 0-0.7472 0.099-1.0398 0.298-0.2898 0.196-0.5128 0.452-0.669 0.767-0.1563 0.315-0.2344 0.653-0.2344 1.014v0.58c0 0.494 0.0852 0.913 0.2557 1.257 0.1733 0.341 0.4133 0.601 0.7202 0.78 0.3068 0.176 0.6633 0.264 1.0696 0.264 0.2642 0 0.5028-0.037 0.7159-0.111 0.2159-0.077 0.402-0.19 0.5582-0.341 0.1563-0.153 0.277-0.344 0.3622-0.571l0.9716 0.273c-0.1023 0.329-0.2741 0.619-0.5156 0.869-0.2415 0.247-0.5398 0.441-0.8949 0.58-0.3551 0.136-0.7543 0.204-1.1974 0.204zm10.462-6.681v0.852h-3.392v-0.852h3.392zm-2.4034-1.569h1.0057v6.239c0 0.284 0.0412 0.497 0.1236 0.639 0.0852 0.139 0.1931 0.233 0.3238 0.281 0.1336 0.046 0.2742 0.069 0.4219 0.069 0.1108 0 0.2017-6e-3 0.2727-0.017 0.0711-0.015 0.1279-0.026 0.1705-0.035l0.2045 0.904c-0.0681 0.025-0.1633 0.051-0.2855 0.077-0.1221 0.028-0.277 0.042-0.4645 0.042-0.2841 0-0.5625-0.061-0.8352-0.183-0.2699-0.122-0.4943-0.308-0.6733-0.558-0.1761-0.25-0.2642-0.566-0.2642-0.946v-6.512zm5.8423 8.267c-0.4147 0-0.7912-0.078-1.1292-0.234-0.3381-0.159-0.6066-0.388-0.8054-0.686-0.1989-0.301-0.2983-0.665-0.2983-1.091 0-0.375 0.0738-0.679 0.2216-0.912 0.1477-0.236 0.3451-0.42 0.5923-0.554 0.2472-0.133 0.5199-0.233 0.8182-0.298 0.3011-0.068 0.6037-0.122 0.9077-0.162 0.3977-0.051 0.7201-0.09 0.9673-0.115 0.25-0.029 0.4318-0.075 0.5454-0.141 0.1165-0.065 0.1748-0.179 0.1748-0.341v-0.034c0-0.42-0.1151-0.747-0.3452-0.98-0.2273-0.233-0.5725-0.349-1.0355-0.349-0.4801 0-0.8566 0.105-1.1293 0.315s-0.4645 0.435-0.5753 0.673l-0.9545-0.341c0.1704-0.397 0.3977-0.707 0.6818-0.929 0.2869-0.224 0.5994-0.38 0.9375-0.468 0.3409-0.091 0.6761-0.137 1.0057-0.137 0.2102 0 0.4517 0.026 0.7244 0.077 0.2756 0.048 0.5412 0.149 0.7969 0.303 0.2585 0.153 0.473 0.385 0.6435 0.694 0.1704 0.31 0.2556 0.725 0.2556 1.245v4.312h-1.0056v-0.886h-0.0512c-0.0682 0.142-0.1818 0.294-0.3409 0.456s-0.3707 0.299-0.6349 0.413-0.5867 0.17-0.9674 0.17zm0.1534-0.903c0.3978 0 0.733-0.078 1.0057-0.234 0.2756-0.157 0.483-0.358 0.6222-0.605 0.142-0.248 0.2131-0.508 0.2131-0.78v-0.921c-0.0427 0.051-0.1364 0.098-0.2813 0.141-0.142 0.04-0.3068 0.075-0.4943 0.106-0.1847 0.029-0.3651 0.054-0.5412 0.077-0.1733 0.02-0.3139 0.037-0.4219 0.051-0.2613 0.034-0.5057 0.09-0.7329 0.166-0.2245 0.074-0.4063 0.186-0.5455 0.337-0.1364 0.148-0.2045 0.349-0.2045 0.605 0 0.35 0.1292 0.614 0.3877 0.793 0.2614 0.176 0.5924 0.264 0.9929 0.264zm7.3243 3.341c-0.4858 0-0.9034-0.063-1.2529-0.188-0.3494-0.122-0.6406-0.284-0.8736-0.485-0.2301-0.199-0.4133-0.412-0.5497-0.64l0.8012-0.562c0.0909 0.119 0.2059 0.256 0.3451 0.409 0.1392 0.156 0.3296 0.291 0.5711 0.405 0.2443 0.116 0.5639 0.175 0.9588 0.175 0.5284 0 0.9645-0.128 1.3082-0.384 0.3438-0.256 0.5156-0.656 0.5156-1.202v-1.329h-0.0852c-0.0739 0.119-0.179 0.267-0.3153 0.443-0.1336 0.173-0.3267 0.328-0.5796 0.464-0.25 0.134-0.5881 0.201-1.0142 0.201-0.5284 0-1.0028-0.125-1.4233-0.375-0.4176-0.25-0.7486-0.614-0.9929-1.091-0.2415-0.477-0.3622-1.057-0.3622-1.739 0-0.67 0.1179-1.254 0.3537-1.751 0.2358-0.5 0.5639-0.887 0.9844-1.159 0.4204-0.276 0.9062-0.414 1.4574-0.414 0.4261 0 0.7642 0.071 1.0142 0.213 0.2528 0.14 0.446 0.299 0.5795 0.478 0.1364 0.176 0.2415 0.321 0.3153 0.434h0.1023v-1.039h0.9716v6.733c0 0.562-0.1278 1.019-0.3835 1.372-0.2529 0.355-0.5938 0.615-1.0227 0.779-0.4262 0.168-0.9006 0.252-1.4233 0.252zm-0.0341-3.597c0.4034 0 0.7443-0.092 1.0227-0.277 0.2784-0.184 0.4901-0.45 0.6349-0.797 0.1449-0.346 0.2174-0.761 0.2174-1.244 0-0.471-0.0711-0.888-0.2131-1.248-0.142-0.361-0.3523-0.644-0.6307-0.848-0.2784-0.205-0.6221-0.307-1.0312-0.307-0.4262 0-0.7813 0.108-1.0654 0.324-0.2812 0.215-0.4929 0.505-0.6349 0.869-0.1392 0.364-0.2088 0.767-0.2088 1.21 0 0.455 0.071 0.857 0.213 1.206 0.1449 0.347 0.358 0.619 0.6393 0.818 0.284 0.196 0.6363 0.294 1.0568 0.294zm7.3466 3.597c-0.4858 0-0.9034-0.063-1.2529-0.188-0.3494-0.122-0.6406-0.284-0.8736-0.485-0.2301-0.199-0.4133-0.412-0.5497-0.64l0.8012-0.562c0.0909 0.119 0.2059 0.256 0.3451 0.409 0.1392 0.156 0.3296 0.291 0.5711 0.405 0.2443 0.116 0.5639 0.175 0.9588 0.175 0.5284 0 0.9645-0.128 1.3082-0.384 0.3438-0.256 0.5156-0.656 0.5156-1.202v-1.329h-0.0852c-0.0739 0.119-0.179 0.267-0.3153 0.443-0.1336 0.173-0.3267 0.328-0.5796 0.464-0.25 0.134-0.5881 0.201-1.0142 0.201-0.5284 0-1.0028-0.125-1.4233-0.375-0.4176-0.25-0.7486-0.614-0.9929-1.091-0.2415-0.477-0.3622-1.057-0.3622-1.739 0-0.67 0.1179-1.254 0.3537-1.751 0.2358-0.5 0.5639-0.887 0.9844-1.159 0.4204-0.276 0.9062-0.414 1.4574-0.414 0.4261 0 0.7642 0.071 1.0142 0.213 0.2528 0.14 0.446 0.299 0.5795 0.478 0.1364 0.176 0.2415 0.321 0.3153 0.434h0.1023v-1.039h0.9716v6.733c0 0.562-0.1278 1.019-0.3835 1.372-0.2529 0.355-0.5938 0.615-1.0227 0.779-0.4262 0.168-0.9006 0.252-1.4233 0.252zm-0.0341-3.597c0.4034 0 0.7443-0.092 1.0227-0.277 0.2784-0.184 0.4901-0.45 0.6349-0.797 0.1449-0.346 0.2174-0.761 0.2174-1.244 0-0.471-0.0711-0.888-0.2131-1.248-0.142-0.361-0.3523-0.644-0.6307-0.848-0.2784-0.205-0.6221-0.307-1.0312-0.307-0.4262 0-0.7813 0.108-1.0654 0.324-0.2812 0.215-0.4929 0.505-0.6349 0.869-0.1392 0.364-0.2088 0.767-0.2088 1.21 0 0.455 0.071 0.857 0.213 1.206 0.1449 0.347 0.358 0.619 0.6393 0.818 0.284 0.196 0.6363 0.294 1.0568 0.294zm7.4488 1.142c-0.6306 0-1.1747-0.139-1.6321-0.417-0.4545-0.281-0.8054-0.674-1.0525-1.176-0.2443-0.506-0.3665-1.094-0.3665-1.765 0-0.67 0.1222-1.261 0.3665-1.772 0.2471-0.515 0.5909-0.915 1.0312-1.202 0.4432-0.29 0.9603-0.435 1.5512-0.435 0.3409 0 0.6775 0.057 1.0099 0.171 0.3324 0.113 0.6349 0.298 0.9077 0.554 0.2727 0.253 0.49 0.588 0.652 1.005 0.1619 0.418 0.2429 0.932 0.2429 1.543v0.426h-5.0455v-0.869h4.0227c0-0.369-0.0738-0.699-0.2216-0.989-0.1448-0.29-0.3522-0.518-0.6221-0.686-0.2671-0.167-0.5824-0.251-0.946-0.251-0.4006 0-0.7472 0.099-1.0398 0.298-0.2898 0.196-0.5128 0.452-0.669 0.767-0.1563 0.315-0.2344 0.653-0.2344 1.014v0.58c0 0.494 0.0852 0.913 0.2557 1.257 0.1733 0.341 0.4133 0.601 0.7201 0.78 0.3069 0.176 0.6634 0.264 1.0696 0.264 0.2642 0 0.5029-0.037 0.7159-0.111 0.216-0.077 0.402-0.19 0.5583-0.341 0.1562-0.153 0.277-0.344 0.3622-0.571l0.9716 0.273c-0.1023 0.329-0.2742 0.619-0.5156 0.869-0.2415 0.247-0.5398 0.441-0.8949 0.58-0.3551 0.136-0.7543 0.204-1.1975 0.204zm6.7117 0c-0.5455 0-1.027-0.137-1.4446-0.413-0.4176-0.278-0.7443-0.67-0.9801-1.176-0.2358-0.509-0.3537-1.109-0.3537-1.803 0-0.687 0.1179-1.284 0.3537-1.789 0.2358-0.506 0.5639-0.897 0.9843-1.172 0.4205-0.276 0.9063-0.414 1.4574-0.414 0.4262 0 0.7628 0.071 1.01 0.213 0.25 0.14 0.4403 0.299 0.571 0.478 0.1335 0.176 0.237 0.321 0.311 0.434h0.085v-3.221h1.006v8.727h-0.972v-1.006h-0.119c-0.074 0.12-0.1789 0.27-0.3153 0.452-0.1363 0.179-0.3309 0.34-0.5838 0.482-0.2528 0.139-0.5895 0.208-1.0099 0.208zm0.1363-0.903c0.4035 0 0.7444-0.105 1.0228-0.315 0.2784-0.213 0.49-0.507 0.6349-0.882 0.145-0.378 0.217-0.814 0.217-1.309 0-0.488-0.071-0.916-0.213-1.282-0.1418-0.37-0.352-0.657-0.6304-0.861-0.2784-0.208-0.6222-0.311-1.0313-0.311-0.4261 0-0.7812 0.109-1.0653 0.328-0.2812 0.216-0.4929 0.51-0.6349 0.882-0.1392 0.369-0.2088 0.784-0.2088 1.244 0 0.466 0.071 0.889 0.213 1.27 0.1449 0.378 0.358 0.679 0.6392 0.904 0.2841 0.221 0.6364 0.332 1.0568 0.332zm9.7027 0.767-1.994-6.545h1.057l1.415 5.011h0.068l1.398-5.011h1.074l1.38 4.994h0.068l1.415-4.994h1.057l-1.994 6.545h-0.989l-1.432-5.028h-0.102l-1.432 5.028h-0.989zm8.268 0v-6.545h1.005v6.545h-1.005zm0.511-7.636c-0.196 0-0.365-0.067-0.507-0.201-0.139-0.133-0.209-0.294-0.209-0.481 0-0.188 0.07-0.348 0.209-0.482 0.142-0.133 0.311-0.2 0.507-0.2s0.364 0.067 0.503 0.2c0.142 0.134 0.213 0.294 0.213 0.482 0 0.187-0.071 0.348-0.213 0.481-0.139 0.134-0.307 0.201-0.503 0.201zm5.183 1.091v0.852h-3.392v-0.852h3.392zm-2.404-1.569h1.006v6.239c0 0.284 0.041 0.497 0.124 0.639 0.085 0.139 0.193 0.233 0.323 0.281 0.134 0.046 0.275 0.069 0.422 0.069 0.111 0 0.202-6e-3 0.273-0.017 0.071-0.015 0.128-0.026 0.171-0.035l0.204 0.904c-0.068 0.025-0.163 0.051-0.285 0.077-0.123 0.028-0.277 0.042-0.465 0.042-0.284 0-0.562-0.061-0.835-0.183-0.27-0.122-0.494-0.308-0.673-0.558-0.177-0.25-0.265-0.566-0.265-0.946v-6.512zm5.063 4.176v3.938h-1.006v-8.727h1.006v3.204h0.085c0.153-0.338 0.384-0.606 0.69-0.805 0.31-0.202 0.722-0.303 1.236-0.303 0.446 0 0.837 0.09 1.172 0.269 0.335 0.176 0.595 0.447 0.78 0.814 0.187 0.363 0.281 0.826 0.281 1.389v4.159h-1.006v-4.091c0-0.52-0.134-0.922-0.404-1.206-0.267-0.287-0.638-0.43-1.113-0.43-0.329 0-0.625 0.069-0.886 0.209-0.258 0.139-0.463 0.342-0.614 0.609-0.147 0.267-0.221 0.591-0.221 0.971zm-114.58 21.529c-0.48578 0-0.90339-0.063-1.2528-0.188-0.34943-0.122-0.64062-0.284-0.87357-0.485-0.23012-0.199-0.41336-0.412-0.54972-0.64l0.80114-0.562c0.0909 0.119 0.20596 0.256 0.34517 0.409 0.1392 0.156 0.32954 0.291 0.57102 0.405 0.24432 0.116 0.56392 0.175 0.95879 0.175 0.5284 0 0.9645-0.128 1.3083-0.384 0.3437-0.256 0.5156-0.656 0.5156-1.202v-1.329h-0.0852c-0.0739 0.119-0.179 0.267-0.3154 0.443-0.1335 0.173-0.3267 0.328-0.5795 0.464-0.25 0.134-0.5881 0.201-1.0142 0.201-0.52841 0-1.0028-0.125-1.4233-0.375-0.41762-0.25-0.74858-0.614-0.9929-1.091-0.24148-0.477-0.36222-1.057-0.36222-1.739 0-0.67 0.1179-1.254 0.3537-1.751 0.23579-0.5 0.56392-0.887 0.98437-1.159 0.42045-0.276 0.90625-0.414 1.4574-0.414 0.42609 0 0.76419 0.071 1.0142 0.213 0.2529 0.14 0.446 0.299 0.5796 0.478 0.1363 0.176 0.2414 0.321 0.3153 0.434h0.1023v-1.039h0.9716v6.733c0 0.562-0.1279 1.019-0.3836 1.372-0.2528 0.355-0.5937 0.615-1.0227 0.779-0.4261 0.168-0.9006 0.252-1.4233 0.252zm-0.0341-3.597c0.4034 0 0.7443-0.092 1.0228-0.277 0.2784-0.184 0.49-0.45 0.6349-0.797 0.1449-0.346 0.2173-0.761 0.2173-1.244 0-0.471-0.071-0.888-0.213-1.248-0.1421-0.361-0.3523-0.644-0.6307-0.848-0.2784-0.205-0.6222-0.307-1.0313-0.307-0.42611 0-0.78123 0.108-1.0653 0.324-0.28125 0.215-0.49289 0.505-0.63494 0.869-0.1392 0.364-0.20881 0.767-0.20881 1.21 0 0.455 0.07103 0.857 0.21307 1.206 0.14489 0.347 0.35796 0.619 0.63921 0.818 0.28409 0.196 0.63636 0.294 1.0568 0.294zm7.4489 1.142c-0.6307 0-1.1747-0.139-1.6321-0.417-0.4546-0.281-0.8054-0.674-1.0526-1.176-0.2443-0.506-0.3664-1.094-0.3664-1.765 0-0.67 0.1221-1.261 0.3664-1.772 0.2472-0.515 0.5909-0.915 1.0313-1.202 0.4432-0.29 0.9602-0.435 1.5511-0.435 0.3409 0 0.6776 0.057 1.01 0.171 0.3323 0.113 0.6349 0.298 0.9076 0.554 0.2728 0.253 0.4901 0.588 0.652 1.005 0.1619 0.418 0.2429 0.932 0.2429 1.543v0.426h-5.0454v-0.869h4.0227c0-0.369-0.0739-0.699-0.2216-0.989-0.1449-0.29-0.3523-0.518-0.6222-0.686-0.267-0.167-0.5823-0.251-0.946-0.251-0.4006 0-0.7471 0.099-1.0398 0.298-0.2897 0.196-0.5127 0.452-0.669 0.767-0.1562 0.315-0.2344 0.653-0.2344 1.014v0.58c0 0.494 0.0853 0.913 0.2557 1.257 0.1733 0.341 0.4134 0.601 0.7202 0.78 0.3068 0.176 0.6633 0.264 1.0696 0.264 0.2642 0 0.5028-0.037 0.7159-0.111 0.2159-0.077 0.402-0.19 0.5582-0.341 0.1563-0.153 0.277-0.344 0.3623-0.571l0.9715 0.273c-0.1022 0.329-0.2741 0.619-0.5156 0.869-0.2415 0.247-0.5398 0.441-0.8949 0.58-0.3551 0.136-0.7542 0.204-1.1974 0.204zm6.8991 0c-0.5909 0-1.1093-0.14-1.5554-0.422-0.4431-0.281-0.7897-0.674-1.0397-1.18-0.2472-0.506-0.3708-1.097-0.3708-1.773 0-0.681 0.1236-1.277 0.3708-1.785 0.25-0.509 0.5966-0.904 1.0397-1.185 0.4461-0.281 0.9645-0.422 1.5554-0.422s1.108 0.141 1.5512 0.422c0.446 0.281 0.7926 0.676 1.0397 1.185 0.25 0.508 0.375 1.104 0.375 1.785 0 0.676-0.125 1.267-0.375 1.773-0.2471 0.506-0.5937 0.899-1.0397 1.18-0.4432 0.282-0.9603 0.422-1.5512 0.422zm0-0.903c0.4489 0 0.8182-0.115 1.108-0.345s0.5043-0.533 0.6435-0.908 0.2088-0.781 0.2088-1.219c0-0.437-0.0696-0.845-0.2088-1.223-0.1392-0.377-0.3537-0.683-0.6435-0.916s-0.6591-0.349-1.108-0.349c-0.4488 0-0.8181 0.116-1.1079 0.349s-0.5043 0.539-0.6435 0.916c-0.1392 0.378-0.2088 0.786-0.2088 1.223 0 0.438 0.0696 0.844 0.2088 1.219s0.3537 0.678 0.6435 0.908 0.6591 0.345 1.1079 0.345zm4.5011 3.222v-9h0.9716v1.039h0.1193c0.0739-0.113 0.1761-0.258 0.3068-0.434 0.1336-0.179 0.3239-0.338 0.5711-0.478 0.25-0.142 0.588-0.213 1.0142-0.213 0.5511 0 1.0369 0.138 1.4573 0.414 0.4205 0.275 0.7486 0.666 0.9844 1.172 0.2358 0.505 0.3537 1.102 0.3537 1.789 0 0.694-0.1179 1.294-0.3537 1.803-0.2358 0.506-0.5625 0.898-0.9801 1.176-0.4176 0.276-0.8991 0.413-1.4446 0.413-0.4205 0-0.7571-0.069-1.0099-0.208-0.2529-0.142-0.4475-0.303-0.5838-0.482-0.1364-0.182-0.2415-0.332-0.3154-0.452h-0.0852v3.461h-1.0057zm0.9886-5.728c0 0.495 0.0725 0.931 0.2174 1.309 0.1449 0.375 0.3565 0.669 0.6349 0.882 0.2784 0.21 0.6193 0.315 1.0227 0.315 0.4205 0 0.7713-0.111 1.0526-0.332 0.2841-0.225 0.4972-0.526 0.6392-0.904 0.1449-0.381 0.2173-0.804 0.2173-1.27 0-0.46-0.071-0.875-0.213-1.244-0.1392-0.372-0.3509-0.666-0.635-0.882-0.2812-0.219-0.6349-0.328-1.0611-0.328-0.4091 0-0.7528 0.103-1.0312 0.311-0.2784 0.204-0.4886 0.491-0.6307 0.861-0.142 0.366-0.2131 0.794-0.2131 1.282zm8.983 3.409c-0.5909 0-1.1094-0.14-1.5554-0.422-0.4432-0.281-0.7898-0.674-1.0398-1.18-0.2471-0.506-0.3707-1.097-0.3707-1.773 0-0.681 0.1236-1.277 0.3707-1.785 0.25-0.509 0.5966-0.904 1.0398-1.185 0.446-0.281 0.9645-0.422 1.5554-0.422s1.1079 0.141 1.5511 0.422c0.4461 0.281 0.7926 0.676 1.0398 1.185 0.25 0.508 0.375 1.104 0.375 1.785 0 0.676-0.125 1.267-0.375 1.773-0.2472 0.506-0.5937 0.899-1.0398 1.18-0.4432 0.282-0.9602 0.422-1.5511 0.422zm0-0.903c0.4489 0 0.8182-0.115 1.1079-0.345 0.2898-0.23 0.5043-0.533 0.6435-0.908s0.2088-0.781 0.2088-1.219c0-0.437-0.0696-0.845-0.2088-1.223-0.1392-0.377-0.3537-0.683-0.6435-0.916-0.2897-0.233-0.659-0.349-1.1079-0.349s-0.8182 0.116-1.108 0.349c-0.2897 0.233-0.5042 0.539-0.6434 0.916-0.1392 0.378-0.2088 0.786-0.2088 1.223 0 0.438 0.0696 0.844 0.2088 1.219s0.3537 0.678 0.6434 0.908c0.2898 0.23 0.6591 0.345 1.108 0.345zm5.5067-7.96v8.727h-1.0056v-8.727h1.0056zm1.842 8.727v-6.545h1.0057v6.545h-1.0057zm0.5114-7.636c-0.196 0-0.3651-0.067-0.5071-0.201-0.1392-0.133-0.2088-0.294-0.2088-0.481 0-0.188 0.0696-0.348 0.2088-0.482 0.142-0.133 0.3111-0.2 0.5071-0.2s0.3636 0.067 0.5028 0.2c0.1421 0.134 0.2131 0.294 0.2131 0.482 0 0.187-0.071 0.348-0.2131 0.481-0.1392 0.134-0.3068 0.201-0.5028 0.201zm5.1829 1.091v0.852h-3.3921v-0.852h3.3921zm-2.4034-1.569h1.0056v6.239c0 0.284 0.0412 0.497 0.1236 0.639 0.0852 0.139 0.1932 0.233 0.3239 0.281 0.1335 0.046 0.2741 0.069 0.4219 0.069 0.1107 0 0.2017-6e-3 0.2727-0.017 0.071-0.015 0.1278-0.026 0.1704-0.035l0.2046 0.904c-0.0682 0.025-0.1634 0.051-0.2855 0.077-0.1222 0.028-0.277 0.042-0.4645 0.042-0.2841 0-0.5625-0.061-0.8352-0.183-0.2699-0.122-0.4944-0.308-0.6733-0.558-0.1762-0.25-0.2642-0.566-0.2642-0.946v-6.512zm3.9161 8.114v-6.545h1.0057v6.545h-1.0057zm0.5114-7.636c-0.196 0-0.365-0.067-0.5071-0.201-0.1392-0.133-0.2088-0.294-0.2088-0.481 0-0.188 0.0696-0.348 0.2088-0.482 0.1421-0.133 0.3111-0.2 0.5071-0.2s0.3636 0.067 0.5028 0.2c0.1421 0.134 0.2131 0.294 0.2131 0.482 0 0.187-0.071 0.348-0.2131 0.481-0.1392 0.134-0.3068 0.201-0.5028 0.201zm4.9954 7.772c-0.6136 0-1.1421-0.145-1.5852-0.434-0.4432-0.29-0.7841-0.689-1.0228-1.198-0.2386-0.508-0.3579-1.089-0.3579-1.743 0-0.664 0.1221-1.251 0.3665-1.76 0.2471-0.511 0.5909-0.91 1.0312-1.197 0.4432-0.29 0.9602-0.435 1.5511-0.435 0.4603 0 0.875 0.086 1.2444 0.256 0.3693 0.17 0.6718 0.409 0.9076 0.716s0.3821 0.665 0.439 1.074h-1.0057c-0.0767-0.299-0.2472-0.563-0.5114-0.793-0.2614-0.233-0.6136-0.349-1.0568-0.349-0.3921 0-0.7358 0.102-1.0313 0.307-0.2926 0.201-0.5213 0.487-0.686 0.856-0.162 0.367-0.2429 0.797-0.2429 1.291 0 0.506 0.0795 0.946 0.2386 1.321 0.1619 0.375 0.3892 0.666 0.6818 0.874 0.2955 0.207 0.6421 0.311 1.0398 0.311 0.2614 0 0.4986-0.045 0.7116-0.136 0.2131-0.091 0.3935-0.222 0.5412-0.392 0.1478-0.171 0.2529-0.375 0.3154-0.614h1.0057c-0.0569 0.386-0.1975 0.734-0.4219 1.044-0.2216 0.307-0.5156 0.551-0.8821 0.733-0.3637 0.179-0.787 0.268-1.2699 0.268zm5.9702 0.017c-0.4148 0-0.7912-0.078-1.1293-0.234-0.3381-0.159-0.6065-0.388-0.8054-0.686-0.1989-0.301-0.2983-0.665-0.2983-1.091 0-0.375 0.0739-0.679 0.2216-0.912 0.1477-0.236 0.3452-0.42 0.5923-0.554 0.2472-0.133 0.5199-0.233 0.8182-0.298 0.3011-0.068 0.6037-0.122 0.9077-0.162 0.3977-0.051 0.7202-0.09 0.9673-0.115 0.25-0.029 0.4318-0.075 0.5455-0.141 0.1164-0.065 0.1747-0.179 0.1747-0.341v-0.034c0-0.42-0.1151-0.747-0.3452-0.98-0.2273-0.233-0.5724-0.349-1.0355-0.349-0.4801 0-0.8565 0.105-1.1293 0.315-0.2727 0.21-0.4645 0.435-0.5752 0.673l-0.9546-0.341c0.1705-0.397 0.3977-0.707 0.6818-0.929 0.287-0.224 0.5995-0.38 0.9375-0.468 0.3409-0.091 0.6762-0.137 1.0057-0.137 0.2102 0 0.4517 0.026 0.7244 0.077 0.2756 0.048 0.5412 0.149 0.7969 0.303 0.2585 0.153 0.473 0.385 0.6435 0.694 0.1704 0.31 0.2557 0.725 0.2557 1.245v4.312h-1.0057v-0.886h-0.0512c-0.0681 0.142-0.1818 0.294-0.3409 0.456s-0.3707 0.299-0.6349 0.413-0.5867 0.17-0.9673 0.17zm0.1534-0.903c0.3977 0 0.7329-0.078 1.0057-0.234 0.2755-0.157 0.4829-0.358 0.6221-0.605 0.1421-0.248 0.2131-0.508 0.2131-0.78v-0.921c-0.0426 0.051-0.1364 0.098-0.2813 0.141-0.142 0.04-0.3068 0.075-0.4943 0.106-0.1846 0.029-0.365 0.054-0.5412 0.077-0.1733 0.02-0.3139 0.037-0.4219 0.051-0.2613 0.034-0.5056 0.09-0.7329 0.166-0.2244 0.074-0.4063 0.186-0.5455 0.337-0.1363 0.148-0.2045 0.349-0.2045 0.605 0 0.35 0.1293 0.614 0.3878 0.793 0.2613 0.176 0.5923 0.264 0.9929 0.264zm5.6878-7.977v8.727h-1.0057v-8.727h1.0057zm6.1545 6.341-0.017-1.245h0.2045l2.8636-2.914h1.2444l-3.0512 3.085h-0.0852l-1.1591 1.074zm-0.9375 2.386v-8.727h1.0057v8.727h-1.0057zm4.1591 0-2.5568-3.239 0.7159-0.699 3.1193 3.938h-1.2784zm4.843 0.136c-0.6306 0-1.1747-0.139-1.6321-0.417-0.4545-0.281-0.8054-0.674-1.0525-1.176-0.2443-0.506-0.3665-1.094-0.3665-1.765 0-0.67 0.1222-1.261 0.3665-1.772 0.2471-0.515 0.5909-0.915 1.0312-1.202 0.4432-0.29 0.9603-0.435 1.5512-0.435 0.3409 0 0.6775 0.057 1.0099 0.171 0.3324 0.113 0.6349 0.298 0.9077 0.554 0.2727 0.253 0.49 0.588 0.652 1.005 0.1619 0.418 0.2429 0.932 0.2429 1.543v0.426h-5.0455v-0.869h4.0227c0-0.369-0.0738-0.699-0.2216-0.989-0.1448-0.29-0.3522-0.518-0.6221-0.686-0.2671-0.167-0.5824-0.251-0.946-0.251-0.4006 0-0.7472 0.099-1.0398 0.298-0.2898 0.196-0.5128 0.452-0.669 0.767-0.1563 0.315-0.2344 0.653-0.2344 1.014v0.58c0 0.494 0.0852 0.913 0.2557 1.257 0.1733 0.341 0.4133 0.601 0.7201 0.78 0.3068 0.176 0.6634 0.264 1.0696 0.264 0.2642 0 0.5029-0.037 0.7159-0.111 0.216-0.077 0.402-0.19 0.5583-0.341 0.1562-0.153 0.277-0.344 0.3622-0.571l0.9716 0.273c-0.1023 0.329-0.2742 0.619-0.5156 0.869-0.2415 0.247-0.5398 0.441-0.8949 0.58-0.3551 0.136-0.7543 0.204-1.1975 0.204zm4.6886 2.319c-0.1705 0-0.3224-0.015-0.456-0.043-0.1335-0.026-0.2258-0.051-0.277-0.077l0.2557-0.886c0.2443 0.062 0.4603 0.085 0.6478 0.068s0.3536-0.101 0.4985-0.251c0.1478-0.148 0.2827-0.388 0.4049-0.721l0.1875-0.511-2.4205-6.579h1.0909l1.8068 5.215h0.0682l1.8068-5.215h1.0909l-2.7784 7.5c-0.125 0.338-0.2798 0.617-0.4645 0.839-0.1846 0.224-0.3991 0.391-0.6434 0.499-0.2415 0.108-0.5142 0.162-0.8182 0.162zm7.5149-2.455-1.9943-6.545h1.0568l1.4148 5.011h0.0682l1.3977-5.011h1.0742l1.38 4.994h0.069l1.414-4.994h1.057l-1.994 6.545h-0.989l-1.4317-5.028h-0.1022l-1.4319 5.028h-0.9886zm10.703 0.136c-0.591 0-1.109-0.14-1.555-0.422-0.443-0.281-0.79-0.674-1.04-1.18-0.247-0.506-0.371-1.097-0.371-1.773 0-0.681 0.124-1.277 0.371-1.785 0.25-0.509 0.597-0.904 1.04-1.185 0.446-0.281 0.964-0.422 1.555-0.422s1.108 0.141 1.551 0.422c0.446 0.281 0.793 0.676 1.04 1.185 0.25 0.508 0.375 1.104 0.375 1.785 0 0.676-0.125 1.267-0.375 1.773-0.247 0.506-0.594 0.899-1.04 1.18-0.443 0.282-0.96 0.422-1.551 0.422zm0-0.903c0.449 0 0.818-0.115 1.108-0.345s0.504-0.533 0.644-0.908c0.139-0.375 0.208-0.781 0.208-1.219 0-0.437-0.069-0.845-0.208-1.223-0.14-0.377-0.354-0.683-0.644-0.916s-0.659-0.349-1.108-0.349-0.818 0.116-1.108 0.349-0.504 0.539-0.643 0.916c-0.14 0.378-0.209 0.786-0.209 1.223 0 0.438 0.069 0.844 0.209 1.219 0.139 0.375 0.353 0.678 0.643 0.908s0.659 0.345 1.108 0.345zm4.501 0.767v-6.545h0.972v0.988h0.068c0.119-0.324 0.335-0.586 0.648-0.788 0.312-0.202 0.664-0.303 1.056-0.303 0.074 0 0.167 2e-3 0.277 5e-3 0.111 2e-3 0.195 7e-3 0.252 0.012v1.023c-0.034-8e-3 -0.112-0.021-0.234-0.038-0.12-0.02-0.246-0.03-0.38-0.03-0.318 0-0.602 0.067-0.852 0.2-0.247 0.131-0.443 0.313-0.588 0.546-0.142 0.23-0.213 0.492-0.213 0.788v4.142h-1.006zm6.737 0.136c-0.545 0-1.027-0.137-1.444-0.413-0.418-0.278-0.745-0.67-0.98-1.176-0.236-0.509-0.354-1.109-0.354-1.803 0-0.687 0.118-1.284 0.354-1.789 0.235-0.506 0.564-0.897 0.984-1.172 0.42-0.276 0.906-0.414 1.457-0.414 0.427 0 0.763 0.071 1.01 0.213 0.25 0.14 0.441 0.299 0.571 0.478 0.134 0.176 0.238 0.321 0.311 0.434h0.086v-3.221h1.005v8.727h-0.971v-1.006h-0.12c-0.073 0.12-0.179 0.27-0.315 0.452-0.136 0.179-0.331 0.34-0.584 0.482-0.253 0.139-0.589 0.208-1.01 0.208zm0.137-0.903c0.403 0 0.744-0.105 1.022-0.315 0.279-0.213 0.491-0.507 0.635-0.882 0.145-0.378 0.218-0.814 0.218-1.309 0-0.488-0.071-0.916-0.213-1.282-0.142-0.37-0.353-0.657-0.631-0.861-0.278-0.208-0.622-0.311-1.031-0.311-0.426 0-0.782 0.109-1.066 0.328-0.281 0.216-0.493 0.51-0.635 0.882-0.139 0.369-0.208 0.784-0.208 1.244 0 0.466 0.071 0.889 0.213 1.27 0.145 0.378 0.358 0.679 0.639 0.904 0.284 0.221 0.636 0.332 1.057 0.332zm9.481-4.313-0.903 0.256c-0.057-0.15-0.141-0.297-0.252-0.439-0.108-0.145-0.255-0.264-0.443-0.358-0.187-0.093-0.427-0.14-0.72-0.14-0.4 0-0.734 0.092-1.001 0.277-0.265 0.181-0.397 0.413-0.397 0.694 0 0.25 0.091 0.448 0.273 0.593 0.182 0.144 0.466 0.265 0.852 0.362l0.972 0.238c0.585 0.142 1.021 0.36 1.308 0.652 0.287 0.29 0.431 0.664 0.431 1.121 0 0.375-0.108 0.71-0.324 1.006-0.213 0.295-0.512 0.528-0.895 0.699-0.384 0.17-0.83 0.255-1.338 0.255-0.668 0-1.22-0.145-1.658-0.434-0.437-0.29-0.714-0.713-0.831-1.27l0.955-0.239c0.091 0.352 0.262 0.617 0.515 0.793 0.256 0.176 0.59 0.264 1.002 0.264 0.468 0 0.841-0.099 1.116-0.298 0.279-0.202 0.418-0.443 0.418-0.725 0-0.227-0.08-0.417-0.239-0.571-0.159-0.156-0.403-0.272-0.733-0.349l-1.091-0.256c-0.599-0.142-1.039-0.362-1.321-0.66-0.278-0.302-0.417-0.678-0.417-1.13 0-0.369 0.103-0.696 0.311-0.98 0.21-0.284 0.495-0.507 0.856-0.669 0.364-0.162 0.776-0.243 1.236-0.243 0.648 0 1.156 0.142 1.526 0.426 0.372 0.285 0.636 0.66 0.792 1.125z"/>
</svg>
