<svg width="135" height="164" viewBox="0 0 135 164" fill="none" xmlns="http://www.w3.org/2000/svg">
<path d="M40.5493 82.9286L44.3731 86.0249L48.4991 88.7047L52.8825 90.9376L57.4756 92.7006L62.2278 93.9732L67.0871 94.7426L71.9998 95L76.9125 94.7426L81.7718 93.9732L86.524 92.7006L91.1171 90.9376L95.5005 88.7047L99.6265 86.0249L103.45 82.9286L106.928 79.4505L110.025 75.6267L112.704 71.5007L114.937 67.1173L116.7 62.5242L117.973 57.772L118.742 52.9127L119 48L118.742 43.0873L117.973 38.228L116.7 33.4758L114.937 28.8827L112.704 24.4993L111.264 22.2808L37.5962 79.9755L40.5508 82.93L40.5493 82.9286Z" fill="#FFBC36" stroke="black"/>
<path d="M52.8827 5.06237L48.4993 7.2953L44.3733 9.97511L40.5495 13.0714L37.0714 16.5495L33.9751 20.3733L31.2953 24.4993L29.0624 28.8827L27.2995 33.4758L26.0268 38.228L25.2574 43.0873L25 48L25.2574 52.9127L26.0268 57.772L27.2995 62.5242L29.0624 67.1173L31.2953 71.5007L33.9751 75.6267L37.0714 79.4505L37.5964 79.9754L111.264 22.2808L110.025 20.3733L106.929 16.5495L103.45 13.0714L99.6267 9.97511L95.5007 7.2953L91.1173 5.06237L86.5242 3.29946L81.772 2.0268L76.9127 1.25742L72 1L67.0873 1.25742L62.228 2.0268L57.4758 3.29946L52.8827 5.06237Z" fill="#4580FF" stroke="black"/>
<path d="M23.0444 119.71V118.773H29.5898V119.71H26.8455V127.5H25.7887V119.71H23.0444ZM32.0902 123.562V127.5H31.0845V118.773H32.0902V121.977H32.1754C32.3288 121.639 32.5589 121.371 32.8658 121.172C33.1754 120.97 33.5874 120.869 34.1016 120.869C34.5476 120.869 34.9382 120.959 35.2734 121.138C35.6087 121.314 35.8686 121.585 36.0533 121.952C36.2408 122.315 36.3345 122.778 36.3345 123.341V127.5H35.3288V123.409C35.3288 122.889 35.1939 122.487 34.924 122.203C34.657 121.916 34.2862 121.773 33.8118 121.773C33.4822 121.773 33.1868 121.842 32.9254 121.982C32.6669 122.121 32.4624 122.324 32.3118 122.591C32.1641 122.858 32.0902 123.182 32.0902 123.562ZM40.9187 127.636C40.288 127.636 39.744 127.497 39.2866 127.219C38.832 126.938 38.4812 126.545 38.234 126.043C37.9897 125.537 37.8675 124.949 37.8675 124.278C37.8675 123.608 37.9897 123.017 38.234 122.506C38.4812 121.991 38.8249 121.591 39.2653 121.304C39.7085 121.014 40.2255 120.869 40.8164 120.869C41.1573 120.869 41.494 120.926 41.8263 121.04C42.1587 121.153 42.4613 121.338 42.734 121.594C43.0067 121.847 43.2241 122.182 43.386 122.599C43.5479 123.017 43.6289 123.531 43.6289 124.142V124.568H38.5835V123.699H42.6062C42.6062 123.33 42.5323 123 42.3846 122.71C42.2397 122.42 42.0323 122.192 41.7624 122.024C41.4954 121.857 41.18 121.773 40.8164 121.773C40.4158 121.773 40.0692 121.872 39.7766 122.071C39.4869 122.267 39.2638 122.523 39.1076 122.838C38.9513 123.153 38.8732 123.491 38.8732 123.852V124.432C38.8732 124.926 38.9585 125.345 39.1289 125.689C39.3022 126.03 39.5423 126.29 39.8491 126.469C40.1559 126.645 40.5124 126.733 40.9187 126.733C41.1829 126.733 41.4215 126.696 41.6346 126.622C41.8505 126.545 42.0366 126.432 42.1928 126.281C42.3491 126.128 42.4698 125.937 42.555 125.71L43.5266 125.983C43.4244 126.312 43.2525 126.602 43.011 126.852C42.7695 127.099 42.4712 127.293 42.1161 127.432C41.761 127.568 41.3619 127.636 40.9187 127.636ZM51.3803 120.955V121.807H47.9883V120.955H51.3803ZM48.9769 119.386H49.9826V125.625C49.9826 125.909 50.0238 126.122 50.1062 126.264C50.1914 126.403 50.2994 126.497 50.43 126.545C50.5636 126.591 50.7042 126.614 50.8519 126.614C50.9627 126.614 51.0536 126.608 51.1246 126.597C51.1957 126.582 51.2525 126.571 51.2951 126.562L51.4996 127.466C51.4315 127.491 51.3363 127.517 51.2141 127.543C51.092 127.571 50.9371 127.585 50.7496 127.585C50.4656 127.585 50.1871 127.524 49.9144 127.402C49.6445 127.28 49.4201 127.094 49.2411 126.844C49.065 126.594 48.9769 126.278 48.9769 125.898V119.386ZM55.4819 127.636C54.891 127.636 54.3725 127.496 53.9265 127.214C53.4833 126.933 53.1367 126.54 52.8867 126.034C52.6396 125.528 52.516 124.937 52.516 124.261C52.516 123.58 52.6396 122.984 52.8867 122.476C53.1367 121.967 53.4833 121.572 53.9265 121.291C54.3725 121.01 54.891 120.869 55.4819 120.869C56.0728 120.869 56.5898 121.01 57.033 121.291C57.479 121.572 57.8256 121.967 58.0728 122.476C58.3228 122.984 58.4478 123.58 58.4478 124.261C58.4478 124.937 58.3228 125.528 58.0728 126.034C57.8256 126.54 57.479 126.933 57.033 127.214C56.5898 127.496 56.0728 127.636 55.4819 127.636ZM55.4819 126.733C55.9308 126.733 56.3001 126.618 56.5898 126.388C56.8796 126.158 57.0941 125.855 57.2333 125.48C57.3725 125.105 57.4421 124.699 57.4421 124.261C57.4421 123.824 57.3725 123.416 57.2333 123.038C57.0941 122.661 56.8796 122.355 56.5898 122.122C56.3001 121.889 55.9308 121.773 55.4819 121.773C55.033 121.773 54.6637 121.889 54.3739 122.122C54.0842 122.355 53.8697 122.661 53.7305 123.038C53.5913 123.416 53.5217 123.824 53.5217 124.261C53.5217 124.699 53.5913 125.105 53.7305 125.48C53.8697 125.855 54.0842 126.158 54.3739 126.388C54.6637 126.618 55.033 126.733 55.4819 126.733ZM62.8295 120.955V121.807H59.4375V120.955H62.8295ZM60.4261 119.386H61.4318V125.625C61.4318 125.909 61.473 126.122 61.5554 126.264C61.6406 126.403 61.7486 126.497 61.8793 126.545C62.0128 126.591 62.1534 126.614 62.3011 126.614C62.4119 126.614 62.5028 126.608 62.5739 126.597C62.6449 126.582 62.7017 126.571 62.7443 126.562L62.9489 127.466C62.8807 127.491 62.7855 127.517 62.6634 127.543C62.5412 127.571 62.3864 127.585 62.1989 127.585C61.9148 127.585 61.6364 127.524 61.3636 127.402C61.0938 127.28 60.8693 127.094 60.6903 126.844C60.5142 126.594 60.4261 126.278 60.4261 125.898V119.386ZM66.2685 127.653C65.8537 127.653 65.4773 127.575 65.1392 127.419C64.8011 127.26 64.5327 127.031 64.3338 126.733C64.1349 126.432 64.0355 126.068 64.0355 125.642C64.0355 125.267 64.1094 124.963 64.2571 124.73C64.4048 124.494 64.6023 124.31 64.8494 124.176C65.0966 124.043 65.3693 123.943 65.6676 123.878C65.9688 123.81 66.2713 123.756 66.5753 123.716C66.973 123.665 67.2955 123.626 67.5426 123.601C67.7926 123.572 67.9744 123.526 68.0881 123.46C68.2045 123.395 68.2628 123.281 68.2628 123.119V123.085C68.2628 122.665 68.1477 122.338 67.9176 122.105C67.6903 121.872 67.3452 121.756 66.8821 121.756C66.402 121.756 66.0256 121.861 65.7528 122.071C65.4801 122.281 65.2884 122.506 65.1776 122.744L64.223 122.403C64.3935 122.006 64.6207 121.696 64.9048 121.474C65.1918 121.25 65.5043 121.094 65.8423 121.006C66.1832 120.915 66.5185 120.869 66.848 120.869C67.0582 120.869 67.2997 120.895 67.5724 120.946C67.848 120.994 68.1136 121.095 68.3693 121.249C68.6278 121.402 68.8423 121.634 69.0128 121.943C69.1832 122.253 69.2685 122.668 69.2685 123.188V127.5H68.2628V126.614H68.2116C68.1435 126.756 68.0298 126.908 67.8707 127.07C67.7116 127.232 67.5 127.369 67.2358 127.483C66.9716 127.597 66.6491 127.653 66.2685 127.653ZM66.4219 126.75C66.8196 126.75 67.1548 126.672 67.4276 126.516C67.7031 126.359 67.9105 126.158 68.0497 125.911C68.1918 125.663 68.2628 125.403 68.2628 125.131V124.21C68.2202 124.261 68.1264 124.308 67.9815 124.351C67.8395 124.391 67.6747 124.426 67.4872 124.457C67.3026 124.486 67.1222 124.511 66.946 124.534C66.7727 124.554 66.6321 124.571 66.5241 124.585C66.2628 124.619 66.0185 124.675 65.7912 124.751C65.5668 124.825 65.3849 124.937 65.2457 125.088C65.1094 125.236 65.0412 125.437 65.0412 125.693C65.0412 126.043 65.1705 126.307 65.429 126.486C65.6903 126.662 66.0213 126.75 66.4219 126.75ZM72.1097 118.773V127.5H71.104V118.773H72.1097ZM77.3267 127.5V120.955H78.3324V127.5H77.3267ZM77.8381 119.864C77.642 119.864 77.473 119.797 77.331 119.663C77.1918 119.53 77.1222 119.369 77.1222 119.182C77.1222 118.994 77.1918 118.834 77.331 118.7C77.473 118.567 77.642 118.5 77.8381 118.5C78.0341 118.5 78.2017 118.567 78.3409 118.7C78.483 118.834 78.554 118.994 78.554 119.182C78.554 119.369 78.483 119.53 78.3409 119.663C78.2017 119.797 78.0341 119.864 77.8381 119.864ZM84.8107 122.42L83.9073 122.676C83.8505 122.526 83.7667 122.379 83.6559 122.237C83.5479 122.092 83.4002 121.973 83.2127 121.879C83.0252 121.786 82.7852 121.739 82.4925 121.739C82.092 121.739 81.7582 121.831 81.4911 122.016C81.2269 122.197 81.0948 122.429 81.0948 122.71C81.0948 122.96 81.1857 123.158 81.3675 123.303C81.5494 123.447 81.8335 123.568 82.2198 123.665L83.1914 123.903C83.7766 124.045 84.2127 124.263 84.4996 124.555C84.7866 124.845 84.93 125.219 84.93 125.676C84.93 126.051 84.8221 126.386 84.6062 126.682C84.3931 126.977 84.0948 127.21 83.7113 127.381C83.3278 127.551 82.8817 127.636 82.3732 127.636C81.7056 127.636 81.1531 127.491 80.7156 127.202C80.2781 126.912 80.0011 126.489 79.8846 125.932L80.8391 125.693C80.93 126.045 81.1019 126.31 81.3548 126.486C81.6104 126.662 81.9442 126.75 82.3562 126.75C82.8249 126.75 83.1971 126.651 83.4727 126.452C83.7511 126.25 83.8903 126.009 83.8903 125.727C83.8903 125.5 83.8107 125.31 83.6516 125.156C83.4925 125 83.2482 124.884 82.9187 124.807L81.8278 124.551C81.2283 124.409 80.788 124.189 80.5067 123.891C80.2283 123.589 80.0891 123.213 80.0891 122.761C80.0891 122.392 80.1928 122.065 80.4002 121.781C80.6104 121.497 80.896 121.274 81.2567 121.112C81.6204 120.95 82.0323 120.869 82.4925 120.869C83.1403 120.869 83.6488 121.011 84.0181 121.295C84.3903 121.58 84.6545 121.955 84.8107 122.42ZM94.4553 122.42L93.5518 122.676C93.495 122.526 93.4112 122.379 93.3004 122.237C93.1925 122.092 93.0447 121.973 92.8572 121.879C92.6697 121.786 92.4297 121.739 92.1371 121.739C91.7365 121.739 91.4027 121.831 91.1357 122.016C90.8714 122.197 90.7393 122.429 90.7393 122.71C90.7393 122.96 90.8303 123.158 91.0121 123.303C91.1939 123.447 91.478 123.568 91.8643 123.665L92.8359 123.903C93.4212 124.045 93.8572 124.263 94.1442 124.555C94.4311 124.845 94.5746 125.219 94.5746 125.676C94.5746 126.051 94.4666 126.386 94.2507 126.682C94.0376 126.977 93.7393 127.21 93.3558 127.381C92.9723 127.551 92.5263 127.636 92.0178 127.636C91.3501 127.636 90.7976 127.491 90.3601 127.202C89.9226 126.912 89.6456 126.489 89.5291 125.932L90.4837 125.693C90.5746 126.045 90.7464 126.31 90.9993 126.486C91.255 126.662 91.5888 126.75 92.0007 126.75C92.4695 126.75 92.8416 126.651 93.1172 126.452C93.3956 126.25 93.5348 126.009 93.5348 125.727C93.5348 125.5 93.4553 125.31 93.2962 125.156C93.1371 125 92.8928 124.884 92.5632 124.807L91.4723 124.551C90.8729 124.409 90.4325 124.189 90.1513 123.891C89.8729 123.589 89.7337 123.213 89.7337 122.761C89.7337 122.392 89.8374 122.065 90.0447 121.781C90.255 121.497 90.5405 121.274 90.9013 121.112C91.2649 120.95 91.6768 120.869 92.1371 120.869C92.7848 120.869 93.2933 121.011 93.6626 121.295C94.0348 121.58 94.299 121.955 94.4553 122.42ZM96.0884 129.955V120.955H97.06V121.994H97.1793C97.2532 121.881 97.3555 121.736 97.4862 121.56C97.6197 121.381 97.81 121.222 98.0572 121.082C98.3072 120.94 98.6452 120.869 99.0714 120.869C99.6225 120.869 100.108 121.007 100.529 121.283C100.949 121.558 101.277 121.949 101.513 122.455C101.749 122.96 101.867 123.557 101.867 124.244C101.867 124.938 101.749 125.538 101.513 126.047C101.277 126.553 100.951 126.945 100.533 127.223C100.115 127.499 99.6339 127.636 99.0884 127.636C98.668 127.636 98.3313 127.567 98.0785 127.428C97.8256 127.286 97.631 127.125 97.4947 126.946C97.3583 126.764 97.2532 126.614 97.1793 126.494H97.0941V129.955H96.0884ZM97.0771 124.227C97.0771 124.722 97.1495 125.158 97.2944 125.536C97.4393 125.911 97.6509 126.205 97.9293 126.418C98.2077 126.628 98.5487 126.733 98.9521 126.733C99.3725 126.733 99.7234 126.622 100.005 126.401C100.289 126.176 100.502 125.875 100.644 125.497C100.789 125.116 100.861 124.693 100.861 124.227C100.861 123.767 100.79 123.352 100.648 122.983C100.509 122.611 100.297 122.317 100.013 122.101C99.7319 121.882 99.3782 121.773 98.9521 121.773C98.543 121.773 98.1992 121.876 97.9208 122.084C97.6424 122.288 97.4322 122.575 97.2901 122.945C97.1481 123.311 97.0771 123.739 97.0771 124.227ZM104.407 118.773V127.5H103.401V118.773H104.407ZM106.249 127.5V120.955H107.254V127.5H106.249ZM106.76 119.864C106.564 119.864 106.395 119.797 106.253 119.663C106.114 119.53 106.044 119.369 106.044 119.182C106.044 118.994 106.114 118.834 106.253 118.7C106.395 118.567 106.564 118.5 106.76 118.5C106.956 118.5 107.124 118.567 107.263 118.7C107.405 118.834 107.476 118.994 107.476 119.182C107.476 119.369 107.405 119.53 107.263 119.663C107.124 119.797 106.956 119.864 106.76 119.864ZM111.943 120.955V121.807H108.551V120.955H111.943ZM109.539 119.386H110.545V125.625C110.545 125.909 110.586 126.122 110.669 126.264C110.754 126.403 110.862 126.497 110.993 126.545C111.126 126.591 111.267 126.614 111.414 126.614C111.525 126.614 111.616 126.608 111.687 126.597C111.758 126.582 111.815 126.571 111.858 126.562L112.062 127.466C111.994 127.491 111.899 127.517 111.777 127.543C111.654 127.571 111.5 127.585 111.312 127.585C111.028 127.585 110.75 127.524 110.477 127.402C110.207 127.28 109.983 127.094 109.804 126.844C109.627 126.594 109.539 126.278 109.539 125.898V119.386ZM11.6357 142.653C11.2209 142.653 10.8445 142.575 10.5064 142.419C10.1683 142.26 9.89986 142.031 9.70099 141.733C9.50213 141.432 9.4027 141.068 9.4027 140.642C9.4027 140.267 9.47656 139.963 9.62429 139.73C9.77202 139.494 9.96946 139.31 10.2166 139.176C10.4638 139.043 10.7365 138.943 11.0348 138.878C11.3359 138.81 11.6385 138.756 11.9425 138.716C12.3402 138.665 12.6626 138.626 12.9098 138.601C13.1598 138.572 13.3416 138.526 13.4553 138.46C13.5717 138.395 13.63 138.281 13.63 138.119V138.085C13.63 137.665 13.5149 137.338 13.2848 137.105C13.0575 136.872 12.7124 136.756 12.2493 136.756C11.7692 136.756 11.3928 136.861 11.12 137.071C10.8473 137.281 10.6555 137.506 10.5447 137.744L9.5902 137.403C9.76065 137.006 9.98793 136.696 10.272 136.474C10.5589 136.25 10.8714 136.094 11.2095 136.006C11.5504 135.915 11.8857 135.869 12.2152 135.869C12.4254 135.869 12.6669 135.895 12.9396 135.946C13.2152 135.994 13.4808 136.095 13.7365 136.249C13.995 136.402 14.2095 136.634 14.38 136.943C14.5504 137.253 14.6357 137.668 14.6357 138.188V142.5H13.63V141.614H13.5788C13.5107 141.756 13.397 141.908 13.2379 142.07C13.0788 142.232 12.8672 142.369 12.603 142.483C12.3388 142.597 12.0163 142.653 11.6357 142.653ZM11.7891 141.75C12.1868 141.75 12.522 141.672 12.7947 141.516C13.0703 141.359 13.2777 141.158 13.4169 140.911C13.5589 140.663 13.63 140.403 13.63 140.131V139.21C13.5874 139.261 13.4936 139.308 13.3487 139.351C13.2067 139.391 13.0419 139.426 12.8544 139.457C12.6697 139.486 12.4893 139.511 12.3132 139.534C12.1399 139.554 11.9993 139.571 11.8913 139.585C11.63 139.619 11.3857 139.675 11.1584 139.751C10.9339 139.825 10.7521 139.937 10.6129 140.088C10.4766 140.236 10.4084 140.437 10.4084 140.693C10.4084 141.043 10.5376 141.307 10.7962 141.486C11.0575 141.662 11.3885 141.75 11.7891 141.75ZM19.1303 142.636C18.5167 142.636 17.9883 142.491 17.5451 142.202C17.1019 141.912 16.761 141.513 16.5224 141.004C16.2837 140.496 16.1644 139.915 16.1644 139.261C16.1644 138.597 16.2866 138.01 16.5309 137.501C16.7781 136.99 17.1218 136.591 17.5621 136.304C18.0053 136.014 18.5224 135.869 19.1133 135.869C19.5735 135.869 19.9883 135.955 20.3576 136.125C20.7269 136.295 21.0295 136.534 21.2653 136.841C21.5011 137.148 21.6474 137.506 21.7042 137.915H20.6985C20.6218 137.616 20.4513 137.352 20.1871 137.122C19.9258 136.889 19.5735 136.773 19.1303 136.773C18.7383 136.773 18.3945 136.875 18.0991 137.08C17.8065 137.281 17.5778 137.567 17.413 137.936C17.2511 138.303 17.1701 138.733 17.1701 139.227C17.1701 139.733 17.2496 140.173 17.4087 140.548C17.5707 140.923 17.7979 141.214 18.0906 141.422C18.386 141.629 18.7326 141.733 19.1303 141.733C19.3917 141.733 19.6289 141.688 19.842 141.597C20.055 141.506 20.2354 141.375 20.3832 141.205C20.5309 141.034 20.636 140.83 20.6985 140.591H21.7042C21.6474 140.977 21.5067 141.325 21.2823 141.635C21.0607 141.942 20.7667 142.186 20.4002 142.368C20.0366 142.547 19.6133 142.636 19.1303 142.636ZM25.8335 142.636C25.2198 142.636 24.6914 142.491 24.2482 142.202C23.805 141.912 23.4641 141.513 23.2255 141.004C22.9869 140.496 22.8675 139.915 22.8675 139.261C22.8675 138.597 22.9897 138.01 23.234 137.501C23.4812 136.99 23.8249 136.591 24.2653 136.304C24.7085 136.014 25.2255 135.869 25.8164 135.869C26.2766 135.869 26.6914 135.955 27.0607 136.125C27.43 136.295 27.7326 136.534 27.9684 136.841C28.2042 137.148 28.3505 137.506 28.4073 137.915H27.4016C27.3249 137.616 27.1545 137.352 26.8903 137.122C26.6289 136.889 26.2766 136.773 25.8335 136.773C25.4414 136.773 25.0977 136.875 24.8022 137.08C24.5096 137.281 24.2809 137.567 24.1161 137.936C23.9542 138.303 23.8732 138.733 23.8732 139.227C23.8732 139.733 23.9528 140.173 24.1119 140.548C24.2738 140.923 24.5011 141.214 24.7937 141.422C25.0891 141.629 25.4357 141.733 25.8335 141.733C26.0948 141.733 26.332 141.688 26.5451 141.597C26.7582 141.506 26.9386 141.375 27.0863 141.205C27.234 141.034 27.3391 140.83 27.4016 140.591H28.4073C28.3505 140.977 28.2099 141.325 27.9854 141.635C27.7638 141.942 27.4698 142.186 27.1033 142.368C26.7397 142.547 26.3164 142.636 25.8335 142.636ZM32.5366 142.636C31.9457 142.636 31.4272 142.496 30.9812 142.214C30.538 141.933 30.1914 141.54 29.9414 141.034C29.6942 140.528 29.5707 139.937 29.5707 139.261C29.5707 138.58 29.6942 137.984 29.9414 137.476C30.1914 136.967 30.538 136.572 30.9812 136.291C31.4272 136.01 31.9457 135.869 32.5366 135.869C33.1275 135.869 33.6445 136.01 34.0877 136.291C34.5337 136.572 34.8803 136.967 35.1275 137.476C35.3775 137.984 35.5025 138.58 35.5025 139.261C35.5025 139.937 35.3775 140.528 35.1275 141.034C34.8803 141.54 34.5337 141.933 34.0877 142.214C33.6445 142.496 33.1275 142.636 32.5366 142.636ZM32.5366 141.733C32.9854 141.733 33.3548 141.618 33.6445 141.388C33.9343 141.158 34.1488 140.855 34.288 140.48C34.4272 140.105 34.4968 139.699 34.4968 139.261C34.4968 138.824 34.4272 138.416 34.288 138.038C34.1488 137.661 33.9343 137.355 33.6445 137.122C33.3548 136.889 32.9854 136.773 32.5366 136.773C32.0877 136.773 31.7184 136.889 31.4286 137.122C31.1388 137.355 30.9244 137.661 30.7852 138.038C30.646 138.416 30.5763 138.824 30.5763 139.261C30.5763 139.699 30.646 140.105 30.7852 140.48C30.9244 140.855 31.1388 141.158 31.4286 141.388C31.7184 141.618 32.0877 141.733 32.5366 141.733ZM37.0376 142.5V135.955H38.0092V136.943H38.0774C38.1967 136.619 38.4126 136.357 38.7251 136.155C39.0376 135.953 39.3899 135.852 39.782 135.852C39.8558 135.852 39.9482 135.854 40.0589 135.857C40.1697 135.859 40.2536 135.864 40.3104 135.869V136.892C40.2763 136.884 40.1982 136.871 40.076 136.854C39.9567 136.834 39.8303 136.824 39.6967 136.824C39.3786 136.824 39.0945 136.891 38.8445 137.024C38.5973 137.155 38.4013 137.337 38.2564 137.57C38.1143 137.8 38.0433 138.062 38.0433 138.358V142.5H37.0376ZM43.7749 142.636C43.2294 142.636 42.7479 142.499 42.3303 142.223C41.9126 141.945 41.5859 141.553 41.3501 141.047C41.1143 140.538 40.9964 139.938 40.9964 139.244C40.9964 138.557 41.1143 137.96 41.3501 137.455C41.5859 136.949 41.9141 136.558 42.3345 136.283C42.755 136.007 43.2408 135.869 43.7919 135.869C44.218 135.869 44.5547 135.94 44.8018 136.082C45.0518 136.222 45.2422 136.381 45.3729 136.56C45.5064 136.736 45.6101 136.881 45.6839 136.994H45.7692V133.773H46.7749V142.5H45.8033V141.494H45.6839C45.6101 141.614 45.505 141.764 45.3686 141.946C45.2322 142.125 45.0376 142.286 44.7848 142.428C44.532 142.567 44.1953 142.636 43.7749 142.636ZM43.9112 141.733C44.3146 141.733 44.6555 141.628 44.9339 141.418C45.2124 141.205 45.424 140.911 45.5689 140.536C45.7138 140.158 45.7862 139.722 45.7862 139.227C45.7862 138.739 45.7152 138.311 45.5732 137.945C45.4311 137.575 45.2209 137.288 44.9425 137.084C44.6641 136.876 44.3203 136.773 43.9112 136.773C43.4851 136.773 43.13 136.882 42.8459 137.101C42.5646 137.317 42.353 137.611 42.2109 137.983C42.0717 138.352 42.0021 138.767 42.0021 139.227C42.0021 139.693 42.0732 140.116 42.2152 140.497C42.3601 140.875 42.5732 141.176 42.8544 141.401C43.1385 141.622 43.4908 141.733 43.9112 141.733ZM48.7564 142.5V135.955H49.7621V142.5H48.7564ZM49.2678 134.864C49.0717 134.864 48.9027 134.797 48.7607 134.663C48.6214 134.53 48.5518 134.369 48.5518 134.182C48.5518 133.994 48.6214 133.834 48.7607 133.7C48.9027 133.567 49.0717 133.5 49.2678 133.5C49.4638 133.5 49.6314 133.567 49.7706 133.7C49.9126 133.834 49.9837 133.994 49.9837 134.182C49.9837 134.369 49.9126 134.53 49.7706 134.663C49.6314 134.797 49.4638 134.864 49.2678 134.864ZM52.6097 138.562V142.5H51.604V135.955H52.5756V136.977H52.6609C52.8143 136.645 53.0472 136.378 53.3597 136.176C53.6722 135.972 54.0756 135.869 54.57 135.869C55.0131 135.869 55.4009 135.96 55.7333 136.142C56.0657 136.321 56.3242 136.594 56.5089 136.96C56.6935 137.324 56.7859 137.784 56.7859 138.341V142.5H55.7802V138.409C55.7802 137.895 55.6467 137.494 55.3796 137.207C55.1126 136.918 54.7461 136.773 54.2802 136.773C53.9592 136.773 53.6722 136.842 53.4194 136.982C53.1694 137.121 52.9719 137.324 52.8271 137.591C52.6822 137.858 52.6097 138.182 52.6097 138.562ZM61.2656 145.091C60.7798 145.091 60.3622 145.028 60.0128 144.903C59.6634 144.781 59.3722 144.619 59.1392 144.418C58.9091 144.219 58.7259 144.006 58.5895 143.778L59.3906 143.216C59.4815 143.335 59.5966 143.472 59.7358 143.625C59.875 143.781 60.0653 143.916 60.3068 144.03C60.5511 144.146 60.8707 144.205 61.2656 144.205C61.794 144.205 62.2301 144.077 62.5739 143.821C62.9176 143.565 63.0895 143.165 63.0895 142.619V141.29H63.0043C62.9304 141.409 62.8253 141.557 62.6889 141.733C62.5554 141.906 62.3622 142.061 62.1094 142.197C61.8594 142.331 61.5213 142.398 61.0952 142.398C60.5668 142.398 60.0923 142.273 59.6719 142.023C59.2543 141.773 58.9233 141.409 58.679 140.932C58.4375 140.455 58.3168 139.875 58.3168 139.193C58.3168 138.523 58.4347 137.939 58.6705 137.442C58.9063 136.942 59.2344 136.555 59.6548 136.283C60.0753 136.007 60.5611 135.869 61.1122 135.869C61.5384 135.869 61.8764 135.94 62.1264 136.082C62.3793 136.222 62.5724 136.381 62.706 136.56C62.8423 136.736 62.9474 136.881 63.0213 136.994H63.1236V135.955H64.0952V142.688C64.0952 143.25 63.9673 143.707 63.7116 144.06C63.4588 144.415 63.1179 144.675 62.6889 144.839C62.2628 145.007 61.7884 145.091 61.2656 145.091ZM61.2315 141.494C61.6349 141.494 61.9759 141.402 62.2543 141.217C62.5327 141.033 62.7443 140.767 62.8892 140.42C63.0341 140.074 63.1065 139.659 63.1065 139.176C63.1065 138.705 63.0355 138.288 62.8935 137.928C62.7514 137.567 62.5412 137.284 62.2628 137.08C61.9844 136.875 61.6406 136.773 61.2315 136.773C60.8054 136.773 60.4503 136.881 60.1662 137.097C59.8849 137.312 59.6733 137.602 59.5312 137.966C59.392 138.33 59.3224 138.733 59.3224 139.176C59.3224 139.631 59.3935 140.033 59.5355 140.382C59.6804 140.729 59.8935 141.001 60.1747 141.2C60.4588 141.396 60.8111 141.494 61.2315 141.494ZM72.1577 135.955V136.807H68.7656V135.955H72.1577ZM69.7543 134.386H70.7599V140.625C70.7599 140.909 70.8011 141.122 70.8835 141.264C70.9688 141.403 71.0767 141.497 71.2074 141.545C71.3409 141.591 71.4815 141.614 71.6293 141.614C71.7401 141.614 71.831 141.608 71.902 141.597C71.973 141.582 72.0298 141.571 72.0724 141.562L72.277 142.466C72.2088 142.491 72.1136 142.517 71.9915 142.543C71.8693 142.571 71.7145 142.585 71.527 142.585C71.2429 142.585 70.9645 142.524 70.6918 142.402C70.4219 142.28 70.1974 142.094 70.0185 141.844C69.8423 141.594 69.7543 141.278 69.7543 140.898V134.386ZM76.2592 142.636C75.6683 142.636 75.1499 142.496 74.7038 142.214C74.2607 141.933 73.9141 141.54 73.6641 141.034C73.4169 140.528 73.2933 139.937 73.2933 139.261C73.2933 138.58 73.4169 137.984 73.6641 137.476C73.9141 136.967 74.2607 136.572 74.7038 136.291C75.1499 136.01 75.6683 135.869 76.2592 135.869C76.8501 135.869 77.3672 136.01 77.8104 136.291C78.2564 136.572 78.603 136.967 78.8501 137.476C79.1001 137.984 79.2251 138.58 79.2251 139.261C79.2251 139.937 79.1001 140.528 78.8501 141.034C78.603 141.54 78.2564 141.933 77.8104 142.214C77.3672 142.496 76.8501 142.636 76.2592 142.636ZM76.2592 141.733C76.7081 141.733 77.0774 141.618 77.3672 141.388C77.657 141.158 77.8714 140.855 78.0107 140.48C78.1499 140.105 78.2195 139.699 78.2195 139.261C78.2195 138.824 78.1499 138.416 78.0107 138.038C77.8714 137.661 77.657 137.355 77.3672 137.122C77.0774 136.889 76.7081 136.773 76.2592 136.773C75.8104 136.773 75.4411 136.889 75.1513 137.122C74.8615 137.355 74.647 137.661 74.5078 138.038C74.3686 138.416 74.299 138.824 74.299 139.261C74.299 139.699 74.3686 140.105 74.5078 140.48C74.647 140.855 74.8615 141.158 75.1513 141.388C75.4411 141.618 75.8104 141.733 76.2592 141.733ZM86.9819 135.955V136.807H83.5898V135.955H86.9819ZM84.5785 134.386H85.5842V140.625C85.5842 140.909 85.6254 141.122 85.7077 141.264C85.793 141.403 85.9009 141.497 86.0316 141.545C86.1651 141.591 86.3058 141.614 86.4535 141.614C86.5643 141.614 86.6552 141.608 86.7262 141.597C86.7972 141.582 86.854 141.571 86.8967 141.562L87.1012 142.466C87.033 142.491 86.9379 142.517 86.8157 142.543C86.6935 142.571 86.5387 142.585 86.3512 142.585C86.0671 142.585 85.7887 142.524 85.516 142.402C85.2461 142.28 85.0217 142.094 84.8427 141.844C84.6665 141.594 84.5785 141.278 84.5785 140.898V134.386ZM89.641 138.562V142.5H88.6353V133.773H89.641V136.977H89.7262C89.8796 136.639 90.1097 136.371 90.4165 136.172C90.7262 135.97 91.1381 135.869 91.6523 135.869C92.0984 135.869 92.489 135.959 92.8242 136.138C93.1594 136.314 93.4194 136.585 93.604 136.952C93.7915 137.315 93.8853 137.778 93.8853 138.341V142.5H92.8796V138.409C92.8796 137.889 92.7447 137.487 92.4748 137.203C92.2077 136.916 91.837 136.773 91.3626 136.773C91.033 136.773 90.7376 136.842 90.4762 136.982C90.2177 137.121 90.0131 137.324 89.8626 137.591C89.7148 137.858 89.641 138.182 89.641 138.562ZM98.4695 142.636C97.8388 142.636 97.2947 142.497 96.8374 142.219C96.3828 141.938 96.032 141.545 95.7848 141.043C95.5405 140.537 95.4183 139.949 95.4183 139.278C95.4183 138.608 95.5405 138.017 95.7848 137.506C96.032 136.991 96.3757 136.591 96.8161 136.304C97.2592 136.014 97.7763 135.869 98.3672 135.869C98.7081 135.869 99.0447 135.926 99.3771 136.04C99.7095 136.153 100.012 136.338 100.285 136.594C100.558 136.847 100.775 137.182 100.937 137.599C101.099 138.017 101.18 138.531 101.18 139.142V139.568H96.1342V138.699H100.157C100.157 138.33 100.083 138 99.9354 137.71C99.7905 137.42 99.5831 137.192 99.3132 137.024C99.0462 136.857 98.7308 136.773 98.3672 136.773C97.9666 136.773 97.62 136.872 97.3274 137.071C97.0376 137.267 96.8146 137.523 96.6584 137.838C96.5021 138.153 96.424 138.491 96.424 138.852V139.432C96.424 139.926 96.5092 140.345 96.6797 140.689C96.853 141.03 97.093 141.29 97.3999 141.469C97.7067 141.645 98.0632 141.733 98.4695 141.733C98.7337 141.733 98.9723 141.696 99.1854 141.622C99.4013 141.545 99.5874 141.432 99.7436 141.281C99.8999 141.128 100.021 140.937 100.106 140.71L101.077 140.983C100.975 141.312 100.803 141.602 100.562 141.852C100.32 142.099 100.022 142.293 99.6669 142.432C99.3118 142.568 98.9126 142.636 98.4695 142.636ZM108.931 135.955V136.807H105.539V135.955H108.931ZM106.528 134.386H107.533V140.625C107.533 140.909 107.575 141.122 107.657 141.264C107.742 141.403 107.85 141.497 107.981 141.545C108.114 141.591 108.255 141.614 108.403 141.614C108.513 141.614 108.604 141.608 108.675 141.597C108.746 141.582 108.803 141.571 108.846 141.562L109.05 142.466C108.982 142.491 108.887 142.517 108.765 142.543C108.643 142.571 108.488 142.585 108.3 142.585C108.016 142.585 107.738 142.524 107.465 142.402C107.195 142.28 106.971 142.094 106.792 141.844C106.616 141.594 106.528 141.278 106.528 140.898V134.386ZM111.927 142.5L109.933 135.955H110.989L112.404 140.966H112.472L113.87 135.955H114.944L116.325 140.949H116.393L117.808 135.955H118.864L116.87 142.5H115.881L114.45 137.472H114.347L112.915 142.5H111.927ZM122.63 142.636C122.039 142.636 121.521 142.496 121.075 142.214C120.632 141.933 120.285 141.54 120.035 141.034C119.788 140.528 119.664 139.937 119.664 139.261C119.664 138.58 119.788 137.984 120.035 137.476C120.285 136.967 120.632 136.572 121.075 136.291C121.521 136.01 122.039 135.869 122.63 135.869C123.221 135.869 123.738 136.01 124.181 136.291C124.627 136.572 124.974 136.967 125.221 137.476C125.471 137.984 125.596 138.58 125.596 139.261C125.596 139.937 125.471 140.528 125.221 141.034C124.974 141.54 124.627 141.933 124.181 142.214C123.738 142.496 123.221 142.636 122.63 142.636ZM122.63 141.733C123.079 141.733 123.449 141.618 123.738 141.388C124.028 141.158 124.243 140.855 124.382 140.48C124.521 140.105 124.591 139.699 124.591 139.261C124.591 138.824 124.521 138.416 124.382 138.038C124.243 137.661 124.028 137.355 123.738 137.122C123.449 136.889 123.079 136.773 122.63 136.773C122.181 136.773 121.812 136.889 121.522 137.122C121.233 137.355 121.018 137.661 120.879 138.038C120.74 138.416 120.67 138.824 120.67 139.261C120.67 139.699 120.74 140.105 120.879 140.48C121.018 140.855 121.233 141.158 121.522 141.388C121.812 141.618 122.181 141.733 122.63 141.733ZM33.2093 153.562V157.5H32.2037V150.955H33.1752V151.977H33.2605C33.4139 151.645 33.6468 151.378 33.9593 151.176C34.2718 150.972 34.6752 150.869 35.1696 150.869C35.6127 150.869 36.0005 150.96 36.3329 151.142C36.6653 151.321 36.9238 151.594 37.1085 151.96C37.2931 152.324 37.3855 152.784 37.3855 153.341V157.5H36.3798V153.409C36.3798 152.895 36.2463 152.494 35.9792 152.207C35.7122 151.918 35.3457 151.773 34.8798 151.773C34.5588 151.773 34.2718 151.842 34.019 151.982C33.769 152.121 33.5716 152.324 33.4267 152.591C33.2818 152.858 33.2093 153.182 33.2093 153.562ZM41.9675 157.636C41.3368 157.636 40.7928 157.497 40.3354 157.219C39.8809 156.938 39.53 156.545 39.2828 156.043C39.0385 155.537 38.9164 154.949 38.9164 154.278C38.9164 153.608 39.0385 153.017 39.2828 152.506C39.53 151.991 39.8738 151.591 40.3141 151.304C40.7573 151.014 41.2743 150.869 41.8652 150.869C42.2061 150.869 42.5428 150.926 42.8752 151.04C43.2076 151.153 43.5101 151.338 43.7828 151.594C44.0556 151.847 44.2729 152.182 44.4348 152.599C44.5968 153.017 44.6777 153.531 44.6777 154.142V154.568H39.6323V153.699H43.655C43.655 153.33 43.5811 153 43.4334 152.71C43.2885 152.42 43.0811 152.192 42.8113 152.024C42.5442 151.857 42.2289 151.773 41.8652 151.773C41.4647 151.773 41.1181 151.872 40.8255 152.071C40.5357 152.267 40.3127 152.523 40.1564 152.838C40.0002 153.153 39.9221 153.491 39.9221 153.852V154.432C39.9221 154.926 40.0073 155.345 40.1777 155.689C40.351 156.03 40.5911 156.29 40.8979 156.469C41.2047 156.645 41.5613 156.733 41.9675 156.733C42.2317 156.733 42.4703 156.696 42.6834 156.622C42.8993 156.545 43.0854 156.432 43.2417 156.281C43.3979 156.128 43.5186 155.937 43.6039 155.71L44.5755 155.983C44.4732 156.312 44.3013 156.602 44.0598 156.852C43.8184 157.099 43.5201 157.293 43.165 157.432C42.8098 157.568 42.4107 157.636 41.9675 157.636ZM47.6905 157.5L45.6962 150.955H46.753L48.1678 155.966H48.236L49.6337 150.955H50.7076L52.0882 155.949H52.1564L53.5712 150.955H54.628L52.6337 157.5H51.6451L50.2132 152.472H50.111L48.6792 157.5H47.6905ZM60.5939 152.42L59.6905 152.676C59.6337 152.526 59.5499 152.379 59.4391 152.237C59.3311 152.092 59.1834 151.973 58.9959 151.879C58.8084 151.786 58.5684 151.739 58.2757 151.739C57.8752 151.739 57.5414 151.831 57.2743 152.016C57.0101 152.197 56.878 152.429 56.878 152.71C56.878 152.96 56.9689 153.158 57.1507 153.303C57.3326 153.447 57.6167 153.568 58.003 153.665L58.9746 153.903C59.5598 154.045 59.9959 154.263 60.2828 154.555C60.5698 154.845 60.7132 155.219 60.7132 155.676C60.7132 156.051 60.6053 156.386 60.3894 156.682C60.1763 156.977 59.878 157.21 59.4945 157.381C59.111 157.551 58.665 157.636 58.1564 157.636C57.4888 157.636 56.9363 157.491 56.4988 157.202C56.0613 156.912 55.7843 156.489 55.6678 155.932L56.6223 155.693C56.7132 156.045 56.8851 156.31 57.138 156.486C57.3936 156.662 57.7275 156.75 58.1394 156.75C58.6081 156.75 58.9803 156.651 59.2559 156.452C59.5343 156.25 59.6735 156.009 59.6735 155.727C59.6735 155.5 59.5939 155.31 59.4348 155.156C59.2757 155 59.0314 154.884 58.7019 154.807L57.611 154.551C57.0115 154.409 56.5712 154.189 56.29 153.891C56.0115 153.589 55.8723 153.213 55.8723 152.761C55.8723 152.392 55.976 152.065 56.1834 151.781C56.3936 151.497 56.6792 151.274 57.04 151.112C57.4036 150.95 57.8155 150.869 58.2757 150.869C58.9235 150.869 59.432 151.011 59.8013 151.295C60.1735 151.58 60.4377 151.955 60.5939 152.42ZM62.2271 159.955V150.955H63.1987V151.994H63.318C63.3919 151.881 63.4941 151.736 63.6248 151.56C63.7583 151.381 63.9487 151.222 64.1958 151.082C64.4458 150.94 64.7839 150.869 65.21 150.869C65.7612 150.869 66.247 151.007 66.6674 151.283C67.0879 151.558 67.416 151.949 67.6518 152.455C67.8876 152.96 68.0055 153.557 68.0055 154.244C68.0055 154.938 67.8876 155.538 67.6518 156.047C67.416 156.553 67.0893 156.945 66.6717 157.223C66.2541 157.499 65.7725 157.636 65.2271 157.636C64.8066 157.636 64.47 157.567 64.2172 157.428C63.9643 157.286 63.7697 157.125 63.6333 156.946C63.497 156.764 63.3919 156.614 63.318 156.494H63.2328V159.955H62.2271ZM63.2157 154.227C63.2157 154.722 63.2882 155.158 63.4331 155.536C63.5779 155.911 63.7896 156.205 64.068 156.418C64.3464 156.628 64.6873 156.733 65.0907 156.733C65.5112 156.733 65.862 156.622 66.1433 156.401C66.4274 156.176 66.6404 155.875 66.7825 155.497C66.9274 155.116 66.9998 154.693 66.9998 154.227C66.9998 153.767 66.9288 153.352 66.7868 152.983C66.6475 152.611 66.4359 152.317 66.1518 152.101C65.8706 151.882 65.5169 151.773 65.0907 151.773C64.6816 151.773 64.3379 151.876 64.0595 152.084C63.7811 152.288 63.5708 152.575 63.4288 152.945C63.2868 153.311 63.2157 153.739 63.2157 154.227ZM71.4657 157.653C71.051 157.653 70.6745 157.575 70.3365 157.419C69.9984 157.26 69.7299 157.031 69.5311 156.733C69.3322 156.432 69.2328 156.068 69.2328 155.642C69.2328 155.267 69.3066 154.963 69.4544 154.73C69.6021 154.494 69.7995 154.31 70.0467 154.176C70.2939 154.043 70.5666 153.943 70.8649 153.878C71.166 153.81 71.4686 153.756 71.7725 153.716C72.1703 153.665 72.4927 153.626 72.7399 153.601C72.9899 153.572 73.1717 153.526 73.2853 153.46C73.4018 153.395 73.46 153.281 73.46 153.119V153.085C73.46 152.665 73.345 152.338 73.1149 152.105C72.8876 151.872 72.5424 151.756 72.0794 151.756C71.5993 151.756 71.2228 151.861 70.9501 152.071C70.6774 152.281 70.4856 152.506 70.3748 152.744L69.4203 152.403C69.5907 152.006 69.818 151.696 70.1021 151.474C70.389 151.25 70.7015 151.094 71.0396 151.006C71.3805 150.915 71.7157 150.869 72.0453 150.869C72.2555 150.869 72.497 150.895 72.7697 150.946C73.0453 150.994 73.3109 151.095 73.5666 151.249C73.8251 151.402 74.0396 151.634 74.21 151.943C74.3805 152.253 74.4657 152.668 74.4657 153.188V157.5H73.46V156.614H73.4089C73.3407 156.756 73.2271 156.908 73.068 157.07C72.9089 157.232 72.6973 157.369 72.4331 157.483C72.1689 157.597 71.8464 157.653 71.4657 157.653ZM71.6191 156.75C72.0169 156.75 72.3521 156.672 72.6248 156.516C72.9004 156.359 73.1078 156.158 73.247 155.911C73.389 155.663 73.46 155.403 73.46 155.131V154.21C73.4174 154.261 73.3237 154.308 73.1788 154.351C73.0368 154.391 72.872 154.426 72.6845 154.457C72.4998 154.486 72.3194 154.511 72.1433 154.534C71.97 154.554 71.8294 154.571 71.7214 154.585C71.46 154.619 71.2157 154.675 70.9885 154.751C70.764 154.825 70.5822 154.937 70.443 155.088C70.3066 155.236 70.2385 155.437 70.2385 155.693C70.2385 156.043 70.3677 156.307 70.6262 156.486C70.8876 156.662 71.2186 156.75 71.6191 156.75ZM76.3013 159.955V150.955H77.2729V151.994H77.3922C77.4661 151.881 77.5684 151.736 77.699 151.56C77.8326 151.381 78.0229 151.222 78.2701 151.082C78.5201 150.94 78.8581 150.869 79.2843 150.869C79.8354 150.869 80.3212 151.007 80.7417 151.283C81.1621 151.558 81.4902 151.949 81.726 152.455C81.9618 152.96 82.0797 153.557 82.0797 154.244C82.0797 154.938 81.9618 155.538 81.726 156.047C81.4902 156.553 81.1635 156.945 80.7459 157.223C80.3283 157.499 79.8468 157.636 79.3013 157.636C78.8809 157.636 78.5442 157.567 78.2914 157.428C78.0385 157.286 77.8439 157.125 77.7076 156.946C77.5712 156.764 77.4661 156.614 77.3922 156.494H77.307V159.955H76.3013ZM77.29 154.227C77.29 154.722 77.3624 155.158 77.5073 155.536C77.6522 155.911 77.8638 156.205 78.1422 156.418C78.4206 156.628 78.7615 156.733 79.165 156.733C79.5854 156.733 79.9363 156.622 80.2175 156.401C80.5016 156.176 80.7147 155.875 80.8567 155.497C81.0016 155.116 81.074 154.693 81.074 154.227C81.074 153.767 81.003 153.352 80.861 152.983C80.7218 152.611 80.5101 152.317 80.226 152.101C79.9448 151.882 79.5911 151.773 79.165 151.773C78.7559 151.773 78.4121 151.876 78.1337 152.084C77.8553 152.288 77.6451 152.575 77.503 152.945C77.361 153.311 77.29 153.739 77.29 154.227ZM86.3581 157.636C85.7275 157.636 85.1834 157.497 84.726 157.219C84.2715 156.938 83.9206 156.545 83.6735 156.043C83.4292 155.537 83.307 154.949 83.307 154.278C83.307 153.608 83.4292 153.017 83.6735 152.506C83.9206 151.991 84.2644 151.591 84.7047 151.304C85.1479 151.014 85.665 150.869 86.2559 150.869C86.5968 150.869 86.9334 150.926 87.2658 151.04C87.5982 151.153 87.9007 151.338 88.1735 151.594C88.4462 151.847 88.6635 152.182 88.8255 152.599C88.9874 153.017 89.0684 153.531 89.0684 154.142V154.568H84.0229V153.699H88.0456C88.0456 153.33 87.9718 153 87.824 152.71C87.6792 152.42 87.4718 152.192 87.2019 152.024C86.9348 151.857 86.6195 151.773 86.2559 151.773C85.8553 151.773 85.5087 151.872 85.2161 152.071C84.9263 152.267 84.7033 152.523 84.5471 152.838C84.3908 153.153 84.3127 153.491 84.3127 153.852V154.432C84.3127 154.926 84.3979 155.345 84.5684 155.689C84.7417 156.03 84.9817 156.29 85.2885 156.469C85.5953 156.645 85.9519 156.733 86.3581 156.733C86.6223 156.733 86.861 156.696 87.074 156.622C87.29 156.545 87.476 156.432 87.6323 156.281C87.7885 156.128 87.9093 155.937 87.9945 155.71L88.9661 155.983C88.8638 156.312 88.6919 156.602 88.4505 156.852C88.209 157.099 87.9107 157.293 87.5556 157.432C87.2005 157.568 86.8013 157.636 86.3581 157.636ZM90.5982 157.5V150.955H91.5698V151.943H91.638C91.7573 151.619 91.9732 151.357 92.2857 151.155C92.5982 150.953 92.9505 150.852 93.3425 150.852C93.4164 150.852 93.5087 150.854 93.6195 150.857C93.7303 150.859 93.8141 150.864 93.8709 150.869V151.892C93.8368 151.884 93.7587 151.871 93.6365 151.854C93.5172 151.834 93.3908 151.824 93.2573 151.824C92.9391 151.824 92.655 151.891 92.405 152.024C92.1578 152.155 91.9618 152.337 91.8169 152.57C91.6749 152.8 91.6039 153.062 91.6039 153.358V157.5H90.5982ZM99.6994 152.42L98.796 152.676C98.7392 152.526 98.6554 152.379 98.5446 152.237C98.4366 152.092 98.2889 151.973 98.1014 151.879C97.9139 151.786 97.6738 151.739 97.3812 151.739C96.9806 151.739 96.6468 151.831 96.3798 152.016C96.1156 152.197 95.9835 152.429 95.9835 152.71C95.9835 152.96 96.0744 153.158 96.2562 153.303C96.438 153.447 96.7221 153.568 97.1085 153.665L98.0801 153.903C98.6653 154.045 99.1014 154.263 99.3883 154.555C99.6752 154.845 99.8187 155.219 99.8187 155.676C99.8187 156.051 99.7108 156.386 99.4949 156.682C99.2818 156.977 98.9835 157.21 98.6 157.381C98.2164 157.551 97.7704 157.636 97.2619 157.636C96.5943 157.636 96.0417 157.491 95.6042 157.202C95.1667 156.912 94.8897 156.489 94.7733 155.932L95.7278 155.693C95.8187 156.045 95.9906 156.31 96.2434 156.486C96.4991 156.662 96.8329 156.75 97.2449 156.75C97.7136 156.75 98.0858 156.651 98.3613 156.452C98.6397 156.25 98.7789 156.009 98.7789 155.727C98.7789 155.5 98.6994 155.31 98.5403 155.156C98.3812 155 98.1369 154.884 97.8074 154.807L96.7164 154.551C96.117 154.409 95.6767 154.189 95.3954 153.891C95.117 153.589 94.9778 153.213 94.9778 152.761C94.9778 152.392 95.0815 152.065 95.2889 151.781C95.4991 151.497 95.7846 151.274 96.1454 151.112C96.5091 150.95 96.921 150.869 97.3812 150.869C98.0289 150.869 98.5375 151.011 98.9068 151.295C99.2789 151.58 99.5431 151.955 99.6994 152.42ZM102.066 157.568C101.855 157.568 101.675 157.493 101.524 157.342C101.374 157.192 101.298 157.011 101.298 156.801C101.298 156.591 101.374 156.411 101.524 156.26C101.675 156.109 101.855 156.034 102.066 156.034C102.276 156.034 102.456 156.109 102.607 156.26C102.757 156.411 102.833 156.591 102.833 156.801C102.833 156.94 102.797 157.068 102.726 157.185C102.658 157.301 102.566 157.395 102.449 157.466C102.335 157.534 102.208 157.568 102.066 157.568Z" fill="black"/>
<path d="M51.0307 37.1392C50.4474 37.1392 49.9221 37.0232 49.4547 36.7912C48.9874 36.5592 48.6129 36.241 48.3311 35.8366C48.0494 35.4323 47.8953 34.9716 47.8688 34.4545H49.062C49.1084 34.9152 49.3172 35.2964 49.6884 35.598C50.0629 35.8963 50.5104 36.0455 51.0307 36.0455C51.4483 36.0455 51.8195 35.9477 52.1444 35.7521C52.4725 35.5566 52.7293 35.2881 52.915 34.9467C53.1039 34.602 53.1983 34.2126 53.1983 33.7784C53.1983 33.3343 53.1006 32.9382 52.905 32.5902C52.7128 32.2389 52.4476 31.9621 52.1096 31.7599C51.7715 31.5578 51.3854 31.455 50.9512 31.4517C50.6396 31.4484 50.3198 31.4964 49.9917 31.5959C49.6635 31.692 49.3934 31.8163 49.1813 31.9688L48.0279 31.8295L48.6444 26.8182H53.9341V27.9119H49.6784L49.3205 30.9148H49.3801C49.589 30.7491 49.8508 30.6115 50.1657 30.5021C50.4805 30.3928 50.8087 30.3381 51.15 30.3381C51.7731 30.3381 52.3283 30.4872 52.8155 30.7855C53.306 31.0805 53.6905 31.4848 53.9689 31.9986C54.2507 32.5123 54.3915 33.099 54.3915 33.7585C54.3915 34.4081 54.2457 34.9882 53.954 35.4986C53.6657 36.0057 53.2679 36.4067 52.7608 36.7017C52.2537 36.9934 51.677 37.1392 51.0307 37.1392ZM59.5483 37.1392C58.965 37.1392 58.4396 37.0232 57.9723 36.7912C57.505 36.5592 57.1304 36.241 56.8487 35.8366C56.567 35.4323 56.4129 34.9716 56.3864 34.4545H57.5795C57.6259 34.9152 57.8348 35.2964 58.206 35.598C58.5805 35.8963 59.0279 36.0455 59.5483 36.0455C59.9659 36.0455 60.3371 35.9477 60.6619 35.7521C60.9901 35.5566 61.2469 35.2881 61.4325 34.9467C61.6214 34.602 61.7159 34.2126 61.7159 33.7784C61.7159 33.3343 61.6181 32.9382 61.4226 32.5902C61.2304 32.2389 60.9652 31.9621 60.6271 31.7599C60.2891 31.5578 59.9029 31.455 59.4688 31.4517C59.1572 31.4484 58.8374 31.4964 58.5092 31.5959C58.1811 31.692 57.911 31.8163 57.6989 31.9688L56.5455 31.8295L57.1619 26.8182H62.4517V27.9119H58.196L57.8381 30.9148H57.8977C58.1065 30.7491 58.3684 30.6115 58.6832 30.5021C58.9981 30.3928 59.3262 30.3381 59.6676 30.3381C60.2907 30.3381 60.8459 30.4872 61.3331 30.7855C61.8236 31.0805 62.2081 31.4848 62.4865 31.9986C62.7682 32.5123 62.9091 33.099 62.9091 33.7585C62.9091 34.4081 62.7633 34.9882 62.4716 35.4986C62.1832 36.0057 61.7855 36.4067 61.2784 36.7017C60.7713 36.9934 60.1946 37.1392 59.5483 37.1392ZM70.0744 35.0909V34.554C70.0744 34.1828 70.1506 33.843 70.3031 33.5348C70.4589 33.2232 70.6842 32.9747 70.9792 32.7891C71.2775 32.6001 71.6388 32.5057 72.063 32.5057C72.4939 32.5057 72.8552 32.6001 73.1468 32.7891C73.4385 32.9747 73.6589 33.2232 73.8081 33.5348C73.9572 33.843 74.0318 34.1828 74.0318 34.554V35.0909C74.0318 35.4621 73.9556 35.8035 73.8031 36.1151C73.6539 36.4233 73.4319 36.6719 73.1369 36.8608C72.8452 37.0464 72.4873 37.1392 72.063 37.1392C71.6322 37.1392 71.2692 37.0464 70.9743 36.8608C70.6793 36.6719 70.4556 36.4233 70.3031 36.1151C70.1506 35.8035 70.0744 35.4621 70.0744 35.0909ZM71.0886 34.554V35.0909C71.0886 35.3991 71.1615 35.6759 71.3074 35.9212C71.4532 36.1631 71.7051 36.2841 72.063 36.2841C72.411 36.2841 72.6563 36.1631 72.7988 35.9212C72.9447 35.6759 73.0176 35.3991 73.0176 35.0909V34.554C73.0176 34.2457 72.948 33.9706 72.8088 33.7287C72.6696 33.4834 72.421 33.3608 72.063 33.3608C71.715 33.3608 71.4648 33.4834 71.3123 33.7287C71.1632 33.9706 71.0886 34.2457 71.0886 34.554ZM65.0034 29.2642V28.7273C65.0034 28.3561 65.0796 28.0163 65.2321 27.7081C65.3878 27.3965 65.6132 27.148 65.9082 26.9624C66.2065 26.7734 66.5678 26.679 66.992 26.679C67.4229 26.679 67.7842 26.7734 68.0758 26.9624C68.3675 27.148 68.5879 27.3965 68.737 27.7081C68.8862 28.0163 68.9608 28.3561 68.9608 28.7273V29.2642C68.9608 29.6354 68.8845 29.9768 68.7321 30.2884C68.5829 30.5966 68.3609 30.8452 68.0659 31.0341C67.7742 31.2197 67.4163 31.3125 66.992 31.3125C66.5611 31.3125 66.1982 31.2197 65.9032 31.0341C65.6083 30.8452 65.3845 30.5966 65.2321 30.2884C65.0796 29.9768 65.0034 29.6354 65.0034 29.2642ZM66.0176 28.7273V29.2642C66.0176 29.5724 66.0905 29.8492 66.2363 30.0945C66.3822 30.3364 66.6341 30.4574 66.992 30.4574C67.34 30.4574 67.5853 30.3364 67.7278 30.0945C67.8736 29.8492 67.9466 29.5724 67.9466 29.2642V28.7273C67.9466 28.419 67.877 28.1439 67.7377 27.902C67.5985 27.6567 67.35 27.5341 66.992 27.5341C66.644 27.5341 66.3938 27.6567 66.2413 27.902C66.0922 28.1439 66.0176 28.419 66.0176 28.7273ZM65.3812 37L72.3812 26.8182H73.5147L66.5147 37H65.3812Z" fill="black"/>
<path d="M74.3778 69.9119V68.8977L78.8523 61.8182H79.5881V63.3892H79.0909L75.7102 68.7386V68.8182H81.7358V69.9119H74.3778ZM79.1705 72V69.6037V69.1314V61.8182H80.3438V72H79.1705ZM86.7807 72.1392C86.1974 72.1392 85.6721 72.0232 85.2047 71.7912C84.7374 71.5592 84.3629 71.241 84.0811 70.8366C83.7994 70.4323 83.6453 69.9716 83.6188 69.4545H84.812C84.8584 69.9152 85.0672 70.2964 85.4384 70.598C85.8129 70.8963 86.2604 71.0455 86.7807 71.0455C87.1983 71.0455 87.5695 70.9477 87.8944 70.7521C88.2225 70.5566 88.4793 70.2881 88.665 69.9467C88.8539 69.602 88.9483 69.2126 88.9483 68.7784C88.9483 68.3343 88.8506 67.9382 88.655 67.5902C88.4628 67.2389 88.1976 66.9621 87.8596 66.7599C87.5215 66.5578 87.1354 66.455 86.7012 66.4517C86.3896 66.4484 86.0698 66.4964 85.7417 66.5959C85.4135 66.692 85.1434 66.8163 84.9313 66.9688L83.7779 66.8295L84.3944 61.8182H89.6841V62.9119H85.4284L85.0705 65.9148H85.1301C85.339 65.7491 85.6008 65.6115 85.9157 65.5021C86.2305 65.3928 86.5587 65.3381 86.9 65.3381C87.5231 65.3381 88.0783 65.4872 88.5655 65.7855C89.056 66.0805 89.4405 66.4848 89.7189 66.9986C90.0007 67.5123 90.1415 68.099 90.1415 68.7585C90.1415 69.4081 89.9957 69.9882 89.704 70.4986C89.4157 71.0057 89.0179 71.4067 88.5108 71.7017C88.0037 71.9934 87.427 72.1392 86.7807 72.1392ZM97.3068 70.0909V69.554C97.3068 69.1828 97.383 68.843 97.5355 68.5348C97.6913 68.2232 97.9167 67.9747 98.2116 67.7891C98.5099 67.6001 98.8712 67.5057 99.2955 67.5057C99.7263 67.5057 100.088 67.6001 100.379 67.7891C100.671 67.9747 100.891 68.2232 101.04 68.5348C101.19 68.843 101.264 69.1828 101.264 69.554V70.0909C101.264 70.4621 101.188 70.8035 101.036 71.1151C100.886 71.4233 100.664 71.6719 100.369 71.8608C100.078 72.0464 99.7197 72.1392 99.2955 72.1392C98.8646 72.1392 98.5017 72.0464 98.2067 71.8608C97.9117 71.6719 97.688 71.4233 97.5355 71.1151C97.383 70.8035 97.3068 70.4621 97.3068 70.0909ZM98.321 69.554V70.0909C98.321 70.3991 98.3939 70.6759 98.5398 70.9212C98.6856 71.1631 98.9375 71.2841 99.2955 71.2841C99.6435 71.2841 99.8887 71.1631 100.031 70.9212C100.177 70.6759 100.25 70.3991 100.25 70.0909V69.554C100.25 69.2457 100.18 68.9706 100.041 68.7287C99.902 68.4834 99.6534 68.3608 99.2955 68.3608C98.9474 68.3608 98.6972 68.4834 98.5447 68.7287C98.3956 68.9706 98.321 69.2457 98.321 69.554ZM92.2358 64.2642V63.7273C92.2358 63.3561 92.312 63.0163 92.4645 62.7081C92.6203 62.3965 92.8456 62.148 93.1406 61.9624C93.4389 61.7734 93.8002 61.679 94.2244 61.679C94.6553 61.679 95.0166 61.7734 95.3082 61.9624C95.5999 62.148 95.8203 62.3965 95.9695 62.7081C96.1186 63.0163 96.1932 63.3561 96.1932 63.7273V64.2642C96.1932 64.6354 96.117 64.9768 95.9645 65.2884C95.8153 65.5966 95.5933 65.8452 95.2983 66.0341C95.0066 66.2197 94.6487 66.3125 94.2244 66.3125C93.7936 66.3125 93.4306 66.2197 93.1357 66.0341C92.8407 65.8452 92.617 65.5966 92.4645 65.2884C92.312 64.9768 92.2358 64.6354 92.2358 64.2642ZM93.25 63.7273V64.2642C93.25 64.5724 93.3229 64.8492 93.4688 65.0945C93.6146 65.3364 93.8665 65.4574 94.2244 65.4574C94.5724 65.4574 94.8177 65.3364 94.9602 65.0945C95.1061 64.8492 95.179 64.5724 95.179 64.2642V63.7273C95.179 63.419 95.1094 63.1439 94.9702 62.902C94.831 62.6567 94.5824 62.5341 94.2244 62.5341C93.8764 62.5341 93.6262 62.6567 93.4737 62.902C93.3246 63.1439 93.25 63.419 93.25 63.7273ZM92.6136 72L99.6136 61.8182H100.747L93.7472 72H92.6136Z" fill="black"/>
</svg>
