<svg width="135" height="167" viewBox="0 0 135 167" fill="none" xmlns="http://www.w3.org/2000/svg">
<path d="M111.997 38.5025L99.0132 45.1187L95.9985 40.2818L95.2339 34.4683L104.52 27.1949L111.997 38.5025Z" fill="#FFBC36" stroke="#CE8900"/>
<path d="M94.9316 39.8387L89.6328 38.8553L94.3193 35.1854L94.9316 39.8387Z" fill="#FFBC36" stroke="#CE8900"/>
<path d="M97.4766 48.4102L112.06 70.5771L109.616 74.3379L106.557 78.1162L103.109 81.5625L99.3311 84.6221L95.249 87.2725L90.9072 89.4844L86.3701 91.2246L81.6738 92.4834L76.8555 93.2461L72 93.5L67.1455 93.2461L65.6631 93.0107L59.0498 85.1064L53.9912 66.7695L83.7285 43.4795L97.4766 48.4102Z" fill="#FFBC36" stroke="#CE8900"/>
<path d="M117.83 39.5203L118.245 42.1433L118.499 46.9988L118.245 51.8523L117.484 56.6658L116.222 61.3708L114.478 65.9167L112.607 69.5876L98.3735 47.9509L99.2144 46.1365L112.826 39.2L117.83 39.5203Z" fill="#FFBC36" stroke="#CE8900"/>
<path d="M58.0347 85.1812L53.229 89.5356L53.0884 89.4819L48.7515 87.272L44.6636 84.6177L40.8862 81.5581L38.3481 79.02L53.1392 67.436L58.0347 85.1812Z" fill="#FFBC36" stroke="#CE8900"/>
<path d="M95.2104 40.9084L98.2651 45.8088L97.5405 47.3694L84.6606 42.7512L88.5825 39.679L95.2104 40.9084Z" fill="#FFBC36" stroke="#CE8900"/>
<path d="M64.1597 92.7717L62.3345 92.4836L57.6313 91.2239L54.2739 89.9338L58.5464 86.0618L64.1597 92.7717Z" fill="#FFBC36" stroke="#CE8900"/>
<path d="M112.272 23.7506L114.481 28.0846L116.227 32.6344L117.485 37.3317L117.67 38.5094L113.002 38.2115L105.31 26.5778L111.143 22.0104L112.272 23.7506Z" fill="#FFBC36" stroke="#CE8900"/>
<path d="M93.9009 34.2455L86.9976 39.6508L83.105 34.9291L90.9751 31.5043L93.9009 34.2455Z" fill="#4580FF" stroke="#0036AC"/>
<path d="M57.1035 8.07288L48.5029 6.88831L48.7461 6.7301L53.084 4.51917L57.627 2.77698L59.2109 2.35217L57.1035 8.07288Z" fill="#4580FF" stroke="#0036AC"/>
<path d="M106.556 15.8845L109.621 19.6687L110.595 21.1687L94.6958 33.6208L91.6616 30.7771L97.9644 13.9333L104.165 13.4929L106.556 15.8845Z" fill="#4580FF" stroke="#0036AC"/>
<path d="M57.1826 9.09174L80.4912 35.1347L80.8457 44.4667L37.6357 78.3066L37.4424 78.1132L34.3828 74.3349L31.7285 70.247L29.5195 65.913L27.7734 61.3632L26.5156 56.666L25.7549 51.8622L25.5 46.998L25.7549 42.1337L26.5156 37.3329L27.7734 32.6328L29.5195 28.0829L31.7285 23.749L34.3828 19.6611L37.4424 15.8828L40.8848 12.4413L44.6621 9.38177L47.2217 7.71967L57.1826 9.09174Z" fill="#4580FF" stroke="#0036AC"/>
<path d="M76.8623 0.754944L81.667 1.51569L86.3643 2.7735L90.9141 4.51959L95.25 6.72955L95.8916 7.14655L97.0928 13.4151L90.6826 30.5421L82.1553 34.252L81.1768 34.4014L58.0059 8.51276L60.3926 2.03522L62.334 1.51569L67.1348 0.754944L71.999 0.500061L76.8623 0.754944Z" fill="#4580FF" stroke="#0036AC"/>
<path d="M99.3364 9.38293L103.125 12.4513L103.228 12.5548L98.0161 12.9259L97.0532 7.89954L99.3364 9.38293Z" fill="#4580FF" stroke="#0036AC"/>
<path d="M86.209 40.2661L81.8184 43.7056L81.502 35.3618L82.0928 35.272L86.209 40.2661Z" fill="#4580FF" stroke="#0036AC"/>
<path d="M36.8374 119L34.451 110.273H35.5249L37.3487 117.381H37.4339L39.2919 110.273H40.4851L42.343 117.381H42.4283L44.2521 110.273H45.326L42.9396 119H41.8487L39.9226 112.045H39.8544L37.9283 119H36.8374ZM46.5064 119V112.455H47.5121V119H46.5064ZM47.0178 111.364C46.8217 111.364 46.6527 111.297 46.5107 111.163C46.3714 111.03 46.3018 110.869 46.3018 110.682C46.3018 110.494 46.3714 110.334 46.5107 110.2C46.6527 110.067 46.8217 110 47.0178 110C47.2138 110 47.3814 110.067 47.5206 110.2C47.6626 110.334 47.7337 110.494 47.7337 110.682C47.7337 110.869 47.6626 111.03 47.5206 111.163C47.3814 111.297 47.2138 111.364 47.0178 111.364ZM52.2006 112.455V113.307H48.8086V112.455H52.2006ZM49.7972 110.886H50.8029V117.125C50.8029 117.409 50.8441 117.622 50.9265 117.764C51.0117 117.903 51.1197 117.997 51.2504 118.045C51.3839 118.091 51.5245 118.114 51.6722 118.114C51.783 118.114 51.8739 118.108 51.945 118.097C52.016 118.082 52.0728 118.071 52.1154 118.062L52.32 118.966C52.2518 118.991 52.1566 119.017 52.0344 119.043C51.9123 119.071 51.7575 119.085 51.57 119.085C51.2859 119.085 51.0075 119.024 50.7347 118.902C50.4648 118.78 50.2404 118.594 50.0614 118.344C49.8853 118.094 49.7972 117.778 49.7972 117.398V110.886ZM54.8597 115.062V119H53.854V110.273H54.8597V113.477H54.945C55.0984 113.139 55.3285 112.871 55.6353 112.672C55.945 112.47 56.3569 112.369 56.8711 112.369C57.3171 112.369 57.7077 112.459 58.043 112.638C58.3782 112.814 58.6381 113.085 58.8228 113.452C59.0103 113.815 59.104 114.278 59.104 114.841V119H58.0984V114.909C58.0984 114.389 57.9634 113.987 57.6935 113.703C57.4265 113.416 57.0558 113.273 56.5813 113.273C56.2518 113.273 55.9563 113.342 55.695 113.482C55.4364 113.621 55.2319 113.824 55.0813 114.091C54.9336 114.358 54.8597 114.682 54.8597 115.062ZM60.9439 119V112.455H61.9496V119H60.9439ZM61.4553 111.364C61.2592 111.364 61.0902 111.297 60.9482 111.163C60.8089 111.03 60.7393 110.869 60.7393 110.682C60.7393 110.494 60.8089 110.334 60.9482 110.2C61.0902 110.067 61.2592 110 61.4553 110C61.6513 110 61.8189 110.067 61.9581 110.2C62.1001 110.334 62.1712 110.494 62.1712 110.682C62.1712 110.869 62.1001 111.03 61.9581 111.163C61.8189 111.297 61.6513 111.364 61.4553 111.364ZM64.7972 115.062V119H63.7915V112.455H64.7631V113.477H64.8484C65.0018 113.145 65.2347 112.878 65.5472 112.676C65.8597 112.472 66.2631 112.369 66.7575 112.369C67.2006 112.369 67.5884 112.46 67.9208 112.642C68.2532 112.821 68.5117 113.094 68.6964 113.46C68.881 113.824 68.9734 114.284 68.9734 114.841V119H67.9677V114.909C67.9677 114.395 67.8342 113.994 67.5671 113.707C67.3001 113.418 66.9336 113.273 66.4677 113.273C66.1467 113.273 65.8597 113.342 65.6069 113.482C65.3569 113.621 65.1594 113.824 65.0146 114.091C64.8697 114.358 64.7972 114.682 64.7972 115.062ZM76.9304 119.136C76.2997 119.136 75.7557 118.997 75.2983 118.719C74.8438 118.438 74.4929 118.045 74.2457 117.543C74.0014 117.037 73.8793 116.449 73.8793 115.778C73.8793 115.108 74.0014 114.517 74.2457 114.006C74.4929 113.491 74.8366 113.091 75.277 112.804C75.7202 112.514 76.2372 112.369 76.8281 112.369C77.169 112.369 77.5057 112.426 77.8381 112.54C78.1705 112.653 78.473 112.838 78.7457 113.094C79.0185 113.347 79.2358 113.682 79.3977 114.099C79.5597 114.517 79.6406 115.031 79.6406 115.642V116.068H74.5952V115.199H78.6179C78.6179 114.83 78.544 114.5 78.3963 114.21C78.2514 113.92 78.044 113.692 77.7741 113.524C77.5071 113.357 77.1918 113.273 76.8281 113.273C76.4276 113.273 76.081 113.372 75.7884 113.571C75.4986 113.767 75.2756 114.023 75.1193 114.338C74.9631 114.653 74.8849 114.991 74.8849 115.352V115.932C74.8849 116.426 74.9702 116.845 75.1406 117.189C75.3139 117.53 75.554 117.79 75.8608 117.969C76.1676 118.145 76.5241 118.233 76.9304 118.233C77.1946 118.233 77.4332 118.196 77.6463 118.122C77.8622 118.045 78.0483 117.932 78.2045 117.781C78.3608 117.628 78.4815 117.437 78.5668 117.21L79.5384 117.483C79.4361 117.812 79.2642 118.102 79.0227 118.352C78.7813 118.599 78.483 118.793 78.1278 118.932C77.7727 119.068 77.3736 119.136 76.9304 119.136ZM83.0966 119.153C82.6818 119.153 82.3054 119.075 81.9673 118.919C81.6293 118.76 81.3608 118.531 81.1619 118.233C80.9631 117.932 80.8636 117.568 80.8636 117.142C80.8636 116.767 80.9375 116.463 81.0852 116.23C81.233 115.994 81.4304 115.81 81.6776 115.676C81.9247 115.543 82.1974 115.443 82.4957 115.378C82.7969 115.31 83.0994 115.256 83.4034 115.216C83.8011 115.165 84.1236 115.126 84.3707 115.101C84.6207 115.072 84.8026 115.026 84.9162 114.96C85.0327 114.895 85.0909 114.781 85.0909 114.619V114.585C85.0909 114.165 84.9759 113.838 84.7457 113.605C84.5185 113.372 84.1733 113.256 83.7102 113.256C83.2301 113.256 82.8537 113.361 82.581 113.571C82.3082 113.781 82.1165 114.006 82.0057 114.244L81.0511 113.903C81.2216 113.506 81.4489 113.196 81.733 112.974C82.0199 112.75 82.3324 112.594 82.6705 112.506C83.0114 112.415 83.3466 112.369 83.6761 112.369C83.8864 112.369 84.1278 112.395 84.4006 112.446C84.6761 112.494 84.9418 112.595 85.1974 112.749C85.456 112.902 85.6705 113.134 85.8409 113.443C86.0114 113.753 86.0966 114.168 86.0966 114.688V119H85.0909V118.114H85.0398C84.9716 118.256 84.858 118.408 84.6989 118.57C84.5398 118.732 84.3281 118.869 84.0639 118.983C83.7997 119.097 83.4773 119.153 83.0966 119.153ZM83.25 118.25C83.6477 118.25 83.983 118.172 84.2557 118.016C84.5313 117.859 84.7386 117.658 84.8778 117.411C85.0199 117.163 85.0909 116.903 85.0909 116.631V115.71C85.0483 115.761 84.9545 115.808 84.8097 115.851C84.6676 115.891 84.5028 115.926 84.3153 115.957C84.1307 115.986 83.9503 116.011 83.7741 116.034C83.6009 116.054 83.4602 116.071 83.3523 116.085C83.0909 116.119 82.8466 116.175 82.6193 116.251C82.3949 116.325 82.2131 116.437 82.0739 116.588C81.9375 116.736 81.8693 116.937 81.8693 117.193C81.8693 117.543 81.9986 117.807 82.2571 117.986C82.5185 118.162 82.8494 118.25 83.25 118.25ZM90.5913 119.136C89.9776 119.136 89.4492 118.991 89.006 118.702C88.5629 118.412 88.2219 118.013 87.9833 117.504C87.7447 116.996 87.6254 116.415 87.6254 115.761C87.6254 115.097 87.7475 114.51 87.9918 114.001C88.239 113.49 88.5827 113.091 89.0231 112.804C89.4663 112.514 89.9833 112.369 90.5742 112.369C91.0344 112.369 91.4492 112.455 91.8185 112.625C92.1879 112.795 92.4904 113.034 92.7262 113.341C92.962 113.648 93.1083 114.006 93.1651 114.415H92.1594C92.0827 114.116 91.9123 113.852 91.6481 113.622C91.3867 113.389 91.0344 113.273 90.5913 113.273C90.1992 113.273 89.8555 113.375 89.56 113.58C89.2674 113.781 89.0387 114.067 88.8739 114.436C88.712 114.803 88.631 115.233 88.631 115.727C88.631 116.233 88.7106 116.673 88.8697 117.048C89.0316 117.423 89.2589 117.714 89.5515 117.922C89.8469 118.129 90.1935 118.233 90.5913 118.233C90.8526 118.233 91.0898 118.188 91.3029 118.097C91.516 118.006 91.6964 117.875 91.8441 117.705C91.9918 117.534 92.0969 117.33 92.1594 117.091H93.1651C93.1083 117.477 92.9677 117.825 92.7433 118.135C92.5217 118.442 92.2276 118.686 91.8612 118.868C91.4975 119.047 91.0742 119.136 90.5913 119.136ZM95.641 115.062V119H94.6353V110.273H95.641V113.477H95.7262C95.8796 113.139 96.1097 112.871 96.4165 112.672C96.7262 112.47 97.1381 112.369 97.6523 112.369C98.0984 112.369 98.489 112.459 98.8242 112.638C99.1594 112.814 99.4194 113.085 99.604 113.452C99.7915 113.815 99.8853 114.278 99.8853 114.841V119H98.8796V114.909C98.8796 114.389 98.7447 113.987 98.4748 113.703C98.2077 113.416 97.837 113.273 97.3626 113.273C97.033 113.273 96.7376 113.342 96.4762 113.482C96.2177 113.621 96.0131 113.824 95.8626 114.091C95.7148 114.358 95.641 114.682 95.641 115.062ZM3.37926 130.062V134H2.37358V127.455H3.34517V128.477H3.4304C3.58381 128.145 3.81676 127.878 4.12926 127.676C4.44176 127.472 4.84517 127.369 5.33949 127.369C5.78267 127.369 6.17045 127.46 6.50284 127.642C6.83523 127.821 7.09375 128.094 7.27841 128.46C7.46307 128.824 7.5554 129.284 7.5554 129.841V134H6.54972V129.909C6.54972 129.395 6.41619 128.994 6.14915 128.707C5.8821 128.418 5.51563 128.273 5.04972 128.273C4.72869 128.273 4.44176 128.342 4.18892 128.482C3.93892 128.621 3.74148 128.824 3.59659 129.091C3.4517 129.358 3.37926 129.682 3.37926 130.062ZM12.1374 134.136C11.5067 134.136 10.9627 133.997 10.5053 133.719C10.0508 133.438 9.69993 133.045 9.45277 132.543C9.20845 132.037 9.08629 131.449 9.08629 130.778C9.08629 130.108 9.20845 129.517 9.45277 129.006C9.69993 128.491 10.0437 128.091 10.484 127.804C10.9272 127.514 11.4442 127.369 12.0352 127.369C12.3761 127.369 12.7127 127.426 13.0451 127.54C13.3775 127.653 13.68 127.838 13.9528 128.094C14.2255 128.347 14.4428 128.682 14.6048 129.099C14.7667 129.517 14.8477 130.031 14.8477 130.642V131.068H9.8022V130.199H13.8249C13.8249 129.83 13.7511 129.5 13.6033 129.21C13.4585 128.92 13.2511 128.692 12.9812 128.524C12.7141 128.357 12.3988 128.273 12.0352 128.273C11.6346 128.273 11.288 128.372 10.9954 128.571C10.7056 128.767 10.4826 129.023 10.3263 129.338C10.1701 129.653 10.092 129.991 10.092 130.352V130.932C10.092 131.426 10.1772 131.845 10.3477 132.189C10.521 132.53 10.761 132.79 11.0678 132.969C11.3746 133.145 11.7312 133.233 12.1374 133.233C12.4016 133.233 12.6403 133.196 12.8533 133.122C13.0692 133.045 13.2553 132.932 13.4116 132.781C13.5678 132.628 13.6886 132.437 13.7738 132.21L14.7454 132.483C14.6431 132.812 14.4712 133.102 14.2298 133.352C13.9883 133.599 13.69 133.793 13.3349 133.932C12.9798 134.068 12.5806 134.136 12.1374 134.136ZM17.8604 134L15.8661 127.455H16.9229L18.3377 132.466H18.4059L19.8036 127.455H20.8775L22.2582 132.449H22.3263L23.7411 127.455H24.7979L22.8036 134H21.815L20.3832 128.972H20.2809L18.8491 134H17.8604ZM30.7638 128.92L29.8604 129.176C29.8036 129.026 29.7198 128.879 29.609 128.737C29.5011 128.592 29.3533 128.473 29.1658 128.379C28.9783 128.286 28.7383 128.239 28.4457 128.239C28.0451 128.239 27.7113 128.331 27.4442 128.516C27.18 128.697 27.0479 128.929 27.0479 129.21C27.0479 129.46 27.1388 129.658 27.3207 129.803C27.5025 129.947 27.7866 130.068 28.1729 130.165L29.1445 130.403C29.7298 130.545 30.1658 130.763 30.4528 131.055C30.7397 131.345 30.8832 131.719 30.8832 132.176C30.8832 132.551 30.7752 132.886 30.5593 133.182C30.3462 133.477 30.0479 133.71 29.6644 133.881C29.2809 134.051 28.8349 134.136 28.3263 134.136C27.6587 134.136 27.1062 133.991 26.6687 133.702C26.2312 133.412 25.9542 132.989 25.8377 132.432L26.7923 132.193C26.8832 132.545 27.055 132.81 27.3079 132.986C27.5636 133.162 27.8974 133.25 28.3093 133.25C28.7781 133.25 29.1502 133.151 29.4258 132.952C29.7042 132.75 29.8434 132.509 29.8434 132.227C29.8434 132 29.7638 131.81 29.6048 131.656C29.4457 131.5 29.2013 131.384 28.8718 131.307L27.7809 131.051C27.1815 130.909 26.7411 130.689 26.4599 130.391C26.1815 130.089 26.0423 129.713 26.0423 129.261C26.0423 128.892 26.146 128.565 26.3533 128.281C26.5636 127.997 26.8491 127.774 27.2099 127.612C27.5735 127.45 27.9854 127.369 28.4457 127.369C29.0934 127.369 29.6019 127.511 29.9712 127.795C30.3434 128.08 30.6076 128.455 30.7638 128.92ZM32.397 136.455V127.455H33.3686V128.494H33.4879C33.5618 128.381 33.6641 128.236 33.7947 128.06C33.9283 127.881 34.1186 127.722 34.3658 127.582C34.6158 127.44 34.9538 127.369 35.38 127.369C35.9311 127.369 36.4169 127.507 36.8374 127.783C37.2578 128.058 37.5859 128.449 37.8217 128.955C38.0575 129.46 38.1754 130.057 38.1754 130.744C38.1754 131.438 38.0575 132.038 37.8217 132.547C37.5859 133.053 37.2592 133.445 36.8416 133.723C36.424 133.999 35.9425 134.136 35.397 134.136C34.9766 134.136 34.6399 134.067 34.3871 133.928C34.1342 133.786 33.9396 133.625 33.8033 133.446C33.6669 133.264 33.5618 133.114 33.4879 132.994H33.4027V136.455H32.397ZM33.3857 130.727C33.3857 131.222 33.4581 131.658 33.603 132.036C33.7479 132.411 33.9595 132.705 34.2379 132.918C34.5163 133.128 34.8572 133.233 35.2607 133.233C35.6811 133.233 36.032 133.122 36.3132 132.901C36.5973 132.676 36.8104 132.375 36.9524 131.997C37.0973 131.616 37.1697 131.193 37.1697 130.727C37.1697 130.267 37.0987 129.852 36.9567 129.483C36.8175 129.111 36.6058 128.817 36.3217 128.601C36.0405 128.382 35.6868 128.273 35.2607 128.273C34.8516 128.273 34.5078 128.376 34.2294 128.584C33.951 128.788 33.7408 129.075 33.5987 129.445C33.4567 129.811 33.3857 130.239 33.3857 130.727ZM41.6357 134.153C41.2209 134.153 40.8445 134.075 40.5064 133.919C40.1683 133.76 39.8999 133.531 39.701 133.233C39.5021 132.932 39.4027 132.568 39.4027 132.142C39.4027 131.767 39.4766 131.463 39.6243 131.23C39.772 130.994 39.9695 130.81 40.2166 130.676C40.4638 130.543 40.7365 130.443 41.0348 130.378C41.3359 130.31 41.6385 130.256 41.9425 130.216C42.3402 130.165 42.6626 130.126 42.9098 130.101C43.1598 130.072 43.3416 130.026 43.4553 129.96C43.5717 129.895 43.63 129.781 43.63 129.619V129.585C43.63 129.165 43.5149 128.838 43.2848 128.605C43.0575 128.372 42.7124 128.256 42.2493 128.256C41.7692 128.256 41.3928 128.361 41.12 128.571C40.8473 128.781 40.6555 129.006 40.5447 129.244L39.5902 128.903C39.7607 128.506 39.9879 128.196 40.272 127.974C40.5589 127.75 40.8714 127.594 41.2095 127.506C41.5504 127.415 41.8857 127.369 42.2152 127.369C42.4254 127.369 42.6669 127.395 42.9396 127.446C43.2152 127.494 43.4808 127.595 43.7365 127.749C43.995 127.902 44.2095 128.134 44.38 128.443C44.5504 128.753 44.6357 129.168 44.6357 129.688V134H43.63V133.114H43.5788C43.5107 133.256 43.397 133.408 43.2379 133.57C43.0788 133.732 42.8672 133.869 42.603 133.983C42.3388 134.097 42.0163 134.153 41.6357 134.153ZM41.7891 133.25C42.1868 133.25 42.522 133.172 42.7947 133.016C43.0703 132.859 43.2777 132.658 43.4169 132.411C43.5589 132.163 43.63 131.903 43.63 131.631V130.71C43.5874 130.761 43.4936 130.808 43.3487 130.851C43.2067 130.891 43.0419 130.926 42.8544 130.957C42.6697 130.986 42.4893 131.011 42.3132 131.034C42.1399 131.054 41.9993 131.071 41.8913 131.085C41.63 131.119 41.3857 131.175 41.1584 131.251C40.9339 131.325 40.7521 131.437 40.6129 131.588C40.4766 131.736 40.4084 131.937 40.4084 132.193C40.4084 132.543 40.5376 132.807 40.7962 132.986C41.0575 133.162 41.3885 133.25 41.7891 133.25ZM46.4712 136.455V127.455H47.4428V128.494H47.5621C47.636 128.381 47.7383 128.236 47.869 128.06C48.0025 127.881 48.1928 127.722 48.44 127.582C48.69 127.44 49.0281 127.369 49.4542 127.369C50.0053 127.369 50.4911 127.507 50.9116 127.783C51.332 128.058 51.6602 128.449 51.896 128.955C52.1317 129.46 52.2496 130.057 52.2496 130.744C52.2496 131.438 52.1317 132.038 51.896 132.547C51.6602 133.053 51.3335 133.445 50.9158 133.723C50.4982 133.999 50.0167 134.136 49.4712 134.136C49.0508 134.136 48.7141 134.067 48.4613 133.928C48.2085 133.786 48.0138 133.625 47.8775 133.446C47.7411 133.264 47.636 133.114 47.5621 132.994H47.4769V136.455H46.4712ZM47.4599 130.727C47.4599 131.222 47.5323 131.658 47.6772 132.036C47.8221 132.411 48.0337 132.705 48.3121 132.918C48.5906 133.128 48.9315 133.233 49.3349 133.233C49.7553 133.233 50.1062 133.122 50.3874 132.901C50.6715 132.676 50.8846 132.375 51.0266 131.997C51.1715 131.616 51.244 131.193 51.244 130.727C51.244 130.267 51.1729 129.852 51.0309 129.483C50.8917 129.111 50.68 128.817 50.396 128.601C50.1147 128.382 49.761 128.273 49.3349 128.273C48.9258 128.273 48.582 128.376 48.3036 128.584C48.0252 128.788 47.815 129.075 47.6729 129.445C47.5309 129.811 47.4599 130.239 47.4599 130.727ZM56.5281 134.136C55.8974 134.136 55.3533 133.997 54.896 133.719C54.4414 133.438 54.0906 133.045 53.8434 132.543C53.5991 132.037 53.4769 131.449 53.4769 130.778C53.4769 130.108 53.5991 129.517 53.8434 129.006C54.0906 128.491 54.4343 128.091 54.8746 127.804C55.3178 127.514 55.8349 127.369 56.4258 127.369C56.7667 127.369 57.1033 127.426 57.4357 127.54C57.7681 127.653 58.0707 127.838 58.3434 128.094C58.6161 128.347 58.8335 128.682 58.9954 129.099C59.1573 129.517 59.2383 130.031 59.2383 130.642V131.068H54.1928V130.199H58.2156C58.2156 129.83 58.1417 129.5 57.994 129.21C57.8491 128.92 57.6417 128.692 57.3718 128.524C57.1048 128.357 56.7894 128.273 56.4258 128.273C56.0252 128.273 55.6786 128.372 55.386 128.571C55.0962 128.767 54.8732 129.023 54.717 129.338C54.5607 129.653 54.4826 129.991 54.4826 130.352V130.932C54.4826 131.426 54.5678 131.845 54.7383 132.189C54.9116 132.53 55.1516 132.79 55.4585 132.969C55.7653 133.145 56.1218 133.233 56.5281 133.233C56.7923 133.233 57.0309 133.196 57.244 133.122C57.4599 133.045 57.646 132.932 57.8022 132.781C57.9585 132.628 58.0792 132.437 58.1644 132.21L59.136 132.483C59.0337 132.812 58.8619 133.102 58.6204 133.352C58.3789 133.599 58.0806 133.793 57.7255 133.932C57.3704 134.068 56.9712 134.136 56.5281 134.136ZM60.7681 134V127.455H61.7397V128.443H61.8079C61.9272 128.119 62.1431 127.857 62.4556 127.655C62.7681 127.453 63.1204 127.352 63.5124 127.352C63.5863 127.352 63.6786 127.354 63.7894 127.357C63.9002 127.359 63.984 127.364 64.0408 127.369V128.392C64.0067 128.384 63.9286 128.371 63.8065 128.354C63.6871 128.334 63.5607 128.324 63.4272 128.324C63.109 128.324 62.8249 128.391 62.5749 128.524C62.3278 128.655 62.1317 128.837 61.9869 129.07C61.8448 129.3 61.7738 129.562 61.7738 129.858V134H60.7681ZM65.983 132.807L65.9148 133.267C65.8665 133.591 65.7926 133.938 65.6932 134.307C65.5966 134.676 65.4957 135.024 65.3906 135.351C65.2855 135.678 65.1989 135.938 65.1307 136.131H64.3636C64.4006 135.949 64.4489 135.709 64.5085 135.411C64.5682 135.112 64.6278 134.778 64.6875 134.409C64.75 134.043 64.8011 133.668 64.8409 133.284L64.892 132.807H65.983ZM71.2212 134V127.455H72.1928V128.443H72.261C72.3803 128.119 72.5962 127.857 72.9087 127.655C73.2212 127.453 73.5735 127.352 73.9656 127.352C74.0394 127.352 74.1317 127.354 74.2425 127.357C74.3533 127.359 74.4371 127.364 74.494 127.369V128.392C74.4599 128.384 74.3817 128.371 74.2596 128.354C74.1403 128.334 74.0138 128.324 73.8803 128.324C73.5621 128.324 73.2781 128.391 73.0281 128.524C72.7809 128.655 72.5849 128.837 72.44 129.07C72.2979 129.3 72.2269 129.562 72.2269 129.858V134H71.2212ZM78.2312 134.136C77.6005 134.136 77.0565 133.997 76.5991 133.719C76.1445 133.438 75.7937 133.045 75.5465 132.543C75.3022 132.037 75.18 131.449 75.18 130.778C75.18 130.108 75.3022 129.517 75.5465 129.006C75.7937 128.491 76.1374 128.091 76.5778 127.804C77.021 127.514 77.538 127.369 78.1289 127.369C78.4698 127.369 78.8065 127.426 79.1388 127.54C79.4712 127.653 79.7738 127.838 80.0465 128.094C80.3192 128.347 80.5366 128.682 80.6985 129.099C80.8604 129.517 80.9414 130.031 80.9414 130.642V131.068H75.896V130.199H79.9187C79.9187 129.83 79.8448 129.5 79.6971 129.21C79.5522 128.92 79.3448 128.692 79.0749 128.524C78.8079 128.357 78.4925 128.273 78.1289 128.273C77.7283 128.273 77.3817 128.372 77.0891 128.571C76.7994 128.767 76.5763 129.023 76.4201 129.338C76.2638 129.653 76.1857 129.991 76.1857 130.352V130.932C76.1857 131.426 76.271 131.845 76.4414 132.189C76.6147 132.53 76.8548 132.79 77.1616 132.969C77.4684 133.145 77.8249 133.233 78.2312 133.233C78.4954 133.233 78.734 133.196 78.9471 133.122C79.163 133.045 79.3491 132.932 79.5053 132.781C79.6616 132.628 79.7823 132.437 79.8675 132.21L80.8391 132.483C80.7369 132.812 80.565 133.102 80.3235 133.352C80.082 133.599 79.7837 133.793 79.4286 133.932C79.0735 134.068 78.6744 134.136 78.2312 134.136ZM85.1133 136.591C84.6275 136.591 84.2099 136.528 83.8604 136.403C83.511 136.281 83.2198 136.119 82.9869 135.918C82.7567 135.719 82.5735 135.506 82.4371 135.278L83.2383 134.716C83.3292 134.835 83.4442 134.972 83.5835 135.125C83.7227 135.281 83.913 135.416 84.1545 135.53C84.3988 135.646 84.7184 135.705 85.1133 135.705C85.6417 135.705 86.0778 135.577 86.4215 135.321C86.7653 135.065 86.9371 134.665 86.9371 134.119V132.79H86.8519C86.7781 132.909 86.6729 133.057 86.5366 133.233C86.4031 133.406 86.2099 133.561 85.957 133.697C85.707 133.831 85.369 133.898 84.9428 133.898C84.4144 133.898 83.94 133.773 83.5195 133.523C83.1019 133.273 82.771 132.909 82.5266 132.432C82.2852 131.955 82.1644 131.375 82.1644 130.693C82.1644 130.023 82.2823 129.439 82.5181 128.942C82.7539 128.442 83.082 128.055 83.5025 127.783C83.9229 127.507 84.4087 127.369 84.9599 127.369C85.386 127.369 85.7241 127.44 85.9741 127.582C86.2269 127.722 86.4201 127.881 86.5536 128.06C86.69 128.236 86.7951 128.381 86.869 128.494H86.9712V127.455H87.9428V134.188C87.9428 134.75 87.815 135.207 87.5593 135.56C87.3065 135.915 86.9656 136.175 86.5366 136.339C86.1104 136.507 85.636 136.591 85.1133 136.591ZM85.0792 132.994C85.4826 132.994 85.8235 132.902 86.1019 132.717C86.3803 132.533 86.592 132.267 86.7369 131.92C86.8817 131.574 86.9542 131.159 86.9542 130.676C86.9542 130.205 86.8832 129.788 86.7411 129.428C86.5991 129.067 86.3888 128.784 86.1104 128.58C85.832 128.375 85.4883 128.273 85.0792 128.273C84.6531 128.273 84.2979 128.381 84.0138 128.597C83.7326 128.812 83.521 129.102 83.3789 129.466C83.2397 129.83 83.1701 130.233 83.1701 130.676C83.1701 131.131 83.2411 131.533 83.3832 131.882C83.5281 132.229 83.7411 132.501 84.0224 132.7C84.3065 132.896 84.6587 132.994 85.0792 132.994ZM89.7837 134V127.455H90.7894V134H89.7837ZM90.2951 126.364C90.0991 126.364 89.93 126.297 89.788 126.163C89.6488 126.03 89.5792 125.869 89.5792 125.682C89.5792 125.494 89.6488 125.334 89.788 125.2C89.93 125.067 90.0991 125 90.2951 125C90.4911 125 90.6587 125.067 90.7979 125.2C90.94 125.334 91.011 125.494 91.011 125.682C91.011 125.869 90.94 126.03 90.7979 126.163C90.6587 126.297 90.4911 126.364 90.2951 126.364ZM95.2905 134.136C94.6996 134.136 94.1811 133.996 93.7351 133.714C93.2919 133.433 92.9453 133.04 92.6953 132.534C92.4482 132.028 92.3246 131.437 92.3246 130.761C92.3246 130.08 92.4482 129.484 92.6953 128.976C92.9453 128.467 93.2919 128.072 93.7351 127.791C94.1811 127.51 94.6996 127.369 95.2905 127.369C95.8814 127.369 96.3984 127.51 96.8416 127.791C97.2876 128.072 97.6342 128.467 97.8814 128.976C98.1314 129.484 98.2564 130.08 98.2564 130.761C98.2564 131.437 98.1314 132.028 97.8814 132.534C97.6342 133.04 97.2876 133.433 96.8416 133.714C96.3984 133.996 95.8814 134.136 95.2905 134.136ZM95.2905 133.233C95.7393 133.233 96.1087 133.118 96.3984 132.888C96.6882 132.658 96.9027 132.355 97.0419 131.98C97.1811 131.605 97.2507 131.199 97.2507 130.761C97.2507 130.324 97.1811 129.916 97.0419 129.538C96.9027 129.161 96.6882 128.855 96.3984 128.622C96.1087 128.389 95.7393 128.273 95.2905 128.273C94.8416 128.273 94.4723 128.389 94.1825 128.622C93.8928 128.855 93.6783 129.161 93.5391 129.538C93.3999 129.916 93.3303 130.324 93.3303 130.761C93.3303 131.199 93.3999 131.605 93.5391 131.98C93.6783 132.355 93.8928 132.658 94.1825 132.888C94.4723 133.118 94.8416 133.233 95.2905 133.233ZM100.797 130.062V134H99.7915V127.455H100.763V128.477H100.848C101.002 128.145 101.235 127.878 101.547 127.676C101.86 127.472 102.263 127.369 102.757 127.369C103.201 127.369 103.588 127.46 103.921 127.642C104.253 127.821 104.512 128.094 104.696 128.46C104.881 128.824 104.973 129.284 104.973 129.841V134H103.968V129.909C103.968 129.395 103.834 128.994 103.567 128.707C103.3 128.418 102.934 128.273 102.468 128.273C102.147 128.273 101.86 128.342 101.607 128.482C101.357 128.621 101.159 128.824 101.015 129.091C100.87 129.358 100.797 129.682 100.797 130.062ZM111.447 128.92L110.544 129.176C110.487 129.026 110.403 128.879 110.293 128.737C110.185 128.592 110.037 128.473 109.849 128.379C109.662 128.286 109.422 128.239 109.129 128.239C108.729 128.239 108.395 128.331 108.128 128.516C107.864 128.697 107.732 128.929 107.732 129.21C107.732 129.46 107.822 129.658 108.004 129.803C108.186 129.947 108.47 130.068 108.857 130.165L109.828 130.403C110.413 130.545 110.849 130.763 111.136 131.055C111.423 131.345 111.567 131.719 111.567 132.176C111.567 132.551 111.459 132.886 111.243 133.182C111.03 133.477 110.732 133.71 110.348 133.881C109.964 134.051 109.518 134.136 109.01 134.136C108.342 134.136 107.79 133.991 107.352 133.702C106.915 133.412 106.638 132.989 106.521 132.432L107.476 132.193C107.567 132.545 107.739 132.81 107.991 132.986C108.247 133.162 108.581 133.25 108.993 133.25C109.462 133.25 109.834 133.151 110.109 132.952C110.388 132.75 110.527 132.509 110.527 132.227C110.527 132 110.447 131.81 110.288 131.656C110.129 131.5 109.885 131.384 109.555 131.307L108.464 131.051C107.865 130.909 107.425 130.689 107.143 130.391C106.865 130.089 106.726 129.713 106.726 129.261C106.726 128.892 106.83 128.565 107.037 128.281C107.247 127.997 107.533 127.774 107.893 127.612C108.257 127.45 108.669 127.369 109.129 127.369C109.777 127.369 110.286 127.511 110.655 127.795C111.027 128.08 111.291 128.455 111.447 128.92ZM118.382 134.153C117.967 134.153 117.591 134.075 117.252 133.919C116.914 133.76 116.646 133.531 116.447 133.233C116.248 132.932 116.149 132.568 116.149 132.142C116.149 131.767 116.223 131.463 116.37 131.23C116.518 130.994 116.716 130.81 116.963 130.676C117.21 130.543 117.483 130.443 117.781 130.378C118.082 130.31 118.385 130.256 118.689 130.216C119.086 130.165 119.409 130.126 119.656 130.101C119.906 130.072 120.088 130.026 120.201 129.96C120.318 129.895 120.376 129.781 120.376 129.619V129.585C120.376 129.165 120.261 128.838 120.031 128.605C119.804 128.372 119.458 128.256 118.995 128.256C118.515 128.256 118.139 128.361 117.866 128.571C117.593 128.781 117.402 129.006 117.291 129.244L116.336 128.903C116.507 128.506 116.734 128.196 117.018 127.974C117.305 127.75 117.618 127.594 117.956 127.506C118.297 127.415 118.632 127.369 118.961 127.369C119.172 127.369 119.413 127.395 119.686 127.446C119.961 127.494 120.227 127.595 120.483 127.749C120.741 127.902 120.956 128.134 121.126 128.443C121.297 128.753 121.382 129.168 121.382 129.688V134H120.376V133.114H120.325C120.257 133.256 120.143 133.408 119.984 133.57C119.825 133.732 119.613 133.869 119.349 133.983C119.085 134.097 118.762 134.153 118.382 134.153ZM118.535 133.25C118.933 133.25 119.268 133.172 119.541 133.016C119.816 132.859 120.024 132.658 120.163 132.411C120.305 132.163 120.376 131.903 120.376 131.631V130.71C120.333 130.761 120.24 130.808 120.095 130.851C119.953 130.891 119.788 130.926 119.6 130.957C119.416 130.986 119.235 131.011 119.059 131.034C118.886 131.054 118.745 131.071 118.637 131.085C118.376 131.119 118.132 131.175 117.904 131.251C117.68 131.325 117.498 131.437 117.359 131.588C117.223 131.736 117.154 131.937 117.154 132.193C117.154 132.543 117.284 132.807 117.542 132.986C117.804 133.162 118.135 133.25 118.535 133.25ZM123.217 134V127.455H124.189V128.443H124.257C124.376 128.119 124.592 127.857 124.905 127.655C125.217 127.453 125.57 127.352 125.962 127.352C126.036 127.352 126.128 127.354 126.239 127.357C126.349 127.359 126.433 127.364 126.49 127.369V128.392C126.456 128.384 126.378 128.371 126.256 128.354C126.136 128.334 126.01 128.324 125.876 128.324C125.558 128.324 125.274 128.391 125.024 128.524C124.777 128.655 124.581 128.837 124.436 129.07C124.294 129.3 124.223 129.562 124.223 129.858V134H123.217ZM130.227 134.136C129.597 134.136 129.053 133.997 128.595 133.719C128.141 133.438 127.79 133.045 127.543 132.543C127.298 132.037 127.176 131.449 127.176 130.778C127.176 130.108 127.298 129.517 127.543 129.006C127.79 128.491 128.134 128.091 128.574 127.804C129.017 127.514 129.534 127.369 130.125 127.369C130.466 127.369 130.803 127.426 131.135 127.54C131.467 127.653 131.77 127.838 132.043 128.094C132.315 128.347 132.533 128.682 132.695 129.099C132.857 129.517 132.938 130.031 132.938 130.642V131.068H127.892V130.199H131.915C131.915 129.83 131.841 129.5 131.693 129.21C131.548 128.92 131.341 128.692 131.071 128.524C130.804 128.357 130.489 128.273 130.125 128.273C129.724 128.273 129.378 128.372 129.085 128.571C128.795 128.767 128.572 129.023 128.416 129.338C128.26 129.653 128.182 129.991 128.182 130.352V130.932C128.182 131.426 128.267 131.845 128.438 132.189C128.611 132.53 128.851 132.79 129.158 132.969C129.464 133.145 129.821 133.233 130.227 133.233C130.491 133.233 130.73 133.196 130.943 133.122C131.159 133.045 131.345 132.932 131.501 132.781C131.658 132.628 131.778 132.437 131.864 132.21L132.835 132.483C132.733 132.812 132.561 133.102 132.32 133.352C132.078 133.599 131.78 133.793 131.425 133.932C131.07 134.068 130.67 134.136 130.227 134.136ZM19.2267 143.92L18.3233 144.176C18.2665 144.026 18.1827 143.879 18.0719 143.737C17.964 143.592 17.8162 143.473 17.6287 143.379C17.4412 143.286 17.2012 143.239 16.9086 143.239C16.508 143.239 16.1742 143.331 15.9071 143.516C15.6429 143.697 15.5108 143.929 15.5108 144.21C15.5108 144.46 15.6017 144.658 15.7836 144.803C15.9654 144.947 16.2495 145.068 16.6358 145.165L17.6074 145.403C18.1926 145.545 18.6287 145.763 18.9157 146.055C19.2026 146.345 19.3461 146.719 19.3461 147.176C19.3461 147.551 19.2381 147.886 19.0222 148.182C18.8091 148.477 18.5108 148.71 18.1273 148.881C17.7438 149.051 17.2978 149.136 16.7892 149.136C16.1216 149.136 15.5691 148.991 15.1316 148.702C14.6941 148.412 14.4171 147.989 14.3006 147.432L15.2551 147.193C15.3461 147.545 15.5179 147.81 15.7708 147.986C16.0265 148.162 16.3603 148.25 16.7722 148.25C17.2409 148.25 17.6131 148.151 17.8887 147.952C18.1671 147.75 18.3063 147.509 18.3063 147.227C18.3063 147 18.2267 146.81 18.0676 146.656C17.9086 146.5 17.6642 146.384 17.3347 146.307L16.2438 146.051C15.6444 145.909 15.204 145.689 14.9228 145.391C14.6444 145.089 14.5051 144.713 14.5051 144.261C14.5051 143.892 14.6088 143.565 14.8162 143.281C15.0265 142.997 15.312 142.774 15.6728 142.612C16.0364 142.45 16.4483 142.369 16.9086 142.369C17.5563 142.369 18.0648 142.511 18.4341 142.795C18.8063 143.08 19.0705 143.455 19.2267 143.92ZM20.8599 149V142.455H21.8656V149H20.8599ZM21.3713 141.364C21.1752 141.364 21.0062 141.297 20.8642 141.163C20.725 141.03 20.6554 140.869 20.6554 140.682C20.6554 140.494 20.725 140.334 20.8642 140.2C21.0062 140.067 21.1752 140 21.3713 140C21.5673 140 21.7349 140.067 21.8741 140.2C22.0162 140.334 22.0872 140.494 22.0872 140.682C22.0872 140.869 22.0162 141.03 21.8741 141.163C21.7349 141.297 21.5673 141.364 21.3713 141.364ZM23.5201 149V148.233L27.236 143.46V143.392H23.6394V142.455H28.5314V143.256L24.9178 147.994V148.062H28.6507V149H23.5201ZM32.7566 149.136C32.1259 149.136 31.5819 148.997 31.1245 148.719C30.6699 148.438 30.3191 148.045 30.0719 147.543C29.8276 147.037 29.7054 146.449 29.7054 145.778C29.7054 145.108 29.8276 144.517 30.0719 144.006C30.3191 143.491 30.6628 143.091 31.1032 142.804C31.5463 142.514 32.0634 142.369 32.6543 142.369C32.9952 142.369 33.3319 142.426 33.6642 142.54C33.9966 142.653 34.2992 142.838 34.5719 143.094C34.8446 143.347 35.062 143.682 35.2239 144.099C35.3858 144.517 35.4668 145.031 35.4668 145.642V146.068H30.4213V145.199H34.4441C34.4441 144.83 34.3702 144.5 34.2225 144.21C34.0776 143.92 33.8702 143.692 33.6003 143.524C33.3333 143.357 33.0179 143.273 32.6543 143.273C32.2537 143.273 31.9071 143.372 31.6145 143.571C31.3248 143.767 31.1017 144.023 30.9455 144.338C30.7892 144.653 30.7111 144.991 30.7111 145.352V145.932C30.7111 146.426 30.7963 146.845 30.9668 147.189C31.1401 147.53 31.3801 147.79 31.687 147.969C31.9938 148.145 32.3503 148.233 32.7566 148.233C33.0208 148.233 33.2594 148.196 33.4725 148.122C33.6884 148.045 33.8745 147.932 34.0307 147.781C34.187 147.628 34.3077 147.437 34.3929 147.21L35.3645 147.483C35.2623 147.812 35.0904 148.102 34.8489 148.352C34.6074 148.599 34.3091 148.793 33.954 148.932C33.5989 149.068 33.1998 149.136 32.7566 149.136ZM39.4682 149.136C38.9228 149.136 38.4412 148.999 38.0236 148.723C37.606 148.445 37.2793 148.053 37.0435 147.547C36.8077 147.038 36.6898 146.438 36.6898 145.744C36.6898 145.057 36.8077 144.46 37.0435 143.955C37.2793 143.449 37.6074 143.058 38.0279 142.783C38.4483 142.507 38.9341 142.369 39.4853 142.369C39.9114 142.369 40.248 142.44 40.4952 142.582C40.7452 142.722 40.9355 142.881 41.0662 143.06C41.1998 143.236 41.3034 143.381 41.3773 143.494H41.4625V140.273H42.4682V149H41.4966V147.994H41.3773C41.3034 148.114 41.1983 148.264 41.062 148.446C40.9256 148.625 40.731 148.786 40.4782 148.928C40.2253 149.067 39.8887 149.136 39.4682 149.136ZM39.6046 148.233C40.008 148.233 40.3489 148.128 40.6273 147.918C40.9057 147.705 41.1174 147.411 41.2623 147.036C41.4071 146.658 41.4796 146.222 41.4796 145.727C41.4796 145.239 41.4086 144.811 41.2665 144.445C41.1245 144.075 40.9142 143.788 40.6358 143.584C40.3574 143.376 40.0137 143.273 39.6046 143.273C39.1784 143.273 38.8233 143.382 38.5392 143.601C38.258 143.817 38.0463 144.111 37.9043 144.483C37.7651 144.852 37.6955 145.267 37.6955 145.727C37.6955 146.193 37.7665 146.616 37.9086 146.997C38.0534 147.375 38.2665 147.676 38.5478 147.901C38.8319 148.122 39.1841 148.233 39.6046 148.233ZM47.9611 149V140.273H48.9668V143.494H49.052C49.1259 143.381 49.2282 143.236 49.3588 143.06C49.4924 142.881 49.6827 142.722 49.9299 142.582C50.1799 142.44 50.5179 142.369 50.9441 142.369C51.4952 142.369 51.981 142.507 52.4015 142.783C52.8219 143.058 53.15 143.449 53.3858 143.955C53.6216 144.46 53.7395 145.057 53.7395 145.744C53.7395 146.438 53.6216 147.038 53.3858 147.547C53.15 148.053 52.8233 148.445 52.4057 148.723C51.9881 148.999 51.5066 149.136 50.9611 149.136C50.5407 149.136 50.204 149.067 49.9512 148.928C49.6983 148.786 49.5037 148.625 49.3674 148.446C49.231 148.264 49.1259 148.114 49.052 147.994H48.9327V149H47.9611ZM48.9498 145.727C48.9498 146.222 49.0222 146.658 49.1671 147.036C49.312 147.411 49.5236 147.705 49.802 147.918C50.0804 148.128 50.4213 148.233 50.8248 148.233C51.2452 148.233 51.5961 148.122 51.8773 147.901C52.1614 147.676 52.3745 147.375 52.5165 146.997C52.6614 146.616 52.7338 146.193 52.7338 145.727C52.7338 145.267 52.6628 144.852 52.5208 144.483C52.3816 144.111 52.1699 143.817 51.8858 143.601C51.6046 143.382 51.2509 143.273 50.8248 143.273C50.4157 143.273 50.0719 143.376 49.7935 143.584C49.5151 143.788 49.3049 144.075 49.1628 144.445C49.0208 144.811 48.9498 145.239 48.9498 145.727ZM57.204 149.153C56.7892 149.153 56.4128 149.075 56.0748 148.919C55.7367 148.76 55.4682 148.531 55.2694 148.233C55.0705 147.932 54.9711 147.568 54.9711 147.142C54.9711 146.767 55.0449 146.463 55.1926 146.23C55.3404 145.994 55.5378 145.81 55.785 145.676C56.0321 145.543 56.3049 145.443 56.6032 145.378C56.9043 145.31 57.2069 145.256 57.5108 145.216C57.9086 145.165 58.231 145.126 58.4782 145.101C58.7282 145.072 58.91 145.026 59.0236 144.96C59.1401 144.895 59.1983 144.781 59.1983 144.619V144.585C59.1983 144.165 59.0833 143.838 58.8532 143.605C58.6259 143.372 58.2807 143.256 57.8176 143.256C57.3375 143.256 56.9611 143.361 56.6884 143.571C56.4157 143.781 56.2239 144.006 56.1131 144.244L55.1586 143.903C55.329 143.506 55.5563 143.196 55.8404 142.974C56.1273 142.75 56.4398 142.594 56.7779 142.506C57.1188 142.415 57.454 142.369 57.7836 142.369C57.9938 142.369 58.2353 142.395 58.508 142.446C58.7836 142.494 59.0492 142.595 59.3049 142.749C59.5634 142.902 59.7779 143.134 59.9483 143.443C60.1188 143.753 60.204 144.168 60.204 144.688V149H59.1983V148.114H59.1472C59.079 148.256 58.9654 148.408 58.8063 148.57C58.6472 148.732 58.4355 148.869 58.1713 148.983C57.9071 149.097 57.5847 149.153 57.204 149.153ZM57.3574 148.25C57.7551 148.25 58.0904 148.172 58.3631 148.016C58.6387 147.859 58.8461 147.658 58.9853 147.411C59.1273 147.163 59.1983 146.903 59.1983 146.631V145.71C59.1557 145.761 59.062 145.808 58.9171 145.851C58.775 145.891 58.6103 145.926 58.4228 145.957C58.2381 145.986 58.0577 146.011 57.8816 146.034C57.7083 146.054 57.5676 146.071 57.4597 146.085C57.1983 146.119 56.954 146.175 56.7267 146.251C56.5023 146.325 56.3205 146.437 56.1813 146.588C56.0449 146.736 55.9767 146.937 55.9767 147.193C55.9767 147.543 56.106 147.807 56.3645 147.986C56.6259 148.162 56.9569 148.25 57.3574 148.25ZM66.676 143.92L65.7725 144.176C65.7157 144.026 65.6319 143.879 65.5211 143.737C65.4132 143.592 65.2654 143.473 65.0779 143.379C64.8904 143.286 64.6504 143.239 64.3578 143.239C63.9572 143.239 63.6234 143.331 63.3564 143.516C63.0922 143.697 62.96 143.929 62.96 144.21C62.96 144.46 63.051 144.658 63.2328 144.803C63.4146 144.947 63.6987 145.068 64.085 145.165L65.0566 145.403C65.6419 145.545 66.0779 145.763 66.3649 146.055C66.6518 146.345 66.7953 146.719 66.7953 147.176C66.7953 147.551 66.6873 147.886 66.4714 148.182C66.2583 148.477 65.96 148.71 65.5765 148.881C65.193 149.051 64.747 149.136 64.2385 149.136C63.5708 149.136 63.0183 148.991 62.5808 148.702C62.1433 148.412 61.8663 147.989 61.7498 147.432L62.7044 147.193C62.7953 147.545 62.9672 147.81 63.22 147.986C63.4757 148.162 63.8095 148.25 64.2214 148.25C64.6902 148.25 65.0623 148.151 65.3379 147.952C65.6163 147.75 65.7555 147.509 65.7555 147.227C65.7555 147 65.676 146.81 65.5169 146.656C65.3578 146.5 65.1135 146.384 64.7839 146.307L63.693 146.051C63.0936 145.909 62.6532 145.689 62.372 145.391C62.0936 145.089 61.9544 144.713 61.9544 144.261C61.9544 143.892 62.0581 143.565 62.2654 143.281C62.4757 142.997 62.7612 142.774 63.122 142.612C63.4856 142.45 63.8975 142.369 64.3578 142.369C65.0055 142.369 65.514 142.511 65.8833 142.795C66.2555 143.08 66.5197 143.455 66.676 143.92ZM71.0534 149.136C70.4228 149.136 69.8787 148.997 69.4213 148.719C68.9668 148.438 68.6159 148.045 68.3688 147.543C68.1245 147.037 68.0023 146.449 68.0023 145.778C68.0023 145.108 68.1245 144.517 68.3688 144.006C68.6159 143.491 68.9597 143.091 69.4 142.804C69.8432 142.514 70.3603 142.369 70.9512 142.369C71.2921 142.369 71.6287 142.426 71.9611 142.54C72.2935 142.653 72.5961 142.838 72.8688 143.094C73.1415 143.347 73.3588 143.682 73.5208 144.099C73.6827 144.517 73.7637 145.031 73.7637 145.642V146.068H68.7182V145.199H72.7409C72.7409 144.83 72.6671 144.5 72.5194 144.21C72.3745 143.92 72.1671 143.692 71.8972 143.524C71.6301 143.357 71.3148 143.273 70.9512 143.273C70.5506 143.273 70.204 143.372 69.9114 143.571C69.6216 143.767 69.3986 144.023 69.2424 144.338C69.0861 144.653 69.008 144.991 69.008 145.352V145.932C69.008 146.426 69.0932 146.845 69.2637 147.189C69.437 147.53 69.677 147.79 69.9838 147.969C70.2907 148.145 70.6472 148.233 71.0534 148.233C71.3176 148.233 71.5563 148.196 71.7694 148.122C71.9853 148.045 72.1713 147.932 72.3276 147.781C72.4838 147.628 72.6046 147.437 72.6898 147.21L73.6614 147.483C73.5591 147.812 73.3873 148.102 73.1458 148.352C72.9043 148.599 72.606 148.793 72.2509 148.932C71.8958 149.068 71.4966 149.136 71.0534 149.136ZM77.7651 149.136C77.2196 149.136 76.7381 148.999 76.3205 148.723C75.9029 148.445 75.5762 148.053 75.3404 147.547C75.1046 147.038 74.9867 146.438 74.9867 145.744C74.9867 145.057 75.1046 144.46 75.3404 143.955C75.5762 143.449 75.9043 143.058 76.3248 142.783C76.7452 142.507 77.231 142.369 77.7821 142.369C78.2083 142.369 78.5449 142.44 78.7921 142.582C79.0421 142.722 79.2324 142.881 79.3631 143.06C79.4966 143.236 79.6003 143.381 79.6742 143.494H79.7594V140.273H80.7651V149H79.7935V147.994H79.6742C79.6003 148.114 79.4952 148.264 79.3588 148.446C79.2225 148.625 79.0279 148.786 78.775 148.928C78.5222 149.067 78.1855 149.136 77.7651 149.136ZM77.9015 148.233C78.3049 148.233 78.6458 148.128 78.9242 147.918C79.2026 147.705 79.4142 147.411 79.5591 147.036C79.704 146.658 79.7765 146.222 79.7765 145.727C79.7765 145.239 79.7054 144.811 79.5634 144.445C79.4213 144.075 79.2111 143.788 78.9327 143.584C78.6543 143.376 78.3105 143.273 77.9015 143.273C77.4753 143.273 77.1202 143.382 76.8361 143.601C76.5549 143.817 76.3432 144.111 76.2012 144.483C76.062 144.852 75.9924 145.267 75.9924 145.727C75.9924 146.193 76.0634 146.616 76.2054 146.997C76.3503 147.375 76.5634 147.676 76.8446 147.901C77.1287 148.122 77.481 148.233 77.9015 148.233ZM88.7807 149.136C88.1898 149.136 87.6713 148.996 87.2253 148.714C86.7821 148.433 86.4355 148.04 86.1855 147.534C85.9384 147.028 85.8148 146.437 85.8148 145.761C85.8148 145.08 85.9384 144.484 86.1855 143.976C86.4355 143.467 86.7821 143.072 87.2253 142.791C87.6713 142.51 88.1898 142.369 88.7807 142.369C89.3716 142.369 89.8887 142.51 90.3319 142.791C90.7779 143.072 91.1245 143.467 91.3716 143.976C91.6216 144.484 91.7466 145.08 91.7466 145.761C91.7466 146.437 91.6216 147.028 91.3716 147.534C91.1245 148.04 90.7779 148.433 90.3319 148.714C89.8887 148.996 89.3716 149.136 88.7807 149.136ZM88.7807 148.233C89.2296 148.233 89.5989 148.118 89.8887 147.888C90.1784 147.658 90.3929 147.355 90.5321 146.98C90.6713 146.605 90.7409 146.199 90.7409 145.761C90.7409 145.324 90.6713 144.916 90.5321 144.538C90.3929 144.161 90.1784 143.855 89.8887 143.622C89.5989 143.389 89.2296 143.273 88.7807 143.273C88.3319 143.273 87.9625 143.389 87.6728 143.622C87.383 143.855 87.1685 144.161 87.0293 144.538C86.8901 144.916 86.8205 145.324 86.8205 145.761C86.8205 146.199 86.8901 146.605 87.0293 146.98C87.1685 147.355 87.383 147.658 87.6728 147.888C87.9625 148.118 88.3319 148.233 88.7807 148.233ZM94.2875 145.062V149H93.2818V142.455H94.2534V143.477H94.3386C94.492 143.145 94.725 142.878 95.0375 142.676C95.35 142.472 95.7534 142.369 96.2477 142.369C96.6909 142.369 97.0787 142.46 97.411 142.642C97.7434 142.821 98.002 143.094 98.1866 143.46C98.3713 143.824 98.4636 144.284 98.4636 144.841V149H97.4579V144.909C97.4579 144.395 97.3244 143.994 97.0574 143.707C96.7903 143.418 96.4238 143.273 95.9579 143.273C95.6369 143.273 95.35 143.342 95.0971 143.482C94.8471 143.621 94.6497 143.824 94.5048 144.091C94.3599 144.358 94.2875 144.682 94.2875 145.062ZM106.523 142.455V143.307H103.131V142.455H106.523ZM104.119 140.886H105.125V147.125C105.125 147.409 105.166 147.622 105.249 147.764C105.334 147.903 105.442 147.997 105.573 148.045C105.706 148.091 105.847 148.114 105.994 148.114C106.105 148.114 106.196 148.108 106.267 148.097C106.338 148.082 106.395 148.071 106.438 148.062L106.642 148.966C106.574 148.991 106.479 149.017 106.357 149.043C106.235 149.071 106.08 149.085 105.892 149.085C105.608 149.085 105.33 149.024 105.057 148.902C104.787 148.78 104.563 148.594 104.384 148.344C104.208 148.094 104.119 147.778 104.119 147.398V140.886ZM109.182 145.062V149H108.176V140.273H109.182V143.477H109.267C109.421 143.139 109.651 142.871 109.958 142.672C110.267 142.47 110.679 142.369 111.193 142.369C111.639 142.369 112.03 142.459 112.365 142.638C112.7 142.814 112.96 143.085 113.145 143.452C113.333 143.815 113.426 144.278 113.426 144.841V149H112.421V144.909C112.421 144.389 112.286 143.987 112.016 143.703C111.749 143.416 111.378 143.273 110.904 143.273C110.574 143.273 110.279 143.342 110.017 143.482C109.759 143.621 109.554 143.824 109.404 144.091C109.256 144.358 109.182 144.682 109.182 145.062ZM118.01 149.136C117.38 149.136 116.836 148.997 116.378 148.719C115.924 148.438 115.573 148.045 115.326 147.543C115.081 147.037 114.959 146.449 114.959 145.778C114.959 145.108 115.081 144.517 115.326 144.006C115.573 143.491 115.917 143.091 116.357 142.804C116.8 142.514 117.317 142.369 117.908 142.369C118.249 142.369 118.586 142.426 118.918 142.54C119.251 142.653 119.553 142.838 119.826 143.094C120.099 143.347 120.316 143.682 120.478 144.099C120.64 144.517 120.721 145.031 120.721 145.642V146.068H115.675V145.199H119.698C119.698 144.83 119.624 144.5 119.476 144.21C119.331 143.92 119.124 143.692 118.854 143.524C118.587 143.357 118.272 143.273 117.908 143.273C117.508 143.273 117.161 143.372 116.868 143.571C116.579 143.767 116.356 144.023 116.199 144.338C116.043 144.653 115.965 144.991 115.965 145.352V145.932C115.965 146.426 116.05 146.845 116.221 147.189C116.394 147.53 116.634 147.79 116.941 147.969C117.248 148.145 117.604 148.233 118.01 148.233C118.275 148.233 118.513 148.196 118.726 148.122C118.942 148.045 119.128 147.932 119.285 147.781C119.441 147.628 119.562 147.437 119.647 147.21L120.618 147.483C120.516 147.812 120.344 148.102 120.103 148.352C119.861 148.599 119.563 148.793 119.208 148.932C118.853 149.068 118.454 149.136 118.01 149.136ZM13.5868 164.153C13.1721 164.153 12.7956 164.075 12.4576 163.919C12.1195 163.76 11.851 163.531 11.6522 163.233C11.4533 162.932 11.3539 162.568 11.3539 162.142C11.3539 161.767 11.4277 161.463 11.5755 161.23C11.7232 160.994 11.9206 160.81 12.1678 160.676C12.415 160.543 12.6877 160.443 12.986 160.378C13.2871 160.31 13.5897 160.256 13.8936 160.216C14.2914 160.165 14.6138 160.126 14.861 160.101C15.111 160.072 15.2928 160.026 15.4064 159.96C15.5229 159.895 15.5811 159.781 15.5811 159.619V159.585C15.5811 159.165 15.4661 158.838 15.236 158.605C15.0087 158.372 14.6635 158.256 14.2005 158.256C13.7203 158.256 13.3439 158.361 13.0712 158.571C12.7985 158.781 12.6067 159.006 12.4959 159.244L11.5414 158.903C11.7118 158.506 11.9391 158.196 12.2232 157.974C12.5101 157.75 12.8226 157.594 13.1607 157.506C13.5016 157.415 13.8368 157.369 14.1664 157.369C14.3766 157.369 14.6181 157.395 14.8908 157.446C15.1664 157.494 15.432 157.595 15.6877 157.749C15.9462 157.902 16.1607 158.134 16.3311 158.443C16.5016 158.753 16.5868 159.168 16.5868 159.688V164H15.5811V163.114H15.53C15.4618 163.256 15.3482 163.408 15.1891 163.57C15.03 163.732 14.8184 163.869 14.5542 163.983C14.29 164.097 13.9675 164.153 13.5868 164.153ZM13.7402 163.25C14.138 163.25 14.4732 163.172 14.7459 163.016C15.0215 162.859 15.2289 162.658 15.3681 162.411C15.5101 162.163 15.5811 161.903 15.5811 161.631V160.71C15.5385 160.761 15.4448 160.808 15.2999 160.851C15.1578 160.891 14.9931 160.926 14.8056 160.957C14.6209 160.986 14.4405 161.011 14.2644 161.034C14.0911 161.054 13.9505 161.071 13.8425 161.085C13.5811 161.119 13.3368 161.175 13.1096 161.251C12.8851 161.325 12.7033 161.437 12.5641 161.588C12.4277 161.736 12.3596 161.937 12.3596 162.193C12.3596 162.543 12.4888 162.807 12.7473 162.986C13.0087 163.162 13.3397 163.25 13.7402 163.25ZM18.4224 164V157.455H19.394V158.477H19.4792C19.6156 158.128 19.8358 157.857 20.1397 157.663C20.4437 157.467 20.8088 157.369 21.2349 157.369C21.6667 157.369 22.0261 157.467 22.313 157.663C22.6028 157.857 22.8287 158.128 22.9906 158.477H23.0588C23.2264 158.139 23.4778 157.871 23.813 157.672C24.1483 157.47 24.5502 157.369 25.019 157.369C25.6042 157.369 26.0829 157.553 26.4551 157.919C26.8272 158.283 27.0133 158.849 27.0133 159.619V164H26.0076V159.619C26.0076 159.136 25.8755 158.791 25.6113 158.584C25.3471 158.376 25.036 158.273 24.6781 158.273C24.2179 158.273 23.8613 158.412 23.6085 158.69C23.3556 158.966 23.2292 159.315 23.2292 159.739V164H22.2065V159.517C22.2065 159.145 22.0858 158.845 21.8443 158.618C21.6028 158.388 21.2917 158.273 20.911 158.273C20.6497 158.273 20.4054 158.342 20.1781 158.482C19.9537 158.621 19.7718 158.814 19.6326 159.061C19.4963 159.305 19.4281 159.588 19.4281 159.909V164H18.4224ZM31.5112 164.136C30.9203 164.136 30.4018 163.996 29.9558 163.714C29.5126 163.433 29.166 163.04 28.916 162.534C28.6689 162.028 28.5453 161.437 28.5453 160.761C28.5453 160.08 28.6689 159.484 28.916 158.976C29.166 158.467 29.5126 158.072 29.9558 157.791C30.4018 157.51 30.9203 157.369 31.5112 157.369C32.1021 157.369 32.6191 157.51 33.0623 157.791C33.5083 158.072 33.8549 158.467 34.1021 158.976C34.3521 159.484 34.4771 160.08 34.4771 160.761C34.4771 161.437 34.3521 162.028 34.1021 162.534C33.8549 163.04 33.5083 163.433 33.0623 163.714C32.6191 163.996 32.1021 164.136 31.5112 164.136ZM31.5112 163.233C31.96 163.233 32.3294 163.118 32.6191 162.888C32.9089 162.658 33.1234 162.355 33.2626 161.98C33.4018 161.605 33.4714 161.199 33.4714 160.761C33.4714 160.324 33.4018 159.916 33.2626 159.538C33.1234 159.161 32.9089 158.855 32.6191 158.622C32.3294 158.389 31.96 158.273 31.5112 158.273C31.0623 158.273 30.693 158.389 30.4032 158.622C30.1135 158.855 29.899 159.161 29.7598 159.538C29.6206 159.916 29.551 160.324 29.551 160.761C29.551 161.199 29.6206 161.605 29.7598 161.98C29.899 162.355 30.1135 162.658 30.4032 162.888C30.693 163.118 31.0623 163.233 31.5112 163.233ZM40.1373 161.324V157.455H41.1429V164H40.1373V162.892H40.0691C39.9157 163.224 39.677 163.507 39.3532 163.74C39.0293 163.97 38.6202 164.085 38.1259 164.085C37.7168 164.085 37.3532 163.996 37.035 163.817C36.7168 163.635 36.4668 163.362 36.285 162.999C36.1032 162.632 36.0123 162.17 36.0123 161.614V157.455H37.0179V161.545C37.0179 162.023 37.1515 162.403 37.4185 162.688C37.6884 162.972 38.0321 163.114 38.4498 163.114C38.6998 163.114 38.954 163.05 39.2125 162.922C39.4739 162.794 39.6926 162.598 39.8688 162.334C40.0478 162.07 40.1373 161.733 40.1373 161.324ZM43.9906 160.062V164H42.9849V157.455H43.9565V158.477H44.0417C44.1951 158.145 44.4281 157.878 44.7406 157.676C45.0531 157.472 45.4565 157.369 45.9508 157.369C46.394 157.369 46.7818 157.46 47.1142 157.642C47.4466 157.821 47.7051 158.094 47.8897 158.46C48.0744 158.824 48.1667 159.284 48.1667 159.841V164H47.161V159.909C47.161 159.395 47.0275 158.994 46.7605 158.707C46.4934 158.418 46.127 158.273 45.661 158.273C45.34 158.273 45.0531 158.342 44.8002 158.482C44.5502 158.621 44.3528 158.824 44.2079 159.091C44.063 159.358 43.9906 159.682 43.9906 160.062ZM52.851 157.455V158.307H49.459V157.455H52.851ZM50.4476 155.886H51.4533V162.125C51.4533 162.409 51.4945 162.622 51.5769 162.764C51.6621 162.903 51.7701 162.997 51.9007 163.045C52.0343 163.091 52.1749 163.114 52.3226 163.114C52.4334 163.114 52.5243 163.108 52.5953 163.097C52.6664 163.082 52.7232 163.071 52.7658 163.062L52.9703 163.966C52.9022 163.991 52.807 164.017 52.6848 164.043C52.5627 164.071 52.4078 164.085 52.2203 164.085C51.9363 164.085 51.6578 164.024 51.3851 163.902C51.1152 163.78 50.8908 163.594 50.7118 163.344C50.5357 163.094 50.4476 162.778 50.4476 162.398V155.886ZM60.3979 164.136C59.807 164.136 59.2885 163.996 58.8425 163.714C58.3993 163.433 58.0527 163.04 57.8027 162.534C57.5556 162.028 57.432 161.437 57.432 160.761C57.432 160.08 57.5556 159.484 57.8027 158.976C58.0527 158.467 58.3993 158.072 58.8425 157.791C59.2885 157.51 59.807 157.369 60.3979 157.369C60.9888 157.369 61.5059 157.51 61.949 157.791C62.3951 158.072 62.7417 158.467 62.9888 158.976C63.2388 159.484 63.3638 160.08 63.3638 160.761C63.3638 161.437 63.2388 162.028 62.9888 162.534C62.7417 163.04 62.3951 163.433 61.949 163.714C61.5059 163.996 60.9888 164.136 60.3979 164.136ZM60.3979 163.233C60.8468 163.233 61.2161 163.118 61.5059 162.888C61.7956 162.658 62.0101 162.355 62.1493 161.98C62.2885 161.605 62.3581 161.199 62.3581 160.761C62.3581 160.324 62.2885 159.916 62.1493 159.538C62.0101 159.161 61.7956 158.855 61.5059 158.622C61.2161 158.389 60.8468 158.273 60.3979 158.273C59.949 158.273 59.5797 158.389 59.29 158.622C59.0002 158.855 58.7857 159.161 58.6465 159.538C58.5073 159.916 58.4377 160.324 58.4377 160.761C58.4377 161.199 58.5073 161.605 58.6465 161.98C58.7857 162.355 59.0002 162.658 59.29 162.888C59.5797 163.118 59.949 163.233 60.3979 163.233ZM67.8137 157.455V158.307H64.2853V157.455H67.8137ZM65.3422 164V156.551C65.3422 156.176 65.4302 155.864 65.6064 155.614C65.7825 155.364 66.0112 155.176 66.2924 155.051C66.5737 154.926 66.8706 154.864 67.1831 154.864C67.4302 154.864 67.6319 154.884 67.7882 154.923C67.9444 154.963 68.0609 155 68.1376 155.034L67.8478 155.903C67.7967 155.886 67.7257 155.865 67.6348 155.839C67.5467 155.814 67.4302 155.801 67.2853 155.801C66.9529 155.801 66.7129 155.885 66.5652 156.053C66.4203 156.22 66.3478 156.466 66.3478 156.79V164H65.3422ZM75.2573 164.136C74.6436 164.136 74.1152 163.991 73.6721 163.702C73.2289 163.412 72.888 163.013 72.6493 162.504C72.4107 161.996 72.2914 161.415 72.2914 160.761C72.2914 160.097 72.4135 159.51 72.6578 159.001C72.905 158.49 73.2488 158.091 73.6891 157.804C74.1323 157.514 74.6493 157.369 75.2402 157.369C75.7005 157.369 76.1152 157.455 76.4846 157.625C76.8539 157.795 77.1564 158.034 77.3922 158.341C77.628 158.648 77.7743 159.006 77.8311 159.415H76.8255C76.7488 159.116 76.5783 158.852 76.3141 158.622C76.0527 158.389 75.7005 158.273 75.2573 158.273C74.8652 158.273 74.5215 158.375 74.226 158.58C73.9334 158.781 73.7047 159.067 73.54 159.436C73.378 159.803 73.2971 160.233 73.2971 160.727C73.2971 161.233 73.3766 161.673 73.5357 162.048C73.6976 162.423 73.9249 162.714 74.2175 162.922C74.513 163.129 74.8596 163.233 75.2573 163.233C75.5186 163.233 75.7559 163.188 75.9689 163.097C76.182 163.006 76.3624 162.875 76.5101 162.705C76.6578 162.534 76.763 162.33 76.8255 162.091H77.8311C77.7743 162.477 77.6337 162.825 77.4093 163.135C77.1877 163.442 76.8936 163.686 76.5272 163.868C76.1635 164.047 75.7402 164.136 75.2573 164.136ZM81.9604 164.136C81.3695 164.136 80.851 163.996 80.405 163.714C79.9618 163.433 79.6152 163.04 79.3652 162.534C79.1181 162.028 78.9945 161.437 78.9945 160.761C78.9945 160.08 79.1181 159.484 79.3652 158.976C79.6152 158.467 79.9618 158.072 80.405 157.791C80.851 157.51 81.3695 157.369 81.9604 157.369C82.5513 157.369 83.0684 157.51 83.5115 157.791C83.9576 158.072 84.3042 158.467 84.5513 158.976C84.8013 159.484 84.9263 160.08 84.9263 160.761C84.9263 161.437 84.8013 162.028 84.5513 162.534C84.3042 163.04 83.9576 163.433 83.5115 163.714C83.0684 163.996 82.5513 164.136 81.9604 164.136ZM81.9604 163.233C82.4093 163.233 82.7786 163.118 83.0684 162.888C83.3581 162.658 83.5726 162.355 83.7118 161.98C83.851 161.605 83.9206 161.199 83.9206 160.761C83.9206 160.324 83.851 159.916 83.7118 159.538C83.5726 159.161 83.3581 158.855 83.0684 158.622C82.7786 158.389 82.4093 158.273 81.9604 158.273C81.5115 158.273 81.1422 158.389 80.8525 158.622C80.5627 158.855 80.3482 159.161 80.209 159.538C80.0698 159.916 80.0002 160.324 80.0002 160.761C80.0002 161.199 80.0698 161.605 80.209 161.98C80.3482 162.355 80.5627 162.658 80.8525 162.888C81.1422 163.118 81.5115 163.233 81.9604 163.233ZM91.5794 157.455L89.1589 164H88.1362L85.7157 157.455H86.8066L88.6135 162.67H88.6816L90.4885 157.455H91.5794ZM95.4167 164.136C94.786 164.136 94.242 163.997 93.7846 163.719C93.3301 163.438 92.9792 163.045 92.7321 162.543C92.4877 162.037 92.3656 161.449 92.3656 160.778C92.3656 160.108 92.4877 159.517 92.7321 159.006C92.9792 158.491 93.323 158.091 93.7633 157.804C94.2065 157.514 94.7235 157.369 95.3145 157.369C95.6554 157.369 95.992 157.426 96.3244 157.54C96.6568 157.653 96.9593 157.838 97.2321 158.094C97.5048 158.347 97.7221 158.682 97.8841 159.099C98.046 159.517 98.127 160.031 98.127 160.642V161.068H93.0815V160.199H97.1042C97.1042 159.83 97.0304 159.5 96.8826 159.21C96.7377 158.92 96.5304 158.692 96.2605 158.524C95.9934 158.357 95.6781 158.273 95.3145 158.273C94.9139 158.273 94.5673 158.372 94.2747 158.571C93.9849 158.767 93.7619 159.023 93.6056 159.338C93.4494 159.653 93.3713 159.991 93.3713 160.352V160.932C93.3713 161.426 93.4565 161.845 93.627 162.189C93.8002 162.53 94.0403 162.79 94.3471 162.969C94.6539 163.145 95.0105 163.233 95.4167 163.233C95.6809 163.233 95.9196 163.196 96.1326 163.122C96.3485 163.045 96.5346 162.932 96.6909 162.781C96.8471 162.628 96.9679 162.437 97.0531 162.21L98.0247 162.483C97.9224 162.812 97.7505 163.102 97.5091 163.352C97.2676 163.599 96.9693 163.793 96.6142 163.932C96.2591 164.068 95.8599 164.136 95.4167 164.136ZM99.6568 164V157.455H100.628V158.443H100.697C100.816 158.119 101.032 157.857 101.344 157.655C101.657 157.453 102.009 157.352 102.401 157.352C102.475 157.352 102.567 157.354 102.678 157.357C102.789 157.359 102.873 157.364 102.93 157.369V158.392C102.895 158.384 102.817 158.371 102.695 158.354C102.576 158.334 102.449 158.324 102.316 158.324C101.998 158.324 101.714 158.391 101.464 158.524C101.216 158.655 101.02 158.837 100.876 159.07C100.733 159.3 100.662 159.562 100.662 159.858V164H99.6568ZM106.048 164.153C105.633 164.153 105.257 164.075 104.919 163.919C104.58 163.76 104.312 163.531 104.113 163.233C103.914 162.932 103.815 162.568 103.815 162.142C103.815 161.767 103.889 161.463 104.036 161.23C104.184 160.994 104.382 160.81 104.629 160.676C104.876 160.543 105.149 160.443 105.447 160.378C105.748 160.31 106.051 160.256 106.355 160.216C106.752 160.165 107.075 160.126 107.322 160.101C107.572 160.072 107.754 160.026 107.867 159.96C107.984 159.895 108.042 159.781 108.042 159.619V159.585C108.042 159.165 107.927 158.838 107.697 158.605C107.47 158.372 107.124 158.256 106.661 158.256C106.181 158.256 105.805 158.361 105.532 158.571C105.259 158.781 105.068 159.006 104.957 159.244L104.002 158.903C104.173 158.506 104.4 158.196 104.684 157.974C104.971 157.75 105.284 157.594 105.622 157.506C105.963 157.415 106.298 157.369 106.627 157.369C106.838 157.369 107.079 157.395 107.352 157.446C107.627 157.494 107.893 157.595 108.149 157.749C108.407 157.902 108.622 158.134 108.792 158.443C108.963 158.753 109.048 159.168 109.048 159.688V164H108.042V163.114H107.991C107.923 163.256 107.809 163.408 107.65 163.57C107.491 163.732 107.279 163.869 107.015 163.983C106.751 164.097 106.428 164.153 106.048 164.153ZM106.201 163.25C106.599 163.25 106.934 163.172 107.207 163.016C107.482 162.859 107.69 162.658 107.829 162.411C107.971 162.163 108.042 161.903 108.042 161.631V160.71C107.999 160.761 107.906 160.808 107.761 160.851C107.619 160.891 107.454 160.926 107.267 160.957C107.082 160.986 106.901 161.011 106.725 161.034C106.552 161.054 106.411 161.071 106.303 161.085C106.042 161.119 105.798 161.175 105.57 161.251C105.346 161.325 105.164 161.437 105.025 161.588C104.889 161.736 104.82 161.937 104.82 162.193C104.82 162.543 104.95 162.807 105.208 162.986C105.47 163.162 105.801 163.25 106.201 163.25ZM113.525 166.591C113.04 166.591 112.622 166.528 112.273 166.403C111.923 166.281 111.632 166.119 111.399 165.918C111.169 165.719 110.986 165.506 110.849 165.278L111.65 164.716C111.741 164.835 111.856 164.972 111.996 165.125C112.135 165.281 112.325 165.416 112.567 165.53C112.811 165.646 113.131 165.705 113.525 165.705C114.054 165.705 114.49 165.577 114.834 165.321C115.177 165.065 115.349 164.665 115.349 164.119V162.79H115.264C115.19 162.909 115.085 163.057 114.949 163.233C114.815 163.406 114.622 163.561 114.369 163.697C114.119 163.831 113.781 163.898 113.355 163.898C112.827 163.898 112.352 163.773 111.932 163.523C111.514 163.273 111.183 162.909 110.939 162.432C110.697 161.955 110.577 161.375 110.577 160.693C110.577 160.023 110.694 159.439 110.93 158.942C111.166 158.442 111.494 158.055 111.915 157.783C112.335 157.507 112.821 157.369 113.372 157.369C113.798 157.369 114.136 157.44 114.386 157.582C114.639 157.722 114.832 157.881 114.966 158.06C115.102 158.236 115.207 158.381 115.281 158.494H115.383V157.455H116.355V164.188C116.355 164.75 116.227 165.207 115.971 165.56C115.719 165.915 115.378 166.175 114.949 166.339C114.523 166.507 114.048 166.591 113.525 166.591ZM113.491 162.994C113.895 162.994 114.236 162.902 114.514 162.717C114.792 162.533 115.004 162.267 115.149 161.92C115.294 161.574 115.366 161.159 115.366 160.676C115.366 160.205 115.295 159.788 115.153 159.428C115.011 159.067 114.801 158.784 114.523 158.58C114.244 158.375 113.9 158.273 113.491 158.273C113.065 158.273 112.71 158.381 112.426 158.597C112.145 158.812 111.933 159.102 111.791 159.466C111.652 159.83 111.582 160.233 111.582 160.676C111.582 161.131 111.653 161.533 111.795 161.882C111.94 162.229 112.153 162.501 112.434 162.7C112.719 162.896 113.071 162.994 113.491 162.994ZM120.94 164.136C120.309 164.136 119.765 163.997 119.308 163.719C118.854 163.438 118.503 163.045 118.256 162.543C118.011 162.037 117.889 161.449 117.889 160.778C117.889 160.108 118.011 159.517 118.256 159.006C118.503 158.491 118.846 158.091 119.287 157.804C119.73 157.514 120.247 157.369 120.838 157.369C121.179 157.369 121.515 157.426 121.848 157.54C122.18 157.653 122.483 157.838 122.756 158.094C123.028 158.347 123.246 158.682 123.407 159.099C123.569 159.517 123.65 160.031 123.65 160.642V161.068H118.605V160.199H122.628C122.628 159.83 122.554 159.5 122.406 159.21C122.261 158.92 122.054 158.692 121.784 158.524C121.517 158.357 121.202 158.273 120.838 158.273C120.437 158.273 120.091 158.372 119.798 158.571C119.508 158.767 119.285 159.023 119.129 159.338C118.973 159.653 118.895 159.991 118.895 160.352V160.932C118.895 161.426 118.98 161.845 119.15 162.189C119.324 162.53 119.564 162.79 119.871 162.969C120.177 163.145 120.534 163.233 120.94 163.233C121.204 163.233 121.443 163.196 121.656 163.122C121.872 163.045 122.058 162.932 122.214 162.781C122.371 162.628 122.491 162.437 122.577 162.21L123.548 162.483C123.446 162.812 123.274 163.102 123.032 163.352C122.791 163.599 122.493 163.793 122.138 163.932C121.782 164.068 121.383 164.136 120.94 164.136Z" fill="black"/>
</svg>
