<?xml version="1.0" encoding="UTF-8"?>
<svg width="135" height="164" viewBox="0 0 135 164" xmlns="http://www.w3.org/2000/svg">
<path d="m40.549 82.929 3.8238 3.0963 4.126 2.6798 4.3834 2.2329 4.5931 1.763 4.7522 1.2726 4.8593 0.7694 4.9127 0.2574 4.9127-0.2574 4.8593-0.7694 4.7522-1.2726 4.5931-1.763 4.3834-2.2329 4.126-2.6798 3.8235-3.0963 3.478-3.4781 3.097-3.8238 2.679-4.126 2.233-4.3834 1.763-4.5931 1.273-4.7522 0.769-4.8593 0.258-4.9127-0.258-4.9127-0.769-4.8593-1.273-4.7522-1.763-4.5931-2.233-4.3834-1.44-2.2185-73.668 57.695 2.9546 2.9545-0.0015-0.0014z" fill="#FFBC36" stroke="#000"/>
<path d="m52.883 5.0624-4.3834 2.2329-4.126 2.6798-3.8238 3.0963-3.4781 3.4781-3.0963 3.8238-2.6798 4.126-2.2329 4.3834-1.7629 4.5931-1.2727 4.7522-0.7694 4.8593-0.2574 4.9127 0.2574 4.9127 0.7694 4.8593 1.2727 4.7522 1.7629 4.5931 2.2329 4.3834 2.6798 4.126 3.0963 3.8238 0.525 0.5249 73.668-57.695-1.239-1.9075-3.096-3.8238-3.479-3.4781-3.8233-3.0963-4.126-2.6798-4.3834-2.2329-4.5931-1.7629-4.7522-1.2727-4.8593-0.76938-4.9127-0.25742-4.9127 0.25742-4.8593 0.76938-4.7522 1.2727-4.5931 1.7629z" fill="#4580FF" stroke="#000"/>
<path d="m23.044 119.71v-0.937h6.5454v0.937h-2.7443v7.79h-1.0568v-7.79h-2.7443zm9.0458 3.852v3.938h-1.0057v-8.727h1.0057v3.204h0.0852c0.1534-0.338 0.3835-0.606 0.6904-0.805 0.3096-0.202 0.7216-0.303 1.2358-0.303 0.446 0 0.8366 0.09 1.1718 0.269 0.3353 0.176 0.5952 0.447 0.7799 0.814 0.1875 0.363 0.2812 0.826 0.2812 1.389v4.159h-1.0057v-4.091c0-0.52-0.1349-0.922-0.4048-1.206-0.267-0.287-0.6378-0.43-1.1122-0.43-0.3296 0-0.625 0.069-0.8864 0.209-0.2585 0.139-0.463 0.342-0.6136 0.609-0.1477 0.267-0.2216 0.591-0.2216 0.971zm8.8285 4.074c-0.6307 0-1.1747-0.139-1.6321-0.417-0.4546-0.281-0.8054-0.674-1.0526-1.176-0.2443-0.506-0.3665-1.094-0.3665-1.765 0-0.67 0.1222-1.261 0.3665-1.772 0.2472-0.515 0.5909-0.915 1.0313-1.202 0.4432-0.29 0.9602-0.435 1.5511-0.435 0.3409 0 0.6776 0.057 1.0099 0.171 0.3324 0.113 0.635 0.298 0.9077 0.554 0.2727 0.253 0.4901 0.588 0.652 1.005 0.1619 0.418 0.2429 0.932 0.2429 1.543v0.426h-5.0454v-0.869h4.0227c0-0.369-0.0739-0.699-0.2216-0.989-0.1449-0.29-0.3523-0.518-0.6222-0.686-0.267-0.167-0.5824-0.251-0.946-0.251-0.4006 0-0.7472 0.099-1.0398 0.298-0.2897 0.196-0.5128 0.452-0.669 0.767-0.1563 0.315-0.2344 0.653-0.2344 1.014v0.58c0 0.494 0.0853 0.913 0.2557 1.257 0.1733 0.341 0.4134 0.601 0.7202 0.78 0.3068 0.176 0.6633 0.264 1.0696 0.264 0.2642 0 0.5028-0.037 0.7159-0.111 0.2159-0.077 0.402-0.19 0.5582-0.341 0.1563-0.153 0.277-0.344 0.3622-0.571l0.9716 0.273c-0.1022 0.329-0.2741 0.619-0.5156 0.869-0.2415 0.247-0.5398 0.441-0.8949 0.58-0.3551 0.136-0.7542 0.204-1.1974 0.204zm10.462-6.681v0.852h-3.392v-0.852h3.392zm-2.4034-1.569h1.0057v6.239c0 0.284 0.0412 0.497 0.1236 0.639 0.0852 0.139 0.1932 0.233 0.3238 0.281 0.1336 0.046 0.2742 0.069 0.4219 0.069 0.1108 0 0.2017-6e-3 0.2727-0.017 0.0711-0.015 0.1279-0.026 0.1705-0.035l0.2045 0.904c-0.0681 0.025-0.1633 0.051-0.2855 0.077-0.1221 0.028-0.277 0.042-0.4645 0.042-0.284 0-0.5625-0.061-0.8352-0.183-0.2699-0.122-0.4943-0.308-0.6733-0.558-0.1761-0.25-0.2642-0.566-0.2642-0.946v-6.512zm6.505 8.25c-0.5909 0-1.1094-0.14-1.5554-0.422-0.4432-0.281-0.7898-0.674-1.0398-1.18-0.2471-0.506-0.3707-1.097-0.3707-1.773 0-0.681 0.1236-1.277 0.3707-1.785 0.25-0.509 0.5966-0.904 1.0398-1.185 0.446-0.281 0.9645-0.422 1.5554-0.422s1.1079 0.141 1.5511 0.422c0.446 0.281 0.7926 0.676 1.0398 1.185 0.25 0.508 0.375 1.104 0.375 1.785 0 0.676-0.125 1.267-0.375 1.773-0.2472 0.506-0.5938 0.899-1.0398 1.18-0.4432 0.282-0.9602 0.422-1.5511 0.422zm0-0.903c0.4489 0 0.8182-0.115 1.1079-0.345 0.2898-0.23 0.5043-0.533 0.6435-0.908s0.2088-0.781 0.2088-1.219c0-0.437-0.0696-0.845-0.2088-1.223-0.1392-0.377-0.3537-0.683-0.6435-0.916-0.2897-0.233-0.659-0.349-1.1079-0.349s-0.8182 0.116-1.108 0.349c-0.2897 0.233-0.5042 0.539-0.6434 0.916-0.1392 0.378-0.2088 0.786-0.2088 1.223 0 0.438 0.0696 0.844 0.2088 1.219s0.3537 0.678 0.6434 0.908c0.2898 0.23 0.6591 0.345 1.108 0.345zm7.3476-5.778v0.852h-3.392v-0.852h3.392zm-2.4034-1.569h1.0057v6.239c0 0.284 0.0412 0.497 0.1236 0.639 0.0852 0.139 0.1932 0.233 0.3239 0.281 0.1335 0.046 0.2741 0.069 0.4218 0.069 0.1108 0 0.2017-6e-3 0.2728-0.017 0.071-0.015 0.1278-0.026 0.1704-0.035l0.2046 0.904c-0.0682 0.025-0.1634 0.051-0.2855 0.077-0.1222 0.028-0.277 0.042-0.4645 0.042-0.2841 0-0.5625-0.061-0.8353-0.183-0.2698-0.122-0.4943-0.308-0.6733-0.558-0.1761-0.25-0.2642-0.566-0.2642-0.946v-6.512zm5.8424 8.267c-0.4148 0-0.7912-0.078-1.1293-0.234-0.3381-0.159-0.6065-0.388-0.8054-0.686-0.1989-0.301-0.2983-0.665-0.2983-1.091 0-0.375 0.0739-0.679 0.2216-0.912 0.1477-0.236 0.3452-0.42 0.5923-0.554 0.2472-0.133 0.5199-0.233 0.8182-0.298 0.3012-0.068 0.6037-0.122 0.9077-0.162 0.3977-0.051 0.7202-0.09 0.9673-0.115 0.25-0.029 0.4318-0.075 0.5455-0.141 0.1164-0.065 0.1747-0.179 0.1747-0.341v-0.034c0-0.42-0.1151-0.747-0.3452-0.98-0.2273-0.233-0.5724-0.349-1.0355-0.349-0.4801 0-0.8565 0.105-1.1293 0.315-0.2727 0.21-0.4644 0.435-0.5752 0.673l-0.9546-0.341c0.1705-0.397 0.3977-0.707 0.6818-0.929 0.287-0.224 0.5995-0.38 0.9375-0.468 0.3409-0.091 0.6762-0.137 1.0057-0.137 0.2102 0 0.4517 0.026 0.7244 0.077 0.2756 0.048 0.5412 0.149 0.7969 0.303 0.2585 0.153 0.473 0.385 0.6435 0.694 0.1704 0.31 0.2557 0.725 0.2557 1.245v4.312h-1.0057v-0.886h-0.0512c-0.0681 0.142-0.1818 0.294-0.3409 0.456s-0.3707 0.299-0.6349 0.413-0.5867 0.17-0.9673 0.17zm0.1534-0.903c0.3977 0 0.7329-0.078 1.0057-0.234 0.2755-0.157 0.4829-0.358 0.6221-0.605 0.1421-0.248 0.2131-0.508 0.2131-0.78v-0.921c-0.0426 0.051-0.1364 0.098-0.2813 0.141-0.142 0.04-0.3068 0.075-0.4943 0.106-0.1846 0.029-0.365 0.054-0.5412 0.077-0.1733 0.02-0.3139 0.037-0.4219 0.051-0.2613 0.034-0.5056 0.09-0.7329 0.166-0.2244 0.074-0.4063 0.186-0.5455 0.337-0.1363 0.148-0.2045 0.349-0.2045 0.605 0 0.35 0.1293 0.614 0.3878 0.793 0.2613 0.176 0.5923 0.264 0.9929 0.264zm5.6878-7.977v8.727h-1.0057v-8.727h1.0057zm5.217 8.727v-6.545h1.0057v6.545h-1.0057zm0.5114-7.636c-0.1961 0-0.3651-0.067-0.5071-0.201-0.1392-0.133-0.2088-0.294-0.2088-0.481 0-0.188 0.0696-0.348 0.2088-0.482 0.142-0.133 0.311-0.2 0.5071-0.2 0.196 0 0.3636 0.067 0.5028 0.2 0.1421 0.134 0.2131 0.294 0.2131 0.482 0 0.187-0.071 0.348-0.2131 0.481-0.1392 0.134-0.3068 0.201-0.5028 0.201zm6.9726 2.556-0.9034 0.256c-0.0568-0.15-0.1406-0.297-0.2514-0.439-0.108-0.145-0.2557-0.264-0.4432-0.358-0.1875-0.093-0.4275-0.14-0.7202-0.14-0.4005 0-0.7343 0.092-1.0014 0.277-0.2642 0.181-0.3963 0.413-0.3963 0.694 0 0.25 0.0909 0.448 0.2727 0.593 0.1819 0.144 0.466 0.265 0.8523 0.362l0.9716 0.238c0.5852 0.142 1.0213 0.36 1.3082 0.652 0.287 0.29 0.4304 0.664 0.4304 1.121 0 0.375-0.1079 0.71-0.3238 1.006-0.2131 0.295-0.5114 0.528-0.8949 0.699-0.3835 0.17-0.8296 0.255-1.3381 0.255-0.6676 0-1.2201-0.145-1.6576-0.434-0.4375-0.29-0.7145-0.713-0.831-1.27l0.9545-0.239c0.0909 0.352 0.2628 0.617 0.5157 0.793 0.2556 0.176 0.5894 0.264 1.0014 0.264 0.4687 0 0.8409-0.099 1.1165-0.298 0.2784-0.202 0.4176-0.443 0.4176-0.725 0-0.227-0.0796-0.417-0.2387-0.571-0.1591-0.156-0.4034-0.272-0.7329-0.349l-1.0909-0.256c-0.5995-0.142-1.0398-0.362-1.3211-0.66-0.2784-0.302-0.4176-0.678-0.4176-1.13 0-0.369 0.1037-0.696 0.3111-0.98 0.2102-0.284 0.4958-0.507 0.8565-0.669 0.3637-0.162 0.7756-0.243 1.2358-0.243 0.6478 0 1.1563 0.142 1.5256 0.426 0.3722 0.285 0.6364 0.66 0.7926 1.125zm9.6446 0-0.9035 0.256c-0.0568-0.15-0.1406-0.297-0.2514-0.439-0.1079-0.145-0.2557-0.264-0.4432-0.358-0.1875-0.093-0.4275-0.14-0.7201-0.14-0.4006 0-0.7344 0.092-1.0014 0.277-0.2643 0.181-0.3964 0.413-0.3964 0.694 0 0.25 0.091 0.448 0.2728 0.593 0.1818 0.144 0.4659 0.265 0.8522 0.362l0.9716 0.238c0.5853 0.142 1.0213 0.36 1.3083 0.652 0.2869 0.29 0.4304 0.664 0.4304 1.121 0 0.375-0.108 0.71-0.3239 1.006-0.2131 0.295-0.5114 0.528-0.8949 0.699-0.3835 0.17-0.8295 0.255-1.338 0.255-0.6677 0-1.2202-0.145-1.6577-0.434-0.4375-0.29-0.7145-0.713-0.831-1.27l0.9546-0.239c0.0909 0.352 0.2627 0.617 0.5156 0.793 0.2557 0.176 0.5895 0.264 1.0014 0.264 0.4688 0 0.8409-0.099 1.1165-0.298 0.2784-0.202 0.4176-0.443 0.4176-0.725 0-0.227-0.0795-0.417-0.2386-0.571-0.1591-0.156-0.4034-0.272-0.733-0.349l-1.0909-0.256c-0.5994-0.142-1.0398-0.362-1.321-0.66-0.2784-0.302-0.4176-0.678-0.4176-1.13 0-0.369 0.1037-0.696 0.311-0.98 0.2103-0.284 0.4958-0.507 0.8566-0.669 0.3636-0.162 0.7755-0.243 1.2358-0.243 0.6477 0 1.1562 0.142 1.5255 0.426 0.3722 0.285 0.6364 0.66 0.7927 1.125zm1.6331 7.535v-9h0.9716v1.039h0.1193c0.0739-0.113 0.1762-0.258 0.3069-0.434 0.1335-0.179 0.3238-0.338 0.571-0.478 0.25-0.142 0.588-0.213 1.0142-0.213 0.5511 0 1.0366 0.138 1.4576 0.414 0.42 0.275 0.748 0.666 0.984 1.172 0.236 0.505 0.354 1.102 0.354 1.789 0 0.694-0.118 1.294-0.354 1.803-0.236 0.506-0.562 0.898-0.98 1.176-0.418 0.276-0.8991 0.413-1.4446 0.413-0.4204 0-0.7571-0.069-1.0099-0.208-0.2529-0.142-0.4475-0.303-0.5838-0.482-0.1364-0.182-0.2415-0.332-0.3154-0.452h-0.0852v3.461h-1.0057zm0.9887-5.728c0 0.495 0.0724 0.931 0.2173 1.309 0.1449 0.375 0.3565 0.669 0.6349 0.882 0.2784 0.21 0.6194 0.315 1.0228 0.315 0.4204 0 0.7713-0.111 1.0529-0.332 0.284-0.225 0.497-0.526 0.639-0.904 0.145-0.381 0.217-0.804 0.217-1.27 0-0.46-0.071-0.875-0.213-1.244-0.139-0.372-0.351-0.666-0.635-0.882-0.2811-0.219-0.6348-0.328-1.0609-0.328-0.4091 0-0.7529 0.103-1.0313 0.311-0.2784 0.204-0.4886 0.491-0.6307 0.861-0.142 0.366-0.213 0.794-0.213 1.282zm7.3299-5.454v8.727h-1.006v-8.727h1.006zm1.842 8.727v-6.545h1.005v6.545h-1.005zm0.511-7.636c-0.196 0-0.365-0.067-0.507-0.201-0.139-0.133-0.209-0.294-0.209-0.481 0-0.188 0.07-0.348 0.209-0.482 0.142-0.133 0.311-0.2 0.507-0.2s0.364 0.067 0.503 0.2c0.142 0.134 0.213 0.294 0.213 0.482 0 0.187-0.071 0.348-0.213 0.481-0.139 0.134-0.307 0.201-0.503 0.201zm5.183 1.091v0.852h-3.392v-0.852h3.392zm-2.404-1.569h1.006v6.239c0 0.284 0.041 0.497 0.124 0.639 0.085 0.139 0.193 0.233 0.324 0.281 0.133 0.046 0.274 0.069 0.421 0.069 0.111 0 0.202-6e-3 0.273-0.017 0.071-0.015 0.128-0.026 0.171-0.035l0.204 0.904c-0.068 0.025-0.163 0.051-0.285 0.077-0.123 0.028-0.277 0.042-0.465 0.042-0.284 0-0.562-0.061-0.835-0.183-0.27-0.122-0.494-0.308-0.673-0.558-0.177-0.25-0.265-0.566-0.265-0.946v-6.512zm-97.903 23.267c-0.4148 0-0.7912-0.078-1.1293-0.234-0.3381-0.159-0.60654-0.388-0.80541-0.686-0.19886-0.301-0.29829-0.665-0.29829-1.091 0-0.375 0.07386-0.679 0.22159-0.912 0.14773-0.236 0.34517-0.42 0.59231-0.554 0.2472-0.133 0.5199-0.233 0.8182-0.298 0.3011-0.068 0.6037-0.122 0.9077-0.162 0.3977-0.051 0.7201-0.09 0.9673-0.115 0.25-0.029 0.4318-0.075 0.5455-0.141 0.1164-0.065 0.1747-0.179 0.1747-0.341v-0.034c0-0.42-0.1151-0.747-0.3452-0.98-0.2273-0.233-0.5724-0.349-1.0355-0.349-0.4801 0-0.8565 0.105-1.1293 0.315-0.2727 0.21-0.4645 0.435-0.5753 0.673l-0.9545-0.341c0.17045-0.397 0.39773-0.707 0.6818-0.929 0.2869-0.224 0.5994-0.38 0.9375-0.468 0.3409-0.091 0.6762-0.137 1.0057-0.137 0.2102 0 0.4517 0.026 0.7244 0.077 0.2756 0.048 0.5412 0.149 0.7969 0.303 0.2585 0.153 0.473 0.385 0.6435 0.694 0.1704 0.31 0.2557 0.725 0.2557 1.245v4.312h-1.0057v-0.886h-0.0512c-0.0681 0.142-0.1818 0.294-0.3409 0.456s-0.3707 0.299-0.6349 0.413-0.5867 0.17-0.9673 0.17zm0.1534-0.903c0.3977 0 0.7329-0.078 1.0056-0.234 0.2756-0.157 0.483-0.358 0.6222-0.605 0.142-0.248 0.2131-0.508 0.2131-0.78v-0.921c-0.0426 0.051-0.1364 0.098-0.2813 0.141-0.142 0.04-0.3068 0.075-0.4943 0.106-0.1847 0.029-0.3651 0.054-0.5412 0.077-0.1733 0.02-0.3139 0.037-0.4219 0.051-0.2613 0.034-0.5056 0.09-0.7329 0.166-0.2245 0.074-0.4063 0.186-0.5455 0.337-0.1363 0.148-0.2045 0.349-0.2045 0.605 0 0.35 0.1292 0.614 0.3878 0.793 0.2613 0.176 0.5923 0.264 0.9929 0.264zm7.3412 0.886c-0.6136 0-1.142-0.145-1.5852-0.434-0.4432-0.29-0.7841-0.689-1.0227-1.198-0.2387-0.508-0.358-1.089-0.358-1.743 0-0.664 0.1222-1.251 0.3665-1.76 0.2472-0.511 0.5909-0.91 1.0312-1.197 0.4432-0.29 0.9603-0.435 1.5512-0.435 0.4602 0 0.875 0.086 1.2443 0.256s0.6719 0.409 0.9077 0.716 0.3821 0.665 0.4389 1.074h-1.0057c-0.0767-0.299-0.2472-0.563-0.5114-0.793-0.2613-0.233-0.6136-0.349-1.0568-0.349-0.392 0-0.7358 0.102-1.0312 0.307-0.2926 0.201-0.5213 0.487-0.6861 0.856-0.1619 0.367-0.2429 0.797-0.2429 1.291 0 0.506 0.0795 0.946 0.2386 1.321 0.162 0.375 0.3892 0.666 0.6819 0.874 0.2954 0.207 0.642 0.311 1.0397 0.311 0.2614 0 0.4986-0.045 0.7117-0.136 0.213-0.091 0.3934-0.222 0.5412-0.392 0.1477-0.171 0.2528-0.375 0.3153-0.614h1.0057c-0.0568 0.386-0.1975 0.734-0.4219 1.044-0.2216 0.307-0.5156 0.551-0.8821 0.733-0.3636 0.179-0.7869 0.268-1.2699 0.268zm6.7032 0c-0.6137 0-1.1421-0.145-1.5853-0.434-0.4432-0.29-0.7841-0.689-1.0227-1.198-0.2386-0.508-0.358-1.089-0.358-1.743 0-0.664 0.1222-1.251 0.3665-1.76 0.2472-0.511 0.5909-0.91 1.0313-1.197 0.4432-0.29 0.9602-0.435 1.5511-0.435 0.4602 0 0.875 0.086 1.2443 0.256s0.6719 0.409 0.9077 0.716 0.3821 0.665 0.4389 1.074h-1.0057c-0.0767-0.299-0.2471-0.563-0.5113-0.793-0.2614-0.233-0.6137-0.349-1.0568-0.349-0.3921 0-0.7358 0.102-1.0313 0.307-0.2926 0.201-0.5213 0.487-0.6861 0.856-0.1619 0.367-0.2429 0.797-0.2429 1.291 0 0.506 0.0796 0.946 0.2387 1.321 0.1619 0.375 0.3892 0.666 0.6818 0.874 0.2954 0.207 0.642 0.311 1.0398 0.311 0.2613 0 0.4985-0.045 0.7116-0.136s0.3935-0.222 0.5412-0.392c0.1477-0.171 0.2528-0.375 0.3153-0.614h1.0057c-0.0568 0.386-0.1974 0.734-0.4219 1.044-0.2216 0.307-0.5156 0.551-0.8821 0.733-0.3636 0.179-0.7869 0.268-1.2698 0.268zm6.7031 0c-0.5909 0-1.1094-0.14-1.5554-0.422-0.4432-0.281-0.7898-0.674-1.0398-1.18-0.2472-0.506-0.3707-1.097-0.3707-1.773 0-0.681 0.1235-1.277 0.3707-1.785 0.25-0.509 0.5966-0.904 1.0398-1.185 0.446-0.281 0.9645-0.422 1.5554-0.422s1.1079 0.141 1.5511 0.422c0.446 0.281 0.7926 0.676 1.0398 1.185 0.25 0.508 0.375 1.104 0.375 1.785 0 0.676-0.125 1.267-0.375 1.773-0.2472 0.506-0.5938 0.899-1.0398 1.18-0.4432 0.282-0.9602 0.422-1.5511 0.422zm0-0.903c0.4488 0 0.8182-0.115 1.1079-0.345 0.2898-0.23 0.5043-0.533 0.6435-0.908s0.2088-0.781 0.2088-1.219c0-0.437-0.0696-0.845-0.2088-1.223-0.1392-0.377-0.3537-0.683-0.6435-0.916-0.2897-0.233-0.6591-0.349-1.1079-0.349-0.4489 0-0.8182 0.116-1.108 0.349s-0.5042 0.539-0.6434 0.916c-0.1392 0.378-0.2089 0.786-0.2089 1.223 0 0.438 0.0697 0.844 0.2089 1.219s0.3536 0.678 0.6434 0.908 0.6591 0.345 1.108 0.345zm4.501 0.767v-6.545h0.9716v0.988h0.0682c0.1193-0.324 0.3352-0.586 0.6477-0.788s0.6648-0.303 1.0569-0.303c0.0738 0 0.1662 2e-3 0.2769 5e-3 0.1108 2e-3 0.1947 7e-3 0.2515 0.012v1.023c-0.0341-8e-3 -0.1122-0.021-0.2344-0.038-0.1193-0.02-0.2457-0.03-0.3793-0.03-0.3181 0-0.6022 0.067-0.8522 0.2-0.2472 0.131-0.4432 0.313-0.5881 0.546-0.1421 0.23-0.2131 0.492-0.2131 0.788v4.142h-1.0057zm6.7373 0.136c-0.5455 0-1.027-0.137-1.4446-0.413-0.4177-0.278-0.7444-0.67-0.9802-1.176-0.2358-0.509-0.3537-1.109-0.3537-1.803 0-0.687 0.1179-1.284 0.3537-1.789 0.2358-0.506 0.564-0.897 0.9844-1.172 0.4205-0.276 0.9063-0.414 1.4574-0.414 0.4261 0 0.7628 0.071 1.0099 0.213 0.25 0.14 0.4404 0.299 0.5711 0.478 0.1335 0.176 0.2372 0.321 0.311 0.434h0.0853v-3.221h1.0057v8.727h-0.9716v-1.006h-0.1194c-0.0738 0.12-0.1789 0.27-0.3153 0.452-0.1364 0.179-0.331 0.34-0.5838 0.482-0.2528 0.139-0.5895 0.208-1.0099 0.208zm0.1363-0.903c0.4034 0 0.7443-0.105 1.0227-0.315 0.2785-0.213 0.4901-0.507 0.635-0.882 0.1449-0.378 0.2173-0.814 0.2173-1.309 0-0.488-0.071-0.916-0.213-1.282-0.1421-0.37-0.3523-0.657-0.6307-0.861-0.2784-0.208-0.6222-0.311-1.0313-0.311-0.4261 0-0.7812 0.109-1.0653 0.328-0.2813 0.216-0.4929 0.51-0.635 0.882-0.1392 0.369-0.2088 0.784-0.2088 1.244 0 0.466 0.0711 0.889 0.2131 1.27 0.1449 0.378 0.358 0.679 0.6392 0.904 0.2841 0.221 0.6364 0.332 1.0568 0.332zm4.8452 0.767v-6.545h1.0057v6.545h-1.0057zm0.5114-7.636c-0.1961 0-0.3651-0.067-0.5071-0.201-0.1393-0.133-0.2089-0.294-0.2089-0.481 0-0.188 0.0696-0.348 0.2089-0.482 0.142-0.133 0.311-0.2 0.5071-0.2 0.196 0 0.3636 0.067 0.5028 0.2 0.142 0.134 0.2131 0.294 0.2131 0.482 0 0.187-0.0711 0.348-0.2131 0.481-0.1392 0.134-0.3068 0.201-0.5028 0.201zm3.3419 3.698v3.938h-1.0057v-6.545h0.9716v1.022h0.0853c0.1534-0.332 0.3863-0.599 0.6988-0.801 0.3125-0.204 0.7159-0.307 1.2103-0.307 0.4431 0 0.8309 0.091 1.1633 0.273 0.3324 0.179 0.5909 0.452 0.7756 0.818 0.1846 0.364 0.277 0.824 0.277 1.381v4.159h-1.0057v-4.091c0-0.514-0.1335-0.915-0.4006-1.202-0.267-0.289-0.6335-0.434-1.0994-0.434-0.321 0-0.608 0.069-0.8608 0.209-0.25 0.139-0.4475 0.342-0.5923 0.609-0.1449 0.267-0.2174 0.591-0.2174 0.971zm8.6559 6.529c-0.4858 0-0.9034-0.063-1.2528-0.188-0.3494-0.122-0.6406-0.284-0.8736-0.485-0.2301-0.199-0.4133-0.412-0.5497-0.64l0.8011-0.562c0.0909 0.119 0.206 0.256 0.3452 0.409 0.1392 0.156 0.3295 0.291 0.571 0.405 0.2443 0.116 0.5639 0.175 0.9588 0.175 0.5284 0 0.9645-0.128 1.3083-0.384 0.3437-0.256 0.5156-0.656 0.5156-1.202v-1.329h-0.0852c-0.0739 0.119-0.179 0.267-0.3154 0.443-0.1335 0.173-0.3267 0.328-0.5795 0.464-0.25 0.134-0.5881 0.201-1.0142 0.201-0.5284 0-1.0029-0.125-1.4233-0.375-0.4176-0.25-0.7486-0.614-0.9929-1.091-0.2415-0.477-0.3622-1.057-0.3622-1.739 0-0.67 0.1179-1.254 0.3537-1.751 0.2358-0.5 0.5639-0.887 0.9843-1.159 0.4205-0.276 0.9063-0.414 1.4574-0.414 0.4262 0 0.7642 0.071 1.0142 0.213 0.2529 0.14 0.446 0.299 0.5796 0.478 0.1363 0.176 0.2414 0.321 0.3153 0.434h0.1023v-1.039h0.9716v6.733c0 0.562-0.1279 1.019-0.3836 1.372-0.2528 0.355-0.5937 0.615-1.0227 0.779-0.4261 0.168-0.9005 0.252-1.4233 0.252zm-0.0341-3.597c0.4034 0 0.7444-0.092 1.0228-0.277 0.2784-0.184 0.49-0.45 0.6349-0.797 0.1449-0.346 0.2173-0.761 0.2173-1.244 0-0.471-0.071-0.888-0.213-1.248-0.1421-0.361-0.3523-0.644-0.6307-0.848-0.2784-0.205-0.6222-0.307-1.0313-0.307-0.4261 0-0.7812 0.108-1.0653 0.324-0.2813 0.215-0.4929 0.505-0.635 0.869-0.1392 0.364-0.2088 0.767-0.2088 1.21 0 0.455 0.0711 0.857 0.2131 1.206 0.1449 0.347 0.358 0.619 0.6392 0.818 0.2841 0.196 0.6364 0.294 1.0568 0.294zm10.926-5.539v0.852h-3.3921v-0.852h3.3921zm-2.4034-1.569h1.0056v6.239c0 0.284 0.0412 0.497 0.1236 0.639 0.0853 0.139 0.1932 0.233 0.3239 0.281 0.1335 0.046 0.2741 0.069 0.4219 0.069 0.1108 0 0.2017-6e-3 0.2727-0.017 0.071-0.015 0.1278-0.026 0.1704-0.035l0.2046 0.904c-0.0682 0.025-0.1634 0.051-0.2855 0.077-0.1222 0.028-0.277 0.042-0.4645 0.042-0.2841 0-0.5625-0.061-0.8352-0.183-0.2699-0.122-0.4944-0.308-0.6733-0.558-0.1762-0.25-0.2642-0.566-0.2642-0.946v-6.512zm6.5049 8.25c-0.5909 0-1.1093-0.14-1.5554-0.422-0.4431-0.281-0.7897-0.674-1.0397-1.18-0.2472-0.506-0.3708-1.097-0.3708-1.773 0-0.681 0.1236-1.277 0.3708-1.785 0.25-0.509 0.5966-0.904 1.0397-1.185 0.4461-0.281 0.9645-0.422 1.5554-0.422s1.108 0.141 1.5512 0.422c0.446 0.281 0.7926 0.676 1.0397 1.185 0.25 0.508 0.375 1.104 0.375 1.785 0 0.676-0.125 1.267-0.375 1.773-0.2471 0.506-0.5937 0.899-1.0397 1.18-0.4432 0.282-0.9603 0.422-1.5512 0.422zm0-0.903c0.4489 0 0.8182-0.115 1.108-0.345s0.5042-0.533 0.6435-0.908c0.1392-0.375 0.2088-0.781 0.2088-1.219 0-0.437-0.0696-0.845-0.2088-1.223-0.1393-0.377-0.3537-0.683-0.6435-0.916s-0.6591-0.349-1.108-0.349c-0.4488 0-0.8181 0.116-1.1079 0.349s-0.5043 0.539-0.6435 0.916c-0.1392 0.378-0.2088 0.786-0.2088 1.223 0 0.438 0.0696 0.844 0.2088 1.219s0.3537 0.678 0.6435 0.908 0.6591 0.345 1.1079 0.345zm10.723-5.778v0.852h-3.3921v-0.852h3.3921zm-2.4034-1.569h1.0057v6.239c0 0.284 0.0412 0.497 0.1235 0.639 0.0853 0.139 0.1932 0.233 0.3239 0.281 0.1335 0.046 0.2742 0.069 0.4219 0.069 0.1108 0 0.2017-6e-3 0.2727-0.017 0.071-0.015 0.1278-0.026 0.1705-0.035l0.2045 0.904c-0.0682 0.025-0.1633 0.051-0.2855 0.077-0.1222 0.028-0.277 0.042-0.4645 0.042-0.2841 0-0.5625-0.061-0.8352-0.183-0.2699-0.122-0.4943-0.308-0.6733-0.558-0.1762-0.25-0.2642-0.566-0.2642-0.946v-6.512zm5.0625 4.176v3.938h-1.0057v-8.727h1.0057v3.204h0.0852c0.1534-0.338 0.3835-0.606 0.6903-0.805 0.3097-0.202 0.7216-0.303 1.2358-0.303 0.4461 0 0.8367 0.09 1.1719 0.269 0.3352 0.176 0.5952 0.447 0.7798 0.814 0.1875 0.363 0.2813 0.826 0.2813 1.389v4.159h-1.0057v-4.091c0-0.52-0.1349-0.922-0.4048-1.206-0.2671-0.287-0.6378-0.43-1.1122-0.43-0.3296 0-0.625 0.069-0.8864 0.209-0.2585 0.139-0.4631 0.342-0.6136 0.609-0.1478 0.267-0.2216 0.591-0.2216 0.971zm8.8285 4.074c-0.6307 0-1.1748-0.139-1.6321-0.417-0.4546-0.281-0.8054-0.674-1.0526-1.176-0.2443-0.506-0.3665-1.094-0.3665-1.765 0-0.67 0.1222-1.261 0.3665-1.772 0.2472-0.515 0.5909-0.915 1.0313-1.202 0.4431-0.29 0.9602-0.435 1.5511-0.435 0.3409 0 0.6775 0.057 1.0099 0.171 0.3324 0.113 0.6349 0.298 0.9079 0.554 0.273 0.253 0.49 0.588 0.652 1.005 0.162 0.418 0.243 0.932 0.243 1.543v0.426h-5.0458v-0.869h4.0228c0-0.369-0.074-0.699-0.2216-0.989-0.1449-0.29-0.3523-0.518-0.6222-0.686-0.267-0.167-0.5824-0.251-0.946-0.251-0.4006 0-0.7472 0.099-1.0398 0.298-0.2898 0.196-0.5128 0.452-0.669 0.767-0.1563 0.315-0.2344 0.653-0.2344 1.014v0.58c0 0.494 0.0852 0.913 0.2557 1.257 0.1733 0.341 0.4133 0.601 0.7202 0.78 0.3068 0.176 0.6633 0.264 1.0696 0.264 0.2642 0 0.5028-0.037 0.7159-0.111 0.2159-0.077 0.402-0.19 0.5582-0.341 0.1563-0.153 0.2774-0.344 0.3624-0.571l0.971 0.273c-0.102 0.329-0.274 0.619-0.515 0.869-0.242 0.247-0.54 0.441-0.8951 0.58-0.3551 0.136-0.7543 0.204-1.1974 0.204zm10.462-6.681v0.852h-3.392v-0.852h3.392zm-2.403-1.569h1.005v6.239c0 0.284 0.042 0.497 0.124 0.639 0.085 0.139 0.193 0.233 0.324 0.281 0.133 0.046 0.274 0.069 0.422 0.069 0.11 0 0.201-6e-3 0.272-0.017 0.071-0.015 0.128-0.026 0.171-0.035l0.204 0.904c-0.068 0.025-0.163 0.051-0.285 0.077-0.122 0.028-0.277 0.042-0.465 0.042-0.284 0-0.562-0.061-0.835-0.183-0.27-0.122-0.494-0.308-0.673-0.558-0.176-0.25-0.264-0.566-0.264-0.946v-6.512zm5.399 8.114-1.994-6.545h1.056l1.415 5.011h0.068l1.398-5.011h1.074l1.381 4.994h0.068l1.415-4.994h1.056l-1.994 6.545h-0.989l-1.431-5.028h-0.103l-1.432 5.028h-0.988zm10.703 0.136c-0.591 0-1.109-0.14-1.555-0.422-0.443-0.281-0.79-0.674-1.04-1.18-0.247-0.506-0.371-1.097-0.371-1.773 0-0.681 0.124-1.277 0.371-1.785 0.25-0.509 0.597-0.904 1.04-1.185 0.446-0.281 0.964-0.422 1.555-0.422s1.108 0.141 1.551 0.422c0.446 0.281 0.793 0.676 1.04 1.185 0.25 0.508 0.375 1.104 0.375 1.785 0 0.676-0.125 1.267-0.375 1.773-0.247 0.506-0.594 0.899-1.04 1.18-0.443 0.282-0.96 0.422-1.551 0.422zm0-0.903c0.449 0 0.819-0.115 1.108-0.345 0.29-0.23 0.505-0.533 0.644-0.908s0.209-0.781 0.209-1.219c0-0.437-0.07-0.845-0.209-1.223-0.139-0.377-0.354-0.683-0.644-0.916-0.289-0.233-0.659-0.349-1.108-0.349s-0.818 0.116-1.108 0.349c-0.289 0.233-0.504 0.539-0.643 0.916-0.139 0.378-0.209 0.786-0.209 1.223 0 0.438 0.07 0.844 0.209 1.219s0.354 0.678 0.643 0.908c0.29 0.23 0.659 0.345 1.108 0.345zm-89.421 11.829v3.938h-1.0056v-6.545h0.9715v1.022h0.0853c0.1534-0.332 0.3863-0.599 0.6988-0.801 0.3125-0.204 0.7159-0.307 1.2103-0.307 0.4431 0 0.8309 0.091 1.1633 0.273 0.3324 0.179 0.5909 0.452 0.7756 0.818 0.1846 0.364 0.277 0.824 0.277 1.381v4.159h-1.0057v-4.091c0-0.514-0.1335-0.915-0.4006-1.202-0.267-0.289-0.6335-0.434-1.0994-0.434-0.321 0-0.608 0.069-0.8608 0.209-0.25 0.139-0.4474 0.342-0.5923 0.609s-0.2174 0.591-0.2174 0.971zm8.7582 4.074c-0.6307 0-1.1747-0.139-1.6321-0.417-0.4545-0.281-0.8054-0.674-1.0526-1.176-0.2443-0.506-0.3664-1.094-0.3664-1.765 0-0.67 0.1221-1.261 0.3664-1.772 0.2472-0.515 0.591-0.915 1.0313-1.202 0.4432-0.29 0.9602-0.435 1.5511-0.435 0.3409 0 0.6776 0.057 1.01 0.171 0.3324 0.113 0.6349 0.298 0.9076 0.554 0.2728 0.253 0.4901 0.588 0.652 1.005 0.162 0.418 0.2429 0.932 0.2429 1.543v0.426h-5.0454v-0.869h4.0227c0-0.369-0.0739-0.699-0.2216-0.989-0.1449-0.29-0.3523-0.518-0.6221-0.686-0.2671-0.167-0.5824-0.251-0.9461-0.251-0.4005 0-0.7471 0.099-1.0397 0.298-0.2898 0.196-0.5128 0.452-0.6691 0.767-0.1562 0.315-0.2343 0.653-0.2343 1.014v0.58c0 0.494 0.0852 0.913 0.2556 1.257 0.1733 0.341 0.4134 0.601 0.7202 0.78 0.3068 0.176 0.6634 0.264 1.0696 0.264 0.2642 0 0.5028-0.037 0.7159-0.111 0.2159-0.077 0.402-0.19 0.5583-0.341 0.1562-0.153 0.2769-0.344 0.3622-0.571l0.9716 0.273c-0.1023 0.329-0.2742 0.619-0.5157 0.869-0.2414 0.247-0.5397 0.441-0.8948 0.58-0.3552 0.136-0.7543 0.204-1.1975 0.204zm5.723-0.136-1.9943-6.545h1.0568l1.4148 5.011h0.0682l1.3977-5.011h1.0739l1.3806 4.994h0.0682l1.4148-4.994h1.0568l-1.9943 6.545h-0.9886l-1.4319-5.028h-0.1022l-1.4318 5.028h-0.9887zm12.903-5.08-0.9034 0.256c-0.0568-0.15-0.1406-0.297-0.2514-0.439-0.108-0.145-0.2557-0.264-0.4432-0.358-0.1875-0.093-0.4275-0.14-0.7202-0.14-0.4005 0-0.7343 0.092-1.0014 0.277-0.2642 0.181-0.3963 0.413-0.3963 0.694 0 0.25 0.0909 0.448 0.2727 0.593 0.1819 0.144 0.466 0.265 0.8523 0.362l0.9716 0.238c0.5852 0.142 1.0213 0.36 1.3082 0.652 0.287 0.29 0.4304 0.664 0.4304 1.121 0 0.375-0.1079 0.71-0.3238 1.006-0.2131 0.295-0.5114 0.528-0.8949 0.699-0.3835 0.17-0.8295 0.255-1.3381 0.255-0.6676 0-1.2201-0.145-1.6576-0.434-0.4375-0.29-0.7145-0.713-0.831-1.27l0.9545-0.239c0.0909 0.352 0.2628 0.617 0.5157 0.793 0.2556 0.176 0.5895 0.264 1.0014 0.264 0.4687 0 0.8409-0.099 1.1165-0.298 0.2784-0.202 0.4176-0.443 0.4176-0.725 0-0.227-0.0796-0.417-0.2387-0.571-0.1591-0.156-0.4034-0.272-0.7329-0.349l-1.0909-0.256c-0.5995-0.142-1.0398-0.362-1.321-0.66-0.2785-0.302-0.4177-0.678-0.4177-1.13 0-0.369 0.1037-0.696 0.3111-0.98 0.2102-0.284 0.4958-0.507 0.8566-0.669 0.3636-0.162 0.7755-0.243 1.2357-0.243 0.6478 0 1.1563 0.142 1.5256 0.426 0.3722 0.285 0.6364 0.66 0.7926 1.125zm1.6332 7.535v-9h0.9716v1.039h0.1193c0.0739-0.113 0.1761-0.258 0.3068-0.434 0.1335-0.179 0.3239-0.338 0.571-0.478 0.25-0.142 0.5881-0.213 1.0142-0.213 0.5512 0 1.037 0.138 1.4574 0.414 0.4205 0.275 0.7486 0.666 0.9844 1.172 0.2358 0.505 0.3537 1.102 0.3537 1.789 0 0.694-0.1179 1.294-0.3537 1.803-0.2358 0.506-0.5625 0.898-0.9801 1.176-0.4176 0.276-0.8992 0.413-1.4446 0.413-0.4205 0-0.7571-0.069-1.0099-0.208-0.2529-0.142-0.4475-0.303-0.5839-0.482-0.1363-0.182-0.2414-0.332-0.3153-0.452h-0.0852v3.461h-1.0057zm0.9886-5.728c0 0.495 0.0725 0.931 0.2174 1.309 0.1448 0.375 0.3565 0.669 0.6349 0.882 0.2784 0.21 0.6193 0.315 1.0227 0.315 0.4205 0 0.7713-0.111 1.0526-0.332 0.2841-0.225 0.4971-0.526 0.6392-0.904 0.1449-0.381 0.2173-0.804 0.2173-1.27 0-0.46-0.071-0.875-0.213-1.244-0.1393-0.372-0.3509-0.666-0.635-0.882-0.2812-0.219-0.6349-0.328-1.0611-0.328-0.4091 0-0.7528 0.103-1.0312 0.311-0.2784 0.204-0.4887 0.491-0.6307 0.861-0.142 0.366-0.2131 0.794-0.2131 1.282zm8.25 3.426c-0.4147 0-0.7912-0.078-1.1292-0.234-0.3381-0.159-0.6066-0.388-0.8054-0.686-0.1989-0.301-0.2983-0.665-0.2983-1.091 0-0.375 0.0738-0.679 0.2216-0.912 0.1477-0.236 0.3451-0.42 0.5923-0.554 0.2472-0.133 0.5199-0.233 0.8182-0.298 0.3011-0.068 0.6037-0.122 0.9076-0.162 0.3978-0.051 0.7202-0.09 0.9674-0.115 0.25-0.029 0.4318-0.075 0.5454-0.141 0.1165-0.065 0.1747-0.179 0.1747-0.341v-0.034c0-0.42-0.115-0.747-0.3451-0.98-0.2273-0.233-0.5725-0.349-1.0355-0.349-0.4801 0-0.8566 0.105-1.1293 0.315s-0.4645 0.435-0.5753 0.673l-0.9545-0.341c0.1704-0.397 0.3977-0.707 0.6818-0.929 0.2869-0.224 0.5994-0.38 0.9375-0.468 0.3409-0.091 0.6761-0.137 1.0057-0.137 0.2102 0 0.4517 0.026 0.7244 0.077 0.2756 0.048 0.5412 0.149 0.7969 0.303 0.2585 0.153 0.473 0.385 0.6434 0.694 0.1705 0.31 0.2557 0.725 0.2557 1.245v4.312h-1.0057v-0.886h-0.0511c-0.0682 0.142-0.1818 0.294-0.3409 0.456s-0.3707 0.299-0.6349 0.413-0.5867 0.17-0.9674 0.17zm0.1534-0.903c0.3978 0 0.733-0.078 1.0057-0.234 0.2756-0.157 0.483-0.358 0.6222-0.605 0.142-0.248 0.213-0.508 0.213-0.78v-0.921c-0.0426 0.051-0.1363 0.098-0.2812 0.141-0.142 0.04-0.3068 0.075-0.4943 0.106-0.1847 0.029-0.3651 0.054-0.5412 0.077-0.1733 0.02-0.3139 0.037-0.4219 0.051-0.2614 0.034-0.5057 0.09-0.7329 0.166-0.2245 0.074-0.4063 0.186-0.5455 0.337-0.1364 0.148-0.2045 0.349-0.2045 0.605 0 0.35 0.1292 0.614 0.3877 0.793 0.2614 0.176 0.5924 0.264 0.9929 0.264zm4.6822 3.205v-9h0.9716v1.039h0.1193c0.0739-0.113 0.1762-0.258 0.3068-0.434 0.1336-0.179 0.3239-0.338 0.5711-0.478 0.25-0.142 0.588-0.213 1.0142-0.213 0.5511 0 1.0369 0.138 1.4574 0.414 0.4204 0.275 0.7485 0.666 0.9843 1.172 0.2358 0.505 0.3537 1.102 0.3537 1.789 0 0.694-0.1179 1.294-0.3537 1.803-0.2358 0.506-0.5625 0.898-0.9801 1.176-0.4176 0.276-0.8991 0.413-1.4446 0.413-0.4204 0-0.7571-0.069-1.0099-0.208-0.2529-0.142-0.4475-0.303-0.5838-0.482-0.1364-0.182-0.2415-0.332-0.3154-0.452h-0.0852v3.461h-1.0057zm0.9887-5.728c0 0.495 0.0724 0.931 0.2173 1.309 0.1449 0.375 0.3565 0.669 0.6349 0.882 0.2784 0.21 0.6193 0.315 1.0228 0.315 0.4204 0 0.7713-0.111 1.0525-0.332 0.2841-0.225 0.4972-0.526 0.6392-0.904 0.1449-0.381 0.2173-0.804 0.2173-1.27 0-0.46-0.071-0.875-0.213-1.244-0.1392-0.372-0.3509-0.666-0.635-0.882-0.2812-0.219-0.6349-0.328-1.061-0.328-0.4091 0-0.7529 0.103-1.0313 0.311-0.2784 0.204-0.4886 0.491-0.6307 0.861-0.142 0.366-0.213 0.794-0.213 1.282zm9.0681 3.409c-0.6306 0-1.1747-0.139-1.6321-0.417-0.4545-0.281-0.8054-0.674-1.0525-1.176-0.2443-0.506-0.3665-1.094-0.3665-1.765 0-0.67 0.1222-1.261 0.3665-1.772 0.2471-0.515 0.5909-0.915 1.0312-1.202 0.4432-0.29 0.9603-0.435 1.5512-0.435 0.3409 0 0.6775 0.057 1.0099 0.171 0.3324 0.113 0.6349 0.298 0.9077 0.554 0.2727 0.253 0.49 0.588 0.652 1.005 0.1619 0.418 0.2429 0.932 0.2429 1.543v0.426h-5.0455v-0.869h4.0227c0-0.369-0.0738-0.699-0.2216-0.989-0.1448-0.29-0.3522-0.518-0.6221-0.686-0.2671-0.167-0.5824-0.251-0.946-0.251-0.4006 0-0.7472 0.099-1.0398 0.298-0.2898 0.196-0.5128 0.452-0.669 0.767-0.1563 0.315-0.2344 0.653-0.2344 1.014v0.58c0 0.494 0.0852 0.913 0.2557 1.257 0.1733 0.341 0.4133 0.601 0.7201 0.78 0.3068 0.176 0.6634 0.264 1.0696 0.264 0.2642 0 0.5029-0.037 0.7159-0.111 0.216-0.077 0.402-0.19 0.5583-0.341 0.1562-0.153 0.277-0.344 0.3622-0.571l0.9716 0.273c-0.1023 0.329-0.2742 0.619-0.5156 0.869-0.2415 0.247-0.5398 0.441-0.8949 0.58-0.3551 0.136-0.7543 0.204-1.1975 0.204zm4.2401-0.136v-6.545h0.9716v0.988h0.0682c0.1193-0.324 0.3352-0.586 0.6477-0.788s0.6648-0.303 1.0568-0.303c0.0739 0 0.1662 2e-3 0.277 5e-3 0.1108 2e-3 0.1946 7e-3 0.2514 0.012v1.023c-0.0341-8e-3 -0.1122-0.021-0.2344-0.038-0.1193-0.02-0.2457-0.03-0.3792-0.03-0.3182 0-0.6023 0.067-0.8523 0.2-0.2472 0.131-0.4432 0.313-0.5881 0.546-0.142 0.23-0.213 0.492-0.213 0.788v4.142h-1.0057zm9.1012-5.08-0.9034 0.256c-0.0568-0.15-0.1406-0.297-0.2514-0.439-0.108-0.145-0.2557-0.264-0.4432-0.358-0.1875-0.093-0.4276-0.14-0.7202-0.14-0.4006 0-0.7344 0.092-1.0014 0.277-0.2642 0.181-0.3963 0.413-0.3963 0.694 0 0.25 0.0909 0.448 0.2727 0.593 0.1818 0.144 0.4659 0.265 0.8523 0.362l0.9716 0.238c0.5852 0.142 1.0213 0.36 1.3082 0.652 0.2869 0.29 0.4304 0.664 0.4304 1.121 0 0.375-0.1079 0.71-0.3238 1.006-0.2131 0.295-0.5114 0.528-0.8949 0.699-0.3836 0.17-0.8296 0.255-1.3381 0.255-0.6676 0-1.2202-0.145-1.6577-0.434-0.4375-0.29-0.7145-0.713-0.8309-1.27l0.9545-0.239c0.0909 0.352 0.2628 0.617 0.5156 0.793 0.2557 0.176 0.5895 0.264 1.0015 0.264 0.4687 0 0.8409-0.099 1.1164-0.298 0.2784-0.202 0.4176-0.443 0.4176-0.725 0-0.227-0.0795-0.417-0.2386-0.571-0.1591-0.156-0.4034-0.272-0.7329-0.349l-1.091-0.256c-0.5994-0.142-1.0397-0.362-1.321-0.66-0.2784-0.302-0.4176-0.678-0.4176-1.13 0-0.369 0.1037-0.696 0.3111-0.98 0.2102-0.284 0.4957-0.507 0.8565-0.669 0.3637-0.162 0.7756-0.243 1.2358-0.243 0.6477 0 1.1563 0.142 1.5256 0.426 0.3721 0.285 0.6363 0.66 0.7926 1.125zm2.3666 5.148c-0.211 0-0.391-0.075-0.542-0.226-0.15-0.15-0.226-0.331-0.226-0.541s0.076-0.39 0.226-0.541c0.151-0.151 0.331-0.226 0.542-0.226 0.21 0 0.39 0.075 0.541 0.226 0.15 0.151 0.226 0.331 0.226 0.541 0 0.139-0.036 0.267-0.107 0.384-0.068 0.116-0.16 0.21-0.277 0.281-0.114 0.068-0.241 0.102-0.383 0.102z"/>
<path d="m51.031 37.139c-0.5833 0-1.1086-0.116-1.576-0.348-0.4673-0.232-0.8418-0.5502-1.1236-0.9546-0.2817-0.4043-0.4358-0.865-0.4623-1.3821h1.1932c0.0464 0.4607 0.2552 0.8419 0.6264 1.1435 0.3745 0.2983 0.822 0.4475 1.3423 0.4475 0.4176 0 0.7888-0.0978 1.1137-0.2934 0.3281-0.1955 0.5849-0.464 0.7706-0.8054 0.1889-0.3447 0.2833-0.7341 0.2833-1.1683 0-0.4441-0.0977-0.8402-0.2933-1.1882-0.1922-0.3513-0.4574-0.6281-0.7954-0.8303-0.3381-0.2021-0.7242-0.3049-1.1584-0.3082-0.3116-0.0033-0.6314 0.0447-0.9595 0.1442-0.3282 0.0961-0.5983 0.2204-0.8104 0.3729l-1.1534-0.1393 0.6165-5.0113h5.2897v1.0937h-4.2557l-0.3579 3.0029h0.0596c0.2089-0.1657 0.4707-0.3033 0.7856-0.4127 0.3148-0.1093 0.643-0.164 0.9843-0.164 0.6231 0 1.1783 0.1491 1.6655 0.4474 0.4905 0.295 0.875 0.6993 1.1534 1.2131 0.2818 0.5137 0.4226 1.1004 0.4226 1.7599 0 0.6496-0.1458 1.2297-0.4375 1.7401-0.2883 0.5071-0.6861 0.9081-1.1932 1.2031-0.5071 0.2917-1.0838 0.4375-1.7301 0.4375zm8.5176 0c-0.5833 0-1.1087-0.116-1.576-0.348s-0.8419-0.5502-1.1236-0.9546c-0.2817-0.4043-0.4358-0.865-0.4623-1.3821h1.1931c0.0464 0.4607 0.2553 0.8419 0.6265 1.1435 0.3745 0.2983 0.8219 0.4475 1.3423 0.4475 0.4176 0 0.7888-0.0978 1.1136-0.2934 0.3282-0.1955 0.585-0.464 0.7706-0.8054 0.1889-0.3447 0.2834-0.7341 0.2834-1.1683 0-0.4441-0.0978-0.8402-0.2933-1.1882-0.1922-0.3513-0.4574-0.6281-0.7955-0.8303-0.338-0.2021-0.7242-0.3049-1.1583-0.3082-0.3116-0.0033-0.6314 0.0447-0.9596 0.1442-0.3281 0.0961-0.5982 0.2204-0.8103 0.3729l-1.1534-0.1393 0.6164-5.0113h5.2898v1.0937h-4.2557l-0.3579 3.0029h0.0596c0.2088-0.1657 0.4707-0.3033 0.7855-0.4127 0.3149-0.1093 0.643-0.164 0.9844-0.164 0.6231 0 1.1783 0.1491 1.6655 0.4474 0.4905 0.295 0.875 0.6993 1.1534 1.2131 0.2817 0.5137 0.4226 1.1004 0.4226 1.7599 0 0.6496-0.1458 1.2297-0.4375 1.7401-0.2884 0.5071-0.6861 0.9081-1.1932 1.2031-0.5071 0.2917-1.0838 0.4375-1.7301 0.4375zm10.526-2.0483v-0.5369c0-0.3712 0.0762-0.711 0.2287-1.0192 0.1558-0.3116 0.3811-0.5601 0.6761-0.7457 0.2983-0.189 0.6596-0.2834 1.0838-0.2834 0.4309 0 0.7922 0.0944 1.0838 0.2834 0.2917 0.1856 0.5121 0.4341 0.6613 0.7457 0.1491 0.3082 0.2237 0.648 0.2237 1.0192v0.5369c0 0.3712-0.0762 0.7126-0.2287 1.0242-0.1492 0.3082-0.3712 0.5568-0.6662 0.7457-0.2917 0.1856-0.6496 0.2784-1.0739 0.2784-0.4308 0-0.7938-0.0928-1.0887-0.2784-0.295-0.1889-0.5187-0.4375-0.6712-0.7457-0.1525-0.3116-0.2287-0.653-0.2287-1.0242zm1.0142-0.5369v0.5369c0 0.3082 0.0729 0.585 0.2188 0.8303 0.1458 0.2419 0.3977 0.3629 0.7556 0.3629 0.348 0 0.5933-0.121 0.7358-0.3629 0.1459-0.2453 0.2188-0.5221 0.2188-0.8303v-0.5369c0-0.3083-0.0696-0.5834-0.2088-0.8253-0.1392-0.2453-0.3878-0.3679-0.7458-0.3679-0.348 0-0.5982 0.1226-0.7507 0.3679-0.1491 0.2419-0.2237 0.517-0.2237 0.8253zm-6.0852-5.2898v-0.5369c0-0.3712 0.0762-0.711 0.2287-1.0192 0.1557-0.3116 0.3811-0.5601 0.6761-0.7457 0.2983-0.189 0.6596-0.2834 1.0838-0.2834 0.4309 0 0.7922 0.0944 1.0838 0.2834 0.2917 0.1856 0.5121 0.4341 0.6612 0.7457 0.1492 0.3082 0.2238 0.648 0.2238 1.0192v0.5369c0 0.3712-0.0763 0.7126-0.2287 1.0242-0.1492 0.3082-0.3712 0.5568-0.6662 0.7457-0.2917 0.1856-0.6496 0.2784-1.0739 0.2784-0.4309 0-0.7938-0.0928-1.0888-0.2784-0.2949-0.1889-0.5187-0.4375-0.6711-0.7457-0.1525-0.3116-0.2287-0.653-0.2287-1.0242zm1.0142-0.5369v0.5369c0 0.3082 0.0729 0.585 0.2187 0.8303 0.1459 0.2419 0.3978 0.3629 0.7557 0.3629 0.348 0 0.5933-0.121 0.7358-0.3629 0.1458-0.2453 0.2188-0.5221 0.2188-0.8303v-0.5369c0-0.3083-0.0696-0.5834-0.2089-0.8253-0.1392-0.2453-0.3877-0.3679-0.7457-0.3679-0.348 0-0.5982 0.1226-0.7507 0.3679-0.1491 0.2419-0.2237 0.517-0.2237 0.8253zm-0.6364 8.2727 7-10.182h1.1335l-7 10.182h-1.1335z"/>
<path d="m74.378 69.912v-1.0142l4.4745-7.0795h0.7358v1.571h-0.4972l-3.3807 5.3494v0.0796h6.0256v1.0937h-7.358zm4.7927 2.0881v-10.182h1.1733v10.182h-1.1733zm7.6102 0.1392c-0.5833 0-1.1086-0.116-1.576-0.348-0.4673-0.232-0.8418-0.5502-1.1236-0.9546-0.2817-0.4043-0.4358-0.865-0.4623-1.3821h1.1932c0.0464 0.4607 0.2552 0.8419 0.6264 1.1435 0.3745 0.2983 0.822 0.4475 1.3423 0.4475 0.4176 0 0.7888-0.0978 1.1137-0.2934 0.3281-0.1955 0.5849-0.464 0.7706-0.8054 0.1889-0.3447 0.2833-0.7341 0.2833-1.1683 0-0.4441-0.0977-0.8402-0.2933-1.1882-0.1922-0.3513-0.4574-0.6281-0.7954-0.8303-0.3381-0.2021-0.7242-0.3049-1.1584-0.3082-0.3116-0.0033-0.6314 0.0447-0.9595 0.1442-0.3282 0.0961-0.5983 0.2204-0.8104 0.3729l-1.1534-0.1393 0.6165-5.0113h5.2897v1.0937h-4.2557l-0.3579 3.0029h0.0596c0.2089-0.1657 0.4707-0.3033 0.7856-0.4127 0.3148-0.1093 0.643-0.164 0.9843-0.164 0.6231 0 1.1783 0.1491 1.6655 0.4474 0.4905 0.295 0.875 0.6993 1.1534 1.2131 0.2818 0.5137 0.4226 1.1004 0.4226 1.7599 0 0.6496-0.1458 1.2297-0.4375 1.7401-0.2883 0.5071-0.6861 0.9081-1.1932 1.2031-0.5071 0.2917-1.0838 0.4375-1.7301 0.4375zm10.526-2.0483v-0.5369c0-0.3712 0.0762-0.711 0.2287-1.0192 0.1558-0.3116 0.3812-0.5601 0.6761-0.7457 0.2983-0.189 0.6596-0.2834 1.0839-0.2834 0.4308 0 0.7925 0.0944 1.0835 0.2834 0.292 0.1856 0.512 0.4341 0.661 0.7457 0.15 0.3082 0.224 0.648 0.224 1.0192v0.5369c0 0.3712-0.076 0.7126-0.228 1.0242-0.15 0.3082-0.372 0.5568-0.667 0.7457-0.291 0.1856-0.6493 0.2784-1.0735 0.2784-0.4309 0-0.7938-0.0928-1.0888-0.2784-0.295-0.1889-0.5187-0.4375-0.6712-0.7457-0.1525-0.3116-0.2287-0.653-0.2287-1.0242zm1.0142-0.5369v0.5369c0 0.3082 0.0729 0.585 0.2188 0.8303 0.1458 0.2419 0.3977 0.3629 0.7557 0.3629 0.348 0 0.5932-0.121 0.7355-0.3629 0.146-0.2453 0.219-0.5221 0.219-0.8303v-0.5369c0-0.3083-0.07-0.5834-0.209-0.8253-0.139-0.2453-0.3876-0.3679-0.7455-0.3679-0.3481 0-0.5983 0.1226-0.7508 0.3679-0.1491 0.2419-0.2237 0.517-0.2237 0.8253zm-6.0852-5.2898v-0.5369c0-0.3712 0.0762-0.711 0.2287-1.0192 0.1558-0.3116 0.3811-0.5601 0.6761-0.7457 0.2983-0.189 0.6596-0.2834 1.0838-0.2834 0.4309 0 0.7922 0.0944 1.0838 0.2834 0.2917 0.1856 0.5121 0.4341 0.6613 0.7457 0.1491 0.3082 0.2237 0.648 0.2237 1.0192v0.5369c0 0.3712-0.0762 0.7126-0.2287 1.0242-0.1492 0.3082-0.3712 0.5568-0.6662 0.7457-0.2917 0.1856-0.6496 0.2784-1.0739 0.2784-0.4308 0-0.7938-0.0928-1.0887-0.2784-0.295-0.1889-0.5187-0.4375-0.6712-0.7457-0.1525-0.3116-0.2287-0.653-0.2287-1.0242zm1.0142-0.5369v0.5369c0 0.3082 0.0729 0.585 0.2188 0.8303 0.1458 0.2419 0.3977 0.3629 0.7556 0.3629 0.348 0 0.5933-0.121 0.7358-0.3629 0.1459-0.2453 0.2188-0.5221 0.2188-0.8303v-0.5369c0-0.3083-0.0696-0.5834-0.2088-0.8253-0.1392-0.2453-0.3878-0.3679-0.7458-0.3679-0.348 0-0.5982 0.1226-0.7507 0.3679-0.1491 0.2419-0.2237 0.517-0.2237 0.8253zm-0.6364 8.2727 7-10.182h1.1334l-6.9998 10.182h-1.1336z"/>
</svg>
