<svg width="123" height="158" viewBox="0 0 123 158" fill="none" xmlns="http://www.w3.org/2000/svg">
<path d="M61.2383 93.5C86.9195 93.5 107.738 72.6812 107.738 47C107.738 21.3188 86.9195 0.5 61.2383 0.5C35.557 0.5 14.7383 21.3188 14.7383 47C14.7383 72.6812 35.557 93.5 61.2383 93.5Z" fill="white" stroke="black"/>
<path d="M49.1807 41.8179V51.9999H47.9478V43.1107H47.8881L45.4023 44.7613V43.5084L47.9478 41.8181L49.1807 41.8179ZM55.43 52.1389C54.681 52.1389 54.0429 51.9351 53.5159 51.5274C52.989 51.1164 52.5863 50.5215 52.3078 49.7426C52.0294 48.9604 51.8902 48.0158 51.8902 46.9088C51.8902 45.8084 52.0294 44.8688 52.3078 44.0899C52.5896 43.3077 52.9939 42.7111 53.5209 42.3001C54.0512 41.8858 54.6876 41.6787 55.43 41.6787C56.1724 41.6787 56.8071 41.8858 57.3341 42.3001C57.8644 42.7111 58.2688 43.3077 58.5472 44.0899C58.8289 44.8688 58.9698 45.8084 58.9698 46.9088C58.9698 48.0158 58.8306 48.9604 58.5522 49.7426C58.2738 50.5215 57.8711 51.1164 57.3441 51.5274C56.8171 51.9351 56.1791 52.1389 55.43 52.1389ZM55.43 51.0452C56.1724 51.0452 56.7491 50.6872 57.1601 49.9713C57.5711 49.2554 57.7766 48.2345 57.7766 46.9088C57.7766 46.0272 57.6821 45.2765 57.4932 44.6567C57.3076 44.0369 57.0391 43.5646 56.6878 43.2398C56.3398 42.9149 55.9205 42.7525 55.43 42.7525C54.6942 42.7525 54.1192 43.1155 53.7049 43.8413C53.2906 44.5639 53.0834 45.5863 53.0834 46.9088C53.0834 47.7904 53.1762 48.5395 53.3618 49.1559C53.5474 49.7724 53.8142 50.2414 54.1623 50.5629C54.5136 50.8844 54.9362 51.0452 55.43 51.0452ZM64.18 52.1389C63.431 52.1389 62.7929 51.9351 62.2659 51.5274C61.739 51.1164 61.3363 50.5215 61.0578 49.7426C60.7794 48.9604 60.6402 48.0158 60.6402 46.9088C60.6402 45.8084 60.7794 44.8688 61.0578 44.0899C61.3396 43.3077 61.7439 42.7111 62.2709 42.3001C62.8012 41.8858 63.4376 41.6787 64.18 41.6787C64.9224 41.6787 65.5571 41.8858 66.0841 42.3001C66.6144 42.7111 67.0188 43.3077 67.2972 44.0899C67.5789 44.8688 67.7198 45.8084 67.7198 46.9088C67.7198 48.0158 67.5806 48.9604 67.3022 49.7426C67.0238 50.5215 66.6211 51.1164 66.0941 51.5274C65.5671 51.9351 64.9291 52.1389 64.18 52.1389ZM64.18 51.0452C64.9224 51.0452 65.4991 50.6872 65.9101 49.9713C66.3211 49.2554 66.5266 48.2345 66.5266 46.9088C66.5266 46.0272 66.4321 45.2765 66.2432 44.6567C66.0576 44.0369 65.7891 43.5646 65.4378 43.2398C65.0898 42.9149 64.6705 42.7525 64.18 42.7525C63.4442 42.7525 62.8692 43.1155 62.4549 43.8413C62.0406 44.5639 61.8334 45.5863 61.8334 46.9088C61.8334 47.7904 61.9262 48.5395 62.1118 49.1559C62.2974 49.7724 62.5642 50.2414 62.9123 50.5629C63.2636 50.8844 63.6862 51.0452 64.18 51.0452ZM74.799 50.0906V49.5537C74.799 49.1825 74.8753 48.8427 75.0277 48.5345C75.1835 48.2229 75.4089 47.9744 75.7039 47.7888C76.0021 47.5998 76.3634 47.5054 76.7877 47.5054C77.2185 47.5054 77.5798 47.5998 77.8715 47.7888C78.1631 47.9744 78.3835 48.2229 78.5327 48.5345C78.6818 48.8427 78.7564 49.1825 78.7564 49.5537V50.0906C78.7564 50.4618 78.6802 50.8032 78.5277 51.1148C78.3786 51.423 78.1565 51.6716 77.8615 51.8605C77.5699 52.0461 77.2119 52.1389 76.7877 52.1389C76.3568 52.1389 75.9939 52.0461 75.6989 51.8605C75.4039 51.6716 75.1802 51.423 75.0277 51.1148C74.8753 50.8032 74.799 50.4618 74.799 50.0906ZM75.8132 49.5537V50.0906C75.8132 50.3988 75.8861 50.6756 76.032 50.9209C76.1778 51.1628 76.4297 51.2838 76.7877 51.2838C77.1357 51.2838 77.3809 51.1628 77.5235 50.9209C77.6693 50.6756 77.7422 50.3988 77.7422 50.0906V49.5537C77.7422 49.2454 77.6726 48.9703 77.5334 48.7284C77.3942 48.4831 77.1456 48.3605 76.7877 48.3605C76.4396 48.3605 76.1894 48.4831 76.037 48.7284C75.8878 48.9703 75.8132 49.2454 75.8132 49.5537ZM69.728 44.2639V43.727C69.728 43.3558 69.8042 43.016 69.9567 42.7078C70.1125 42.3962 70.3379 42.1477 70.6328 41.9621C70.9311 41.7731 71.2924 41.6787 71.7166 41.6787C72.1475 41.6787 72.5088 41.7731 72.8004 41.9621C73.0921 42.1477 73.3125 42.3962 73.4617 42.7078C73.6108 43.016 73.6854 43.3558 73.6854 43.727V44.2639C73.6854 44.6351 73.6092 44.9765 73.4567 45.2881C73.3075 45.5963 73.0855 45.8449 72.7905 46.0338C72.4988 46.2194 72.1409 46.3122 71.7166 46.3122C71.2858 46.3122 70.9228 46.2194 70.6279 46.0338C70.3329 45.8449 70.1092 45.5963 69.9567 45.2881C69.8042 44.9765 69.728 44.6351 69.728 44.2639ZM70.7422 43.727V44.2639C70.7422 44.5721 70.8151 44.8489 70.961 45.0942C71.1068 45.3361 71.3587 45.4571 71.7166 45.4571C72.0646 45.4571 72.3099 45.3361 72.4524 45.0942C72.5983 44.8489 72.6712 44.5721 72.6712 44.2639V43.727C72.6712 43.4187 72.6016 43.1436 72.4624 42.9017C72.3232 42.6564 72.0746 42.5338 71.7166 42.5338C71.3686 42.5338 71.1184 42.6564 70.9659 42.9017C70.8168 43.1436 70.7422 43.4187 70.7422 43.727ZM70.1058 51.9997L77.1058 41.8177H78.2394L71.2394 51.9997H70.1058Z" fill="black"/>
<path d="M1.54856 117.21V116.273H8.09406V117.21H5.34976V125H4.29286V117.21H1.54856ZM10.5944 121.062V125H9.58866V116.273H10.5944V119.477H10.6797C10.8331 119.139 11.0632 118.871 11.37 118.672C11.6797 118.47 12.0916 118.369 12.6058 118.369C13.0518 118.369 13.4424 118.459 13.7777 118.638C14.1129 118.814 14.3728 119.085 14.5575 119.452C14.745 119.815 14.8387 120.278 14.8387 120.841V125H13.8331V120.909C13.8331 120.389 13.6981 119.987 13.4282 119.703C13.1612 119.416 12.7904 119.273 12.316 119.273C11.9865 119.273 11.691 119.342 11.4297 119.482C11.1711 119.621 10.9666 119.824 10.816 120.091C10.6683 120.358 10.5944 120.682 10.5944 121.062ZM16.6786 125V118.455H17.6843V125H16.6786ZM17.1899 117.364C16.9939 117.364 16.8249 117.297 16.6828 117.163C16.5436 117.03 16.474 116.869 16.474 116.682C16.474 116.494 16.5436 116.334 16.6828 116.2C16.8249 116.067 16.9939 116 17.1899 116C17.386 116 17.5536 116.067 17.6928 116.2C17.8348 116.334 17.9059 116.494 17.9059 116.682C17.9059 116.869 17.8348 117.03 17.6928 117.163C17.5536 117.297 17.386 117.364 17.1899 117.364ZM24.1626 119.92L23.2592 120.176C23.2024 120.026 23.1186 119.879 23.0078 119.737C22.8998 119.592 22.7521 119.473 22.5646 119.379C22.3771 119.286 22.137 119.239 21.8444 119.239C21.4439 119.239 21.11 119.331 20.843 119.516C20.5788 119.697 20.4467 119.929 20.4467 120.21C20.4467 120.46 20.5376 120.658 20.7194 120.803C20.9012 120.947 21.1853 121.068 21.5717 121.165L22.5433 121.403C23.1285 121.545 23.5646 121.763 23.8515 122.055C24.1385 122.345 24.2819 122.719 24.2819 123.176C24.2819 123.551 24.174 123.886 23.9581 124.182C23.745 124.477 23.4467 124.71 23.0632 124.881C22.6797 125.051 22.2336 125.136 21.7251 125.136C21.0575 125.136 20.5049 124.991 20.0674 124.702C19.6299 124.412 19.3529 123.989 19.2365 123.432L20.191 123.193C20.2819 123.545 20.4538 123.81 20.7066 123.986C20.9623 124.162 21.2961 124.25 21.7081 124.25C22.1768 124.25 22.549 124.151 22.8245 123.952C23.1029 123.75 23.2422 123.509 23.2422 123.227C23.2422 123 23.1626 122.81 23.0035 122.656C22.8444 122.5 22.6001 122.384 22.2706 122.307L21.1797 122.051C20.5802 121.909 20.1399 121.689 19.8586 121.391C19.5802 121.089 19.441 120.713 19.441 120.261C19.441 119.892 19.5447 119.565 19.7521 119.281C19.9623 118.997 20.2478 118.774 20.6086 118.612C20.9723 118.45 21.3842 118.369 21.8444 118.369C22.4922 118.369 23.0007 118.511 23.37 118.795C23.7422 119.08 24.0064 119.455 24.1626 119.92ZM29.1708 125V118.455H30.1765V125H29.1708ZM29.6821 117.364C29.4861 117.364 29.3171 117.297 29.175 117.163C29.0358 117.03 28.9662 116.869 28.9662 116.682C28.9662 116.494 29.0358 116.334 29.175 116.2C29.3171 116.067 29.4861 116 29.6821 116C29.8782 116 30.0458 116.067 30.185 116.2C30.327 116.334 30.398 116.494 30.398 116.682C30.398 116.869 30.327 117.03 30.185 117.163C30.0458 117.297 29.8782 117.364 29.6821 117.364ZM36.6548 119.92L35.7514 120.176C35.6946 120.026 35.6108 119.879 35.5 119.737C35.392 119.592 35.2443 119.473 35.0568 119.379C34.8693 119.286 34.6292 119.239 34.3366 119.239C33.936 119.239 33.6022 119.331 33.3352 119.516C33.071 119.697 32.9389 119.929 32.9389 120.21C32.9389 120.46 33.0298 120.658 33.2116 120.803C33.3934 120.947 33.6775 121.068 34.0639 121.165L35.0355 121.403C35.6207 121.545 36.0568 121.763 36.3437 122.055C36.6306 122.345 36.7741 122.719 36.7741 123.176C36.7741 123.551 36.6662 123.886 36.4502 124.182C36.2372 124.477 35.9389 124.71 35.5554 124.881C35.1718 125.051 34.7258 125.136 34.2173 125.136C33.5497 125.136 32.9971 124.991 32.5596 124.702C32.1221 124.412 31.8451 123.989 31.7287 123.432L32.6832 123.193C32.7741 123.545 32.946 123.81 33.1988 123.986C33.4545 124.162 33.7883 124.25 34.2002 124.25C34.669 124.25 35.0412 124.151 35.3167 123.952C35.5951 123.75 35.7343 123.509 35.7343 123.227C35.7343 123 35.6548 122.81 35.4957 122.656C35.3366 122.5 35.0923 122.384 34.7627 122.307L33.6718 122.051C33.0724 121.909 32.6321 121.689 32.3508 121.391C32.0724 121.089 31.9332 120.713 31.9332 120.261C31.9332 119.892 32.0369 119.565 32.2443 119.281C32.4545 118.997 32.74 118.774 33.1008 118.612C33.4645 118.45 33.8764 118.369 34.3366 118.369C34.9843 118.369 35.4929 118.511 35.8622 118.795C36.2343 119.08 36.4985 119.455 36.6548 119.92ZM44.5096 118.455V119.307H41.1175V118.455H44.5096ZM42.1061 116.886H43.1118V123.125C43.1118 123.409 43.153 123.622 43.2354 123.764C43.3206 123.903 43.4286 123.997 43.5593 124.045C43.6928 124.091 43.8334 124.114 43.9811 124.114C44.0919 124.114 44.1828 124.108 44.2539 124.097C44.3249 124.082 44.3817 124.071 44.4243 124.062L44.6289 124.966C44.5607 124.991 44.4655 125.017 44.3434 125.043C44.2212 125.071 44.0664 125.085 43.8789 125.085C43.5948 125.085 43.3164 125.024 43.0436 124.902C42.7738 124.78 42.5493 124.594 42.3703 124.344C42.1942 124.094 42.1061 123.778 42.1061 123.398V116.886ZM47.1686 121.062V125H46.163V116.273H47.1686V119.477H47.2539C47.4073 119.139 47.6374 118.871 47.9442 118.672C48.2539 118.47 48.6658 118.369 49.18 118.369C49.626 118.369 50.0167 118.459 50.3519 118.638C50.6871 118.814 50.9471 119.085 51.1317 119.452C51.3192 119.815 51.413 120.278 51.413 120.841V125H50.4073V120.909C50.4073 120.389 50.2723 119.987 50.0024 119.703C49.7354 119.416 49.3647 119.273 48.8902 119.273C48.5607 119.273 48.2652 119.342 48.0039 119.482C47.7453 119.621 47.5408 119.824 47.3902 120.091C47.2425 120.358 47.1686 120.682 47.1686 121.062ZM55.9971 125.136C55.3664 125.136 54.8224 124.997 54.365 124.719C53.9105 124.438 53.5596 124.045 53.3125 123.543C53.0681 123.037 52.946 122.449 52.946 121.778C52.946 121.108 53.0681 120.517 53.3125 120.006C53.5596 119.491 53.9034 119.091 54.3437 118.804C54.7869 118.514 55.3039 118.369 55.8948 118.369C56.2358 118.369 56.5724 118.426 56.9048 118.54C57.2372 118.653 57.5397 118.838 57.8125 119.094C58.0852 119.347 58.3025 119.682 58.4645 120.099C58.6264 120.517 58.7074 121.031 58.7074 121.642V122.068H53.6619V121.199H57.6846C57.6846 120.83 57.6108 120.5 57.463 120.21C57.3181 119.92 57.1108 119.692 56.8409 119.524C56.5738 119.357 56.2585 119.273 55.8948 119.273C55.4943 119.273 55.1477 119.372 54.8551 119.571C54.5653 119.767 54.3423 120.023 54.186 120.338C54.0298 120.653 53.9517 120.991 53.9517 121.352V121.932C53.9517 122.426 54.0369 122.845 54.2074 123.189C54.3806 123.53 54.6207 123.79 54.9275 123.969C55.2343 124.145 55.5909 124.233 55.9971 124.233C56.2613 124.233 56.5 124.196 56.713 124.122C56.9289 124.045 57.115 123.932 57.2713 123.781C57.4275 123.628 57.5483 123.437 57.6335 123.21L58.6051 123.483C58.5028 123.812 58.3309 124.102 58.0895 124.352C57.848 124.599 57.5497 124.793 57.1946 124.932C56.8395 125.068 56.4403 125.136 55.9971 125.136ZM66.4591 118.455V119.307H63.067V118.455H66.4591ZM64.0557 116.886H65.0613V123.125C65.0613 123.409 65.1025 123.622 65.1849 123.764C65.2702 123.903 65.3781 123.997 65.5088 124.045C65.6423 124.091 65.7829 124.114 65.9307 124.114C66.0415 124.114 66.1324 124.108 66.2034 124.097C66.2744 124.082 66.3312 124.071 66.3738 124.062L66.5784 124.966C66.5102 124.991 66.415 125.017 66.2929 125.043C66.1707 125.071 66.0159 125.085 65.8284 125.085C65.5443 125.085 65.2659 125.024 64.9932 124.902C64.7233 124.78 64.4988 124.594 64.3199 124.344C64.1437 124.094 64.0557 123.778 64.0557 123.398V116.886ZM70.5606 125.136C69.9697 125.136 69.4513 124.996 69.0052 124.714C68.5621 124.433 68.2155 124.04 67.9655 123.534C67.7183 123.028 67.5947 122.437 67.5947 121.761C67.5947 121.08 67.7183 120.484 67.9655 119.976C68.2155 119.467 68.5621 119.072 69.0052 118.791C69.4513 118.51 69.9697 118.369 70.5606 118.369C71.1515 118.369 71.6686 118.51 72.1118 118.791C72.5578 119.072 72.9044 119.467 73.1515 119.976C73.4015 120.484 73.5265 121.08 73.5265 121.761C73.5265 122.437 73.4015 123.028 73.1515 123.534C72.9044 124.04 72.5578 124.433 72.1118 124.714C71.6686 124.996 71.1515 125.136 70.5606 125.136ZM70.5606 124.233C71.0095 124.233 71.3788 124.118 71.6686 123.888C71.9584 123.658 72.1728 123.355 72.3121 122.98C72.4513 122.605 72.5209 122.199 72.5209 121.761C72.5209 121.324 72.4513 120.916 72.3121 120.538C72.1728 120.161 71.9584 119.855 71.6686 119.622C71.3788 119.389 71.0095 119.273 70.5606 119.273C70.1118 119.273 69.7425 119.389 69.4527 119.622C69.1629 119.855 68.9484 120.161 68.8092 120.538C68.67 120.916 68.6004 121.324 68.6004 121.761C68.6004 122.199 68.67 122.605 68.8092 122.98C68.9484 123.355 69.1629 123.658 69.4527 123.888C69.7425 124.118 70.1118 124.233 70.5606 124.233ZM77.9083 118.455V119.307H74.5162V118.455H77.9083ZM75.5049 116.886H76.5106V123.125C76.5106 123.409 76.5518 123.622 76.6341 123.764C76.7194 123.903 76.8273 123.997 76.958 124.045C77.0915 124.091 77.2322 124.114 77.3799 124.114C77.4907 124.114 77.5816 124.108 77.6526 124.097C77.7236 124.082 77.7804 124.071 77.8231 124.062L78.0276 124.966C77.9594 124.991 77.8643 125.017 77.7421 125.043C77.6199 125.071 77.4651 125.085 77.2776 125.085C76.9935 125.085 76.7151 125.024 76.4424 124.902C76.1725 124.78 75.9481 124.594 75.7691 124.344C75.5929 124.094 75.5049 123.778 75.5049 123.398V116.886ZM81.3472 125.153C80.9324 125.153 80.556 125.075 80.2179 124.919C79.8799 124.76 79.6114 124.531 79.4126 124.233C79.2137 123.932 79.1143 123.568 79.1143 123.142C79.1143 122.767 79.1881 122.463 79.3358 122.23C79.4836 121.994 79.681 121.81 79.9282 121.676C80.1753 121.543 80.4481 121.443 80.7464 121.378C81.0475 121.31 81.3501 121.256 81.654 121.216C82.0518 121.165 82.3742 121.126 82.6214 121.101C82.8714 121.072 83.0532 121.026 83.1668 120.96C83.2833 120.895 83.3415 120.781 83.3415 120.619V120.585C83.3415 120.165 83.2265 119.838 82.9964 119.605C82.7691 119.372 82.4239 119.256 81.9608 119.256C81.4807 119.256 81.1043 119.361 80.8316 119.571C80.5589 119.781 80.3671 120.006 80.2563 120.244L79.3018 119.903C79.4722 119.506 79.6995 119.196 79.9836 118.974C80.2705 118.75 80.583 118.594 80.9211 118.506C81.262 118.415 81.5972 118.369 81.9268 118.369C82.137 118.369 82.3785 118.395 82.6512 118.446C82.9268 118.494 83.1924 118.595 83.4481 118.749C83.7066 118.902 83.9211 119.134 84.0915 119.443C84.262 119.753 84.3472 120.168 84.3472 120.688V125H83.3415V124.114H83.2904C83.2222 124.256 83.1086 124.408 82.9495 124.57C82.7904 124.732 82.5787 124.869 82.3145 124.983C82.0503 125.097 81.7279 125.153 81.3472 125.153ZM81.5006 124.25C81.8983 124.25 82.2336 124.172 82.5063 124.016C82.7819 123.859 82.9893 123.658 83.1285 123.411C83.2705 123.163 83.3415 122.903 83.3415 122.631V121.71C83.2989 121.761 83.2052 121.808 83.0603 121.851C82.9182 121.891 82.7535 121.926 82.566 121.957C82.3813 121.986 82.2009 122.011 82.0248 122.034C81.8515 122.054 81.7108 122.071 81.6029 122.085C81.3415 122.119 81.0972 122.175 80.8699 122.251C80.6455 122.325 80.4637 122.437 80.3245 122.588C80.1881 122.736 80.1199 122.937 80.1199 123.193C80.1199 123.543 80.2492 123.807 80.5077 123.986C80.7691 124.162 81.1001 124.25 81.5006 124.25ZM87.1885 116.273V125H86.1828V116.273H87.1885ZM93.4109 121.062V125H92.4054V118.455H93.3769V119.477H93.4619C93.6159 119.145 93.8489 118.878 94.1609 118.676C94.4739 118.472 94.8769 118.369 95.3709 118.369C95.8149 118.369 96.2019 118.46 96.5349 118.642C96.8669 118.821 97.1259 119.094 97.3099 119.46C97.4949 119.824 97.5869 120.284 97.5869 120.841V125H96.5819V120.909C96.5819 120.395 96.4479 119.994 96.1809 119.707C95.9139 119.418 95.5479 119.273 95.0819 119.273C94.7609 119.273 94.4739 119.342 94.2209 119.482C93.9709 119.621 93.7729 119.824 93.6289 120.091C93.4839 120.358 93.4109 120.682 93.4109 121.062ZM102.169 125.136C101.539 125.136 100.995 124.997 100.537 124.719C100.083 124.438 99.7319 124.045 99.4849 123.543C99.2399 123.037 99.1179 122.449 99.1179 121.778C99.1179 121.108 99.2399 120.517 99.4849 120.006C99.7319 119.491 100.076 119.091 100.516 118.804C100.959 118.514 101.476 118.369 102.067 118.369C102.408 118.369 102.745 118.426 103.077 118.54C103.409 118.653 103.712 118.838 103.985 119.094C104.257 119.347 104.475 119.682 104.637 120.099C104.799 120.517 104.88 121.031 104.88 121.642V122.068H99.8339V121.199H103.857C103.857 120.83 103.783 120.5 103.635 120.21C103.49 119.92 103.283 119.692 103.013 119.524C102.746 119.357 102.431 119.273 102.067 119.273C101.667 119.273 101.32 119.372 101.027 119.571C100.738 119.767 100.515 120.023 100.358 120.338C100.202 120.653 100.124 120.991 100.124 121.352V121.932C100.124 122.426 100.209 122.845 100.38 123.189C100.553 123.53 100.793 123.79 101.1 123.969C101.407 124.145 101.763 124.233 102.169 124.233C102.434 124.233 102.672 124.196 102.885 124.122C103.101 124.045 103.287 123.932 103.444 123.781C103.6 123.628 103.721 123.437 103.806 123.21L104.777 123.483C104.675 123.812 104.503 124.102 104.262 124.352C104.02 124.599 103.722 124.793 103.367 124.932C103.012 125.068 102.613 125.136 102.169 125.136ZM107.892 125L105.898 118.455H106.955L108.37 123.466H108.438L109.836 118.455H110.909L112.29 123.449H112.358L113.773 118.455H114.83L112.836 125H111.847L110.415 119.972H110.313L108.881 125H107.892ZM120.796 119.92L119.892 120.176C119.836 120.026 119.752 119.879 119.641 119.737C119.533 119.592 119.385 119.473 119.198 119.379C119.01 119.286 118.77 119.239 118.478 119.239C118.077 119.239 117.743 119.331 117.476 119.516C117.212 119.697 117.08 119.929 117.08 120.21C117.08 120.46 117.171 120.658 117.353 120.803C117.534 120.947 117.819 121.068 118.205 121.165L119.177 121.403C119.762 121.545 120.198 121.763 120.485 122.055C120.772 122.345 120.915 122.719 120.915 123.176C120.915 123.551 120.807 123.886 120.591 124.182C120.378 124.477 120.08 124.71 119.696 124.881C119.313 125.051 118.867 125.136 118.358 125.136C117.691 125.136 117.138 124.991 116.701 124.702C116.263 124.412 115.986 123.989 115.87 123.432L116.824 123.193C116.915 123.545 117.087 123.81 117.34 123.986C117.596 124.162 117.929 124.25 118.341 124.25C118.81 124.25 119.182 124.151 119.458 123.952C119.736 123.75 119.875 123.509 119.875 123.227C119.875 123 119.796 122.81 119.637 122.656C119.478 122.5 119.233 122.384 118.904 122.307L117.813 122.051C117.213 121.909 116.773 121.689 116.492 121.391C116.213 121.089 116.074 120.713 116.074 120.261C116.074 119.892 116.178 119.565 116.385 119.281C116.596 118.997 116.881 118.774 117.242 118.612C117.605 118.45 118.017 118.369 118.478 118.369C119.125 118.369 119.634 118.511 120.003 118.795C120.375 119.08 120.64 119.455 120.796 119.92ZM2.96586 140.136C2.35223 140.136 1.82386 139.991 1.38066 139.702C0.937471 139.412 0.59656 139.013 0.35796 138.504C0.11932 137.996 0 137.415 0 136.761C0 136.097 0.12216 135.51 0.36648 135.001C0.61364 134.49 0.95739 134.091 1.39768 133.804C1.84086 133.514 2.35791 133.369 2.94878 133.369C3.40904 133.369 3.82374 133.455 4.19318 133.625C4.56248 133.795 4.86498 134.034 5.10078 134.341C5.33658 134.648 5.48288 135.006 5.53968 135.415H4.53408C4.45738 135.116 4.28688 134.852 4.02268 134.622C3.76128 134.389 3.40908 134.273 2.96588 134.273C2.57384 134.273 2.23009 134.375 1.93468 134.58C1.64207 134.781 1.41338 135.067 1.2486 135.436C1.08667 135.803 1.00571 136.233 1.00571 136.727C1.00571 137.233 1.08525 137.673 1.24434 138.048C1.40627 138.423 1.63355 138.714 1.92616 138.922C2.22161 139.129 2.56821 139.233 2.96596 139.233C3.22733 139.233 3.46458 139.188 3.67758 139.097C3.89068 139.006 4.07108 138.875 4.21878 138.705C4.36658 138.534 4.47168 138.33 4.53418 138.091H5.53978C5.48298 138.477 5.34238 138.825 5.11798 139.135C4.89638 139.442 4.60228 139.686 4.23588 139.868C3.87218 140.047 3.44876 140.136 2.96586 140.136ZM9.66896 140.136C9.07806 140.136 8.55956 139.996 8.11356 139.714C7.67036 139.433 7.32376 139.04 7.07376 138.534C6.82666 138.028 6.70306 137.437 6.70306 136.761C6.70306 136.08 6.82666 135.484 7.07376 134.976C7.32376 134.467 7.67036 134.072 8.11356 133.791C8.55956 133.51 9.07806 133.369 9.66896 133.369C10.2599 133.369 10.777 133.51 11.2201 133.791C11.6662 134.072 12.0128 134.467 12.2599 134.976C12.5099 135.484 12.6349 136.08 12.6349 136.761C12.6349 137.437 12.5099 138.028 12.2599 138.534C12.0128 139.04 11.6662 139.433 11.2201 139.714C10.777 139.996 10.2599 140.136 9.66896 140.136ZM9.66896 139.233C10.1179 139.233 10.4872 139.118 10.777 138.888C11.0667 138.658 11.2812 138.355 11.4204 137.98C11.5596 137.605 11.6292 137.199 11.6292 136.761C11.6292 136.324 11.5596 135.916 11.4204 135.538C11.2812 135.161 11.0667 134.855 10.777 134.622C10.4872 134.389 10.1179 134.273 9.66896 134.273C9.22006 134.273 8.85076 134.389 8.56106 134.622C8.27126 134.855 8.05676 135.161 7.91756 135.538C7.77836 135.916 7.70876 136.324 7.70876 136.761C7.70876 137.199 7.77836 137.605 7.91756 137.98C8.05676 138.355 8.27126 138.658 8.56106 138.888C8.85076 139.118 9.22006 139.233 9.66896 139.233ZM19.288 133.455L16.8675 140H15.8448L13.4243 133.455H14.5152L16.3221 138.67H16.3902L18.1971 133.455H19.288ZM23.1253 140.136C22.4946 140.136 21.9506 139.997 21.4932 139.719C21.0387 139.438 20.6878 139.045 20.4407 138.543C20.1964 138.037 20.0742 137.449 20.0742 136.778C20.0742 136.108 20.1964 135.517 20.4407 135.006C20.6878 134.491 21.0316 134.091 21.4719 133.804C21.9151 133.514 22.4321 133.369 23.0231 133.369C23.364 133.369 23.7006 133.426 24.033 133.54C24.3654 133.653 24.6679 133.838 24.9407 134.094C25.2134 134.347 25.4307 134.682 25.5927 135.099C25.7546 135.517 25.8356 136.031 25.8356 136.642V137.068H20.7901V136.199H24.8128C24.8128 135.83 24.739 135.5 24.5912 135.21C24.4464 134.92 24.239 134.692 23.9691 134.524C23.702 134.357 23.3867 134.273 23.0231 134.273C22.6225 134.273 22.2759 134.372 21.9833 134.571C21.6935 134.767 21.4705 135.023 21.3142 135.338C21.158 135.653 21.0799 135.991 21.0799 136.352V136.932C21.0799 137.426 21.1651 137.845 21.3356 138.189C21.5089 138.53 21.7489 138.79 22.0557 138.969C22.3625 139.145 22.7191 139.233 23.1253 139.233C23.3895 139.233 23.6282 139.196 23.8412 139.122C24.0571 139.045 24.2432 138.932 24.3995 138.781C24.5557 138.628 24.6765 138.437 24.7617 138.21L25.7333 138.483C25.631 138.812 25.4591 139.102 25.2177 139.352C24.9762 139.599 24.6779 139.793 24.3228 139.932C23.9677 140.068 23.5685 140.136 23.1253 140.136ZM27.3654 140V133.455H28.337V134.443H28.4052C28.5245 134.119 28.7404 133.857 29.0529 133.655C29.3654 133.453 29.7177 133.352 30.1097 133.352C30.1836 133.352 30.2759 133.354 30.3867 133.357C30.4975 133.359 30.5813 133.364 30.6381 133.369V134.392C30.604 134.384 30.5259 134.371 30.4037 134.354C30.2844 134.334 30.158 134.324 30.0245 134.324C29.7063 134.324 29.4222 134.391 29.1722 134.524C28.925 134.655 28.729 134.837 28.5841 135.07C28.4421 135.3 28.3711 135.562 28.3711 135.858V140H27.3654ZM33.7564 140.153C33.3416 140.153 32.9652 140.075 32.6271 139.919C32.289 139.76 32.0206 139.531 31.8217 139.233C31.6228 138.932 31.5234 138.568 31.5234 138.142C31.5234 137.767 31.5973 137.463 31.745 137.23C31.8927 136.994 32.0902 136.81 32.3373 136.676C32.5845 136.543 32.8572 136.443 33.1555 136.378C33.4567 136.31 33.7592 136.256 34.0632 136.216C34.4609 136.165 34.7834 136.126 35.0305 136.101C35.2805 136.072 35.4623 136.026 35.576 135.96C35.6924 135.895 35.7507 135.781 35.7507 135.619V135.585C35.7507 135.165 35.6356 134.838 35.4055 134.605C35.1782 134.372 34.8331 134.256 34.37 134.256C33.8899 134.256 33.5135 134.361 33.2407 134.571C32.968 134.781 32.7763 135.006 32.6655 135.244L31.7109 134.903C31.8814 134.506 32.1086 134.196 32.3927 133.974C32.6797 133.75 32.9922 133.594 33.3302 133.506C33.6711 133.415 34.0064 133.369 34.3359 133.369C34.5461 133.369 34.7876 133.395 35.0603 133.446C35.3359 133.494 35.6015 133.595 35.8572 133.749C36.1157 133.902 36.3302 134.134 36.5007 134.443C36.6711 134.753 36.7564 135.168 36.7564 135.688V140H35.7507V139.114H35.6995C35.6314 139.256 35.5177 139.408 35.3586 139.57C35.1995 139.732 34.9879 139.869 34.7237 139.983C34.4595 140.097 34.137 140.153 33.7564 140.153ZM33.9098 139.25C34.3075 139.25 34.6427 139.172 34.9155 139.016C35.191 138.859 35.3984 138.658 35.5376 138.411C35.6797 138.163 35.7507 137.903 35.7507 137.631V136.71C35.7081 136.761 35.6143 136.808 35.4694 136.851C35.3274 136.891 35.1626 136.926 34.9751 136.957C34.7905 136.986 34.6101 137.011 34.4339 137.034C34.2606 137.054 34.12 137.071 34.012 137.085C33.7507 137.119 33.5064 137.175 33.2791 137.251C33.0547 137.325 32.8728 137.437 32.7336 137.588C32.5973 137.736 32.5291 137.937 32.5291 138.193C32.5291 138.543 32.6584 138.807 32.9169 138.986C33.1782 139.162 33.5092 139.25 33.9098 139.25ZM41.234 142.591C40.7482 142.591 40.3306 142.528 39.9812 142.403C39.6317 142.281 39.3405 142.119 39.1076 141.918C38.8775 141.719 38.6942 141.506 38.5579 141.278L39.359 140.716C39.4499 140.835 39.565 140.972 39.7042 141.125C39.8434 141.281 40.0337 141.416 40.2752 141.53C40.5195 141.646 40.8391 141.705 41.234 141.705C41.7624 141.705 42.1985 141.577 42.5422 141.321C42.886 141.065 43.0579 140.665 43.0579 140.119V138.79H42.9726C42.8988 138.909 42.7937 139.057 42.6573 139.233C42.5238 139.406 42.3306 139.561 42.0777 139.697C41.8277 139.831 41.4897 139.898 41.0635 139.898C40.5351 139.898 40.0607 139.773 39.6402 139.523C39.2226 139.273 38.8917 138.909 38.6473 138.432C38.4059 137.955 38.2851 137.375 38.2851 136.693C38.2851 136.023 38.403 135.439 38.6388 134.942C38.8746 134.442 39.2027 134.055 39.6232 133.783C40.0437 133.507 40.5294 133.369 41.0806 133.369C41.5067 133.369 41.8448 133.44 42.0948 133.582C42.3476 133.722 42.5408 133.881 42.6743 134.06C42.8107 134.236 42.9158 134.381 42.9897 134.494H43.0919V133.455H44.0635V140.188C44.0635 140.75 43.9357 141.207 43.68 141.56C43.4272 141.915 43.0863 142.175 42.6573 142.339C42.2312 142.507 41.7567 142.591 41.234 142.591ZM41.1999 138.994C41.6033 138.994 41.9442 138.902 42.2226 138.717C42.501 138.533 42.7127 138.267 42.8576 137.92C43.0025 137.574 43.0749 137.159 43.0749 136.676C43.0749 136.205 43.0039 135.788 42.8618 135.428C42.7198 135.067 42.5096 134.784 42.2312 134.58C41.9527 134.375 41.609 134.273 41.1999 134.273C40.7738 134.273 40.4187 134.381 40.1346 134.597C39.8533 134.812 39.6417 135.102 39.4996 135.466C39.3604 135.83 39.2908 136.233 39.2908 136.676C39.2908 137.131 39.3618 137.533 39.5039 137.882C39.6488 138.229 39.8618 138.501 40.1431 138.7C40.4272 138.896 40.7794 138.994 41.1999 138.994ZM48.6488 140.136C48.0181 140.136 47.4741 139.997 47.0167 139.719C46.5621 139.438 46.2113 139.045 45.9641 138.543C45.7198 138.037 45.5976 137.449 45.5976 136.778C45.5976 136.108 45.7198 135.517 45.9641 135.006C46.2113 134.491 46.555 134.091 46.9954 133.804C47.4385 133.514 47.9556 133.369 48.5465 133.369C48.8874 133.369 49.2241 133.426 49.5564 133.54C49.8888 133.653 50.1914 133.838 50.4641 134.094C50.7368 134.347 50.9542 134.682 51.1161 135.099C51.278 135.517 51.359 136.031 51.359 136.642V137.068H46.3135V136.199H50.3363C50.3363 135.83 50.2624 135.5 50.1147 135.21C49.9698 134.92 49.7624 134.692 49.4925 134.524C49.2255 134.357 48.9101 134.273 48.5465 134.273C48.1459 134.273 47.7993 134.372 47.5067 134.571C47.2169 134.767 46.9939 135.023 46.8377 135.338C46.6814 135.653 46.6033 135.991 46.6033 136.352V136.932C46.6033 137.426 46.6885 137.845 46.859 138.189C47.0323 138.53 47.2723 138.79 47.5792 138.969C47.886 139.145 48.2425 139.233 48.6488 139.233C48.913 139.233 49.1516 139.196 49.3647 139.122C49.5806 139.045 49.7667 138.932 49.9229 138.781C50.0792 138.628 50.1999 138.437 50.2851 138.21L51.2567 138.483C51.1544 138.812 50.9826 139.102 50.7411 139.352C50.4996 139.599 50.2013 139.793 49.8462 139.932C49.4911 140.068 49.0919 140.136 48.6488 140.136ZM59.1108 133.455V134.307H55.7188V133.455H59.1108ZM56.7074 131.886H57.7131V138.125C57.7131 138.409 57.7543 138.622 57.8367 138.764C57.9219 138.903 58.0298 138.997 58.1605 139.045C58.2941 139.091 58.4347 139.114 58.5824 139.114C58.6932 139.114 58.7841 139.108 58.8551 139.097C58.9262 139.082 58.983 139.071 59.0256 139.062L59.2301 139.966C59.162 139.991 59.0668 140.017 58.9446 140.043C58.8225 140.071 58.6676 140.085 58.4801 140.085C58.196 140.085 57.9176 140.024 57.6449 139.902C57.375 139.78 57.1506 139.594 56.9716 139.344C56.7955 139.094 56.7074 138.778 56.7074 138.398V131.886ZM62.5497 140.153C62.135 140.153 61.7585 140.075 61.4205 139.919C61.0824 139.76 60.8139 139.531 60.6151 139.233C60.4162 138.932 60.3168 138.568 60.3168 138.142C60.3168 137.767 60.3906 137.463 60.5384 137.23C60.6861 136.994 60.8835 136.81 61.1307 136.676C61.3779 136.543 61.6506 136.443 61.9489 136.378C62.25 136.31 62.5526 136.256 62.8566 136.216C63.2543 136.165 63.5767 136.126 63.8239 136.101C64.0739 136.072 64.2557 136.026 64.3693 135.96C64.4858 135.895 64.5441 135.781 64.5441 135.619V135.585C64.5441 135.165 64.429 134.838 64.1989 134.605C63.9716 134.372 63.6264 134.256 63.1634 134.256C62.6833 134.256 62.3068 134.361 62.0341 134.571C61.7614 134.781 61.5696 135.006 61.4588 135.244L60.5043 134.903C60.6747 134.506 60.902 134.196 61.1861 133.974C61.473 133.75 61.7855 133.594 62.1236 133.506C62.4645 133.415 62.7997 133.369 63.1293 133.369C63.3395 133.369 63.581 133.395 63.8537 133.446C64.1293 133.494 64.3949 133.595 64.6506 133.749C64.9091 133.902 65.1236 134.134 65.2941 134.443C65.4645 134.753 65.5497 135.168 65.5497 135.688V140H64.5441V139.114H64.4929C64.4247 139.256 64.3111 139.408 64.152 139.57C63.9929 139.732 63.7813 139.869 63.5171 139.983C63.2529 140.097 62.9304 140.153 62.5497 140.153ZM62.7031 139.25C63.1009 139.25 63.4361 139.172 63.7088 139.016C63.9844 138.859 64.1918 138.658 64.331 138.411C64.473 138.163 64.5441 137.903 64.5441 137.631V136.71C64.5014 136.761 64.4077 136.808 64.2628 136.851C64.1208 136.891 63.956 136.926 63.7685 136.957C63.5838 136.986 63.4034 137.011 63.2273 137.034C63.054 137.054 62.9134 137.071 62.8054 137.085C62.5441 137.119 62.2997 137.175 62.0725 137.251C61.848 137.325 61.6662 137.437 61.527 137.588C61.3906 137.736 61.3225 137.937 61.3225 138.193C61.3225 138.543 61.4517 138.807 61.7102 138.986C61.9716 139.162 62.3026 139.25 62.7031 139.25ZM70.0274 142.591C69.5416 142.591 69.124 142.528 68.7745 142.403C68.4251 142.281 68.1339 142.119 67.9009 141.918C67.6708 141.719 67.4876 141.506 67.3512 141.278L68.1524 140.716C68.2433 140.835 68.3583 140.972 68.4975 141.125C68.6367 141.281 68.8271 141.416 69.0686 141.53C69.3129 141.646 69.6325 141.705 70.0274 141.705C70.5558 141.705 70.9919 141.577 71.3356 141.321C71.6794 141.065 71.8512 140.665 71.8512 140.119V138.79H71.766C71.6921 138.909 71.587 139.057 71.4507 139.233C71.3171 139.406 71.124 139.561 70.8711 139.697C70.6211 139.831 70.283 139.898 69.8569 139.898C69.3285 139.898 68.8541 139.773 68.4336 139.523C68.016 139.273 67.685 138.909 67.4407 138.432C67.1992 137.955 67.0785 137.375 67.0785 136.693C67.0785 136.023 67.1964 135.439 67.4322 134.942C67.668 134.442 67.9961 134.055 68.4166 133.783C68.837 133.507 69.3228 133.369 69.874 133.369C70.3001 133.369 70.6382 133.44 70.8882 133.582C71.141 133.722 71.3342 133.881 71.4677 134.06C71.6041 134.236 71.7092 134.381 71.783 134.494H71.8853V133.455H72.8569V140.188C72.8569 140.75 72.7291 141.207 72.4734 141.56C72.2205 141.915 71.8796 142.175 71.4507 142.339C71.0245 142.507 70.5501 142.591 70.0274 142.591ZM69.9933 138.994C70.3967 138.994 70.7376 138.902 71.016 138.717C71.2944 138.533 71.5061 138.267 71.6509 137.92C71.7958 137.574 71.8683 137.159 71.8683 136.676C71.8683 136.205 71.7972 135.788 71.6552 135.428C71.5132 135.067 71.3029 134.784 71.0245 134.58C70.7461 134.375 70.4024 134.273 69.9933 134.273C69.5671 134.273 69.212 134.381 68.9279 134.597C68.6467 134.812 68.435 135.102 68.293 135.466C68.1538 135.83 68.0842 136.233 68.0842 136.676C68.0842 137.131 68.1552 137.533 68.2972 137.882C68.4421 138.229 68.6552 138.501 68.9365 138.7C69.2205 138.896 69.5728 138.994 69.9933 138.994ZM77.3399 142.591C76.8541 142.591 76.4365 142.528 76.087 142.403C75.7376 142.281 75.4464 142.119 75.2134 141.918C74.9833 141.719 74.8001 141.506 74.6637 141.278L75.4649 140.716C75.5558 140.835 75.6708 140.972 75.81 141.125C75.9492 141.281 76.1396 141.416 76.3811 141.53C76.6254 141.646 76.945 141.705 77.3399 141.705C77.8683 141.705 78.3044 141.577 78.6481 141.321C78.9919 141.065 79.1637 140.665 79.1637 140.119V138.79H79.0785C79.0046 138.909 78.8995 139.057 78.7632 139.233C78.6296 139.406 78.4365 139.561 78.1836 139.697C77.9336 139.831 77.5955 139.898 77.1694 139.898C76.641 139.898 76.1666 139.773 75.7461 139.523C75.3285 139.273 74.9975 138.909 74.7532 138.432C74.5117 137.955 74.391 137.375 74.391 136.693C74.391 136.023 74.5089 135.439 74.7447 134.942C74.9805 134.442 75.3086 134.055 75.7291 133.783C76.1495 133.507 76.6353 133.369 77.1865 133.369C77.6126 133.369 77.9507 133.44 78.2007 133.582C78.4535 133.722 78.6467 133.881 78.7802 134.06C78.9166 134.236 79.0217 134.381 79.0955 134.494H79.1978V133.455H80.1694V140.188C80.1694 140.75 80.0416 141.207 79.7859 141.56C79.533 141.915 79.1921 142.175 78.7632 142.339C78.337 142.507 77.8626 142.591 77.3399 142.591ZM77.3058 138.994C77.7092 138.994 78.0501 138.902 78.3285 138.717C78.6069 138.533 78.8186 138.267 78.9634 137.92C79.1083 137.574 79.1808 137.159 79.1808 136.676C79.1808 136.205 79.1097 135.788 78.9677 135.428C78.8257 135.067 78.6154 134.784 78.337 134.58C78.0586 134.375 77.7149 134.273 77.3058 134.273C76.8796 134.273 76.5245 134.381 76.2404 134.597C75.9592 134.812 75.7475 135.102 75.6055 135.466C75.4663 135.83 75.3967 136.233 75.3967 136.676C75.3967 137.131 75.4677 137.533 75.6097 137.882C75.7546 138.229 75.9677 138.501 76.249 138.7C76.533 138.896 76.8853 138.994 77.3058 138.994ZM84.7546 140.136C84.124 140.136 83.5799 139.997 83.1225 139.719C82.668 139.438 82.3171 139.045 82.07 138.543C81.8257 138.037 81.7035 137.449 81.7035 136.778C81.7035 136.108 81.8257 135.517 82.07 135.006C82.3171 134.491 82.6609 134.091 83.1012 133.804C83.5444 133.514 84.0615 133.369 84.6524 133.369C84.9933 133.369 85.3299 133.426 85.6623 133.54C85.9947 133.653 86.2972 133.838 86.57 134.094C86.8427 134.347 87.06 134.682 87.222 135.099C87.3839 135.517 87.4649 136.031 87.4649 136.642V137.068H82.4194V136.199H86.4421C86.4421 135.83 86.3683 135.5 86.2205 135.21C86.0757 134.92 85.8683 134.692 85.5984 134.524C85.3313 134.357 85.016 134.273 84.6524 134.273C84.2518 134.273 83.9052 134.372 83.6126 134.571C83.3228 134.767 83.0998 135.023 82.9436 135.338C82.7873 135.653 82.7092 135.991 82.7092 136.352V136.932C82.7092 137.426 82.7944 137.845 82.9649 138.189C83.1382 138.53 83.3782 138.79 83.685 138.969C83.9919 139.145 84.3484 139.233 84.7546 139.233C85.0188 139.233 85.2575 139.196 85.4705 139.122C85.6865 139.045 85.8725 138.932 86.0288 138.781C86.185 138.628 86.3058 138.437 86.391 138.21L87.3626 138.483C87.2603 138.812 87.0884 139.102 86.847 139.352C86.6055 139.599 86.3072 139.793 85.9521 139.932C85.597 140.068 85.1978 140.136 84.7546 140.136ZM91.4663 140.136C90.9208 140.136 90.4393 139.999 90.0217 139.723C89.6041 139.445 89.2774 139.053 89.0416 138.547C88.8058 138.038 88.6879 137.438 88.6879 136.744C88.6879 136.057 88.8058 135.46 89.0416 134.955C89.2774 134.449 89.6055 134.058 90.0259 133.783C90.4464 133.507 90.9322 133.369 91.4833 133.369C91.9095 133.369 92.2461 133.44 92.4933 133.582C92.7433 133.722 92.9336 133.881 93.0643 134.06C93.1978 134.236 93.3013 134.381 93.3753 134.494H93.4603V131.273H94.4663V140H93.4943V138.994H93.3753C93.3013 139.114 93.1964 139.264 93.06 139.446C92.9237 139.625 92.7291 139.786 92.4762 139.928C92.2234 140.067 91.8867 140.136 91.4663 140.136ZM91.6026 139.233C92.0061 139.233 92.347 139.128 92.6254 138.918C92.9038 138.705 93.1154 138.411 93.2603 138.036C93.4053 137.658 93.4773 137.222 93.4773 136.727C93.4773 136.239 93.4063 135.811 93.2643 135.445C93.1225 135.075 92.9123 134.788 92.6339 134.584C92.3555 134.376 92.0117 134.273 91.6026 134.273C91.1765 134.273 90.8214 134.382 90.5373 134.601C90.2561 134.817 90.0444 135.111 89.9024 135.483C89.7632 135.852 89.6936 136.267 89.6936 136.727C89.6936 137.193 89.7646 137.616 89.9066 137.997C90.0515 138.375 90.2646 138.676 90.5458 138.901C90.8299 139.122 91.1822 139.233 91.6026 139.233ZM101.305 140L99.3113 133.455H100.368L101.783 138.466H101.851L103.249 133.455H104.323L105.703 138.449H105.771L107.186 133.455H108.243L106.249 140H105.26L103.828 134.972H103.726L102.294 140H101.305ZM109.573 140V133.455H110.578V140H109.573ZM110.084 132.364C109.888 132.364 109.719 132.297 109.577 132.163C109.438 132.03 109.368 131.869 109.368 131.682C109.368 131.494 109.438 131.334 109.577 131.2C109.719 131.067 109.888 131 110.084 131C110.28 131 110.448 131.067 110.587 131.2C110.729 131.334 110.8 131.494 110.8 131.682C110.8 131.869 110.729 132.03 110.587 132.163C110.448 132.297 110.28 132.364 110.084 132.364ZM115.267 133.455V134.307H111.875V133.455H115.267ZM112.863 131.886H113.869V138.125C113.869 138.409 113.91 138.622 113.993 138.764C114.078 138.903 114.186 138.997 114.316 139.045C114.45 139.091 114.591 139.114 114.738 139.114C114.849 139.114 114.94 139.108 115.011 139.097C115.082 139.082 115.139 139.071 115.182 139.062L115.386 139.966C115.318 139.991 115.223 140.017 115.101 140.043C114.978 140.071 114.824 140.085 114.636 140.085C114.352 140.085 114.074 140.024 113.801 139.902C113.531 139.78 113.307 139.594 113.128 139.344C112.951 139.094 112.863 138.778 112.863 138.398V131.886ZM117.926 136.062V140H116.92V131.273H117.926V134.477H118.011C118.164 134.139 118.395 133.871 118.701 133.672C119.011 133.47 119.423 133.369 119.937 133.369C120.383 133.369 120.774 133.459 121.109 133.638C121.444 133.814 121.704 134.085 121.889 134.452C122.076 134.815 122.17 135.278 122.17 135.841V140H121.164V135.909C121.164 135.389 121.03 134.987 120.76 134.703C120.493 134.416 120.122 134.273 119.647 134.273C119.318 134.273 119.022 134.342 118.761 134.482C118.503 134.621 118.298 134.824 118.147 135.091C118 135.358 117.926 135.682 117.926 136.062ZM3.34626 157.591C2.86048 157.591 2.44287 157.528 2.09346 157.403C1.74403 157.281 1.45284 157.119 1.21989 156.918C0.98977 156.719 0.80653 156.506 0.67017 156.278L1.47131 155.716C1.56221 155.835 1.67727 155.972 1.81648 156.125C1.95568 156.281 2.14602 156.416 2.3875 156.53C2.63182 156.646 2.95142 156.705 3.34629 156.705C3.87469 156.705 4.31079 156.577 4.65459 156.321C4.99829 156.065 5.17019 155.665 5.17019 155.119V153.79H5.08499C5.01109 153.909 4.90599 154.057 4.76959 154.233C4.63609 154.406 4.44289 154.561 4.19009 154.697C3.94009 154.831 3.60199 154.898 3.17589 154.898C2.64748 154.898 2.17309 154.773 1.75259 154.523C1.33497 154.273 1.00401 153.909 0.75969 153.432C0.51821 152.955 0.39747 152.375 0.39747 151.693C0.39747 151.023 0.51537 150.439 0.75117 149.942C0.98696 149.442 1.31509 149.055 1.73554 148.783C2.15599 148.507 2.64179 148.369 3.19294 148.369C3.61903 148.369 3.95713 148.44 4.20714 148.582C4.46004 148.722 4.65314 148.881 4.78674 149.06C4.92304 149.236 5.02814 149.381 5.10204 149.494H5.20434V148.455H6.17594V155.188C6.17594 155.75 6.04804 156.207 5.79234 156.56C5.53954 156.915 5.19864 157.175 4.76964 157.339C4.34354 157.507 3.86896 157.591 3.34626 157.591ZM3.31216 153.994C3.71556 153.994 4.05646 153.902 4.33496 153.717C4.61336 153.533 4.82496 153.267 4.96986 152.92C5.11476 152.574 5.18716 152.159 5.18716 151.676C5.18716 151.205 5.11616 150.788 4.97416 150.428C4.83206 150.067 4.62186 149.784 4.34346 149.58C4.06506 149.375 3.72126 149.273 3.31216 149.273C2.88605 149.273 2.53093 149.381 2.24686 149.597C1.96561 149.812 1.75397 150.102 1.61192 150.466C1.47272 150.83 1.40311 151.233 1.40311 151.676C1.40311 152.131 1.47414 152.533 1.61618 152.882C1.76107 153.229 1.97414 153.501 2.25539 153.7C2.53948 153.896 2.89172 153.994 3.31216 153.994ZM10.7611 155.136C10.1304 155.136 9.58636 154.997 9.12896 154.719C8.67436 154.438 8.32356 154.045 8.07636 153.543C7.83206 153.037 7.70996 152.449 7.70996 151.778C7.70996 151.108 7.83206 150.517 8.07636 150.006C8.32356 149.491 8.66726 149.091 9.10766 148.804C9.55086 148.514 10.0679 148.369 10.6588 148.369C10.9997 148.369 11.3364 148.426 11.6688 148.54C12.0011 148.653 12.3037 148.838 12.5764 149.094C12.8492 149.347 13.0665 149.682 13.2284 150.099C13.3903 150.517 13.4713 151.031 13.4713 151.642V152.068H8.42586V151.199H12.4486C12.4486 150.83 12.3747 150.5 12.227 150.21C12.0821 149.92 11.8747 149.692 11.6048 149.524C11.3378 149.357 11.0225 149.273 10.6588 149.273C10.2582 149.273 9.91166 149.372 9.61896 149.571C9.32926 149.767 9.10626 150.023 8.94996 150.338C8.79376 150.653 8.71556 150.991 8.71556 151.352V151.932C8.71556 152.426 8.80086 152.845 8.97126 153.189C9.14456 153.53 9.38466 153.79 9.69146 153.969C9.99826 154.145 10.3548 154.233 10.7611 154.233C11.0253 154.233 11.2639 154.196 11.477 154.122C11.6929 154.045 11.879 153.932 12.0352 153.781C12.1915 153.628 12.3122 153.437 12.3975 153.21L13.369 153.483C13.2668 153.812 13.0949 154.102 12.8534 154.352C12.6119 154.599 12.3136 154.793 11.9585 154.932C11.6034 155.068 11.2043 155.136 10.7611 155.136ZM17.6602 155.136C17.0693 155.136 16.5509 154.996 16.1048 154.714C15.6617 154.433 15.3151 154.04 15.0651 153.534C14.8179 153.028 14.6943 152.437 14.6943 151.761C14.6943 151.08 14.8179 150.484 15.0651 149.976C15.3151 149.467 15.6617 149.072 16.1048 148.791C16.5509 148.51 17.0693 148.369 17.6602 148.369C18.2511 148.369 18.7682 148.51 19.2114 148.791C19.6574 149.072 20.004 149.467 20.2511 149.976C20.5011 150.484 20.6261 151.08 20.6261 151.761C20.6261 152.437 20.5011 153.028 20.2511 153.534C20.004 154.04 19.6574 154.433 19.2114 154.714C18.7682 154.996 18.2511 155.136 17.6602 155.136ZM17.6602 154.233C18.1091 154.233 18.4784 154.118 18.7682 153.888C19.058 153.658 19.2725 153.355 19.4117 152.98C19.5509 152.605 19.6205 152.199 19.6205 151.761C19.6205 151.324 19.5509 150.916 19.4117 150.538C19.2725 150.161 19.058 149.855 18.7682 149.622C18.4784 149.389 18.1091 149.273 17.6602 149.273C17.2114 149.273 16.8421 149.389 16.5523 149.622C16.2625 149.855 16.048 150.161 15.9088 150.538C15.7696 150.916 15.7 151.324 15.7 151.761C15.7 152.199 15.7696 152.605 15.9088 152.98C16.048 153.355 16.2625 153.658 16.5523 153.888C16.8421 154.118 17.2114 154.233 17.6602 154.233ZM22.1613 157.455V148.455H23.1329V149.494H23.2522C23.3261 149.381 23.4283 149.236 23.559 149.06C23.6926 148.881 23.8829 148.722 24.1301 148.582C24.3801 148.44 24.7181 148.369 25.1443 148.369C25.6954 148.369 26.1812 148.507 26.6016 148.783C27.0221 149.058 27.3502 149.449 27.586 149.955C27.8218 150.46 27.9397 151.057 27.9397 151.744C27.9397 152.438 27.8218 153.038 27.586 153.547C27.3502 154.053 27.0235 154.445 26.6059 154.723C26.1883 154.999 25.7068 155.136 25.1613 155.136C24.7408 155.136 24.4042 155.067 24.1514 154.928C23.8985 154.786 23.7039 154.625 23.5676 154.446C23.4312 154.264 23.3261 154.114 23.2522 153.994H23.167V157.455H22.1613ZM23.1499 151.727C23.1499 152.222 23.2224 152.658 23.3673 153.036C23.5122 153.411 23.7238 153.705 24.0022 153.918C24.2806 154.128 24.6215 154.233 25.0249 154.233C25.4454 154.233 25.7962 154.122 26.0775 153.901C26.3616 153.676 26.5747 153.375 26.7167 152.997C26.8616 152.616 26.934 152.193 26.934 151.727C26.934 151.267 26.863 150.852 26.721 150.483C26.5818 150.111 26.3701 149.817 26.086 149.601C25.8048 149.382 25.4511 149.273 25.0249 149.273C24.6158 149.273 24.2721 149.376 23.9937 149.584C23.7153 149.788 23.5051 150.075 23.363 150.445C23.221 150.811 23.1499 151.239 23.1499 151.727ZM32.1329 155.136C31.542 155.136 31.0235 154.996 30.5775 154.714C30.1343 154.433 29.7877 154.04 29.5377 153.534C29.2906 153.028 29.167 152.437 29.167 151.761C29.167 151.08 29.2906 150.484 29.5377 149.976C29.7877 149.467 30.1343 149.072 30.5775 148.791C31.0235 148.51 31.542 148.369 32.1329 148.369C32.7238 148.369 33.2408 148.51 33.684 148.791C34.1301 149.072 34.4766 149.467 34.7238 149.976C34.9738 150.484 35.0988 151.08 35.0988 151.761C35.0988 152.437 34.9738 153.028 34.7238 153.534C34.4766 154.04 34.1301 154.433 33.684 154.714C33.2408 154.996 32.7238 155.136 32.1329 155.136ZM32.1329 154.233C32.5818 154.233 32.9511 154.118 33.2408 153.888C33.5306 153.658 33.7451 153.355 33.8843 152.98C34.0235 152.605 34.0931 152.199 34.0931 151.761C34.0931 151.324 34.0235 150.916 33.8843 150.538C33.7451 150.161 33.5306 149.855 33.2408 149.622C32.9511 149.389 32.5818 149.273 32.1329 149.273C31.684 149.273 31.3147 149.389 31.0249 149.622C30.7352 149.855 30.5207 150.161 30.3815 150.538C30.2423 150.916 30.1727 151.324 30.1727 151.761C30.1727 152.199 30.2423 152.605 30.3815 152.98C30.5207 153.355 30.7352 153.658 31.0249 153.888C31.3147 154.118 31.684 154.233 32.1329 154.233ZM37.6396 146.273V155H36.634V146.273H37.6396ZM39.4816 155V148.455H40.4873V155H39.4816ZM39.993 147.364C39.797 147.364 39.6279 147.297 39.4859 147.163C39.3467 147.03 39.2771 146.869 39.2771 146.682C39.2771 146.494 39.3467 146.334 39.4859 146.2C39.6279 146.067 39.797 146 39.993 146C40.189 146 40.3566 146.067 40.4958 146.2C40.6379 146.334 40.7089 146.494 40.7089 146.682C40.7089 146.869 40.6379 147.03 40.4958 147.163C40.3566 147.297 40.189 147.364 39.993 147.364ZM45.1759 148.455V149.307H41.7838V148.455H45.1759ZM42.7725 146.886H43.7781V153.125C43.7781 153.409 43.8193 153.622 43.9017 153.764C43.9869 153.903 44.0949 153.997 44.2256 154.045C44.3591 154.091 44.4997 154.114 44.6475 154.114C44.7582 154.114 44.8492 154.108 44.9202 154.097C44.9912 154.082 45.048 154.071 45.0906 154.062L45.2952 154.966C45.227 154.991 45.1318 155.017 45.0097 155.043C44.8875 155.071 44.7327 155.085 44.5452 155.085C44.2611 155.085 43.9827 155.024 43.71 154.902C43.4401 154.78 43.2156 154.594 43.0367 154.344C42.8605 154.094 42.7725 153.778 42.7725 153.398V146.886ZM46.6886 155V148.455H47.6943V155H46.6886ZM47.2 147.364C47.004 147.364 46.835 147.297 46.6929 147.163C46.5537 147.03 46.4841 146.869 46.4841 146.682C46.4841 146.494 46.5537 146.334 46.6929 146.2C46.835 146.067 47.004 146 47.2 146C47.396 146 47.5636 146.067 47.7028 146.2C47.8449 146.334 47.9159 146.494 47.9159 146.682C47.9159 146.869 47.8449 147.03 47.7028 147.163C47.5636 147.297 47.396 147.364 47.2 147.364ZM52.1954 155.136C51.5818 155.136 51.0533 154.991 50.6102 154.702C50.167 154.412 49.8261 154.013 49.5874 153.504C49.3488 152.996 49.2295 152.415 49.2295 151.761C49.2295 151.097 49.3516 150.51 49.596 150.001C49.8431 149.49 50.1869 149.091 50.6272 148.804C51.0704 148.514 51.5874 148.369 52.1783 148.369C52.6386 148.369 53.0533 148.455 53.4227 148.625C53.792 148.795 54.0945 149.034 54.3303 149.341C54.5661 149.648 54.7124 150.006 54.7693 150.415H53.7636C53.6869 150.116 53.5164 149.852 53.2522 149.622C52.9908 149.389 52.6386 149.273 52.1954 149.273C51.8033 149.273 51.4596 149.375 51.1641 149.58C50.8715 149.781 50.6428 150.067 50.4781 150.436C50.3161 150.803 50.2352 151.233 50.2352 151.727C50.2352 152.233 50.3147 152.673 50.4738 153.048C50.6357 153.423 50.863 153.714 51.1556 153.922C51.4511 154.129 51.7977 154.233 52.1954 154.233C52.4568 154.233 52.694 154.188 52.907 154.097C53.1201 154.006 53.3005 153.875 53.4482 153.705C53.596 153.534 53.7011 153.33 53.7636 153.091H54.7693C54.7124 153.477 54.5718 153.825 54.3474 154.135C54.1258 154.442 53.8318 154.686 53.4653 154.868C53.1016 155.047 52.6783 155.136 52.1954 155.136ZM58.1656 155.153C57.7508 155.153 57.3744 155.075 57.0363 154.919C56.6982 154.76 56.4298 154.531 56.2309 154.233C56.032 153.932 55.9326 153.568 55.9326 153.142C55.9326 152.767 56.0065 152.463 56.1542 152.23C56.3019 151.994 56.4994 151.81 56.7465 151.676C56.9937 151.543 57.2664 151.443 57.5647 151.378C57.8658 151.31 58.1684 151.256 58.4724 151.216C58.8701 151.165 59.1926 151.126 59.4397 151.101C59.6897 151.072 59.8715 151.026 59.9852 150.96C60.1016 150.895 60.1599 150.781 60.1599 150.619V150.585C60.1599 150.165 60.0448 149.838 59.8147 149.605C59.5874 149.372 59.2423 149.256 58.7792 149.256C58.2991 149.256 57.9227 149.361 57.6499 149.571C57.3772 149.781 57.1854 150.006 57.0747 150.244L56.1201 149.903C56.2906 149.506 56.5178 149.196 56.8019 148.974C57.0889 148.75 57.4014 148.594 57.7394 148.506C58.0803 148.415 58.4156 148.369 58.7451 148.369C58.9553 148.369 59.1968 148.395 59.4695 148.446C59.7451 148.494 60.0107 148.595 60.2664 148.749C60.5249 148.902 60.7394 149.134 60.9099 149.443C61.0803 149.753 61.1656 150.168 61.1656 150.688V155H60.1599V154.114H60.1087C60.0406 154.256 59.9269 154.408 59.7678 154.57C59.6087 154.732 59.3971 154.869 59.1329 154.983C58.8687 155.097 58.5462 155.153 58.1656 155.153ZM58.319 154.25C58.7167 154.25 59.0519 154.172 59.3247 154.016C59.6002 153.859 59.8076 153.658 59.9468 153.411C60.0889 153.163 60.1599 152.903 60.1599 152.631V151.71C60.1173 151.761 60.0235 151.808 59.8786 151.851C59.7366 151.891 59.5718 151.926 59.3843 151.957C59.1997 151.986 59.0193 152.011 58.8431 152.034C58.6698 152.054 58.5292 152.071 58.4212 152.085C58.1599 152.119 57.9156 152.175 57.6883 152.251C57.4639 152.325 57.282 152.437 57.1428 152.588C57.0065 152.736 56.9383 152.937 56.9383 153.193C56.9383 153.543 57.0676 153.807 57.3261 153.986C57.5874 154.162 57.9184 154.25 58.319 154.25ZM64.0068 146.273V155H63.0011V146.273H64.0068ZM70.1613 152.614L70.1443 151.369H70.3488L73.2124 148.455H74.4568L71.4056 151.54H71.3204L70.1613 152.614ZM69.2238 155V146.273H70.2295V155H69.2238ZM73.3829 155L70.8261 151.761L71.542 151.062L74.6613 155H73.3829ZM78.2259 155.136C77.5953 155.136 77.0512 154.997 76.5938 154.719C76.1393 154.438 75.7884 154.045 75.5413 153.543C75.297 153.037 75.1748 152.449 75.1748 151.778C75.1748 151.108 75.297 150.517 75.5413 150.006C75.7884 149.491 76.1322 149.091 76.5725 148.804C77.0157 148.514 77.5328 148.369 78.1237 148.369C78.4646 148.369 78.8012 148.426 79.1336 148.54C79.466 148.653 79.7685 148.838 80.0413 149.094C80.314 149.347 80.5313 149.682 80.6933 150.099C80.8552 150.517 80.9362 151.031 80.9362 151.642V152.068H75.8907V151.199H79.9134C79.9134 150.83 79.8396 150.5 79.6918 150.21C79.547 149.92 79.3396 149.692 79.0697 149.524C78.8026 149.357 78.4873 149.273 78.1237 149.273C77.7231 149.273 77.3765 149.372 77.0839 149.571C76.7941 149.767 76.5711 150.023 76.4149 150.338C76.2586 150.653 76.1805 150.991 76.1805 151.352V151.932C76.1805 152.426 76.2657 152.845 76.4362 153.189C76.6095 153.53 76.8495 153.79 77.1563 153.969C77.4631 154.145 77.8197 154.233 78.2259 154.233C78.4901 154.233 78.7288 154.196 78.9418 154.122C79.1578 154.045 79.3438 153.932 79.5001 153.781C79.6563 153.628 79.7771 153.437 79.8623 153.21L80.8339 153.483C80.7316 153.812 80.5597 154.102 80.3183 154.352C80.0768 154.599 79.7785 154.793 79.4234 154.932C79.0683 155.068 78.6691 155.136 78.2259 155.136ZM82.9145 157.455C82.744 157.455 82.5921 157.44 82.4585 157.412C82.325 157.386 82.2327 157.361 82.1815 157.335L82.4372 156.449C82.6815 156.511 82.8975 156.534 83.085 156.517C83.2725 156.5 83.4386 156.416 83.5835 156.266C83.7313 156.118 83.8662 155.878 83.9884 155.545L84.1759 155.034L81.7554 148.455H82.8463L84.6531 153.67H84.7213L86.5281 148.455H87.619L84.8406 155.955C84.7156 156.293 84.5608 156.572 84.3761 156.794C84.1915 157.018 83.977 157.185 83.7327 157.293C83.4912 157.401 83.2185 157.455 82.9145 157.455ZM90.4294 155L88.4351 148.455H89.4919L90.9067 153.466H90.9749L92.3726 148.455H93.4468L94.8268 153.449H94.8958L96.3098 148.455H97.3668L95.3728 155H94.3838L92.9521 149.972H92.8499L91.418 155H90.4294ZM101.132 155.136C100.541 155.136 100.023 154.996 99.5774 154.714C99.1344 154.433 98.7874 154.04 98.5374 153.534C98.2904 153.028 98.1664 152.437 98.1664 151.761C98.1664 151.08 98.2904 150.484 98.5374 149.976C98.7874 149.467 99.1344 149.072 99.5774 148.791C100.023 148.51 100.541 148.369 101.132 148.369C101.723 148.369 102.24 148.51 102.683 148.791C103.129 149.072 103.476 149.467 103.723 149.976C103.973 150.484 104.098 151.08 104.098 151.761C104.098 152.437 103.973 153.028 103.723 153.534C103.476 154.04 103.129 154.433 102.683 154.714C102.24 154.996 101.723 155.136 101.132 155.136ZM101.132 154.233C101.581 154.233 101.95 154.118 102.24 153.888C102.53 153.658 102.744 153.355 102.884 152.98C103.023 152.605 103.092 152.199 103.092 151.761C103.092 151.324 103.023 150.916 102.884 150.538C102.744 150.161 102.53 149.855 102.24 149.622C101.95 149.389 101.581 149.273 101.132 149.273C100.683 149.273 100.314 149.389 100.024 149.622C99.7344 149.855 99.5204 150.161 99.3814 150.538C99.2414 150.916 99.1724 151.324 99.1724 151.761C99.1724 152.199 99.2414 152.605 99.3814 152.98C99.5204 153.355 99.7344 153.658 100.024 153.888C100.314 154.118 100.683 154.233 101.132 154.233ZM105.633 155V148.455H106.605V149.443H106.673C106.792 149.119 107.008 148.857 107.321 148.655C107.633 148.453 107.985 148.352 108.377 148.352C108.451 148.352 108.544 148.354 108.654 148.357C108.765 148.359 108.849 148.364 108.906 148.369V149.392C108.872 149.384 108.794 149.371 108.672 149.354C108.552 149.334 108.426 149.324 108.292 149.324C107.974 149.324 107.69 149.391 107.44 149.524C107.193 149.655 106.997 149.837 106.852 150.07C106.71 150.3 106.639 150.562 106.639 150.858V155H105.633ZM112.37 155.136C111.825 155.136 111.343 154.999 110.926 154.723C110.508 154.445 110.181 154.053 109.946 153.547C109.71 153.038 109.592 152.438 109.592 151.744C109.592 151.057 109.71 150.46 109.946 149.955C110.181 149.449 110.51 149.058 110.93 148.783C111.35 148.507 111.836 148.369 112.387 148.369C112.814 148.369 113.15 148.44 113.397 148.582C113.647 148.722 113.838 148.881 113.968 149.06C114.102 149.236 114.206 149.381 114.279 149.494H114.365V146.273H115.37V155H114.399V153.994H114.279C114.206 154.114 114.1 154.264 113.964 154.446C113.828 154.625 113.633 154.786 113.38 154.928C113.127 155.067 112.791 155.136 112.37 155.136ZM112.507 154.233C112.91 154.233 113.251 154.128 113.529 153.918C113.808 153.705 114.02 153.411 114.164 153.036C114.309 152.658 114.382 152.222 114.382 151.727C114.382 151.239 114.311 150.811 114.169 150.445C114.027 150.075 113.816 149.788 113.538 149.584C113.26 149.376 112.916 149.273 112.507 149.273C112.081 149.273 111.725 149.382 111.441 149.601C111.16 149.817 110.948 150.111 110.806 150.483C110.667 150.852 110.598 151.267 110.598 151.727C110.598 152.193 110.669 152.616 110.811 152.997C110.956 153.375 111.169 153.676 111.45 153.901C111.734 154.122 112.086 154.233 112.507 154.233ZM121.988 149.92L121.085 150.176C121.028 150.026 120.944 149.879 120.833 149.737C120.725 149.592 120.578 149.473 120.39 149.379C120.203 149.286 119.963 149.239 119.67 149.239C119.27 149.239 118.936 149.331 118.669 149.516C118.404 149.697 118.272 149.929 118.272 150.21C118.272 150.46 118.363 150.658 118.545 150.803C118.727 150.947 119.011 151.068 119.397 151.165L120.369 151.403C120.954 151.545 121.39 151.763 121.677 152.055C121.964 152.345 122.108 152.719 122.108 153.176C122.108 153.551 122 153.886 121.784 154.182C121.571 154.477 121.272 154.71 120.889 154.881C120.505 155.051 120.059 155.136 119.551 155.136C118.883 155.136 118.331 154.991 117.893 154.702C117.456 154.412 117.179 153.989 117.062 153.432L118.017 153.193C118.108 153.545 118.279 153.81 118.532 153.986C118.788 154.162 119.122 154.25 119.534 154.25C120.002 154.25 120.375 154.151 120.65 153.952C120.929 153.75 121.068 153.509 121.068 153.227C121.068 153 120.988 152.81 120.829 152.656C120.67 152.5 120.426 152.384 120.096 152.307L119.005 152.051C118.406 151.909 117.966 151.689 117.684 151.391C117.406 151.089 117.267 150.713 117.267 150.261C117.267 149.892 117.37 149.565 117.578 149.281C117.788 148.997 118.073 148.774 118.434 148.612C118.798 148.45 119.21 148.369 119.67 148.369C120.318 148.369 120.826 148.511 121.196 148.795C121.568 149.08 121.832 149.455 121.988 149.92Z" fill="black"/>
</svg>
